<svg id="Grupo_1099300" data-name="Grupo 1099300" xmlns="http://www.w3.org/2000/svg" xmlns:xlink="http://www.w3.org/1999/xlink" width="209.938" height="181.521" viewBox="0 0 209.938 181.521">
  <defs>
    <clipPath id="clip-path">
      <rect id="Rectángulo_401453" data-name="Rectángulo 401453" width="209.938" height="181.521" fill="none"/>
    </clipPath>
  </defs>
  <g id="Grupo_1099299" data-name="Grupo 1099299" clip-path="url(#clip-path)">
    <path id="Trazado_875955" data-name="Trazado 875955" d="M.839,68.581C6.573,34.805,26.773,4,68.566.379c61.721-5.34,60.3,47.48,96.009,54.68,0,0,50.816,11.878,44.88,65.765-4.927,44.729-72.239,63.252-144.784,40.751C30.916,151.105-6.065,109.248.839,68.581" transform="translate(0 -0.001)" fill="#95dbb3"/>
    <circle id="Elipse_11542" data-name="Elipse 11542" cx="3.021" cy="3.021" r="3.021" transform="translate(53.189 28.865)" fill="none" stroke="#0f1f33" stroke-linecap="round" stroke-linejoin="round" stroke-width="2.027"/>
    <circle id="Elipse_11543" data-name="Elipse 11543" cx="3.021" cy="3.021" r="3.021" transform="translate(199.65 104.695)" fill="#e6d567" stroke="#e6d567" stroke-linecap="round" stroke-linejoin="round" stroke-width="2.027"/>
    <circle id="Elipse_11544" data-name="Elipse 11544" cx="3.021" cy="3.021" r="3.021" transform="translate(27.177 149.772)" fill="none" stroke="#0d367f" stroke-linecap="round" stroke-linejoin="round" stroke-width="2.027"/>
    <path id="Trazado_875956" data-name="Trazado 875956" d="M302.158,617.147c0,4.008-28.824,7.257-64.379,7.257s-64.379-3.249-64.379-7.257,28.824-7.257,64.379-7.257,64.379,3.249,64.379,7.257" transform="translate(-125.917 -442.883)" fill="#fcf9e8" fill-rule="evenodd"/>
    <path id="Trazado_875957" data-name="Trazado 875957" d="M190.222,261.314l48.79.334c-1.778-13.115-2.556-17.782-2.089-31.459.975-18.623,33.217-34.61,24.405-72.5C254.658,129,225.14,116.661,191.381,125.7c-15.309,4.1-26.834,12.969-30.082,28.481-.069.329-.449,4.1-.515,4.433-.786,4.049,1.346,17.206-.628,20.371-4.789,7.678-8.647,11.256-9.975,12.164-3.542,2.423-3.666,8.482,2.135,10.657,4.529,1.7,3.992.958,4.013,4.364a7.494,7.494,0,0,1-1.15,4.232c-.794,1.479-1.117,1.709-.376,3.365.758,1.693,3.322,2.793,3.322,2.793s-2.937,2.071.068,6.248c.662.92,1.962,1.416,2.135,2.148.923,3.907.64,3.747.624,5.216-.021,1.883.26,9.313,9.551,10.923,1.734.3,9.074.249,16.435-.154,1.3,9.483,1.186,12.307,3.283,20.371" transform="translate(-107.258 -89.163)" fill="#f6f0ca"/>
    <path id="Trazado_875958" data-name="Trazado 875958" d="M231.067,183.7l.139-59.014a86.931,86.931,0,0,0-12.414,2.4c-15.309,4.1-26.834,12.969-30.082,28.481-.069.329-.449,4.1-.515,4.433-.786,4.048,1.346,17.205-.628,20.371q-1.093,1.753-2.116,3.224l8.986.021,13.655.032Z" transform="translate(-134.669 -90.541)" fill="#35a064"/>
    <path id="Trazado_875959" data-name="Trazado 875959" d="M408.959,339.212l-21.405-.034-13.646-.022-22.984.188,0,24.793-.021,12.97-.047,21.792,33.541.054c-.125-3.288-.111-6.93.05-11.643.734-14.03,19.212-26.566,24.516-48.1" transform="translate(-254.777 -246.284)" fill="#77af8f"/>
    <path id="Trazado_875960" data-name="Trazado 875960" d="M203.336,346.111l4.492,1.029a7.8,7.8,0,1,0-.579-15.032l-3.891,1.142.044-26.107-22.723-.039.6-2.632a7.865,7.865,0,1,0-15.156.584l.594,2.025-8.635-.014c-3.81,5.523-6.774,8.233-7.9,9.006-3.543,2.423-3.666,8.482,2.135,10.657,4.529,1.7,3.992.958,4.013,4.364a7.5,7.5,0,0,1-1.15,4.232c-.794,1.479-1.117,1.709-.375,3.365.757,1.693,3.322,2.793,3.322,2.793s-2.937,2.071.068,6.248c.662.92,1.962,1.415,2.135,2.148.923,3.907.64,3.747.624,5.216-.021,1.883.26,9.313,9.55,10.924,1.735.3,9.074.249,16.435-.154.039.281.076.555.112.824l16.252.028Z" transform="translate(-107.257 -214.082)" fill="#daf2e4"/>
    <path id="Trazado_875961" data-name="Trazado 875961" d="M406.012,148.785a41.905,41.905,0,0,0-17.184-18.874A52.655,52.655,0,0,0,374,124.223a68.255,68.255,0,0,0-22.485-.918l-.2.047-.14,26.477.108,12.6-.17,19.793,23.027-.029,14.416,0,20.566,0a49.931,49.931,0,0,0,.832-19.7c-.833-5.483-2.4-10.793-3.941-13.713" transform="translate(-254.966 -89.164)" fill="#daf2e4"/>
    <path id="Trazado_875964" data-name="Trazado 875964" d="M494.737,289.287a4.127,4.127,0,0,1-5.262-2.546l-3.047-12.866,2.543.5,3.7,9.236Z" transform="translate(-353.228 -198.878)" fill="#c95836" fill-rule="evenodd"/>
    <path id="Trazado_875965" data-name="Trazado 875965" d="M481.861,266.311l-1.267-2.041a2.034,2.034,0,0,0-1.064-.86l-1.755-.595a.873.873,0,0,0-1.133.964l1.724,2.476a3.017,3.017,0,0,0,1.647,1.151l1.131.323Z" transform="translate(-346.118 -190.814)" fill="#c95836"/>
    <path id="Trazado_875966" data-name="Trazado 875966" d="M504.183,313.937c-3.188-.309-13.355-13.2-13.769-14.59-.467-1.565-3.475-10.58-3.475-10.58l4.6-1.015s3.578,7.424,4.239,7.973,9.81,8.257,9.81,8.257Z" transform="translate(-353.599 -208.957)" fill="#fff" fill-rule="evenodd"/>
    <path id="Trazado_875967" data-name="Trazado 875967" d="M557.283,316.111a2.281,2.281,0,0,1,.6-3.32c1.988-1.615,2.036,2.476,1.972,2.524s-2.57.8-2.57.8" transform="translate(-404.338 -226.864)" fill="#572a22" fill-rule="evenodd"/>
    <path id="Trazado_875968" data-name="Trazado 875968" d="M570.539,321.264s-.383,2.078-1.964,2.025-1.311-4.594-1.311-4.594Z" transform="translate(-411.916 -231.426)" fill="#572a22" fill-rule="evenodd"/>
    <path id="Trazado_875969" data-name="Trazado 875969" d="M560.955,326.507s.007,2.279.012,4.167a1.353,1.353,0,0,0,.8,1.2,1.742,1.742,0,0,0,1.583-.048l.458-.255a1.754,1.754,0,0,0,.951-1.725l-.6-4.951Z" transform="translate(-407.348 -235.929)" fill="#c95836" fill-rule="evenodd"/>
    <path id="Trazado_875970" data-name="Trazado 875970" d="M560.422,336.08l.154,1.287,1.432-1.121Z" transform="translate(-406.961 -244.05)" fill="#633c1d" fill-rule="evenodd"/>
    <path id="Trazado_875971" data-name="Trazado 875971" d="M562.046,316.758a1.209,1.209,0,0,0-.871-1.465l-2.231-.56a1.274,1.274,0,0,0-1.45.883,13.08,13.08,0,0,0-.632,3.508,1.464,1.464,0,0,0,.961,1.539c.684.172,2.9.027,3.4-1.161a17.574,17.574,0,0,0,.823-2.744" transform="translate(-404.374 -228.525)" fill="#c95836" fill-rule="evenodd"/>
    <path id="Trazado_875972" data-name="Trazado 875972" d="M565.625,316.076s.568-2.517-.34-3.56c-1.22-1.4-2.95-2.261-5.043-.779,0,0-1.136.565,2.307,1.32.437.1-.377,2.16.168,2.392a9.037,9.037,0,0,0,2.908.628" transform="translate(-406.699 -225.811)" fill="#572a22" fill-rule="evenodd"/>
    <path id="Trazado_875973" data-name="Trazado 875973" d="M571.987,328.555a.906.906,0,0,1-1.224.366.927.927,0,0,1-.125-1.284.905.905,0,0,1,1.224-.366.927.927,0,0,1,.125,1.283" transform="translate(-414.237 -237.568)" fill="#c95836" fill-rule="evenodd"/>
    <path id="Trazado_875974" data-name="Trazado 875974" d="M507.315,639.526c0,1.679,9.07,3.039,20.258,3.039s20.258-1.36,20.258-3.039-9.07-3.039-20.258-3.039-20.258,1.361-20.258,3.039" transform="translate(-368.396 -462.196)" fill="#e6d567" fill-rule="evenodd"/>
    <path id="Trazado_875975" data-name="Trazado 875975" d="M540.3,505.441s4.323-18.331,1.408-25.584l4.078-24.867-11.659.8,2.92,49.828Z" transform="translate(-387.87 -330.399)" fill="#e3633d" fill-rule="evenodd"/>
    <path id="Trazado_875976" data-name="Trazado 875976" d="M531.543,636.6l-1.81,1.676a17.247,17.247,0,0,1-3.025,1.219c-.291.515.167.785.569.853l7.3-.153s1.712-.349.5-3.591c-1.375.585-3.271,1-3.529,0" transform="translate(-382.412 -462.278)" fill="#4a2a1a" fill-rule="evenodd"/>
    <path id="Trazado_875977" data-name="Trazado 875977" d="M531.439,470.355l.46,21.059,1.706,21.112h8.482a29.01,29.01,0,0,1-.281-4.835c.194-1.165,1.455-12.212-.691-17.295l1.991-20.7Z" transform="translate(-385.914 -341.079)" fill="#082952" fill-rule="evenodd"/>
    <path id="Trazado_875978" data-name="Trazado 875978" d="M557.313,490.4l1.991-20.7-4.045.22L553.8,485.075a32.907,32.907,0,0,0,.326,8.452c.9,5.515.013,13.2-.147,14.163a29.044,29.044,0,0,0,.281,4.835h4.024a29.038,29.038,0,0,1-.281-4.835c.194-1.165,1.455-12.212-.691-17.295" transform="translate(-402.053 -341.079)" fill="#082952" fill-rule="evenodd"/>
    <path id="Trazado_875979" data-name="Trazado 875979" d="M588.213,501.734s-1.356-18.6-6.445-25.149l-3.6-24.922-11.232,2.832,18.237,47.957Z" transform="translate(-411.692 -327.983)" fill="#e3633d" fill-rule="evenodd"/>
    <path id="Trazado_875980" data-name="Trazado 875980" d="M626,630.747l-.707,2.27a14.974,14.974,0,0,1-1.921,2.46c.054.564.618.567,1.011.43l6.3-3.633s1.392-1.168-1.617-3.259c-.855,1.144-2.239,2.44-3.071,1.733" transform="translate(-452.671 -456.77)" fill="#4a2a1a" fill-rule="evenodd"/>
    <path id="Trazado_875981" data-name="Trazado 875981" d="M564.611,461.834l8,22.3,8.142,20.248,8.349-1.494a31.177,31.177,0,0,1-1.757-4.657c-.165-1.168-2.306-12.143-5.975-16.711l-4.4-22.541Z" transform="translate(-410.002 -333.299)" fill="#082952" fill-rule="evenodd"/>
    <path id="Trazado_875982" data-name="Trazado 875982" d="M548.29,409.987l-15.841,1.207c-2.577.946-1.548,15.8-1.548,15.8l10.416.482c4.839-.1,10.563,3.694,11.165-4.369.688-9.217-4.193-13.122-4.193-13.122" transform="translate(-385.376 -297.719)" fill="#082952" fill-rule="evenodd"/>
    <path id="Trazado_875983" data-name="Trazado 875983" d="M573.836,448.957s-10.512,1.132-13.932-3.484L574,444.263a41.215,41.215,0,0,1-.16,4.694" transform="translate(-406.584 -322.609)" fill="#73a3d1" fill-rule="evenodd"/>
    <path id="Trazado_875984" data-name="Trazado 875984" d="M529.321,343.592l5.484-1.07,4.75-.546,7.753,2.216c2.087.914,1.544,2.855.865,5.038l.913,6.866c1.818,5.155,1.981,9.021,1.958,14.415-8.439,3.589-21.4,3.392-24.291-.421-.044-10.792-.314-14.744,2.567-26.5" transform="translate(-382.492 -248.332)" fill="#fff" fill-rule="evenodd"/>
    <path id="Trazado_875985" data-name="Trazado 875985" d="M555.069,341.3s-1.685,4.8,1.56,4.859,4.789-4.925,4.789-4.925l-2.412-.94Z" transform="translate(-402.755 -247.111)" fill="#c95836"/>
    <line id="Línea_585" data-name="Línea 585" x1="1.292" y1="2.421" transform="translate(144.898 99.808)" fill="none" stroke="#401e1e" stroke-linecap="round" stroke-linejoin="round" stroke-width="1"/>
    <path id="Trazado_875986" data-name="Trazado 875986" d="M463.1,106.086a6.908,6.908,0,0,1,1.488.512l4.962,2.337,5.168-23.466-19.729-4.345.161,2.281a6.9,6.9,0,1,1-13.1-2.337l1.192-2.531-19.56-4.307-5.156,23.415-4.445-2.093a6.9,6.9,0,1,0-2.337,13.1l4.427-.312-3.727,16.926,19.357,4.263L431.1,131a6.9,6.9,0,1,0,13.1,2.337l-.077-1.1,19.35,4.261,3.779-17.161-5.007.353a6.9,6.9,0,1,1,.849-13.611" transform="translate(-293.519 -53.903)" fill="#e6d567"/>
    <path id="Trazado_875987" data-name="Trazado 875987" d="M595.6,274a3.9,3.9,0,0,0,2.915-4.7l-4.08-11.821-1.777,1.688,1.718,9.252Z" transform="translate(-430.371 -186.974)" fill="#c95836" fill-rule="evenodd"/>
    <path id="Trazado_875988" data-name="Trazado 875988" d="M592.606,249.955l-.021-2.271a1.922,1.922,0,0,1,.415-1.226l1.1-1.363a.826.826,0,0,1,1.394.2l-.124,2.851a2.854,2.854,0,0,1-.733,1.754l-.739.83Z" transform="translate(-430.316 -177.761)" fill="#c95836"/>
    <path id="Trazado_875989" data-name="Trazado 875989" d="M587.534,300.624c2.39-1.861,3.987-17.3,3.614-18.626-.419-1.487-2.58-10.211-2.58-10.211l-4.187,1.518s.9,7.742.65,8.515-3.657,11.562-3.657,11.562Z" transform="translate(-422.175 -197.363)" fill="#fff" fill-rule="evenodd"/>
    <path id="Trazado_875990" data-name="Trazado 875990" d="M597.664,366.061l.935-3.631.8-.53" transform="translate(-434.005 -262.8)" fill="none" stroke="#401e1e" stroke-linecap="round" stroke-linejoin="round" stroke-width="1"/>
  </g>
</svg>
