<svg xmlns="http://www.w3.org/2000/svg" xmlns:xlink="http://www.w3.org/1999/xlink" width="680.788" height="680.719" viewBox="0 0 680.788 680.719">
  <defs>
    <clipPath id="clip-path">
      <rect id="Rectángulo_401928" data-name="Rectángulo 401928" width="680.788" height="680.719" fill="none"/>
    </clipPath>
    <clipPath id="clip-path-2">
      <rect id="Rectángulo_401930" data-name="Rectángulo 401930" width="49.202" height="58.67" fill="#35a064"/>
    </clipPath>
    <clipPath id="clip-path-3">
      <rect id="Rectángulo_401931" data-name="Rectángulo 401931" width="66.606" height="63.966" fill="#8a803d"/>
    </clipPath>
    <clipPath id="clip-path-4">
      <rect id="Rectángulo_401932" data-name="Rectángulo 401932" width="64" height="64" fill="#35a064"/>
    </clipPath>
    <clipPath id="clip-path-5">
      <rect id="Rectángulo_401933" data-name="Rectángulo 401933" width="61.912" height="46.576" fill="#8a803d"/>
    </clipPath>
    <clipPath id="clip-path-6">
      <rect id="Rectángulo_401929" data-name="Rectángulo 401929" width="71.953" height="42.889" fill="#35a064"/>
    </clipPath>
    <clipPath id="clip-path-7">
      <rect id="Rectángulo_401934" data-name="Rectángulo 401934" width="65.578" height="61.602" fill="#8a803d"/>
    </clipPath>
    <clipPath id="clip-path-8">
      <rect id="Rectángulo_401935" data-name="Rectángulo 401935" width="71" height="57.026" fill="#8a803d"/>
    </clipPath>
    <clipPath id="clip-path-9">
      <rect id="Rectángulo_401936" data-name="Rectángulo 401936" width="54.883" height="58.834" fill="#77af8f" stroke="#179989" stroke-width="1"/>
    </clipPath>
  </defs>
  <g id="Grupo_1110152" data-name="Grupo 1110152" transform="translate(-460 -4471)">
    <g id="Grupo_1100208" data-name="Grupo 1100208" transform="translate(460 4471)">
      <g id="Grupo_1100207" data-name="Grupo 1100207" clip-path="url(#clip-path)">
        <path id="Trazado_877497" data-name="Trazado 877497" d="M255.487,297.94a115.224,115.224,0,0,1-44.244-8.787l-55.878,134.9a262.271,262.271,0,0,0,200.246,0l-55.878-134.9a115.232,115.232,0,0,1-44.245,8.787" transform="translate(84.907 158.022)" fill="#f6f0ca"/>
        <path id="Trazado_877499" data-name="Trazado 877499" d="M242.633,357.318a64.063,64.063,0,1,0,62.837,51.588,63.438,63.438,0,0,0-62.837-51.588" transform="translate(97.563 195.275)" fill="#fcf9e8"/>
        <path id="Trazado_877500" data-name="Trazado 877500" d="M238.807,470.794a53.238,53.238,0,1,1,20.336-4.038A52.971,52.971,0,0,1,238.807,470.794Z" transform="translate(101.391 199.099)" fill="none" stroke="#b8aa52" stroke-miterlimit="10" stroke-width="1"/>
        <path id="Trazado_877501" data-name="Trazado 877501" d="M255.487,196.916a115.233,115.233,0,0,1,44.245,8.787L355.611,70.8a262.271,262.271,0,0,0-200.246,0l55.878,134.9a115.219,115.219,0,0,1,44.244-8.787" transform="translate(84.907 27.838)" fill="#f6f0ca"/>
        <path id="Trazado_877503" data-name="Trazado 877503" d="M267.45,4.895a64.064,64.064,0,0,0-87.4,71.643,64.064,64.064,0,0,0,125.666.043A63.438,63.438,0,0,0,267.45,4.895" transform="translate(97.702)" fill="#fcf9e8"/>
        <path id="Trazado_877504" data-name="Trazado 877504" d="M239.061,113.475A52.712,52.712,0,0,1,186.844,70.6a53.237,53.237,0,1,1,104.429.036A52.722,52.722,0,0,1,239.061,113.475Z" transform="translate(101.531 3.826)" fill="none" stroke="#b8aa52" stroke-miterlimit="10" stroke-width="1"/>
        <path id="Trazado_877505" data-name="Trazado 877505" d="M424.077,155.342l-134.9,55.878a115.782,115.782,0,0,1,0,88.489l134.9,55.878a262.272,262.272,0,0,0,0-200.246" transform="translate(158.035 84.894)" fill="#f6f0ca"/>
        <path id="Trazado_877507" data-name="Trazado 877507" d="M480.607,218.384a63.707,63.707,0,0,0-58.968-39.614c-36.055,0-64.3,28.151-64.3,64.089s28.241,64.085,64.294,64.087h0a64.086,64.086,0,0,0,58.968-88.562" transform="translate(195.288 97.698)" fill="#fcf9e8"/>
        <path id="Trazado_877508" data-name="Trazado 877508" d="M417.81,292.294c-29.984,0-53.469-23.4-53.469-53.261s23.487-53.261,53.472-53.261a53.262,53.262,0,0,1,0,106.523Z" transform="translate(199.113 101.524)" fill="none" stroke="#b8aa52" stroke-miterlimit="10" stroke-width="1"/>
        <path id="Trazado_877509" data-name="Trazado 877509" d="M196.939,255.464a115.219,115.219,0,0,1,8.787-44.244l-134.9-55.878a262.271,262.271,0,0,0,0,200.246l134.9-55.878a115.233,115.233,0,0,1-8.787-44.245" transform="translate(27.851 84.894)" fill="#f6f0ca"/>
        <path id="Trazado_877511" data-name="Trazado 877511" d="M128.16,242.6c0-35.938-28.242-64.087-64.3-64.087a64.088,64.088,0,0,0,0,128.174h.008a64.682,64.682,0,0,0,43.418-16.6A63.09,63.09,0,0,0,128.16,242.6" transform="translate(0 97.559)" fill="#fcf9e8"/>
        <path id="Trazado_877512" data-name="Trazado 877512" d="M60.03,292.039a53.263,53.263,0,0,1,0-106.524c29.985,0,53.473,23.4,53.473,53.263a52.392,52.392,0,0,1-17.3,39.453,53.874,53.874,0,0,1-36.168,13.809Z" transform="translate(3.828 101.384)" fill="none" stroke="#b8aa52" stroke-miterlimit="10" stroke-width="1"/>
        <path id="Trazado_877513" data-name="Trazado 877513" d="M261.28,198.685,205.4,63.784A262.459,262.459,0,0,0,63.807,205.378l134.9,55.878a115.981,115.981,0,0,1,62.573-62.571" transform="translate(34.871 34.858)" fill="#95dbb3"/>
        <path id="Trazado_877515" data-name="Trazado 877515" d="M116.84,52.159A64.563,64.563,0,0,0,92.057,57.14,64.168,64.168,0,0,0,63,151.69a64.557,64.557,0,0,0,53.746,28.856,64.195,64.195,0,0,0,.093-128.387" transform="translate(28.632 28.505)" fill="#effaf4"/>
        <path id="Trazado_877516" data-name="Trazado 877516" d="M112.922,165.894a53.75,53.75,0,0,1-44.742-24.04A53.343,53.343,0,0,1,92.367,63.318a53.8,53.8,0,0,1,20.647-4.16,53.37,53.37,0,0,1-.093,106.736Z" transform="translate(32.459 32.33)" fill="none" stroke="#5178aa" stroke-miterlimit="10" stroke-width="1"/>
        <path id="Trazado_877517" data-name="Trazado 877517" d="M311.287,261.257l134.9-55.878A262.459,262.459,0,0,0,304.594,63.784l-55.878,134.9a115.973,115.973,0,0,1,62.571,62.571" transform="translate(135.923 34.858)" fill="#95dbb3"/>
        <path id="Trazado_877519" data-name="Trazado 877519" d="M368.975,180.725h.009A64.564,64.564,0,0,0,422.7,151.917a64.168,64.168,0,0,0-28.944-94.562,64.582,64.582,0,0,0-24.865-5.017,64.2,64.2,0,0,0,.085,128.387" transform="translate(166.706 28.603)" fill="#daf2e4"/>
        <path id="Trazado_877520" data-name="Trazado 877520" d="M365.147,166.075a53.37,53.37,0,0,1-.085-106.736,53.788,53.788,0,0,1,20.717,4.189,53.345,53.345,0,0,1,24.095,78.545,53.756,53.756,0,0,1-44.716,24Z" transform="translate(170.533 32.429)" fill="none" stroke="#179989" stroke-miterlimit="10" stroke-width="1"/>
        <path id="Trazado_877521" data-name="Trazado 877521" d="M248.716,311.264l55.878,134.9A262.459,262.459,0,0,0,446.189,304.571l-134.9-55.878a115.973,115.973,0,0,1-62.571,62.571" transform="translate(135.923 135.911)" fill="#95dbb3"/>
        <path id="Trazado_877523" data-name="Trazado 877523" d="M368.8,304.99a64.195,64.195,0,0,0-.094,128.387h0a64.6,64.6,0,0,0,24.776-4.978,64.171,64.171,0,0,0,29.059-94.555A64.563,64.563,0,0,0,368.8,304.99" transform="translate(166.608 166.677)" fill="#effaf4"/>
        <path id="Trazado_877524" data-name="Trazado 877524" d="M364.878,418.726a53.37,53.37,0,0,1,.094-106.736,53.754,53.754,0,0,1,44.742,24.039,53.344,53.344,0,0,1-24.19,78.539,53.8,53.8,0,0,1-20.641,4.159Z" transform="translate(170.435 170.503)" fill="none" stroke="#59836b" stroke-miterlimit="10" stroke-width="1"/>
        <path id="Trazado_877525" data-name="Trazado 877525" d="M198.707,248.693l-134.9,55.878A262.461,262.461,0,0,0,205.4,446.166l55.877-134.9a115.978,115.978,0,0,1-62.571-62.571" transform="translate(34.87 135.911)" fill="#95dbb3"/>
        <path id="Trazado_877527" data-name="Trazado 877527" d="M116.567,304.81a64.566,64.566,0,0,0-53.721,28.816,64.171,64.171,0,0,0,28.947,94.556,64.617,64.617,0,0,0,24.865,5.017h0a64.2,64.2,0,0,0-.093-128.389" transform="translate(28.534 166.579)" fill="#daf2e4"/>
        <path id="Trazado_877528" data-name="Trazado 877528" d="M112.833,418.547a53.862,53.862,0,0,1-20.718-4.19,53.346,53.346,0,0,1-24.1-78.539,53.758,53.758,0,0,1,44.722-24.008,53.37,53.37,0,0,1,.091,106.736Z" transform="translate(32.36 170.405)" fill="none" stroke="#59836b" stroke-miterlimit="10" stroke-width="1"/>
        <path id="Trazado_877529" data-name="Trazado 877529" d="M273.9,174.768H215.842L174.791,215.82v58.057l41.052,41.052H273.9l41.052-41.052V215.82Z" transform="translate(95.523 95.511)" fill="none" stroke="#d83a51" stroke-miterlimit="10" stroke-width="1"/>
        <path id="Trazado_877530" data-name="Trazado 877530" d="M256.674,153.17A103.482,103.482,0,1,0,360.157,256.651,103.481,103.481,0,0,0,256.674,153.17" transform="translate(83.72 83.707)" fill="#fff"/>
        <path id="Trazado_877531" data-name="Trazado 877531" d="M235.866,211.893l-21.388-51.635a100.463,100.463,0,0,0-54.2,54.2l51.635,21.388a44.389,44.389,0,0,1,23.951-23.951" transform="translate(87.594 87.581)" fill="#95dbb3"/>
        <path id="Trazado_877532" data-name="Trazado 877532" d="M255.006,235.843l51.635-21.388a100.458,100.458,0,0,0-54.2-54.2l-21.387,51.636a44.388,44.388,0,0,1,23.949,23.949" transform="translate(126.273 87.581)" fill="#77af8f"/>
        <path id="Trazado_877533" data-name="Trazado 877533" d="M211.239,233.625A44.109,44.109,0,0,1,214.6,216.69L162.968,195.3a100.387,100.387,0,0,0,0,76.645L214.6,250.561a44.109,44.109,0,0,1-3.364-16.936" transform="translate(84.907 106.733)" fill="#082952"/>
        <path id="Trazado_877534" data-name="Trazado 877534" d="M233.648,211.216a44.108,44.108,0,0,1,16.936,3.364l21.388-51.635a100.391,100.391,0,0,0-76.646,0l21.388,51.635a44.094,44.094,0,0,1,16.934-3.364" transform="translate(106.746 84.894)" fill="#e6d567"/>
        <path id="Trazado_877535" data-name="Trazado 877535" d="M211.916,231.034l-51.635,21.388a100.45,100.45,0,0,0,54.2,54.2l21.388-51.635a44.386,44.386,0,0,1-23.951-23.949" transform="translate(87.594 126.26)" fill="#59836b"/>
        <path id="Trazado_877536" data-name="Trazado 877536" d="M298.178,195.3l-51.635,21.388a44.313,44.313,0,0,1,0,33.87l51.635,21.388a100.391,100.391,0,0,0,0-76.646" transform="translate(134.736 106.733)" fill="#082952"/>
        <path id="Trazado_877537" data-name="Trazado 877537" d="M231.057,254.983l21.388,51.635a100.45,100.45,0,0,0,54.2-54.2l-51.635-21.387a44.389,44.389,0,0,1-23.949,23.949" transform="translate(126.273 126.26)" fill="#95dbb3"/>
        <path id="Trazado_877538" data-name="Trazado 877538" d="M233.648,249.884a44.1,44.1,0,0,1-16.934-3.364l-21.388,51.635a100.387,100.387,0,0,0,76.645,0L250.584,246.52a44.108,44.108,0,0,1-16.936,3.364" transform="translate(106.746 134.723)" fill="#e6d567"/>
        <path id="Trazado_877539" data-name="Trazado 877539" d="M251.636,162.388a89.226,89.226,0,1,0,89.225,89.227,89.226,89.226,0,0,0-89.225-89.227" transform="translate(88.758 88.745)" fill="#fff"/>
      </g>
    </g>
    <path id="Trazado_900111" data-name="Trazado 900111" d="M-48.05-11.848V-9.51h1.626v1.863H-48.05V-2.9a1.133,1.133,0,0,0,.2.756,1.015,1.015,0,0,0,.773.229,4.051,4.051,0,0,0,.747-.062V-.053a5.229,5.229,0,0,1-1.538.229,2.425,2.425,0,0,1-2.725-2.7V-7.646h-1.389V-9.51h1.389v-2.338ZM-40.632.176a4.668,4.668,0,0,1-3.406-1.283,4.561,4.561,0,0,1-1.314-3.419v-.246A5.745,5.745,0,0,1-44.8-7.334a4.064,4.064,0,0,1,1.569-1.74,4.4,4.4,0,0,1,2.316-.611,3.947,3.947,0,0,1,3.072,1.23,5,5,0,0,1,1.121,3.489v1.037h-6.056a2.36,2.36,0,0,0,.743,1.494,2.245,2.245,0,0,0,1.569.563,2.742,2.742,0,0,0,2.294-1.063l1.248,1.4A3.813,3.813,0,0,1-38.47-.277,5.075,5.075,0,0,1-40.632.176Zm-.29-7.813a1.587,1.587,0,0,0-1.226.512,2.651,2.651,0,0,0-.6,1.466h3.533v-.2a1.891,1.891,0,0,0-.457-1.311A1.638,1.638,0,0,0-40.922-7.638Zm5.247,2.795a5.64,5.64,0,0,1,.545-2.522,3.989,3.989,0,0,1,1.569-1.714,4.577,4.577,0,0,1,2.377-.606,4.33,4.33,0,0,1,3.142,1.178,4.727,4.727,0,0,1,1.358,3.2l.018.65a4.97,4.97,0,0,1-1.222,3.511A4.247,4.247,0,0,1-31.166.176a4.268,4.268,0,0,1-3.283-1.318,5.058,5.058,0,0,1-1.226-3.586Zm2.54.18a3.555,3.555,0,0,0,.51,2.073,1.682,1.682,0,0,0,1.459.717,1.686,1.686,0,0,0,1.441-.709,3.89,3.89,0,0,0,.519-2.267,3.519,3.519,0,0,0-.519-2.06,1.686,1.686,0,0,0-1.459-.731,1.658,1.658,0,0,0-1.441.726A3.955,3.955,0,0,0-33.135-4.662Zm13.377-2.465a6.9,6.9,0,0,0-.914-.07,1.86,1.86,0,0,0-1.89.976V0H-25.1V-9.51h2.4l.07,1.134a2.354,2.354,0,0,1,2.118-1.31,2.662,2.662,0,0,1,.791.114ZM-15.794,0h-2.54V-9.51h2.54Zm-.747-13.368h2.769l-2.435,2.725h-2.065ZM-8.095,0A2.821,2.821,0,0,1-8.35-.853a3.073,3.073,0,0,1-2.4,1.028,3.376,3.376,0,0,1-2.316-.809,2.6,2.6,0,0,1-.918-2.039,2.687,2.687,0,0,1,1.121-2.32A5.529,5.529,0,0,1-9.624-5.81h1.169v-.545a1.567,1.567,0,0,0-.338-1.055,1.331,1.331,0,0,0-1.068-.4,1.513,1.513,0,0,0-1.006.308,1.045,1.045,0,0,0-.365.844h-2.54a2.551,2.551,0,0,1,.51-1.529,3.37,3.37,0,0,1,1.441-1.1,5.253,5.253,0,0,1,2.092-.4A4.15,4.15,0,0,1-6.939-8.8,3.09,3.09,0,0,1-5.906-6.319V-2.2A4.546,4.546,0,0,0-5.528-.149V0Zm-2.1-1.767a2.188,2.188,0,0,0,1.037-.25,1.645,1.645,0,0,0,.7-.672V-4.324H-9.4q-1.907,0-2.03,1.318l-.009.149a1.017,1.017,0,0,0,.334.782A1.3,1.3,0,0,0-10.2-1.767ZM.132-4.825a5.731,5.731,0,0,1,1-3.542A3.237,3.237,0,0,1,3.858-9.686,2.913,2.913,0,0,1,6.152-8.648V-13.5H8.7V0H6.407L6.284-1.011A2.989,2.989,0,0,1,3.841.176,3.228,3.228,0,0,1,1.147-1.147,5.916,5.916,0,0,1,.132-4.825Zm2.54.181a3.775,3.775,0,0,0,.466,2.057,1.516,1.516,0,0,0,1.354.715,1.7,1.7,0,0,0,1.661-1V-6.64a1.675,1.675,0,0,0-1.644-1Q2.672-7.638,2.672-4.644ZM15.047.176a4.668,4.668,0,0,1-3.406-1.283,4.561,4.561,0,0,1-1.314-3.419v-.246a5.745,5.745,0,0,1,.554-2.562,4.064,4.064,0,0,1,1.569-1.74,4.4,4.4,0,0,1,2.316-.611,3.947,3.947,0,0,1,3.072,1.23,5,5,0,0,1,1.121,3.489v1.037H12.9a2.36,2.36,0,0,0,.743,1.494,2.245,2.245,0,0,0,1.569.563,2.742,2.742,0,0,0,2.294-1.063l1.248,1.4A3.813,3.813,0,0,1,17.209-.277,5.075,5.075,0,0,1,15.047.176Zm-.29-7.813a1.587,1.587,0,0,0-1.226.512,2.651,2.651,0,0,0-.6,1.466h3.533v-.2A1.891,1.891,0,0,0,16-7.174,1.638,1.638,0,0,0,14.757-7.638ZM27.563,0H25.014V-13.5h2.549Zm7.6,0a2.821,2.821,0,0,1-.255-.853,3.073,3.073,0,0,1-2.4,1.028,3.376,3.376,0,0,1-2.316-.809,2.6,2.6,0,0,1-.918-2.039A2.687,2.687,0,0,1,30.4-4.992a5.529,5.529,0,0,1,3.239-.817H34.8v-.545a1.567,1.567,0,0,0-.338-1.055A1.331,1.331,0,0,0,33.4-7.8a1.513,1.513,0,0,0-1.006.308,1.045,1.045,0,0,0-.365.844h-2.54A2.551,2.551,0,0,1,30-8.183a3.37,3.37,0,0,1,1.441-1.1,5.253,5.253,0,0,1,2.092-.4,4.15,4.15,0,0,1,2.791.883,3.09,3.09,0,0,1,1.033,2.483V-2.2a4.546,4.546,0,0,0,.378,2.048V0Zm-2.1-1.767a2.188,2.188,0,0,0,1.037-.25,1.645,1.645,0,0,0,.7-.672V-4.324h-.949q-1.907,0-2.03,1.318l-.009.149a1.017,1.017,0,0,0,.334.782A1.3,1.3,0,0,0,33.064-1.767Zm11.391-.861a.818.818,0,0,0-.461-.734,5.241,5.241,0,0,0-1.481-.479Q39.12-4.553,39.12-6.724a2.613,2.613,0,0,1,1.05-2.114,4.237,4.237,0,0,1,2.747-.848,4.56,4.56,0,0,1,2.9.853A2.687,2.687,0,0,1,46.9-6.618h-2.54a1.229,1.229,0,0,0-.352-.9,1.488,1.488,0,0,0-1.1-.356,1.52,1.52,0,0,0-.993.29.916.916,0,0,0-.352.738.783.783,0,0,0,.4.681,4.114,4.114,0,0,0,1.349.448,11.019,11.019,0,0,1,1.6.426,2.628,2.628,0,0,1,2.013,2.558,2.481,2.481,0,0,1-1.116,2.1,4.815,4.815,0,0,1-2.883.8A5.029,5.029,0,0,1,40.8-.25a3.561,3.561,0,0,1-1.455-1.169,2.716,2.716,0,0,1-.527-1.6h2.408a1.326,1.326,0,0,0,.5,1.037,1.987,1.987,0,0,0,1.248.36,1.839,1.839,0,0,0,1.1-.277A.861.861,0,0,0,44.455-2.628ZM-48.023,24h-2.549V14.49h2.549Zm-2.7-11.971a1.251,1.251,0,0,1,.382-.94A1.436,1.436,0,0,1-49.3,10.72a1.44,1.44,0,0,1,1.037.369,1.244,1.244,0,0,1,.387.94,1.247,1.247,0,0,1-.391.949,1.443,1.443,0,0,1-1.033.369,1.443,1.443,0,0,1-1.033-.369A1.247,1.247,0,0,1-50.722,12.029Zm7.128,2.461.079,1.1a3.32,3.32,0,0,1,2.733-1.274,2.759,2.759,0,0,1,2.25.888,4.142,4.142,0,0,1,.756,2.654V24h-2.54V17.9a1.654,1.654,0,0,0-.352-1.176,1.572,1.572,0,0,0-1.169-.366,1.747,1.747,0,0,0-1.608.916V24h-2.54V14.49Zm10.784-2.338V14.49h1.626v1.863H-32.81V21.1a1.133,1.133,0,0,0,.2.756,1.015,1.015,0,0,0,.773.229,4.051,4.051,0,0,0,.747-.062v1.925a5.229,5.229,0,0,1-1.538.229,2.425,2.425,0,0,1-2.725-2.7V16.354h-1.389V14.49h1.389V12.152Zm7.418,12.023A4.668,4.668,0,0,1-28.8,22.893a4.561,4.561,0,0,1-1.314-3.419v-.246a5.745,5.745,0,0,1,.554-2.562,4.064,4.064,0,0,1,1.569-1.74,4.4,4.4,0,0,1,2.316-.611,3.947,3.947,0,0,1,3.072,1.23,5,5,0,0,1,1.121,3.489v1.037h-6.056a2.36,2.36,0,0,0,.743,1.494,2.245,2.245,0,0,0,1.569.563,2.742,2.742,0,0,0,2.294-1.063l1.248,1.4a3.813,3.813,0,0,1-1.547,1.261A5.075,5.075,0,0,1-25.392,24.176Zm-.29-7.813a1.587,1.587,0,0,0-1.226.512,2.651,2.651,0,0,0-.6,1.466h3.533v-.2a1.891,1.891,0,0,0-.457-1.311A1.638,1.638,0,0,0-25.682,16.362ZM-17.358,24h-2.549V10.5h2.549Zm4.772,0h-2.549V14.49h2.549Zm-2.7-11.971a1.251,1.251,0,0,1,.382-.94,1.436,1.436,0,0,1,1.042-.369,1.44,1.44,0,0,1,1.037.369,1.244,1.244,0,0,1,.387.94,1.247,1.247,0,0,1-.391.949,1.443,1.443,0,0,1-1.033.369,1.443,1.443,0,0,1-1.033-.369A1.247,1.247,0,0,1-15.284,12.029Zm4.421,7.146A5.573,5.573,0,0,1-9.822,15.65a3.375,3.375,0,0,1,2.808-1.336,2.96,2.96,0,0,1,2.435,1.072l.105-.9h2.3v9.193a4.064,4.064,0,0,1-.567,2.171,3.641,3.641,0,0,1-1.6,1.406,5.608,5.608,0,0,1-2.408.483,5.215,5.215,0,0,1-2.039-.417,3.619,3.619,0,0,1-1.5-1.077L-9.158,24.7a2.975,2.975,0,0,0,2.3,1.063,2.178,2.178,0,0,0,1.573-.541,2.027,2.027,0,0,0,.563-1.534v-.51a2.938,2.938,0,0,1-2.312.993A3.366,3.366,0,0,1-9.8,22.835a5.572,5.572,0,0,1-1.059-3.555Zm2.54.181A3.489,3.489,0,0,0-7.8,21.391a1.648,1.648,0,0,0,1.424.737,1.762,1.762,0,0,0,1.661-.874V17.236a1.758,1.758,0,0,0-1.644-.874,1.659,1.659,0,0,0-1.437.751A3.933,3.933,0,0,0-8.323,19.356Zm12.48,4.82A4.668,4.668,0,0,1,.751,22.893,4.561,4.561,0,0,1-.562,19.474v-.246a5.745,5.745,0,0,1,.554-2.562,4.064,4.064,0,0,1,1.569-1.74,4.4,4.4,0,0,1,2.316-.611,3.947,3.947,0,0,1,3.072,1.23,5,5,0,0,1,1.121,3.489v1.037H2.013a2.36,2.36,0,0,0,.743,1.494,2.245,2.245,0,0,0,1.569.563,2.742,2.742,0,0,0,2.294-1.063l1.248,1.4a3.813,3.813,0,0,1-1.547,1.261A5.075,5.075,0,0,1,4.157,24.176Zm-.29-7.813a1.587,1.587,0,0,0-1.226.512,2.651,2.651,0,0,0-.6,1.466H5.572v-.2a1.891,1.891,0,0,0-.457-1.311A1.638,1.638,0,0,0,3.867,16.362Zm7.98-1.872.079,1.1a3.32,3.32,0,0,1,2.733-1.274,2.759,2.759,0,0,1,2.25.888,4.142,4.142,0,0,1,.756,2.654V24h-2.54V17.9a1.654,1.654,0,0,0-.352-1.176,1.572,1.572,0,0,0-1.169-.366A1.747,1.747,0,0,0,12,17.278V24H9.457V14.49Zm11.7,7.638a1.666,1.666,0,0,0,1.143-.387,1.355,1.355,0,0,0,.457-1.028h2.382A3.258,3.258,0,0,1,27,22.484a3.48,3.48,0,0,1-1.419,1.248,4.442,4.442,0,0,1-1.991.444,4.129,4.129,0,0,1-3.217-1.3A5.13,5.13,0,0,1,19.2,19.3v-.167a5.071,5.071,0,0,1,1.169-3.507,4.08,4.08,0,0,1,3.208-1.31,4,4,0,0,1,2.861,1.015,3.594,3.594,0,0,1,1.094,2.7H25.146a1.745,1.745,0,0,0-.457-1.206,1.7,1.7,0,0,0-2.5.183,3.749,3.749,0,0,0-.453,2.1v.264a3.8,3.8,0,0,0,.448,2.113A1.549,1.549,0,0,0,23.546,22.128ZM31.658,24H29.109V14.49h2.549Zm-2.7-11.971a1.251,1.251,0,0,1,.382-.94,1.648,1.648,0,0,1,2.079,0,1.342,1.342,0,0,1,0,1.89,1.629,1.629,0,0,1-2.065,0A1.247,1.247,0,0,1,28.96,12.029ZM39.261,24a2.821,2.821,0,0,1-.255-.853,3.073,3.073,0,0,1-2.4,1.028,3.376,3.376,0,0,1-2.316-.809,2.6,2.6,0,0,1-.918-2.039,2.687,2.687,0,0,1,1.121-2.32,5.529,5.529,0,0,1,3.239-.817H38.9v-.545a1.567,1.567,0,0,0-.338-1.055,1.331,1.331,0,0,0-1.068-.4,1.513,1.513,0,0,0-1.006.308,1.045,1.045,0,0,0-.365.844h-2.54a2.551,2.551,0,0,1,.51-1.529,3.37,3.37,0,0,1,1.441-1.1,5.253,5.253,0,0,1,2.092-.4,4.15,4.15,0,0,1,2.791.883,3.09,3.09,0,0,1,1.033,2.483V21.8a4.546,4.546,0,0,0,.378,2.048V24Zm-2.1-1.767a2.188,2.188,0,0,0,1.037-.25,1.645,1.645,0,0,0,.7-.672V19.676h-.949q-1.907,0-2.03,1.318l-.009.149a1.017,1.017,0,0,0,.334.782A1.3,1.3,0,0,0,37.16,22.233Zm11.391-.861a.818.818,0,0,0-.461-.734,5.241,5.241,0,0,0-1.481-.479q-3.393-.712-3.393-2.883a2.613,2.613,0,0,1,1.05-2.114,4.237,4.237,0,0,1,2.747-.848,4.56,4.56,0,0,1,2.9.853,2.687,2.687,0,0,1,1.085,2.215h-2.54a1.229,1.229,0,0,0-.352-.9,1.488,1.488,0,0,0-1.1-.356,1.52,1.52,0,0,0-.993.29.916.916,0,0,0-.352.738.783.783,0,0,0,.4.681,4.114,4.114,0,0,0,1.349.448,11.019,11.019,0,0,1,1.6.426,2.628,2.628,0,0,1,2.013,2.558,2.481,2.481,0,0,1-1.116,2.1,4.815,4.815,0,0,1-2.883.8A5.029,5.029,0,0,1,44.9,23.75a3.561,3.561,0,0,1-1.455-1.169,2.716,2.716,0,0,1-.527-1.6h2.408a1.326,1.326,0,0,0,.5,1.037,1.987,1.987,0,0,0,1.248.36,1.839,1.839,0,0,0,1.1-.277A.861.861,0,0,0,48.551,21.372ZM-33.091,35.2l3.287,9.281,3.27-9.281h3.463V48h-2.646V44.5l.264-6.038L-28.907,48h-1.811l-3.445-9.527L-33.9,44.5V48h-2.637V35.2Zm17.851,11.83a3.185,3.185,0,0,1-2.6,1.143,3,3,0,0,1-2.333-.879A3.752,3.752,0,0,1-21,44.722V38.49h2.54v6.151q0,1.487,1.354,1.487a1.834,1.834,0,0,0,1.775-.9V38.49h2.549V48H-15.17ZM-16.374,34.5h2.769l-2.435,2.725h-2.065ZM-8.183,48h-2.549V34.5h2.549ZM-3.05,36.152V38.49h1.626v1.863H-3.05V45.1a1.133,1.133,0,0,0,.2.756,1.015,1.015,0,0,0,.773.229,4.051,4.051,0,0,0,.747-.062v1.925a5.229,5.229,0,0,1-1.538.229,2.425,2.425,0,0,1-2.725-2.7V40.354H-6.979V38.49H-5.59V36.152ZM2.672,48H.123V38.49H2.672Zm-2.7-11.971a1.251,1.251,0,0,1,.382-.94A1.436,1.436,0,0,1,1.4,34.72a1.44,1.44,0,0,1,1.037.369,1.342,1.342,0,0,1,0,1.89,1.443,1.443,0,0,1-1.033.369,1.443,1.443,0,0,1-1.033-.369A1.247,1.247,0,0,1-.026,36.029Zm13.351,7.3a5.7,5.7,0,0,1-1,3.52,3.2,3.2,0,0,1-2.694,1.323,2.963,2.963,0,0,1-2.329-1v4.482H4.764V38.49H7.119l.088.932a2.985,2.985,0,0,1,2.408-1.107,3.22,3.22,0,0,1,2.733,1.3,5.858,5.858,0,0,1,.976,3.586Zm-2.54-.194a3.763,3.763,0,0,0-.47-2.054,1.53,1.53,0,0,0-1.367-.723,1.662,1.662,0,0,0-1.644.917v3.906a1.691,1.691,0,0,0,1.661.943Q10.784,46.128,10.784,43.139ZM17.578,48H15.029V34.5h2.549Zm6.469.176a4.668,4.668,0,0,1-3.406-1.283,4.561,4.561,0,0,1-1.314-3.419v-.246a5.745,5.745,0,0,1,.554-2.562,4.064,4.064,0,0,1,1.569-1.74,4.4,4.4,0,0,1,2.316-.611,3.947,3.947,0,0,1,3.072,1.23,5,5,0,0,1,1.121,3.489v1.037H21.9a2.36,2.36,0,0,0,.743,1.494,2.245,2.245,0,0,0,1.569.563,2.742,2.742,0,0,0,2.294-1.063l1.248,1.4a3.813,3.813,0,0,1-1.547,1.261A5.075,5.075,0,0,1,24.047,48.176Zm-.29-7.813a1.587,1.587,0,0,0-1.226.512,2.651,2.651,0,0,0-.6,1.466h3.533v-.2A1.891,1.891,0,0,0,25,40.826,1.638,1.638,0,0,0,23.757,40.362Zm10.793,5.01a.818.818,0,0,0-.461-.734,5.241,5.241,0,0,0-1.481-.479q-3.393-.712-3.393-2.883a2.613,2.613,0,0,1,1.05-2.114,4.237,4.237,0,0,1,2.747-.848,4.56,4.56,0,0,1,2.9.853,2.687,2.687,0,0,1,1.085,2.215h-2.54a1.229,1.229,0,0,0-.352-.9,1.488,1.488,0,0,0-1.1-.356,1.52,1.52,0,0,0-.993.29.916.916,0,0,0-.352.738.783.783,0,0,0,.4.681,4.114,4.114,0,0,0,1.349.448,11.019,11.019,0,0,1,1.6.426,2.628,2.628,0,0,1,2.013,2.558,2.481,2.481,0,0,1-1.116,2.1,4.815,4.815,0,0,1-2.883.8A5.029,5.029,0,0,1,30.9,47.75a3.561,3.561,0,0,1-1.455-1.169,2.716,2.716,0,0,1-.527-1.6h2.408a1.326,1.326,0,0,0,.5,1.037,1.987,1.987,0,0,0,1.248.36,1.839,1.839,0,0,0,1.1-.277A.861.861,0,0,0,34.55,45.372Z" transform="translate(800 4791.859)" fill="#12263f"/>
    <path id="Trazado_900103" data-name="Trazado 900103" d="M-27.25-12.8l3.287,9.281,3.27-9.281h3.463V0h-2.646V-3.5l.264-6.038L-23.067,0h-1.811l-3.445-9.527.264,6.029V0H-30.7V-12.8ZM-9.4-.967A3.185,3.185,0,0,1-12,.176,3,3,0,0,1-14.335-.7a3.752,3.752,0,0,1-.822-2.575V-9.51h2.54v6.151q0,1.487,1.354,1.487a1.834,1.834,0,0,0,1.775-.9V-9.51h2.549V0H-9.33ZM.127-2.628a.818.818,0,0,0-.461-.734,5.241,5.241,0,0,0-1.481-.479q-3.393-.712-3.393-2.883a2.613,2.613,0,0,1,1.05-2.114,4.237,4.237,0,0,1,2.747-.848,4.56,4.56,0,0,1,2.9.853A2.687,2.687,0,0,1,2.571-6.618H.031a1.229,1.229,0,0,0-.352-.9,1.488,1.488,0,0,0-1.1-.356,1.52,1.52,0,0,0-.993.29.916.916,0,0,0-.352.738.783.783,0,0,0,.4.681,4.114,4.114,0,0,0,1.349.448,11.019,11.019,0,0,1,1.6.426A2.628,2.628,0,0,1,2.6-2.733a2.481,2.481,0,0,1-1.116,2.1A4.815,4.815,0,0,1-1.4.176,5.029,5.029,0,0,1-3.524-.25,3.561,3.561,0,0,1-4.979-1.419a2.716,2.716,0,0,1-.527-1.6H-3.1a1.326,1.326,0,0,0,.5,1.037,1.987,1.987,0,0,0,1.248.36A1.839,1.839,0,0,0-.246-1.9.861.861,0,0,0,.127-2.628ZM6.913,0H4.364V-9.51H6.913Zm-2.7-11.971a1.251,1.251,0,0,1,.382-.94,1.436,1.436,0,0,1,1.042-.369,1.44,1.44,0,0,1,1.037.369,1.244,1.244,0,0,1,.387.94,1.247,1.247,0,0,1-.391.949,1.443,1.443,0,0,1-1.033.369,1.443,1.443,0,0,1-1.033-.369A1.247,1.247,0,0,1,4.214-11.971Zm8.745,10.1A1.666,1.666,0,0,0,14.1-2.259a1.355,1.355,0,0,0,.457-1.028h2.382a3.258,3.258,0,0,1-.527,1.771A3.48,3.48,0,0,1,14.994-.268,4.442,4.442,0,0,1,13,.176a4.129,4.129,0,0,1-3.217-1.3A5.13,5.13,0,0,1,8.609-4.7v-.167A5.071,5.071,0,0,1,9.778-8.376a4.08,4.08,0,0,1,3.208-1.31A4,4,0,0,1,15.847-8.67a3.594,3.594,0,0,1,1.094,2.7H14.559A1.745,1.745,0,0,0,14.1-7.174a1.524,1.524,0,0,0-1.16-.464,1.53,1.53,0,0,0-1.34.647,3.749,3.749,0,0,0-.453,2.1v.264A3.8,3.8,0,0,0,11.6-2.515,1.549,1.549,0,0,0,12.959-1.872ZM23.9,0a2.821,2.821,0,0,1-.255-.853,3.073,3.073,0,0,1-2.4,1.028,3.376,3.376,0,0,1-2.316-.809,2.6,2.6,0,0,1-.918-2.039,2.687,2.687,0,0,1,1.121-2.32,5.529,5.529,0,0,1,3.239-.817h1.169v-.545A1.567,1.567,0,0,0,23.2-7.409a1.331,1.331,0,0,0-1.068-.4,1.513,1.513,0,0,0-1.006.308,1.045,1.045,0,0,0-.365.844h-2.54a2.551,2.551,0,0,1,.51-1.529,3.37,3.37,0,0,1,1.441-1.1,5.253,5.253,0,0,1,2.092-.4,4.15,4.15,0,0,1,2.791.883A3.09,3.09,0,0,1,26.09-6.319V-2.2a4.546,4.546,0,0,0,.378,2.048V0ZM21.8-1.767a2.188,2.188,0,0,0,1.037-.25,1.645,1.645,0,0,0,.7-.672V-4.324h-.949q-1.907,0-2.03,1.318l-.009.149a1.017,1.017,0,0,0,.334.782A1.3,1.3,0,0,0,21.8-1.767ZM30.722,0H28.173V-13.5h2.549Z" transform="translate(673 4702)" fill="#12263f"/>
    <path id="Trazado_900104" data-name="Trazado 900104" d="M-23.59-4.263a4.528,4.528,0,0,1-1.525,3.252A5.355,5.355,0,0,1-28.74.176a4.816,4.816,0,0,1-3.872-1.657,6.793,6.793,0,0,1-1.411-4.548v-.782a7.671,7.671,0,0,1,.65-3.252,4.874,4.874,0,0,1,1.859-2.158,5.207,5.207,0,0,1,2.808-.751,5.217,5.217,0,0,1,3.568,1.187,4.866,4.866,0,0,1,1.564,3.331h-2.637a2.673,2.673,0,0,0-.69-1.8,2.555,2.555,0,0,0-1.806-.558,2.24,2.24,0,0,0-1.973.945,5.3,5.3,0,0,0-.672,2.931v.967a5.667,5.667,0,0,0,.628,3.032,2.2,2.2,0,0,0,1.982.958,2.6,2.6,0,0,0,1.824-.558,2.521,2.521,0,0,0,.69-1.727Zm1.169-.58a5.64,5.64,0,0,1,.545-2.522,3.989,3.989,0,0,1,1.569-1.714,4.577,4.577,0,0,1,2.377-.606,4.33,4.33,0,0,1,3.142,1.178,4.727,4.727,0,0,1,1.358,3.2l.018.65a4.97,4.97,0,0,1-1.222,3.511A4.247,4.247,0,0,1-17.912.176a4.268,4.268,0,0,1-3.283-1.318,5.058,5.058,0,0,1-1.226-3.586Zm2.54.18a3.555,3.555,0,0,0,.51,2.073,1.682,1.682,0,0,0,1.459.717,1.686,1.686,0,0,0,1.441-.709,3.89,3.89,0,0,0,.519-2.267,3.519,3.519,0,0,0-.519-2.06,1.686,1.686,0,0,0-1.459-.731,1.658,1.658,0,0,0-1.441.726A3.955,3.955,0,0,0-19.881-4.662ZM-6.5-7.128a6.9,6.9,0,0,0-.914-.07,1.86,1.86,0,0,0-1.89.976V0h-2.54V-9.51h2.4l.07,1.134A2.354,2.354,0,0,1-7.26-9.686a2.662,2.662,0,0,1,.791.114ZM3.278-4.667a5.7,5.7,0,0,1-1,3.52A3.2,3.2,0,0,1-.413.176a2.963,2.963,0,0,1-2.329-1V3.656h-2.54V-9.51h2.355l.088.932A2.985,2.985,0,0,1-.431-9.686,3.22,3.22,0,0,1,2.3-8.385,5.858,5.858,0,0,1,3.278-4.8ZM.738-4.861a3.763,3.763,0,0,0-.47-2.054A1.53,1.53,0,0,0-1.1-7.638a1.662,1.662,0,0,0-1.644.917v3.906a1.691,1.691,0,0,0,1.661.943Q.738-1.872.738-4.861Zm3.718.018A5.64,5.64,0,0,1,5-7.365,3.989,3.989,0,0,1,6.57-9.079a4.577,4.577,0,0,1,2.377-.606,4.33,4.33,0,0,1,3.142,1.178,4.727,4.727,0,0,1,1.358,3.2l.018.65a4.97,4.97,0,0,1-1.222,3.511A4.247,4.247,0,0,1,8.965.176,4.268,4.268,0,0,1,5.682-1.143,5.058,5.058,0,0,1,4.456-4.729ZM7-4.662a3.555,3.555,0,0,0,.51,2.073,1.682,1.682,0,0,0,1.459.717,1.686,1.686,0,0,0,1.441-.709,3.89,3.89,0,0,0,.519-2.267,3.519,3.519,0,0,0-.519-2.06,1.686,1.686,0,0,0-1.459-.731,1.658,1.658,0,0,0-1.441.726A3.955,3.955,0,0,0,7-4.662ZM20.373-7.128a6.9,6.9,0,0,0-.914-.07,1.86,1.86,0,0,0-1.89.976V0h-2.54V-9.51h2.4l.07,1.134a2.354,2.354,0,0,1,2.118-1.31,2.662,2.662,0,0,1,.791.114ZM26.842,0a2.821,2.821,0,0,1-.255-.853,3.073,3.073,0,0,1-2.4,1.028,3.376,3.376,0,0,1-2.316-.809,2.6,2.6,0,0,1-.918-2.039,2.687,2.687,0,0,1,1.121-2.32,5.529,5.529,0,0,1,3.239-.817h1.169v-.545a1.567,1.567,0,0,0-.338-1.055,1.331,1.331,0,0,0-1.068-.4,1.513,1.513,0,0,0-1.006.308,1.045,1.045,0,0,0-.365.844h-2.54a2.551,2.551,0,0,1,.51-1.529,3.37,3.37,0,0,1,1.441-1.1,5.253,5.253,0,0,1,2.092-.4A4.15,4.15,0,0,1,28-8.8,3.09,3.09,0,0,1,29.03-6.319V-2.2a4.546,4.546,0,0,0,.378,2.048V0Zm-2.1-1.767a2.188,2.188,0,0,0,1.037-.25,1.645,1.645,0,0,0,.7-.672V-4.324h-.949q-1.907,0-2.03,1.318l-.009.149a1.017,1.017,0,0,0,.334.782A1.3,1.3,0,0,0,24.741-1.767ZM33.662,0H31.113V-13.5h2.549Z" transform="translate(800 4656)" fill="#12263f"/>
    <path id="Trazado_900105" data-name="Trazado 900105" d="M-44.371,0h-2.344V-11.375h2.344Zm4.1-8.453.07.977a2.951,2.951,0,0,1,2.43-1.133,2.453,2.453,0,0,1,2,.789A3.682,3.682,0,0,1-35.1-5.461V0h-2.258V-5.419a1.47,1.47,0,0,0-.312-1.045,1.4,1.4,0,0,0-1.039-.325,1.553,1.553,0,0,0-1.43.814V0h-2.258V-8.453Zm9.586-2.078v2.078h1.445V-6.8h-1.445v4.219a1.007,1.007,0,0,0,.18.672.9.9,0,0,0,.688.2,3.6,3.6,0,0,0,.664-.055V-.047a4.648,4.648,0,0,1-1.367.2,2.156,2.156,0,0,1-2.422-2.4V-6.8h-1.234V-8.453h1.234v-2.078Zm7.453,4.2a6.134,6.134,0,0,0-.812-.062,1.654,1.654,0,0,0-1.68.867V0H-27.98V-8.453h2.133l.063,1.008A2.092,2.092,0,0,1-23.9-8.609a2.366,2.366,0,0,1,.7.1ZM-17.48,0a2.507,2.507,0,0,1-.227-.758A2.732,2.732,0,0,1-19.84.156,3,3,0,0,1-21.9-.562a2.312,2.312,0,0,1-.816-1.812,2.389,2.389,0,0,1,1-2.062,4.915,4.915,0,0,1,2.879-.727H-17.8v-.484a1.393,1.393,0,0,0-.3-.937,1.183,1.183,0,0,0-.949-.352,1.345,1.345,0,0,0-.895.273.929.929,0,0,0-.324.75h-2.258a2.268,2.268,0,0,1,.453-1.359,3,3,0,0,1,1.281-.98,4.669,4.669,0,0,1,1.859-.355,3.689,3.689,0,0,1,2.48.785,2.747,2.747,0,0,1,.918,2.207v3.664A4.041,4.041,0,0,0-15.2-.133V0Zm-1.867-1.57a1.945,1.945,0,0,0,.922-.223,1.462,1.462,0,0,0,.625-.6V-3.844h-.844q-1.7,0-1.8,1.172l-.008.133a.9.9,0,0,0,.3.7A1.153,1.153,0,0,0-19.348-1.57ZM-6.191-4.148A5.07,5.07,0,0,1-7.078-1.02,2.843,2.843,0,0,1-9.473.156a2.633,2.633,0,0,1-2.07-.891V3.25H-13.8v-11.7h2.094l.078.828a2.654,2.654,0,0,1,2.141-.984,2.862,2.862,0,0,1,2.43,1.156,5.207,5.207,0,0,1,.867,3.188Zm-2.258-.172a3.345,3.345,0,0,0-.418-1.826,1.36,1.36,0,0,0-1.215-.643,1.478,1.478,0,0,0-1.461.815V-2.5a1.5,1.5,0,0,0,1.477.839Q-8.449-1.664-8.449-4.321ZM-.9.156A4.15,4.15,0,0,1-3.93-.984,4.054,4.054,0,0,1-5.1-4.023v-.219A5.106,5.106,0,0,1-4.605-6.52,3.612,3.612,0,0,1-3.211-8.066a3.914,3.914,0,0,1,2.059-.543,3.508,3.508,0,0,1,2.73,1.094,4.444,4.444,0,0,1,1,3.1v.922H-2.809a2.1,2.1,0,0,0,.66,1.328,2,2,0,0,0,1.395.5,2.437,2.437,0,0,0,2.039-.945L2.395-1.367A3.389,3.389,0,0,1,1.02-.246,4.511,4.511,0,0,1-.9.156ZM-1.16-6.789a1.411,1.411,0,0,0-1.09.455,2.357,2.357,0,0,0-.535,1.3H.355v-.181A1.681,1.681,0,0,0-.051-6.377,1.456,1.456,0,0,0-1.16-6.789Zm9.766.453A6.134,6.134,0,0,0,7.793-6.4a1.654,1.654,0,0,0-1.68.867V0H3.855V-8.453H5.988l.063,1.008A2.092,2.092,0,0,1,7.934-8.609a2.366,2.366,0,0,1,.7.1Zm5.664,4a.727.727,0,0,0-.41-.652,4.659,4.659,0,0,0-1.316-.426Q9.527-4.047,9.527-5.977a2.323,2.323,0,0,1,.934-1.879A3.766,3.766,0,0,1,12.9-8.609a4.053,4.053,0,0,1,2.574.758,2.388,2.388,0,0,1,.965,1.969H14.184a1.092,1.092,0,0,0-.312-.8A1.322,1.322,0,0,0,12.895-7a1.351,1.351,0,0,0-.883.258.814.814,0,0,0-.312.656.7.7,0,0,0,.355.605,3.657,3.657,0,0,0,1.2.4,9.8,9.8,0,0,1,1.422.379A2.336,2.336,0,0,1,16.465-2.43a2.2,2.2,0,0,1-.992,1.871A4.28,4.28,0,0,1,12.91.156a4.47,4.47,0,0,1-1.887-.379A3.166,3.166,0,0,1,9.73-1.262a2.414,2.414,0,0,1-.469-1.426H11.4a1.179,1.179,0,0,0,.445.922,1.766,1.766,0,0,0,1.109.32,1.635,1.635,0,0,0,.98-.246A.766.766,0,0,0,14.27-2.336Zm3.3-1.969a5.013,5.013,0,0,1,.484-2.242A3.546,3.546,0,0,1,19.445-8.07a4.069,4.069,0,0,1,2.113-.539,3.849,3.849,0,0,1,2.793,1.047,4.2,4.2,0,0,1,1.207,2.844l.016.578A4.418,4.418,0,0,1,24.488-1.02,3.775,3.775,0,0,1,21.574.156a3.793,3.793,0,0,1-2.918-1.172A4.5,4.5,0,0,1,17.566-4.2Zm2.258.16A3.16,3.16,0,0,0,20.277-2.3a1.5,1.5,0,0,0,1.3.638,1.5,1.5,0,0,0,1.281-.63,3.457,3.457,0,0,0,.461-2.015,3.128,3.128,0,0,0-.461-1.831,1.5,1.5,0,0,0-1.3-.649,1.474,1.474,0,0,0-1.281.646A3.516,3.516,0,0,0,19.824-4.144Zm9.219-4.309.07.977a2.951,2.951,0,0,1,2.43-1.133,2.453,2.453,0,0,1,2,.789,3.682,3.682,0,0,1,.672,2.359V0H31.957V-5.419a1.47,1.47,0,0,0-.312-1.045,1.4,1.4,0,0,0-1.039-.325,1.553,1.553,0,0,0-1.43.814V0H26.918V-8.453ZM40.824,0A2.507,2.507,0,0,1,40.6-.758a2.732,2.732,0,0,1-2.133.914,3,3,0,0,1-2.059-.719,2.312,2.312,0,0,1-.816-1.812,2.389,2.389,0,0,1,1-2.062,4.915,4.915,0,0,1,2.879-.727H40.5v-.484a1.393,1.393,0,0,0-.3-.937,1.183,1.183,0,0,0-.949-.352,1.345,1.345,0,0,0-.895.273.929.929,0,0,0-.324.75H35.777a2.268,2.268,0,0,1,.453-1.359,3,3,0,0,1,1.281-.98,4.669,4.669,0,0,1,1.859-.355,3.689,3.689,0,0,1,2.48.785,2.747,2.747,0,0,1,.918,2.207v3.664a4.041,4.041,0,0,0,.336,1.82V0ZM38.957-1.57a1.945,1.945,0,0,0,.922-.223,1.462,1.462,0,0,0,.625-.6V-3.844H39.66q-1.7,0-1.8,1.172l-.008.133a.9.9,0,0,0,.3.7A1.153,1.153,0,0,0,38.957-1.57ZM46.887,0H44.621V-12h2.266Z" transform="translate(928 4702)" fill="#12263f"/>
    <path id="Trazado_900106" data-name="Trazado 900106" d="M-34.34,0h-2.266V-12h2.266ZM-30.1,0h-2.266V-8.453H-30.1Zm-2.4-10.641a1.112,1.112,0,0,1,.34-.836,1.277,1.277,0,0,1,.926-.328,1.28,1.28,0,0,1,.922.328,1.105,1.105,0,0,1,.344.836,1.108,1.108,0,0,1-.348.844,1.283,1.283,0,0,1-.918.328,1.283,1.283,0,0,1-.918-.328A1.108,1.108,0,0,1-32.5-10.641Zm6.336,2.188.07.977a2.951,2.951,0,0,1,2.43-1.133,2.453,2.453,0,0,1,2,.789,3.682,3.682,0,0,1,.672,2.359V0h-2.258V-5.419a1.47,1.47,0,0,0-.312-1.045A1.4,1.4,0,0,0-24.6-6.789a1.553,1.553,0,0,0-1.43.814V0h-2.258V-8.453Zm6.555,4.164a4.954,4.954,0,0,1,.926-3.133,3,3,0,0,1,2.5-1.187,2.631,2.631,0,0,1,2.164.953l.094-.8h2.047V-.281a3.613,3.613,0,0,1-.5,1.93A3.236,3.236,0,0,1-13.8,2.9a4.985,4.985,0,0,1-2.141.43,4.635,4.635,0,0,1-1.812-.371A3.217,3.217,0,0,1-19.09,2l1-1.375a2.645,2.645,0,0,0,2.047.945,1.936,1.936,0,0,0,1.4-.48,1.8,1.8,0,0,0,.5-1.363V-.727A2.612,2.612,0,0,1-16.2.156a2.992,2.992,0,0,1-2.465-1.191,4.953,4.953,0,0,1-.941-3.16Zm2.258.161a3.1,3.1,0,0,0,.461,1.809,1.465,1.465,0,0,0,1.266.655,1.567,1.567,0,0,0,1.477-.777V-6.012a1.563,1.563,0,0,0-1.461-.777,1.474,1.474,0,0,0-1.277.667A3.5,3.5,0,0,0-17.348-4.128ZM-5.082-.859A2.831,2.831,0,0,1-7.395.156,2.67,2.67,0,0,1-9.469-.625a3.335,3.335,0,0,1-.73-2.289V-8.453h2.258v5.467q0,1.322,1.2,1.322a1.63,1.63,0,0,0,1.578-.8V-8.453h2.266V0H-5.02Zm-4.453-9.809a.94.94,0,0,1,.3-.71,1.081,1.081,0,0,1,.777-.286,1.062,1.062,0,0,1,.781.294.954.954,0,0,1,.3.7.941.941,0,0,1-.3.7,1.07,1.07,0,0,1-.781.29,1.106,1.106,0,0,1-.77-.278A.914.914,0,0,1-9.535-10.668Zm3.8,0a.933.933,0,0,1,.309-.706,1.08,1.08,0,0,1,.77-.29,1.106,1.106,0,0,1,.77.286.919.919,0,0,1,.316.71.948.948,0,0,1-.3.7,1.075,1.075,0,0,1-.785.294,1.062,1.062,0,0,1-.781-.294A.954.954,0,0,1-5.73-10.668ZM1.246,0H-1.012V-8.453H1.246ZM.582-11.883H3.043L.879-9.461H-.957ZM7.77-2.336a.727.727,0,0,0-.41-.652,4.659,4.659,0,0,0-1.316-.426Q3.027-4.047,3.027-5.977a2.323,2.323,0,0,1,.934-1.879A3.766,3.766,0,0,1,6.4-8.609a4.053,4.053,0,0,1,2.574.758,2.388,2.388,0,0,1,.965,1.969H7.684a1.092,1.092,0,0,0-.312-.8A1.322,1.322,0,0,0,6.395-7a1.351,1.351,0,0,0-.883.258.814.814,0,0,0-.312.656.7.7,0,0,0,.355.605,3.657,3.657,0,0,0,1.2.4A9.8,9.8,0,0,1,8.176-4.7,2.336,2.336,0,0,1,9.965-2.43,2.2,2.2,0,0,1,8.973-.559,4.28,4.28,0,0,1,6.41.156,4.47,4.47,0,0,1,4.523-.223,3.166,3.166,0,0,1,3.23-1.262a2.414,2.414,0,0,1-.469-1.426H4.9a1.179,1.179,0,0,0,.445.922,1.766,1.766,0,0,0,1.109.32,1.635,1.635,0,0,0,.98-.246A.766.766,0,0,0,7.77-2.336Zm6.352-8.2v2.078h1.445V-6.8H14.121v4.219a1.007,1.007,0,0,0,.18.672.9.9,0,0,0,.688.2,3.6,3.6,0,0,0,.664-.055V-.047a4.648,4.648,0,0,1-1.367.2,2.156,2.156,0,0,1-2.422-2.4V-6.8H10.629V-8.453h1.234v-2.078ZM19.207,0H16.941V-8.453h2.266Zm-2.4-10.641a1.112,1.112,0,0,1,.34-.836,1.277,1.277,0,0,1,.926-.328,1.28,1.28,0,0,1,.922.328,1.105,1.105,0,0,1,.344.836,1.108,1.108,0,0,1-.348.844,1.283,1.283,0,0,1-.918.328,1.283,1.283,0,0,1-.918-.328A1.108,1.108,0,0,1,16.809-10.641Zm7.773,8.977A1.481,1.481,0,0,0,25.6-2.008,1.2,1.2,0,0,0,26-2.922h2.117a2.9,2.9,0,0,1-.469,1.574A3.093,3.093,0,0,1,26.391-.238a3.949,3.949,0,0,1-1.77.395A3.67,3.67,0,0,1,21.762-1,4.56,4.56,0,0,1,20.715-4.18v-.148a4.508,4.508,0,0,1,1.039-3.117,3.627,3.627,0,0,1,2.852-1.164,3.555,3.555,0,0,1,2.543.9,3.2,3.2,0,0,1,.973,2.4H26A1.551,1.551,0,0,0,25.6-6.377a1.354,1.354,0,0,0-1.031-.412,1.36,1.36,0,0,0-1.191.575,3.333,3.333,0,0,0-.4,1.866v.235a3.375,3.375,0,0,0,.4,1.878A1.377,1.377,0,0,0,24.582-1.664ZM29.059-4.3a5.013,5.013,0,0,1,.484-2.242A3.546,3.546,0,0,1,30.938-8.07a4.069,4.069,0,0,1,2.113-.539,3.849,3.849,0,0,1,2.793,1.047,4.2,4.2,0,0,1,1.207,2.844l.016.578A4.418,4.418,0,0,1,35.98-1.02,3.775,3.775,0,0,1,33.066.156a3.793,3.793,0,0,1-2.918-1.172A4.5,4.5,0,0,1,29.059-4.2Zm2.258.16A3.16,3.16,0,0,0,31.77-2.3a1.5,1.5,0,0,0,1.3.638,1.5,1.5,0,0,0,1.281-.63,3.457,3.457,0,0,0,.461-2.015,3.128,3.128,0,0,0-.461-1.831,1.5,1.5,0,0,0-1.3-.649,1.474,1.474,0,0,0-1.281.646A3.516,3.516,0,0,0,31.316-4.144Z" transform="translate(968 4814.859)" fill="#12263f"/>
    <path id="Trazado_900109" data-name="Trazado 900109" d="M-25.863,0h-2.266V-12h2.266Zm1.508-4.3a5.013,5.013,0,0,1,.484-2.242A3.546,3.546,0,0,1-22.477-8.07a4.069,4.069,0,0,1,2.113-.539A3.849,3.849,0,0,1-17.57-7.562a4.2,4.2,0,0,1,1.207,2.844l.016.578A4.418,4.418,0,0,1-17.434-1.02,3.775,3.775,0,0,1-20.348.156a3.793,3.793,0,0,1-2.918-1.172A4.5,4.5,0,0,1-24.355-4.2Zm2.258.16A3.16,3.16,0,0,0-21.645-2.3a1.5,1.5,0,0,0,1.3.638,1.5,1.5,0,0,0,1.281-.63,3.457,3.457,0,0,0,.461-2.015,3.128,3.128,0,0,0-.461-1.831,1.5,1.5,0,0,0-1.3-.649,1.474,1.474,0,0,0-1.281.646A3.516,3.516,0,0,0-22.1-4.144ZM-19.918-12h2.461l-2.164,2.422h-1.836Zm4.633,7.711a4.954,4.954,0,0,1,.926-3.133,3,3,0,0,1,2.5-1.187A2.631,2.631,0,0,1-9.7-7.656l.094-.8h2.047V-.281a3.613,3.613,0,0,1-.5,1.93A3.236,3.236,0,0,1-9.48,2.9a4.985,4.985,0,0,1-2.141.43,4.635,4.635,0,0,1-1.812-.371A3.217,3.217,0,0,1-14.77,2l1-1.375a2.645,2.645,0,0,0,2.047.945,1.936,1.936,0,0,0,1.4-.48,1.8,1.8,0,0,0,.5-1.363V-.727a2.612,2.612,0,0,1-2.055.883,2.992,2.992,0,0,1-2.465-1.191,4.953,4.953,0,0,1-.941-3.16Zm2.258.161a3.1,3.1,0,0,0,.461,1.809,1.465,1.465,0,0,0,1.266.655,1.567,1.567,0,0,0,1.477-.777V-6.012a1.563,1.563,0,0,0-1.461-.777,1.474,1.474,0,0,0-1.277.667A3.5,3.5,0,0,0-13.027-4.128ZM-3.441,0H-5.707V-8.453h2.266Zm-2.4-10.641a1.112,1.112,0,0,1,.34-.836,1.277,1.277,0,0,1,.926-.328,1.28,1.28,0,0,1,.922.328,1.105,1.105,0,0,1,.344.836,1.108,1.108,0,0,1-.348.844,1.283,1.283,0,0,1-.918.328A1.283,1.283,0,0,1-5.492-9.8,1.108,1.108,0,0,1-5.84-10.641ZM1.934-1.664a1.481,1.481,0,0,0,1.016-.344,1.2,1.2,0,0,0,.406-.914H5.473A2.9,2.9,0,0,1,5-1.348,3.093,3.093,0,0,1,3.742-.238a3.949,3.949,0,0,1-1.77.395A3.67,3.67,0,0,1-.887-1,4.56,4.56,0,0,1-1.934-4.18v-.148A4.508,4.508,0,0,1-.895-7.445,3.627,3.627,0,0,1,1.957-8.609a3.555,3.555,0,0,1,2.543.9,3.2,3.2,0,0,1,.973,2.4H3.355a1.551,1.551,0,0,0-.406-1.072,1.354,1.354,0,0,0-1.031-.412,1.36,1.36,0,0,0-1.191.575,3.333,3.333,0,0,0-.4,1.866v.235a3.375,3.375,0,0,0,.4,1.878A1.377,1.377,0,0,0,1.934-1.664ZM6.41-4.3a5.013,5.013,0,0,1,.484-2.242A3.546,3.546,0,0,1,8.289-8.07,4.069,4.069,0,0,1,10.4-8.609,3.849,3.849,0,0,1,13.2-7.562,4.2,4.2,0,0,1,14.4-4.719l.016.578A4.418,4.418,0,0,1,13.332-1.02,3.775,3.775,0,0,1,10.418.156,3.793,3.793,0,0,1,7.5-1.016,4.5,4.5,0,0,1,6.41-4.2Zm2.258.16A3.16,3.16,0,0,0,9.121-2.3a1.5,1.5,0,0,0,1.3.638,1.5,1.5,0,0,0,1.281-.63,3.457,3.457,0,0,0,.461-2.015A3.128,3.128,0,0,0,11.7-6.14a1.5,1.5,0,0,0-1.3-.649,1.474,1.474,0,0,0-1.281.646A3.516,3.516,0,0,0,8.668-4.144Zm15.516.183h-4.4v-1.82h4.4ZM-38.98,10.625l2.922,8.25,2.906-8.25h3.078V22h-2.352V18.891l.234-5.367L-35.262,22h-1.609l-3.062-8.469.234,5.359V22h-2.344V10.625ZM-23.277,22a2.507,2.507,0,0,1-.227-.758,2.732,2.732,0,0,1-2.133.914,3,3,0,0,1-2.059-.719,2.312,2.312,0,0,1-.816-1.812,2.389,2.389,0,0,1,1-2.062,4.915,4.915,0,0,1,2.879-.727H-23.6v-.484a1.393,1.393,0,0,0-.3-.937,1.183,1.183,0,0,0-.949-.352,1.345,1.345,0,0,0-.895.273.929.929,0,0,0-.324.75h-2.258a2.268,2.268,0,0,1,.453-1.359,3,3,0,0,1,1.281-.98,4.669,4.669,0,0,1,1.859-.355,3.689,3.689,0,0,1,2.48.785,2.747,2.747,0,0,1,.918,2.207v3.664A4.041,4.041,0,0,0-21,21.867V22Zm-1.867-1.57a1.945,1.945,0,0,0,.922-.223,1.462,1.462,0,0,0,.625-.6V18.156h-.844q-1.7,0-1.8,1.172l-.008.133a.9.9,0,0,0,.3.7A1.153,1.153,0,0,0-25.145,20.43Zm8.25-8.961v2.078h1.445V15.2h-1.445v4.219a1.007,1.007,0,0,0,.18.672.9.9,0,0,0,.688.2,3.6,3.6,0,0,0,.664-.055v1.711a4.648,4.648,0,0,1-1.367.2,2.156,2.156,0,0,1-2.422-2.4V15.2h-1.234V13.547h1.234V11.469ZM-10.3,22.156a4.15,4.15,0,0,1-3.027-1.141A4.054,4.054,0,0,1-14.5,17.977v-.219A5.106,5.106,0,0,1-14,15.48a3.612,3.612,0,0,1,1.395-1.547,3.914,3.914,0,0,1,2.059-.543,3.508,3.508,0,0,1,2.73,1.094,4.444,4.444,0,0,1,1,3.1v.922h-5.383a2.1,2.1,0,0,0,.66,1.328,2,2,0,0,0,1.395.5,2.437,2.437,0,0,0,2.039-.945L-7,20.633a3.389,3.389,0,0,1-1.375,1.121A4.511,4.511,0,0,1-10.3,22.156Zm-.258-6.945a1.411,1.411,0,0,0-1.09.455,2.357,2.357,0,0,0-.535,1.3h3.141v-.181a1.681,1.681,0,0,0-.406-1.165A1.456,1.456,0,0,0-10.559,15.211Zm7.133-1.664.07.945a2.971,2.971,0,0,1,2.43-1.1A2.255,2.255,0,0,1,1.316,14.68a2.9,2.9,0,0,1,2.539-1.289,2.521,2.521,0,0,1,2.047.8,3.681,3.681,0,0,1,.672,2.41V22H4.309V16.6a1.616,1.616,0,0,0-.281-1.053,1.245,1.245,0,0,0-.992-.333,1.409,1.409,0,0,0-1.406.971L1.637,22H-.621V16.6A1.6,1.6,0,0,0-.91,15.54a1.257,1.257,0,0,0-.984-.329,1.463,1.463,0,0,0-1.391.8V22H-5.543V13.547ZM13.207,22a2.507,2.507,0,0,1-.227-.758,2.732,2.732,0,0,1-2.133.914,3,3,0,0,1-2.059-.719,2.312,2.312,0,0,1-.816-1.812,2.389,2.389,0,0,1,1-2.062,4.915,4.915,0,0,1,2.879-.727h1.039v-.484a1.393,1.393,0,0,0-.3-.937,1.183,1.183,0,0,0-.949-.352,1.345,1.345,0,0,0-.895.273.929.929,0,0,0-.324.75H8.16a2.268,2.268,0,0,1,.453-1.359,3,3,0,0,1,1.281-.98,4.669,4.669,0,0,1,1.859-.355,3.689,3.689,0,0,1,2.48.785,2.747,2.747,0,0,1,.918,2.207v3.664a4.041,4.041,0,0,0,.336,1.82V22ZM11.34,20.43a1.945,1.945,0,0,0,.922-.223,1.462,1.462,0,0,0,.625-.6V18.156h-.844q-1.7,0-1.8,1.172l-.008.133a.9.9,0,0,0,.3.7A1.153,1.153,0,0,0,11.34,20.43ZM12.2,10H14.66L12.5,12.422H10.66Zm7.391,1.469v2.078h1.445V15.2H19.59v4.219a1.007,1.007,0,0,0,.18.672.9.9,0,0,0,.688.2,3.6,3.6,0,0,0,.664-.055v1.711a4.648,4.648,0,0,1-1.367.2,2.156,2.156,0,0,1-2.422-2.4V15.2H16.1V13.547h1.234V11.469ZM24.676,22H22.41V13.547h2.266Zm-2.4-10.641a1.112,1.112,0,0,1,.34-.836,1.465,1.465,0,0,1,1.848,0,1.193,1.193,0,0,1,0,1.68,1.448,1.448,0,0,1-1.836,0A1.108,1.108,0,0,1,22.277,11.359Zm7.773,8.977a1.481,1.481,0,0,0,1.016-.344,1.2,1.2,0,0,0,.406-.914H33.59a2.9,2.9,0,0,1-.469,1.574,3.093,3.093,0,0,1-1.262,1.109,3.949,3.949,0,0,1-1.77.395A3.67,3.67,0,0,1,27.23,21a4.56,4.56,0,0,1-1.047-3.184v-.148a4.508,4.508,0,0,1,1.039-3.117,3.627,3.627,0,0,1,2.852-1.164,3.555,3.555,0,0,1,2.543.9,3.2,3.2,0,0,1,.973,2.4H31.473a1.551,1.551,0,0,0-.406-1.072,1.51,1.51,0,0,0-2.223.163,3.333,3.333,0,0,0-.4,1.866v.235a3.375,3.375,0,0,0,.4,1.878A1.377,1.377,0,0,0,30.051,20.336ZM34.527,17.7a5.013,5.013,0,0,1,.484-2.242,3.546,3.546,0,0,1,1.395-1.523,4.069,4.069,0,0,1,2.113-.539,3.849,3.849,0,0,1,2.793,1.047,4.2,4.2,0,0,1,1.207,2.844l.016.578a4.418,4.418,0,0,1-1.086,3.121,4.209,4.209,0,0,1-5.832,0,4.5,4.5,0,0,1-1.09-3.187Zm2.258.16a3.16,3.16,0,0,0,.453,1.843,1.628,1.628,0,0,0,2.578.008,3.457,3.457,0,0,0,.461-2.015,3.128,3.128,0,0,0-.461-1.831,1.5,1.5,0,0,0-1.3-.649,1.474,1.474,0,0,0-1.281.646A3.516,3.516,0,0,0,36.785,17.856Z" transform="translate(938 4911.925)" fill="#12263f"/>
    <path id="Trazado_900110" data-name="Trazado 900110" d="M-29.289,0h-2.344L-36.2-7.484V0h-2.344V-11.375H-36.2l4.57,7.5v-7.5h2.336Zm6.8,0a2.507,2.507,0,0,1-.227-.758,2.732,2.732,0,0,1-2.133.914A3,3,0,0,1-26.91-.562a2.312,2.312,0,0,1-.816-1.812,2.389,2.389,0,0,1,1-2.062,4.915,4.915,0,0,1,2.879-.727h1.039v-.484a1.393,1.393,0,0,0-.3-.937,1.183,1.183,0,0,0-.949-.352,1.345,1.345,0,0,0-.895.273.929.929,0,0,0-.324.75h-2.258a2.268,2.268,0,0,1,.453-1.359,3,3,0,0,1,1.281-.98,4.669,4.669,0,0,1,1.859-.355,3.689,3.689,0,0,1,2.48.785,2.747,2.747,0,0,1,.918,2.207v3.664a4.041,4.041,0,0,0,.336,1.82V0Zm-1.867-1.57a1.945,1.945,0,0,0,.922-.223,1.462,1.462,0,0,0,.625-.6V-3.844h-.844q-1.7,0-1.8,1.172l-.008.133a.9.9,0,0,0,.3.7A1.153,1.153,0,0,0-24.359-1.57Zm8.25-8.961v2.078h1.445V-6.8h-1.445v4.219a1.007,1.007,0,0,0,.18.672.9.9,0,0,0,.688.2,3.6,3.6,0,0,0,.664-.055V-.047a4.648,4.648,0,0,1-1.367.2,2.156,2.156,0,0,1-2.422-2.4V-6.8H-19.6V-8.453h1.234v-2.078ZM-8.344-.859A2.831,2.831,0,0,1-10.656.156,2.67,2.67,0,0,1-12.73-.625a3.335,3.335,0,0,1-.73-2.289V-8.453H-11.2v5.467q0,1.322,1.2,1.322a1.63,1.63,0,0,0,1.578-.8V-8.453h2.266V0H-8.281ZM.3-6.336A6.134,6.134,0,0,0-.516-6.4a1.654,1.654,0,0,0-1.68.867V0H-4.453V-8.453H-2.32l.063,1.008A2.092,2.092,0,0,1-.375-8.609a2.366,2.366,0,0,1,.7.1ZM6.047,0A2.507,2.507,0,0,1,5.82-.758,2.732,2.732,0,0,1,3.688.156,3,3,0,0,1,1.629-.562,2.312,2.312,0,0,1,.813-2.375a2.389,2.389,0,0,1,1-2.062,4.915,4.915,0,0,1,2.879-.727H5.727v-.484a1.393,1.393,0,0,0-.3-.937,1.183,1.183,0,0,0-.949-.352,1.345,1.345,0,0,0-.895.273.929.929,0,0,0-.324.75H1a2.268,2.268,0,0,1,.453-1.359,3,3,0,0,1,1.281-.98,4.669,4.669,0,0,1,1.859-.355,3.689,3.689,0,0,1,2.48.785,2.747,2.747,0,0,1,.918,2.207v3.664a4.041,4.041,0,0,0,.336,1.82V0ZM4.18-1.57A1.945,1.945,0,0,0,5.1-1.793a1.462,1.462,0,0,0,.625-.6V-3.844H4.883q-1.7,0-1.8,1.172l-.008.133a.9.9,0,0,0,.3.7A1.153,1.153,0,0,0,4.18-1.57ZM12.109,0H9.844V-12h2.266Zm4.242,0H14.086V-8.453h2.266Zm-2.4-10.641a1.112,1.112,0,0,1,.34-.836,1.277,1.277,0,0,1,.926-.328,1.28,1.28,0,0,1,.922.328,1.105,1.105,0,0,1,.344.836,1.108,1.108,0,0,1-.348.844,1.283,1.283,0,0,1-.918.328A1.283,1.283,0,0,1,14.3-9.8,1.108,1.108,0,0,1,13.953-10.641Zm8.836,8.3a.727.727,0,0,0-.41-.652,4.659,4.659,0,0,0-1.316-.426q-3.016-.633-3.016-2.562a2.323,2.323,0,0,1,.934-1.879,3.766,3.766,0,0,1,2.441-.754A4.053,4.053,0,0,1,24-7.852a2.388,2.388,0,0,1,.965,1.969H22.7a1.092,1.092,0,0,0-.312-.8A1.322,1.322,0,0,0,21.414-7a1.351,1.351,0,0,0-.883.258.814.814,0,0,0-.312.656.7.7,0,0,0,.355.605,3.657,3.657,0,0,0,1.2.4A9.8,9.8,0,0,1,23.2-4.7,2.336,2.336,0,0,1,24.984-2.43a2.2,2.2,0,0,1-.992,1.871A4.28,4.28,0,0,1,21.43.156a4.47,4.47,0,0,1-1.887-.379A3.166,3.166,0,0,1,18.25-1.262a2.414,2.414,0,0,1-.469-1.426h2.141a1.179,1.179,0,0,0,.445.922,1.766,1.766,0,0,0,1.109.32,1.635,1.635,0,0,0,.98-.246A.766.766,0,0,0,22.789-2.336Zm6.352-8.2v2.078h1.445V-6.8H29.141v4.219a1.007,1.007,0,0,0,.18.672.9.9,0,0,0,.688.2,3.6,3.6,0,0,0,.664-.055V-.047a4.648,4.648,0,0,1-1.367.2,2.156,2.156,0,0,1-2.422-2.4V-6.8H25.648V-8.453h1.234v-2.078ZM36.742,0a2.507,2.507,0,0,1-.227-.758,2.732,2.732,0,0,1-2.133.914,3,3,0,0,1-2.059-.719,2.312,2.312,0,0,1-.816-1.812,2.389,2.389,0,0,1,1-2.062,4.915,4.915,0,0,1,2.879-.727h1.039v-.484a1.393,1.393,0,0,0-.3-.937,1.183,1.183,0,0,0-.949-.352,1.345,1.345,0,0,0-.895.273.929.929,0,0,0-.324.75H31.7a2.268,2.268,0,0,1,.453-1.359,3,3,0,0,1,1.281-.98,4.669,4.669,0,0,1,1.859-.355,3.689,3.689,0,0,1,2.48.785,2.747,2.747,0,0,1,.918,2.207v3.664a4.041,4.041,0,0,0,.336,1.82V0ZM34.875-1.57a1.945,1.945,0,0,0,.922-.223,1.462,1.462,0,0,0,.625-.6V-3.844h-.844q-1.7,0-1.8,1.172l-.008.133a.9.9,0,0,0,.3.7A1.153,1.153,0,0,0,34.875-1.57Z" transform="translate(803 4987.425)" fill="#12263f"/>
    <path id="Trazado_900108" data-name="Trazado 900108" d="M-19.125-2.82l2.578-8.555h2.609L-17.9,0h-2.445l-3.945-11.375h2.6ZM-10.633,0H-12.9V-8.453h2.266Zm-2.4-10.641a1.112,1.112,0,0,1,.34-.836,1.277,1.277,0,0,1,.926-.328,1.28,1.28,0,0,1,.922.328,1.105,1.105,0,0,1,.344.836,1.108,1.108,0,0,1-.348.844,1.283,1.283,0,0,1-.918.328,1.283,1.283,0,0,1-.918-.328A1.108,1.108,0,0,1-13.031-10.641Zm8.836,8.3a.727.727,0,0,0-.41-.652,4.659,4.659,0,0,0-1.316-.426q-3.016-.633-3.016-2.562A2.323,2.323,0,0,1-8-7.855a3.766,3.766,0,0,1,2.441-.754,4.053,4.053,0,0,1,2.574.758,2.388,2.388,0,0,1,.965,1.969H-4.281a1.092,1.092,0,0,0-.312-.8A1.322,1.322,0,0,0-5.57-7a1.351,1.351,0,0,0-.883.258.814.814,0,0,0-.312.656.7.7,0,0,0,.355.605,3.657,3.657,0,0,0,1.2.4A9.8,9.8,0,0,1-3.789-4.7,2.336,2.336,0,0,1-2-2.43,2.2,2.2,0,0,1-2.992-.559,4.28,4.28,0,0,1-5.555.156,4.47,4.47,0,0,1-7.441-.223,3.166,3.166,0,0,1-8.734-1.262,2.414,2.414,0,0,1-9.2-2.687h2.141a1.179,1.179,0,0,0,.445.922,1.766,1.766,0,0,0,1.109.32,1.635,1.635,0,0,0,.98-.246A.766.766,0,0,0-4.2-2.336ZM4.516-.859A2.831,2.831,0,0,1,2.2.156,2.67,2.67,0,0,1,.129-.625,3.335,3.335,0,0,1-.6-2.914V-8.453H1.656v5.467q0,1.322,1.2,1.322a1.63,1.63,0,0,0,1.578-.8V-8.453H6.7V0H4.578ZM13.3,0a2.507,2.507,0,0,1-.227-.758,2.732,2.732,0,0,1-2.133.914A3,3,0,0,1,8.887-.562,2.312,2.312,0,0,1,8.07-2.375a2.389,2.389,0,0,1,1-2.062,4.915,4.915,0,0,1,2.879-.727h1.039v-.484a1.393,1.393,0,0,0-.3-.937,1.183,1.183,0,0,0-.949-.352,1.345,1.345,0,0,0-.895.273.929.929,0,0,0-.324.75H8.258a2.268,2.268,0,0,1,.453-1.359,3,3,0,0,1,1.281-.98,4.669,4.669,0,0,1,1.859-.355,3.689,3.689,0,0,1,2.48.785,2.747,2.747,0,0,1,.918,2.207v3.664a4.041,4.041,0,0,0,.336,1.82V0ZM11.438-1.57a1.945,1.945,0,0,0,.922-.223,1.462,1.462,0,0,0,.625-.6V-3.844h-.844q-1.7,0-1.8,1.172l-.008.133a.9.9,0,0,0,.3.7A1.153,1.153,0,0,0,11.438-1.57ZM19.367,0H17.1V-12h2.266Z" transform="translate(681 4943.425)" fill="#12263f"/>
    <path id="Trazado_900107" data-name="Trazado 900107" d="M-22.25-4.945h-4.5v3.063h5.281V0h-7.625V-11.375h7.609v1.9H-26.75v2.711h4.5Zm6.586,2.609a.727.727,0,0,0-.41-.652,4.659,4.659,0,0,0-1.316-.426q-3.016-.633-3.016-2.562a2.323,2.323,0,0,1,.934-1.879,3.766,3.766,0,0,1,2.441-.754,4.053,4.053,0,0,1,2.574.758,2.388,2.388,0,0,1,.965,1.969H-15.75a1.092,1.092,0,0,0-.312-.8A1.322,1.322,0,0,0-17.039-7a1.351,1.351,0,0,0-.883.258.814.814,0,0,0-.312.656.7.7,0,0,0,.355.605,3.657,3.657,0,0,0,1.2.4,9.8,9.8,0,0,1,1.422.379A2.336,2.336,0,0,1-13.469-2.43a2.2,2.2,0,0,1-.992,1.871,4.28,4.28,0,0,1-2.562.715A4.47,4.47,0,0,1-18.91-.223,3.166,3.166,0,0,1-20.2-1.262a2.414,2.414,0,0,1-.469-1.426h2.141a1.179,1.179,0,0,0,.445.922,1.766,1.766,0,0,0,1.109.32A1.635,1.635,0,0,0-16-1.691.766.766,0,0,0-15.664-2.336ZM-4.406-4.148A5.07,5.07,0,0,1-5.293-1.02,2.843,2.843,0,0,1-7.687.156a2.633,2.633,0,0,1-2.07-.891V3.25h-2.258v-11.7h2.094l.078.828A2.654,2.654,0,0,1-7.7-8.609a2.862,2.862,0,0,1,2.43,1.156,5.207,5.207,0,0,1,.867,3.188Zm-2.258-.172a3.345,3.345,0,0,0-.418-1.826A1.36,1.36,0,0,0-8.3-6.789a1.478,1.478,0,0,0-1.461.815V-2.5a1.5,1.5,0,0,0,1.477.839Q-6.664-1.664-6.664-4.321ZM1.891,0a2.507,2.507,0,0,1-.227-.758A2.732,2.732,0,0,1-.469.156,3,3,0,0,1-2.527-.562a2.312,2.312,0,0,1-.816-1.812,2.389,2.389,0,0,1,1-2.062A4.915,4.915,0,0,1,.531-5.164H1.57v-.484a1.393,1.393,0,0,0-.3-.937A1.183,1.183,0,0,0,.32-6.937a1.345,1.345,0,0,0-.895.273.929.929,0,0,0-.324.75H-3.156A2.268,2.268,0,0,1-2.7-7.273a3,3,0,0,1,1.281-.98A4.669,4.669,0,0,1,.438-8.609a3.689,3.689,0,0,1,2.48.785,2.747,2.747,0,0,1,.918,2.207v3.664a4.041,4.041,0,0,0,.336,1.82V0ZM.023-1.57a1.945,1.945,0,0,0,.922-.223,1.462,1.462,0,0,0,.625-.6V-3.844H.727q-1.7,0-1.8,1.172l-.008.133a.9.9,0,0,0,.3.7A1.153,1.153,0,0,0,.023-1.57Zm9.063-.094A1.481,1.481,0,0,0,10.1-2.008a1.2,1.2,0,0,0,.406-.914h2.117a2.9,2.9,0,0,1-.469,1.574A3.093,3.093,0,0,1,10.895-.238a3.949,3.949,0,0,1-1.77.395A3.67,3.67,0,0,1,6.266-1,4.56,4.56,0,0,1,5.219-4.18v-.148A4.508,4.508,0,0,1,6.258-7.445,3.627,3.627,0,0,1,9.109-8.609a3.555,3.555,0,0,1,2.543.9,3.2,3.2,0,0,1,.973,2.4H10.508A1.551,1.551,0,0,0,10.1-6.377,1.354,1.354,0,0,0,9.07-6.789a1.36,1.36,0,0,0-1.191.575,3.333,3.333,0,0,0-.4,1.866v.235a3.375,3.375,0,0,0,.4,1.878A1.377,1.377,0,0,0,9.086-1.664ZM16.3,0H14.031V-8.453H16.3ZM13.9-10.641a1.112,1.112,0,0,1,.34-.836,1.277,1.277,0,0,1,.926-.328,1.28,1.28,0,0,1,.922.328,1.105,1.105,0,0,1,.344.836,1.108,1.108,0,0,1-.348.844,1.283,1.283,0,0,1-.918.328,1.283,1.283,0,0,1-.918-.328A1.108,1.108,0,0,1,13.9-10.641ZM23.055,0a2.507,2.507,0,0,1-.227-.758A2.732,2.732,0,0,1,20.7.156a3,3,0,0,1-2.059-.719,2.312,2.312,0,0,1-.816-1.812,2.389,2.389,0,0,1,1-2.062A4.915,4.915,0,0,1,21.7-5.164h1.039v-.484a1.393,1.393,0,0,0-.3-.937,1.183,1.183,0,0,0-.949-.352,1.345,1.345,0,0,0-.895.273.929.929,0,0,0-.324.75H18.008a2.268,2.268,0,0,1,.453-1.359,3,3,0,0,1,1.281-.98A4.669,4.669,0,0,1,21.6-8.609a3.689,3.689,0,0,1,2.48.785A2.747,2.747,0,0,1,25-5.617v3.664a4.041,4.041,0,0,0,.336,1.82V0ZM21.188-1.57a1.945,1.945,0,0,0,.922-.223,1.462,1.462,0,0,0,.625-.6V-3.844h-.844q-1.7,0-1.8,1.172l-.008.133a.9.9,0,0,0,.3.7A1.153,1.153,0,0,0,21.188-1.57ZM29.117,0H26.852V-12h2.266Z" transform="translate(630 4814.859)" fill="#12263f"/>
    <g id="Grupo_1100212" data-name="Grupo 1100212" transform="translate(970.798 4586.293)">
      <g id="Grupo_1100211" data-name="Grupo 1100211" transform="translate(0 0)" clip-path="url(#clip-path-2)">
        <path id="Trazado_877544" data-name="Trazado 877544" d="M21.338,58.665c-4.829,0-9.664-1.108-11.88-3.335a1.174,1.174,0,0,1-.314-1.118c.062-.247,1.541-6.84-1.149-12.782a14.852,14.852,0,0,0-2.18-3.17C3.227,35.09,0,31.152,0,19.813L.005,19.7C.1.572,19.266.026,21.452.026c.1,0,.216-.005.366-.01C22.091.01,22.441,0,22.849,0c4.376,0,18.839,1.386,20.936,19.266.01.1.345,2.118,4.855,9.159a3.324,3.324,0,0,1,.495,2.453,3.231,3.231,0,0,1-1.665,2.1,35.369,35.369,0,0,1-3.732,1.83,37.173,37.173,0,0,1-.021,8.329c-.567,2.969-5,3.592-8.628,3.592-.469,0-.758-.015-.758-.015l-.149-.005a2.229,2.229,0,0,0-.619.077V54.5a1.188,1.188,0,0,1-.345.83c-2.216,2.227-7.051,3.335-11.88,3.335m-9.772-4.618c3.958,3.046,15.808,3.026,19.638-.072V46.62c0-1.041.778-2.268,2.979-2.268.17,0,.278.01.294.01a5.585,5.585,0,0,0,.613.01c3.933,0,6.154-.845,6.309-1.675.531-2.757-.088-8.463-.088-8.52a1.187,1.187,0,0,1,.747-1.232,33.374,33.374,0,0,0,4.226-2,1.093,1.093,0,0,0,.546-.562,1,1,0,0,0-.155-.644c-4.886-7.618-5.221-9.9-5.247-10.272C39.569,3.6,26.73,2.361,22.849,2.361c-.387,0-.706.005-.964.015-.175.005-.325.01-.433.01-3.17,0-19.009.83-19.086,17.313v.108c0,10.5,2.922,14.081,5.278,16.962a16.612,16.612,0,0,1,2.5,3.68,23.623,23.623,0,0,1,1.423,13.6" transform="translate(0 0.001)" fill="#35a064"/>
        <path id="Trazado_877545" data-name="Trazado 877545" d="M4.042,5.982a1.181,1.181,0,0,0-1.8,1.526l.046.057a1.209,1.209,0,0,0,.907.423,1.187,1.187,0,0,0,.9-1.943Z" transform="translate(8.132 23.115)" fill="#35a064"/>
        <path id="Trazado_877546" data-name="Trazado 877546" d="M4.5,6.355,4.411,6.3A1.182,1.182,0,1,0,3.262,8.37l.046.021a1.2,1.2,0,0,0,.593.165,1.157,1.157,0,0,0,1.015-.588A1.176,1.176,0,0,0,4.5,6.355" transform="translate(11.025 25.561)" fill="#35a064"/>
        <path id="Trazado_877547" data-name="Trazado 877547" d="M2.255,2.624l-.036.036A1.154,1.154,0,0,0,2.4,4.289a1.134,1.134,0,0,0,.732.258A1.234,1.234,0,0,0,4.095,4.1a1.166,1.166,0,0,0-.17-1.644,1.2,1.2,0,0,0-1.67.165" transform="translate(8.157 9.113)" fill="#35a064"/>
        <path id="Trazado_877548" data-name="Trazado 877548" d="M3.8,5.56a1.182,1.182,0,0,0-2.232.778l.036.093a1.117,1.117,0,0,0,1.072.742A1.149,1.149,0,0,0,3.095,7.1,1.212,1.212,0,0,0,3.8,5.56" transform="translate(6.25 19.831)" fill="#35a064"/>
        <path id="Trazado_877549" data-name="Trazado 877549" d="M3.645,4.671a1.179,1.179,0,1,0-2.227.778l.031.093a1.114,1.114,0,0,0,1.072.737,1.144,1.144,0,0,0,.417-.067,1.214,1.214,0,0,0,.706-1.541" transform="translate(5.612 16.117)" fill="#35a064"/>
        <path id="Trazado_877550" data-name="Trazado 877550" d="M6.521,4.609a1.179,1.179,0,0,0,1.108.773,1.248,1.248,0,0,0,.407-.067A1.187,1.187,0,0,0,8.742,3.8l-.031-.072a1.146,1.146,0,0,0-1.495-.67,1.215,1.215,0,0,0-.7,1.551" transform="translate(26.786 12.39)" fill="#35a064"/>
        <path id="Trazado_877551" data-name="Trazado 877551" d="M3.3,1.761,3.221,1.8A1.15,1.15,0,0,0,2.829,3.39a1.182,1.182,0,0,0,1.031.582,1.327,1.327,0,0,0,.613-.16A1.181,1.181,0,0,0,3.3,1.761" transform="translate(11.061 6.672)" fill="#35a064"/>
        <path id="Trazado_877552" data-name="Trazado 877552" d="M2.292,5.3a1.116,1.116,0,0,0,.387.072,1.239,1.239,0,0,0,1.139-.8,1.181,1.181,0,0,0-2.211-.83l-.031.082A1.152,1.152,0,0,0,2.292,5.3" transform="translate(6.259 12.37)" fill="#35a064"/>
        <path id="Trazado_877553" data-name="Trazado 877553" d="M6.315,4.19a1.178,1.178,0,0,0,1.66.139,1.179,1.179,0,0,0,.144-1.665l-.052-.057a1.182,1.182,0,0,0-1.809,1.52l.057.062" transform="translate(24.858 9.093)" fill="#35a064"/>
        <path id="Trazado_877554" data-name="Trazado 877554" d="M8.048,4.86a1.211,1.211,0,0,0-1.531.732,1.181,1.181,0,0,0,.691,1.52,1.287,1.287,0,0,0,.412.072,1.175,1.175,0,0,0,1.108-.768l.036-.082A1.156,1.156,0,0,0,8.048,4.86" transform="translate(26.758 19.901)" fill="#35a064"/>
        <path id="Trazado_877555" data-name="Trazado 877555" d="M7.11,1.794l-.052-.026A1.179,1.179,0,1,0,5.868,3.8l.088.046a1.1,1.1,0,0,0,.577.155A1.169,1.169,0,0,0,7.564,3.4a1.181,1.181,0,0,0-.454-1.6" transform="translate(21.949 6.67)" fill="#35a064"/>
        <path id="Trazado_877556" data-name="Trazado 877556" d="M6.261,6.017A1.176,1.176,0,0,0,6.4,7.677a1.177,1.177,0,0,0,1.67-.139l.046-.057a1.143,1.143,0,0,0-.165-1.629,1.2,1.2,0,0,0-1.685.165" transform="translate(24.844 23.182)" fill="#35a064"/>
        <path id="Trazado_877557" data-name="Trazado 877557" d="M7.78,3.873a1.176,1.176,0,0,0-1.175,1.18v.119a1.173,1.173,0,0,0,1.16,1.2H7.78a1.184,1.184,0,0,0,1.185-1.16V5.053A1.185,1.185,0,0,0,7.78,3.873" transform="translate(27.438 16.09)" fill="#35a064"/>
        <path id="Trazado_877558" data-name="Trazado 877558" d="M5.855,6.329a1.177,1.177,0,0,0,.613,2.185,1.276,1.276,0,0,0,.608-.16l.041-.026a1.146,1.146,0,0,0,.381-1.6,1.218,1.218,0,0,0-1.644-.4" transform="translate(21.942 25.613)" fill="#35a064"/>
        <path id="Trazado_877559" data-name="Trazado 877559" d="M4.565,1.311l-.108.021a1.141,1.141,0,0,0-.917,1.35,1.2,1.2,0,0,0,1.2.974c.062,0,.124-.005.18-.01A1.189,1.189,0,0,0,5.911,2.3a1.177,1.177,0,0,0-1.345-.99" transform="translate(14.629 5.385)" fill="#35a064"/>
        <path id="Trazado_877560" data-name="Trazado 877560" d="M4.973,6.5l-.108-.021a1.181,1.181,0,0,0-.356,2.335l.041.005a1.012,1.012,0,0,0,.211.021A1.179,1.179,0,0,0,4.973,6.5" transform="translate(14.582 26.876)" fill="#35a064"/>
        <path id="Trazado_877561" data-name="Trazado 877561" d="M5.428,6.488A1.179,1.179,0,0,0,5.6,8.834a1.022,1.022,0,0,0,.18-.015L5.892,8.8a1.147,1.147,0,0,0,.917-1.345,1.22,1.22,0,0,0-1.381-.964" transform="translate(18.364 26.896)" fill="#35a064"/>
        <path id="Trazado_877562" data-name="Trazado 877562" d="M5.845,1.327l-.077-.015a1.154,1.154,0,0,0-1.319.974,1.217,1.217,0,0,0,.995,1.366.973.973,0,0,0,.211.015,1.178,1.178,0,0,0,.191-2.34" transform="translate(18.415 5.385)" fill="#35a064"/>
        <path id="Trazado_877563" data-name="Trazado 877563" d="M12.1,21.8a9.8,9.8,0,1,1,9.8-9.8,9.806,9.806,0,0,1-9.8,9.8m0-17.23a7.438,7.438,0,1,0,7.432,7.432A7.437,7.437,0,0,0,12.1,4.574" transform="translate(9.58 9.194)" fill="#35a064"/>
        <path id="Trazado_877564" data-name="Trazado 877564" d="M7.577,12.8a1.2,1.2,0,0,1-.809-.32L3.608,9.5A1.18,1.18,0,0,1,5.221,7.777l2.015,1.9L10.108,3.9a1.178,1.178,0,1,1,2.108,1.051l-3.577,7.2a1.2,1.2,0,0,1-.856.639c-.067.005-.134.015-.206.015" transform="translate(13.442 13.47)" fill="#35a064"/>
      </g>
    </g>
    <g id="Grupo_1100214" data-name="Grupo 1100214" transform="translate(773.394 5052.313)">
      <g id="Grupo_1100213" data-name="Grupo 1100213" transform="translate(0 0)" clip-path="url(#clip-path-3)">
        <path id="Trazado_877565" data-name="Trazado 877565" d="M22.279,35.688c-.161,0-.321,0-.488-.006a1.326,1.326,0,0,1-1.222-.941l-1.263-4.247-3.214,3.053a1.322,1.322,0,0,1-1.532.207,16.687,16.687,0,0,1-4.224-3.237,1.328,1.328,0,0,1-.2-1.532l2.106-3.891-4.43-.115a1.3,1.3,0,0,1-1.217-.93,16.193,16.193,0,0,1-.58-2.611,17.358,17.358,0,0,1-.126-2.674,1.309,1.309,0,0,1,.935-1.217l4.247-1.268L8.029,13.071a1.306,1.306,0,0,1-.212-1.521,16.513,16.513,0,0,1,3.237-4.235,1.32,1.32,0,0,1,1.527-.2l3.9,2.106L16.6,4.8a1.3,1.3,0,0,1,.924-1.222,16.038,16.038,0,0,1,5.286-.706,1.3,1.3,0,0,1,1.217.941L25.3,8.055l3.208-3.047A1.312,1.312,0,0,1,30.032,4.8a16.255,16.255,0,0,1,4.224,3.242,1.313,1.313,0,0,1,.2,1.527L32.35,13.455l4.43.109A1.328,1.328,0,0,1,38,14.5a16.514,16.514,0,0,1,.574,2.611,17.114,17.114,0,0,1,.132,2.674A1.323,1.323,0,0,1,37.762,21l-4.247,1.263,3.053,3.214A1.313,1.313,0,0,1,36.781,27a16.379,16.379,0,0,1-3.242,4.23,1.311,1.311,0,0,1-1.521.2l-3.9-2.112L28,33.754a1.3,1.3,0,0,1-.93,1.222,16.658,16.658,0,0,1-2.611.568,16.373,16.373,0,0,1-2.181.143m-3.317-7.994a1.575,1.575,0,0,1,.436.069,7.481,7.481,0,0,0,1.2.327,1.322,1.322,0,0,1,1,.912l1.205,4.046a12.569,12.569,0,0,0,1.308-.109c.43-.057.861-.138,1.286-.23l.115-4.23a1.285,1.285,0,0,1,.729-1.136,9.371,9.371,0,0,0,1.073-.626,1.29,1.29,0,0,1,1.366-.075L32.4,28.658a14.191,14.191,0,0,0,1.584-2.077l-2.91-3.07a1.3,1.3,0,0,1-.287-1.326,8.981,8.981,0,0,0,.327-1.2,1.31,1.31,0,0,1,.912-1.016l4.052-1.205c-.017-.442-.052-.878-.109-1.3s-.143-.861-.235-1.291l-4.224-.109a1.3,1.3,0,0,1-1.154-.74,8.58,8.58,0,0,0-.626-1.073,1.308,1.308,0,0,1-.069-1.354l2.014-3.719a13.882,13.882,0,0,0-2.072-1.59l-3.065,2.91a1.3,1.3,0,0,1-1.331.287,9.873,9.873,0,0,0-1.2-.321,1.326,1.326,0,0,1-1.022-.912L21.785,5.5c-.436.017-.872.052-1.3.109s-.867.138-1.286.235l-.1,4.218a1.336,1.336,0,0,1-.74,1.154,8.877,8.877,0,0,0-1.085.626,1.307,1.307,0,0,1-1.354.069L12.19,9.9a14.238,14.238,0,0,0-1.584,2.072l2.91,3.065a1.311,1.311,0,0,1,.293,1.331,7.738,7.738,0,0,0-.321,1.2,1.335,1.335,0,0,1-.918,1.016L8.522,19.785a12.332,12.332,0,0,0,.109,1.3c.057.436.138.867.23,1.291l4.23.109a1.3,1.3,0,0,1,1.148.735,7.9,7.9,0,0,0,.614,1.067,1.313,1.313,0,0,1,.075,1.372l-2.009,3.719A13.984,13.984,0,0,0,15,30.965l3.059-2.91a1.29,1.29,0,0,1,.907-.362m18.433-7.954h0Z" transform="translate(27.891 13.544)" fill="#8a803d"/>
        <path id="Trazado_877566" data-name="Trazado 877566" d="M13.98,7.854A36.8,36.8,0,0,0,5.36,25.2a1.312,1.312,0,0,0,1.056,1.532,1.108,1.108,0,0,0,.241.023,1.308,1.308,0,0,0,1.286-1.079A34.319,34.319,0,0,1,16.092,9.449a15.8,15.8,0,0,1-2.112-1.6" transform="translate(25.297 37.217)" fill="#8a803d"/>
        <path id="Trazado_877567" data-name="Trazado 877567" d="M12.974,15.039a5.118,5.118,0,1,1,.683-.046,5.534,5.534,0,0,1-.683.046m.011-7.587a3.027,3.027,0,0,0-.327.023,2.489,2.489,0,0,0-2.135,2.783,2.481,2.481,0,1,0,2.462-2.806" transform="translate(37.316 22.881)" fill="#8a803d"/>
        <path id="Trazado_877568" data-name="Trazado 877568" d="M29.989,37.219c8.31-8.23,7.489-15.019,5.291-19.311C29.519,6.676,9.1,1.178,1.071,2.7l-.04.017a1.421,1.421,0,0,0-.367.138l-.046.034a1.423,1.423,0,0,0-.287.241L.3,3.164A1.093,1.093,0,0,0,.152,3.4l-.046.1-.029.08a1.423,1.423,0,0,0-.069.373L0,3.979C-.014,5.161-.244,32.932,11.992,39.973a12.075,12.075,0,0,0,6.146,1.618,20.526,20.526,0,0,0,9.613-2.818,66.164,66.164,0,0,1,2.9,12.425,1.311,1.311,0,0,0,1.3,1.142.813.813,0,0,0,.172-.011,1.325,1.325,0,0,0,1.136-1.475,68.085,68.085,0,0,0-3.265-13.636m2.956-18.112c2.468,4.809,1.125,9.986-3.971,15.4A66.453,66.453,0,0,0,5.541,5.1c8.769.453,23.082,5.6,27.4,14.009M13.312,37.7C4.29,32.513,2.89,13.069,2.672,6.332A63.383,63.383,0,0,1,26.838,36.278c-5.4,3-9.951,3.478-13.527,1.423" transform="translate(0.003 11.628)" fill="#8a803d"/>
        <path id="Trazado_877569" data-name="Trazado 877569" d="M8.272,3.377l-.023.006L8.2,5.317c.046-.643.063-1.291.075-1.94" transform="translate(38.845 16)" fill="#8a803d"/>
        <path id="Trazado_877570" data-name="Trazado 877570" d="M27.457,18.3a1.293,1.293,0,0,1,.918-1.182A13.9,13.9,0,0,1,30,16.729,68.3,68.3,0,0,0,26.9.9l-.011-.04L26.815.717A1.084,1.084,0,0,0,26.625.43L26.591.379a.259.259,0,0,1-.08-.057,2.793,2.793,0,0,0-.27-.184L26.069.08a.8.8,0,0,0-.281-.063A.691.691,0,0,0,25.6.011L25.5,0C19.469.735,6.786,8.672,3.595,17.8c.8.344,1.607.694,2.393,1.079C8.071,12.453,15.922,6.342,21.851,3.8a51.979,51.979,0,0,0-8.918,19.432,26.722,26.722,0,0,1,2.313,2.141,50.569,50.569,0,0,1,9.837-21.4A63.349,63.349,0,0,1,27.457,18.3" transform="translate(17.036 -0.003)" fill="#8a803d"/>
        <path id="Trazado_877571" data-name="Trazado 877571" d="M7.794,4.736l.023-.93c-.023.3-.057.591-.1.89Z" transform="translate(36.58 18.033)" fill="#8a803d"/>
      </g>
    </g>
    <g id="Grupo_1100216" data-name="Grupo 1100216" transform="translate(963 4972.425)">
      <g id="Grupo_1100215" data-name="Grupo 1100215" transform="translate(0 0)" clip-path="url(#clip-path-4)">
        <path id="Trazado_877572" data-name="Trazado 877572" d="M63.107,4.941,59.061.9A3.011,3.011,0,0,0,54.8.872L52.493,3.178l-.009.009,0,0-4,4L5.373,50.3a.227.227,0,0,0-.057.08l-.057.052a1.81,1.81,0,0,0-.1.184l-.009.024-.009,0v.009L.087,62.5a1.082,1.082,0,0,0,.231,1.188A1.058,1.058,0,0,0,1.078,64a1.1,1.1,0,0,0,.424-.08l11.867-5.064a.968.968,0,0,0,.3-.207l.033-.019,43.108-43.1,0-.014.009,0,3.989-3.989,0,0,.009-.009L63.135,9.2A2.989,2.989,0,0,0,64,7.063a3.036,3.036,0,0,0-.9-2.122M49.24,9.486c.533.537,1.259,1.259,1.867,1.877L9.55,52.929c-.641-.641-1.353-1.348-1.881-1.877ZM3.124,60.879,6.5,52.953l4.54,4.545Zm9.821-4.545c-.561-.556-1.325-1.311-1.881-1.867L52.644,12.886l1.877,1.877ZM56.058,13.221,50.773,7.959l2.48-2.48,5.271,5.276ZM61.6,7.671,60.061,9.218,54.785,3.942,56.331,2.4a.858.858,0,0,1,1.2.019l4.05,4.05a.871.871,0,0,1,.264.618.824.824,0,0,1-.245.585" transform="translate(0.002 -0.001)" fill="#35a064"/>
        <path id="Trazado_877573" data-name="Trazado 877573" d="M8.026,11.875l9.449-9.449Z" transform="translate(29.816 9.011)" fill="#35a064"/>
        <path id="Trazado_877574" data-name="Trazado 877574" d="M9.615,10.39A10.08,10.08,0,0,1,16.8,7.42a9.977,9.977,0,0,1,1.495.118l3.989-3.989L20.115,5.718A12.3,12.3,0,0,0,4.947,20.881l1.82-1.815A10.057,10.057,0,0,1,9.615,10.39" transform="translate(16.661 13.183)" fill="#35a064"/>
        <path id="Trazado_877575" data-name="Trazado 877575" d="M17.164,16.6a10.067,10.067,0,0,1-7.171,2.97,10.621,10.621,0,0,1-1.9-.179L6.324,21.161a12.387,12.387,0,0,0,3.668.566,12.222,12.222,0,0,0,8.7-3.6A12.356,12.356,0,0,0,21.742,5.748L19.955,7.53A10.159,10.159,0,0,1,17.164,16.6" transform="translate(23.493 21.352)" fill="#35a064"/>
        <path id="Trazado_877576" data-name="Trazado 877576" d="M2.352,34.353l8.657,1.381c.156.429.335.868.537,1.3L8.481,41.251l5.059-5.059a16.279,16.279,0,0,1-.7-1.773,1.115,1.115,0,0,0-.863-.721L3.469,32.345a26.488,26.488,0,0,1,.009-6.964l8.5-1.353a1.135,1.135,0,0,0,.863-.731,17.652,17.652,0,0,1,.929-2.254,1.107,1.107,0,0,0-.1-1.122L8.609,12.966a26.83,26.83,0,0,1,2.3-2.631,26.275,26.275,0,0,1,2.636-2.3L20.5,13.094a1.074,1.074,0,0,0,1.122.094,17.005,17.005,0,0,1,2.249-.929,1.083,1.083,0,0,0,.721-.853L25.955,2.9a26.453,26.453,0,0,1,6.959,0l1.358,8.506a1.071,1.071,0,0,0,.731.853,12.419,12.419,0,0,1,1.617.853l4.993-4.988L38.2,11.538l-.335-.193c-.523-.311-1.07-.632-1.556-.868L34.927,1.783a1.076,1.076,0,0,0-.891-.9,28.567,28.567,0,0,0-9.2,0,1.092,1.092,0,0,0-.891.9l-1.377,8.652c-.467.17-.891.349-1.306.537L14.172,5.823a1.1,1.1,0,0,0-1.268,0A29.6,29.6,0,0,0,9.382,8.808,27.634,27.634,0,0,0,6.4,12.33a1.083,1.083,0,0,0,0,1.268l5.144,7.077c-.2.424-.372.868-.537,1.315L2.361,23.372a1.066,1.066,0,0,0-.891.886,28.3,28.3,0,0,0-.014,9.2,1.076,1.076,0,0,0,.9.891" transform="translate(4.037 1.899)" fill="#35a064"/>
        <path id="Trazado_877577" data-name="Trazado 877577" d="M45.248,8.128,36.535,6.737c-.245-.5-.6-1.061-.952-1.612-.1-.17-.217-.344-.316-.509L33.7,6.185l.057.09a11.894,11.894,0,0,1,1.009,1.778,1.107,1.107,0,0,0,.858.731l8.51,1.353a26.289,26.289,0,0,1-.009,6.964l-8.5,1.353a1.081,1.081,0,0,0-.853.721,16.774,16.774,0,0,1-.929,2.244,1.084,1.084,0,0,0,.094,1.122l5.054,6.969A28.412,28.412,0,0,1,36.7,32.145a25.648,25.648,0,0,1-2.636,2.287l-6.969-5.054a1.086,1.086,0,0,0-1.113-.094,19.162,19.162,0,0,1-2.254.938A1.075,1.075,0,0,0,23,31.07l-1.353,8.5a26.9,26.9,0,0,1-6.964,0L13.328,31.07a1.063,1.063,0,0,0-.717-.849,19.57,19.57,0,0,1-2.089-.858l-6.4,6.393L9.995,31.5c.424.193.858.372,1.306.538l1.377,8.652a1.092,1.092,0,0,0,.886.9,29.336,29.336,0,0,0,4.592.372,29.87,29.87,0,0,0,4.616-.372,1.076,1.076,0,0,0,.886-.9l1.377-8.652c.457-.17.886-.349,1.306-.538l7.091,5.139a1.091,1.091,0,0,0,1.264,0,29.1,29.1,0,0,0,3.527-2.975,28.049,28.049,0,0,0,2.98-3.531,1.1,1.1,0,0,0,0-1.264l-5.144-7.086c.189-.405.368-.844.537-1.3l8.647-1.381a1.081,1.081,0,0,0,.9-.886,28.464,28.464,0,0,0,.009-9.208,1.081,1.081,0,0,0-.9-.886" transform="translate(15.305 17.143)" fill="#35a064"/>
        <path id="Trazado_877578" data-name="Trazado 877578" d="M16.874,3.551l-7.266,7.27,7.28-7.28-.014.009" transform="translate(35.695 13.157)" fill="#35a064"/>
      </g>
    </g>
    <g id="Grupo_1100218" data-name="Grupo 1100218" transform="translate(1048.088 4785.289)">
      <g id="Grupo_1100217" data-name="Grupo 1100217" transform="translate(0 0)" clip-path="url(#clip-path-5)">
        <path id="Trazado_877579" data-name="Trazado 877579" d="M41.03,5.886H5.151a1.2,1.2,0,0,0-1.2,1.208V20.329a1.182,1.182,0,0,0,.352.856,1.22,1.22,0,0,0,.846.352H41.03c2.28,0,4.067-2.506,4.067-5.711V11.6c0-3.2-1.786-5.711-4.067-5.711M33.333,8.3c.767,0,1.655,1.44,1.655,3.3v4.229c0,1.86-.888,3.3-1.655,3.3H28.972a7.448,7.448,0,0,0,.725-3.3V11.6a7.408,7.408,0,0,0-.725-3.3ZM6.359,8.3H25.641c.762,0,1.65,1.44,1.65,3.3v4.229c0,1.86-.888,3.3-1.65,3.3H6.359ZM42.69,15.826c0,1.86-.893,3.3-1.66,3.3H36.659a7.45,7.45,0,0,0,.736-3.3V11.6a7.41,7.41,0,0,0-.736-3.3H41.03c.767,0,1.66,1.44,1.66,3.3Z" transform="translate(16.816 25.038)" fill="#8a803d"/>
        <path id="Trazado_877580" data-name="Trazado 877580" d="M24.57,5.886H1.2A1.209,1.209,0,0,0,.187,7.735a12.334,12.334,0,0,1,0,11.953A1.2,1.2,0,0,0,1.2,21.537H24.57c2.275,0,4.061-2.506,4.061-5.711V11.6c0-3.2-1.786-5.711-4.061-5.711m1.655,9.94c0,1.86-.893,3.3-1.655,3.3H3.155a14.358,14.358,0,0,0,.951-4.214H21.292a1.2,1.2,0,0,0,0-2.406H4.106A14.4,14.4,0,0,0,3.155,8.3H24.57c.762,0,1.655,1.44,1.655,3.3Z" transform="translate(0.002 25.038)" fill="#8a803d"/>
        <path id="Trazado_877581" data-name="Trazado 877581" d="M46.837,25.518a8.107,8.107,0,0,1,2.391-5.774,1.206,1.206,0,0,0-.856-2.054H42.429V1.208A1.206,1.206,0,0,0,41.231,0H8.284c-6.6,0-6.6,0-6.951.357a1.209,1.209,0,0,0-.152,1.518,15.929,15.929,0,0,1,0,16.35,1.21,1.21,0,0,0-.053,1.235,1.193,1.193,0,0,0,1.056.641H6.929A5.627,5.627,0,0,0,5.867,23.4V27.63a5.708,5.708,0,0,0,5.706,5.706h36.8a1.191,1.191,0,0,0,1.114-.741,1.207,1.207,0,0,0-.257-1.313,8.083,8.083,0,0,1-2.391-5.764M5.379,14.285H35.867a1.206,1.206,0,0,0,0-2.412H5.767a20.125,20.125,0,0,0,0-3.646h30.1a1.2,1.2,0,1,0,0-2.406H5.379a17.154,17.154,0,0,0-1.14-3.415H40.023V17.69H4.239a17.17,17.17,0,0,0,1.14-3.4M11.573,30.93a3.3,3.3,0,0,1-3.3-3.3V23.4a3.3,3.3,0,0,1,3.3-3.294H45.918A10.45,10.45,0,0,0,44.5,24.31H14.342a1.2,1.2,0,0,0,0,2.406H44.5a10.473,10.473,0,0,0,1.419,4.214Z" transform="translate(4.173 -0.001)" fill="#8a803d"/>
      </g>
    </g>
    <g id="Grupo_1100210" data-name="Grupo 1100210" transform="translate(569.023 4991.424)">
      <g id="Grupo_1100209" data-name="Grupo 1100209" transform="translate(0 0)" clip-path="url(#clip-path-6)">
        <path id="Trazado_877540" data-name="Trazado 877540" d="M35.976,1.035C16.5,1.035,1.056,18.033.406,18.76a1.566,1.566,0,0,0,0,2.1c.65.722,16.1,17.725,35.569,17.725s34.929-17,35.579-17.725a1.589,1.589,0,0,0,0-2.1c-.65-.727-16.1-17.725-35.579-17.725M3.765,19.813C6.473,17.1,14.392,9.846,24.554,6.261a17.7,17.7,0,0,0-.01,27.093C14.392,29.764,6.473,22.516,3.765,19.813m32.211,13.8a13.8,13.8,0,1,1,13.8-13.8,13.818,13.818,0,0,1-13.8,13.8M47.4,33.364a17.7,17.7,0,0,0,.01-27.093C57.565,9.861,65.478,17.109,68.2,19.813,65.483,22.521,57.57,29.774,47.4,33.364" transform="translate(0.001 4.302)" fill="#35a064"/>
        <path id="Trazado_877541" data-name="Trazado 877541" d="M1.261,17.163a1.169,1.169,0,0,0,.815-.33c.15-.144,15.3-14.475,33.583-14.475a1.179,1.179,0,1,0,0-2.358C16.412,0,1.08,14.506.44,15.125a1.186,1.186,0,0,0,.82,2.038" transform="translate(0.318 -0.003)" fill="#35a064"/>
        <path id="Trazado_877542" data-name="Trazado 877542" d="M13.842,7.74a3.8,3.8,0,1,0-3.807,3.8,3.81,3.81,0,0,0,3.807-3.8M8.6,7.74a1.439,1.439,0,1,1,1.434,1.439A1.439,1.439,0,0,1,8.6,7.74" transform="translate(25.942 16.374)" fill="#35a064"/>
        <path id="Trazado_877543" data-name="Trazado 877543" d="M15.433,2.64A10.509,10.509,0,0,0,4.94,13.138a1.179,1.179,0,1,0,2.358,0,8.138,8.138,0,1,1,8.135,8.135,1.181,1.181,0,0,0,0,2.363,10.5,10.5,0,1,0,0-21" transform="translate(20.544 10.976)" fill="#35a064"/>
      </g>
    </g>
    <g id="Grupo_1100220" data-name="Grupo 1100220" transform="translate(493 4777.323)">
      <g id="Grupo_1100219" data-name="Grupo 1100219" transform="translate(0 0)" clip-path="url(#clip-path-7)">
        <path id="Trazado_877582" data-name="Trazado 877582" d="M7.282,10.669A1.333,1.333,0,0,1,5.95,9.337V1.327a1.332,1.332,0,0,1,2.665,0v8.01a1.33,1.33,0,0,1-1.332,1.332" transform="translate(25.507 -0.002)" fill="#8a803d"/>
        <path id="Trazado_877583" data-name="Trazado 877583" d="M11.315,6.645H3.305a1.335,1.335,0,0,1,0-2.67h8.01a1.335,1.335,0,0,1,0,2.67" transform="translate(8.458 17.039)" fill="#8a803d"/>
        <path id="Trazado_877584" data-name="Trazado 877584" d="M17.754,6.645H9.739a1.335,1.335,0,0,1,0-2.67h8.015a1.335,1.335,0,0,1,0,2.67" transform="translate(36.061 17.039)" fill="#8a803d"/>
        <path id="Trazado_877585" data-name="Trazado 877585" d="M16.354,11.88a1.333,1.333,0,0,1-.671-.18L8.752,7.692a1.331,1.331,0,1,1,1.332-2.305l6.936,4a1.333,1.333,0,0,1-.666,2.49" transform="translate(34.643 22.319)" fill="#8a803d"/>
        <path id="Trazado_877586" data-name="Trazado 877586" d="M10.775,8.655a1.328,1.328,0,0,1-.666-.18l-6.931-4A1.33,1.33,0,1,1,4.5,2.168l6.936,4a1.332,1.332,0,0,1-.666,2.485" transform="translate(10.742 8.52)" fill="#8a803d"/>
        <path id="Trazado_877587" data-name="Trazado 877587" d="M8.513,10.135a1.378,1.378,0,0,1-.666-.174A1.338,1.338,0,0,1,7.36,8.136l4-6.936a1.333,1.333,0,0,1,2.31,1.332l-4,6.931a1.331,1.331,0,0,1-1.158.671" transform="translate(30.784 2.283)" fill="#8a803d"/>
        <path id="Trazado_877588" data-name="Trazado 877588" d="M9.415,8.655a1.332,1.332,0,0,1-.666-2.485l6.936-4a1.331,1.331,0,1,1,1.332,2.305l-6.936,4a1.328,1.328,0,0,1-.666.18" transform="translate(34.646 8.52)" fill="#8a803d"/>
        <path id="Trazado_877589" data-name="Trazado 877589" d="M3.841,11.88a1.333,1.333,0,0,1-.666-2.49l6.936-4a1.33,1.33,0,0,1,1.327,2.305L4.507,11.7a1.328,1.328,0,0,1-.666.18" transform="translate(10.745 22.319)" fill="#8a803d"/>
        <path id="Trazado_877590" data-name="Trazado 877590" d="M9.3,10.135a1.334,1.334,0,0,1-1.153-.671l-4-6.931A1.331,1.331,0,1,1,6.447,1.2l4.007,6.931a1.339,1.339,0,0,1-1.158,2" transform="translate(16.984 2.283)" fill="#8a803d"/>
        <path id="Trazado_877591" data-name="Trazado 877591" d="M13.4,20.308a8.879,8.879,0,1,1,8.882-8.877A8.886,8.886,0,0,1,13.4,20.308m0-15.094a6.217,6.217,0,1,0,6.217,6.217A6.225,6.225,0,0,0,13.4,5.214" transform="translate(19.385 10.926)" fill="#8a803d"/>
        <path id="Trazado_877592" data-name="Trazado 877592" d="M61.824,10.164a3.757,3.757,0,0,0-3.754,3.748,1.086,1.086,0,1,1-2.173,0,3.751,3.751,0,0,0-7.5,0,1.089,1.089,0,1,1-2.178,0,3.757,3.757,0,0,0-3.754-3.748l-.058.005L40.45,6.775a1.333,1.333,0,0,0-2.31,1.332l1.771,3.072a3.748,3.748,0,0,0-1.195,2.733,1.086,1.086,0,1,1-2.173,0,3.749,3.749,0,0,0-2.421-3.495V9.186a1.332,1.332,0,1,0-2.665,0v1.232a3.749,3.749,0,0,0-2.421,3.495,1.086,1.086,0,1,1-2.173,0,3.738,3.738,0,0,0-1.205-2.733l1.776-3.072a1.331,1.331,0,0,0-2.305-1.332l-1.961,3.394-.058-.005a3.753,3.753,0,0,0-3.754,3.748,1.086,1.086,0,1,1-2.173,0,3.754,3.754,0,0,0-7.507,0,1.086,1.086,0,1,1-2.173,0,3.751,3.751,0,0,0-7.5,0,1.33,1.33,0,1,0,2.659,0,1.089,1.089,0,1,1,2.178,0,3.754,3.754,0,0,0,7.507,0,1.086,1.086,0,1,1,2.173,0,3.751,3.751,0,1,0,7.5,0,1.094,1.094,0,0,1,1.089-1.089,1.292,1.292,0,0,1,.4.079l.026.011a1.113,1.113,0,0,1,.661,1,3.748,3.748,0,1,0,7.5,0,1.089,1.089,0,1,1,2.178,0,3.754,3.754,0,0,0,7.507,0,1.086,1.086,0,1,1,2.173,0,3.754,3.754,0,0,0,7.507,0,1.086,1.086,0,1,1,2.173,0,3.751,3.751,0,1,0,7.5,0,1.089,1.089,0,1,1,2.178,0,1.332,1.332,0,1,0,2.665,0,3.757,3.757,0,0,0-3.754-3.748" transform="translate(0 26.182)" fill="#8a803d"/>
        <path id="Trazado_877593" data-name="Trazado 877593" d="M51.1,16.061a3.754,3.754,0,0,1-3.754-3.754,1.086,1.086,0,1,0-2.173,0,3.754,3.754,0,0,1-7.507,0,1.086,1.086,0,1,0-2.173,0,3.754,3.754,0,1,1-7.507,0,1.089,1.089,0,1,0-2.178,0,3.748,3.748,0,1,1-7.5,0,1.089,1.089,0,1,0-2.178,0,3.751,3.751,0,1,1-7.5,0,1.086,1.086,0,1,0-2.173,0,3.758,3.758,0,0,1-3.754,3.754,1.332,1.332,0,1,1,0-2.665,1.09,1.09,0,0,0,1.084-1.089,3.754,3.754,0,1,1,7.507,0,1.086,1.086,0,1,0,2.173,0,3.754,3.754,0,1,1,7.507,0,1.086,1.086,0,1,0,2.173,0,3.754,3.754,0,1,1,7.507,0,1.086,1.086,0,1,0,2.173,0,3.751,3.751,0,1,1,7.5,0,1.089,1.089,0,1,0,2.178,0,3.751,3.751,0,1,1,7.5,0A1.091,1.091,0,0,0,51.1,13.4a1.332,1.332,0,1,1,0,2.665" transform="translate(5.886 36.668)" fill="#8a803d"/>
        <path id="Trazado_877594" data-name="Trazado 877594" d="M35.535,17.735a3.758,3.758,0,0,1-3.754-3.754,1.086,1.086,0,0,0-2.173,0,3.754,3.754,0,1,1-7.507,0,1.089,1.089,0,0,0-2.178,0,3.748,3.748,0,1,1-7.5,0,1.089,1.089,0,0,0-2.178,0,3.751,3.751,0,1,1-7.5,0,1.332,1.332,0,0,1,2.665,0,1.086,1.086,0,1,0,2.173,0,3.754,3.754,0,0,1,7.507,0,1.086,1.086,0,1,0,2.173,0,3.754,3.754,0,0,1,7.507,0,1.086,1.086,0,1,0,2.173,0,3.751,3.751,0,0,1,7.5,0,1.089,1.089,0,1,0,2.178,0,1.332,1.332,0,0,1,2.665,0,3.754,3.754,0,0,1-3.754,3.754" transform="translate(11.772 43.866)" fill="#8a803d"/>
      </g>
    </g>
    <g id="Grupo_1100222" data-name="Grupo 1100222" transform="translate(764.5 4502.768)">
      <g id="Grupo_1100221" data-name="Grupo 1100221" transform="translate(0 0)" clip-path="url(#clip-path-8)">
        <path id="Trazado_877595" data-name="Trazado 877595" d="M49.841,26.29H4.015A4.02,4.02,0,0,1,0,22.275V21.208a10.185,10.185,0,0,1,5.531-9.15c12.8-6.509,30-6.509,42.788,0a10.18,10.18,0,0,1,5.537,9.15v1.067a4.017,4.017,0,0,1-4.015,4.015M26.928,9.585a45.2,45.2,0,0,0-20.3,4.628A7.882,7.882,0,0,0,2.42,21.208v1.067a1.6,1.6,0,0,0,1.6,1.6H49.841a1.6,1.6,0,0,0,1.6-1.6V21.208a7.887,7.887,0,0,0-4.211-6.995,45.221,45.221,0,0,0-20.3-4.628" transform="translate(0 30.736)" fill="#8a803d"/>
        <path id="Trazado_877596" data-name="Trazado 877596" d="M26.31,6.525a42.33,42.33,0,0,0-9.034,0A19.668,19.668,0,0,0,6.282,11.4q1.648.2,3.27.518a17.209,17.209,0,0,1,7.988-2.98,39.069,39.069,0,0,1,8.511,0A17.613,17.613,0,0,1,41.679,26.606,1.1,1.1,0,0,1,40.591,27.7H26.617a4.036,4.036,0,0,1-3.688,2.414H40.591a3.512,3.512,0,0,0,3.5-3.508A20.038,20.038,0,0,0,26.31,6.525" transform="translate(26.907 26.912)" fill="#8a803d"/>
        <path id="Trazado_877597" data-name="Trazado 877597" d="M6.688,21.917a1.213,1.213,0,0,1-1.21-1.21V9.412a1.21,1.21,0,1,1,2.42,0v11.3a1.213,1.213,0,0,1-1.21,1.21" transform="translate(23.463 35.109)" fill="#8a803d"/>
        <path id="Trazado_877598" data-name="Trazado 877598" d="M5.466,21.917a1.21,1.21,0,0,1-1.21-1.21V9.412a1.212,1.212,0,1,1,2.425,0v11.3a1.214,1.214,0,0,1-1.215,1.21" transform="translate(18.229 35.109)" fill="#8a803d"/>
        <path id="Trazado_877599" data-name="Trazado 877599" d="M32.043,14.273l-.016-.328c-.032-.687-.085-1.358-.174-2.06V11.9l.005-.048C30.881,4.1,26.406.331,18.186.331c-5.632,0-13.2,1.389-13.831,13.377l.005.069-.005-.063v.021c-.011.18-.021.354-.026.539-1.532.544-2.478,2.594-2.256,5.082a5.837,5.837,0,0,0,1.78,3.936A2.733,2.733,0,0,0,5.2,23.92a17.047,17.047,0,0,0,6.06,8.907,11.7,11.7,0,0,0,6.921,2.335A11.735,11.735,0,0,0,25.1,32.838a17.076,17.076,0,0,0,6.06-8.918,2.729,2.729,0,0,0,1.358-.629,5.767,5.767,0,0,0,1.78-3.936c.222-2.488-.724-4.538-2.256-5.082M18.186,2.756c6.747,0,10.122,2.557,11.137,8.516a21.83,21.83,0,0,1-2.779.988A7.735,7.735,0,0,0,22.5,6.824a1.222,1.222,0,0,0-1.22.111,1.206,1.206,0,0,0-.5,1.115,7.123,7.123,0,0,1-.6,3.693l-.312-.148a11.61,11.61,0,0,0-5.246-1.358A11.779,11.779,0,0,0,9.167,11.42a14.891,14.891,0,0,1-2.256.84c1.009-8.337,6.224-9.5,11.274-9.5m13.7,16.388c-.143,1.611-.877,2.372-1.1,2.377a1.243,1.243,0,0,0-1.035-.005,1.206,1.206,0,0,0-.655.8,14.99,14.99,0,0,1-5.42,8.559,9.161,9.161,0,0,1-11-.005,15.027,15.027,0,0,1-5.4-8.553,1.242,1.242,0,0,0-.666-.8,1.249,1.249,0,0,0-1.041.005c-.2-.011-.946-.771-1.088-2.383-.143-1.585.444-2.546.676-2.578a1.243,1.243,0,0,0,1.083-.185,1.229,1.229,0,0,0,.486-.972c0-.217.005-.423.011-.623a16.365,16.365,0,0,0,3.408-1.146,9.426,9.426,0,0,1,8.7.148c.412.2.835.391,1.257.56a1.268,1.268,0,0,0,.777.042,1.234,1.234,0,0,0,.475-.259l.053-.048a6.44,6.44,0,0,0,1.706-3.693,5,5,0,0,1,1.115,3.323,1.213,1.213,0,0,0,.417.94,1.181,1.181,0,0,0,.983.28,19.007,19.007,0,0,0,3.962-1.162v.005l.016.275c.021.438.037.888.037,1.358a1.2,1.2,0,0,0,.5.967,1.211,1.211,0,0,0,1.078.174c.227.048.814,1.009.671,2.594" transform="translate(8.737 1.418)" fill="#8a803d"/>
        <path id="Trazado_877600" data-name="Trazado 877600" d="M18.745,0A15.989,15.989,0,0,0,6.995,5.051,10.654,10.654,0,0,1,8.548,6.958a13.607,13.607,0,0,1,10.2-4.538C27,2.42,33.21,9.457,33.21,18.792A22.873,22.873,0,0,1,27.266,34.3a19.029,19.029,0,0,1,2.425.972,25.345,25.345,0,0,0,5.944-16.478C35.635,8.078,28.371,0,18.745,0" transform="translate(29.961 0)" fill="#8a803d"/>
        <path id="Trazado_877601" data-name="Trazado 877601" d="M6.767,7.807a22.689,22.689,0,0,0,2.013,2.7A19.628,19.628,0,0,1,11.2,9.53,20.065,20.065,0,0,1,8.415,5.784,16.277,16.277,0,0,1,6.767,7.807" transform="translate(28.984 24.774)" fill="#8a803d"/>
        <path id="Trazado_877602" data-name="Trazado 877602" d="M28.315,7.5l-.005-.122a18.139,18.139,0,0,0-.481-3.587,1.186,1.186,0,0,0-.6-.777,1.175,1.175,0,0,0-.977-.074C21.055,4.76,20.3,4.39,18.3,3.387A26.73,26.73,0,0,0,15.83,2.277,8.189,8.189,0,0,0,8.181,3.36a19,19,0,0,1,.454,2.367l-.005.048V5.759L8.656,6c1.743-1.358,3.973-2.351,6.313-1.458a23.344,23.344,0,0,1,2.24,1.014c2.356,1.173,3.709,1.664,8.527.116.074.565.127,1.173.159,1.812.016.359.026.724.026,1.1A1.219,1.219,0,0,0,27.4,9.763a2.762,2.762,0,0,1,.37,1.86,2.622,2.622,0,0,1-.676,1.738,1.218,1.218,0,0,0-1.611.835,12.089,12.089,0,0,1-4.353,6.9,7.315,7.315,0,0,1-8.77-.005,10.855,10.855,0,0,1-3.2-3.82,2.661,2.661,0,0,1-1.215.523c-.148.47-.306.93-.481,1.379a12.957,12.957,0,0,0,3.471,3.878,9.837,9.837,0,0,0,5.811,1.955,9.884,9.884,0,0,0,5.8-1.949,14.155,14.155,0,0,0,5-7.3,2.576,2.576,0,0,0,1.094-.534,5,5,0,0,0,1.532-3.381c.19-2.06-.592-3.783-1.86-4.337" transform="translate(31.961 7.544)" fill="#8a803d"/>
        <path id="Trazado_877603" data-name="Trazado 877603" d="M7.41,2.5l-.021-.122c-.079.069-.158.148-.232.222.09-.037.164-.058.254-.1" transform="translate(30.65 10.185)" fill="#8a803d"/>
        <path id="Trazado_877604" data-name="Trazado 877604" d="M5.407.343C5.328.337,5.259.332,5.185.332H5.127c.1,0,.185.011.28.011" transform="translate(21.96 1.422)" fill="#8a803d"/>
        <path id="Trazado_877605" data-name="Trazado 877605" d="M7.977,6.676A12.524,12.524,0,0,1,6.038,7.833a10.281,10.281,0,0,0,1,2.858c1.115.132,2.219.306,3.313.507a7.857,7.857,0,0,1-2.071-4.76c-.1.079-.2.164-.3.238" transform="translate(25.862 27.575)" fill="#8a803d"/>
        <path id="Trazado_877606" data-name="Trazado 877606" d="M5.718,6.675c-.106-.074-.2-.158-.306-.238a7.849,7.849,0,0,1-2.076,4.776c1.1-.206,2.2-.38,3.323-.507a10.577,10.577,0,0,0,1-2.869A12.813,12.813,0,0,1,5.718,6.675" transform="translate(14.284 27.57)" fill="#8a803d"/>
        <path id="Trazado_877607" data-name="Trazado 877607" d="M9.824,6.014c-.116-.09-.227-.185-.338-.275a6.241,6.241,0,0,1-1.765,3.8A19.7,19.7,0,0,1,11.1,8.856,8.569,8.569,0,0,0,11.7,7.1,10.454,10.454,0,0,1,9.824,6.014" transform="translate(33.07 24.581)" fill="#8a803d"/>
        <path id="Trazado_877608" data-name="Trazado 877608" d="M11.842,6.015A10.683,10.683,0,0,1,9.961,7.1a8.5,8.5,0,0,0,.6,1.754,20.076,20.076,0,0,1,3.365.666A6.169,6.169,0,0,1,12.18,5.74l-.338.275" transform="translate(42.664 24.585)" fill="#8a803d"/>
      </g>
    </g>
    <g id="Grupo_1100224" data-name="Grupo 1100224" transform="translate(580 4586.293)">
      <g id="Grupo_1100223" data-name="Grupo 1100223" clip-path="url(#clip-path-9)">
        <path id="Trazado_877609" data-name="Trazado 877609" d="M25.85,51.7a25.966,25.966,0,0,0,5.87-.671,12.064,12.064,0,0,0,3.991,5.379,11.953,11.953,0,1,0,13.58-19.647A25.568,25.568,0,0,0,51.7,25.85,25.85,25.85,0,1,0,25.85,51.7m27.364-4.819a10.279,10.279,0,1,1-5.406-9.055,10.28,10.28,0,0,1,5.406,9.055M25.85,1.668A24.21,24.21,0,0,1,50.033,25.85a23.906,23.906,0,0,1-2.216,10.124A11.957,11.957,0,0,0,31.249,49.426a24.184,24.184,0,1,1-5.4-47.758" fill="#77af8f" stroke="#179989" stroke-width="1"/>
        <path id="Trazado_877610" data-name="Trazado 877610" d="M53.359,71.43c2.682,0,4.865-1.878,4.865-4.187V53.053l15.286-3.77v7.576a5.314,5.314,0,0,0-3.2-1.035c-2.683,0-4.865,1.879-4.865,4.187S67.63,64.2,70.313,64.2s4.865-1.878,4.865-4.187V41.587a.834.834,0,0,0-1.034-.81L57.191,44.959a.834.834,0,0,0-.635.81V64.092a5.313,5.313,0,0,0-3.2-1.035c-2.682,0-4.865,1.879-4.865,4.187s2.182,4.186,4.865,4.186m16.954-8.9c-1.763,0-3.2-1.13-3.2-2.519s1.434-2.519,3.2-2.519,3.2,1.13,3.2,2.519-1.434,2.519-3.2,2.519ZM58.224,46.421l15.286-3.77v4.913L58.224,51.335Zm-4.865,18.3c1.763,0,3.2,1.13,3.2,2.519s-1.434,2.518-3.2,2.518-3.2-1.13-3.2-2.519,1.434-2.519,3.2-2.519" transform="translate(-35.986 -30.242)" fill="#77af8f" stroke="#179989" stroke-width="1"/>
        <path id="Trazado_877611" data-name="Trazado 877611" d="M150.877,164.532V160.5a.834.834,0,1,0-1.668,0v4.03h-4.03a.834.834,0,0,0,0,1.668h4.03v4.03a.834.834,0,0,0,1.668,0V166.2h4.03a.834.834,0,0,0,0-1.668Z" transform="translate(-107.114 -118.484)" fill="#77af8f" stroke="#179989" stroke-width="1"/>
      </g>
    </g>
  </g>
</svg>
