<svg id="Grupo_1099307" data-name="Grupo 1099307" xmlns="http://www.w3.org/2000/svg" width="62.909" height="17.805" viewBox="0 0 62.909 17.805">
  <path id="Unión_14" data-name="Unión 14" d="M56.17,16.127c-.5-.756-.844-1.219-1.485-1.219s-.981.463-1.483,1.219a2.509,2.509,0,0,1-4.734,0c-.5-.756-.844-1.219-1.484-1.219s-.98.463-1.483,1.219A2.87,2.87,0,0,1,43.133,17.8a2.869,2.869,0,0,1-2.367-1.677c-.5-.756-.843-1.219-1.483-1.219s-.98.463-1.483,1.219A2.868,2.868,0,0,1,35.435,17.8a2.868,2.868,0,0,1-2.367-1.677c-.5-.756-.843-1.219-1.482-1.219a.576.576,0,0,0-.261,0c-.641,0-.981.463-1.484,1.219A2.872,2.872,0,0,1,27.471,17.8,2.87,2.87,0,0,1,25.1,16.127c-.5-.756-.844-1.219-1.484-1.219s-.982.463-1.484,1.219A2.869,2.869,0,0,1,19.768,17.8,2.869,2.869,0,0,1,17.4,16.127c-.5-.756-.843-1.219-1.483-1.219s-.981.463-1.484,1.219A2.87,2.87,0,0,1,12.067,17.8,2.867,2.867,0,0,1,9.7,16.127c-.5-.756-.843-1.219-1.483-1.219s-.98.463-1.482,1.219A2.868,2.868,0,0,1,4.369,17.8,2.868,2.868,0,0,1,2,16.127c-.5-.756-.843-1.219-1.483-1.219a.484.484,0,1,1,0-.965A2.872,2.872,0,0,1,2.886,15.62c.5.755.843,1.219,1.482,1.219s.98-.464,1.483-1.219a2.871,2.871,0,0,1,2.366-1.677,2.869,2.869,0,0,1,2.366,1.677c.5.755.843,1.219,1.483,1.219s.981-.464,1.483-1.219a2.873,2.873,0,0,1,2.368-1.677,2.872,2.872,0,0,1,2.366,1.677c.5.755.843,1.219,1.484,1.219s.981-.464,1.483-1.219a2.872,2.872,0,0,1,2.368-1.677,2.874,2.874,0,0,1,2.368,1.677c.5.755.844,1.219,1.484,1.219s.982-.464,1.485-1.219a2.874,2.874,0,0,1,2.368-1.677.556.556,0,0,0,.261,0,2.874,2.874,0,0,1,2.367,1.677c.5.755.842,1.219,1.482,1.219s.98-.464,1.482-1.219a2.872,2.872,0,0,1,2.366-1.677,2.873,2.873,0,0,1,2.366,1.677c.5.755.842,1.219,1.483,1.219s.98-.464,1.483-1.219a2.872,2.872,0,0,1,2.367-1.677A2.874,2.874,0,0,1,49.35,15.62c.5.755.843,1.219,1.484,1.219s.98-.464,1.483-1.219a2.509,2.509,0,0,1,4.734,0c.5.755.844,1.219,1.485,1.219s.982-.464,1.485-1.219a2.873,2.873,0,0,1,2.368-1.677.484.484,0,1,1,0,.965c-.642,0-.982.463-1.485,1.219a2.51,2.51,0,0,1-4.735,0Zm0-6.97c-.5-.757-.844-1.22-1.485-1.22S53.7,8.4,53.2,9.157a2.509,2.509,0,0,1-4.734,0c-.5-.757-.844-1.22-1.484-1.22S46,8.4,45.5,9.157a2.873,2.873,0,0,1-2.367,1.677,2.873,2.873,0,0,1-2.367-1.677c-.5-.757-.843-1.22-1.483-1.22S38.3,8.4,37.8,9.157a2.871,2.871,0,0,1-2.366,1.677,2.871,2.871,0,0,1-2.367-1.677c-.5-.757-.843-1.22-1.482-1.22a.556.556,0,0,0-.261,0c-.641,0-.981.463-1.484,1.22a2.875,2.875,0,0,1-2.369,1.677A2.873,2.873,0,0,1,25.1,9.157c-.5-.757-.844-1.22-1.484-1.22s-.982.463-1.484,1.22a2.872,2.872,0,0,1-2.367,1.677A2.873,2.873,0,0,1,17.4,9.157c-.5-.757-.843-1.22-1.483-1.22s-.981.463-1.484,1.22a2.873,2.873,0,0,1-2.367,1.677A2.871,2.871,0,0,1,9.7,9.157c-.5-.757-.843-1.22-1.483-1.22s-.98.463-1.482,1.22a2.871,2.871,0,0,1-2.367,1.677A2.871,2.871,0,0,1,2,9.157C1.5,8.4,1.16,7.937.52,7.937a.484.484,0,1,1,0-.965A2.873,2.873,0,0,1,2.886,8.649c.5.756.843,1.219,1.482,1.219s.98-.463,1.483-1.219A2.872,2.872,0,0,1,8.218,6.972a2.87,2.87,0,0,1,2.366,1.677c.5.756.843,1.219,1.483,1.219s.981-.463,1.483-1.219a2.874,2.874,0,0,1,2.368-1.677,2.873,2.873,0,0,1,2.366,1.677c.5.756.843,1.219,1.484,1.219s.981-.463,1.483-1.219a2.873,2.873,0,0,1,2.368-1.677,2.876,2.876,0,0,1,2.368,1.677c.5.756.844,1.219,1.484,1.219s.982-.463,1.485-1.219a2.875,2.875,0,0,1,2.368-1.677.576.576,0,0,0,.261,0,2.875,2.875,0,0,1,2.367,1.677c.5.756.842,1.219,1.482,1.219s.98-.463,1.482-1.219a2.873,2.873,0,0,1,2.366-1.677,2.874,2.874,0,0,1,2.366,1.677c.5.756.842,1.219,1.483,1.219s.98-.463,1.483-1.219a2.873,2.873,0,0,1,2.367-1.677A2.875,2.875,0,0,1,49.35,8.649c.5.756.843,1.219,1.484,1.219s.98-.463,1.483-1.219a2.509,2.509,0,0,1,4.734,0c.5.756.844,1.219,1.485,1.219s.982-.463,1.485-1.219A2.874,2.874,0,0,1,62.39,6.972a.484.484,0,1,1,0,.965c-.642,0-.982.463-1.485,1.22a2.51,2.51,0,0,1-4.735,0Zm0-6.972c-.5-.756-.844-1.22-1.485-1.22s-.981.464-1.483,1.22a2.509,2.509,0,0,1-4.734,0c-.5-.756-.844-1.22-1.484-1.22S46,1.429,45.5,2.185a2.872,2.872,0,0,1-2.367,1.677,2.873,2.873,0,0,1-2.367-1.678c-.5-.756-.843-1.22-1.483-1.22s-.98.464-1.483,1.22a2.87,2.87,0,0,1-2.366,1.678,2.87,2.87,0,0,1-2.367-1.678c-.5-.756-.843-1.22-1.482-1.22a.576.576,0,0,0-.261,0c-.641,0-.981.464-1.484,1.22a2.874,2.874,0,0,1-2.369,1.677A2.872,2.872,0,0,1,25.1,2.185c-.5-.756-.844-1.22-1.484-1.22s-.982.464-1.484,1.22a2.871,2.871,0,0,1-2.367,1.677A2.871,2.871,0,0,1,17.4,2.185c-.5-.756-.843-1.22-1.483-1.22s-.981.464-1.484,1.22a2.872,2.872,0,0,1-2.367,1.677A2.87,2.87,0,0,1,9.7,2.185C9.2,1.429,8.858.965,8.218.965s-.98.464-1.482,1.22A2.87,2.87,0,0,1,4.369,3.862,2.87,2.87,0,0,1,2,2.185C1.5,1.429,1.16.965.52.965A.5.5,0,0,1,0,.483.5.5,0,0,1,.52,0,2.872,2.872,0,0,1,2.886,1.677c.5.756.843,1.22,1.482,1.22s.98-.464,1.483-1.22A2.871,2.871,0,0,1,8.218,0a2.869,2.869,0,0,1,2.366,1.677c.5.756.843,1.22,1.483,1.22s.981-.464,1.483-1.22A2.873,2.873,0,0,1,15.918,0a2.872,2.872,0,0,1,2.366,1.677c.5.756.843,1.22,1.484,1.22s.981-.464,1.483-1.22A2.872,2.872,0,0,1,23.619,0a2.874,2.874,0,0,1,2.368,1.677c.5.756.844,1.22,1.484,1.22s.982-.464,1.485-1.22A2.874,2.874,0,0,1,31.324,0a.556.556,0,0,0,.261,0,2.874,2.874,0,0,1,2.367,1.677c.5.756.842,1.22,1.482,1.22s.98-.464,1.482-1.22A2.872,2.872,0,0,1,39.283,0a2.873,2.873,0,0,1,2.366,1.677c.5.756.842,1.22,1.483,1.22s.98-.464,1.483-1.22A2.872,2.872,0,0,1,46.983,0,2.874,2.874,0,0,1,49.35,1.677c.5.756.843,1.22,1.484,1.22s.98-.464,1.483-1.22a2.509,2.509,0,0,1,4.734,0c.5.756.844,1.22,1.485,1.22s.982-.464,1.485-1.22A2.873,2.873,0,0,1,62.39,0a.5.5,0,0,1,.52.483.5.5,0,0,1-.52.482c-.642,0-.982.464-1.485,1.22a2.51,2.51,0,0,1-4.735,0Z" fill="#0c203b"/>
</svg>
