<svg xmlns="http://www.w3.org/2000/svg" width="295.001" height="177" viewBox="0 0 295.001 177">
  <g id="Grupo_1100315" data-name="Grupo 1100315" transform="translate(-180 -1687)">
    <rect id="Rectángulo_401476" data-name="Rectángulo 401476" width="295" height="177" transform="translate(180 1687)" fill="#f6f0ca"/>
    <path id="Trazado_876068" data-name="Trazado 876068" d="M880.3,613.568a21.427,21.427,0,0,0-9.044,1.99,40.6,40.6,0,0,0-79.658-10.593,26.041,26.041,0,1,0-4.8,51.635h93.5a21.516,21.516,0,0,0,0-43.032" transform="translate(-525.921 1180.163)" fill="#35a064"/>
    <path id="Trazado_876069" data-name="Trazado 876069" d="M1983.224,1404.831H1944.8a1.572,1.572,0,1,1,0-3.144h38.423a1.572,1.572,0,1,1,0,3.144" transform="translate(-1592.213 435.077)" fill="#e6d567"/>
    <path id="Trazado_876070" data-name="Trazado 876070" d="M665.512,1404.831H627.089a1.572,1.572,0,0,1,0-3.144h38.423a1.572,1.572,0,1,1,0,3.144" transform="translate(-403.974 435.077)" fill="#e6d567"/>
    <path id="Trazado_876071" data-name="Trazado 876071" d="M1048.48,1407.975H941.916a3.144,3.144,0,1,1,0-6.288H1048.48a3.144,3.144,0,1,1,0,6.288" transform="translate(-686.449 435.077)" fill="#e6d567"/>
    <path id="Trazado_876072" data-name="Trazado 876072" d="M1206.084,408.788l-16.638-3.427,12.382.89-4.179-4.973,15.2,3.075-10.956-.558Z" transform="translate(-912.493 1337.189)" fill="#ffad4d"/>
    <path id="Trazado_876073" data-name="Trazado 876073" d="M1256.487,648.461l-23.286,8.2,16.086-8.17-8.931-3.061,21.226-7.558-14.061,7.515Z" transform="translate(-951.948 1123.842)" fill="#ffad4d"/>
    <path id="Trazado_876074" data-name="Trazado 876074" d="M1505.06,877.777l-17.084,13.05,11.128-11.09-8.22-.135,15.55-11.964-9.627,10Z" transform="translate(-1181.691 916.651)" fill="#ffad4d"/>
    <path id="Trazado_876075" data-name="Trazado 876075" d="M1803.774,1046.674l-6.424,15.28,3.192-11.685-5.55,3.062,5.815-13.966-2.6,10.383Z" transform="translate(-1458.541 761.799)" fill="#ffad4d"/>
    <path id="Trazado_876076" data-name="Trazado 876076" d="M2437.921,422.6s-13.851,10.074-20.362,7.558-10.839-12.5-8.747-15.975,9.127-9.309,14.559-9.02c17.979.957,14.55,17.437,14.55,17.437" transform="translate(-2011.57 1333.695)" fill="#ed9983"/>
    <path id="Trazado_876077" data-name="Trazado 876077" d="M2398.51,337.969c1.983,2.822.112,5.017-2.71,7s-5.525,3-7.506.178l-19.454-27.691c2.909-2.776,6.06-5.524,9.484-8.222Z" transform="translate(-1976.005 1420.192)" fill="#69c"/>
    <path id="Trazado_876078" data-name="Trazado 876078" d="M2352.907,372.946l.855-.6a1.658,1.658,0,0,0,.406-2.31l-8.977-12.808-4.828,3.384,8.1,11.551a3.194,3.194,0,0,0,4.448.782" transform="translate(-1950.326 1376.911)" fill="#9cf"/>
    <path id="Trazado_876079" data-name="Trazado 876079" d="M2411.856,0l-52,33.051-17.739,1.326-9.541,8.536-7.155,10.4s2.351,4.228,6.428.958c4.522-3.627,5.737-6.249,5.737-6.249l9.516-4.44s6.3,3.966,12.434,2.937c0,0-2.243,7.588,2.441,11.582,0,0,7.52-4.5,8.161-10.622l41.714-19.077Z" transform="translate(-1936.855 1699.038)" fill="#f7bc9f"/>
    <path id="Trazado_876080" data-name="Trazado 876080" d="M2370.3,479.335c-.953.994-2.728,3.352-1.018,4.943s4.708.154,5.761-.693c1.794-1.445,12.722-8.8,10.269-11.918-2.645-3.364-12.165,4.7-15.012,7.669" transform="translate(-1975.762 1274.445)" fill="#f7bc9f"/>
    <path id="Trazado_876081" data-name="Trazado 876081" d="M2458.817,543.595c-.952.994-2.728,3.352-1.018,4.943s4.708.154,5.761-.693c1.794-1.445,12.722-8.8,10.269-11.918-2.645-3.364-12.165,4.7-15.012,7.669" transform="translate(-2055.579 1216.499)" fill="#f7bc9f"/>
    <path id="Trazado_876082" data-name="Trazado 876082" d="M2507.365,585.732c-.859.791-2.487,2.7-1.124,4.182s3.979.448,4.916-.21c1.6-1.122,11.24-6.714,9.328-9.56-2.062-3.07-10.551,3.224-13.12,5.588" transform="translate(-2099.434 1176.645)" fill="#f7bc9f"/>
    <path id="Trazado_876083" data-name="Trazado 876083" d="M2406.091,501.45c-1.039,1.084-2.975,3.656-1.11,5.391s5.135.168,6.284-.756c1.957-1.576,13.877-9.6,11.2-13-2.885-3.669-13.269,5.123-16.375,8.365" transform="translate(-2007.893 1255.197)" fill="#f7bc9f"/>
    <path id="Trazado_876085" data-name="Trazado 876085" d="M1735.081,464.817l-14.451,3.889c1.97-1.383.655-6.648-2.935-11.76s-8.1-8.134-10.066-6.752l9.512-11.31a97.79,97.79,0,0,1,9.615,11.7,96.428,96.428,0,0,1,8.325,14.234" transform="translate(-1379.762 1303.278)" fill="#e6d567"/>
    <path id="Trazado_876086" data-name="Trazado 876086" d="M1509.8,304.126a6.32,6.32,0,0,1,.964-.506c2.269-1.048,5.259-.789,8.681.586,4.9,1.97,10.662,6.2,16.383,12.124l-9.512,11.31c-1.971,1.384-.656,6.65,2.935,11.761s8.1,8.135,10.066,6.751l14.451-3.889c3.261,6.921,5.081,13.311,5.263,18.3.133,3.686-.636,6.587-2.394,8.366a6.335,6.335,0,0,1-.8.736c-6.973,4.9-22.931-5.8-35.643-23.9s-17.363-36.742-10.39-41.638" transform="translate(-1198.451 1425.833)" fill="#082952"/>
    <path id="Trazado_876087" data-name="Trazado 876087" d="M1709.288,557.668c3.59,5.112,4.906,10.376,2.935,11.76s-6.476-1.638-10.066-6.751-4.906-10.376-2.935-11.761,6.475,1.64,10.066,6.752" transform="translate(-1371.355 1202.557)" fill="#fcf9e8"/>
    <path id="Trazado_876088" data-name="Trazado 876088" d="M2166.114,113.3c.877-.9,1.792-1.791,2.721-2.685,2.9-2.773,6.055-5.532,9.474-8.221,1.914-1.507,3.849-3,5.929-4.474,2.18-1.528.732-7.36-3.249-13.023s-8.97-9.014-11.15-7.486a131.042,131.042,0,0,1-20.688,11.924c2.926-.482,8.084,3.348,12.291,9.351,4.135,5.9,5.979,11.951,4.671,14.615" transform="translate(-1777.902 1629.565)" fill="#e6d567"/>
    <path id="Trazado_876089" data-name="Trazado 876089" d="M1672.058,250.976c3.258,6.922,5.078,13.322,5.258,18.309a117.752,117.752,0,0,1,27.633-43.529c1.308-2.663-.536-8.715-4.671-14.615-4.207-6-9.365-9.833-12.291-9.351a117.563,117.563,0,0,1-50.249,11.133c4.9,1.971,10.662,6.208,16.376,12.123a99.957,99.957,0,0,1,17.944,25.93" transform="translate(-1316.737 1517.113)" fill="#95dbb3"/>
    <path id="Trazado_876090" data-name="Trazado 876090" d="M2001.219,292.834q1.161-.462,2.242-.93" transform="translate(-1644.505 1435.817)" fill="none" stroke="#fff" stroke-linecap="round" stroke-miterlimit="10" stroke-width="4"/>
    <path id="Trazado_876091" data-name="Trazado 876091" d="M1813.316,319.921c1.893-.283,3.877-.647,5.938-1.111,2.489-.56,4.83-1.208,7.017-1.905q.764-.244,1.5-.5" transform="translate(-1475.063 1413.721)" fill="none" stroke="#fff" stroke-linecap="round" stroke-miterlimit="10" stroke-width="4"/>
    <ellipse id="Elipse_11548" data-name="Elipse 11548" cx="15.429" cy="40.045" rx="15.429" ry="40.045" transform="translate(298.75 1738.792) rotate(-35.025)" fill="none" stroke="#59836b" stroke-miterlimit="10" stroke-width="5"/>
    <path id="Trazado_876093" data-name="Trazado 876093" d="M1292.841,1085.451c3.684,1.021,2.848-2.015.533-4.423a28.476,28.476,0,0,0-7.2-5.641c-1.7-.922-7.908-4.767-9.786-2.353-2.654,3.41,5.654,6.869,7.5,8.127a30.5,30.5,0,0,0,8.947,4.29" transform="translate(-990.428 732.146)" fill="#ed9983"/>
    <path id="Trazado_876094" data-name="Trazado 876094" d="M1362.932,945.184c-.109.115-1.111-2.193-1.527-1.431-.238.437.59,2.072,1.263,2.83,1.356,1.529,2.036,3.709,2.442,6.56.508,3.559.692,4.921,1.367,8.029.528,2.423.687,2.767,2.442,4.422,1.434,1.351,4.157-.266,4.264-2.46.063-1.292-.171-2.378-1.406-5.38-.977-2.382-2.2-5.569-3.254-7.9a41.259,41.259,0,0,1-2.084-6.58c-.322-1.233-.5-5.506-2.856-4.45-.927.416-1.6,2.545-.752,4.456.276.62.567,1.413.1,1.908" transform="translate(-1067.519 852.613)" fill="#ed9983"/>
    <path id="Trazado_876095" data-name="Trazado 876095" d="M1198.264,1204.917s15.921-14.575,19.2-11.467c3.1,2.943,15.776,19.4,15.776,19.4h-6.283s-10-3.784-10.345-7.884c0,0-24.29,24.62-27.188,2.371Z" transform="translate(-912.472 623.245)" fill="#ed9983"/>
    <path id="Trazado_876096" data-name="Trazado 876096" d="M1524.6,1319.082l-7.42-9.248-5.633,5.446s7.112,4.865,9.239,4.492,3.814-.691,3.814-.691" transform="translate(-1202.944 517.905)" fill="#e1effa"/>
    <path id="Trazado_876097" data-name="Trazado 876097" d="M1209.321,1222.074s-2.393,3.1,4.5,11.641c0,0-8.358,9.548-17.349,9.548-8.233,0-7.453-10.123-7.453-10.123a25.83,25.83,0,0,0,8.483-2.6,103.736,103.736,0,0,1,11.82-8.461" transform="translate(-912.089 597.042)" fill="#203d51"/>
    <rect id="Rectángulo_401479" data-name="Rectángulo 401479" width="13.453" height="1.342" transform="translate(313.256 1838.694)" fill="#e1effa"/>
    <path id="Trazado_876098" data-name="Trazado 876098" d="M1666.15,1395.2h.349a2.567,2.567,0,0,1,2.567,2.567h-2.917Z" transform="translate(-1342.358 440.927)" fill="#e1effa"/>
    <path id="Trazado_876099" data-name="Trazado 876099" d="M1569.453,1395.2h-10.187a.349.349,0,0,0-.349.349v2.218h10.536Z" transform="translate(-1245.661 440.927)" fill="#e25d34" fill-rule="evenodd"/>
    <path id="Trazado_876100" data-name="Trazado 876100" d="M1559.267,1395.2h0a2.567,2.567,0,0,1,2.567,2.567h-2.917v-2.218a.349.349,0,0,1,.349-.349" transform="translate(-1245.662 440.927)" fill="#fff" fill-rule="evenodd"/>
    <path id="Trazado_876101" data-name="Trazado 876101" d="M1624.449,1378.617l-3.042-3.042a1.3,1.3,0,0,0,0,1.844l2.12,2.12Z" transform="translate(-1301.666 458.623)" fill="#e25d34" fill-rule="evenodd"/>
    <path id="Trazado_876102" data-name="Trazado 876102" d="M1281.605,1069.656a6.954,6.954,0,0,0-2.449,6.919s-13.064-4.239-9.12-10.01c1.941-2.84,11.569,3.091,11.569,3.091" transform="translate(-984.495 737.965)" fill="#95dbb3"/>
    <path id="Trazado_876103" data-name="Trazado 876103" d="M1171.3,1049.545c-.231-3.662-3.375-8.551-4.86-9.286-4.282-2.122-9.214-1.1-11.823,4.487-2.652,5.677-3.293,18.506-3.036,23.916,3.948.5,13.066-.24,17.111-.037-.744-5.34,1.57-8.325,2.617-13.76a20.178,20.178,0,0,0-.009-5.319" transform="translate(-878.302 761.917)" fill="#95dbb3"/>
    <rect id="Rectángulo_401480" data-name="Rectángulo 401480" width="14.226" height="6.492" transform="translate(282.473 1801.643) rotate(-62.015)" fill="#ed9983"/>
    <path id="Trazado_876104" data-name="Trazado 876104" d="M1252.412,1041.6c-.624.872-2.653.488-4.531-.856s-2.9-3.141-2.272-4.013,2.652-.488,4.531.856,2.9,3.141,2.272,4.012" transform="translate(-962.972 764.595)" fill="#ed9983"/>
    <path id="Trazado_876105" data-name="Trazado 876105" d="M1160.9,1204.917s15.921-14.575,19.2-11.467c4.145,3.931,4.07,4.2,15.776,19.4h-6.283s-10-3.784-10.345-7.884c0,0-24.47,24.833-27.188,2.371Z" transform="translate(-878.779 623.245)" fill="#f7bc9f" fill-rule="evenodd"/>
    <path id="Trazado_876106" data-name="Trazado 876106" d="M1273.529,859.884c8.955,3.263,6.673,13.326.744,18.129-1.662,1.344-4.363,2.724-5.32,1.987a16.175,16.175,0,0,1-4.025-5.055c-2-3.4-1.976-6.514-1.087-10.153a7.317,7.317,0,0,1,9.688-4.908" transform="translate(-979.058 924.061)" fill="#ed9983"/>
    <path id="Trazado_876107" data-name="Trazado 876107" d="M1335.524,1023.287s5.086,1.482,2.222,2.637c0,0-4.228-1.264-2.222-2.637" transform="translate(-1043.732 776.297)" fill="#fff"/>
    <path id="Trazado_876108" data-name="Trazado 876108" d="M1275.2,861.025a2.794,2.794,0,0,1-3.388-.361c-.954-.814-1.609-1.943-2.6-2.707a1.835,1.835,0,0,0-2.943.715c-.471.718-.727,1.565-1.233,2.259-.581-.2-.605-1.047-1.074-1.444-.562-.476-1.5-.021-1.77.665a3.529,3.529,0,0,0,.1,2.168q-1,.725-2.07,1.359a1.645,1.645,0,0,1-1.234.327c-.5-.142-.748-.694-.895-1.193a11.1,11.1,0,0,1,.91-8.385c1.209-2.2,3.208-4.585,5.873-4.865a8.3,8.3,0,0,1,4.4,1.1c2.75,1.341,5.452,3.231,6.617,6.059a4.627,4.627,0,0,1,.379,2.5,2.635,2.635,0,0,1-1.074,1.8" transform="translate(-973.998 932.976)" fill="#203d51" fill-rule="evenodd"/>
    <path id="Trazado_876109" data-name="Trazado 876109" d="M1212.456,1095.034c4.26.277,2.548-3.214-.6-5.547a31.409,31.409,0,0,0-9.291-5c-2.083-.68-10.674-4.053-11.222-.3-.772,5.3,6.924,7.742,9.3,8.664a43.189,43.189,0,0,0,11.813,2.179" transform="translate(-914.156 722.951)" fill="#f7bc9f" fill-rule="evenodd"/>
    <path id="Trazado_876110" data-name="Trazado 876110" d="M1333.648,934.967c-.135.1-1.349-1.616-1.674-1.429-.469.27.364,2.2.971,3.045,1.226,1.708,1.669,4.027,1.747,7.013.1,3.729.125,5.155.451,8.433.257,2.555.38,2.926,2.005,4.8,1.328,1.532,4.236.115,4.732-2.146.547-2.5.11-2.476-.812-5.7-.728-2.555-1.613-5.965-2.429-8.478a41.916,41.916,0,0,1-1.372-7c-.185-1.306-.806-5.049-2.432-4.87-2.223.246-1.974,2.483-1.32,4.538.212.667.318,1.652.133,1.788" transform="translate(-1040.893 861.65)" fill="#f7bc9f" fill-rule="evenodd"/>
    <path id="Trazado_876111" data-name="Trazado 876111" d="M1487.234,1318.454l-7.349-9.316-5.7,5.515s7.112,4.865,9.239,4.492,3.814-.691,3.814-.691" transform="translate(-1169.252 518.531)" fill="#fff" fill-rule="evenodd"/>
    <path id="Trazado_876112" data-name="Trazado 876112" d="M1171.958,1222.074s-2.393,3.1,4.5,11.641c0,0-8.358,9.548-17.349,9.548-8.233,0-7.453-10.123-7.453-10.123a25.831,25.831,0,0,0,8.483-2.6,103.728,103.728,0,0,1,11.82-8.461" transform="translate(-878.397 597.042)" fill="#355370"/>
    <path id="Trazado_876113" data-name="Trazado 876113" d="M1202.774,1083.159a8.54,8.54,0,0,0-1.491,8.425s-14.66-2.783-11.382-10.12c1.613-3.611,12.873,1.7,12.873,1.7" transform="translate(-912.472 724.971)" fill="#effaf4"/>
    <rect id="Rectángulo_401481" data-name="Rectángulo 401481" width="13.453" height="1.342" transform="translate(309.585 1838.694)" fill="#fff"/>
    <path id="Trazado_876114" data-name="Trazado 876114" d="M1628.787,1395.2h.349a2.567,2.567,0,0,1,2.567,2.567h-2.917Z" transform="translate(-1308.666 440.927)" fill="#fff" fill-rule="evenodd"/>
    <path id="Trazado_876115" data-name="Trazado 876115" d="M1532.09,1395.2H1521.9a.349.349,0,0,0-.349.349v2.218h10.536Z" transform="translate(-1211.97 440.927)" fill="#ff6d3a"/>
    <path id="Trazado_876116" data-name="Trazado 876116" d="M1521.9,1395.2h0a2.567,2.567,0,0,1,2.567,2.567h-2.916v-2.218a.349.349,0,0,1,.349-.349" transform="translate(-1211.971 440.927)" fill="#fff" fill-rule="evenodd"/>
    <path id="Trazado_876117" data-name="Trazado 876117" d="M1587.086,1378.617l-3.042-3.042a1.3,1.3,0,0,0,0,1.844l2.12,2.12Z" transform="translate(-1267.976 458.623)" fill="#ff6d3a"/>
    <path id="Trazado_876118" data-name="Trazado 876118" d="M1078.383,1348.4a6.37,6.37,0,1,0-6.757-5.957,6.369,6.369,0,0,0,6.757,5.957" transform="translate(-806.237 494.604)" fill="#f7bc9f" fill-rule="evenodd"/>
    <path id="Trazado_876119" data-name="Trazado 876119" d="M1018.506,1408.662h0a2.439,2.439,0,0,0,2.588,2.281l5.688-.358-.307-4.869-5.688.358a2.439,2.439,0,0,0-2.281,2.588" transform="translate(-758.345 431.443)" fill="#f7bc9f" fill-rule="evenodd"/>
    <path id="Trazado_876120" data-name="Trazado 876120" d="M1025.643,1417.9a1.982,1.982,0,1,0-2.1-1.853,1.982,1.982,0,0,0,2.1,1.853" transform="translate(-762.885 424.025)" fill="#ed9983"/>
    <path id="Trazado_876121" data-name="Trazado 876121" d="M1014.252,1342.057h0a2.439,2.439,0,0,0,1.67,3.018l5.477,1.576,1.349-4.688-5.477-1.576a2.439,2.439,0,0,0-3.018,1.67" transform="translate(-754.427 490.44)" fill="#f7bc9f" fill-rule="evenodd"/>
    <path id="Trazado_876122" data-name="Trazado 876122" d="M1020.613,1348.939a1.982,1.982,0,1,0-1.357-2.453,1.982,1.982,0,0,0,1.357,2.453" transform="translate(-758.955 486.146)" fill="#ed9983"/>
    <path id="Trazado_876123" data-name="Trazado 876123" d="M1093.436,1307.235h0a2.439,2.439,0,0,0,.217,3.443l4.275,3.769,3.226-3.659-4.275-3.769a2.439,2.439,0,0,0-3.443.217" transform="translate(-825.366 520.993)" fill="#f7bc9f" fill-rule="evenodd"/>
    <path id="Trazado_876124" data-name="Trazado 876124" d="M1098.438,1314.785a1.982,1.982,0,1,0-.176-2.8,1.982,1.982,0,0,0,.176,2.8" transform="translate(-829.821 516.567)" fill="#ed9983"/>
    <path id="Trazado_876125" data-name="Trazado 876125" d="M1102.554,1420.4h0a2.439,2.439,0,0,1-.217-3.443l3.769-4.275,3.659,3.226-3.769,4.275a2.439,2.439,0,0,1-3.443.217" transform="translate(-833.394 425.158)" fill="#f7bc9f" fill-rule="evenodd"/>
    <path id="Trazado_876126" data-name="Trazado 876126" d="M1107.13,1452.826a1.982,1.982,0,1,1,.176,2.8,1.981,1.981,0,0,1-.176-2.8" transform="translate(-837.818 389.567)" fill="#ed9983"/>
    <path id="Trazado_876127" data-name="Trazado 876127" d="M1097.937,1365.522a4.221,4.221,0,1,0-4.478-3.948,4.221,4.221,0,0,0,4.478,3.948" transform="translate(-825.929 475.294)" fill="#ed9983"/>
    <path id="Trazado_876128" data-name="Trazado 876128" d="M1091.158,1386.629l1.083,3.349a.579.579,0,0,0,.729.373l3.349-1.083a.579.579,0,0,0,.373-.73l-1.083-3.349a.58.58,0,0,0-.73-.373l-3.349,1.083a.58.58,0,0,0-.373.73" transform="translate(-823.836 450.315)" fill="#a56356"/>
    <line id="Línea_589" data-name="Línea 589" x1="1.474" y2="0.184" transform="translate(271.966 1838.688)" fill="none" stroke="#ffe7dc" stroke-linecap="round" stroke-miterlimit="10" stroke-width="2.126"/>
    <line id="Línea_590" data-name="Línea 590" x1="1.474" y2="0.184" transform="translate(271.16 1836.195)" fill="none" stroke="#ffe7dc" stroke-linecap="round" stroke-miterlimit="10" stroke-width="2.126"/>
    <line id="Línea_591" data-name="Línea 591" x1="1.371" y2="0.327" transform="translate(271.701 1837.548)" fill="none" stroke="#ffe7dc" stroke-linecap="round" stroke-miterlimit="10" stroke-width="2.126"/>
    <line id="Línea_592" data-name="Línea 592" x1="1.474" y2="0.184" transform="translate(271.065 1835.902)" fill="none" stroke="#ffe7dc" stroke-linecap="round" stroke-miterlimit="10" stroke-width="2.126"/>
    <line id="Línea_593" data-name="Línea 593" x1="0.913" y2="1.432" transform="translate(271.888 1836.709)" fill="none" stroke="#ffe7dc" stroke-linecap="round" stroke-miterlimit="10" stroke-width="2.126"/>
    <line id="Línea_594" data-name="Línea 594" x1="1.296" y2="0.735" transform="translate(267.631 1839.537)" fill="none" stroke="#ffe7dc" stroke-linecap="round" stroke-miterlimit="10" stroke-width="2.126"/>
    <line id="Línea_595" data-name="Línea 595" x1="1.196" y2="0.149" transform="translate(267.262 1838.984)" fill="none" stroke="#ffe7dc" stroke-linecap="round" stroke-miterlimit="10" stroke-width="2.126"/>
    <line id="Línea_596" data-name="Línea 596" x1="1.108" y2="0.829" transform="translate(266.868 1837.086)" fill="none" stroke="#ffe7dc" stroke-linecap="round" stroke-miterlimit="10" stroke-width="2.126"/>
    <line id="Línea_597" data-name="Línea 597" x1="1.442" y2="0.284" transform="translate(267.024 1838.11)" fill="none" stroke="#ffe7dc" stroke-linecap="round" stroke-miterlimit="10" stroke-width="2.126"/>
    <line id="Línea_598" data-name="Línea 598" x2="0.184" y2="1.474" transform="translate(270.685 1834.732)" fill="none" stroke="#ffe7dc" stroke-linecap="round" stroke-miterlimit="10" stroke-width="2.126"/>
    <line id="Línea_599" data-name="Línea 599" x2="0.067" y2="1.406" transform="translate(269.545 1835.102)" fill="none" stroke="#ffe7dc" stroke-linecap="round" stroke-miterlimit="10" stroke-width="2.126"/>
    <line id="Línea_600" data-name="Línea 600" x2="0.819" y2="0.927" transform="translate(267.901 1835.633)" fill="none" stroke="#ffe7dc" stroke-linecap="round" stroke-miterlimit="10" stroke-width="2.126"/>
    <line id="Línea_601" data-name="Línea 601" x1="0.227" y2="1.501" transform="translate(268.479 1835.373)" fill="none" stroke="#ffe7dc" stroke-linecap="round" stroke-miterlimit="10" stroke-width="2.126"/>
    <line id="Línea_602" data-name="Línea 602" x2="0.735" y2="1.296" transform="translate(271.535 1839.246)" fill="none" stroke="#ffe7dc" stroke-linecap="round" stroke-miterlimit="10" stroke-width="2.126"/>
    <line id="Línea_603" data-name="Línea 603" x1="0.102" y2="1.567" transform="translate(271.13 1839.343)" fill="none" stroke="#ffe7dc" stroke-linecap="round" stroke-miterlimit="10" stroke-width="2.126"/>
    <line id="Línea_604" data-name="Línea 604" x2="0.829" y2="1.108" transform="translate(269.083 1840.196)" fill="none" stroke="#ffe7dc" stroke-linecap="round" stroke-miterlimit="10" stroke-width="2.126"/>
    <line id="Línea_605" data-name="Línea 605" x2="0.37" y2="1.143" transform="translate(270.022 1840.007)" fill="none" stroke="#ffe7dc" stroke-linecap="round" stroke-miterlimit="10" stroke-width="2.126"/>
    <path id="Trazado_876129" data-name="Trazado 876129" d="M1276.15,1397.406a2.642,2.642,0,1,0,3.107,2.076,2.642,2.642,0,0,0-3.107-2.076" transform="translate(-988.759 438.983)" fill="#f7bc9f" fill-rule="evenodd"/>
    <path id="Trazado_876130" data-name="Trazado 876130" d="M1255.973,1295.96a2.642,2.642,0,1,0,3.107,2.076,2.643,2.643,0,0,0-3.107-2.076" transform="translate(-970.564 530.462)" fill="#f7bc9f" fill-rule="evenodd"/>
    <path id="Trazado_876131" data-name="Trazado 876131" d="M1281.629,1407.71a1.982,1.982,0,1,0-.547-2.749,1.982,1.982,0,0,0,.547,2.749" transform="translate(-994.824 432.918)" fill="#ed9983"/>
    <path id="Trazado_876132" data-name="Trazado 876132" d="M1261.452,1306.264a1.982,1.982,0,1,0-.547-2.749,1.982,1.982,0,0,0,.547,2.749" transform="translate(-976.629 524.396)" fill="#ed9983"/>
    <path id="Trazado_876133" data-name="Trazado 876133" d="M1168.575,1318.637a6.517,6.517,0,1,0,7.664,5.121,6.517,6.517,0,0,0-7.664-5.121" transform="translate(-888.941 510.08)" fill="#f7bc9f" fill-rule="evenodd"/>
    <path id="Trazado_876134" data-name="Trazado 876134" d="M1178.076,1369.868a2.391,2.391,0,1,1,.66,3.316,2.391,2.391,0,0,1-.66-3.316" transform="translate(-901.876 464.728)" fill="#ed9983"/>
    <path id="Trazado_876135" data-name="Trazado 876135" d="M1226.3,1396.816a1.139,1.139,0,1,0,1.339.895,1.139,1.139,0,0,0-1.339-.895" transform="translate(-944.895 439.488)" fill="#a56356"/>
    <line id="Línea_606" data-name="Línea 606" x1="0.97" y1="0.567" transform="translate(281.096 1837.121)" fill="none" stroke="#ffe7dc" stroke-linecap="round" stroke-miterlimit="10" stroke-width="2.126"/>
    <line id="Línea_607" data-name="Línea 607" x1="0.567" y2="0.916" transform="translate(281.347 1836.916)" fill="none" stroke="#ffe7dc" stroke-linecap="round" stroke-miterlimit="10" stroke-width="2.126"/>
    <path id="Trazado_876136" data-name="Trazado 876136" d="M1210.279,1349.509a1.139,1.139,0,1,0,1.339.895,1.139,1.139,0,0,0-1.339-.895" transform="translate(-930.452 482.148)" fill="#a56356"/>
    <path id="Trazado_876137" data-name="Trazado 876137" d="M1195.273,1377.619a1.139,1.139,0,1,0,1.339.895,1.139,1.139,0,0,0-1.339-.895" transform="translate(-916.921 456.8)" fill="#a56356"/>
    <line id="Línea_608" data-name="Línea 608" x1="1.028" y1="0.632" transform="translate(279.464 1832.408)" fill="none" stroke="#ffe7dc" stroke-linecap="round" stroke-miterlimit="10" stroke-width="2.126"/>
    <line id="Línea_609" data-name="Línea 609" x1="0.714" y2="0.945" transform="translate(279.625 1832.268)" fill="none" stroke="#ffe7dc" stroke-linecap="round" stroke-miterlimit="10" stroke-width="2.126"/>
    <path id="Trazado_876084" data-name="Trazado 876084" d="M2776.835,204.921l-15.747,7.629-10.724-17.905,14.574-9.587Z" transform="translate(-2320.042 1532.167)" fill="#082952"/>
  </g>
</svg>
