<svg xmlns="http://www.w3.org/2000/svg" xmlns:xlink="http://www.w3.org/1999/xlink" width="400" height="233" viewBox="0 0 400 233">
  <defs>
    <clipPath id="clip-path">
      <rect id="Rectángulo_401363" data-name="Rectángulo 401363" width="114.492" height="188.192" fill="none"/>
    </clipPath>
    <clipPath id="clip-path-2">
      <rect id="Rectángulo_401364" data-name="Rectángulo 401364" width="149.904" height="54.67" fill="none"/>
    </clipPath>
  </defs>
  <g id="Grupo_1100230" data-name="Grupo 1100230" transform="translate(-1125 -5372)">
    <rect id="Rectángulo_401362" data-name="Rectángulo 401362" width="400" height="233" transform="translate(1125 5372)" fill="#daf2e4"/>
    <g id="Grupo_1099185" data-name="Grupo 1099185" transform="translate(1064.048 3237.527)">
      <g id="Grupo_1099182" data-name="Grupo 1099182" transform="translate(212.341 2145.351)">
        <g id="Grupo_1099181" data-name="Grupo 1099181" clip-path="url(#clip-path)">
          <path id="Trazado_875459" data-name="Trazado 875459" d="M13.411,270.791s-1.173,5.223.107,6.289,9.593,4.583,35.282,5.863,47.539-5.331,49.139-7.036.213-9.486.213-9.486-12.9,7.569-27.607,9.274-36.241-.321-44.555-2.665-12.045-3.411-12.045-3.411Z" transform="translate(-4.618 -95.235)" fill="#92e3a9"/>
          <path id="Trazado_875460" data-name="Trazado 875460" d="M13.411,270.791s-1.173,5.223.107,6.289,9.593,4.583,35.282,5.863,47.539-5.331,49.139-7.036.213-9.486.213-9.486-12.9,7.569-27.607,9.274-36.241-.321-44.555-2.665-12.045-3.411-12.045-3.411Z" transform="translate(-4.618 -95.235)" fill="none" stroke="#263238" stroke-linecap="round" stroke-linejoin="round" stroke-width="1"/>
          <path id="Trazado_875461" data-name="Trazado 875461" d="M47.99,104.626s-20.561.4-22.157,1.8-8.384,79.646-10.18,87.232-6.587,17.167-4.791,19.762S41.6,221.4,58.569,221.4,92.9,214.614,96.3,210.821s1.6-8.784,1-11.179S93.5,180.879,93.7,180.28s5.988-20.361,5.988-20.361,14.372-32.338,12.376-35.732-22.157-14.372-22.157-14.372L53.18,104.027Z" transform="translate(-3.741 -37.186)" fill="#92e3a9"/>
          <path id="Trazado_875462" data-name="Trazado 875462" d="M47.99,104.626s-20.561.4-22.157,1.8-8.384,79.646-10.18,87.232-6.587,17.167-4.791,19.762S41.6,221.4,58.569,221.4,92.9,214.614,96.3,210.821s1.6-8.784,1-11.179S93.5,180.879,93.7,180.28s5.988-20.361,5.988-20.361,14.372-32.338,12.376-35.732-22.157-14.372-22.157-14.372L53.18,104.027Z" transform="translate(-3.741 -37.186)" fill="none" stroke="#263238" stroke-linecap="round" stroke-linejoin="round" stroke-width="1"/>
          <path id="Trazado_875463" data-name="Trazado 875463" d="M18.538,239.7a52.8,52.8,0,0,1,10.919-.928,42.089,42.089,0,0,1,8.526,1.273s-5.6-6.617-8.653-7.126-9.544,1.781-9.544,1.781Z" transform="translate(-6.627 -83.234)" fill="#263238"/>
          <path id="Trazado_875464" data-name="Trazado 875464" d="M18.538,239.7a52.8,52.8,0,0,1,10.919-.928,42.089,42.089,0,0,1,8.526,1.273s-5.6-6.617-8.653-7.126-9.544,1.781-9.544,1.781Z" transform="translate(-6.627 -83.234)" fill="none" stroke="#263238" stroke-linecap="round" stroke-linejoin="round" stroke-width="1"/>
          <path id="Trazado_875465" data-name="Trazado 875465" d="M102.913,95.633c0-7.053-7.97-12.771-17.8-12.771s-17.8,5.718-17.8,12.771S75.28,108.4,85.111,108.4s17.8-5.718,17.8-12.771" transform="translate(-24.061 -29.62)" fill="#263238"/>
          <path id="Trazado_875466" data-name="Trazado 875466" d="M102.913,95.633c0-7.053-7.97-12.771-17.8-12.771s-17.8,5.718-17.8,12.771S75.28,108.4,85.111,108.4,102.913,102.686,102.913,95.633Z" transform="translate(-24.061 -29.62)" fill="none" stroke="#263238" stroke-linecap="round" stroke-linejoin="round" stroke-width="1"/>
          <path id="Trazado_875467" data-name="Trazado 875467" d="M87.018,171.773a18.754,18.754,0,0,1,2.78-1.683" transform="translate(-31.106 -60.801)" fill="none" stroke="#263238" stroke-linecap="round" stroke-linejoin="round" stroke-width="1"/>
          <path id="Trazado_875468" data-name="Trazado 875468" d="M62.894,189.121s7.008-8.591,13.381-13.861" transform="translate(-22.482 -62.649)" fill="none" stroke="#263238" stroke-linecap="round" stroke-linejoin="round" stroke-width="1"/>
          <path id="Trazado_875469" data-name="Trazado 875469" d="M71.629,173.788s-5.85,7.5-7.312,10.237" transform="translate(-22.991 -62.123)" fill="none" stroke="#263238" stroke-linecap="round" stroke-linejoin="round" stroke-width="1"/>
          <path id="Trazado_875470" data-name="Trazado 875470" d="M78.309,139.37a14.466,14.466,0,0,0,1.063,1.275" transform="translate(-27.993 -49.819)" fill="none" stroke="#263238" stroke-linecap="round" stroke-linejoin="round" stroke-width="1"/>
          <path id="Trazado_875471" data-name="Trazado 875471" d="M65.739,116.318A114.549,114.549,0,0,0,73.01,130" transform="translate(-23.499 -41.579)" fill="none" stroke="#263238" stroke-linecap="round" stroke-linejoin="round" stroke-width="1"/>
          <path id="Trazado_875472" data-name="Trazado 875472" d="M62.61,115.18s3.474,11.151,4.936,13.345" transform="translate(-22.381 -41.172)" fill="none" stroke="#263238" stroke-linecap="round" stroke-linejoin="round" stroke-width="1"/>
          <path id="Trazado_875473" data-name="Trazado 875473" d="M53.945,169.408c.176,1.081.359,2,.545,2.7" transform="translate(-19.283 -60.557)" fill="none" stroke="#263238" stroke-linecap="round" stroke-linejoin="round" stroke-width="1"/>
          <path id="Trazado_875474" data-name="Trazado 875474" d="M50.571,133.7s.83,13.642,1.957,21.552" transform="translate(-18.077 -47.793)" fill="none" stroke="#263238" stroke-linecap="round" stroke-linejoin="round" stroke-width="1"/>
          <path id="Trazado_875475" data-name="Trazado 875475" d="M32.921,272.355c3.123,2.3,8.988,6.126,15.411,7.777" transform="translate(-11.768 -97.357)" fill="none" stroke="#263238" stroke-linecap="round" stroke-linejoin="round" stroke-width="1"/>
          <path id="Trazado_875476" data-name="Trazado 875476" d="M29.245,269.468s.512.445,1.428,1.151" transform="translate(-10.454 -96.325)" fill="none" stroke="#263238" stroke-linecap="round" stroke-linejoin="round" stroke-width="1"/>
          <path id="Trazado_875477" data-name="Trazado 875477" d="M9.619,220.489S8.05,224.9,7.461,226.178a3.2,3.2,0,0,0,.589,3.531c.785.686,2.354,2.354,3.923,2.648s2.06-.1,2.256-.785l.2-.687s3.139,1.373,5.3,1.177a10.56,10.56,0,0,0,4.217-1.569l3.236.392,3.335-8.924s-4.9-1.57-6.767-2.158-9.709-2.649-11.867-2.158a3.1,3.1,0,0,0-2.256,2.844" transform="translate(-2.566 -77.773)" fill="#fcf9e8"/>
          <path id="Trazado_875478" data-name="Trazado 875478" d="M9.619,220.489S8.05,224.9,7.461,226.178a3.2,3.2,0,0,0,.589,3.531c.785.686,2.354,2.354,3.923,2.648s2.06-.1,2.256-.785l.2-.687s3.139,1.373,5.3,1.177a10.56,10.56,0,0,0,4.217-1.569l3.236.392,3.335-8.924s-4.9-1.57-6.767-2.158-9.709-2.649-11.867-2.158A3.1,3.1,0,0,0,9.619,220.489Z" transform="translate(-2.566 -77.773)" fill="none" stroke="#263238" stroke-linecap="round" stroke-linejoin="round" stroke-width="1"/>
          <line id="Línea_584" data-name="Línea 584" x1="3.727" y1="0.883" transform="translate(8.132 152.229)" fill="none" stroke="#263238" stroke-linecap="round" stroke-linejoin="round" stroke-width="1"/>
          <path id="Trazado_875479" data-name="Trazado 875479" d="M40.166,224.035s-3.839,4.936-4.022,7.312,1.828,2.559,3.473,3.108,9.049-10.969,8.506-11.1-5.875-1.48-7.957.684" transform="translate(-12.916 -79.647)" fill="#263238"/>
          <path id="Trazado_875480" data-name="Trazado 875480" d="M40.166,224.035s-3.839,4.936-4.022,7.312,1.828,2.559,3.473,3.108,9.049-10.969,8.506-11.1S42.249,221.87,40.166,224.035Z" transform="translate(-12.916 -79.647)" fill="none" stroke="#263238" stroke-linecap="round" stroke-linejoin="round" stroke-width="1"/>
          <path id="Trazado_875481" data-name="Trazado 875481" d="M100.754,137.843S86.678,164.715,84.119,171.3s-3.108,8.592-3.108,8.592l-.914,5.484s-30.711-.182-32.905.549-10.054,8.226-6.215,11.334,16.087,5.85,29.066,9.323,22.485,4.57,24.679.731,21.571-40.583,25.227-53.014,11.7-21.023,7.13-28.151-21.937-7.678-24.313-7.313" transform="translate(-14.276 -42.448)" fill="#92e3a9"/>
          <path id="Trazado_875482" data-name="Trazado 875482" d="M100.754,137.843S86.678,164.715,84.119,171.3s-3.108,8.592-3.108,8.592l-.914,5.484s-30.711-.182-32.905.549-10.054,8.226-6.215,11.334,16.087,5.85,29.066,9.323,22.485,4.57,24.679.731,21.571-40.583,25.227-53.014,11.7-21.023,7.13-28.151-21.937-7.678-24.313-7.313" transform="translate(-14.276 -42.448)" fill="none" stroke="#263238" stroke-linecap="round" stroke-linejoin="round" stroke-width="1"/>
          <path id="Trazado_875483" data-name="Trazado 875483" d="M151.35,168.67c-4.365,3.56-11.862,9.3-17.211,11.5" transform="translate(-47.95 -60.293)" fill="none" stroke="#263238" stroke-linecap="round" stroke-linejoin="round" stroke-width="1"/>
          <path id="Trazado_875484" data-name="Trazado 875484" d="M165.577,163.68s-.853.732-2.248,1.879" transform="translate(-58.384 -58.509)" fill="none" stroke="#263238" stroke-linecap="round" stroke-linejoin="round" stroke-width="1"/>
          <path id="Trazado_875485" data-name="Trazado 875485" d="M140.311,183s-5.728,2.864-9.738,4.392" transform="translate(-46.675 -65.414)" fill="none" stroke="#263238" stroke-linecap="round" stroke-linejoin="round" stroke-width="1"/>
          <path id="Trazado_875486" data-name="Trazado 875486" d="M101.6,246.772a8.168,8.168,0,0,0,1.263,1.559" transform="translate(-36.319 -88.212)" fill="none" stroke="#263238" stroke-linecap="round" stroke-linejoin="round" stroke-width="1"/>
          <path id="Trazado_875487" data-name="Trazado 875487" d="M94.489,226.606A58.81,58.81,0,0,0,97.8,237.223" transform="translate(-33.776 -81.003)" fill="none" stroke="#263238" stroke-linecap="round" stroke-linejoin="round" stroke-width="1"/>
          <path id="Trazado_875488" data-name="Trazado 875488" d="M87.521,230.406s.136,6.919.814,8.547" transform="translate(-31.285 -82.361)" fill="none" stroke="#263238" stroke-linecap="round" stroke-linejoin="round" stroke-width="1"/>
          <path id="Trazado_875489" data-name="Trazado 875489" d="M106.123,228l18.148,7.494,2.108-2.927Z" transform="translate(-37.935 -81.503)" fill="#263238"/>
          <path id="Trazado_875490" data-name="Trazado 875490" d="M106.123,228l18.148,7.494,2.108-2.927Z" transform="translate(-37.935 -81.503)" fill="none" stroke="#263238" stroke-linecap="round" stroke-linejoin="round" stroke-width="1"/>
          <path id="Trazado_875491" data-name="Trazado 875491" d="M101.02,203.375s10.708-1.338,12.046-2.677,5.354-4.989,6.571-5.232,6.936,1.1,8.274,1.1,3.286-2.434,4.746-2.312,2.19,1.947,1.7,3.407-3.285,3.042-3.894,3.164a13.346,13.346,0,0,0-1.582.486,66.975,66.975,0,0,1,6.693,1.582c1.582.609,1.582,2.069.973,3.529a5.881,5.881,0,0,1-1.947,2.8,17.862,17.862,0,0,0-2.312,2.555,4.463,4.463,0,0,1-.365,3.407,11.679,11.679,0,0,1-2.19,2.433c-.486.365.58.568-.482,1.837-.743.889-.84,1.243-4.385,1.813-1.14.184-5.841-.73-9.126-1.825s-9-2.434-9-2.434l-7.788-1.825Z" transform="translate(-35.372 -69.435)" fill="#fcf9e8"/>
          <path id="Trazado_875492" data-name="Trazado 875492" d="M101.02,203.375s10.708-1.338,12.046-2.677,5.354-4.989,6.571-5.232,6.936,1.1,8.274,1.1,3.286-2.434,4.746-2.312,2.19,1.947,1.7,3.407-3.285,3.042-3.894,3.164a13.346,13.346,0,0,0-1.582.486,66.975,66.975,0,0,1,6.693,1.582c1.582.609,1.582,2.069.973,3.529a5.881,5.881,0,0,1-1.947,2.8,17.862,17.862,0,0,0-2.312,2.555,4.463,4.463,0,0,1-.365,3.407,11.679,11.679,0,0,1-2.19,2.433c-.486.365.58.568-.482,1.837-.743.889-.84,1.243-4.385,1.813-1.14.184-5.841-.73-9.126-1.825s-9-2.434-9-2.434l-7.788-1.825Z" transform="translate(-35.372 -69.435)" fill="none" stroke="#263238" stroke-linecap="round" stroke-linejoin="round" stroke-width="1"/>
          <path id="Trazado_875493" data-name="Trazado 875493" d="M150.018,212.77s.118,2.7-.588,3.644a6.363,6.363,0,0,1-1.762,1.528,4.594,4.594,0,0,1-.235,2.7l-.588,1.293s-.959,1.152-.6,1.92" transform="translate(-52.248 -76.057)" fill="none" stroke="#263238" stroke-linecap="round" stroke-linejoin="round" stroke-width="1"/>
          <path id="Trazado_875494" data-name="Trazado 875494" d="M90.613,206.236l7.585,1.2L96,219.411l-4.591-1Z" transform="translate(-32.391 -73.722)" fill="#263238"/>
          <path id="Trazado_875495" data-name="Trazado 875495" d="M90.613,206.236l7.585,1.2L96,219.411l-4.591-1Z" transform="translate(-32.391 -73.722)" fill="none" stroke="#263238" stroke-linecap="round" stroke-linejoin="round" stroke-width="1"/>
          <path id="Trazado_875496" data-name="Trazado 875496" d="M31.852,105.738s-9.981-4.791-16.369-2.4S8.7,119.312,8.5,121.108,1.311,168.218.512,175.6s37.128,10.979,45.712,10.779,12.376-2.794,12.975-4.99,3.593-11.378,1.6-12.576-37.727-8.784-37.727-8.784l-2-2.4s4.392-26.349,5.19-30.541" transform="translate(-0.179 -36.701)" fill="#92e3a9"/>
          <path id="Trazado_875497" data-name="Trazado 875497" d="M31.852,105.738s-9.981-4.791-16.369-2.4S8.7,119.312,8.5,121.108,1.311,168.218.512,175.6s37.128,10.979,45.712,10.779,12.376-2.794,12.975-4.99,3.593-11.378,1.6-12.576-37.727-8.784-37.727-8.784l-2-2.4s4.392-26.349,5.19-30.541" transform="translate(-0.179 -36.701)" fill="none" stroke="#263238" stroke-linecap="round" stroke-linejoin="round" stroke-width="1"/>
          <path id="Trazado_875498" data-name="Trazado 875498" d="M16.174,193.728a9.2,9.2,0,0,0-1.364.652" transform="translate(-5.294 -69.25)" fill="none" stroke="#263238" stroke-linecap="round" stroke-linejoin="round" stroke-width="1"/>
          <path id="Trazado_875499" data-name="Trazado 875499" d="M30.2,191.881a38.241,38.241,0,0,0-9.743.486" transform="translate(-7.314 -68.549)" fill="none" stroke="#263238" stroke-linecap="round" stroke-linejoin="round" stroke-width="1"/>
          <path id="Trazado_875500" data-name="Trazado 875500" d="M12.946,185.945s6.587-.8,10.579,1" transform="translate(-4.628 -66.405)" fill="none" stroke="#263238" stroke-linecap="round" stroke-linejoin="round" stroke-width="1"/>
          <path id="Trazado_875501" data-name="Trazado 875501" d="M75.269,102.22s8.2,4.6,14.406,3.2,5.6-16,5.6-16l-5-3.4Z" transform="translate(-26.906 -30.747)" fill="#f6f0ca"/>
          <path id="Trazado_875502" data-name="Trazado 875502" d="M75.269,102.22s8.2,4.6,14.406,3.2,5.6-16,5.6-16l-5-3.4Z" transform="translate(-26.906 -30.747)" fill="none" stroke="#263238" stroke-linecap="round" stroke-linejoin="round" stroke-width="1"/>
          <path id="Trazado_875503" data-name="Trazado 875503" d="M90.148,93.62l-6.5,2.273-8.375,9.046a33.381,33.381,0,0,0,5.13,2.211Z" transform="translate(-26.906 -33.466)" fill="#263238"/>
          <path id="Trazado_875504" data-name="Trazado 875504" d="M90.148,93.62l-6.5,2.273-8.375,9.046a33.381,33.381,0,0,0,5.13,2.211Z" transform="translate(-26.906 -33.466)" fill="none" stroke="#263238" stroke-linecap="round" stroke-linejoin="round" stroke-width="1"/>
          <path id="Trazado_875505" data-name="Trazado 875505" d="M47.806,8.994S31.932,23.1,31.772,34.649,38.987,58.54,38.987,58.54,30.97,72.008,30.81,74.092s4.81,6.734,5.291,6.734,5.291-4.009,5.291-4.009L38.666,82.75l8.178,4.329s3.839-14.589,5.933-19.241c0,0-8.819-16.355-9.46-22.768S43,32.724,44.759,29.678,55.021,22.3,55.5,21.982,66.886,30.64,68.65,38.176s7.732,20.87,7.732,20.87S73.62,73.612,72.338,77.46s-5.612,8.177-5.612,8.177A86.946,86.946,0,0,0,75.7,88.523,23.493,23.493,0,0,0,78.912,89s3.848-6.413,4.169-6.894.321,6.414.321,6.414a37.618,37.618,0,0,0,13.79-4.329,44.044,44.044,0,0,0,11.224-8.658s4.329-1.924,6.414-8.338-2.406-12.988-7.7-19.241-7.216-8.178-8.979-17.477S93.182,11.4,84.523,5.467,64-.627,58.228,2.58,47.806,8.994,47.806,8.994" transform="translate(-11.012 -0.179)" fill="#12263f"/>
          <path id="Trazado_875506" data-name="Trazado 875506" d="M47.806,8.994S31.932,23.1,31.772,34.649,38.987,58.54,38.987,58.54,30.97,72.008,30.81,74.092s4.81,6.734,5.291,6.734,5.291-4.009,5.291-4.009L38.666,82.75l8.178,4.329s3.839-14.589,5.933-19.241c0,0-8.819-16.355-9.46-22.768S43,32.724,44.759,29.678,55.021,22.3,55.5,21.982,66.886,30.64,68.65,38.176s7.732,20.87,7.732,20.87S73.62,73.612,72.338,77.46s-5.612,8.177-5.612,8.177A86.946,86.946,0,0,0,75.7,88.523,23.493,23.493,0,0,0,78.912,89s3.848-6.413,4.169-6.894.321,6.414.321,6.414a37.618,37.618,0,0,0,13.79-4.329,44.044,44.044,0,0,0,11.224-8.658s4.329-1.924,6.414-8.338-2.406-12.988-7.7-19.241-7.216-8.178-8.979-17.477S93.182,11.4,84.523,5.467,64-.627,58.228,2.58,47.806,8.994,47.806,8.994Z" transform="translate(-11.012 -0.179)" fill="none" stroke="#263238" stroke-linecap="round" stroke-linejoin="round" stroke-width="1"/>
          <path id="Trazado_875507" data-name="Trazado 875507" d="M61.036,24.671s-12.2,9.4-14.005,11.6-.4,7-.8,13.205,2.8,12.8,4.6,16.206,6.6,14,10.2,14.805,3.8-.2,3.8-.2,13.205-6.2,17.006-12.6c0,0-2.4-14-3.6-19.407a48.56,48.56,0,0,0-1.8-6.8s-6.6-8.8-9.6-11.6-5.8-5.2-5.8-5.2" transform="translate(-16.474 -8.819)" fill="#f6f0ca"/>
          <path id="Trazado_875508" data-name="Trazado 875508" d="M61.036,24.671s-12.2,9.4-14.005,11.6-.4,7-.8,13.205,2.8,12.8,4.6,16.206,6.6,14,10.2,14.805,3.8-.2,3.8-.2,13.205-6.2,17.006-12.6c0,0-2.4-14-3.6-19.407a48.56,48.56,0,0,0-1.8-6.8s-6.6-8.8-9.6-11.6S61.036,24.671,61.036,24.671Z" transform="translate(-16.474 -8.819)" fill="none" stroke="#263238" stroke-linecap="round" stroke-linejoin="round" stroke-width="1"/>
          <path id="Trazado_875509" data-name="Trazado 875509" d="M54.887,69.809S56.214,68.2,57.665,69" transform="translate(-19.62 -24.585)" fill="none" stroke="#263238" stroke-linecap="round" stroke-linejoin="round" stroke-width="1"/>
          <path id="Trazado_875510" data-name="Trazado 875510" d="M60.323,70.692c.227,1.015-.107,1.953-.744,2.1s-1.339-.565-1.566-1.58.107-1.953.744-2.1,1.339.564,1.566,1.579" transform="translate(-20.712 -24.699)" fill="#263238"/>
          <path id="Trazado_875511" data-name="Trazado 875511" d="M80.813,70.488c.227,1.015-.107,1.953-.745,2.1S78.73,72.019,78.5,71s.107-1.953.744-2.1,1.339.565,1.566,1.579" transform="translate(-28.037 -24.626)" fill="#263238"/>
          <path id="Trazado_875512" data-name="Trazado 875512" d="M75.011,69.085a3.77,3.77,0,0,1,3.568,0" transform="translate(-26.814 -24.536)" fill="none" stroke="#263238" stroke-linecap="round" stroke-linejoin="round" stroke-width="1"/>
          <path id="Trazado_875513" data-name="Trazado 875513" d="M69.353,24.113s4.794,13.109,15.405,16.806c0,0-10.706-6.679-12.4-17.809" transform="translate(-24.791 -8.261)" fill="#263238"/>
          <path id="Trazado_875514" data-name="Trazado 875514" d="M69.353,24.113s4.794,13.109,15.405,16.806c0,0-10.706-6.679-12.4-17.809" transform="translate(-24.791 -8.261)" fill="none" stroke="#263238" stroke-linecap="round" stroke-linejoin="round" stroke-width="1"/>
          <path id="Trazado_875515" data-name="Trazado 875515" d="M69.442,59.423s-.859.852.81,1.551,7.224,1.925,8.394,1.094-6.131-3.151-9.2-2.645" transform="translate(-24.744 -21.216)" fill="#263238"/>
          <path id="Trazado_875516" data-name="Trazado 875516" d="M69.442,59.423s-.859.852.81,1.551,7.224,1.925,8.394,1.094S72.515,58.918,69.442,59.423Z" transform="translate(-24.744 -21.216)" fill="none" stroke="#263238" stroke-linecap="round" stroke-linejoin="round" stroke-width="1"/>
          <path id="Trazado_875517" data-name="Trazado 875517" d="M54.765,59.378s-4.692,2.029-5.793,3.157,5.142-.233,6.244-1.362-.45-1.8-.45-1.8" transform="translate(-17.459 -21.225)" fill="#263238"/>
          <path id="Trazado_875518" data-name="Trazado 875518" d="M54.765,59.378s-4.692,2.029-5.793,3.157,5.142-.233,6.244-1.362S54.765,59.378,54.765,59.378Z" transform="translate(-17.459 -21.225)" fill="none" stroke="#263238" stroke-linecap="round" stroke-linejoin="round" stroke-width="1"/>
          <path id="Trazado_875519" data-name="Trazado 875519" d="M60.627,64.641a19.43,19.43,0,0,1,1.87,3.893,30.092,30.092,0,0,1,.364,3.152" transform="translate(-21.672 -23.107)" fill="none" stroke="#263238" stroke-linecap="round" stroke-linejoin="round" stroke-width="1"/>
          <path id="Trazado_875520" data-name="Trazado 875520" d="M64.644,87.117s-.242,1.7.364,2.3,2.062,1.576,4.729.242" transform="translate(-23.091 -31.141)" fill="none" stroke="#263238" stroke-linecap="round" stroke-linejoin="round" stroke-width="1"/>
          <path id="Trazado_875521" data-name="Trazado 875521" d="M68.257,98.063a3.491,3.491,0,0,0,2.546,0" transform="translate(-24.399 -35.054)" fill="none" stroke="#263238" stroke-linecap="round" stroke-linejoin="round" stroke-width="1"/>
          <path id="Trazado_875522" data-name="Trazado 875522" d="M68.445,58.316s-1.334-2.3,0-4.244" transform="translate(-24.255 -19.329)" fill="none" stroke="#263238" stroke-linecap="round" stroke-linejoin="round" stroke-width="1"/>
        </g>
      </g>
      <g id="Grupo_1099184" data-name="Grupo 1099184" transform="translate(186 2301.926)">
        <g id="Grupo_1099183" data-name="Grupo 1099183" clip-path="url(#clip-path-2)">
          <path id="Trazado_875523" data-name="Trazado 875523" d="M1,26.535s9.354-1.969,10.093-3.692-.492-6.892,2.954-7.877,9.6,1.231,11.077.739,4.185-6.4,5.662-7.139a12.7,12.7,0,0,1,4.182-.313" transform="translate(-0.633 -5.216)" fill="none" stroke="#263238" stroke-linecap="round" stroke-linejoin="round" stroke-width="2"/>
          <path id="Trazado_875524" data-name="Trazado 875524" d="M94.883,3.349,87.443,5.954l1.881-2.89L87.747,0Z" transform="translate(-55.377 0)" fill="#263238"/>
          <path id="Trazado_875525" data-name="Trazado 875525" d="M28.522,75.38s7.139-.739,8.123-2.708-.985-4.923,1.723-8.123,5.416.492,8.123-.739,4.677-3.938,5.416-4.431,1.723.246,2.707-.492a31.472,31.472,0,0,0,3.4-3.839" transform="translate(-18.063 -34.862)" fill="none" stroke="#263238" stroke-linecap="round" stroke-linejoin="round" stroke-width="2"/>
          <path id="Trazado_875526" data-name="Trazado 875526" d="M106.9,46.052l-3.585,7.02-.633-3.389-3.257-1.129Z" transform="translate(-62.968 -29.164)" fill="#263238"/>
          <path id="Trazado_875527" data-name="Trazado 875527" d="M342.731,53.461s-7.139-.246-9.108-1.477-2.707-4.431-4.431-5.169-7.877-1.723-7.877-1.723-1.477-.246-3.692-2.461c-1.908-1.908-.9-1.625-1.677-1.981" transform="translate(-200.086 -25.743)" fill="none" stroke="#263238" stroke-linecap="round" stroke-linejoin="round" stroke-width="2"/>
          <path id="Trazado_875528" data-name="Trazado 875528" d="M302.4,36.14l7.877-.3-2.649,2.207.6,3.394Z" transform="translate(-191.505 -22.699)" fill="#263238"/>
          <path id="Trazado_875529" data-name="Trazado 875529" d="M358.893,19.224a58.769,58.769,0,0,1-5.908.492c-2.216,0-8.123-1.477-8.123-1.477l-4.431-1.723s-4.677.492-6.154.492c-.867,0-2.5.085-3.694.155" transform="translate(-209.356 -10.459)" fill="none" stroke="#263238" stroke-linecap="round" stroke-linejoin="round" stroke-width="2"/>
          <path id="Trazado_875530" data-name="Trazado 875530" d="M316.492,13.254l7.091-3.444L322.046,12.9l1.919,2.864Z" transform="translate(-200.432 -6.213)" fill="#263238"/>
          <path id="Trazado_875531" data-name="Trazado 875531" d="M323.928,115.076s-3.446-5.169-5.416-6.4A69.7,69.7,0,0,1,312.6,104l-.985-5.908-1.655-2.128" transform="translate(-196.298 -60.773)" fill="none" stroke="#263238" stroke-linecap="round" stroke-linejoin="round" stroke-width="2"/>
          <path id="Trazado_875532" data-name="Trazado 875532" d="M303.067,83.642l6.244,4.811h-3.448l-1.707,2.995Z" transform="translate(-191.93 -52.97)" fill="#263238"/>
          <path id="Trazado_875533" data-name="Trazado 875533" d="M83.565,111.493s1.969-4.185,2.954-5.908,1.231-2.708,2.462-5.169a12.118,12.118,0,0,1,2.4-3.113" transform="translate(-52.921 -61.621)" fill="none" stroke="#263238" stroke-linecap="round" stroke-linejoin="round" stroke-width="2"/>
          <path id="Trazado_875534" data-name="Trazado 875534" d="M101.778,86.327,99.43,93.852l-1.2-3.234-3.4-.563Z" transform="translate(-60.057 -54.67)" fill="#263238"/>
        </g>
      </g>
    </g>
  </g>
</svg>
