<svg xmlns="http://www.w3.org/2000/svg" width="89" height="89" viewBox="0 0 89 89">
  <g id="Grupo_1098745" data-name="Grupo 1098745" transform="translate(-1251.333 -413)">
    <g id="Grupo_1098742" data-name="Grupo 1098742" transform="translate(48.013 24.258)">
      <g id="Rect치ngulo_400898" data-name="Rect치ngulo 400898" transform="translate(1203.32 388.742)" fill="#fff" stroke="#fff" stroke-width="3" opacity="0.859">
        <rect width="89" height="89" rx="44.5" stroke="none"/>
        <rect x="1.5" y="1.5" width="86" height="86" rx="43" fill="none"/>
      </g>
      <g id="Rect치ngulo_400907" data-name="Rect치ngulo 400907" transform="translate(1203.32 388.742)" fill="none" stroke="#fff" stroke-width="3">
        <rect width="89" height="89" rx="44.5" stroke="none"/>
        <rect x="1.5" y="1.5" width="86" height="86" rx="43" fill="none"/>
      </g>
    </g>
    <path id="Trazado_126669" data-name="Trazado 126669" d="M874.615,1920.3a19.429,19.429,0,0,1,27.509,27.238c3.884,5.556,2.305,9.7-4.182,10.832-.3,3.831-2.426,5.9-6.308,6.265-.319,3.867-2.482,5.953-6.3,6.328-1.187,6.293-5.493,8.011-10.616,4.274-3.887,3.778-10.629,1.44-10.614-4.233-4.411-.923-5.546-2.057-6.3-6.337-3.785-.335-5.937-2.377-6.293-6.326-2.638-.149-4.767-1.229-5.775-3.806-.986-2.521-.306-4.767,1.552-6.774a19.893,19.893,0,0,1-4.24-16.223,18.576,18.576,0,0,1,5.944-10.8A19.7,19.7,0,0,1,874.615,1920.3Zm.713,39.481c.251.027.514.047.776.084a5.608,5.608,0,0,1,4.923,3.688,8.375,8.375,0,0,0,2.335,3.318,2.737,2.737,0,0,0,4.132.094,2.816,2.816,0,0,0,.05-4.215c-.255-.271-.524-.528-.787-.791-3.034-3.035-6.087-6.052-9.08-9.128a2.047,2.047,0,0,1-.529-1.584,1.653,1.653,0,0,1,1.158-1.061,2.428,2.428,0,0,1,1.639.7c3.261,3.189,6.468,6.435,9.7,9.654a2.663,2.663,0,0,0,3.491.52,2.819,2.819,0,0,0,.658-4.671c-3.261-3.286-6.547-6.548-9.813-9.829-.866-.87-.862-1.775-.031-2.427.723-.567,1.411-.475,2.226.337q3.95,3.936,7.887,7.885c.692.693,1.364,1.41,2.086,2.071a3.133,3.133,0,0,0,4.237-.11c1.146-1.036,1.253-2.3.239-3.707a13.559,13.559,0,0,0-1.541-1.741c-1.618-1.583-3.278-3.124-4.891-4.713-.32-.315-.736-.792-.7-1.15a2,2,0,0,1,.781-1.456,1.925,1.925,0,0,1,1.706.206c1.341,1.121,2.551,2.4,3.851,3.656a16.352,16.352,0,0,0-5.294-24.941,16.2,16.2,0,0,0-18.217,2.483c-3.635,3.432-7.115,7.03-10.616,10.6a3.308,3.308,0,0,0-.8,1.781,2.967,2.967,0,0,0,1.817,2.9,2.675,2.675,0,0,0,3.233-.679q4.711-4.679,9.4-9.386c1.246-1.246,1.87-1.3,3.147-.041,2.552,2.512,5.059,5.072,7.57,7.625.816.829.859,1.63.189,2.3-.693.694-1.543.634-2.383-.2q-3.127-3.11-6.24-6.234c-.229-.229-.479-.437-.862-.785a10.7,10.7,0,0,1-.738.937q-3.933,3.953-7.88,7.891a5.712,5.712,0,0,1-3.919,1.878,6.5,6.5,0,0,1-5.922-3.887,5.427,5.427,0,0,1,1.338-6.391c2.66-2.692,5.35-5.356,8.024-8.034.227-.228.433-.475.648-.713-5.408-4.784-15.1-5.3-21.47.636-7.019,6.54-5.8,15.883-1.19,22.442,1.023-1.07,1.964-2.187,3.039-3.152a5.929,5.929,0,0,1,9.771,3.213c.109.515.173,1.04.258,1.555a6.173,6.173,0,0,1,4.442,1.807,6.38,6.38,0,0,1,1.808,4.447C872.971,1953.91,874.68,1955.617,875.328,1959.776Zm-6.509-3.246a6.158,6.158,0,0,0-1.555.867c-1.859,1.764-3.667,3.583-5.45,5.425a2.974,2.974,0,0,0,.01,4.191,2.888,2.888,0,0,0,4.1-.037c1.845-1.779,3.641-3.609,5.442-5.433a2.549,2.549,0,0,0,.556-3.067A3.372,3.372,0,0,0,868.819,1956.53Zm-1.756,14.573a3.351,3.351,0,0,0,1.9,2.769,2.763,2.763,0,0,0,3.266-.581q2.723-2.644,5.372-5.363a2.766,2.766,0,0,0-.053-4.13,2.735,2.735,0,0,0-4.13.027c-1.761,1.722-3.524,3.444-5.206,5.241A9.655,9.655,0,0,0,867.063,1971.1ZM851.6,1955.216a3.662,3.662,0,0,0,1.354-.584c2.071-1.977,4.13-3.972,6.071-6.075a2.6,2.6,0,0,0-.448-3.717,2.651,2.651,0,0,0-3.742-.224q-3.007,2.853-5.859,5.865a2.624,2.624,0,0,0-.3,3.123A2.905,2.905,0,0,0,851.6,1955.216Zm14.469-1.775a3.789,3.789,0,0,0-2.15-2.935,2.62,2.62,0,0,0-3.057.639c-1.771,1.757-3.544,3.513-5.289,5.3a2.966,2.966,0,0,0-.037,4.257,2.885,2.885,0,0,0,4.166-.1c1.788-1.74,3.564-3.493,5.281-5.3A9.3,9.3,0,0,0,866.074,1953.44Zm10.885,19.57c1.692,1.523,3.465,1.494,4.636-.017a2.841,2.841,0,0,0-.69-4.121Z" transform="translate(421.184 -1485.314)" fill="#59836b"/>
  </g>
</svg>
