<svg xmlns="http://www.w3.org/2000/svg" width="98" height="98" viewBox="0 0 98 98">
  <g id="Grupo_1098746" data-name="Grupo 1098746" transform="translate(-916.333 -364)">
    <g id="Grupo_1098733" data-name="Grupo 1098733" transform="translate(-286.987 -24.742)">
      <g id="Rect치ngulo_400898" data-name="Rect치ngulo 400898" transform="translate(1203.32 388.742)" fill="#fff" stroke="#fff" stroke-width="3" opacity="0.859">
        <rect width="98" height="98" rx="49" stroke="none"/>
        <rect x="1.5" y="1.5" width="95" height="95" rx="47.5" fill="none"/>
      </g>
      <g id="Rect치ngulo_400907" data-name="Rect치ngulo 400907" transform="translate(1203.32 388.742)" fill="none" stroke="#fff" stroke-width="3">
        <rect width="98" height="98" rx="49" stroke="none"/>
        <rect x="1.5" y="1.5" width="95" height="95" rx="47.5" fill="none"/>
      </g>
    </g>
    <g id="WEk4HE" transform="translate(-1543.161 129.257)">
      <g id="Grupo_133644" data-name="Grupo 133644" transform="translate(2476.512 247.761)">
        <path id="Trazado_126662" data-name="Trazado 126662" d="M2483.83,261.377c-1.39.321-2.661.607-3.927.911a1.1,1.1,0,0,0-.725,1.85q2.027,3.072,4.082,6.124c.464.69,1.045.867,1.592.517.564-.362.635-1,.166-1.713-.978-1.482-1.968-2.957-2.949-4.437-.109-.164-.2-.344-.321-.566,1.362-.32,2.657-.609,3.943-.93a1.052,1.052,0,0,0,.7-1.755q-2.919-4.372-5.88-8.717a1.066,1.066,0,0,0-1.518-.366,1.038,1.038,0,0,0-.248,1.537c.373.592.779,1.166,1.171,1.747Zm8.356-4.668c.971-.056,1.852-.094,2.73-.163a1.024,1.024,0,0,0,.99-1.463c-.7-1.705-1.451-3.391-2.216-5.07a1,1,0,0,0-1.408-.515,1.042,1.042,0,0,0-.494,1.43c.387.951.814,1.887,1.221,2.83.1.222.178.45.341.862-1.021,0-1.885-.045-2.742.013-.831.056-1.3.682-1.016,1.387.762,1.882,1.57,3.747,2.4,5.6a.967.967,0,0,0,1.32.467,1.038,1.038,0,0,0,.59-1.334c-.135-.4-.324-.775-.49-1.162Zm17.368,45.385a9.672,9.672,0,0,0-6.734,2.677,1.1,1.1,0,0,0-.2,1.66c.45.473,1.01.454,1.616-.056.125-.1.24-.223.366-.327a7.666,7.666,0,0,1,10.226.3,1.065,1.065,0,0,0,1.662.05,1.11,1.11,0,0,0-.208-1.611A9.671,9.671,0,0,0,2509.554,302.094Zm7.707-7.994c.932-.9,1.79-1.683,2.6-2.516a1.01,1.01,0,0,0,.006-1.5,1.05,1.05,0,0,0-1.51.018c-1.269,1.239-2.532,2.487-3.76,3.766a1.043,1.043,0,0,0,.458,1.789c1.84.6,3.691,1.161,5.545,1.709a1.02,1.02,0,0,0,1.335-.591,1.046,1.046,0,0,0-.769-1.461C2519.931,294.907,2518.683,294.538,2517.261,294.1Zm-15.685-.038a1.879,1.879,0,0,1-.218.127c-1.156.363-2.314.723-3.471,1.087-.773.243-1.127.758-.951,1.377a1.107,1.107,0,0,0,1.535.668c1.741-.526,3.481-1.058,5.215-1.609,1.09-.346,1.3-1.2.494-2.017-1.145-1.169-2.3-2.321-3.469-3.47a1.1,1.1,0,0,0-1.664-.131c-.462.478-.41,1.071.175,1.658C2499.979,292.514,2500.754,293.258,2501.576,294.063Z" transform="translate(-2477.28 -248.381)" fill="#8a803d"/>
        <path id="Trazado_126662_-_Contorno" data-name="Trazado 126662 - Contorno" d="M2492.773,248.879h0a1.5,1.5,0,0,1,1.372.926c.677,1.487,1.47,3.255,2.223,5.087a1.519,1.519,0,0,1-.071,1.4,1.686,1.686,0,0,1-1.341.748c-.619.049-1.233.082-1.883.116l-.147.008.212.5.736,1.728c.048.112.1.229.152.342.123.273.25.556.352.855a1.529,1.529,0,0,1-.9,1.966,1.919,1.919,0,0,1-.642.117,1.38,1.38,0,0,1-1.3-.851c-.925-2.062-1.713-3.9-2.408-5.617a1.457,1.457,0,0,1,.09-1.334,1.688,1.688,0,0,1,1.355-.74c.31-.021.645-.031,1.053-.031.263,0,.527,0,.807.008l.181,0c-.022-.055-.044-.107-.066-.158-.136-.317-.278-.639-.415-.951-.271-.616-.551-1.253-.81-1.889a1.54,1.54,0,0,1,.738-2.067A1.609,1.609,0,0,1,2492.773,248.879Zm.065,12.8a.929.929,0,0,0,.308-.059.539.539,0,0,0,.284-.7c-.086-.253-.2-.5-.316-.765-.053-.117-.107-.238-.16-.36l-.736-1.729-.77-1.808.71-.041.862-.047c.644-.035,1.252-.067,1.858-.115a.711.711,0,0,0,.568-.275.558.558,0,0,0,0-.5c-.747-1.818-1.535-3.574-2.208-5.053a.512.512,0,0,0-.462-.341h0a.619.619,0,0,0-.271.068.556.556,0,0,0-.25.792c.254.624.531,1.254.8,1.864.138.313.28.637.418.957.065.152.125.305.2.5.042.108.089.23.147.377l.269.683h-.734c-.325,0-.633,0-.93-.009-.276,0-.537-.008-.792-.008-.385,0-.7.009-.986.028a.713.713,0,0,0-.575.273.468.468,0,0,0-.011.427c.691,1.706,1.474,3.532,2.394,5.582A.387.387,0,0,0,2492.838,261.674Zm-13.263-10.061h0a1.642,1.642,0,0,1,1.352.766c1.628,2.4,3.768,5.553,5.882,8.72a1.66,1.66,0,0,1,.255,1.534,1.7,1.7,0,0,1-1.254.984c-.9.224-1.783.429-2.72.646l-.577.134q.6.907,1.206,1.813c.563.845,1.146,1.719,1.714,2.581a1.944,1.944,0,0,1,.361,1.467,1.473,1.473,0,0,1-.674.942,1.511,1.511,0,0,1-.823.255,1.747,1.747,0,0,1-1.453-.913c-1.3-1.938-2.694-4.021-4.084-6.127a1.587,1.587,0,0,1,1.025-2.611c.876-.211,1.748-.41,2.67-.622l.553-.127-3.5-5.2q-.171-.254-.345-.506c-.278-.406-.565-.827-.834-1.253a1.565,1.565,0,0,1,1.25-2.485Zm4.723,18.841a.531.531,0,0,0,.283-.1.484.484,0,0,0,.235-.307,1.011,1.011,0,0,0-.217-.71c-.568-.861-1.15-1.734-1.712-2.578q-.619-.929-1.237-1.859c-.084-.126-.153-.254-.226-.389-.035-.065-.072-.134-.114-.208l-.328-.58.649-.152,1.233-.287c.933-.216,1.814-.42,2.7-.642a.76.76,0,0,0,.563-.374.714.714,0,0,0-.154-.618c-2.113-3.165-4.251-6.319-5.878-8.714a.655.655,0,0,0-.526-.328h0a.539.539,0,0,0-.3.1c-.3.2-.334.487-.1.854.259.411.541.823.814,1.222q.175.256.349.512l3.912,5.8.407.6-.709.164-1.264.291c-.92.211-1.789.41-2.659.619a.807.807,0,0,0-.6.388.817.817,0,0,0,.177.7c1.388,2.1,2.781,4.185,4.08,6.121C2483.793,270.159,2484.031,270.454,2484.3,270.454Zm34.831,18.815h0a1.541,1.541,0,0,1,1.091.457,1.5,1.5,0,0,1,0,2.207c-.575.591-1.169,1.155-1.8,1.752l-.2.187.41.125c.934.285,1.815.553,2.689.839a1.739,1.739,0,0,1,1.092.917,1.589,1.589,0,0,1-1.412,2.173,1.918,1.918,0,0,1-.544-.083c-2.152-.636-3.918-1.181-5.557-1.713a1.541,1.541,0,0,1-.664-2.611c1.287-1.341,2.628-2.662,3.771-3.778A1.607,1.607,0,0,1,2519.129,289.269Zm1.874,7.657c.147,0,.334-.041.478-.359a.489.489,0,0,0,.02-.409.766.766,0,0,0-.488-.371c-.864-.282-1.741-.55-2.67-.833l-1.229-.376-.811-.25.612-.588c.28-.269.553-.529.818-.78.622-.59,1.209-1.147,1.77-1.725a.514.514,0,0,0,.012-.8.547.547,0,0,0-.386-.166h0a.6.6,0,0,0-.422.187c-1.137,1.11-2.471,2.424-3.748,3.754a.6.6,0,0,0-.19.557.619.619,0,0,0,.441.411c1.631.529,3.389,1.071,5.532,1.705A.925.925,0,0,0,2521,296.926Zm-21.238-7.652h0a1.861,1.861,0,0,1,1.3.6c1.032,1.018,2.253,2.227,3.475,3.476a1.59,1.59,0,0,1-.7,2.844c-1.888.6-3.782,1.176-5.221,1.611a2.263,2.263,0,0,1-.653.1,1.5,1.5,0,0,1-1.508-1.112,1.608,1.608,0,0,1,1.282-1.991l1.83-.573,1.106-.346-.209-.2c-.553-.538-1.075-1.046-1.6-1.569a1.578,1.578,0,0,1-.18-2.358A1.479,1.479,0,0,1,2499.765,289.274Zm-1.8,7.629a1.264,1.264,0,0,0,.363-.059c1.436-.434,3.326-1.009,5.208-1.607.349-.111.575-.282.623-.471a.866.866,0,0,0-.334-.719c-1.217-1.243-2.434-2.448-3.463-3.463a.913.913,0,0,0-.594-.31.49.49,0,0,0-.359.171c-.115.119-.386.4.17.957.517.518,1.036,1.024,1.586,1.559l.764.745.467.457-.563.331c-.049.029-.084.051-.11.067a.882.882,0,0,1-.2.1l-.007,0-1.642.514-1.828.573c-.51.16-.719.417-.62.764A.508.508,0,0,0,2497.963,296.9Zm11.592,4.691h.006a10.2,10.2,0,0,1,7.061,2.833,1.612,1.612,0,0,1,.241,2.3,1.487,1.487,0,0,1-1.129.544,1.861,1.861,0,0,1-1.249-.558,6.947,6.947,0,0,0-3.683-1.866,8.247,8.247,0,0,0-1.331-.112,6.983,6.983,0,0,0-4.553,1.692c-.054.045-.109.1-.167.15s-.126.117-.2.176a1.907,1.907,0,0,1-1.218.514,1.581,1.581,0,0,1-1.51-1.573,1.862,1.862,0,0,1,.652-1.292,10.2,10.2,0,0,1,7.071-2.812Zm6.179,4.682a.507.507,0,0,0,.379-.205c.325-.37-.015-.764-.177-.917a9.271,9.271,0,0,0-12.774-.019.915.915,0,0,0-.335.592.488.488,0,0,0,.154.359.47.47,0,0,0,.356.185.983.983,0,0,0,.575-.28c.052-.044.1-.092.16-.144s.134-.124.209-.186a7.957,7.957,0,0,1,5.191-1.922,9.245,9.245,0,0,1,1.493.125,8.021,8.021,0,0,1,4.2,2.12A.919.919,0,0,0,2515.734,306.277Z" transform="translate(-2477.28 -248.381)" fill="#8a803d"/>
        <path id="Trazado_126663" data-name="Trazado 126663" d="M2537.708,247.761a8.693,8.693,0,0,1,1.824,1.325,2.948,2.948,0,0,1,.14,3.542q-2.508,4.423-5.016,8.846c-.125.221-.24.449-.441.831.558,0,1.006,0,1.455,0,.772.006,1.546-.016,2.316.03a2.552,2.552,0,0,1,2.347,1.8,2.522,2.522,0,0,1-.816,2.852c-1.435,1.2-2.906,2.36-4.363,3.535-1.22.984-2.451,1.955-3.656,2.959a.838.838,0,0,0-.307.658,27.479,27.479,0,0,1,1.021,8.673,2.763,2.763,0,0,0,.031.311c.556.094,1.108.159,1.648.282a8.376,8.376,0,0,1-.742,16.471c-1.228.167-1.186.178-1.511,1.422-.317,1.218-.709,2.419-1.115,3.613a1.076,1.076,0,1,1-1.99-.729,23.66,23.66,0,0,0,1.543-9.276c-.038-2.9-.008-5.8-.008-8.706v-.953c-1.218,0-2.361.052-3.5-.009a62.4,62.4,0,0,1-22.083-4.774,32.983,32.983,0,0,1-7.835-4.757c-.189.489-.335.939-.532,1.365a15.5,15.5,0,0,1-7.949,7.672,1,1,0,0,0-.72,1.072c.059,4-.146,8.018.149,12a20.266,20.266,0,0,0,11.217,17.186,21.116,21.116,0,0,0,27.579-6.833,2.8,2.8,0,0,1,.48-.6.964.964,0,0,1,1.343.011.986.986,0,0,1,.157,1.447,32.165,32.165,0,0,1-2.913,3.587c-6.678,6.466-14.607,8.688-23.5,5.962s-14.266-8.982-16.228-18.107c-.025-.114-.051-.228-.084-.339a.472.472,0,0,0-.078-.114,8.455,8.455,0,1,1-.241-16.88c0-.388.007-.778,0-1.168a23.535,23.535,0,0,1,3.591-13.416c.325-.513.674-1.013,1.033-1.5.5-.686,1.14-.847,1.666-.444.543.416.563,1,.03,1.726a21.279,21.279,0,0,0-3.579,7.63,24.828,24.828,0,0,0-.6,6.628c.086.007.166.04.216.014,3.174-1.617,5.666-3.874,6.8-7.364.186-.569.132-1.216.316-1.784a1.628,1.628,0,0,1,.738-.966,1.27,1.27,0,0,1,1.1.29,30.258,30.258,0,0,0,11.407,6.823,64.775,64.775,0,0,0,20.708,3.586c.394.011.79,0,1.181,0a20.536,20.536,0,0,0-.731-7.885l-4.426,3.558c-.638.513-1.264,1.042-1.917,1.535a2.591,2.591,0,0,1-4.057-2.966c.911-2.477,1.853-4.944,2.781-7.415.089-.235.174-.471.3-.8-1.1,0-2.1,0-3.1,0a2.651,2.651,0,0,1-2.546-4.034c.534-1.114,1.081-2.221,1.711-3.514-1.49-.481-2.894-1.065-4.357-1.385a21.027,21.027,0,0,0-18.386,4.3,2.274,2.274,0,0,1-.7.439.962.962,0,0,1-1.2-.471.976.976,0,0,1,.277-1.373,38.366,38.366,0,0,1,4.426-2.945,23.008,23.008,0,0,1,20.378-.584c.128.056.258.108.443.185.117-.228.236-.448.346-.673,1.423-2.92,2.876-5.826,4.25-8.769a4.428,4.428,0,0,1,2.613-2.632Zm-5.844,2.124c-1.615,0-3.229.011-4.844-.006a1.328,1.328,0,0,0-1.34.813q-3.732,7.7-7.479,15.385c-.351.724-.183.993.621,1,1.4.011,2.808,0,4.212.005,1.335.007,1.739.593,1.272,1.833-1.128,3-2.266,5.986-3.373,8.99a.544.544,0,1,0,.84.637q8.083-6.47,16.133-12.982c.2-.161.258-.495.382-.748-.25-.121-.5-.342-.75-.347-1.567-.033-3.136-.015-4.7-.017-1.473,0-1.9-.731-1.176-2.01q3.04-5.371,6.084-10.74c.6-1.056.169-1.8-1.035-1.809C2535.094,249.878,2533.479,249.885,2531.864,249.885ZM2485.3,285.337a6.253,6.253,0,1,0,0,12.483v-6.779a2.182,2.182,0,0,0-2.146,1.165,1.029,1.029,0,0,1-1.466.529,1.086,1.086,0,0,1-.391-1.573,3.681,3.681,0,0,1,2.195-1.952,17.366,17.366,0,0,1,1.812-.387Zm46.918,12.482a6.245,6.245,0,0,0,4.892-9.869,5.91,5.91,0,0,0-4.858-2.6v3.529c.245.021.452.032.657.057a3.956,3.956,0,0,1,3.333,2.237,1.226,1.226,0,0,1,.11.922,1.575,1.575,0,0,1-.84.718.943.943,0,0,1-1.131-.613,2.062,2.062,0,0,0-2.163-1.138Z" transform="translate(-2476.512 -247.761)" fill="#8a803d"/>
        <path id="Trazado_126663_-_Contorno" data-name="Trazado 126663 - Contorno" d="M2525.972,247.261h11.894l.129.091c.178.126.37.243.573.367a5.082,5.082,0,0,1,1.35,1.05,3.449,3.449,0,0,1,.188,4.106l-1.549,2.731-3.467,6.115-.046.083c.217,0,.423,0,.629,0s.438,0,.657,0h.353c.42,0,.872,0,1.333.031a3.066,3.066,0,0,1,2.8,2.158,3.034,3.034,0,0,1-.973,3.38c-1.043.874-2.12,1.737-3.162,2.572q-.6.484-1.208.97-.518.417-1.037.833c-.861.69-1.752,1.4-2.612,2.121a.6.6,0,0,0-.129.194,27.649,27.649,0,0,1,1.025,8.633l.133.02c.378.058.768.117,1.153.2a8.881,8.881,0,0,1,5.108,3.278,8.976,8.976,0,0,1,1.8,5.814,8.854,8.854,0,0,1-7.69,8.362,2.843,2.843,0,0,0-.81.167,2.671,2.671,0,0,0-.25.753l-.034.133c-.328,1.259-.734,2.5-1.125,3.647a1.623,1.623,0,0,1-1.515,1.23,1.66,1.66,0,0,1-.605-.119,1.491,1.491,0,0,1-.84-.793,1.787,1.787,0,0,1,.033-1.394,23.169,23.169,0,0,0,1.507-9.083c-.026-2.019-.02-4.07-.014-6.054,0-.872.006-1.773.006-2.659v-.45l-.642.008c-.36,0-.731.01-1.093.01-.494,0-.9-.01-1.289-.03a75.965,75.965,0,0,1-11.333-1.389,53.635,53.635,0,0,1-10.924-3.427,33.675,33.675,0,0,1-7.407-4.39c-.095.256-.19.5-.3.75a15.288,15.288,0,0,1-3.379,4.723,17.8,17.8,0,0,1-4.815,3.194c-.371.171-.435.262-.429.61.02,1.387.009,2.8,0,4.158-.021,2.569-.042,5.225.15,7.812a20.574,20.574,0,0,0,3.194,9.884,21.643,21.643,0,0,0,17.545,9.386,20.528,20.528,0,0,0,9.527-2.365,21.513,21.513,0,0,0,7.619-6.8l.06-.088a2.745,2.745,0,0,1,.515-.613,1.565,1.565,0,0,1,.989-.38,1.519,1.519,0,0,1,1,.4,1.479,1.479,0,0,1,.224,2.129c-.224.29-.449.592-.666.884a22.413,22.413,0,0,1-2.3,2.757c-4.965,4.807-10.544,7.245-16.583,7.245a25.313,25.313,0,0,1-7.408-1.164,23.531,23.531,0,0,1-10.943-6.8,25.335,25.335,0,0,1-5.627-11.679l-.012-.055a9.014,9.014,0,0,1-9.226-9.066,9.022,9.022,0,0,1,2.48-6.018,9.251,9.251,0,0,1,6.345-2.784c0-.223,0-.451,0-.673a25.736,25.736,0,0,1,.8-7.117,23.469,23.469,0,0,1,2.869-6.577c.3-.47.632-.957,1.052-1.531a1.866,1.866,0,0,1,1.467-.867,1.487,1.487,0,0,1,.907.321c.366.28,1.113,1.078.129,2.419a20.887,20.887,0,0,0-3.5,7.452,23.191,23.191,0,0,0-.595,5.816,14.393,14.393,0,0,0,3.534-2.619,10.63,10.63,0,0,0,2.519-4.192,4,4,0,0,0,.137-.794,4.827,4.827,0,0,1,.179-.99,2.084,2.084,0,0,1,1.028-1.276,1.127,1.127,0,0,1,.421-.075,1.852,1.852,0,0,1,1.225.477,29.579,29.579,0,0,0,11.224,6.705,54.663,54.663,0,0,0,10.114,2.614,77.56,77.56,0,0,0,10.436.942c.128,0,.265.005.43.005h.323a17.43,17.43,0,0,0-.054-3.307,21.25,21.25,0,0,0-.514-3.236l-3.861,3.1q-.3.238-.591.48c-.433.354-.881.719-1.339,1.065a3.306,3.306,0,0,1-1.986.715,3.021,3.021,0,0,1-1.794-.613,3.054,3.054,0,0,1-1.047-3.639c.629-1.711,1.283-3.444,1.917-5.12q.434-1.149.866-2.3l.047-.127h-1.272l-1.109,0a3.146,3.146,0,0,1-2.995-4.75c.369-.769.747-1.542,1.148-2.361l.314-.643c-.293-.1-.583-.2-.867-.3a24.727,24.727,0,0,0-2.9-.889,23.177,23.177,0,0,0-4.935-.553,19.737,19.737,0,0,0-6.783,1.188,22.475,22.475,0,0,0-6.251,3.565l-.033.026a2.544,2.544,0,0,1-.839.5,1.756,1.756,0,0,1-.5.076,1.426,1.426,0,0,1-1.282-.784,1.473,1.473,0,0,1,.429-2.026c.372-.259.749-.533,1.113-.8a25.416,25.416,0,0,1,3.373-2.184,24.09,24.09,0,0,1,10.94-2.734,24.9,24.9,0,0,1,9.862,2.137l.014.006c.044-.086.087-.17.129-.255.4-.822.81-1.657,1.206-2.464,1.01-2.058,2.054-4.186,3.04-6.3a4.977,4.977,0,0,1,2.91-2.9Zm11.581,1h-11.418a3.949,3.949,0,0,0-2.243,2.343c-.99,2.119-2.036,4.251-3.048,6.313-.4.807-.805,1.641-1.206,2.462-.077.157-.157.311-.235.46l-.116.223-.211.41-.588-.245c-.108-.045-.2-.082-.287-.12a23.9,23.9,0,0,0-9.465-2.055,23.1,23.1,0,0,0-10.488,2.626,24.683,24.683,0,0,0-3.238,2.1c-.368.267-.749.543-1.128.808-.163.113-.353.312-.126.721a.436.436,0,0,0,.407.269.759.759,0,0,0,.215-.034,1.826,1.826,0,0,0,.5-.325l.033-.027a21.584,21.584,0,0,1,13.656-4.97,24.177,24.177,0,0,1,5.148.576,25.877,25.877,0,0,1,3.015.923c.453.159.921.323,1.389.475l.548.177-.252.518-.566,1.158c-.4.816-.777,1.588-1.144,2.354a2.391,2.391,0,0,0-.026,2.321,2.418,2.418,0,0,0,2.123,1c.676,0,1.352,0,2.059,0h1.752l-.248.673-.111.3c-.069.188-.127.347-.187.505q-.431,1.149-.866,2.3c-.632,1.674-1.286,3.405-1.914,5.112a2.038,2.038,0,0,0,.7,2.488,2,2,0,0,0,1.2.419,2.287,2.287,0,0,0,1.384-.513c.443-.334.883-.694,1.309-1.041q.3-.243.6-.485l4.426-3.558.521-.419.255.618c.709,1.722,1.165,6.708.75,8.209l-.1.367h-.381c-.245,0-.491,0-.737,0-.175,0-.321,0-.458-.006a78.549,78.549,0,0,1-10.57-.954,55.645,55.645,0,0,1-10.3-2.662,30.527,30.527,0,0,1-11.59-6.94.9.9,0,0,0-.515-.181.251.251,0,0,0-.052,0,1.239,1.239,0,0,0-.445.655,4.023,4.023,0,0,0-.136.79,4.817,4.817,0,0,1-.181,1c-1.064,3.277-3.37,5.781-7.048,7.655a.6.6,0,0,1-.274.064.93.93,0,0,1-.178-.02l-.034-.006-.445-.038-.011-.446a25.043,25.043,0,0,1,.61-6.76,21.884,21.884,0,0,1,3.662-7.807c.51-.695.223-.915.069-1.033a.486.486,0,0,0-.3-.115.937.937,0,0,0-.66.457c-.407.556-.729,1.025-1.014,1.475a22.468,22.468,0,0,0-2.747,6.3,24.723,24.723,0,0,0-.767,6.841c.006.275,0,.549,0,.815,0,.122,0,.243,0,.364v.495l-.495.005a8.327,8.327,0,0,0-6.127,2.491,7.844,7.844,0,0,0,.1,11,8.158,8.158,0,0,0,6.007,2.394l.248,0,.268-.006.156.222a.705.705,0,0,1,.144.251c.041.135.071.267.1.38a24.352,24.352,0,0,0,5.4,11.227,22.549,22.549,0,0,0,10.488,6.508,24.318,24.318,0,0,0,7.115,1.12c5.77,0,11.115-2.343,15.887-6.963a21.639,21.639,0,0,0,2.189-2.637c.22-.3.447-.6.676-.9a.493.493,0,0,0-.09-.765.535.535,0,0,0-.342-.155.579.579,0,0,0-.356.154,1.952,1.952,0,0,0-.321.4l-.064.094a22.517,22.517,0,0,1-7.976,7.116,21.532,21.532,0,0,1-9.993,2.48,22.642,22.642,0,0,1-18.382-9.839,21.56,21.56,0,0,1-3.354-10.358c-.2-2.627-.174-5.3-.153-7.894.011-1.357.022-2.76,0-4.135a1.49,1.49,0,0,1,1.011-1.534,16.8,16.8,0,0,0,4.546-3.012,14.3,14.3,0,0,0,3.158-4.416c.124-.268.229-.554.34-.857.057-.154.115-.314.179-.479l.25-.646.534.441a32.38,32.38,0,0,0,7.718,4.685,52.64,52.64,0,0,0,10.723,3.363,74.98,74.98,0,0,0,11.185,1.37c.367.02.76.029,1.236.029.355,0,.707,0,1.079-.01s.763-.011,1.156-.011h.5V286.2c0,.888,0,1.79-.006,2.662-.006,1.98-.012,4.027.014,6.038a24.139,24.139,0,0,1-1.579,9.47.833.833,0,0,0-.043.625.487.487,0,0,0,.286.258.667.667,0,0,0,.241.05c.331,0,.5-.345.568-.551.385-1.133.785-2.35,1.1-3.578l.034-.132a2.316,2.316,0,0,1,.556-1.251,2.4,2.4,0,0,1,1.337-.408,7.855,7.855,0,0,0,6.825-7.415,7.975,7.975,0,0,0-1.594-5.166,7.879,7.879,0,0,0-4.533-2.907c-.351-.08-.706-.134-1.083-.192-.175-.027-.356-.054-.537-.085l-.375-.063-.04-.378c0-.038-.009-.072-.013-.1a1.735,1.735,0,0,1-.021-.27,26.754,26.754,0,0,0-1-8.516,1.29,1.29,0,0,1,.465-1.188c.868-.724,1.762-1.44,2.627-2.134q.518-.415,1.035-.831.6-.487,1.21-.972c1.038-.831,2.111-1.691,3.145-2.557a2.136,2.136,0,0,0-1.24-3.774c-.434-.026-.868-.03-1.272-.03h-1.017c-.3,0-.6,0-.935,0h-1.346l.387-.734.171-.325c.105-.2.188-.361.278-.518q1.733-3.058,3.467-6.115l1.549-2.732a2.45,2.45,0,0,0-.093-2.979,4.3,4.3,0,0,0-1.1-.83C2537.885,248.473,2537.717,248.37,2537.553,248.261Zm-10.559,1.118h.031c.605.006,1.263.009,2.071.009.922,0,1.845,0,2.768,0l2.885,0c.76,0,1.383,0,1.963,0a1.774,1.774,0,0,1,1.62.756,1.792,1.792,0,0,1-.153,1.8c-1.141,2.018-2.3,4.068-3.427,6.05q-1.329,2.345-2.657,4.69c-.251.444-.341.812-.24.985s.468.278.981.279h.319c.687,0,1.373,0,2.058,0,.64,0,1.484,0,2.336.02a1.526,1.526,0,0,1,.764.285c.07.043.136.084.193.111l.453.219-.222.451c-.029.058-.057.133-.086.213a1.535,1.535,0,0,1-.43.7c-5.213,4.218-10.642,8.586-16.135,12.984a1.627,1.627,0,0,1-.75.285c-.082.015-.159.03-.222.048l-.6.172-.041-.619c0-.069-.018-.152-.032-.239a1.627,1.627,0,0,1,.02-.847c.827-2.246,1.687-4.522,2.518-6.724q.428-1.134.855-2.268c.164-.434.2-.768.1-.917s-.433-.237-.9-.24c-.653,0-1.3,0-1.957,0h-.893c-.532,0-.965,0-1.363,0a1.059,1.059,0,0,1-1.067-1.717q1.575-3.243,3.153-6.484c1.419-2.917,2.887-5.933,4.326-8.9A1.827,1.827,0,0,1,2526.994,249.379Zm2.1,1.009c-.811,0-1.473,0-2.082-.009h-.021a.827.827,0,0,0-.864.531c-1.44,2.969-2.907,5.985-4.327,8.9q-1.577,3.241-3.153,6.483a.174.174,0,1,0,.175.28c.4,0,.827,0,1.356,0l1.784,0q.536,0,1.072,0a1.644,1.644,0,0,1,1.738,2.509q-.427,1.135-.856,2.269c-.831,2.2-1.689,4.475-2.516,6.717a.3.3,0,0,0,0,.1.215.215,0,0,0,.062-.027c5.492-4.4,10.919-8.764,16.131-12.98a.59.59,0,0,0,.072-.144.531.531,0,0,0-.138-.063c-.841-.017-1.678-.02-2.313-.02l-2.058,0h-.32a1.661,1.661,0,0,1-1.61-2.757q1.328-2.346,2.658-4.691c1.124-1.982,2.286-4.032,3.426-6.049.193-.342.252-.643.158-.8s-.377-.256-.761-.258c-.577,0-1.2,0-1.957,0l-2.885,0C2530.942,250.385,2530.019,250.388,2529.1,250.388Zm2.655,34.444.52.021a6.727,6.727,0,0,1,5.605,10.081,6.475,6.475,0,0,1-5.633,3.384l-.526.028v-7.759l.478-.021c.068,0,.135,0,.2,0a2.487,2.487,0,0,1,2.431,1.417c.045.089.209.381.423.381a.361.361,0,0,0,.109-.019,1.085,1.085,0,0,0,.543-.461,1.01,1.01,0,0,0-.111-.487,3.459,3.459,0,0,0-2.944-1.957c-.126-.016-.255-.025-.4-.037l-.234-.019-.457-.039Zm.966,12.442a5.738,5.738,0,0,0,3.982-9.038,5.372,5.372,0,0,0-3.948-2.344v2.529c.073.006.145.014.219.023a4.445,4.445,0,0,1,3.723,2.518,1.722,1.722,0,0,1,.1,1.366,2.067,2.067,0,0,1-1.133.967,1.355,1.355,0,0,1-.415.067,1.506,1.506,0,0,1-1.315-.93,1.432,1.432,0,0,0-1.217-.851ZM2485.1,284.835h0l.209,0,.489.011v4.382l-.4.083c-.207.043-.41.079-.607.115a8.77,8.77,0,0,0-1.152.258,3.191,3.191,0,0,0-1.9,1.7c-.147.294-.236.69.177.907a.6.6,0,0,0,.28.078.64.64,0,0,0,.512-.4,2.681,2.681,0,0,1,2.585-1.43l.5,0V298.3l-.483.016c-.1,0-.2,0-.293,0a6.782,6.782,0,0,1-6.859-6.483,6.55,6.55,0,0,1,1.01-3.8A6.634,6.634,0,0,1,2485.1,284.835Zm-.3,3.575v-2.57a5.742,5.742,0,0,0,0,11.481v-5.743a1.53,1.53,0,0,0-1.2.863,1.568,1.568,0,1,1-2.745-1.5,4.156,4.156,0,0,1,2.488-2.2,9.646,9.646,0,0,1,1.284-.291Z" transform="translate(-2476.512 -247.761)" fill="#8a803d"/>
        <path id="Trazado_126664" data-name="Trazado 126664" d="M2483.83,263.074l-3.912-5.8c-.392-.581-.8-1.154-1.171-1.747a1.038,1.038,0,0,1,.248-1.537,1.066,1.066,0,0,1,1.518.366q2.955,4.349,5.88,8.717a1.052,1.052,0,0,1-.7,1.755c-1.286.321-2.581.61-3.943.93.125.222.212.4.321.566.981,1.48,1.971,2.955,2.949,4.437.469.71.4,1.351-.166,1.713-.546.35-1.128.174-1.592-.516q-2.05-3.055-4.082-6.124a1.1,1.1,0,0,1,.725-1.85C2481.169,263.681,2482.44,263.4,2483.83,263.074Z" transform="translate(-2477.28 -250.077)" fill="#8a803d"/>
        <path id="Trazado_126664_-_Contorno" data-name="Trazado 126664 - Contorno" d="M2479.575,253.31a1.642,1.642,0,0,1,1.353.766c1.628,2.4,3.767,5.552,5.882,8.72a1.66,1.66,0,0,1,.255,1.534,1.7,1.7,0,0,1-1.254.984c-.9.224-1.783.429-2.72.646l-.577.134q.6.906,1.2,1.81c.564.846,1.147,1.721,1.716,2.584a1.943,1.943,0,0,1,.361,1.467,1.473,1.473,0,0,1-.674.942,1.511,1.511,0,0,1-.823.255,1.747,1.747,0,0,1-1.453-.913c-1.3-1.941-2.7-4.026-4.084-6.127a1.587,1.587,0,0,1,1.025-2.611c.876-.211,1.747-.41,2.67-.622l.553-.127-3.5-5.2q-.171-.254-.345-.507c-.278-.406-.565-.826-.834-1.253a1.565,1.565,0,0,1,1.25-2.485Zm4.723,18.841a.532.532,0,0,0,.283-.1.484.484,0,0,0,.235-.307,1.011,1.011,0,0,0-.217-.71c-.569-.862-1.151-1.736-1.714-2.581q-.618-.927-1.235-1.856c-.084-.126-.153-.254-.225-.389-.035-.065-.072-.134-.114-.208l-.328-.58.649-.152,1.232-.287c.933-.216,1.814-.42,2.7-.642a.76.76,0,0,0,.563-.374.714.714,0,0,0-.154-.618c-2.114-3.166-4.251-6.32-5.878-8.714a.655.655,0,0,0-.526-.328.538.538,0,0,0-.3.1c-.3.2-.334.487-.1.854.259.411.541.823.813,1.221q.175.256.349.512l3.912,5.8.407.6-.709.164-1.264.291c-.92.211-1.789.41-2.659.619a.807.807,0,0,0-.6.388.816.816,0,0,0,.177.7c1.384,2.1,2.779,4.182,4.08,6.121C2483.793,271.856,2484.031,272.151,2484.3,272.151Z" transform="translate(-2477.28 -250.077)" fill="#8a803d"/>
        <path id="Trazado_126665" data-name="Trazado 126665" d="M2499.007,256.709l1.227,2.882c.166.387.355.765.49,1.162a1.039,1.039,0,0,1-.591,1.334.967.967,0,0,1-1.32-.467c-.831-1.853-1.639-3.718-2.4-5.6-.285-.7.185-1.332,1.016-1.387.857-.058,1.721-.013,2.742-.013-.162-.412-.245-.64-.341-.862-.406-.943-.834-1.879-1.221-2.83a1.042,1.042,0,0,1,.494-1.43,1,1,0,0,1,1.408.515c.763,1.679,1.514,3.365,2.215,5.07a1.024,1.024,0,0,1-.99,1.463C2500.858,256.615,2499.978,256.653,2499.007,256.709Z" transform="translate(-2484.101 -248.381)" fill="#8a803d"/>
        <path id="Trazado_126665_-_Contorno" data-name="Trazado 126665 - Contorno" d="M2499.659,262.674a1.379,1.379,0,0,1-1.3-.851c-.922-2.055-1.71-3.893-2.408-5.616a1.456,1.456,0,0,1,.091-1.334,1.688,1.688,0,0,1,1.355-.74c.31-.021.645-.031,1.053-.031.263,0,.528,0,.807.008l.182,0c-.022-.055-.043-.106-.065-.157-.139-.322-.282-.648-.421-.964-.269-.612-.547-1.244-.8-1.877a1.539,1.539,0,0,1,.737-2.067,1.61,1.61,0,0,1,.71-.169,1.5,1.5,0,0,1,1.372.926c.679,1.493,1.474,3.264,2.223,5.088a1.518,1.518,0,0,1-.071,1.4,1.686,1.686,0,0,1-1.341.748c-.619.049-1.232.082-1.882.116l-.148.008.948,2.226c.049.114.1.232.154.347.122.272.249.553.35.85a1.53,1.53,0,0,1-.9,1.966A1.92,1.92,0,0,1,2499.659,262.674Zm-1.211-7.572c-.385,0-.7.009-.986.028a.713.713,0,0,0-.575.273.467.467,0,0,0-.011.428c.694,1.712,1.477,3.538,2.394,5.582a.387.387,0,0,0,.388.26.926.926,0,0,0,.307-.059.539.539,0,0,0,.285-.7c-.085-.251-.2-.5-.314-.76-.053-.119-.109-.241-.162-.365l-1.506-3.536.709-.041.863-.048c.643-.034,1.251-.067,1.857-.115a.712.712,0,0,0,.568-.275.557.557,0,0,0,0-.5c-.743-1.808-1.533-3.569-2.208-5.053a.513.513,0,0,0-.462-.341.619.619,0,0,0-.271.068.556.556,0,0,0-.25.792c.252.62.527,1.246.793,1.851.139.317.284.645.424.97.067.154.125.3.205.512.04.1.086.224.142.365l.269.683h-.734c-.325,0-.633,0-.93-.009C2498.964,255.107,2498.7,255.1,2498.448,255.1Z" transform="translate(-2484.101 -248.381)" fill="#8a803d"/>
        <path id="Trazado_126666" data-name="Trazado 126666" d="M2524.33,334.812a9.671,9.671,0,0,1,6.726,2.7,1.11,1.11,0,0,1,.209,1.611,1.065,1.065,0,0,1-1.663-.05,7.666,7.666,0,0,0-10.226-.3c-.125.1-.24.222-.366.327-.605.51-1.166.529-1.615.056a1.1,1.1,0,0,1,.2-1.66A9.671,9.671,0,0,1,2524.33,334.812Z" transform="translate(-2492.057 -281.099)" fill="#8a803d"/>
        <path id="Trazado_126666_-_Contorno" data-name="Trazado 126666 - Contorno" d="M2524.331,334.312h.006a10.2,10.2,0,0,1,7.062,2.833,1.612,1.612,0,0,1,.241,2.3,1.487,1.487,0,0,1-1.129.544,1.861,1.861,0,0,1-1.249-.558,6.947,6.947,0,0,0-3.683-1.866,8.245,8.245,0,0,0-1.331-.112,6.982,6.982,0,0,0-4.553,1.692c-.053.044-.108.095-.166.148s-.127.118-.2.177a1.907,1.907,0,0,1-1.218.514,1.581,1.581,0,0,1-1.51-1.573,1.861,1.861,0,0,1,.652-1.292,10.2,10.2,0,0,1,7.07-2.812Zm6.179,4.682a.507.507,0,0,0,.379-.2c.325-.37-.016-.764-.177-.917a9.271,9.271,0,0,0-12.774-.019.915.915,0,0,0-.336.592.489.489,0,0,0,.155.359.469.469,0,0,0,.356.185.983.983,0,0,0,.575-.28c.053-.045.106-.094.162-.145s.132-.122.206-.184a7.958,7.958,0,0,1,5.192-1.922,9.246,9.246,0,0,1,1.493.125,8.022,8.022,0,0,1,4.2,2.12A.918.918,0,0,0,2530.51,338.994Z" transform="translate(-2492.057 -281.099)" fill="#8a803d"/>
        <path id="Trazado_126667" data-name="Trazado 126667" d="M2539.441,319.169c1.422.438,2.67.807,3.907,1.211a1.047,1.047,0,0,1,.769,1.461,1.02,1.02,0,0,1-1.335.591c-1.854-.549-3.705-1.112-5.545-1.709a1.043,1.043,0,0,1-.458-1.789c1.229-1.28,2.491-2.527,3.76-3.766a1.049,1.049,0,0,1,1.509-.018,1.01,1.01,0,0,1-.006,1.5C2541.231,317.485,2540.374,318.272,2539.441,319.169Z" transform="translate(-2499.46 -273.449)" fill="#8a803d"/>
        <path id="Trazado_126667_-_Contorno" data-name="Trazado 126667 - Contorno" d="M2543.183,322.994a1.918,1.918,0,0,1-.544-.083c-2.158-.638-3.924-1.183-5.558-1.713a1.541,1.541,0,0,1-.664-2.611c1.294-1.348,2.633-2.666,3.771-3.778a1.606,1.606,0,0,1,1.121-.471,1.539,1.539,0,0,1,1.091.457,1.5,1.5,0,0,1,0,2.207c-.574.59-1.167,1.153-1.8,1.749l-.2.19.406.124c.935.285,1.818.554,2.693.84a1.74,1.74,0,0,1,1.092.917,1.589,1.589,0,0,1-1.412,2.173Zm-1.874-7.657a.6.6,0,0,0-.422.187c-1.133,1.106-2.464,2.416-3.749,3.755a.6.6,0,0,0-.189.557.619.619,0,0,0,.441.411c1.625.528,3.383,1.069,5.533,1.705a.926.926,0,0,0,.26.042c.147,0,.334-.041.478-.359a.488.488,0,0,0,.02-.409.766.766,0,0,0-.488-.371c-.866-.283-1.744-.55-2.674-.834l-1.225-.375-.811-.25.612-.588c.281-.27.555-.531.821-.783.621-.589,1.207-1.145,1.767-1.722a.514.514,0,0,0,.012-.8A.546.546,0,0,0,2541.31,315.337Z" transform="translate(-2499.46 -273.449)" fill="#8a803d"/>
        <path id="Trazado_126668" data-name="Trazado 126668" d="M2512.979,319.134c-.823-.805-1.6-1.549-2.354-2.308-.585-.587-.637-1.18-.175-1.658a1.1,1.1,0,0,1,1.663.131c1.165,1.148,2.325,2.3,3.47,3.47.8.821.6,1.672-.494,2.017-1.734.55-3.473,1.082-5.215,1.609a1.107,1.107,0,0,1-1.535-.668c-.176-.62.178-1.134.951-1.377,1.157-.364,2.314-.724,3.471-1.087A1.879,1.879,0,0,0,2512.979,319.134Z" transform="translate(-2488.684 -273.452)" fill="#8a803d"/>
        <path id="Trazado_126668_-_Contorno" data-name="Trazado 126668 - Contorno" d="M2509.366,322.974a1.5,1.5,0,0,1-1.508-1.112,1.608,1.608,0,0,1,1.282-1.991l1.832-.574,1.1-.346-.208-.2c-.553-.538-1.075-1.047-1.6-1.57a1.578,1.578,0,0,1-.18-2.359,1.479,1.479,0,0,1,1.078-.475,1.86,1.86,0,0,1,1.3.6c1.033,1.019,2.254,2.228,3.476,3.476a1.59,1.59,0,0,1-.7,2.844c-1.893.6-3.785,1.176-5.221,1.611A2.263,2.263,0,0,1,2509.366,322.974Zm1.8-7.629a.49.49,0,0,0-.359.171c-.115.119-.386.4.17.957.517.518,1.036,1.024,1.587,1.56l.763.745.467.457-.564.331c-.049.029-.084.051-.111.068a.886.886,0,0,1-.2.1l-.006,0-1.641.514-1.83.573c-.51.16-.718.417-.62.764a.508.508,0,0,0,.546.385,1.268,1.268,0,0,0,.363-.059c1.433-.433,3.321-1.007,5.208-1.607.349-.111.575-.282.623-.471a.866.866,0,0,0-.334-.72c-1.216-1.242-2.433-2.448-3.463-3.463A.913.913,0,0,0,2511.168,315.345Z" transform="translate(-2488.684 -273.452)" fill="#8a803d"/>
      </g>
    </g>
  </g>
</svg>
