<svg xmlns="http://www.w3.org/2000/svg" width="87" height="87" viewBox="0 0 87 87">
  <g id="Grupo_1098748" data-name="Grupo 1098748" transform="translate(-1244.333 -163)">
    <g id="Grupo_1098744" data-name="Grupo 1098744">
      <g id="Grupo_1098741" data-name="Grupo 1098741" transform="translate(41.013 -225.742)">
        <g id="Rect치ngulo_400898" data-name="Rect치ngulo 400898" transform="translate(1203.32 388.742)" fill="#fff" stroke="#fff" stroke-width="3" opacity="0.859">
          <rect width="87" height="87" rx="43.5" stroke="none"/>
          <rect x="1.5" y="1.5" width="84" height="84" rx="42" fill="none"/>
        </g>
        <g id="Rect치ngulo_400907" data-name="Rect치ngulo 400907" transform="translate(1203.32 388.742)" fill="none" stroke="#fff" stroke-width="3">
          <rect width="87" height="87" rx="43.5" stroke="none"/>
          <rect x="1.5" y="1.5" width="84" height="84" rx="42" fill="none"/>
        </g>
      </g>
    </g>
    <g id="Grupo_1098747" data-name="Grupo 1098747" transform="translate(1253.333 178)">
      <path id="Trazado_126564" data-name="Trazado 126564" d="M1868.842,1956.544a2.38,2.38,0,0,1,.617,2.929,16.775,16.775,0,0,1-11.318,10.811,3.069,3.069,0,0,0-.941.534,47.281,47.281,0,0,1-13.121,7.482c-1.138.407-2.315.71-3.483,1.028a8.73,8.73,0,0,1-4.918-.481,45.818,45.818,0,0,1-14.542-7.833,5.936,5.936,0,0,0-1.673-.878,16.779,16.779,0,0,1-10.959-11.089,2.167,2.167,0,0,1,.734-2.492c-.709-2.187-1.4-4.314-2.093-6.438a1.939,1.939,0,0,0-.274-.471,9.5,9.5,0,0,1-1.852-4.446c-.084-.811-.48-1.6-.482-2.4a18.6,18.6,0,0,1,.352-4.069c.248-1.109.673-2.174.861-3.322a2.829,2.829,0,0,1,1.978-2.2,1.74,1.74,0,0,0,1.031-.978c2.3-4.358,5.655-7.6,10.461-8.921,7.313-2.01,13.524.124,18.712,5.523.1.1.182.206.273.309.673.763,1.021.758,1.7-.022a18.15,18.15,0,0,1,12.008-6.4c7.237-.779,12.706,2.178,16.651,8.173a4.484,4.484,0,0,1,.383.65,3.5,3.5,0,0,0,1.859,1.915,3.162,3.162,0,0,1,1.722,3.063,2.052,2.052,0,0,0,.206.892,4.915,4.915,0,0,1,.59,2.777,7.562,7.562,0,0,0,.076.806,13.735,13.735,0,0,1,.019,2.853,12.767,12.767,0,0,1-2.33,6.007,2.384,2.384,0,0,0-.284.763C1870.16,1952.563,1869.515,1954.514,1868.842,1956.544Zm2.705-17.7c-.148.119-.241.178-.317.256a13.248,13.248,0,0,1-4.325,2.731.823.823,0,1,1-.722-1.477,10.042,10.042,0,0,0,.989-.472,34.451,34.451,0,0,0,3.111-2.211,1.665,1.665,0,0,0,.152-2.458c-.617-.736-1.333-.776-2.311-.157a23.469,23.469,0,0,1-5.841,2.845,3,3,0,0,1-4.037-1.917,7.032,7.032,0,0,1-.369-1.1,16.71,16.71,0,0,1-.36-5.252,3.465,3.465,0,0,0-.146-1.343,1.61,1.61,0,0,0-1.737-1.06,1.468,1.468,0,0,0-1.342,1.265,91.728,91.728,0,0,1-3.268,12.177,27.129,27.129,0,0,1-12.111,14.421,36.907,36.907,0,0,1-18.422,4.667,22.355,22.355,0,0,1-9.371-1.782,2.7,2.7,0,0,0-.887-.073,2.6,2.6,0,0,0-.044.94,15.072,15.072,0,0,0,11.005,10.059,31,31,0,0,0,14.089-.078,61.016,61.016,0,0,0,20.681-8.535,63.813,63.813,0,0,0,11.8-9.152c.835-.859,1.578-1.809,2.387-2.745-.144-.064-.169-.086-.186-.081-1,.293-1.412.232-1.578-.3-.252-.812.4-.983.927-1.262a4.874,4.874,0,0,0,2.617-3.705,6.507,6.507,0,0,1-.6.517c-.928.579-1.853,1.164-2.8,1.71a.788.788,0,0,1-1.221-.333c-.258-.545.019-.917.523-1.15a2.465,2.465,0,0,0,.437-.2,26.593,26.593,0,0,0,2.713-2.051A2.442,2.442,0,0,0,1871.548,1938.845Zm-61.4-5.714a22.437,22.437,0,0,0,6.153,3.2c1.087.289,1.559.072,2.015-.946a4.881,4.881,0,0,0,.266-.777,14.336,14.336,0,0,0,.323-5.044,3.508,3.508,0,0,1,2.815-3.954c1.875-.295,3.263.756,3.757,2.76.842,3.418,1.584,6.868,2.62,10.228a25.8,25.8,0,0,0,10.291,14.087.97.97,0,0,0,1.309.023,25.881,25.881,0,0,0,10.317-14.151c1.044-3.4,1.787-6.9,2.643-10.363a3.191,3.191,0,0,1,2.271-2.514,3.47,3.47,0,0,1,4.286,3.8,13.612,13.612,0,0,0-.064,2.534,18.269,18.269,0,0,0,.706,3.475c.308.953.88,1.143,1.854.862a23.738,23.738,0,0,0,6.326-3.193c-.588-.9-1.1-1.824-1.737-2.647-3.586-4.632-8.28-6.813-14.15-6.164A16.745,16.745,0,0,0,1841,1930.36a2.412,2.412,0,0,1-3.905.023c-.567-.628-1.144-1.254-1.768-1.824a16.12,16.12,0,0,0-19.272-2.028A16.435,16.435,0,0,0,1810.144,1933.131Zm-2.255,15.092c.409.541.684.936.989,1.3a48.322,48.322,0,0,0,9.623,8.347,1.4,1.4,0,0,0,.706.184,35.154,35.154,0,0,0,14.723-2.406c1.177-.459,2.315-1.018,3.385-1.493-1.6-1.469-3.216-2.792-4.642-4.3-3.7-3.91-5.754-8.706-7.086-13.84-.649-2.5-1.186-5.03-1.786-7.543a1.467,1.467,0,0,0-1.627-1.252,1.876,1.876,0,0,0-1.637,2.215,21.337,21.337,0,0,1,.073,2.605,9.077,9.077,0,0,1-1.232,4.791,2.692,2.692,0,0,1-3.047,1.187,21.6,21.6,0,0,1-6.428-3.017,1.517,1.517,0,0,0-2.208.165,1.715,1.715,0,0,0-.024,2.37,4.091,4.091,0,0,0,.888.854c1.063.661,2.151,1.286,3.247,1.893.492.274.766.635.527,1.165s-.7.576-1.22.347a13.325,13.325,0,0,1-4.31-2.758,1.107,1.107,0,0,0-.28-.149,2.721,2.721,0,0,0,.955,3.063,23.751,23.751,0,0,0,2.859,1.855c.431.262.668.593.477,1.071a.75.75,0,0,1-1.126.433c-.979-.534-1.924-1.134-2.875-1.718a7.046,7.046,0,0,1-.658-.545,4.922,4.922,0,0,0,2.932,3.84c.5.223.824.554.588,1.121a.8.8,0,0,1-1.194.415C1808.358,1948.379,1808.229,1948.343,1807.889,1948.223Zm16.388,22.935c.063.107.077.158.11.181a41.159,41.159,0,0,0,11.7,5.907,7.684,7.684,0,0,0,4.032.494,39.381,39.381,0,0,0,13.5-6.355,1.548,1.548,0,0,0,.212-.236c-.474.034-.88.072-1.286.092a43.211,43.211,0,0,1-12.837-1.435,2.615,2.615,0,0,0-1.259-.02A42.188,42.188,0,0,1,1824.276,1971.158Zm17.951-2.442a33.712,33.712,0,0,0,13.514.458c5.942-1.188,10.072-4.542,12.153-10.292a.655.655,0,1,0-.951-.9,19.767,19.767,0,0,1-5.872,1.561,4.368,4.368,0,0,0-2.084.742,69.112,69.112,0,0,1-12.693,6.885C1845,1967.685,1843.7,1968.159,1842.228,1968.716Zm-32.26-15.458-.114.077c.351.862.7,1.725,1.059,2.582a.555.555,0,0,0,.27.288c1.225.469,2.456.922,3.686,1.38l.051-.141Zm53.207,4.188.046.128c1.024-.372,2.049-.738,3.07-1.119.275-.1.675-.173.779-.38.449-.9.809-1.837,1.2-2.762l-.139-.054Z" transform="translate(-1804.536 -1922.559)" fill="#0f1f33" stroke="#082952" stroke-width="0.5"/>
    </g>
  </g>
</svg>
