<svg id="Grupo_1099309" data-name="Grupo 1099309" xmlns="http://www.w3.org/2000/svg" xmlns:xlink="http://www.w3.org/1999/xlink" width="239.91" height="177.471" viewBox="0 0 239.91 177.471">
  <defs>
    <clipPath id="clip-path">
      <rect id="Rectángulo_401460" data-name="Rectángulo 401460" width="239.91" height="177.471" fill="none"/>
    </clipPath>
  </defs>
  <g id="Grupo_1099308" data-name="Grupo 1099308" clip-path="url(#clip-path)">
    <path id="Trazado_875991" data-name="Trazado 875991" d="M6.589,126.982s-15.405-29.421.9-47.946,31.335-14.656,47.6-29.21S66.8,2.811,108.383.068c37.015-2.442,57.866,61.455,76.2,60.924,0,0,50.3-8.291,55.163,43.015,3.971,41.875-64.606,76.585-117.209,7.961C84.251,62.022,50.482,194.71,6.589,126.982" transform="translate(0 0)" fill="#95dbb3"/>
    <path id="Trazado_875992" data-name="Trazado 875992" d="M503.749,582.065c0,4.132-25.779,7.482-57.578,7.482s-57.578-3.35-57.578-7.482,25.779-7.482,57.578-7.482,57.578,3.35,57.578,7.482" transform="translate(-279.978 -413.983)" fill="#effaf4"/>
    <circle id="Elipse_11545" data-name="Elipse 11545" cx="2.93" cy="2.93" r="2.93" transform="translate(81.721 17.783)" fill="none" stroke="#0d367f" stroke-linecap="round" stroke-linejoin="round" stroke-width="1.926"/>
    <circle id="Elipse_11546" data-name="Elipse 11546" cx="2.93" cy="2.93" r="2.93" transform="translate(183.906 34.813)" fill="none" stroke="#0d367f" stroke-linecap="round" stroke-linejoin="round" stroke-width="1.926"/>
    <circle id="Elipse_11547" data-name="Elipse 11547" cx="2.93" cy="2.93" r="2.93" transform="translate(93.886 154.029)" fill="none" stroke="#0d367f" stroke-linecap="round" stroke-linejoin="round" stroke-width="1.926"/>
    <path id="Trazado_875993" data-name="Trazado 875993" d="M733.108,371.385l-1.8-.6a11.446,11.446,0,0,1-5.845,19.169l2.662.572a9.888,9.888,0,0,0,4.979-19.139" transform="translate(-522.694 -267.146)" fill="#234a7a"/>
    <path id="Trazado_875994" data-name="Trazado 875994" d="M575.053,455.577l.946.326a8.223,8.223,0,0,0,10.451-5.1l12.669-36.815a8.223,8.223,0,0,0-5.1-10.451l-.946-.326a8.223,8.223,0,0,0-10.451,5.1l-12.669,36.815a8.223,8.223,0,0,0,5.1,10.451" transform="translate(-410.324 -290.187)" fill="#234a7a"/>
    <path id="Trazado_875995" data-name="Trazado 875995" d="M548.167,325.132l38.45,7.611a16.442,16.442,0,0,0,8.279-31.824L556.663,286.9c-.814-.212-9.309,38.015-8.5,38.227" transform="translate(-394.911 -206.712)" fill="#406fbd"/>
    <path id="Trazado_875996" data-name="Trazado 875996" d="M595.753,399.45l-37.873-7.5a15.742,15.742,0,0,1-4.635,8.126l38.17,7.556a16.443,16.443,0,0,0,19.568-10.229,20.254,20.254,0,0,1-15.23,2.044" transform="translate(-398.609 -282.4)" fill="#2e62a8"/>
    <path id="Trazado_875997" data-name="Trazado 875997" d="M686.908,335.912l-2.988-1a19.033,19.033,0,0,1-9.719,31.875l4.427.952a16.442,16.442,0,1,0,8.279-31.824" transform="translate(-485.757 -241.3)" fill="#fff"/>
    <path id="Trazado_875998" data-name="Trazado 875998" d="M426.854,158.244l30.526,38.178c1.595,10.184-1.687,27.249-8.554,36.6l-46.508,19.536a1.573,1.573,0,0,1-2.232-1.8l23.943-92.029a1.573,1.573,0,0,1,2.826-.485" transform="translate(-288.221 -113.515)" fill="#406fbd"/>
    <path id="Trazado_875999" data-name="Trazado 875999" d="M367.786,197.684c-6.907,26.551-3.816,50.336,6.906,53.125s25.013-16.473,31.921-43.024,3.816-50.336-6.906-53.125-25.013,16.473-31.921,43.024" transform="translate(-262.334 -111.238)" fill="#5989d9"/>
    <path id="Trazado_876000" data-name="Trazado 876000" d="M375.505,214.222c-6.34,24.37-3.925,46.091,5.394,48.516S402.913,247.371,409.253,223s3.925-46.091-5.394-48.515-22.014,15.366-28.354,39.736" transform="translate(-268.001 -125.557)" fill="#345f96"/>
    <path id="Trazado_876001" data-name="Trazado 876001" d="M453.394,276.494a14.26,14.26,0,0,0-6.3-3.842c-6.245-2.159-13.935,5.157-16.948,15.607s-.061,19.673,6.038,22.234c3.279,1.377,5.835,1.486,7.889.693a109.292,109.292,0,0,0,6.666-19.48,113.8,113.8,0,0,0,2.659-15.213" transform="translate(-309.056 -196.172)" fill="#1d3e66"/>
    <path id="Trazado_876002" data-name="Trazado 876002" d="M455.858,307.147c-1.377,5.913-4.823,10.509-7.7,10.265s-4.089-5.235-2.713-11.148,4.823-10.509,7.7-10.265,4.089,5.235,2.713,11.148" transform="translate(-320.533 -213.259)" fill="#295891"/>
    <path id="Trazado_876003" data-name="Trazado 876003" d="M574.6,330.34s12.987-22.1,7.864-37.718" transform="translate(-413.996 -210.832)" fill="none" stroke="#27427a" stroke-linecap="round" stroke-linejoin="round" stroke-width="1.998"/>
    <path id="Trazado_876004" data-name="Trazado 876004" d="M423.486,174.486c-7.607-1.979-17.463,9.513-24.277,27.058,7.1-6.078,17.852-8.984,32.948,2.353,1.218-15.725-1.907-27.652-8.671-29.411" transform="translate(-287.628 -125.557)" fill="#234a7a"/>
    <path id="Trazado_876005" data-name="Trazado 876005" d="M506.251,297.759c8.138-7.741,18.3-40.921,14.169-61.5l5.927,7.412c2.469,3.088.72,38.044-11.019,50.27Z" transform="translate(-364.75 -170.226)" fill="#fff"/>
    <path id="Trazado_876006" data-name="Trazado 876006" d="M686.426,414.21A19.11,19.11,0,0,1,675.45,421l4.255.915.149.03a16.443,16.443,0,0,0,19.568-10.229,20.26,20.26,0,0,1-13,2.491" transform="translate(-486.657 -296.641)" fill="#9bbdde"/>
    <path id="Trazado_876007" data-name="Trazado 876007" d="M534.577,397.115a49.533,49.533,0,0,0,3.977-9.361l-6.858-1.343a90.409,90.409,0,0,1-3.788,9.928Z" transform="translate(-380.354 -278.407)" fill="#9bbdde"/>
    <path id="Trazado_876008" data-name="Trazado 876008" d="M350.584,104.63l12.93,19.656,2.918-14.034L378.9,132.42,368.006,97.9l-3.653,8.993-6.066-15.252Z" transform="translate(-252.594 -66.028)" fill="#e6d567"/>
    <path id="Trazado_876009" data-name="Trazado 876009" d="M304.042,249.245l19.9,9.346-2.963-11.406,20.488,11.364-24.015-21.014.248,8-11.771-8.8Z" transform="translate(-219.06 -170.571)" fill="#e6d567"/>
    <path id="Trazado_876010" data-name="Trazado 876010" d="M291,382.653l20.531-7.868-10.275-5.77,22.392-6.891-31.793,2.746,5.941,5.368-14.5,2.388Z" transform="translate(-204.114 -260.908)" fill="#e6d567"/>
    <path id="Trazado_876011" data-name="Trazado 876011" d="M197.5,218.75l-.138-2.928a2.481,2.481,0,0,0-.624-1.549l-1.517-1.676a1.066,1.066,0,0,0-1.781.354l.366,3.664a3.68,3.68,0,0,0,1.071,2.206l1.013,1.016Z" transform="translate(-139.372 -152.925)" fill="#c95836"/>
    <path id="Trazado_876012" data-name="Trazado 876012" d="M217.265,243.772c1.549-2.121,1.517-4.84-.916-7.075l-13.72-8.495-.4,3.137,9.263,7.852Z" transform="translate(-145.704 -164.418)" fill="#c95836" fill-rule="evenodd"/>
    <path id="Trazado_876013" data-name="Trazado 876013" d="M214.869,237.608l-2.606,3.485,1.625,2.684L215,250.666l1.452,4.543S231,254.845,228,247.917c-1.761-4.062-13.131-10.309-13.131-10.309" transform="translate(-152.934 -171.195)" fill="#d2e6fa"/>
    <path id="Trazado_876014" data-name="Trazado 876014" d="M169.411,219.348s-.33,2.707,1.636,3.252,3.388-5.15,3.388-5.15Z" transform="translate(-122.045 -156.671)" fill="#572a22" fill-rule="evenodd"/>
    <path id="Trazado_876015" data-name="Trazado 876015" d="M175.419,226.358s-.194,2.935-.354,5.366a1.746,1.746,0,0,1-1.131,1.481,2.25,2.25,0,0,1-2.035-.191l-.569-.366a2.264,2.264,0,0,1-1.084-2.3c.416-2.242,1.173-6.327,1.173-6.327Z" transform="translate(-122.636 -161.407)" fill="#c95836" fill-rule="evenodd"/>
    <path id="Trazado_876016" data-name="Trazado 876016" d="M155.482,622.96c0,1.076-11.7,1.947-26.142,1.947s-26.142-.872-26.142-1.947,11.7-1.947,26.142-1.947,26.142.872,26.142,1.947" transform="translate(-74.354 -447.436)" fill="#d2e6fa" fill-rule="evenodd"/>
    <path id="Trazado_876017" data-name="Trazado 876017" d="M128.255,446.186s-2.841-23.655,2-33.014l-1.549-32.089,14.926,1.031-11.209,64.3Z" transform="translate(-91.81 -274.567)" fill="#e3633d" fill-rule="evenodd"/>
    <path id="Trazado_876018" data-name="Trazado 876018" d="M132.011,610.679l2.085,2.162a19.734,19.734,0,0,0,3.722,1.573c.3.664-.333,1.013-.862,1.1l-9.391-.2s-2.157-.451-.109-4.634c1.688.755,4.071,1.3,4.555,0" transform="translate(-91.195 -439.99)" fill="#572a22" fill-rule="evenodd"/>
    <path id="Trazado_876019" data-name="Trazado 876019" d="M135.089,397.475,131.35,424.65,126,451.893H115.051a39.011,39.011,0,0,0,1.085-6.24c-.077-1.5-.054-15.759,3.475-22.318l.325-27.894Z" transform="translate(-82.893 -284.913)" fill="#12263f" fill-rule="evenodd"/>
    <path id="Trazado_876020" data-name="Trazado 876020" d="M195.581,443s-10.727-21.547-9.379-32.162L173.81,380.8l14.333-4.241,10.93,65.415Z" transform="translate(-125.229 -271.308)" fill="#e3633d" fill-rule="evenodd"/>
    <path id="Trazado_876021" data-name="Trazado 876021" d="M250.438,608.057l2.277,2.056a19.31,19.31,0,0,0,3.75,1.468c.311.662-.313,1.036-.84,1.142l-9.39.112s-2.164-.385-.2-4.685c1.7.708,3.942,1.24,4.4-.093" transform="translate(-176.674 -438.101)" fill="#572a22" fill-rule="evenodd"/>
    <path id="Trazado_876022" data-name="Trazado 876022" d="M192.159,383.1l5.782,30.026,4.273,27.836-10.253,3.83a40.205,40.205,0,0,0-1.111-6.326c-.584-1.406-5.424-15-4.354-22.484l-9.941-27.918Z" transform="translate(-127.207 -276.022)" fill="#12263f" fill-rule="evenodd"/>
    <path id="Trazado_876023" data-name="Trazado 876023" d="M137.607,333.307l20.442,1.557c3.325,1.221,2,20.391,2,20.391l-13.441.623c-6.245-.13-13.769,4.79-14.546-5.615-.888-11.894,5.549-16.957,5.549-16.957" transform="translate(-95.086 -240.146)" fill="#12263f" fill-rule="evenodd"/>
    <path id="Trazado_876024" data-name="Trazado 876024" d="M132.247,372.386s23.505,1.073,27.863-6.239l-27.5-2.7s-.747,6.507-.364,8.944" transform="translate(-95.204 -261.858)" fill="#2e4f8a" fill-rule="evenodd"/>
    <path id="Trazado_876025" data-name="Trazado 876025" d="M148.4,245.193l-2.569-.43-6.146-.539-9.925,3.127c-2.66,1.252-1.893,3.736-.941,6.528l-2.388,3.674c-.344,7.727.725,16.3.974,23.89,11.011,4.336,26.169,3.62,29.769-1.4-2.945-18.131-1.654-18.513-3.039-29.528-.354-2.82-2.933-4.854-5.736-5.323" transform="translate(-91.042 -175.962)" fill="#d2e6fa" fill-rule="evenodd"/>
    <path id="Trazado_876026" data-name="Trazado 876026" d="M174.891,243.159s2.34,6.136-1.844,6.322-6.348-6.187-6.348-6.187l3.079-1.3Z" transform="translate(-120.106 -174.357)" fill="#c95836"/>
    <path id="Trazado_876027" data-name="Trazado 876027" d="M187.926,216.218s2.37-1.562.546-4.319-3.463,2.262-3.4,2.347,2.857,1.972,2.857,1.972" transform="translate(-133.341 -152.076)" fill="#572a22" fill-rule="evenodd"/>
    <path id="Trazado_876028" data-name="Trazado 876028" d="M175.593,214.7a1.56,1.56,0,0,1,1.638-1.467l2.963.172a1.645,1.645,0,0,1,1.445,1.647,16.863,16.863,0,0,1-.576,4.563,1.89,1.89,0,0,1-1.778,1.524c-.909-.053-3.578-1.086-3.738-2.742a22.679,22.679,0,0,1,.046-3.7" transform="translate(-126.437 -153.63)" fill="#c95836" fill-rule="evenodd"/>
    <path id="Trazado_876029" data-name="Trazado 876029" d="M167.543,212.238s.273-3.318,1.794-4.252c2.044-1.255,4.506-1.645,6.509.988,0,0,1.181,1.135-3.35.734-.575-.051-.37,2.806-1.131,2.88a11.67,11.67,0,0,1-3.822-.35" transform="translate(-120.714 -149.152)" fill="#572a22" fill-rule="evenodd"/>
    <path id="Trazado_876030" data-name="Trazado 876030" d="M171.562,226.467a1.169,1.169,0,0,0,1.366.923,1.2,1.2,0,0,0,.65-1.532,1.168,1.168,0,0,0-1.365-.923,1.2,1.2,0,0,0-.65,1.532" transform="translate(-123.565 -162.037)" fill="#c95836" fill-rule="evenodd"/>
    <path id="Trazado_876031" data-name="Trazado 876031" d="M161.348,221.35l.347-2.911a2.482,2.482,0,0,1,.732-1.5l1.632-1.564a1.066,1.066,0,0,1,1.751.48l-.626,3.628a3.682,3.682,0,0,1-1.226,2.125l-1.083.941Z" transform="translate(-116.25 -154.965)" fill="#c95836"/>
    <path id="Trazado_876032" data-name="Trazado 876032" d="M107.776,245.023c-1.394-2.225-1.168-4.935,1.418-6.992l14.29-7.5.177,3.158-9.8,7.173Z" transform="translate(-77.041 -166.098)" fill="#c95836" fill-rule="evenodd"/>
    <path id="Trazado_876033" data-name="Trazado 876033" d="M115.662,240.195l-3.416-3.238s-11.463,5.873-13.205,8.14-1.488,8.642,5.237,9.093c1.974.132,10.614-.821,10.614-.821s-3.2-8.105-3.18-8.444,3.95-4.731,3.95-4.731" transform="translate(-70.701 -170.726)" fill="#d2e6fa" fill-rule="evenodd"/>
    <path id="Trazado_876034" data-name="Trazado 876034" d="M220.736,276.879a15.421,15.421,0,0,0-2.407-4.632" transform="translate(-157.305 -196.152)" fill="none" stroke="#7f99c9" stroke-linecap="round" stroke-linejoin="round" stroke-width="2.292"/>
    <path id="Trazado_876035" data-name="Trazado 876035" d="M136.463,266.565c.25-.008,5.018-5.911,5.018-5.911" transform="translate(-98.321 -187.799)" fill="none" stroke="#7f99c9" stroke-linecap="round" stroke-linejoin="round" stroke-width="2.292"/>
    <path id="Trazado_876036" data-name="Trazado 876036" d="M183.6,239.957l-.115,1.012-1.754-1.561Z" transform="translate(-130.938 -172.492)" fill="#633c1d" fill-rule="evenodd"/>
    <path id="Trazado_876037" data-name="Trazado 876037" d="M172.5,228.416a4.916,4.916,0,0,0,.979-3.014" transform="translate(-124.287 -162.401)" fill="none" stroke="#753422" stroke-linecap="round" stroke-linejoin="round" stroke-width="0.906"/>
    <path id="Trazado_876038" data-name="Trazado 876038" d="M183.83,411.074l.651-3.005,4.558-.9" transform="translate(-132.449 -293.361)" fill="none" stroke="#3d5f94" stroke-linecap="round" stroke-linejoin="round" stroke-width="1.812"/>
    <line id="Línea_586" data-name="Línea 586" x2="1.911" y2="2.197" transform="translate(38.431 53.229)" fill="none" stroke="#0d367f" stroke-linecap="round" stroke-linejoin="round" stroke-width="1.815"/>
    <line id="Línea_587" data-name="Línea 587" x1="1.014" y2="2.729" transform="translate(59.323 51.053)" fill="none" stroke="#0d367f" stroke-linecap="round" stroke-linejoin="round" stroke-width="1.815"/>
    <line id="Línea_588" data-name="Línea 588" x2="0.192" y2="2.905" transform="translate(50.086 47.526)" fill="none" stroke="#0d367f" stroke-linecap="round" stroke-linejoin="round" stroke-width="1.815"/>
  </g>
</svg>
