<svg xmlns="http://www.w3.org/2000/svg" xmlns:xlink="http://www.w3.org/1999/xlink" width="400" height="214.096" viewBox="0 0 400 214.096">
  <defs>
    <clipPath id="clip-path">
      <rect id="Rectángulo_401171" data-name="Rectángulo 401171" width="177.722" height="173.994" fill="none"/>
    </clipPath>
  </defs>
  <g id="Grupo_1100233" data-name="Grupo 1100233" transform="translate(-1020 -401)">
    <rect id="Rectángulo_401169" data-name="Rectángulo 401169" width="400" height="214.096" transform="translate(1020 401)" fill="#daf2e4"/>
    <g id="Grupo_1098936" data-name="Grupo 1098936" transform="translate(1131 421.051)">
      <g id="Grupo_1098935" data-name="Grupo 1098935" clip-path="url(#clip-path)">
        <path id="Trazado_873935" data-name="Trazado 873935" d="M141.837,575.877c0,2.682-24.561,4.856-54.859,4.856s-54.859-2.174-54.859-4.856,24.561-4.856,54.859-4.856,54.859,2.174,54.859,4.856" transform="translate(-22.878 -406.739)" fill="#95dbb3" fill-rule="evenodd"/>
        <path id="Trazado_873936" data-name="Trazado 873936" d="M236.583,556.224c0,4.211-30.283,7.624-67.639,7.624s-67.639-3.413-67.639-7.624,30.283-7.624,67.639-7.624,67.639,3.413,67.639,7.624" transform="translate(-72.159 -390.768)" fill="#95dbb3" fill-rule="evenodd"/>
        <path id="Trazado_873937" data-name="Trazado 873937" d="M144.868,152.342S116.526,172.2,95.4,153.9,61.106,115.9,33.493,111c-39.893-7.07-48.869-64.854-.842-94.909s97.356-11.108,114,1.416c31.514,23.716,51.03,95.717-1.781,134.831" transform="translate(0 0)" fill="#95dbb3" fill-rule="evenodd"/>
        <path id="Trazado_873938" data-name="Trazado 873938" d="M134.749,208.262l51.261.35c-1.868-13.779-2.686-18.683-2.195-33.052,1.024-19.566,34.9-36.363,25.641-76.173-7.009-30.136-38.021-43.1-73.49-33.605-16.084,4.307-28.193,13.626-31.605,29.923-.072.346-.472,4.3-.541,4.658-.825,4.254,1.414,18.077-.66,21.4-5.031,8.067-9.084,11.826-10.48,12.78-3.722,2.546-3.852,8.911,2.244,11.2,4.759,1.784,4.194,1.006,4.216,4.585a7.874,7.874,0,0,1-1.208,4.446c-.835,1.554-1.173,1.8-.395,3.536.8,1.779,3.491,2.934,3.491,2.934s-3.086,2.176.071,6.564c.7.967,2.061,1.487,2.243,2.257.97,4.105.673,3.937.656,5.48-.022,1.978.274,9.785,10.034,11.477,1.822.316,9.534.262,17.267-.162,1.366,9.962,1.247,12.93,3.449,21.4" transform="translate(-64.162 -44.674)" fill="#fcf9e8"/>
        <path id="Trazado_873939" data-name="Trazado 873939" d="M274.809,197.6a28.378,28.378,0,1,1-28.378-28.378A28.378,28.378,0,0,1,274.809,197.6" transform="translate(-155.319 -120.535)" fill="#082952" fill-rule="evenodd"/>
        <circle id="Elipse_11473" data-name="Elipse 11473" cx="3.174" cy="3.174" r="3.174" transform="matrix(0.987, -0.16, 0.16, 0.987, 154.562, 21.45)" fill="none" stroke="#0d367f" stroke-linecap="round" stroke-linejoin="round" stroke-width="2.027"/>
        <circle id="Elipse_11474" data-name="Elipse 11474" cx="3.174" cy="3.174" r="3.174" transform="translate(6.914 136.524)" fill="none" stroke="#0d367f" stroke-linecap="round" stroke-linejoin="round" stroke-width="2.027"/>
        <circle id="Elipse_11475" data-name="Elipse 11475" cx="3.174" cy="3.174" r="3.174" transform="translate(10.556 5.865)" fill="none" stroke="#0d367f" stroke-linecap="round" stroke-linejoin="round" stroke-width="2.027"/>
        <path id="Trazado_873940" data-name="Trazado 873940" d="M233.358,493.432l10.806-.317-9.341,10.743Z" transform="translate(-166.221 -351.247)" fill="#e6d567"/>
        <path id="Trazado_873941" data-name="Trazado 873941" d="M281.728,132.751c0-12-10.59-21.736-23.653-21.736s-23.653,9.732-23.653,21.736a21,21,0,0,0,8.192,16.451,20.371,20.371,0,0,1,4.572,9.418,7.548,7.548,0,0,0,4.942,5.573,16.931,16.931,0,0,0,11.757.16,7.412,7.412,0,0,0,4.634-5.458,19.589,19.589,0,0,1,4.543-9.236c.081-.089.154-.176.22-.261a21.036,21.036,0,0,0,8.445-16.647" transform="translate(-166.98 -79.076)" fill="#e6d567"/>
        <path id="Trazado_873942" data-name="Trazado 873942" d="M299.566,314.219h-7.188a5.121,5.121,0,0,1-5.106-5.106v-7.9a1.6,1.6,0,0,1,1.59-1.59h14.219a1.6,1.6,0,0,1,1.59,1.59v7.9a5.121,5.121,0,0,1-5.106,5.106" transform="translate(-204.624 -213.423)" fill="#f6f0ca"/>
        <path id="Trazado_873943" data-name="Trazado 873943" d="M294.057,213.142c.14-.421,0-17.961,0-17.961s-.211-9.893,5.262-8.279c5.127,1.512-.291,10.069-6.914,10.592a13.707,13.707,0,0,1-1.634,0c-6.653-.472-12.122-9.08-6.978-10.6,5.473-1.614,5.262,8.279,5.262,8.279s-.14,17.54,0,17.961" transform="translate(-200.698 -133.004)" fill="none" stroke="#082952" stroke-linecap="round" stroke-linejoin="round" stroke-width="3.283"/>
        <path id="Trazado_873944" data-name="Trazado 873944" d="M294.668,295.993H279.124a4.436,4.436,0,0,1,0-8.872h15.543a4.436,4.436,0,0,1,0,8.872" transform="translate(-195.661 -204.517)" fill="#f6f0ca"/>
        <path id="Trazado_873945" data-name="Trazado 873945" d="M321.461,317.53v3.808l-10.618-3.684Z" transform="translate(-221.413 -226.177)" fill="#f6f0ca"/>
        <path id="Trazado_873946" data-name="Trazado 873946" d="M495.842,304.27h0a.831.831,0,0,0,.786-.981L483.112,191.5a1.071,1.071,0,0,0-1.02-.953.831.831,0,0,0-.786.981l13.516,111.789a1.071,1.071,0,0,0,1.02.953" transform="translate(-342.829 -135.726)" fill="#082952"/>
        <path id="Trazado_873947" data-name="Trazado 873947" d="M435.818,305.212h0a.832.832,0,0,0,.786-.981L423.088,192.441a1.071,1.071,0,0,0-1.02-.953.831.831,0,0,0-.786.981L434.8,304.258a1.071,1.071,0,0,0,1.02.953" transform="translate(-300.074 -136.397)" fill="#082952"/>
        <path id="Trazado_873948" data-name="Trazado 873948" d="M428.892,238.358l15.91-.25a.987.987,0,0,0,.927-.993.916.916,0,0,0-.9-.965l-15.91.25a.986.986,0,0,0-.927.993.916.916,0,0,0,.9.965" transform="translate(-304.861 -168.21)" fill="#1a3461"/>
        <path id="Trazado_873949" data-name="Trazado 873949" d="M434.516,282.774l15.91-.25a.986.986,0,0,0,.927-.993.915.915,0,0,0-.9-.965l-15.91.25a.986.986,0,0,0-.927.993.916.916,0,0,0,.9.965" transform="translate(-308.867 -199.847)" fill="#082952"/>
        <path id="Trazado_873950" data-name="Trazado 873950" d="M440.473,322.151l15.91-.25a.986.986,0,0,0,.927-.993.915.915,0,0,0-.9-.965l-15.91.25a.986.986,0,0,0-.927.993.916.916,0,0,0,.9.965" transform="translate(-313.11 -227.896)" fill="#082952"/>
        <path id="Trazado_873951" data-name="Trazado 873951" d="M443.324,362.708l15.91-.25a.986.986,0,0,0,.927-.993.916.916,0,0,0-.9-.965l-15.91.25a.986.986,0,0,0-.927.993.916.916,0,0,0,.9.965" transform="translate(-315.141 -256.784)" fill="#082952"/>
        <path id="Trazado_873952" data-name="Trazado 873952" d="M449,403.681l15.91-.25a.986.986,0,0,0,.927-.993.915.915,0,0,0-.9-.965l-15.91.25a.986.986,0,0,0-.927.993.916.916,0,0,0,.9.965" transform="translate(-319.183 -285.97)" fill="#082952"/>
        <path id="Trazado_873953" data-name="Trazado 873953" d="M453.493,444.915l15.91-.25a.986.986,0,0,0,.927-.993.915.915,0,0,0-.9-.965l-15.91.25a.986.986,0,0,0-.927.993.916.916,0,0,0,.9.965" transform="translate(-322.384 -315.341)" fill="#082952"/>
        <path id="Trazado_873954" data-name="Trazado 873954" d="M457.041,485.649l15.91-.25a.986.986,0,0,0,.927-.993.915.915,0,0,0-.9-.965l-15.91.25a.986.986,0,0,0-.927.993.916.916,0,0,0,.9.965" transform="translate(-324.912 -344.355)" fill="#082952"/>
        <path id="Trazado_873955" data-name="Trazado 873955" d="M463.766,527.979l15.91-.25a.987.987,0,0,0,.927-.993.916.916,0,0,0-.9-.965l-15.91.25a.986.986,0,0,0-.927.993.916.916,0,0,0,.9.965" transform="translate(-329.702 -374.507)" fill="#082952"/>
        <path id="Trazado_873956" data-name="Trazado 873956" d="M498.153,246.923c-3.427-3.054-4.591-4.381-7.962-7.527l-1.647,1.331c3.807,7.271,4.939,9.972,8.612,11.518,3.778-1.912,1.629-4.442,1-5.322" transform="translate(-347.991 -170.522)" fill="#c95836"/>
        <path id="Trazado_873957" data-name="Trazado 873957" d="M482.226,234.323l-1.485-1.777a1.933,1.933,0,0,0-1.168-.668l-1.849-.306a.935.935,0,0,0-1.07,1.1l1.993,2.128a2.913,2.913,0,0,0,1.791.86l1.186.14Z" transform="translate(-339.508 -164.941)" fill="#c95836"/>
        <path id="Trazado_873958" data-name="Trazado 873958" d="M475.015,271.378l10.705-.511a.684.684,0,1,0-.066-1.366l-10.7.511a.684.684,0,1,0,.065,1.366" transform="translate(-337.843 -191.965)" fill="#d1d1d1" fill-rule="evenodd"/>
        <path id="Trazado_873959" data-name="Trazado 873959" d="M491.818,300.644l10.705-.511a.684.684,0,0,0-.065-1.366l-10.705.511a.684.684,0,1,0,.065,1.366" transform="translate(-349.812 -212.811)" fill="#d1d1d1" fill-rule="evenodd"/>
        <path id="Trazado_873960" data-name="Trazado 873960" d="M542.69,393.749s.377-19-4.041-25.545l-2.467-18.923-10.126-3.235,14.041,48.4Z" transform="translate(-374.71 -246.489)" fill="#e3633d" fill-rule="evenodd"/>
        <path id="Trazado_873961" data-name="Trazado 873961" d="M567.363,508.093l-1.159,2.756a17.381,17.381,0,0,1-1.9,2.685c.035.595.572.575.95.413l6.111-4.112s1.262-1.231-1.541-3.318c-.848,1.247-1.688,2.29-2.459,1.576" transform="translate(-401.953 -360.793)" fill="#212526" fill-rule="evenodd"/>
        <path id="Trazado_873962" data-name="Trazado 873962" d="M524.736,347.118l4.9,20.691,5.745,20.566,8.374-1.785a29.2,29.2,0,0,1-1.208-4.734c-.033-1.2-.912-12.411-4.009-17l-3.062-23.055Z" transform="translate(-373.77 -243.469)" fill="#12263f" fill-rule="evenodd"/>
        <path id="Trazado_873963" data-name="Trazado 873963" d="M502.2,389.767s3.617-18.7.385-25.874l3.106-25.28-11.724,1.368,5.56,50.06Z" transform="translate(-351.855 -241.195)" fill="#e3633d" fill-rule="evenodd"/>
        <path id="Trazado_873964" data-name="Trazado 873964" d="M508.34,210.86l1.063,4.129a1.421,1.421,0,0,0,1,1.021,1.4,1.4,0,0,0,1.371-.382l.336-.35a1.837,1.837,0,0,0,.4-1.911l-1.772-4.782Z" transform="translate(-362.091 -148.575)" fill="#c95836" fill-rule="evenodd"/>
        <path id="Trazado_873965" data-name="Trazado 873965" d="M508.88,219.586l.452,1.328.977-1.5Z" transform="translate(-362.476 -156.289)" fill="#873b24" fill-rule="evenodd"/>
        <path id="Trazado_873966" data-name="Trazado 873966" d="M507.391,201.832a1.237,1.237,0,0,0-.631-1.626l-2.157-.942a1.3,1.3,0,0,0-1.613.645,13.384,13.384,0,0,0-1.231,3.433,1.5,1.5,0,0,0,.71,1.716c.661.289,2.919.517,3.628-.6a17.971,17.971,0,0,0,1.295-2.63" transform="translate(-357.374 -141.869)" fill="#c95836" fill-rule="evenodd"/>
        <path id="Trazado_873967" data-name="Trazado 873967" d="M510.45,203.074a3.1,3.1,0,0,0,3.094-3.645,3.153,3.153,0,0,0-.346-1.023c-.994-1.621-2.6-2.781-4.957-1.639a8.814,8.814,0,0,0,2.209,6.307" transform="translate(-362.001 -139.831)" fill="#212526" fill-rule="evenodd"/>
        <path id="Trazado_873968" data-name="Trazado 873968" d="M509.978,210.351a.926.926,0,0,1-1.3.162.948.948,0,0,1,.091-1.317.926.926,0,0,1,1.3-.162.948.948,0,0,1-.091,1.317" transform="translate(-362.174 -148.754)" fill="#c95836" fill-rule="evenodd"/>
        <path id="Trazado_873969" data-name="Trazado 873969" d="M507.318,294.587l-15.915,1.98c-2.553,1.078-.8,16.008-.8,16.008l10.526-.015c5.005-.318,9.819.553,9.8-4.533-.031-9.33-3.614-13.44-3.614-13.44" transform="translate(-349.039 -209.835)" fill="#12263f" fill-rule="evenodd"/>
        <path id="Trazado_873970" data-name="Trazado 873970" d="M490.171,227l5.75-1.382,1.607-.129,4.341.953c2.168.767,4.218,12.849,4.218,12.849,2.21,5.057,2.946,10.23,3.32,15.662-8.232,4.234-19.574,3.906-22.768.279-.839-10.862.172-20.773,3.533-28.232" transform="translate(-346.434 -160.616)" fill="#fcf9e8" fill-rule="evenodd"/>
        <path id="Trazado_873971" data-name="Trazado 873971" d="M499.488,514.5,497,516.182a17.569,17.569,0,0,1-3.066,1.223c-.3.518.161.793.566.862l7.366-.138s1.732-.349.541-3.623c-1.395.587-2.67,1.008-2.921-.01" transform="translate(-351.763 -366.476)" fill="#212526" fill-rule="evenodd"/>
        <line id="Línea_565" data-name="Línea 565" x1="3.726" y2="0.301" transform="translate(153.809 102.473)" fill="none" stroke="#0d367f" stroke-linecap="round" stroke-linejoin="round" stroke-width="2"/>
        <path id="Trazado_873972" data-name="Trazado 873972" d="M491.534,352.1l1.431,22.664,2.575,21.213,8.552-.409a29.24,29.24,0,0,1-.479-4.864c.149-1.184.973-12.388-1.4-17.412l1.169-20.975Z" transform="translate(-350.12 -250.801)" fill="#12263f" fill-rule="evenodd"/>
        <path id="Trazado_873973" data-name="Trazado 873973" d="M459.028,248.411c-3.427-3.054-4.59-4.381-7.961-7.527l-1.647,1.331c3.807,7.271,4.939,9.972,8.612,11.518,3.778-1.912,1.629-4.442,1-5.322" transform="translate(-320.122 -171.582)" fill="#c95836"/>
        <path id="Trazado_873974" data-name="Trazado 873974" d="M443.1,235.811l-1.485-1.777a1.934,1.934,0,0,0-1.168-.667l-1.849-.306a.935.935,0,0,0-1.07,1.1l1.993,2.128a2.912,2.912,0,0,0,1.791.86l1.186.139Z" transform="translate(-311.639 -166)" fill="#c95836"/>
        <path id="Trazado_873975" data-name="Trazado 873975" d="M482.752,234.132a1.714,1.714,0,0,0-3.177-.5c-2.586,4.639-6.312,11.794-5.25,12.749l.684.65a1.883,1.883,0,0,0,2.937-.441l4.487-7.958.909-1.527Z" transform="translate(-337.731 -165.789)" fill="#c95836" fill-rule="evenodd"/>
        <path id="Trazado_873976" data-name="Trazado 873976" d="M532.535,208.974a1.488,1.488,0,0,1,.138-1.206c1.649-3.009-2.795-4.409-4.135-5.148-1.4-.771-.188-3.186-3.032-3.744s-3.543.986-3.679.96a13.137,13.137,0,0,0,.676,2.6s1.416.262,1.745,2.989-.209,4.237,1.75,6.16,8.275-1.706,8.275-1.706a1.432,1.432,0,0,1-1.737-.9" transform="translate(-371.677 -141.573)" fill="#212526" fill-rule="evenodd"/>
        <path id="Trazado_873977" data-name="Trazado 873977" d="M488.453,233.9l-5.074,10.006-4.879-5.734s3.331-7.222,6.074-7.43Z" transform="translate(-340.836 -164.358)" fill="#fcf9e8" fill-rule="evenodd"/>
        <line id="Línea_566" data-name="Línea 566" x1="0.107" y2="8.279" transform="translate(152.92 103.568)" fill="none" stroke="#0d367f" stroke-linecap="round" stroke-linejoin="round" stroke-width="2"/>
        <line id="Línea_567" data-name="Línea 567" x1="3.135" y2="6.183" transform="translate(143.458 71.56)" fill="none" stroke="#ded491" stroke-linecap="round" stroke-linejoin="round" stroke-width="1.78"/>
        <path id="Trazado_873978" data-name="Trazado 873978" d="M299.42,540.961l-42.957-.3.125-18.115,42.957.3c-4.177-.029-4.3,18.086-.125,18.115" transform="translate(-182.679 -372.212)" fill="#f1ebe0"/>
        <path id="Trazado_873979" data-name="Trazado 873979" d="M299.656,519.5l-42.773-.3.015-2.2,42.773.3a1.1,1.1,0,1,1-.015,2.2" transform="translate(-182.978 -368.263)" fill="#082952"/>
        <path id="Trazado_873980" data-name="Trazado 873980" d="M299.124,584.257l-42.692-.295.016-2.365,42.692.295a1.182,1.182,0,0,1-.016,2.364" transform="translate(-182.657 -414.273)" fill="#082952"/>
        <path id="Trazado_873981" data-name="Trazado 873981" d="M184.821,516.327l-44.4-.307c-.951-.006-1.1,20.941-.145,20.948l44.4.306c-5.036-.035-4.892-20.982.145-20.948" transform="translate(-99.459 -367.562)" fill="#082952"/>
        <path id="Trazado_873982" data-name="Trazado 873982" d="M145.373,516.156l-50.2-.347a6.654,6.654,0,0,0-6.7,6.608l-.053,7.641a6.654,6.654,0,0,0,6.607,6.7l50.2.346c-5.036-.035-4.891-20.983.145-20.948" transform="translate(-62.984 -367.412)" fill="#082952"/>
        <line id="Línea_568" data-name="Línea 568" x2="26.931" y2="0.186" transform="translate(85.329 153.472)" fill="none" stroke="#a9c4de" stroke-linecap="round" stroke-linejoin="round" stroke-width="1"/>
        <line id="Línea_569" data-name="Línea 569" x2="26.931" y2="0.186" transform="translate(85.3 157.69)" fill="none" stroke="#a9c4de" stroke-linecap="round" stroke-linejoin="round" stroke-width="1"/>
        <line id="Línea_570" data-name="Línea 570" x2="26.931" y2="0.186" transform="translate(85.271 161.908)" fill="none" stroke="#a9c4de" stroke-linecap="round" stroke-linejoin="round" stroke-width="1"/>
        <line id="Línea_571" data-name="Línea 571" x2="26.931" y2="0.186" transform="translate(85.242 166.126)" fill="none" stroke="#a9c4de" stroke-linecap="round" stroke-linejoin="round" stroke-width="1"/>
        <path id="Trazado_873983" data-name="Trazado 873983" d="M224.031,516.461l5.955.041c-3.239-.022-3.384,21.038-.145,21.06l-5.955-.041c-3.239-.022-3.093-21.083.145-21.06" transform="translate(-157.795 -367.876)" fill="#83b4e3"/>
        <path id="Trazado_873984" data-name="Trazado 873984" d="M198.955,516.288l3.349.023c-3.239-.022-3.384,21.038-.145,21.06l-3.349-.023c-3.239-.022-3.093-21.082.145-21.06" transform="translate(-139.933 -367.753)" fill="#83b4e3"/>
        <line id="Línea_572" data-name="Línea 572" x2="2.554" y2="3.787" transform="translate(72.273 28.583)" fill="none" stroke="#0d367f" stroke-linecap="round" stroke-linejoin="round" stroke-width="3"/>
        <line id="Línea_573" data-name="Línea 573" x1="2.899" y2="3.529" transform="translate(108.734 29.945)" fill="none" stroke="#0d367f" stroke-linecap="round" stroke-linejoin="round" stroke-width="3"/>
        <line id="Línea_574" data-name="Línea 574" x1="0.099" y2="4.566" transform="translate(90.056 20.091)" fill="none" stroke="#0d367f" stroke-linecap="round" stroke-linejoin="round" stroke-width="3"/>
      </g>
    </g>
  </g>
</svg>
