<svg id="Grupo_1098785" data-name="Grupo 1098785" xmlns="http://www.w3.org/2000/svg" width="114.695" height="32.461" viewBox="0 0 114.695 32.461">
  <path id="Unión_14" data-name="Unión 14" d="M102.407,29.4c-.917-1.379-1.539-2.223-2.708-2.223s-1.789.844-2.7,2.223-2.033,3.058-4.315,3.058-3.411-1.693-4.316-3.058-1.538-2.223-2.706-2.223-1.787.844-2.7,2.223-2.033,3.058-4.315,3.058-3.41-1.693-4.315-3.058-1.537-2.223-2.7-2.223-1.787.844-2.7,2.223-2.031,3.058-4.313,3.058-3.41-1.693-4.315-3.058-1.537-2.223-2.7-2.223a1.05,1.05,0,0,0-.476,0c-1.168,0-1.789.844-2.706,2.223s-2.033,3.058-4.318,3.058-3.412-1.693-4.317-3.058-1.538-2.223-2.706-2.223-1.79.844-2.706,2.223-2.033,3.058-4.315,3.058-3.411-1.693-4.316-3.058-1.537-2.223-2.7-2.223-1.789.844-2.706,2.223S24.282,32.461,22,32.461s-3.409-1.693-4.313-3.058-1.537-2.223-2.7-2.223-1.787.844-2.7,2.223-2.031,3.058-4.315,3.058S4.557,30.768,3.652,29.4s-1.537-2.223-2.7-2.223a.882.882,0,1,1,0-1.76c2.282,0,3.409,1.7,4.314,3.058C6.178,29.855,6.8,30.7,7.965,30.7s1.787-.846,2.7-2.223c.905-1.361,2.031-3.058,4.313-3.058s3.41,1.7,4.313,3.058c.917,1.377,1.537,2.223,2.7,2.223s1.789-.846,2.7-2.223c.905-1.361,2.033-3.058,4.316-3.058s3.409,1.7,4.314,3.058c.916,1.377,1.537,2.223,2.706,2.223s1.789-.846,2.7-2.223c.9-1.361,2.033-3.058,4.316-3.058s3.411,1.7,4.317,3.058c.917,1.377,1.538,2.223,2.706,2.223s1.791-.846,2.708-2.223c.905-1.361,2.035-3.058,4.317-3.058a1.015,1.015,0,0,0,.476,0c2.282,0,3.408,1.7,4.315,3.058.914,1.377,1.535,2.223,2.7,2.223s1.787-.846,2.7-2.223c.905-1.361,2.033-3.058,4.314-3.058s3.408,1.7,4.313,3.058c.916,1.377,1.535,2.223,2.7,2.223s1.787-.846,2.7-2.223c.905-1.361,2.033-3.058,4.315-3.058s3.41,1.7,4.316,3.058c.916,1.377,1.537,2.223,2.706,2.223s1.787-.846,2.7-2.223c.9-1.361,2.031-3.058,4.315-3.058s3.411,1.7,4.316,3.058c.917,1.377,1.539,2.223,2.708,2.223s1.791-.846,2.708-2.223c.906-1.361,2.033-3.058,4.317-3.058a.882.882,0,1,1,0,1.76c-1.17,0-1.791.844-2.708,2.223s-2.033,3.058-4.316,3.058S103.313,30.768,102.407,29.4Zm0-12.708c-.917-1.38-1.539-2.225-2.708-2.225s-1.789.845-2.7,2.225c-.906,1.361-2.033,3.058-4.315,3.058s-3.411-1.7-4.316-3.058c-.916-1.38-1.538-2.225-2.706-2.225s-1.787.845-2.7,2.225c-.906,1.361-2.033,3.058-4.315,3.058s-3.41-1.7-4.315-3.058c-.916-1.38-1.537-2.225-2.7-2.225s-1.787.845-2.7,2.225c-.905,1.361-2.031,3.058-4.313,3.058s-3.41-1.7-4.315-3.058c-.916-1.38-1.537-2.225-2.7-2.225a1.015,1.015,0,0,0-.476,0c-1.168,0-1.789.845-2.706,2.225-.907,1.361-2.033,3.058-4.318,3.058s-3.412-1.7-4.317-3.058c-.917-1.38-1.538-2.225-2.706-2.225s-1.79.845-2.706,2.225c-.905,1.361-2.033,3.058-4.315,3.058s-3.411-1.7-4.316-3.058c-.916-1.38-1.537-2.225-2.7-2.225s-1.789.845-2.706,2.225c-.906,1.361-2.033,3.058-4.315,3.058s-3.409-1.7-4.313-3.058c-.917-1.38-1.537-2.225-2.7-2.225s-1.787.845-2.7,2.225c-.905,1.361-2.031,3.058-4.315,3.058s-3.408-1.7-4.313-3.058c-.917-1.38-1.537-2.225-2.7-2.225a.882.882,0,1,1,0-1.76c2.282,0,3.409,1.7,4.314,3.058.916,1.378,1.537,2.222,2.7,2.222s1.787-.844,2.7-2.222c.905-1.36,2.031-3.058,4.313-3.058s3.41,1.7,4.313,3.058c.917,1.378,1.537,2.222,2.7,2.222s1.789-.844,2.7-2.222c.905-1.36,2.033-3.058,4.316-3.058s3.409,1.7,4.314,3.058c.916,1.378,1.537,2.222,2.706,2.222s1.789-.844,2.7-2.222c.9-1.36,2.033-3.058,4.316-3.058s3.411,1.7,4.317,3.058c.917,1.378,1.538,2.222,2.706,2.222s1.791-.844,2.708-2.222c.905-1.36,2.035-3.058,4.317-3.058a1.05,1.05,0,0,0,.476,0c2.282,0,3.408,1.7,4.315,3.058.914,1.378,1.535,2.222,2.7,2.222s1.787-.844,2.7-2.222c.905-1.36,2.033-3.058,4.314-3.058s3.408,1.7,4.313,3.058c.916,1.378,1.535,2.222,2.7,2.222s1.787-.844,2.7-2.222c.905-1.36,2.033-3.058,4.315-3.058s3.41,1.7,4.316,3.058c.916,1.378,1.537,2.222,2.706,2.222s1.787-.844,2.7-2.222c.9-1.36,2.031-3.058,4.315-3.058s3.411,1.7,4.316,3.058c.917,1.378,1.539,2.222,2.708,2.222s1.791-.844,2.708-2.222c.906-1.36,2.033-3.058,4.317-3.058a.882.882,0,1,1,0,1.76c-1.17,0-1.791.845-2.708,2.225-.905,1.361-2.033,3.058-4.316,3.058S103.313,18.057,102.407,16.7Zm0-12.711C101.49,2.605,100.869,1.76,99.7,1.76s-1.789.846-2.7,2.225c-.906,1.362-2.033,3.058-4.315,3.058s-3.411-1.7-4.316-3.058c-.916-1.379-1.538-2.225-2.706-2.225s-1.787.846-2.7,2.225c-.906,1.362-2.033,3.058-4.315,3.058s-3.41-1.7-4.315-3.059c-.916-1.378-1.537-2.224-2.7-2.224s-1.787.846-2.7,2.224S66.885,7.042,64.6,7.042s-3.41-1.7-4.315-3.059-1.537-2.224-2.7-2.224a1.05,1.05,0,0,0-.476,0c-1.168,0-1.789.846-2.706,2.225-.907,1.362-2.033,3.058-4.318,3.058s-3.412-1.7-4.317-3.058C44.852,2.605,44.23,1.76,43.063,1.76s-1.79.846-2.706,2.225c-.905,1.362-2.033,3.058-4.315,3.058s-3.411-1.7-4.316-3.058c-.916-1.379-1.537-2.225-2.7-2.225s-1.789.846-2.706,2.225C25.409,5.347,24.282,7.042,22,7.042s-3.409-1.7-4.313-3.059c-.917-1.378-1.537-2.224-2.7-2.224s-1.787.846-2.7,2.224S10.249,7.042,7.965,7.042s-3.408-1.7-4.313-3.059S2.115,1.76.948,1.76A.916.916,0,0,1,0,.881.916.916,0,0,1,.948,0C3.229,0,4.357,1.7,5.262,3.058c.916,1.379,1.537,2.225,2.7,2.225s1.787-.846,2.7-2.225C11.575,1.7,12.7,0,14.982,0s3.41,1.7,4.313,3.058c.917,1.379,1.537,2.225,2.7,2.225s1.789-.846,2.7-2.225C25.61,1.7,26.737,0,29.021,0s3.409,1.7,4.314,3.058c.916,1.379,1.537,2.225,2.706,2.225s1.789-.846,2.7-2.225C39.65,1.7,40.779,0,43.063,0s3.411,1.7,4.317,3.058c.917,1.379,1.538,2.225,2.706,2.225s1.791-.846,2.708-2.225C53.7,1.7,54.828,0,57.11,0a1.015,1.015,0,0,0,.476,0c2.282,0,3.408,1.7,4.315,3.058.914,1.379,1.535,2.225,2.7,2.225s1.787-.846,2.7-2.225C68.211,1.7,69.339,0,71.621,0s3.408,1.7,4.313,3.058c.916,1.379,1.535,2.225,2.7,2.225s1.787-.846,2.7-2.225C82.248,1.7,83.375,0,85.658,0s3.41,1.7,4.316,3.058c.916,1.379,1.537,2.225,2.706,2.225s1.787-.846,2.7-2.225C96.289,1.7,97.416,0,99.7,0s3.411,1.7,4.316,3.058c.917,1.379,1.539,2.225,2.708,2.225s1.791-.846,2.708-2.225C110.337,1.7,111.464,0,113.748,0a.916.916,0,0,1,.947.881.916.916,0,0,1-.947.879c-1.17,0-1.791.846-2.708,2.225-.905,1.362-2.033,3.058-4.316,3.058S103.313,5.347,102.407,3.984Z" fill="#0c203b"/>
</svg>
