<svg id="Grupo_1099297" data-name="Grupo 1099297" xmlns="http://www.w3.org/2000/svg" xmlns:xlink="http://www.w3.org/1999/xlink" width="140.543" height="138.14" viewBox="0 0 140.543 138.14">
  <defs>
    <clipPath id="clip-path">
      <rect id="Rectángulo_401446" data-name="Rectángulo 401446" width="140.543" height="138.14" fill="none"/>
    </clipPath>
  </defs>
  <g id="Grupo_1099296" data-name="Grupo 1099296" clip-path="url(#clip-path)">
    <path id="Trazado_875905" data-name="Trazado 875905" d="M114.562,126.043s-22.413,15.7-39.122,1.235S48.323,97.223,26.486,93.353C-5.061,87.762-12.159,42.066,25.821,18.3s76.99-8.784,90.15,1.12c24.922,18.755,40.355,75.694-1.409,106.625" transform="translate(0 -4.303)" fill="#fcf9e8" fill-rule="evenodd"/>
    <circle id="Elipse_11539" data-name="Elipse 11539" cx="2.56" cy="2.56" r="2.56" transform="translate(42.537 0.235)" fill="none" stroke="#0d367f" stroke-linecap="round" stroke-linejoin="round" stroke-width="2.067"/>
    <circle id="Elipse_11540" data-name="Elipse 11540" cx="2.56" cy="2.56" r="2.56" transform="translate(120.023 96.817)" fill="none" stroke="#0d367f" stroke-linecap="round" stroke-linejoin="round" stroke-width="2.067"/>
    <circle id="Elipse_11541" data-name="Elipse 11541" cx="2.56" cy="2.56" r="2.56" transform="translate(9.843 105.631)" fill="none" stroke="#0d367f" stroke-linecap="round" stroke-linejoin="round" stroke-width="2.067"/>
    <path id="Trazado_875906" data-name="Trazado 875906" d="M201.954,560.2c0,3.33-23.948,6.029-53.49,6.029s-53.49-2.7-53.49-6.029,23.948-6.029,53.49-6.029,53.49,2.7,53.49,6.029" transform="translate(-73.367 -428.089)" fill="#fcf9e8" fill-rule="evenodd"/>
    <path id="Trazado_875907" data-name="Trazado 875907" d="M119.074,183.385l40.537.277c-1.477-10.9-2.124-14.775-1.735-26.138.81-15.473,27.6-28.756,20.277-60.238C172.61,73.454,148.086,63.2,120.037,70.711c-12.719,3.406-22.3,10.776-24.994,23.664-.057.274-.373,3.4-.428,3.683-.653,3.364,1.119,14.3-.522,16.926-3.979,6.379-7.184,9.352-8.288,10.107-2.943,2.013-3.046,7.047,1.774,8.854,3.763,1.411,3.317.8,3.334,3.626a6.226,6.226,0,0,1-.955,3.516c-.66,1.229-.928,1.42-.312,2.8a6.065,6.065,0,0,0,2.76,2.32s-2.44,1.721.056,5.191c.55.765,1.63,1.176,1.774,1.785.766,3.246.532,3.113.519,4.334-.017,1.565.216,7.738,7.935,9.076a107.412,107.412,0,0,0,13.655-.128c1.08,7.878.986,10.225,2.728,16.925" transform="translate(-64.694 -52.752)" fill="#77af8f"/>
    <path id="Trazado_875908" data-name="Trazado 875908" d="M227.029,498.937l8.545-.25-7.387,8.5Z" transform="translate(-175.376 -385.228)" fill="#daf2e4"/>
    <path id="Trazado_875909" data-name="Trazado 875909" d="M193.806,189.907a10.326,10.326,0,1,1-10.326-10.326,10.326,10.326,0,0,1,10.326,10.326" transform="translate(-133.758 -138.724)" fill="#effaf4"/>
    <path id="Trazado_875910" data-name="Trazado 875910" d="M239.768,237.593a10.326,10.326,0,1,1-10.326-10.326,10.326,10.326,0,0,1,10.326,10.326" transform="translate(-169.263 -175.561)" fill="#effaf4"/>
    <path id="Trazado_875911" data-name="Trazado 875911" d="M356.4,187.609a10.326,10.326,0,1,1-10.326-10.326A10.326,10.326,0,0,1,356.4,187.609" transform="translate(-259.358 -136.949)" fill="#effaf4"/>
    <path id="Trazado_875912" data-name="Trazado 875912" d="M309.287,234.146A10.326,10.326,0,1,1,298.96,223.82a10.326,10.326,0,0,1,10.326,10.326" transform="translate(-222.966 -172.898)" fill="#effaf4"/>
    <path id="Trazado_875913" data-name="Trazado 875913" d="M269.636,159.166a12.908,12.908,0,1,1-12.908-12.908,12.908,12.908,0,0,1,12.908,12.908" transform="translate(-188.348 -112.982)" fill="#effaf4"/>
    <path id="Trazado_875914" data-name="Trazado 875914" d="M435.532,171.681a10.479,10.479,0,0,0,4.961,2.963c2.271.631,3.087,1.933,3.87,4.212,1.252,3.645,5.4,1.895,5.514,7.3.067,3.313-3.289,6.133-8.995,3.392s-14.343,5.711-14.689-5.524c-.06-1.942,3.1-5.919,3.066-7.708a10.455,10.455,0,0,1,1.063-4.143Z" transform="translate(-329.228 -132.621)" fill="#12263f" fill-rule="evenodd"/>
    <path id="Trazado_875915" data-name="Trazado 875915" d="M375.93,139.244h0a.7.7,0,0,0,.7-.7V78.391a.7.7,0,0,0-1.4,0v60.156a.7.7,0,0,0,.7.7" transform="translate(-289.862 -60.018)" fill="#e6d567" fill-rule="evenodd"/>
    <path id="Trazado_875916" data-name="Trazado 875916" d="M358.032,335.53h37.66a3.546,3.546,0,1,0,0-7.091h-37.66a3.546,3.546,0,0,0,0,7.091" transform="translate(-273.836 -253.715)" fill="#e6d567" fill-rule="evenodd"/>
    <path id="Trazado_875917" data-name="Trazado 875917" d="M354.4,236.628a4.159,4.159,0,0,1-4.945,2.52l-11.424-4.225,1.842-1.581,11.318.729Z" transform="translate(-261.122 -180.253)" fill="#c95836" fill-rule="evenodd"/>
    <path id="Trazado_875918" data-name="Trazado 875918" d="M328.783,232.422l-2.089-.272a1.757,1.757,0,0,0-1.193.274l-1.425.936a.85.85,0,0,0-.034,1.4l2.645.194a2.649,2.649,0,0,0,1.728-.529l.879-.638Z" transform="translate(-250.047 -179.321)" fill="#c95836"/>
    <path id="Trazado_875919" data-name="Trazado 875919" d="M350.992,356.457c-.011,3.151-4.3,13.4-7,17.91-.393.657.457-.407-.875.6l-.395,1.226c-.818-.489-1.239-.52-1.2-1.236l2.974-13.388c.038-.647,6.516-9.457,6.5-5.115" transform="translate(-263.815 -274.433)" fill="#c95836" fill-rule="evenodd"/>
    <path id="Trazado_875920" data-name="Trazado 875920" d="M327.2,434.644l-2.121.41a12.345,12.345,0,0,1-2.469-.158c-.351.275-.107.631.155.82l5.157,2.416s1.3.338,1.378-2.45c-1.132-.049-2.207-.212-2.1-1.038" transform="translate(-249.079 -335.756)" fill="#4a2a1a" fill-rule="evenodd"/>
    <path id="Trazado_875921" data-name="Trazado 875921" d="M412.232,312.522c.554.344.57,1.095.049,1.827-.922,1.3-4.8,3.392-3.705,7.74.794,3.156-.337,13.746-1.616,18.493-.186.691.189-.407-.753.718l-.043,1.261c-.861-.42-1.123-.48-1.271-1.2l-2.778-21.533c-.131-.651,1.179-1.962,1.574-2.741.771-1.522-.75-2.308.974-2.889l3.715-1.253s.248,1.7.838,2.068Z" transform="translate(-310.621 -241.419)" fill="#c95836" fill-rule="evenodd"/>
    <path id="Trazado_875922" data-name="Trazado 875922" d="M405.109,436.014l-1.032,1.9a12.333,12.333,0,0,1-1.692,1.8c-.01.445.419.484.732.4l5.143-2.443s1.087-.788-1.016-2.619c-.757.842-1.566,1.567-2.136.96" transform="translate(-310.837 -336.073)" fill="#4a2a1a" fill-rule="evenodd"/>
    <path id="Trazado_875923" data-name="Trazado 875923" d="M362.06,292.363s-10.274,3.828-12.912,5.567-2.946,1.741-3.975,4.092c-1.14,2.6-5.593,20.007-5.593,20.007a15.607,15.607,0,0,0,5.26.407l8.587-16.826.242,1.869s1.334,15.979,1.445,15.991,3.661.658,4.44-.4a90.374,90.374,0,0,0,1.549-13.6c-.04-6.778,1.343-6.574,2.862-6.682.83-.059,6.733-.352,6.733-.352s5.5-1.51,5.71-5.393-1-5.519-1-5.519Z" transform="translate(-262.321 -225.202)" fill="#082952" fill-rule="evenodd"/>
    <path id="Trazado_875924" data-name="Trazado 875924" d="M392.279,213.7l7.46-6.234c2.005-1.578,5.614-2.024,6.417.038a2.065,2.065,0,0,1-.956,2.383l-9.878,7.27Z" transform="translate(-303.03 -159.219)" fill="#c95836" fill-rule="evenodd"/>
    <path id="Trazado_875925" data-name="Trazado 875925" d="M419.641,198.567l4.388-1.6,1.828.1,1.408.055,5.351,1.866a3.934,3.934,0,0,1,1.95,4.882l-1.31,6.124c.015,4.588-.031,5.965,1.912,10.524-6.99,1.214-19.294.418-19.85-.218,3.828-6.554,1.909-16.936,4.323-21.733" transform="translate(-320.827 -152.156)" fill="#fff" fill-rule="evenodd"/>
    <path id="Trazado_875926" data-name="Trazado 875926" d="M488.4,229.029l-4.169-10.345c-1-2.138.083-4.132,2.273-4.191a2.223,2.223,0,0,1,2.044,1.5l3.859,9.875Z" transform="translate(-373.774 -165.692)" fill="#c95836" fill-rule="evenodd"/>
    <path id="Trazado_875927" data-name="Trazado 875927" d="M474.884,207.464l5.057,9.864,4.067-6.022c-1.883-4.548-3.491-7.128-6.941-8.086-3.793-1.055-2.183,4.244-2.183,4.244" transform="translate(-366.579 -156.877)" fill="#fff" fill-rule="evenodd"/>
    <path id="Trazado_875928" data-name="Trazado 875928" d="M408.054,202.961a7.939,7.939,0,0,0-6.064,2.194c-3.07,2.686-4.92,4.416-4.92,4.416l4.11,5.128,5.509-4.652Z" transform="translate(-306.731 -156.758)" fill="#fff" fill-rule="evenodd"/>
    <path id="Trazado_875929" data-name="Trazado 875929" d="M426.954,235.5a29.9,29.9,0,0,1,1.089-5.111" transform="translate(-329.816 -177.971)" fill="none" stroke="#a1aacc" stroke-linecap="round" stroke-linejoin="round" stroke-width="2.04"/>
    <path id="Trazado_875930" data-name="Trazado 875930" d="M487.509,240.751l-1.295-3.954.04-.77" transform="translate(-375.594 -182.328)" fill="none" stroke="#a1aacc" stroke-linecap="round" stroke-linejoin="round" stroke-width="2.04"/>
    <path id="Trazado_875931" data-name="Trazado 875931" d="M399.51,322.55c-.124-.132-.356-4.078-.474-5.176s1.382-3.224,8.274-6.57" transform="translate(-308.245 -240.092)" fill="none" stroke="#384985" stroke-linecap="round" stroke-linejoin="round" stroke-width="2.04"/>
    <path id="Trazado_875932" data-name="Trazado 875932" d="M501.728,230.644c1.37,1.312,3.486.039,4.546-2.261l3.018-11.8-2.348.616-5.834,9.726Z" transform="translate(-387.101 -167.307)" fill="#c95836" fill-rule="evenodd"/>
    <path id="Trazado_875933" data-name="Trazado 875933" d="M526.831,207.723l.964-1.873a1.758,1.758,0,0,1,.9-.826l1.58-.641a.85.85,0,0,1,1.17.767l-1.344,2.286a2.649,2.649,0,0,1-1.418,1.121l-1.025.36Z" transform="translate(-406.97 -157.835)" fill="#c95836"/>
    <path id="Trazado_875934" data-name="Trazado 875934" d="M537.71,174.337h.122a.636.636,0,0,0,.636-.636V123.758a.636.636,0,0,0-.636-.636h-.123a.636.636,0,0,0-.636.636V173.7a.636.636,0,0,0,.636.636" transform="translate(-414.882 -95.11)" fill="#e6d567" fill-rule="evenodd"/>
    <path id="Trazado_875935" data-name="Trazado 875935" d="M441.974,169.225a3.517,3.517,0,0,0-1.16,4.736c1.591,3.021,2.108.673,2.108.673s.677-4.314-.948-5.409" transform="translate(-340.14 -130.724)" fill="#4a2a1a" fill-rule="evenodd"/>
    <path id="Trazado_875936" data-name="Trazado 875936" d="M448.728,180.592l1.2,3.432c.145.414,1.191.716,2.086.37.134-.052.18-.219.264-.321a1.555,1.555,0,0,0,.205-1.652l-1.86-3.935Z" transform="translate(-346.636 -137.877)" fill="#d46d4e" fill-rule="evenodd"/>
    <path id="Trazado_875937" data-name="Trazado 875937" d="M448.788,171.973a1.055,1.055,0,0,0-.882-1.2l-2.005-.31a1.124,1.124,0,0,0-1.2.882,11.291,11.291,0,0,0-.277,3.1,1.279,1.279,0,0,0,.967,1.262c.615.1,2.548-.206,2.9-1.278a15.188,15.188,0,0,0,.506-2.449" transform="translate(-343.301 -131.668)" fill="#d46d4e" fill-rule="evenodd"/>
    <path id="Trazado_875938" data-name="Trazado 875938" d="M451.962,170.222s.3-2.232-.581-3.067c-1.184-1.122-2.772-1.731-4.493-.278,0,0-.252,3.455,5.074,3.345" transform="translate(-345.213 -128.25)" fill="#4a2a1a" fill-rule="evenodd"/>
    <path id="Trazado_875939" data-name="Trazado 875939" d="M460.21,183.639a.731.731,0,1,1-.212-1.105.8.8,0,0,1,.212,1.105" transform="translate(-354.437 -140.947)" fill="#d46d4e" fill-rule="evenodd"/>
    <path id="Trazado_875940" data-name="Trazado 875940" d="M450.753,192.048l.316.9.842-1.344Z" transform="translate(-348.2 -148.011)" fill="#873b24" fill-rule="evenodd"/>
    <path id="Trazado_875941" data-name="Trazado 875941" d="M447.447,187.136l-1.037-.082s-.036.71.468.691.57-.608.57-.608" transform="translate(-344.844 -144.497)" fill="#fff" fill-rule="evenodd"/>
    <path id="Trazado_875942" data-name="Trazado 875942" d="M275.253,203.1s-4.8-4.351-7.37-2.4c-5.349,4.065,10.162,12.665,10.162,12.665s8.454-13.351,3.222-15.972c-3.743-1.875-6.013,5.707-6.013,5.707" transform="translate(-206.069 -152.255)" fill="#e6d567"/>
    <path id="Trazado_875943" data-name="Trazado 875943" d="M194.195,112.95s-4.235-1.7-5.456.21c-2.544,3.99,9.8,5.893,9.8,5.893s2.333-10.883-1.764-11.34c-2.931-.327-2.583,5.237-2.583,5.237" transform="translate(-145.532 -83.196)" fill="#effaf4"/>
    <path id="Trazado_875944" data-name="Trazado 875944" d="M281.267,348.541s-1.342-4.2-3.518-3.927c-4.535.568,1.659,10.92,1.659,10.92s9.53-4.972,7.344-8.3c-1.563-2.38-5.486,1.307-5.486,1.307" transform="translate(-213.275 -266.2)" fill="#effaf4"/>
    <path id="Trazado_875945" data-name="Trazado 875945" d="M411.822,114.541s-.484-3.417-2.2-3.493c-3.574-.158-.154,8.646-.154,8.646s8.008-2.586,6.758-5.441c-.894-2.042-4.405.288-4.405.288" transform="translate(-315.169 -85.781)" fill="#effaf4"/>
  </g>
</svg>
