<svg xmlns="http://www.w3.org/2000/svg" width="72" height="72" viewBox="0 0 72 72">
  <g id="Grupo_1099353" data-name="Grupo 1099353" transform="translate(-265 -1850)">
    <g id="Grupo_1098580" data-name="Grupo 1098580" transform="translate(-154 729)">
      <path id="Trazado_824488" data-name="Trazado 824488" d="M36,0A36,36,0,1,1,0,36,36,36,0,0,1,36,0Z" transform="translate(419 1121)" fill="#daf2e4"/>
    </g>
    <g id="reshot-icon-bell-VQHG73LEAS" transform="translate(274.059 1862.285)">
      <circle id="Elipse_11529" data-name="Elipse 11529" cx="8.489" cy="8.489" r="8.489" transform="translate(18.452 29.657)" fill="#ffc850"/>
      <path id="Trazado_875444" data-name="Trazado 875444" d="M181.345,328.632a8.489,8.489,0,1,0-16.588,2.547h0a8.461,8.461,0,0,0,11.065,5.4,8.489,8.489,0,0,1-4.63-4.2.844.844,0,0,1,.775-1.2h8.983A8.482,8.482,0,0,0,181.345,328.632Z" transform="translate(-145.915 -290.486)" fill="#eab049"/>
      <path id="Trazado_875445" data-name="Trazado 875445" d="M56.467,45.941H12.983a.849.849,0,0,1-.805-1.117L14.852,36.8a6.793,6.793,0,0,0,.349-2.148V28.115A19.524,19.524,0,0,1,34.725,8.591h0A19.524,19.524,0,0,1,54.249,28.115v6.538A6.79,6.79,0,0,0,54.6,36.8l2.675,8.024A.849.849,0,0,1,56.467,45.941Z" transform="translate(-7.784 -7.795)" fill="#ffdc64"/>
      <path id="Trazado_875446" data-name="Trazado 875446" d="M23.723,44.824,25.713,36.8a8.944,8.944,0,0,0,.259-2.147V28.115c0-9.653,5.215-17.665,12.065-19.239A19.511,19.511,0,0,0,15.2,28.115v6.538a6.79,6.79,0,0,1-.349,2.147l-2.675,8.024a.849.849,0,0,0,.805,1.117H24.322C23.891,45.941,23.586,45.374,23.723,44.824Z" transform="translate(-7.784 -7.795)" fill="#ffc850"/>
      <path id="Trazado_875447" data-name="Trazado 875447" d="M50.243,36.777l-2.675-8.024a5.983,5.983,0,0,1-.308-1.9V20.32a20.32,20.32,0,0,0-40.64,0v6.538a5.985,5.985,0,0,1-.308,1.9L3.639,36.777A1.645,1.645,0,0,0,5.2,38.942H17.691a9.284,9.284,0,0,0,18.5,0H48.682a1.645,1.645,0,0,0,1.56-2.165Zm-23.3,9.062a7.7,7.7,0,0,1-7.652-6.9h15.3A7.7,7.7,0,0,1,26.941,45.839Zm21.785-8.511a.048.048,0,0,1-.043.022H5.2a.053.053,0,0,1-.05-.07l2.675-8.024a7.572,7.572,0,0,0,.389-2.4V20.32a18.728,18.728,0,1,1,37.457,0v6.538a7.569,7.569,0,0,0,.389,2.4l2.675,8.024A.049.049,0,0,1,48.725,37.328Z"/>
      <path id="Trazado_875448" data-name="Trazado 875448" d="M248.2,443.129a5.9,5.9,0,0,0,4.389-1.963.8.8,0,0,0-1.186-1.062,4.3,4.3,0,0,1-3.2,1.433.8.8,0,0,0,0,1.592Z" transform="translate(-221.264 -399.093)"/>
      <path id="Trazado_875449" data-name="Trazado 875449" d="M62.04,229.083a.8.8,0,0,0-.8.8v4.84a9.373,9.373,0,0,1-.482,2.97l-.708,2.125a.8.8,0,1,0,1.51.5l.708-2.125a10.964,10.964,0,0,0,.564-3.473v-4.84A.8.8,0,0,0,62.04,229.083Z" transform="translate(-51.228 -207.861)"/>
      <path id="Trazado_875450" data-name="Trazado 875450" d="M358.669,76.047a.8.8,0,1,0-1.007,1.233,15.321,15.321,0,0,1,5.459,9.458.8.8,0,0,0,.785.671.811.811,0,0,0,.126-.01.8.8,0,0,0,.661-.911A16.91,16.91,0,0,0,358.669,76.047Z" transform="translate(-321.038 -68.839)"/>
      <path id="Trazado_875451" data-name="Trazado 875451" d="M314.428,49.783a16.941,16.941,0,0,0-1.783-.833.8.8,0,1,0-.588,1.479,15.337,15.337,0,0,1,1.614.754.8.8,0,0,0,.756-1.4Z" transform="translate(-279.468 -44.364)"/>
    </g>
  </g>
</svg>
