<svg id="Grupo_1099364" data-name="Grupo 1099364" xmlns="http://www.w3.org/2000/svg" xmlns:xlink="http://www.w3.org/1999/xlink" width="252.702" height="204.889" viewBox="0 0 252.702 204.889">
  <defs>
    <clipPath id="clip-path">
      <rect id="Rectángulo_401518" data-name="Rectángulo 401518" width="252.702" height="204.889" fill="none"/>
    </clipPath>
  </defs>
  <g id="Grupo_1099363" data-name="Grupo 1099363" clip-path="url(#clip-path)">
    <path id="Trazado_876358" data-name="Trazado 876358" d="M.266,78.549C3.722,41.257,23.739,6.556,70.5.683c69.055-8.673,95.928,68.229,124.278,65.831,0,0,58.816-6.145,57.915,55.688s-88.524,76.739-172.249,55.383C41.485,167.648-3.895,123.448.266,78.549" transform="translate(0 0)" fill="#fcf9e8"/>
    <path id="Trazado_876359" data-name="Trazado 876359" d="M335.285,646.43c0,5.347-38.452,9.681-85.886,9.681s-85.885-4.334-85.885-9.681,38.452-9.681,85.885-9.681,85.886,4.334,85.886,9.681" transform="translate(-115.871 -451.221)" fill="#f3f9ff" fill-rule="evenodd"/>
    <path id="Trazado_876360" data-name="Trazado 876360" d="M226.005,212.37l65.089.445c-2.372-17.5-3.41-23.723-2.787-41.968,1.3-24.844,44.314-46.172,32.558-96.72-8.9-38.266-48.277-54.731-93.314-42.671-20.422,5.469-35.8,17.3-40.131,38-.092.439-.6,5.466-.686,5.914-1.048,5.4,1.8,22.953-.838,27.177-6.388,10.243-11.535,15.016-13.307,16.228-4.726,3.232-4.891,11.315,2.849,14.217,6.042,2.265,5.326,1.277,5.353,5.822a10,10,0,0,1-1.534,5.645c-1.06,1.973-1.49,2.28-.5,4.489,1.011,2.258,4.432,3.726,4.432,3.726s-3.918,2.763.09,8.335c.883,1.228,2.618,1.889,2.849,2.866,1.231,5.212.854,5,.832,6.959-.028,2.512.347,12.424,12.741,14.572,2.314.4,12.105.332,21.925-.206,1.734,12.65,1.583,16.418,4.38,27.175" transform="translate(-119.96 -19.533)" fill="#ede3a4"/>
    <path id="Trazado_876361" data-name="Trazado 876361" d="M450.627,361.573c4.958-.77,14.72-4.392,15.356-20.948,0,0-13.667,1.691-16.706,19.159-.909,1.927-4.22,7.5-6.512,13.394,1.1-5.054.326-14.069-9.352-21.4,0,0-6.45,16.235,7.7,25.773-1.38,3.773-1.738,5.274-3.144,9.922.809.651-.1,4.544.667,4.856,1.423-4.765,2.931-10.672,4.337-14.53,4.449,2.006,15.587,5.432,26.649-7.909a28.418,28.418,0,0,0-25.093,4.054,95.876,95.876,0,0,1,6.095-12.371" transform="translate(-306.091 -241.378)" fill="#b8aa52"/>
    <path id="Trazado_876362" data-name="Trazado 876362" d="M307.422,428.863s6.852-17.567-2.987-13.688c0,0-.2-11.237-6.928-5.274,0,0,1.126-10.7-5.873-6.074l-1.427,3.245s1.6-8.377-3.463-9.24c0,0-3.734.969-4.111,4.26,0,0,.9-9.2-6.809-9.642,0,0-3.376.4-.77,5.77,0,0-4.174-8.559-7.708-5.007,0,0,30.8,25.8,40.077,35.648" transform="translate(-189.449 -278.033)" fill="#b8aa52"/>
    <path id="Trazado_876363" data-name="Trazado 876363" d="M306.107,430.723s-16.862,8.439-13.9-1.716c0,0-11.208.832-5.889-6.413,0,0-10.551,2.1-6.589-5.29l3.1-1.72s-8.195,2.363-9.519-2.6c0,0,.621-3.807,3.864-4.486,0,0-9.075,1.745-10.227-5.893,0,0,.09-3.4,5.675-1.3,0,0-8.907-3.37-5.7-7.215,0,0,28.528,28.294,39.184,36.628" transform="translate(-188.656 -279.269)" fill="#b8aa52"/>
    <path id="Trazado_876364" data-name="Trazado 876364" d="M281.738,407.015s25.745,19.879,35.884,32.239l-.662.694s-14.864-12.683-35.221-32.933" transform="translate(-199.649 -288.424)" fill="#f6f0ca"/>
    <path id="Trazado_876365" data-name="Trazado 876365" d="M382.737,501.368s18.527,17.5,17.168,31.867l2.045-4.678s-2.677-14.888-17.587-27.677Z" transform="translate(-271.22 -354.941)" fill="#b8aa52"/>
    <path id="Trazado_876366" data-name="Trazado 876366" d="M307.758,75.553c-8.838,7.42-10.713,15.605-10.77,21.059-2.432-6.551-5.08-12.67-7.7-18.189C306.407,65.18,297,52.246,297,52.246c-8.429,7.344-10.31,15.287-10.38,20.735l-.037-.074C282.863,65.553,279.1,59,275.747,53.561c15.368-16.706,3.286-27.961,3.286-27.961-7.507,9.633-7.208,18.477-5.933,23.748-3.636-5.668-6.508-9.668-7.849-11.486-7.166-17.561-22.359-17.615-22.359-17.615,4.638,17.107,14.89,18.863,19.837,18.641,1.054,1.409,4.163,5.655,8.234,12.011-13.984-6.673-24.449.572-24.449.572C260.38,63.08,269.9,58.241,273.68,55.233c3.275,5.336,6.947,11.737,10.577,18.913.376.745.756,1.508,1.137,2.281C272.521,66,260.143,71.434,260.143,71.434c12.325,15.189,23.33,10.515,26.876,8.355,2.745,5.8,5.515,12.262,8.026,19.185-12.447-9.934-24.492-4.912-24.492-4.912,11.331,14.5,22.479,10.98,26.666,8.818,5.063,15.038,8.869,32.913,8.3,49.743-.025.728-.3.79.431.815a1.317,1.317,0,0,0,1.362-1.274c.583-17.336-3.176-34.711-8.4-50.109,18.226-13.078,8.839-26.5,8.839-26.5" transform="translate(-172.122 -14.348)" fill="#b8aa52"/>
    <path id="Trazado_876367" data-name="Trazado 876367" d="M442.982,365.538s-2.669-72.058,34.455-116.806" transform="translate(-313.882 -176.26)" fill="none" stroke="#b8aa52" stroke-linecap="round" stroke-linejoin="round" stroke-width="3"/>
    <path id="Trazado_876368" data-name="Trazado 876368" d="M504.856,183.153c3.792,4.68,15.115,5.862,15.115,5.862s1.193-11.322-2.6-16-7.676-3.746-11.132-.946-5.176,6.406-1.384,11.086" transform="translate(-356.237 -120.28)" fill="#fff"/>
    <path id="Trazado_876369" data-name="Trazado 876369" d="M550.25,262.207c.315-6.015-7.307-14.472-7.307-14.472s-8.464,7.614-8.779,13.63,3.2,7.92,7.638,8.153,8.133-1.3,8.448-7.311" transform="translate(-378.512 -175.553)" fill="#fff"/>
    <path id="Trazado_876370" data-name="Trazado 876370" d="M495.709,245.283c5.792-1.652,11.322-11.6,11.322-11.6s-9.947-5.539-15.739-3.887-6.457,5.591-5.237,9.868,3.862,7.274,9.654,5.622" transform="translate(-344.071 -162.621)" fill="#fff"/>
    <path id="Trazado_876371" data-name="Trazado 876371" d="M572.12,176.186c-4.308,4.209-4.435,15.593-4.435,15.593s11.384.138,15.692-4.072,3.018-7.99-.091-11.172-6.858-4.559-11.166-.35" transform="translate(-402.28 -122.985)" fill="#fff"/>
    <path id="Trazado_876372" data-name="Trazado 876372" d="M584.807,234.323c-5.523-2.4-16.114,1.774-16.114,1.774s4.166,10.595,9.69,13,8.538-.219,10.312-4.3,1.636-8.071-3.887-10.474" transform="translate(-402.995 -165.521)" fill="#fff"/>
    <path id="Trazado_876373" data-name="Trazado 876373" d="M547.877,233.294a4.827,4.827,0,1,0,2.079-6.5,4.827,4.827,0,0,0-2.079,6.5" transform="translate(-387.863 -160.331)" fill="#fcbda1"/>
    <path id="Trazado_876374" data-name="Trazado 876374" d="M354.966,381.4s-6.371-46.395-37.854-74.191" transform="translate(-224.716 -217.698)" fill="none" stroke="#b8aa52" stroke-linecap="round" stroke-linejoin="round" stroke-width="3"/>
    <path id="Trazado_876375" data-name="Trazado 876375" d="M262.272,312.326c-1.573-7.008,3.556-17.992,3.556-17.992s9.33,7.74,10.9,14.748-1.215,9.735-5.208,10.63-7.678-.378-9.25-7.386" transform="translate(-185.642 -208.575)" fill="#fff"/>
    <path id="Trazado_876376" data-name="Trazado 876376" d="M285.406,304.121c-5.343-4.8-7.529-16.723-7.529-16.723s12.089.9,17.431,5.7,4.651,8.638,1.916,11.681-6.476,4.141-11.819-.659" transform="translate(-196.913 -203.66)" fill="#fff"/>
    <path id="Trazado_876377" data-name="Trazado 876377" d="M296.711,273.369c-7.157.6-17.333-5.992-17.333-5.992s8.947-8.179,16.1-8.775,9.476,2.54,9.815,6.618-1.429,7.553-8.586,8.149" transform="translate(-197.976 -183.203)" fill="#fff"/>
    <path id="Trazado_876378" data-name="Trazado 876378" d="M262.641,277.162a4.208,4.208,0,0,1-4.909,1.461c-2.619-1.008-5.51-3.138-3.144-7.444,0,0,3.569-7.283,9.127-1.208a4.21,4.21,0,0,1,.29,5.314Z" transform="translate(-179.788 -189.597)" fill="#b8aa52"/>
    <circle id="Elipse_11549" data-name="Elipse 11549" cx="3.214" cy="3.214" r="3.214" transform="translate(221.64 133.577)" fill="#77af8f" stroke="#0d367f" stroke-linecap="round" stroke-linejoin="round" stroke-width="2.027"/>
    <circle id="Elipse_11550" data-name="Elipse 11550" cx="3.214" cy="3.214" r="3.214" transform="translate(39.272 38.936)" fill="#77af8f" stroke="#0d367f" stroke-linecap="round" stroke-linejoin="round" stroke-width="2.027"/>
    <circle id="Elipse_11551" data-name="Elipse 11551" cx="3.214" cy="3.214" r="3.214" transform="translate(32.033 166.836)" fill="#77af8f" stroke="#0d367f" stroke-linecap="round" stroke-linejoin="round" stroke-width="2.027"/>
    <path id="Trazado_876379" data-name="Trazado 876379" d="M485.178,616.241s-5.3,11.97,6.3,13.028c3.791.346,17.417,1.8,21.594,1.658a7.15,7.15,0,0,0,6.879-7.744l-.649-7.738a1.979,1.979,0,0,0-2.853-1.607l-9.881,4.911-15.028-8.357,1.574,10.6Z" transform="translate(-342.957 -432.544)" fill="#465ba6"/>
    <path id="Trazado_876380" data-name="Trazado 876380" d="M526.649,493.885s-2.355-.008-3.5,4.465c-.924,3.6-4.466,11.074,1.435,11.628,1.754.165,9.937-.3,11.343-.371,1.587-.077-.872-7.277-1.473-8.652-.733-1.68-1.534-3.494-1.592-3.534-.107-.076-6.209-3.537-6.209-3.537" transform="translate(-369.372 -349.983)" fill="#4a2a1a" fill-rule="evenodd"/>
    <path id="Trazado_876381" data-name="Trazado 876381" d="M605.339,566.286A4.9,4.9,0,0,0,612.046,568l11.614-9.544-2.746-1.5-9.771,5.678Z" transform="translate(-428.963 -394.677)" fill="#c95836" fill-rule="evenodd"/>
    <path id="Trazado_876382" data-name="Trazado 876382" d="M657.313,555.975l2.709-.4a2.288,2.288,0,0,1,1.556.332l1.871,1.187a1.106,1.106,0,0,1,.073,1.817l-3.433.306a3.442,3.442,0,0,1-2.257-.653l-1.155-.812Z" transform="translate(-465.343 -393.684)" fill="#c95836"/>
    <path id="Trazado_876383" data-name="Trazado 876383" d="M566.979,540.063l10.341,8.652L579,549.859l6.741-3.328,3.079,3.457L580.7,556.7a6.12,6.12,0,0,1-6.582-.71c-3.246-2.575-12.19-9.567-12.19-9.567l-1.638-4.524Z" transform="translate(-397.043 -382.706)" fill="#fff" fill-rule="evenodd"/>
    <path id="Trazado_876384" data-name="Trazado 876384" d="M447.719,563.617a4.9,4.9,0,0,1-6.707,1.718L429.4,555.79l2.746-1.5,9.771,5.678Z" transform="translate(-304.286 -392.785)" fill="#c95836" fill-rule="evenodd"/>
    <path id="Trazado_876385" data-name="Trazado 876385" d="M422.586,553.306l-2.709-.4a2.288,2.288,0,0,0-1.556.332l-1.871,1.187a1.106,1.106,0,0,0-.073,1.817l3.433.306a3.444,3.444,0,0,0,2.257-.653l1.155-.812Z" transform="translate(-294.747 -391.793)" fill="#c95836"/>
    <path id="Trazado_876386" data-name="Trazado 876386" d="M461.264,537.394l-10.341,8.652-1.678,1.144-6.741-3.328-3.079,3.457,8.114,6.714a6.121,6.121,0,0,0,6.582-.71c3.246-2.575,12.19-9.567,12.19-9.567l1.638-4.524Z" transform="translate(-311.391 -380.815)" fill="#fff" fill-rule="evenodd"/>
    <path id="Trazado_876387" data-name="Trazado 876387" d="M509.132,530.448c.535-.824,5.009-1.87,8.415-2.856l1.362.184,8.274,2.055a5.307,5.307,0,0,1,3.025,6.415l.427,7.295a107.672,107.672,0,0,0,.938,18.283c-9.987,4.415-20.985,3.381-24.494-1.11-.235-12.849-.256-20.21,2.054-30.267" transform="translate(-359.259 -373.869)" fill="#fff" fill-rule="evenodd"/>
    <path id="Trazado_876388" data-name="Trazado 876388" d="M532.648,527.571s.089,5.756,4.024,5.764,4.031-5.612,4.031-5.612l-3.662-1.4Z" transform="translate(-377.452 -372.97)" fill="#c95836"/>
    <path id="Trazado_876389" data-name="Trazado 876389" d="M539.783,511.794l-.4,4.7a1.571,1.571,0,0,0,.674,1.433,1.546,1.546,0,0,0,1.57.1l.479-.242a2.031,2.031,0,0,0,1.112-1.849c-.035-2-.1-5.638-.1-5.638Z" transform="translate(-382.219 -361.614)" fill="#c95836" fill-rule="evenodd"/>
    <path id="Trazado_876390" data-name="Trazado 876390" d="M533.928,510.838a.9.9,0,0,1-.656,1.124,1.019,1.019,0,0,1-1.017-.92.9.9,0,0,1,.656-1.124,1.019,1.019,0,0,1,1.017.92" transform="translate(-377.159 -361.341)" fill="#c95836" fill-rule="evenodd"/>
    <path id="Trazado_876391" data-name="Trazado 876391" d="M539.712,499.126a4.415,4.415,0,0,1-.758,7.543,2.46,2.46,0,0,1-3.05-1.407,6.378,6.378,0,0,1-.36-4.409,2.812,2.812,0,0,1,4.168-1.726" transform="translate(-379.322 -353.424)" fill="#c95836"/>
    <path id="Trazado_876392" data-name="Trazado 876392" d="M547.607,498.321a38.6,38.6,0,0,0-3.121-4.778c-1.334-1.373-3.566-2.858-5.634-1.216a13.815,13.815,0,0,0,6.261,5.744Z" transform="translate(-381.848 -348.367)" fill="#4a2a1a" fill-rule="evenodd"/>
    <path id="Trazado_876393" data-name="Trazado 876393" d="M555.869,512.136a.9.9,0,0,1-1.136.635,1.019,1.019,0,0,1-.41-1.309.9.9,0,0,1,1.136-.635,1.019,1.019,0,0,1,.41,1.309" transform="translate(-392.754 -361.949)" fill="#c95836" fill-rule="evenodd"/>
    <path id="Trazado_876394" data-name="Trazado 876394" d="M507.186,673.256c0,1.737-11.768,3.145-26.284,3.145s-26.284-1.408-26.284-3.145,11.768-3.145,26.284-3.145,26.284,1.408,26.284,3.145" transform="translate(-322.157 -474.863)" fill="#d2e6fa" fill-rule="evenodd"/>
    <path id="Trazado_876395" data-name="Trazado 876395" d="M488.987,664.176s-4.971,1.305-7.215,1.573-3.723,2.107-2.921,3.8,6.278.864,8,.7,6.1-3.353,6.1-3.353Z" transform="translate(-339.174 -470.657)" fill="#4a2a1a"/>
    <path id="Trazado_876396" data-name="Trazado 876396" d="M563.862,670.8s5.743.567,7.959,1.007,4.192-.851,3.952-2.7-5.7-2.765-7.392-3.144-6.837,1.3-6.837,1.3Z" transform="translate(-397.929 -471.88)" fill="#4a2a1a"/>
    <path id="Trazado_876397" data-name="Trazado 876397" d="M537.658,618.854c-3.258-2.471-17.335,2.762-30.994,9.322l2.844,7.829c10.426-.269,25.7-4.857,26.231-5.054,6.873-2.573,6.4-7.428,5.718-8.9-.858-1.861-3.8-3.2-3.8-3.2" transform="translate(-359.039 -438.098)" fill="#082952"/>
    <path id="Trazado_876398" data-name="Trazado 876398" d="M464.509,617.478a5.142,5.142,0,0,0-3.676,6.087c.369,1.526,1.5,3.1,4.122,4.334,7.4,3.472,27.945,8.6,27.945,8.6l4.855-7.23L471.288,617.16a6.475,6.475,0,0,0-4.769-.246Z" transform="translate(-326.463 -436.924)" fill="#082952"/>
    <path id="Trazado_876399" data-name="Trazado 876399" d="M509.751,642.8c.443-.867,8.068-4.423,9.847-5.174" transform="translate(-361.226 -451.846)" fill="none" stroke="#273461" stroke-linecap="round" stroke-linejoin="round" stroke-width="0.965"/>
    <line id="Línea_610" data-name="Línea 610" y1="2.148" x2="15.979" transform="translate(155.312 194.578)" fill="none" stroke="#273461" stroke-linecap="round" stroke-linejoin="round" stroke-width="0.965"/>
    <line id="Línea_611" data-name="Línea 611" x1="1.476" y1="3.595" transform="translate(169.966 165.147)" fill="none" stroke="#b4c5d6" stroke-linecap="round" stroke-linejoin="round" stroke-width="1.787"/>
    <line id="Línea_612" data-name="Línea 612" x1="0.816" y2="3.262" transform="translate(148.164 165.259)" fill="none" stroke="#b4c5d6" stroke-linecap="round" stroke-linejoin="round" stroke-width="1.787"/>
    <path id="Trazado_876400" data-name="Trazado 876400" d="M349.688,567.586l13.72-.4-11.861,13.641Z" transform="translate(-247.801 -401.925)" fill="#f6f0ca"/>
  </g>
</svg>
