<svg xmlns="http://www.w3.org/2000/svg" width="36.648" height="50.713" viewBox="0 0 36.648 50.713">
  <g id="reshot-icon-mirror-7CFTSQZJD6" transform="translate(-70.999)">
    <g id="Grupo_1100166" data-name="Grupo 1100166" transform="translate(71.802 0.803)">
      <circle id="Elipse_11563" data-name="Elipse 11563" cx="3.131" cy="3.131" r="3.131" transform="translate(14.39)" fill="#ff8a3a"/>
      <circle id="Elipse_11564" data-name="Elipse 11564" cx="3.131" cy="3.131" r="3.131" transform="translate(8.404 1.921)" fill="#ff8a3a"/>
      <circle id="Elipse_11565" data-name="Elipse 11565" cx="3.131" cy="3.131" r="3.131" transform="translate(4.017 6.388)" fill="#ff8a3a"/>
      <circle id="Elipse_11566" data-name="Elipse 11566" cx="3.131" cy="3.131" r="3.131" transform="translate(1.289 11.997)" fill="#ff8a3a"/>
      <circle id="Elipse_11567" data-name="Elipse 11567" cx="3.131" cy="3.131" r="3.131" transform="translate(0 18.098)" fill="#ff8a3a"/>
      <circle id="Elipse_11568" data-name="Elipse 11568" cx="3.131" cy="3.131" r="3.131" transform="translate(0 24.36)" fill="#ff8a3a"/>
      <circle id="Elipse_11569" data-name="Elipse 11569" cx="3.131" cy="3.131" r="3.131" transform="translate(1.267 30.455)" fill="#ff8a3a"/>
      <circle id="Elipse_11570" data-name="Elipse 11570" cx="3.131" cy="3.131" r="3.131" transform="translate(3.828 36.14)" fill="#ff8a3a"/>
      <circle id="Elipse_11571" data-name="Elipse 11571" cx="3.232" cy="3.232" r="3.232" transform="translate(8.199 40.566)" fill="#ff8a3a"/>
      <circle id="Elipse_11572" data-name="Elipse 11572" cx="3.131" cy="3.131" r="3.131" transform="translate(20.377 1.921)" fill="#ff8a3a"/>
      <circle id="Elipse_11573" data-name="Elipse 11573" cx="3.131" cy="3.131" r="3.131" transform="translate(24.764 6.388)" fill="#ff8a3a"/>
      <circle id="Elipse_11574" data-name="Elipse 11574" cx="3.131" cy="3.131" r="3.131" transform="translate(27.492 11.997)" fill="#ff8a3a"/>
      <circle id="Elipse_11575" data-name="Elipse 11575" cx="3.131" cy="3.131" r="3.131" transform="translate(28.781 18.098)" fill="#ff8a3a"/>
      <circle id="Elipse_11576" data-name="Elipse 11576" cx="3.131" cy="3.131" r="3.131" transform="translate(28.781 24.36)" fill="#ff8a3a"/>
      <circle id="Elipse_11577" data-name="Elipse 11577" cx="3.131" cy="3.131" r="3.131" transform="translate(27.514 30.455)" fill="#ff8a3a"/>
      <circle id="Elipse_11578" data-name="Elipse 11578" cx="3.131" cy="3.131" r="3.131" transform="translate(24.953 36.14)" fill="#ff8a3a"/>
      <circle id="Elipse_11579" data-name="Elipse 11579" cx="3.232" cy="3.232" r="3.232" transform="translate(20.377 40.566)" fill="#ff8a3a"/>
      <circle id="Elipse_11580" data-name="Elipse 11580" cx="3.238" cy="3.238" r="3.238" transform="translate(14.283 42.633)" fill="#ff8a3a"/>
    </g>
    <ellipse id="Elipse_11581" data-name="Elipse 11581" cx="14.538" cy="21.371" rx="14.538" ry="21.371" transform="translate(74.785 3.933)" fill="#ffac55"/>
    <path id="Trazado_877433" data-name="Trazado 877433" d="M162.7,117.112c-3.268,0-5.626-2.748-6.74-4.386a24.7,24.7,0,0,1,0-25.406c1.114-1.638,3.472-4.386,6.74-4.386s5.626,2.748,6.74,4.386a24.7,24.7,0,0,1,0,25.406C168.328,114.364,165.97,117.112,162.7,117.112Z" transform="translate(-73.379 -74.719)" fill="#a0c9ff"/>
    <path id="Trazado_877434" data-name="Trazado 877434" d="M155.962,89.46c1.114-1.638,3.472-4.386,6.74-4.386s5.626,2.748,6.74,4.386a22.675,22.675,0,0,1,3.494,11.633c.014-.356.022-.712.022-1.07a23.1,23.1,0,0,0-3.517-12.7c-1.114-1.638-3.472-4.386-6.74-4.386s-5.626,2.748-6.74,4.386a23.1,23.1,0,0,0-3.517,12.7q0,.537.022,1.07A22.675,22.675,0,0,1,155.962,89.46Z" transform="translate(-73.379 -74.719)" opacity="0.1"/>
    <path id="Trazado_877435" data-name="Trazado 877435" d="M175.765,74.829c-3.638,0-6.2,2.968-7.4,4.737a18.015,18.015,0,0,0-1.338,2.34.8.8,0,1,0,1.448.694,16.409,16.409,0,0,1,1.217-2.131c1.025-1.507,3.178-4.035,6.076-4.035s5.051,2.528,6.076,4.035a22.28,22.28,0,0,1,3.378,12.251,23.173,23.173,0,0,1-2.607,10.991.8.8,0,1,0,1.407.774,24.8,24.8,0,0,0,2.806-11.765,23.912,23.912,0,0,0-3.656-13.154C181.965,77.8,179.4,74.829,175.765,74.829Z" transform="translate(-86.442 -67.417)"/>
    <path id="Trazado_877436" data-name="Trazado 877436" d="M161.673,195.924a.8.8,0,0,0-1.132.083c-2.01,2.326-3.9,2.815-5.14,2.815-2.9,0-5.051-2.528-6.076-4.035a22.279,22.279,0,0,1-3.378-12.251,25.347,25.347,0,0,1,.974-6.99.8.8,0,0,0-1.541-.449,26.976,26.976,0,0,0-1.038,7.439A23.911,23.911,0,0,0,148,195.689c1.2,1.769,3.766,4.737,7.4,4.737,2.253,0,4.45-1.165,6.355-3.37A.8.8,0,0,0,161.673,195.924Z" transform="translate(-66.078 -157.231)"/>
    <path id="Trazado_877437" data-name="Trazado 877437" d="M107.647,22.032a3.938,3.938,0,0,0-2.232-3.546,3.934,3.934,0,0,0-2.2-6.409A3.931,3.931,0,0,0,99.2,6.42a3.935,3.935,0,0,0-6.164-3.779,3.932,3.932,0,0,0-7.428,0A3.931,3.931,0,0,0,79.445,6.42a3.886,3.886,0,0,0-.5-.032,3.931,3.931,0,0,0-3.519,5.689,3.934,3.934,0,0,0-2.2,6.409,3.935,3.935,0,0,0-.683,6.677,3.935,3.935,0,0,0,.666,6.668,3.93,3.93,0,0,0,2.08,6.385,3.931,3.931,0,0,0,3.954,5.759,4.034,4.034,0,0,0,6.241,3.971,4.039,4.039,0,0,0,7.666,0A4.031,4.031,0,0,0,99.4,43.975a3.932,3.932,0,0,0,3.955-5.759,3.93,3.93,0,0,0,2.08-6.385,3.935,3.935,0,0,0,.667-6.668A3.924,3.924,0,0,0,107.647,22.032Zm-5.223-8.43a2.329,2.329,0,0,1,1.349,4.226,27.271,27.271,0,0,0-1.408-4.226ZM99.7,7.993a2.327,2.327,0,0,1,1.8,3.8,20.584,20.584,0,0,0-2.484-3.7A2.329,2.329,0,0,1,99.7,7.993ZM95.309,3.526A2.327,2.327,0,0,1,97.531,6.55,13.589,13.589,0,0,0,93.8,4.083,2.317,2.317,0,0,1,95.309,3.526ZM89.323,1.605a2.332,2.332,0,0,1,2.259,1.764,10.81,10.81,0,0,0-4.517,0A2.332,2.332,0,0,1,89.323,1.605ZM83.337,3.526a2.316,2.316,0,0,1,1.512.557A13.582,13.582,0,0,0,81.115,6.55a2.327,2.327,0,0,1,2.221-3.024ZM78.949,7.993a2.328,2.328,0,0,1,.681.1,20.6,20.6,0,0,0-2.484,3.7,2.327,2.327,0,0,1,1.8-3.8ZM76.221,13.6h.059a27.255,27.255,0,0,0-1.409,4.225A2.329,2.329,0,0,1,76.221,13.6Zm-1.756,6.149A31.581,31.581,0,0,0,74,24.168a2.329,2.329,0,0,1,.462-4.417ZM72.6,28.293a2.324,2.324,0,0,1,1.389-2.132,31.73,31.73,0,0,0,.422,4.4A2.332,2.332,0,0,1,72.6,28.293Zm1.267,6.1a2.333,2.333,0,0,1,.939-1.868,27.517,27.517,0,0,0,1.348,4.2A2.331,2.331,0,0,1,73.871,34.389Zm4.89,8.012A2.328,2.328,0,0,1,77,38.545,20.921,20.921,0,0,0,79.451,42.3,2.334,2.334,0,0,1,78.761,42.4Zm4.473,4.63a2.435,2.435,0,0,1-2.319-3.161,13.727,13.727,0,0,0,3.851,2.618A2.428,2.428,0,0,1,83.234,47.031Zm6.089,2.077a2.439,2.439,0,0,1-2.374-1.9,10.863,10.863,0,0,0,4.748,0A2.439,2.439,0,0,1,89.323,49.108Zm6.089-2.077a2.429,2.429,0,0,1-1.532-.543,13.727,13.727,0,0,0,3.851-2.618,2.435,2.435,0,0,1-2.319,3.161Zm4.473-4.63a2.324,2.324,0,0,1-.69-.1,20.915,20.915,0,0,0,2.447-3.753A2.328,2.328,0,0,1,99.885,42.4Zm.733-5.418h0a19.258,19.258,0,0,1-3.272,4.993l-.011.013L97.32,42a12.143,12.143,0,0,1-5.008,3.375l-.017.007-.029.008a9.332,9.332,0,0,1-5.888,0l-.028-.008-.018-.007A12.142,12.142,0,0,1,81.325,42l-.014-.013-.011-.013a19.253,19.253,0,0,1-3.273-5,25.855,25.855,0,0,1-1.859-5.763,30.044,30.044,0,0,1-.581-5.914v-.134s0,0,0,0,0,0,0,0a29.95,29.95,0,0,1,.634-6.041,25.6,25.6,0,0,1,1.918-5.736,18.94,18.94,0,0,1,3.344-4.953l.008-.009.015-.014a12,12,0,0,1,4.878-3.2l.048-.019c.013,0,.027-.005.04-.009a9.317,9.317,0,0,1,5.7,0l.048.012.041.016a12,12,0,0,1,4.878,3.2l.014.013.008.009a18.928,18.928,0,0,1,3.347,4.958,25.608,25.608,0,0,1,1.915,5.727,29.926,29.926,0,0,1,.635,6.045s0,0,0,0,0,0,0,0V25.3a30.026,30.026,0,0,1-.582,5.923A25.864,25.864,0,0,1,100.618,36.982Zm1.87-.266a27.511,27.511,0,0,0,1.348-4.2,2.328,2.328,0,0,1-1.348,4.2Zm1.743-6.153a31.71,31.71,0,0,0,.422-4.4,2.329,2.329,0,0,1-.422,4.4Zm.413-6.4a31.593,31.593,0,0,0-.462-4.417,2.329,2.329,0,0,1,.462,4.417Z"/>
  </g>
</svg>
