<svg id="Grupo_1099298" data-name="Grupo 1099298" xmlns="http://www.w3.org/2000/svg" xmlns:xlink="http://www.w3.org/1999/xlink" width="161.5" height="158.113" viewBox="0 0 161.5 158.113">
  <defs>
    <clipPath id="clip-path">
      <rect id="Rectángulo_401171" data-name="Rectángulo 401171" width="161.5" height="158.113" fill="none"/>
    </clipPath>
  </defs>
  <g id="Grupo_1098935" data-name="Grupo 1098935" clip-path="url(#clip-path)">
    <path id="Trazado_873935" data-name="Trazado 873935" d="M131.822,575.434c0,2.437-22.319,4.413-49.851,4.413s-49.852-1.976-49.852-4.413,22.319-4.413,49.852-4.413,49.851,1.976,49.851,4.413" transform="translate(-23.722 -421.734)" fill="#95dbb3" fill-rule="evenodd"/>
    <path id="Trazado_873936" data-name="Trazado 873936" d="M224.235,555.528c0,3.826-27.519,6.928-61.465,6.928s-61.466-3.1-61.466-6.928,27.519-6.928,61.466-6.928,61.465,3.1,61.465,6.928" transform="translate(-74.819 -405.175)" fill="#95dbb3" fill-rule="evenodd"/>
    <path id="Trazado_873937" data-name="Trazado 873937" d="M131.645,138.437s-25.755,18.046-44.955,1.419-31.161-34.538-56.253-38.984c-36.252-6.424-44.408-58.934-.765-86.246S118.14,4.532,133.263,15.913c28.638,21.552,46.372,86.98-1.619,122.524" transform="translate(0 0)" fill="#95dbb3" fill-rule="evenodd"/>
    <path id="Trazado_873938" data-name="Trazado 873938" d="M130.671,194.977l46.582.318c-1.7-12.521-2.441-16.978-1.994-30.035.93-17.78,31.714-33.043,23.3-69.22-6.369-27.386-34.55-39.169-66.782-30.538-14.616,3.914-25.62,12.382-28.721,27.192-.066.315-.429,3.912-.491,4.232-.75,3.865,1.285,16.427-.6,19.449-4.572,7.33-8.255,10.747-9.523,11.614-3.382,2.313-3.5,8.1,2.039,10.174,4.324,1.621,3.812.915,3.831,4.167a7.155,7.155,0,0,1-1.1,4.04c-.758,1.412-1.066,1.632-.359,3.213.723,1.616,3.172,2.666,3.172,2.666s-2.8,1.977.065,5.965c.632.878,1.873,1.352,2.038,2.051.881,3.73.611,3.577.6,4.98-.02,1.8.249,8.891,9.118,10.429,1.656.287,8.663.238,15.691-.147,1.241,9.053,1.133,11.75,3.134,19.448" transform="translate(-66.528 -46.321)" fill="#fcf9e8"/>
    <path id="Trazado_873939" data-name="Trazado 873939" d="M269.628,195.007a25.788,25.788,0,1,1-25.788-25.788,25.787,25.787,0,0,1,25.788,25.788" transform="translate(-161.046 -124.979)" fill="#082952" fill-rule="evenodd"/>
    <circle id="Elipse_11473" data-name="Elipse 11473" cx="2.884" cy="2.884" r="2.884" transform="matrix(0.987, -0.16, 0.16, 0.987, 140.454, 19.492)" fill="none" stroke="#0d367f" stroke-linecap="round" stroke-linejoin="round" stroke-width="2.027"/>
    <circle id="Elipse_11474" data-name="Elipse 11474" cx="2.884" cy="2.884" r="2.884" transform="translate(6.283 124.063)" fill="none" stroke="#0d367f" stroke-linecap="round" stroke-linejoin="round" stroke-width="2.027"/>
    <circle id="Elipse_11475" data-name="Elipse 11475" cx="2.884" cy="2.884" r="2.884" transform="translate(9.593 5.329)" fill="none" stroke="#0d367f" stroke-linecap="round" stroke-linejoin="round" stroke-width="2.027"/>
    <path id="Trazado_873940" data-name="Trazado 873940" d="M233.358,493.4l9.819-.288-8.489,9.762Z" transform="translate(-172.349 -364.196)" fill="#e6d567"/>
    <path id="Trazado_873941" data-name="Trazado 873941" d="M277.41,130.767c0-10.909-9.623-19.752-21.494-19.752s-21.494,8.843-21.494,19.752a19.085,19.085,0,0,0,7.445,14.949,18.512,18.512,0,0,1,4.155,8.558,6.859,6.859,0,0,0,4.49,5.064,15.386,15.386,0,0,0,10.683.145,6.736,6.736,0,0,0,4.211-4.96,17.8,17.8,0,0,1,4.129-8.393c.073-.081.14-.16.2-.237a19.116,19.116,0,0,0,7.674-15.127" transform="translate(-173.136 -81.991)" fill="#e6d567"/>
    <path id="Trazado_873942" data-name="Trazado 873942" d="M298.444,312.887h-6.532a4.653,4.653,0,0,1-4.64-4.64v-7.178a1.449,1.449,0,0,1,1.445-1.445h12.921a1.449,1.449,0,0,1,1.445,1.445v7.178a4.653,4.653,0,0,1-4.64,4.64" transform="translate(-212.168 -221.291)" fill="#f6f0ca"/>
    <path id="Trazado_873943" data-name="Trazado 873943" d="M292.934,210.731c.128-.382,0-16.322,0-16.322s-.191-8.99,4.782-7.523c4.659,1.374-.264,9.15-6.283,9.625a12.459,12.459,0,0,1-1.485,0c-6.046-.429-11.016-8.251-6.341-9.629,4.973-1.466,4.782,7.523,4.782,7.523s-.128,15.939,0,16.322" transform="translate(-208.097 -137.908)" fill="none" stroke="#082952" stroke-linecap="round" stroke-linejoin="round" stroke-width="3.283"/>
    <path id="Trazado_873944" data-name="Trazado 873944" d="M292.844,295.184H278.719a4.031,4.031,0,0,1,0-8.063h14.125a4.031,4.031,0,0,1,0,8.063" transform="translate(-202.874 -212.056)" fill="#f6f0ca"/>
    <path id="Trazado_873945" data-name="Trazado 873945" d="M320.492,317.53v3.46l-9.649-3.348Z" transform="translate(-229.576 -234.515)" fill="#f6f0ca"/>
    <path id="Trazado_873946" data-name="Trazado 873946" d="M494.514,293.889h0a.756.756,0,0,0,.715-.892L482.946,191.412a.973.973,0,0,0-.927-.866.756.756,0,0,0-.714.892l12.283,101.586a.973.973,0,0,0,.927.866" transform="translate(-355.468 -140.73)" fill="#082952"/>
    <path id="Trazado_873947" data-name="Trazado 873947" d="M434.49,294.831h0a.756.756,0,0,0,.715-.892L422.922,192.354a.973.973,0,0,0-.927-.866.756.756,0,0,0-.715.892l12.283,101.586a.973.973,0,0,0,.927.866" transform="translate(-311.137 -141.425)" fill="#082952"/>
    <path id="Trazado_873948" data-name="Trazado 873948" d="M428.81,238.156l14.458-.227a.9.9,0,0,0,.842-.9.832.832,0,0,0-.816-.877l-14.458.227a.9.9,0,0,0-.842.9.832.832,0,0,0,.816.877" transform="translate(-316.1 -174.411)" fill="#1a3461"/>
    <path id="Trazado_873949" data-name="Trazado 873949" d="M434.434,282.572l14.458-.227a.9.9,0,0,0,.842-.9.832.832,0,0,0-.815-.877l-14.458.227a.9.9,0,0,0-.842.9.832.832,0,0,0,.816.877" transform="translate(-320.254 -207.215)" fill="#082952"/>
    <path id="Trazado_873950" data-name="Trazado 873950" d="M440.391,321.949l14.458-.227a.9.9,0,0,0,.842-.9.832.832,0,0,0-.815-.877l-14.458.227a.9.9,0,0,0-.842.9.832.832,0,0,0,.815.877" transform="translate(-324.654 -236.297)" fill="#082952"/>
    <path id="Trazado_873951" data-name="Trazado 873951" d="M443.242,362.506l14.458-.227a.9.9,0,0,0,.842-.9.832.832,0,0,0-.815-.877l-14.458.227a.9.9,0,0,0-.842.9.832.832,0,0,0,.816.877" transform="translate(-326.759 -266.251)" fill="#082952"/>
    <path id="Trazado_873952" data-name="Trazado 873952" d="M448.917,403.479l14.458-.227a.9.9,0,0,0,.842-.9.832.832,0,0,0-.815-.877l-14.458.227a.9.9,0,0,0-.842.9.832.832,0,0,0,.816.877" transform="translate(-330.951 -296.512)" fill="#082952"/>
    <path id="Trazado_873953" data-name="Trazado 873953" d="M453.411,444.713l14.458-.227a.9.9,0,0,0,.842-.9.832.832,0,0,0-.815-.877l-14.458.227a.9.9,0,0,0-.842.9.832.832,0,0,0,.816.877" transform="translate(-334.27 -326.966)" fill="#082952"/>
    <path id="Trazado_873954" data-name="Trazado 873954" d="M456.959,485.447l14.458-.227a.9.9,0,0,0,.842-.9.832.832,0,0,0-.815-.877l-14.458.227a.9.9,0,0,0-.842.9.832.832,0,0,0,.816.877" transform="translate(-336.89 -357.051)" fill="#082952"/>
    <path id="Trazado_873955" data-name="Trazado 873955" d="M463.684,527.777l14.458-.227a.9.9,0,0,0,.842-.9.832.832,0,0,0-.816-.877L463.711,526a.9.9,0,0,0-.842.9.832.832,0,0,0,.816.877" transform="translate(-341.857 -388.314)" fill="#082952"/>
    <path id="Trazado_873956" data-name="Trazado 873956" d="M497.276,246.236c-3.114-2.775-4.172-3.981-7.235-6.84l-1.5,1.209c3.459,6.608,4.488,9.062,7.826,10.467,3.433-1.738,1.481-4.036.906-4.836" transform="translate(-360.82 -176.809)" fill="#c95836"/>
    <path id="Trazado_873957" data-name="Trazado 873957" d="M481.715,234.071l-1.35-1.614a1.757,1.757,0,0,0-1.061-.607l-1.68-.278a.85.85,0,0,0-.972,1l1.811,1.934a2.647,2.647,0,0,0,1.628.781l1.077.127Z" transform="translate(-352.024 -171.021)" fill="#c95836"/>
    <path id="Trazado_873958" data-name="Trazado 873958" d="M474.949,271.206l9.728-.465a.622.622,0,1,0-.06-1.242l-9.728.465a.621.621,0,0,0,.059,1.242" transform="translate(-350.298 -199.042)" fill="#d1d1d1" fill-rule="evenodd"/>
    <path id="Trazado_873959" data-name="Trazado 873959" d="M491.752,300.472l9.728-.465a.621.621,0,0,0-.059-1.242l-9.728.465a.621.621,0,1,0,.059,1.242" transform="translate(-362.708 -220.656)" fill="#d1d1d1" fill-rule="evenodd"/>
    <path id="Trazado_873960" data-name="Trazado 873960" d="M541.172,389.395s.342-17.266-3.672-23.213l-2.242-17.2-9.2-2.939,12.759,43.986Z" transform="translate(-388.525 -255.576)" fill="#e3633d" fill-rule="evenodd"/>
    <path id="Trazado_873961" data-name="Trazado 873961" d="M567.083,507.949l-1.053,2.5a15.793,15.793,0,0,1-1.728,2.44c.032.54.52.522.864.375l5.553-3.736s1.147-1.118-1.4-3.015c-.77,1.133-1.534,2.081-2.235,1.432" transform="translate(-416.772 -374.094)" fill="#212526" fill-rule="evenodd"/>
    <path id="Trazado_873962" data-name="Trazado 873962" d="M524.736,346.633l4.456,18.8,5.22,18.689,7.61-1.622a26.53,26.53,0,0,1-1.1-4.3c-.03-1.086-.829-11.278-3.643-15.445l-2.782-20.95Z" transform="translate(-387.55 -252.445)" fill="#12263f" fill-rule="evenodd"/>
    <path id="Trazado_873963" data-name="Trazado 873963" d="M501.451,385.1s3.287-16.992.35-23.512l2.822-22.972-10.654,1.243,5.052,45.49Z" transform="translate(-364.826 -250.087)" fill="#e3633d" fill-rule="evenodd"/>
    <path id="Trazado_873964" data-name="Trazado 873964" d="M508.34,210.652l.966,3.752a1.291,1.291,0,0,0,.913.928,1.27,1.27,0,0,0,1.246-.347l.306-.318a1.669,1.669,0,0,0,.359-1.736l-1.611-4.345Z" transform="translate(-375.44 -154.053)" fill="#c95836" fill-rule="evenodd"/>
    <path id="Trazado_873965" data-name="Trazado 873965" d="M508.88,219.57l.41,1.207.888-1.363Z" transform="translate(-375.839 -162.051)" fill="#873b24" fill-rule="evenodd"/>
    <path id="Trazado_873966" data-name="Trazado 873966" d="M506.873,201.589a1.124,1.124,0,0,0-.574-1.477l-1.96-.856a1.185,1.185,0,0,0-1.466.586,12.163,12.163,0,0,0-1.119,3.12,1.361,1.361,0,0,0,.645,1.559c.6.262,2.653.47,3.3-.542a16.331,16.331,0,0,0,1.176-2.39" transform="translate(-370.549 -147.099)" fill="#c95836" fill-rule="evenodd"/>
    <path id="Trazado_873967" data-name="Trazado 873967" d="M510.246,202.456a2.812,2.812,0,0,0,2.812-3.312,2.865,2.865,0,0,0-.315-.929c-.9-1.473-2.358-2.527-4.5-1.49a8.009,8.009,0,0,0,2.008,5.731" transform="translate(-375.347 -144.986)" fill="#212526" fill-rule="evenodd"/>
    <path id="Trazado_873968" data-name="Trazado 873968" d="M509.839,210.212a.842.842,0,0,1-1.179.147.862.862,0,0,1,.082-1.2.842.842,0,0,1,1.179-.147.862.862,0,0,1-.082,1.2" transform="translate(-375.526 -154.238)" fill="#c95836" fill-rule="evenodd"/>
    <path id="Trazado_873969" data-name="Trazado 873969" d="M505.739,294.587l-14.462,1.8c-2.32.98-.727,14.547-.727,14.547l9.565-.014c4.548-.289,8.923.5,8.908-4.119-.029-8.479-3.284-12.213-3.284-12.213" transform="translate(-361.907 -217.571)" fill="#12263f" fill-rule="evenodd"/>
    <path id="Trazado_873970" data-name="Trazado 873970" d="M489.823,226.863l5.225-1.256,1.46-.117,3.945.866c1.97.7,3.833,11.676,3.833,11.676a41.746,41.746,0,0,1,3.017,14.232c-7.481,3.848-17.787,3.55-20.69.254-.762-9.871.156-18.877,3.211-25.655" transform="translate(-359.206 -166.538)" fill="#fcf9e8" fill-rule="evenodd"/>
    <path id="Trazado_873971" data-name="Trazado 873971" d="M498.973,514.5l-2.259,1.532a15.964,15.964,0,0,1-2.786,1.112c-.271.471.146.721.514.784l6.694-.125s1.574-.317.491-3.293c-1.267.534-2.426.916-2.654-.009" transform="translate(-364.732 -379.987)" fill="#212526" fill-rule="evenodd"/>
    <line id="Línea_565" data-name="Línea 565" x1="3.386" y2="0.273" transform="translate(139.77 93.119)" fill="none" stroke="#0d367f" stroke-linecap="round" stroke-linejoin="round" stroke-width="2"/>
    <path id="Trazado_873972" data-name="Trazado 873972" d="M491.534,352.1l1.3,20.6,2.34,19.277,7.772-.371a26.569,26.569,0,0,1-.436-4.42c.135-1.076.884-11.258-1.27-15.823L502.3,352.3Z" transform="translate(-363.028 -260.047)" fill="#12263f" fill-rule="evenodd"/>
    <path id="Trazado_873973" data-name="Trazado 873973" d="M458.151,247.724c-3.114-2.775-4.171-3.981-7.235-6.84l-1.5,1.209c3.459,6.608,4.488,9.062,7.826,10.467,3.433-1.738,1.48-4.036.906-4.836" transform="translate(-331.924 -177.908)" fill="#c95836"/>
    <path id="Trazado_873974" data-name="Trazado 873974" d="M442.59,235.559l-1.35-1.615a1.758,1.758,0,0,0-1.061-.607l-1.68-.278a.85.85,0,0,0-.972,1L439.338,236a2.646,2.646,0,0,0,1.628.781l1.077.127Z" transform="translate(-323.128 -172.12)" fill="#c95836"/>
    <path id="Trazado_873975" data-name="Trazado 873975" d="M481.966,234.006a1.557,1.557,0,0,0-2.887-.457c-2.35,4.215-5.736,10.717-4.77,11.585l.622.59a1.711,1.711,0,0,0,2.669-.4l4.077-7.231.826-1.388Z" transform="translate(-350.182 -171.901)" fill="#c95836" fill-rule="evenodd"/>
    <path id="Trazado_873976" data-name="Trazado 873976" d="M531.555,208.041a1.352,1.352,0,0,1,.125-1.1c1.5-2.735-2.54-4.006-3.758-4.678-1.271-.7-.171-2.895-2.755-3.4s-3.22.9-3.343.872a11.936,11.936,0,0,0,.615,2.358s1.287.238,1.586,2.716-.19,3.85,1.59,5.6,7.52-1.551,7.52-1.551a1.3,1.3,0,0,1-1.579-.818" transform="translate(-385.38 -146.792)" fill="#212526" fill-rule="evenodd"/>
    <path id="Trazado_873977" data-name="Trazado 873977" d="M487.544,233.612l-4.611,9.093-4.434-5.21s3.027-6.563,5.519-6.752Z" transform="translate(-353.402 -170.417)" fill="#fcf9e8" fill-rule="evenodd"/>
    <line id="Línea_566" data-name="Línea 566" x1="0.097" y2="7.523" transform="translate(138.962 94.115)" fill="none" stroke="#0d367f" stroke-linecap="round" stroke-linejoin="round" stroke-width="2"/>
    <line id="Línea_567" data-name="Línea 567" x1="2.849" y2="5.619" transform="translate(130.364 65.028)" fill="none" stroke="#ded491" stroke-linecap="round" stroke-linejoin="round" stroke-width="1.78"/>
    <path id="Trazado_873978" data-name="Trazado 873978" d="M295.5,539.28l-39.036-.27.113-16.461,39.036.27c-3.8-.026-3.91,16.435-.114,16.461" transform="translate(-189.414 -385.935)" fill="#f1ebe0"/>
    <path id="Trazado_873979" data-name="Trazado 873979" d="M295.752,519.273,256.883,519l.014-2,38.869.269a1,1,0,1,1-.014,2" transform="translate(-189.724 -381.84)" fill="#082952"/>
    <path id="Trazado_873980" data-name="Trazado 873980" d="M295.227,584.014l-38.795-.268.015-2.149,38.795.268a1.074,1.074,0,0,1-.015,2.148" transform="translate(-189.391 -429.546)" fill="#082952"/>
    <path id="Trazado_873981" data-name="Trazado 873981" d="M180.7,516.3l-40.348-.279c-.864-.006-1,19.03-.131,19.036l40.348.279c-4.577-.031-4.445-19.067.132-19.036" transform="translate(-103.126 -381.112)" fill="#082952"/>
    <path id="Trazado_873982" data-name="Trazado 873982" d="M140.175,516.125l-45.616-.315a6.046,6.046,0,0,0-6.088,6l-.048,6.944a6.047,6.047,0,0,0,6,6.088l45.616.315c-4.576-.032-4.445-19.067.132-19.036" transform="translate(-65.306 -380.957)" fill="#082952"/>
    <line id="Línea_568" data-name="Línea 568" x2="24.473" y2="0.169" transform="translate(77.54 139.464)" fill="none" stroke="#a9c4de" stroke-linecap="round" stroke-linejoin="round" stroke-width="1"/>
    <line id="Línea_569" data-name="Línea 569" x2="24.473" y2="0.169" transform="translate(77.514 143.296)" fill="none" stroke="#a9c4de" stroke-linecap="round" stroke-linejoin="round" stroke-width="1"/>
    <line id="Línea_570" data-name="Línea 570" x2="24.473" y2="0.169" transform="translate(77.488 147.129)" fill="none" stroke="#a9c4de" stroke-linecap="round" stroke-linejoin="round" stroke-width="1"/>
    <line id="Línea_571" data-name="Línea 571" x2="24.473" y2="0.169" transform="translate(77.461 150.962)" fill="none" stroke="#a9c4de" stroke-linecap="round" stroke-linejoin="round" stroke-width="1"/>
    <path id="Trazado_873983" data-name="Trazado 873983" d="M223.8,516.461l5.412.037c-2.943-.02-3.075,19.117-.132,19.138l-5.412-.037c-2.943-.02-2.811-19.158.132-19.138" transform="translate(-163.612 -381.438)" fill="#83b4e3"/>
    <path id="Trazado_873984" data-name="Trazado 873984" d="M198.727,516.288l3.044.021c-2.943-.02-3.075,19.118-.132,19.138l-3.044-.021c-2.943-.02-2.811-19.158.132-19.138" transform="translate(-145.092 -381.31)" fill="#83b4e3"/>
    <line id="Línea_572" data-name="Línea 572" x2="2.321" y2="3.441" transform="translate(65.676 25.974)" fill="none" stroke="#0d367f" stroke-linecap="round" stroke-linejoin="round" stroke-width="3"/>
    <line id="Línea_573" data-name="Línea 573" x1="2.635" y2="3.207" transform="translate(98.809 27.211)" fill="none" stroke="#0d367f" stroke-linecap="round" stroke-linejoin="round" stroke-width="3"/>
    <line id="Línea_574" data-name="Línea 574" x1="0.09" y2="4.15" transform="translate(81.836 18.258)" fill="none" stroke="#0d367f" stroke-linecap="round" stroke-linejoin="round" stroke-width="3"/>
  </g>
</svg>
