<svg id="Grupo_1098975" data-name="Grupo 1098975" xmlns="http://www.w3.org/2000/svg" xmlns:xlink="http://www.w3.org/1999/xlink" width="222.646" height="167.886" viewBox="0 0 222.646 167.886">
  <defs>
    <clipPath id="clip-path">
      <rect id="Rectángulo_401194" data-name="Rectángulo 401194" width="222.646" height="167.886" fill="none"/>
    </clipPath>
    <clipPath id="clip-path-2">
      <path id="Trazado_873994" data-name="Trazado 873994" d="M114.833,463.007a.4.4,0,0,0,.091.542l52.743,34.93a.366.366,0,0,0,.51-.144.444.444,0,0,0,.066-.241.365.365,0,0,0-.157-.3l-52.743-34.931a.321.321,0,0,0-.178-.053.4.4,0,0,0-.331.2" transform="translate(-114.767 -462.809)" fill="#59836b"/>
    </clipPath>
    <clipPath id="clip-path-3">
      <path id="Trazado_873995" data-name="Trazado 873995" d="M162.614,445.514a.441.441,0,0,0-.24.518l3.531,11.785a.332.332,0,0,0,.459.217.441.441,0,0,0,.256-.409.414.414,0,0,0-.017-.109l-3.531-11.785a.333.333,0,0,0-.319-.247.357.357,0,0,0-.14.03" transform="translate(-162.358 -445.484)" fill="#59836b"/>
    </clipPath>
    <clipPath id="clip-path-4">
      <path id="Trazado_873996" data-name="Trazado 873996" d="M226.272,459.523a.435.435,0,0,0-.3.484l2.831,17.606a.334.334,0,0,0,.423.284.435.435,0,0,0,.3-.425.413.413,0,0,0-.005-.058l-2.831-17.606a.337.337,0,0,0-.33-.3.354.354,0,0,0-.093.013" transform="translate(-225.967 -459.51)" fill="#59836b"/>
    </clipPath>
    <clipPath id="clip-path-5">
      <path id="Trazado_873997" data-name="Trazado 873997" d="M129.116,504.99l-12.688,3.947a.437.437,0,0,0-.286.492.334.334,0,0,0,.432.269l12.688-3.947a.436.436,0,0,0,.293-.422.447.447,0,0,0-.007-.07.336.336,0,0,0-.328-.285.348.348,0,0,0-.1.016" transform="translate(-116.135 -504.974)" fill="#59836b"/>
    </clipPath>
    <clipPath id="clip-path-6">
      <path id="Trazado_873998" data-name="Trazado 873998" d="M173.614,548.4l-16.533,6.018a.437.437,0,0,0-.265.5.333.333,0,0,0,.445.246l16.533-6.019a.438.438,0,0,0,.277-.417.416.416,0,0,0-.011-.088.334.334,0,0,0-.324-.267.352.352,0,0,0-.121.022" transform="translate(-156.805 -548.383)" fill="#59836b"/>
    </clipPath>
    <clipPath id="clip-path-7">
      <path id="Trazado_873999" data-name="Trazado 873999" d="M238.927,593.733l-16.533,6.019a.436.436,0,0,0-.265.5.332.332,0,0,0,.445.245l16.533-6.018a.438.438,0,0,0,.276-.417.4.4,0,0,0-.011-.088.334.334,0,0,0-.324-.267.355.355,0,0,0-.121.022" transform="translate(-222.117 -593.711)" fill="#59836b"/>
    </clipPath>
    <clipPath id="clip-path-8">
      <path id="Trazado_874000" data-name="Trazado 874000" d="M290.129,496.633a.434.434,0,0,0-.3.483l2.832,17.606a.335.335,0,0,0,.423.285.435.435,0,0,0,.3-.426.419.419,0,0,0-.005-.058l-2.832-17.606a.337.337,0,0,0-.33-.3.355.355,0,0,0-.093.013" transform="translate(-289.824 -496.62)" fill="#59836b"/>
    </clipPath>
    <clipPath id="clip-path-10">
      <path id="Trazado_874012" data-name="Trazado 874012" d="M772.466,258.76c-3.105,1.588-5.009,4.074-2.859,8.279a6.535,6.535,0,0,0,.8,1.193,6.676,6.676,0,0,0-1.592-.1c-4.711.328-5.859,3.241-5.617,6.72s1.783,6.206,6.494,5.878a8.315,8.315,0,0,0,3.076-.946,7.651,7.651,0,0,0-1.135,2.311c-1.217,4.563,1.167,6.594,4.537,7.492s6.449.325,7.666-4.238a7.157,7.157,0,0,0,.2-2.068,7.583,7.583,0,0,0,1.722,1.812c3.847,2.738,6.585,1.217,8.607-1.624s2.564-5.926-1.284-8.664a8.29,8.29,0,0,0-2.945-1.208,7.4,7.4,0,0,0,2.177-.885c3.987-2.53,3.611-5.639,1.742-8.584s-4.521-4.61-8.509-2.079c-1.684,1.069-3,3.241-3.965,5.393a11.781,11.781,0,0,0-.728-6.152c-1.314-2.571-3-3.538-4.814-3.538a8.014,8.014,0,0,0-3.572,1.007" transform="translate(-763.17 -257.753)" fill="#fcf9e8"/>
    </clipPath>
    <clipPath id="clip-path-12">
      <path id="Trazado_874045" data-name="Trazado 874045" d="M314.993,442.646l-14.131,12.309a5.127,5.127,0,0,0-.925,7.2l11.356,14.684c-.353,9.287-.068,17.161.665,31.125H392.2c.114-14.357.771-22.28.465-31.917l10.743-13.892a5.127,5.127,0,0,0-.925-7.2l-15.611-13.6-.007,0c-8.354-8.515-22.626-9.068-22.626-9.068l-24.294-.318s-17.175.9-24.954,10.674" transform="translate(-298.865 -431.972)" fill="#35a064"/>
    </clipPath>
    <clipPath id="clip-path-14">
      <path id="Trazado_874048" data-name="Trazado 874048" d="M465.7,506.225s-10.743-15.662-19.383-11.841a7.939,7.939,0,0,0-3.915,3.33c-6.456,11.6,24.3,39.667,24.3,39.667s33.155-32.331,20.013-43.35a7.236,7.236,0,0,0-4.745-1.834c-8.154,0-16.267,14.028-16.267,14.028" transform="translate(-441.512 -492.197)" fill="#e6d567"/>
    </clipPath>
  </defs>
  <g id="Grupo_1098946" data-name="Grupo 1098946">
    <g id="Grupo_1098945" data-name="Grupo 1098945" clip-path="url(#clip-path)">
      <path id="Trazado_873989" data-name="Trazado 873989" d="M696.356,87.026A34.736,34.736,0,1,1,661.619,52.29a34.736,34.736,0,0,1,34.736,34.736" transform="translate(-502.693 -41.931)" fill="#f6f0ca"/>
      <path id="Trazado_873990" data-name="Trazado 873990" d="M69.473,322.2a34.736,34.736,0,1,1-34.736-34.736A34.736,34.736,0,0,1,69.473,322.2" transform="translate(0 -230.519)" fill="#effaf4"/>
      <path id="Trazado_873991" data-name="Trazado 873991" d="M37.016,148.232A43.144,43.144,0,0,1,19.833,125.3c-4.673-14.715,4.379-34.395,31.575-60.668,15.8-15.269,3.7-52.075,44.3-62.669,35.069-9.152,53.87,15.681,67.524,31.835a48.426,48.426,0,0,0,30.65,16.891c14.739,1.924,35.469,10.41,42.722,41.7,9.562,41.255-50.325,102.264-111.991,40.82-41.026-40.878-51.634,38.838-87.591,15.014" transform="translate(-14.964 0)" fill="#95dbb3"/>
      <path id="Trazado_873992" data-name="Trazado 873992" d="M117.015,602.887s-14.435-32.336-62.538-12.113c0,0,29.064,40.846,62.538,12.113" transform="translate(-43.685 -468.403)" fill="#effaf4"/>
      <path id="Trazado_873993" data-name="Trazado 873993" d="M135.381,478.847s-4.911-51.8-76.1-48.1c0,0,20.28,70.876,76.1,48.1" transform="translate(-47.537 -345.26)" fill="#77af8f"/>
    </g>
  </g>
  <g id="Grupo_1098948" data-name="Grupo 1098948" transform="translate(22.736 91.686)">
    <g id="Grupo_1098947" data-name="Grupo 1098947" clip-path="url(#clip-path-2)">
      <rect id="Rectángulo_401195" data-name="Rectángulo 401195" width="53.527" height="35.78" transform="translate(-0.05)" fill="#59836b"/>
    </g>
  </g>
  <g id="Grupo_1098950" data-name="Grupo 1098950" transform="translate(32.164 88.254)">
    <g id="Grupo_1098949" data-name="Grupo 1098949" clip-path="url(#clip-path-3)">
      <rect id="Rectángulo_401196" data-name="Rectángulo 401196" width="4.31" height="12.632" transform="translate(-0.043 0)" fill="#59836b"/>
    </g>
  </g>
  <g id="Grupo_1098952" data-name="Grupo 1098952" transform="translate(44.766 91.032)">
    <g id="Grupo_1098951" data-name="Grupo 1098951" clip-path="url(#clip-path-4)">
      <rect id="Rectángulo_401197" data-name="Rectángulo 401197" width="3.597" height="18.442" transform="translate(-0.029 0)" fill="#59836b"/>
    </g>
  </g>
  <g id="Grupo_1098954" data-name="Grupo 1098954" transform="translate(23.007 100.039)">
    <g id="Grupo_1098953" data-name="Grupo 1098953" clip-path="url(#clip-path-5)">
      <rect id="Rectángulo_401198" data-name="Rectángulo 401198" width="13.457" height="4.786" transform="translate(-0.033)" fill="#59836b"/>
    </g>
  </g>
  <g id="Grupo_1098956" data-name="Grupo 1098956" transform="translate(31.064 108.639)">
    <g id="Grupo_1098955" data-name="Grupo 1098955" clip-path="url(#clip-path-6)">
      <rect id="Rectángulo_401199" data-name="Rectángulo 401199" width="17.309" height="6.861" transform="translate(-0.039 0)" fill="#59836b"/>
    </g>
  </g>
  <g id="Grupo_1098958" data-name="Grupo 1098958" transform="translate(44.003 117.618)">
    <g id="Grupo_1098957" data-name="Grupo 1098957" clip-path="url(#clip-path-7)">
      <rect id="Rectángulo_401200" data-name="Rectángulo 401200" width="17.309" height="6.861" transform="translate(-0.039 0)" fill="#59836b"/>
    </g>
  </g>
  <g id="Grupo_1098960" data-name="Grupo 1098960" transform="translate(57.416 98.384)">
    <g id="Grupo_1098959" data-name="Grupo 1098959" clip-path="url(#clip-path-8)">
      <rect id="Rectángulo_401201" data-name="Rectángulo 401201" width="3.599" height="18.442" transform="translate(-0.03 0)" fill="#59836b"/>
    </g>
  </g>
  <g id="Grupo_1098962" data-name="Grupo 1098962">
    <g id="Grupo_1098961" data-name="Grupo 1098961" clip-path="url(#clip-path)">
      <path id="Trazado_874001" data-name="Trazado 874001" d="M708.784,480.956s32.829,13.278,53.449-34.656c0,0-49.269-9.26-53.449,34.656" transform="translate(-568.369 -357.231)" fill="#77af8f"/>
      <path id="Trazado_874002" data-name="Trazado 874002" d="M734.04,197.008c-.346-.065.9-19.057,26.367-17.639,0,0-8.55,20.958-26.367,17.639" transform="translate(-588.589 -143.773)" fill="#77af8f"/>
      <path id="Trazado_874003" data-name="Trazado 874003" d="M641.338,226.031c-.182.291-18.807-13.091-6.635-30.3,0,0,16.021,15.27,6.635,30.3" transform="translate(-505.656 -156.954)" fill="#59836b"/>
      <path id="Trazado_874004" data-name="Trazado 874004" d="M675.32,347.246c-.363-.227,13.507-23.64,34.964-8.433,0,0-16.223,20.163-34.964,8.433" transform="translate(-541.529 -267.577)" fill="#77af8f"/>
      <path id="Trazado_874005" data-name="Trazado 874005" d="M659.294,294.335s3.231-30.343,16.533-43.658a1.217,1.217,0,1,0-1.754-1.686c-3.459,3.68-14.9,17.5-17.239,41.473Z" transform="translate(-526.711 -199.355)" fill="#59836b"/>
      <path id="Trazado_874006" data-name="Trazado 874006" d="M321.313,792.392c0,3.343-36.29,6.054-81.056,6.054s-81.056-2.71-81.056-6.054,36.29-6.054,81.056-6.054,81.056,2.71,81.056,6.054" transform="translate(-127.662 -630.559)" fill="#effaf4" fill-rule="evenodd"/>
      <path id="Trazado_874007" data-name="Trazado 874007" d="M735.977,581.671s27.276-20.263,52.532-7.459l-44.937,14.446s24.515-6.489,36.023,21.087c0,0-24.6-13.426-40.769-10.406,0,0-15.521,5.1-22.187,9.666-14.08,9.654,19.339-27.334,19.339-27.334" transform="translate(-571.891 -457.055)" fill="#77af8f"/>
      <path id="Trazado_874008" data-name="Trazado 874008" d="M997.513,473.186a3.6,3.6,0,1,1,3.6-3.6,3.606,3.606,0,0,1-3.6,3.6m0-6.395a2.793,2.793,0,1,0,2.794,2.793,2.8,2.8,0,0,0-2.794-2.793" transform="translate(-797.01 -373.668)" fill="#59836b"/>
      <path id="Trazado_874009" data-name="Trazado 874009" d="M506.182,109.912a3.6,3.6,0,1,1,3.6-3.6,3.606,3.606,0,0,1-3.6,3.6m0-6.395a2.793,2.793,0,1,0,2.793,2.793,2.8,2.8,0,0,0-2.793-2.793" transform="translate(-403.015 -82.362)" fill="#59836b"/>
      <path id="Trazado_874010" data-name="Trazado 874010" d="M144.623,697.227a3.6,3.6,0,1,1,3.6-3.6,3.606,3.606,0,0,1-3.6,3.6m0-6.395a2.793,2.793,0,1,0,2.793,2.794,2.8,2.8,0,0,0-2.793-2.794" transform="translate(-113.084 -553.325)" fill="#59836b"/>
      <path id="Trazado_874011" data-name="Trazado 874011" d="M611.988,426.441a.67.67,0,0,1-.114-.01.661.661,0,0,1-.539-.764,180.791,180.791,0,0,1,9.322-31.52,158.2,158.2,0,0,1,13.981-27.667,103.189,103.189,0,0,1,22.309-25.228.661.661,0,0,1,.821,1.037,101.853,101.853,0,0,0-22.01,24.893A156.853,156.853,0,0,0,621.9,394.6a179.468,179.468,0,0,0-9.26,31.289.662.662,0,0,1-.651.549" transform="translate(-490.218 -273.533)" fill="#fff"/>
    </g>
  </g>
  <g id="Grupo_1098964" data-name="Grupo 1098964" transform="translate(151.189 51.063)">
    <g id="Grupo_1098963" data-name="Grupo 1098963" clip-path="url(#clip-path-10)">
      <rect id="Rectángulo_401203" data-name="Rectángulo 401203" width="43.266" height="43.931" transform="translate(-11.815 27.91) rotate(-67.425)" fill="#fcf9e8"/>
    </g>
  </g>
  <g id="Grupo_1098966" data-name="Grupo 1098966">
    <g id="Grupo_1098965" data-name="Grupo 1098965" clip-path="url(#clip-path)">
      <path id="Trazado_874013" data-name="Trazado 874013" d="M830.67,324.758a3.785,3.785,0,1,0,2.649-4.651,3.785,3.785,0,0,0-2.649,4.651" transform="translate(-666 -256.583)" fill="#fff"/>
      <path id="Trazado_874014" data-name="Trazado 874014" d="M854.432,302.875a.406.406,0,0,1-.075-.007.4.4,0,0,1-.315-.463l.5-2.633a.4.4,0,0,1,.778.149l-.5,2.633a.4.4,0,0,1-.389.322" transform="translate(-684.845 -240.127)" fill="#f6f0ca"/>
      <path id="Trazado_874015" data-name="Trazado 874015" d="M805.926,313.922a.4.4,0,0,1-.152-.03l-5.3-2.206a.4.4,0,0,1,.3-.731l5.3,2.205a.4.4,0,0,1-.152.762" transform="translate(-641.695 -249.328)" fill="#f6f0ca"/>
      <path id="Trazado_874016" data-name="Trazado 874016" d="M873.059,336.681a.4.4,0,0,1,0-.792c2.092-.011,4.423-.063,4.743-.132a.4.4,0,0,1,.3.731c-.09.042-.364.169-5.041.193Zm4.733-.921-.023.01.023-.01" transform="translate(-699.782 -269.222)" fill="#f6f0ca"/>
      <path id="Trazado_874017" data-name="Trazado 874017" d="M860.443,364.186a.4.4,0,0,1-.376-.273l-1.479-4.518a.4.4,0,0,1,.753-.246l1.479,4.517a.4.4,0,0,1-.376.519" transform="translate(-688.479 -287.78)" fill="#f6f0ca"/>
      <path id="Trazado_874018" data-name="Trazado 874018" d="M810.9,354.7a.4.4,0,0,1-.239-.712l2.558-1.934a.4.4,0,1,1,.478.632l-2.558,1.934a.394.394,0,0,1-.238.08" transform="translate(-649.938 -282.243)" fill="#f6f0ca"/>
      <path id="Trazado_874019" data-name="Trazado 874019" d="M187.838,207.248c.385-.13-4.15-21.669-33.072-15.878,0,0,13.218,22.593,33.072,15.878" transform="translate(-124.106 -152.666)" fill="#77af8f"/>
      <path id="Trazado_874020" data-name="Trazado 874020" d="M369.982,214.187c.256.3,19.387-18.064,2.636-35.776,0,0-15.842,20.1-2.636,35.776" transform="translate(-292.471 -143.067)" fill="#77af8f"/>
      <path id="Trazado_874021" data-name="Trazado 874021" d="M243.325,368.581c.379-.32-19.333-24.853-41.408-3.931,0,0,21.872,20.427,41.408,3.931" transform="translate(-161.916 -285.644)" fill="#77af8f"/>
      <path id="Trazado_874022" data-name="Trazado 874022" d="M322.761,304.543s-8.666-34.208-26.074-47.274a1.407,1.407,0,1,1,1.732-2.218c4.562,3.647,19.919,17.6,26.524,44.657Z" transform="translate(-237.462 -204.275)" fill="#77af8f"/>
      <path id="Trazado_874023" data-name="Trazado 874023" d="M361.25,305.918a16.216,16.216,0,0,1-5.339,7.1c-3.8,2.686-2.492,5.2-4.339,8.812-2.6,5.083-8.209,3.488-10.341,9.818-2.065,6.131-12.348,3.654-12.348,15.329l26.537,5.452,22.812,12.706-2.3-65.075Z" transform="translate(-263.729 -240.615)" fill="#12263f"/>
      <path id="Trazado_874024" data-name="Trazado 874024" d="M566.368,300.843s5.662,9.491,9.465,12.176,2.422,5.015,4.269,8.63c2.6,5.083,14.737,6.688,14.456,13.152s11.006,1.724,11.006,13.4l-29.238,4.23-22.812,12.706,2.3-65.075Z" transform="translate(-443.858 -240.616)" fill="#12263f"/>
      <path id="Trazado_874025" data-name="Trazado 874025" d="M490.339,338.492l-8.1-28.241-20.645-8.292s-2.24,11.957-4.845,20.311c-1.158,3.714-10.612,17.608-6.781,18.283Z" transform="translate(-360.096 -242.139)" fill="#12263f"/>
      <path id="Trazado_874026" data-name="Trazado 874026" d="M722.021,503l23.227,25.684L735.1,558.5l-21.87-42.823Z" transform="translate(-571.936 -403.35)" fill="#fcf9e8" fill-rule="evenodd"/>
      <path id="Trazado_874027" data-name="Trazado 874027" d="M445.594,371.771s2.081,5.263-.589,7.074-4.356,3.545-4.684,5.137.843,5.761-3.981,7.447-6.293.469-6,.191a32.658,32.658,0,0,0,7.406-10.73l4.45-8.079Z" transform="translate(-345.057 -298.121)" fill="#12263f"/>
      <path id="Trazado_874028" data-name="Trazado 874028" d="M612.45,354.566s-1.593,3.185-.468,5.574,4.262,3.056,4.262,5.79,2.415,9.854,8.907,12.8c1.244.563-.784-5.811-1.164-8.2a19.426,19.426,0,0,0-4.042-8.6l-2.717-7.715Z" transform="translate(-490.422 -284.035)" fill="#12263f"/>
      <path id="Trazado_874029" data-name="Trazado 874029" d="M542.9,347.988s.528,6.634.965,12.13a3.977,3.977,0,0,1-1.891,3.678c-1.285.808-8.72,2.022-8.748-2.877-.029-5.156.578-16.882.578-16.882Z" transform="translate(-427.593 -275.88)" fill="#fcf9e8" fill-rule="evenodd"/>
      <path id="Trazado_874030" data-name="Trazado 874030" d="M607.3,314.8c-1.094-1.136-5.517-13.281-6.179-14.462-3.744-6.679-1.576-8.738.166-5.769,1.049,1.787,4.92,6.656,7.82,10.577a6.656,6.656,0,0,1-1.122,9.089Z" transform="translate(-480.381 -235.153)" fill="#12263f"/>
      <path id="Trazado_874031" data-name="Trazado 874031" d="M520.9,299.788c.082-1.413-.149-6.92.367-8.312a6.418,6.418,0,0,1,4.138-4.247l4.967-.283a6.339,6.339,0,0,1,5.482,4.529c.516,1.392.285,6.9.367,8.312.266,4.583.78,11.078-5.59,11.036l-.259,0v-1.412h-3.624v1.412l-.259,0c-6.369.042-5.856-6.454-5.59-11.036" transform="translate(-417.594 -230.1)" fill="#fcf9e8"/>
      <path id="Trazado_874032" data-name="Trazado 874032" d="M562.895,348.465a.26.26,0,0,1-.021-.52c.14-.012.183-.031.222-.068a.579.579,0,0,0,.107-.633l-.969-2.418c0-.01-.007-.02-.01-.03-.023-.085-.548-2.1.439-2.885a.26.26,0,1,1,.325.407c-.593.473-.4,1.827-.265,2.329l.963,2.4a1.1,1.1,0,0,1-.23,1.2.823.823,0,0,1-.538.21h-.022" transform="translate(-450.714 -274.131)" fill="#3c1c54"/>
      <path id="Trazado_874033" data-name="Trazado 874033" d="M537.876,274.491c4.495,3.245,2.89,7.072,4.645,6.945s6.039,4.469,5.229,7.169c-.108.36,4.017,8.648,3.7,5.079-.574-6.488-3.369-15.429-6.981-23.495-1.892-4.225-6.288-5.549-9.451-5.779s-4.792,2.557-7.7,6.945c0,0,4.491-1.243,10.556,3.135" transform="translate(-422.854 -212.018)" fill="#12263f"/>
      <path id="Trazado_874034" data-name="Trazado 874034" d="M480.593,282.412c.578-7.806,8.326-11.335,8.326-11.335l-.787-1.313s.5-3.942-4.216-3.178-6.692,5.821-7.831,9.07c-.686,1.956-3.548,7.478-5.64,11.884-.844,1.778,1.052,5.147,4.08,3.349,2.414-1.433,6.024-7.878,6.068-8.476" transform="translate(-377.085 -213.695)" fill="#12263f"/>
      <path id="Trazado_874035" data-name="Trazado 874035" d="M500.895,347.313c.914,1.845,2.846,2.916,4.315,2.393s1.919-2.443,1-4.288-2.846-2.916-4.315-2.393-1.918,2.443-1,4.288" transform="translate(-401.285 -274.964)" fill="#fcf9e8"/>
      <path id="Trazado_874036" data-name="Trazado 874036" d="M509.906,352.26a.261.261,0,0,1-.2-.094c-.194-.231-.816-.8-1.348-.679a.26.26,0,1,1-.119-.507,1.585,1.585,0,0,1,1.205.278c-.278-.866-.871-2.16-1.962-2.346a.26.26,0,0,1,.087-.513c2.014.342,2.57,3.425,2.593,3.556a.26.26,0,0,1-.256.3" transform="translate(-406.773 -279.376)" fill="#3c1c54"/>
      <path id="Trazado_874037" data-name="Trazado 874037" d="M594.317,347.313c-.914,1.845-2.846,2.916-4.315,2.393s-1.919-2.443-1-4.288,2.846-2.916,4.315-2.393,1.918,2.443,1,4.288" transform="translate(-471.934 -274.964)" fill="#fcf9e8"/>
      <path id="Trazado_874038" data-name="Trazado 874038" d="M598.927,352.26a.26.26,0,0,1-.256-.3c.023-.131.579-3.213,2.593-3.556a.26.26,0,0,1,.087.514c-1.091.185-1.684,1.48-1.962,2.346a1.585,1.585,0,0,1,1.205-.279.26.26,0,1,1-.119.507c-.637-.149-1.341.671-1.348.679a.261.261,0,0,1-.2.094" transform="translate(-480.066 -279.375)" fill="#3c1c54"/>
      <path id="Trazado_874039" data-name="Trazado 874039" d="M632.681,362.526a.2.2,0,0,1-.132-.051c-.349-.314-.724-.639-1.116-.967-3.149-2.631-3.14-3.5-3.1-7.173,0-.434.009-.908.009-1.43,0-1.709-1.869-4.963-4.05-6.325a.2.2,0,1,1,.21-.336c1.907,1.191,4.237,4.5,4.237,6.661,0,.524,0,1-.01,1.435-.037,3.6-.045,4.354,2.96,6.865.4.331.775.66,1.127.977a.2.2,0,0,1-.133.345" transform="translate(-500.538 -277.626)" fill="#fff"/>
      <path id="Trazado_874040" data-name="Trazado 874040" d="M471.38,380.266a.194.194,0,0,1-.041,0,.2.2,0,0,1-.153-.235,18.952,18.952,0,0,0,.3-3.28c.026-.8.051-1.565.146-2.29.462-3.507,3.7-5.978,3.837-6.082a.2.2,0,1,1,.238.317c-.032.024-3.243,2.477-3.682,5.817-.093.706-.117,1.456-.143,2.251a19.258,19.258,0,0,1-.3,3.349.2.2,0,0,1-.194.157" transform="translate(-377.837 -295.366)" fill="#fff"/>
      <path id="Trazado_874041" data-name="Trazado 874041" d="M548.4,289.334a.2.2,0,0,1-.2-.2v-1.849a.2.2,0,0,1,.4,0v1.849a.2.2,0,0,1-.2.2" transform="translate(-439.599 -230.215)" fill="#fff"/>
      <path id="Trazado_874042" data-name="Trazado 874042" d="M571.64,338.185h2.807a.611.611,0,1,0,0-1.222H571.64a.611.611,0,0,0,0,1.222" transform="translate(-457.904 -270.208)" fill="#3c1c54" fill-rule="evenodd"/>
      <path id="Trazado_874043" data-name="Trazado 874043" d="M530.723,338.185h2.807a.611.611,0,0,0,0-1.222h-2.807a.611.611,0,1,0,0,1.222" transform="translate(-425.093 -270.208)" fill="#3c1c54" fill-rule="evenodd"/>
      <path id="Trazado_874044" data-name="Trazado 874044" d="M278.757,503,255.53,528.682l10.146,29.82,21.87-42.823Z" transform="translate(-204.907 -403.35)" fill="#f1ebe0" fill-rule="evenodd"/>
    </g>
  </g>
  <g id="Grupo_1098968" data-name="Grupo 1098968" transform="translate(59.207 85.577)">
    <g id="Grupo_1098967" data-name="Grupo 1098967" clip-path="url(#clip-path-12)">
      <rect id="Rectángulo_401205" data-name="Rectángulo 401205" width="131.17" height="124.598" transform="matrix(0.805, -0.593, 0.593, 0.805, -36.944, 26.715)" fill="#35a064"/>
    </g>
  </g>
  <g id="Grupo_1098970" data-name="Grupo 1098970">
    <g id="Grupo_1098969" data-name="Grupo 1098969" clip-path="url(#clip-path)">
      <path id="Trazado_874046" data-name="Trazado 874046" d="M568.355,405.018s3.591,2.162,3.579,2.014-.167-2.885-.167-2.885a5.93,5.93,0,0,1-3.412.872" transform="translate(-455.76 -324.082)" fill="#3c1c54"/>
      <path id="Trazado_874047" data-name="Trazado 874047" d="M223.426,635.258l-16.365,10.5-5.67-13.11s-10.732,13.291-12.828,23.267c-2.2,10.483,4.418,17.615,12.828,14.965,16.413-5.173,30.176-20.366,30.176-20.366Z" transform="translate(-150.864 -507.315)" fill="#f1ebe0" fill-rule="evenodd"/>
    </g>
  </g>
  <g id="Grupo_1098972" data-name="Grupo 1098972" transform="translate(87.467 97.508)">
    <g id="Grupo_1098971" data-name="Grupo 1098971" clip-path="url(#clip-path-14)">
      <rect id="Rectángulo_401207" data-name="Rectángulo 401207" width="63.908" height="46.818" transform="translate(-5.565 -1.634)" fill="#e6d567"/>
    </g>
  </g>
  <g id="Grupo_1098974" data-name="Grupo 1098974">
    <g id="Grupo_1098973" data-name="Grupo 1098973" clip-path="url(#clip-path)">
      <path id="Trazado_874049" data-name="Trazado 874049" d="M697.464,645.185s1.083,8.139,6.242,8.4c4.273.214,11-4.8,11-4.8a37.858,37.858,0,0,0-.141-13.569Z" transform="translate(-559.292 -509.37)" fill="#fcf9e8" fill-rule="evenodd"/>
      <path id="Trazado_874050" data-name="Trazado 874050" d="M702.134,558.639a7.2,7.2,0,0,0-3.743-3.405l-9.478-3.783a2.354,2.354,0,0,0-3.024,1.117c-.359.792-.262,1.739,1.277,2.568,1.947,1.048,5.409,3.13,8.032,4.729l-6.352,8.2-.781,9.556,5.567,4.744c3.8-3.795,8.31-8.277,10.431-10.321,2.887-2.783-.03-9.692-1.927-13.4" transform="translate(-549.87 -442.063)" fill="#fcf9e8"/>
      <path id="Trazado_874051" data-name="Trazado 874051" d="M680,561.182l-11.492-4.337a2.31,2.31,0,0,0-2.914,1.079c-.361.767-.263,1.724,1.283,2.673,3.436,2.107,14.723,8.472,14.723,8.472Z" transform="translate(-533.593 -446.404)" fill="#fcf9e8"/>
      <path id="Trazado_874052" data-name="Trazado 874052" d="M690.849,587.829l-13.84-6.366s-2.777,2.5.2,4.409,9.559,6.967,9.559,6.967Z" transform="translate(-541.945 -466.271)" fill="#fcf9e8"/>
      <path id="Trazado_874053" data-name="Trazado 874053" d="M690.139,609.359l-11.206-4.845s-2.824,2.534.153,4.444a36.264,36.264,0,0,1,4.472,3.889,31.757,31.757,0,0,1,4.767,6.058Z" transform="translate(-543.46 -484.756)" fill="#fcf9e8"/>
      <path id="Trazado_874054" data-name="Trazado 874054" d="M711.369,578.475a.26.26,0,0,1-.231-.14l-1.427-2.745a8.181,8.181,0,0,0-3.64-3.576l-7.278-3.619a.26.26,0,0,1,.232-.466l7.277,3.619a8.7,8.7,0,0,1,3.87,3.8l1.427,2.745a.26.26,0,0,1-.231.381" transform="translate(-560.242 -455.396)" fill="#3c1c54"/>
      <path id="Trazado_874055" data-name="Trazado 874055" d="M702.446,594.381a.26.26,0,0,1-.242-.165l-.786-1.99a8.273,8.273,0,0,0-3.5-4.08l-6.834-4a.26.26,0,1,1,.263-.449l6.834,4a8.794,8.794,0,0,1,3.717,4.337l.786,1.99a.261.261,0,0,1-.242.356" transform="translate(-554.076 -468.031)" fill="#3c1c54"/>
      <path id="Trazado_874056" data-name="Trazado 874056" d="M698.369,614.1a.26.26,0,0,1-.251-.191l-.571-2.047a8.265,8.265,0,0,0-3.1-4.458l-5.159-3.735a.26.26,0,1,1,.305-.422l5.159,3.735a8.789,8.789,0,0,1,3.3,4.74l.571,2.047a.261.261,0,0,1-.251.33" transform="translate(-552.647 -483.704)" fill="#3c1c54"/>
      <path id="Trazado_874057" data-name="Trazado 874057" d="M360.427,645.185s-1.083,8.139-6.242,8.4c-4.273.214-11-4.8-11-4.8a37.861,37.861,0,0,1,.141-13.569Z" transform="translate(-274.76 -509.37)" fill="#fcf9e8" fill-rule="evenodd"/>
      <path id="Trazado_874058" data-name="Trazado 874058" d="M348.575,558.639a7.194,7.194,0,0,1,3.743-3.405l9.479-3.783a2.354,2.354,0,0,1,3.024,1.117c.359.792.262,1.739-1.277,2.568-1.947,1.048-5.409,3.13-8.032,4.729l6.352,8.2.781,9.556-5.567,4.744c-3.8-3.795-8.31-8.277-10.431-10.321-2.887-2.783.031-9.692,1.927-13.4" transform="translate(-277 -442.063)" fill="#fcf9e8"/>
      <path id="Trazado_874059" data-name="Trazado 874059" d="M384.4,561.182l11.492-4.337a2.31,2.31,0,0,1,2.914,1.079c.361.767.263,1.724-1.283,2.673-3.436,2.107-14.723,8.472-14.723,8.472Z" transform="translate(-306.963 -446.404)" fill="#fcf9e8"/>
      <path id="Trazado_874060" data-name="Trazado 874060" d="M378.257,587.829l13.84-6.366s2.776,2.5-.2,4.409-9.559,6.967-9.559,6.967Z" transform="translate(-303.322 -466.271)" fill="#fcf9e8"/>
      <path id="Trazado_874061" data-name="Trazado 874061" d="M389.488,609.359l11.207-4.845s2.824,2.534-.153,4.444a36.264,36.264,0,0,0-4.472,3.889A31.755,31.755,0,0,0,391.3,618.9Z" transform="translate(-312.328 -484.756)" fill="#fcf9e8"/>
      <path id="Trazado_874062" data-name="Trazado 874062" d="M366.946,578.475a.26.26,0,0,1-.231-.38l1.427-2.745a8.7,8.7,0,0,1,3.87-3.8l7.278-3.619a.26.26,0,1,1,.232.466l-7.278,3.619a8.18,8.18,0,0,0-3.64,3.576l-1.427,2.745a.26.26,0,0,1-.231.14" transform="translate(-294.043 -455.396)" fill="#3c1c54"/>
      <path id="Trazado_874063" data-name="Trazado 874063" d="M380.86,594.381a.258.258,0,0,1-.1-.018.26.26,0,0,1-.147-.338l.786-1.99a8.793,8.793,0,0,1,3.716-4.337l6.834-4a.26.26,0,0,1,.263.449l-6.834,4a8.271,8.271,0,0,0-3.5,4.079l-.786,1.99a.26.26,0,0,1-.242.165" transform="translate(-305.2 -468.031)" fill="#3c1c54"/>
      <path id="Trazado_874064" data-name="Trazado 874064" d="M394.227,614.1a.263.263,0,0,1-.07-.01.26.26,0,0,1-.181-.321l.571-2.047a8.789,8.789,0,0,1,3.3-4.74l5.159-3.735a.26.26,0,1,1,.305.422l-5.159,3.735a8.266,8.266,0,0,0-3.1,4.458l-.571,2.047a.261.261,0,0,1-.251.19" transform="translate(-315.919 -483.704)" fill="#3c1c54"/>
      <path id="Trazado_874065" data-name="Trazado 874065" d="M532.52,356.143c-.053,0-.107,0-.16-.007a3.054,3.054,0,0,1-2.063-1.48.26.26,0,0,1,.451-.261,2.571,2.571,0,0,0,1.658,1.222,2.291,2.291,0,0,0,1.852-1.062.26.26,0,0,1,.4.332,2.877,2.877,0,0,1-2.139,1.256" transform="translate(-425.214 -284.083)" fill="#3c1c54"/>
      <path id="Trazado_874066" data-name="Trazado 874066" d="M572.206,356.143c-.053,0-.107,0-.16-.007a3.055,3.055,0,0,1-2.063-1.48.26.26,0,0,1,.451-.261,2.571,2.571,0,0,0,1.658,1.222,2.293,2.293,0,0,0,1.852-1.062.26.26,0,0,1,.4.332,2.877,2.877,0,0,1-2.139,1.256" transform="translate(-457.037 -284.083)" fill="#3c1c54"/>
      <path id="Trazado_874067" data-name="Trazado 874067" d="M552.391,380.552c-.053,0-.107,0-.16-.007a3.055,3.055,0,0,1-2.063-1.48.26.26,0,0,1,.451-.261,2.571,2.571,0,0,0,1.658,1.222,2.3,2.3,0,0,0,1.852-1.062.26.26,0,0,1,.4.332,2.878,2.878,0,0,1-2.14,1.256" transform="translate(-441.147 -303.656)" fill="#3c1c54"/>
      <path id="Trazado_874068" data-name="Trazado 874068" d="M254.476,653.545a.26.26,0,0,1-.121-.491l17.226-8.991.543-6.418a.26.26,0,0,1,.519.044l-.555,6.561a.261.261,0,0,1-.139.209L254.6,653.515a.26.26,0,0,1-.12.03" transform="translate(-203.854 -511.131)" fill="#3c1c54"/>
      <path id="Trazado_874069" data-name="Trazado 874069" d="M529.765,359.468a.26.26,0,0,1-.206-.419l.752-.976a.26.26,0,1,1,.412.318l-.752.976a.259.259,0,0,1-.206.1" transform="translate(-424.606 -287.054)" fill="#3c1c54"/>
      <path id="Trazado_874070" data-name="Trazado 874070" d="M540.458,362.766a.26.26,0,0,1-.26-.26v-.862a.26.26,0,1,1,.521,0v.862a.26.26,0,0,1-.26.26" transform="translate(-433.181 -289.79)" fill="#3c1c54"/>
      <path id="Trazado_874071" data-name="Trazado 874071" d="M547.756,359.976a.26.26,0,0,1-.212-.11l-.652-.916a.26.26,0,1,1,.424-.3l.652.916a.26.26,0,0,1-.212.411" transform="translate(-438.51 -287.51)" fill="#3c1c54"/>
      <path id="Trazado_874072" data-name="Trazado 874072" d="M571.285,359.468a.265.265,0,0,1-.071-.01.261.261,0,0,1-.18-.321l.274-.976a.26.26,0,0,1,.5.141l-.274.976a.261.261,0,0,1-.251.19" transform="translate(-457.9 -287.054)" fill="#3c1c54"/>
      <path id="Trazado_874073" data-name="Trazado 874073" d="M580.23,362.9a.261.261,0,0,1-.259-.238l-.086-.992a.26.26,0,0,1,.519-.045l.086.992a.261.261,0,0,1-.237.282h-.023" transform="translate(-465.005 -289.793)" fill="#3c1c54"/>
      <path id="Trazado_874074" data-name="Trazado 874074" d="M587.285,359.742a.26.26,0,0,1-.211-.108l-.492-.681a.26.26,0,0,1,.422-.305l.492.681a.26.26,0,0,1-.211.413" transform="translate(-470.336 -287.511)" fill="#3c1c54"/>
      <path id="Trazado_874075" data-name="Trazado 874075" d="M503.972,426.681s2.561,12.621,10.634,11.786S525.24,426.96,525.24,426.96l-9.949-1.586Z" transform="translate(-404.132 -341.104)" fill="#fcf9e8"/>
      <path id="Trazado_874076" data-name="Trazado 874076" d="M730.663,635.258l16.365,10.5,5.67-13.11s10.732,13.291,12.828,23.267c2.2,10.483-4.418,17.615-12.828,14.965-16.413-5.173-30.176-20.366-30.176-20.366Z" transform="translate(-579.385 -507.315)" fill="#fcf9e8" fill-rule="evenodd"/>
      <path id="Trazado_874077" data-name="Trazado 874077" d="M801.786,653.545a.26.26,0,0,1-.12-.029l-17.353-9.058a.26.26,0,0,1-.139-.209l-.555-6.561a.26.26,0,0,1,.519-.044l.543,6.418,17.226,8.992a.26.26,0,0,1-.121.491" transform="translate(-628.378 -511.131)" fill="#3c1c54"/>
      <path id="Trazado_874078" data-name="Trazado 874078" d="M564.564,564.872a.261.261,0,0,1-.208-.1l-2-2.659a.26.26,0,1,1,.416-.313l2,2.659a.26.26,0,0,1-.208.417" transform="translate(-450.905 -450.417)" fill="#12263f"/>
      <path id="Trazado_874079" data-name="Trazado 874079" d="M433.03,780.521h0l-70.836-.267a.26.26,0,0,1-.259-.247l-.422-8.523a.26.26,0,1,1,.52-.026l.41,8.276,70.589.266a.26.26,0,0,1,0,.521" transform="translate(-289.893 -618.428)" fill="#3c1c54"/>
      <path id="Trazado_874080" data-name="Trazado 874080" d="M526.785,487.107a9.462,9.462,0,0,1-1.16-.071,9.785,9.785,0,0,1-6.294-3.51.26.26,0,0,1,.418-.311,9.431,9.431,0,0,0,5.949,3.305c3.051.373,6.316-.842,9.7-3.612a.26.26,0,1,1,.33.4c-3.082,2.523-6.084,3.8-8.942,3.8" transform="translate(-416.406 -387.193)" fill="#12263f"/>
      <rect id="Rectángulo_401208" data-name="Rectángulo 401208" width="1.306" height="1.569" transform="translate(92.565 102.223) rotate(-66.989)" fill="#b8aa52"/>
      <rect id="Rectángulo_401209" data-name="Rectángulo 401209" width="1.04" height="0.866" transform="translate(91.511 100.631) rotate(-16.163)" fill="#b8aa52"/>
      <rect id="Rectángulo_401210" data-name="Rectángulo 401210" width="1.033" height="0.86" transform="translate(92.001 103.412) rotate(-26.074)" fill="#b8aa52"/>
      <rect id="Rectángulo_401211" data-name="Rectángulo 401211" width="1.033" height="0.589" transform="translate(93.278 100.013) rotate(-26.094)" fill="#b8aa52"/>
      <rect id="Rectángulo_401212" data-name="Rectángulo 401212" width="3.557" height="1.569" transform="translate(89.181 104.985) rotate(-66.989)" fill="#b8aa52"/>
      <path id="Trazado_874081" data-name="Trazado 874081" d="M375.045,333.478a.4.4,0,0,1-.335-.185c-.028-.044-2.8-4.443-3.555-5.261a.4.4,0,1,1,.583-.536c.8.871,3.526,5.191,3.642,5.375a.4.4,0,0,1-.335.607" transform="translate(-297.543 -262.514)" fill="#59836b"/>
      <path id="Trazado_874082" data-name="Trazado 874082" d="M683.286,319.283a.4.4,0,0,1-.364-.552l2.986-6.966a.4.4,0,0,1,.728.312l-2.986,6.966a.4.4,0,0,1-.364.24" transform="translate(-547.605 -249.809)" fill="#77af8f"/>
      <path id="Trazado_874083" data-name="Trazado 874083" d="M743.279,198.838a.4.4,0,0,1-.294-.661c.1-.114,10.379-11.406,22.709-14.948a.4.4,0,0,1,.219.761c-12.108,3.478-22.238,14.6-22.339,14.717a.4.4,0,0,1-.294.131" transform="translate(-595.712 -146.918)" fill="#59836b"/>
      <path id="Trazado_874084" data-name="Trazado 874084" d="M244.877,395.486a.393.393,0,0,1-.134-.024c-17.165-6.175-37.663-2.6-37.868-2.558a.4.4,0,0,1-.14-.78c.207-.037,20.908-3.656,38.277,2.593a.4.4,0,0,1-.134.769" transform="translate(-165.517 -313.58)" fill="#59836b"/>
      <path id="Trazado_874085" data-name="Trazado 874085" d="M870.289,457.909a.4.4,0,0,1-.163-.757l21.136-9.518a.4.4,0,1,1,.326.722l-21.137,9.518a.4.4,0,0,1-.163.035" transform="translate(-697.561 -358.927)" fill="#59836b"/>
      <path id="Trazado_874086" data-name="Trazado 874086" d="M567.6,628.037a.26.26,0,0,1-.184-.444c.136-.136,13.655-13.732,18.166-22.527a.26.26,0,0,1,.463.238c-4.548,8.868-18.124,22.521-18.26,22.658a.26.26,0,0,1-.185.076" transform="translate(-454.948 -485.085)" fill="#12263f"/>
      <path id="Trazado_874087" data-name="Trazado 874087" d="M360.254,443.423s6.279,2.83,10.289-3.181a93.961,93.961,0,0,1,7.3-9.684s-15.425,9.434-17.593,12.865" transform="translate(-288.885 -345.261)" fill="#12263f"/>
    </g>
  </g>
</svg>
