<svg xmlns="http://www.w3.org/2000/svg" width="45.869" height="48.713" viewBox="0 0 45.869 48.713">
  <g id="reshot-icon-woman-L4NBJD6VXF" transform="translate(-9.868 0)">
    <path id="Trazado_877345" data-name="Trazado 877345" d="M136.976,8.148A12.421,12.421,0,0,0,123.855,20.3V37.983a.011.011,0,0,0,.011.01H148.99a.011.011,0,0,0,.011-.01V20.149A12.274,12.274,0,0,0,136.976,8.148Z" transform="translate(-103.626 -7.397)" fill="#fe9901"/>
    <path id="Trazado_877346" data-name="Trazado 877346" d="M243.122,8.149a11.952,11.952,0,0,0-1.864.065,12.013,12.013,0,0,1,10.653,11.935V37.984a.01.01,0,0,1-.01.01h2.7a.01.01,0,0,0,.01-.01V20.149A12.012,12.012,0,0,0,243.122,8.149Z" transform="translate(-209.605 -7.398)" fill="#f28f0c"/>
    <path id="Trazado_877347" data-name="Trazado 877347" d="M185.1,277.238c-.046.026-.046.026-.139.075a6.191,6.191,0,0,1-1.389.539l-.093.023a7.342,7.342,0,0,1-4.679-.01,6.279,6.279,0,0,1-1.5-.609l-.356,2.942-3.22,1.922,7.479,6.251h0l7.479-6.251-3.22-1.922Z" transform="translate(-148.395 -250.491)" fill="#fed9a8"/>
    <path id="Trazado_877348" data-name="Trazado 877348" d="M166.468,212.385l.356-2.942a9.3,9.3,0,0,1-4.588-6.8l-.028,0H162.2v8.96a3.816,3.816,0,0,0,1.091,2.676Z" transform="translate(-138.099 -183.078)" fill="#f9a93e"/>
    <path id="Trazado_877349" data-name="Trazado 877349" d="M61.922,323.294a6.782,6.782,0,0,0-5.052-6.215l-9.488-2.331a1.764,1.764,0,0,0-1.452.281L40.2,319.175l-5.733-4.146a1.764,1.764,0,0,0-1.452-.281l-9.488,2.331a6.782,6.782,0,0,0-5.052,6.215L18,330.841a1,1,0,0,0,1.015,1.051H61.374a1,1,0,0,0,1.015-1.051Z" transform="translate(-7.395 -283.919)" fill="#c9e7f8"/>
    <path id="Trazado_877350" data-name="Trazado 877350" d="M162.883,112.4v-3.877a.167.167,0,0,0-.307-.09c-1.858,2.941-6.148,4.492-11.144,4.492a51.378,51.378,0,0,1-5.565-.525,1.755,1.755,0,0,0-1.653,1.751v1.025a1.755,1.755,0,0,0,1.671,1.752,9.066,9.066,0,0,0,6.093,7.4,7.343,7.343,0,0,0,4.679.01l.093-.023a9.063,9.063,0,0,0,6.114-7.391,1.755,1.755,0,0,0,1.672-1.752v-1.025A1.755,1.755,0,0,0,162.883,112.4Z" transform="translate(-121.573 -97.797)" fill="#fed9a8"/>
    <path id="Trazado_877351" data-name="Trazado 877351" d="M250.672,112.409v-3.877a.167.167,0,0,0-.309-.087,7.7,7.7,0,0,1-2.372,2.323v1.641l-.019,4.529a9.063,9.063,0,0,1-6.114,7.391l-.093.023c-.37.092-.692.167-.984.225a6.986,6.986,0,0,0,3.665-.225l.093-.023a9.063,9.063,0,0,0,6.114-7.391,1.755,1.755,0,0,0,1.672-1.752V114.16A1.755,1.755,0,0,0,250.672,112.409Z" transform="translate(-209.214 -97.805)" fill="#ffc07b"/>
    <path id="Trazado_877352" data-name="Trazado 877352" d="M156.927,166.986h.445v-2.4h-.445a.71.71,0,0,0-.71.71v.977A.71.71,0,0,0,156.927,166.986Z" transform="translate(-132.704 -148.893)" fill="#f7c68b"/>
    <path id="Trazado_877353" data-name="Trazado 877353" d="M343.665,166.986h-.445v-2.4h.445a.71.71,0,0,1,.71.71v.977A.71.71,0,0,1,343.665,166.986Z" transform="translate(-302.271 -148.893)" fill="#f2ad5a"/>
    <path id="Trazado_877354" data-name="Trazado 877354" d="M214.137,277.782l-.138-.044-.089-.031-.12-.044-.1-.037-.114-.047-.1-.041-.126-.058-.155-.075-.117-.059-.093-.05-.077-.041-.015.121c3.308,2.921,6.187,2.46,6.187,2.46a4.559,4.559,0,0,0,1.863-.69l-.23-1.91c-.046.026-.046.026-.139.075q-.286.151-.578.27l-.01,0q-.088.036-.176.069l-.036.014-.151.053-.05.017-.145.045-.051.015c-.064.018-.128.036-.192.052l-.093.023a7.341,7.341,0,0,1-4.679-.01c-.071-.018-.142-.038-.212-.058Z" transform="translate(-184.014 -250.789)" fill="#f2c18b"/>
    <path id="Trazado_877355" data-name="Trazado 877355" d="M168.115,112.884a50.717,50.717,0,0,1-5.547-.522v.6a22.373,22.373,0,0,0,5.547,1.358c5.3,0,9.8-1.742,11.451-5.035v-.817a.164.164,0,0,0-.3-.089C177.411,111.33,173.117,112.884,168.115,112.884Z" transform="translate(-138.259 -97.935)" fill="#ffc07b"/>
    <path id="Trazado_877356" data-name="Trazado 877356" d="M227.163,236.981a2.676,2.676,0,0,0,2.883-2.4H224.28A2.675,2.675,0,0,0,227.163,236.981Z" transform="translate(-194.361 -212.207)" fill="#fff4e9"/>
    <g id="Grupo_1100150" data-name="Grupo 1100150" transform="translate(10.608 34.091)">
      <path id="Trazado_877357" data-name="Trazado 877357" d="M24.846,365.019l.34-4.988A10.673,10.673,0,0,0,23.27,353.1a9.127,9.127,0,0,0-1.886-1.968,6.849,6.849,0,0,0-2.914,5.284l-.455,7.548A.991.991,0,0,0,19,365.019Z" transform="translate(-18.014 -351.136)" fill="#a2d8f4"/>
      <path id="Trazado_877358" data-name="Trazado 877358" d="M421.544,356.42a6.849,6.849,0,0,0-2.914-5.284,9.127,9.127,0,0,0-1.886,1.968,10.673,10.673,0,0,0-1.915,6.927l.34,4.988h5.841a.991.991,0,0,0,.989-1.051Z" transform="translate(-377.614 -351.136)" fill="#a2d8f4"/>
    </g>
    <rect id="Rectángulo_401890" data-name="Rectángulo 401890" width="2.116" height="12.717" transform="translate(31.744 35.255)" fill="#b2e4f9"/>
    <circle id="Elipse_11560" data-name="Elipse 11560" cx="0.791" cy="0.791" r="0.791" transform="translate(32.011 37.132)" fill="#232323"/>
    <g id="Grupo_1100151" data-name="Grupo 1100151" transform="translate(22.537 30.221)">
      <path id="Trazado_877359" data-name="Trazado 877359" d="M256,319.176l1.722,3.272a.573.573,0,0,0,.895.155l7.648-7.031L263,314.749a1.684,1.684,0,0,0-1.415.281Z" transform="translate(-245.736 -314.698)" fill="#a2d8f4"/>
      <path id="Trazado_877360" data-name="Trazado 877360" d="M153.339,319.176l-1.722,3.272a.573.573,0,0,1-.895.155l-7.648-7.031,3.261-.822a1.684,1.684,0,0,1,1.415.281Z" transform="translate(-143.075 -314.698)" fill="#a2d8f4"/>
    </g>
    <path id="SVGCleanerId_0" d="M323.434,407.721l-2.7,1.5a.25.25,0,0,1-.245,0l-2.614-1.494a.25.25,0,0,1-.126-.217v-4.415a.25.25,0,0,1,.25-.25h5.316a.25.25,0,0,1,.25.25V407.5A.25.25,0,0,1,323.434,407.721Z" transform="translate(-279.087 -364.049)" fill="#a2d8f4"/>
    <g id="Grupo_1100152" data-name="Grupo 1100152" transform="translate(38.66 38.79)">
      <path id="SVGCleanerId_0_1_" d="M323.434,407.721l-2.7,1.5a.25.25,0,0,1-.245,0l-2.614-1.494a.25.25,0,0,1-.126-.217v-4.415a.25.25,0,0,1,.25-.25h5.316a.25.25,0,0,1,.25.25V407.5A.25.25,0,0,1,323.434,407.721Z" transform="translate(-317.747 -402.839)" fill="#a2d8f4"/>
    </g>
    <g id="Grupo_1100153" data-name="Grupo 1100153" transform="translate(51.625 33.599)">
      <path id="Trazado_877361" data-name="Trazado 877361" d="M479.347,375.887l.051.094Z" transform="translate(-477.307 -373.637)" fill="#a2d8f4"/>
      <path id="Trazado_877362" data-name="Trazado 877362" d="M476.919,371.854l.035.054Z" transform="translate(-475.1 -369.971)" fill="#a2d8f4"/>
      <path id="Trazado_877363" data-name="Trazado 877363" d="M486.828,394.956q.021.084.039.168Q486.849,395.04,486.828,394.956Z" transform="translate(-484.108 -390.973)" fill="#a2d8f4"/>
      <path id="Trazado_877364" data-name="Trazado 877364" d="M487.445,397.681q.021.1.038.2Q487.466,397.78,487.445,397.681Z" transform="translate(-484.669 -393.45)" fill="#a2d8f4"/>
      <path id="Trazado_877365" data-name="Trazado 877365" d="M474.822,368.762l.021.03Z" transform="translate(-473.193 -367.16)" fill="#a2d8f4"/>
      <path id="Trazado_877366" data-name="Trazado 877366" d="M485.19,389.224q.026.077.049.156Q485.215,389.3,485.19,389.224Z" transform="translate(-482.619 -385.762)" fill="#a2d8f4"/>
      <path id="Trazado_877367" data-name="Trazado 877367" d="M482.056,381.234q.026.057.051.114Z" transform="translate(-479.77 -378.498)" fill="#a2d8f4"/>
      <path id="Trazado_877368" data-name="Trazado 877368" d="M484.3,386.663c.017.047.034.094.051.142C484.329,386.757,484.312,386.71,484.3,386.663Z" transform="translate(-481.805 -383.434)" fill="#a2d8f4"/>
      <path id="Trazado_877369" data-name="Trazado 877369" d="M480.949,378.928l.051.1Z" transform="translate(-478.763 -376.402)" fill="#a2d8f4"/>
      <path id="Trazado_877370" data-name="Trazado 877370" d="M483.08,383.557q.041.1.08.2Q483.121,383.656,483.08,383.557Z" transform="translate(-480.701 -380.61)" fill="#a2d8f4"/>
      <path id="Trazado_877371" data-name="Trazado 877371" d="M478.112,373.768l.045.076Z" transform="translate(-476.184 -371.711)" fill="#a2d8f4"/>
      <path id="Trazado_877372" data-name="Trazado 877372" d="M485.968,391.72q.032.11.061.222Q486,391.83,485.968,391.72Z" transform="translate(-483.326 -388.031)" fill="#a2d8f4"/>
      <path id="Trazado_877373" data-name="Trazado 877373" d="M469.552,362.226l0,.005Z" transform="translate(-468.402 -361.218)" fill="#a2d8f4"/>
      <path id="Trazado_877374" data-name="Trazado 877374" d="M468.029,360.6l.015.016Z" transform="translate(-467.018 -359.736)" fill="#a2d8f4"/>
      <path id="Trazado_877375" data-name="Trazado 877375" d="M456.9,351.136Z" transform="translate(-456.905 -351.136)" fill="#a2d8f4"/>
      <path id="Trazado_877376" data-name="Trazado 877376" d="M488.756,406.539c.007.082.014.165.019.248C488.77,406.7,488.763,406.621,488.756,406.539Z" transform="translate(-485.861 -401.503)" fill="#a2d8f4"/>
      <path id="Trazado_877377" data-name="Trazado 877377" d="M473.421,366.875l.032.042Z" transform="translate(-471.92 -365.444)" fill="#a2d8f4"/>
      <path id="Trazado_877378" data-name="Trazado 877378" d="M487.949,400.312c.014.079.026.159.037.24C487.975,400.471,487.963,400.391,487.949,400.312Z" transform="translate(-485.127 -395.842)" fill="#a2d8f4"/>
      <path id="Trazado_877379" data-name="Trazado 877379" d="M488.447,403.711q.012.092.021.184Q488.459,403.8,488.447,403.711Z" transform="translate(-485.58 -398.932)" fill="#a2d8f4"/>
    </g>
    <g id="Grupo_1100154" data-name="Grupo 1100154" transform="translate(51.625 33.589)">
      <path id="Trazado_877380" data-name="Trazado 877380" d="M475.051,369.087q.088.124.17.251Q475.139,369.211,475.051,369.087Z" transform="translate(-473.402 -367.456)" fill="#c9e7f8"/>
      <path id="Trazado_877381" data-name="Trazado 877381" d="M478.606,374.6c.023.039.045.078.067.117C478.651,374.679,478.629,374.64,478.606,374.6Z" transform="translate(-476.634 -372.468)" fill="#c9e7f8"/>
      <path id="Trazado_877382" data-name="Trazado 877382" d="M469.6,362.285q.182.2.347.417Q469.786,362.486,469.6,362.285Z" transform="translate(-468.45 -361.272)" fill="#c9e7f8"/>
      <path id="Trazado_877383" data-name="Trazado 877383" d="M468.194,360.768q.063.065.123.133Q468.257,360.833,468.194,360.768Z" transform="translate(-467.168 -359.893)" fill="#c9e7f8"/>
      <path id="Trazado_877384" data-name="Trazado 877384" d="M477.3,372.444c.025.04.05.08.074.12C477.35,372.524,477.325,372.484,477.3,372.444Z" transform="translate(-475.446 -370.507)" fill="#c9e7f8"/>
      <path id="Trazado_877385" data-name="Trazado 877385" d="M473.771,367.336q.049.064.1.13C473.835,367.422,473.8,367.379,473.771,367.336Z" transform="translate(-472.238 -365.864)" fill="#c9e7f8"/>
      <path id="Trazado_877386" data-name="Trazado 877386" d="M482.618,382.493l.042.1C482.646,382.557,482.632,382.525,482.618,382.493Z" transform="translate(-480.281 -379.643)" fill="#c9e7f8"/>
      <path id="Trazado_877387" data-name="Trazado 877387" d="M488.677,405.738c0,.024,0,.048.007.073C488.682,405.786,488.679,405.762,488.677,405.738Z" transform="translate(-485.789 -400.775)" fill="#c9e7f8"/>
      <path id="Trazado_877388" data-name="Trazado 877388" d="M457.92,352a6.607,6.607,0,0,0-1.011-.86A6.607,6.607,0,0,1,457.92,352Z" transform="translate(-456.909 -351.139)" fill="#c9e7f8"/>
      <path id="Trazado_877389" data-name="Trazado 877389" d="M488.35,402.948c0,.023.006.046.009.069C488.356,402.994,488.353,402.971,488.35,402.948Z" transform="translate(-485.492 -398.239)" fill="#c9e7f8"/>
    </g>
    <path id="Trazado_877390" data-name="Trazado 877390" d="M329.958,318.009a6.5,6.5,0,0,0-2.011-.93l-9.248-2.331a1.684,1.684,0,0,0-1.415.281l-.019.014,8.079,2.036a6.547,6.547,0,0,1,3.331,2.135A8.8,8.8,0,0,1,329.958,318.009Z" transform="translate(-278.333 -284.613)" fill="#a2d8f4"/>
    <g id="Grupo_1100155" data-name="Grupo 1100155" transform="translate(53.716 36.435)">
      <path id="Trazado_877391" data-name="Trazado 877391" d="M488.959,409.269l.518,8.6h0Z" transform="translate(-488.136 -406.329)" fill="#c9e7f8"/>
      <path id="Trazado_877392" data-name="Trazado 877392" d="M487.867,399.876l.007.04C487.872,399.9,487.869,399.889,487.867,399.876Z" transform="translate(-487.144 -397.79)" fill="#c9e7f8"/>
      <path id="Trazado_877393" data-name="Trazado 877393" d="M485.729,390.938l.022.071C485.744,390.985,485.736,390.962,485.729,390.938Z" transform="translate(-485.2 -389.664)" fill="#c9e7f8"/>
      <path id="Trazado_877394" data-name="Trazado 877394" d="M483.957,385.744l.031.083C483.977,385.8,483.968,385.772,483.957,385.744Z" transform="translate(-483.589 -384.942)" fill="#c9e7f8"/>
      <path id="Trazado_877395" data-name="Trazado 877395" d="M481.514,380.073l.049.106Z" transform="translate(-481.368 -379.787)" fill="#c9e7f8"/>
      <path id="Trazado_877396" data-name="Trazado 877396" d="M484.854,388.225l.031.091Z" transform="translate(-484.405 -387.198)" fill="#c9e7f8"/>
      <path id="Trazado_877397" data-name="Trazado 877397" d="M479.909,376.925q.049.09.094.182Q479.957,377.015,479.909,376.925Z" transform="translate(-479.909 -376.925)" fill="#c9e7f8"/>
      <path id="Trazado_877398" data-name="Trazado 877398" d="M487.259,396.81c.006.026.012.053.017.079C487.271,396.863,487.265,396.836,487.259,396.81Z" transform="translate(-486.591 -395.002)" fill="#c9e7f8"/>
      <path id="Trazado_877399" data-name="Trazado 877399" d="M486.635,394.162l.018.072Z" transform="translate(-486.024 -392.595)" fill="#c9e7f8"/>
    </g>
    <path id="Trazado_877400" data-name="Trazado 877400" d="M446.986,356.426c0-.083-.011-.166-.019-.248,0-.024,0-.049-.007-.073-.006-.062-.013-.123-.021-.184,0-.023-.006-.046-.009-.069q-.016-.12-.037-.24l-.007-.04q-.018-.1-.038-.2l-.017-.079q-.019-.085-.039-.168c-.006-.024-.012-.048-.018-.072q-.028-.112-.061-.222c-.007-.024-.014-.047-.022-.071q-.024-.078-.049-.156l-.031-.091c-.016-.048-.033-.095-.051-.142-.01-.028-.02-.056-.031-.083q-.038-.1-.08-.2c-.014-.032-.028-.065-.042-.1l-.051-.114-.049-.106c-.017-.035-.034-.07-.051-.1q-.046-.092-.094-.182l-.051-.094c-.022-.039-.045-.078-.067-.117L446,353.2l-.074-.12-.035-.054q-.082-.128-.17-.252l-.021-.03q-.047-.066-.1-.13c-.04-.053-.081-.1-.12-.158a3.714,3.714,0,0,0-.258-.3l-.006-.007q-.061-.067-.123-.133l-.015-.016a6.613,6.613,0,0,0-1.011-.86h0a8.793,8.793,0,0,0-1.283,1.2,6.941,6.941,0,0,1,1.593,4.079l.52,8.6h1.549a.991.991,0,0,0,.989-1.051Z" transform="translate(-392.447 -317.051)" fill="#8fcbe5"/>
    <g id="Grupo_1100156" data-name="Grupo 1100156" transform="translate(9.868 0)">
      <path id="Trazado_877401" data-name="Trazado 877401" d="M199.783,174.5a.776.776,0,0,0-.776.776v.622a.776.776,0,1,0,1.552,0v-.622A.776.776,0,0,0,199.783,174.5Z" transform="translate(-181.368 -157.858)" fill="#232323"/>
      <path id="Trazado_877402" data-name="Trazado 877402" d="M296.7,176.669a.776.776,0,0,0,.776-.776v-.622a.776.776,0,0,0-1.552,0v.622A.776.776,0,0,0,296.7,176.669Z" transform="translate(-269.246 -157.858)" fill="#232323"/>
      <circle id="Elipse_11561" data-name="Elipse 11561" cx="0.791" cy="0.791" r="0.791" transform="translate(22.143 41.166)" fill="#232323"/>
      <circle id="Elipse_11562" data-name="Elipse 11562" cx="0.791" cy="0.791" r="0.791" transform="translate(22.143 44.738)" fill="#232323"/>
      <path id="Trazado_877403" data-name="Trazado 877403" d="M315.916,394.7H310.6a.991.991,0,0,0-.99.99v4.415a.992.992,0,0,0,.5.86l2.615,1.494a.99.99,0,0,0,.97.006l2.7-1.5a.99.99,0,0,0,.511-.866v-4.413A.991.991,0,0,0,315.916,394.7Zm-.489,5.114-2.208,1.223-2.129-1.216v-3.642h4.337v3.635Z" transform="translate(-281.548 -356.653)" fill="#232323"/>
      <path id="Trazado_877404" data-name="Trazado 877404" d="M55.733,46.792l-.466-7.876V38.9c-.005-.1-.013-.2-.021-.292l-.006-.067q-.013-.133-.03-.265l0-.021a7.93,7.93,0,0,0-2.634-4.994l-.035-.031q-.083-.071-.168-.14l-.085-.069c-.052-.041-.1-.081-.157-.12s-.087-.064-.131-.1l-.044-.032-.007,0a7.353,7.353,0,0,0-2.288-1.08l-.011,0-3.773-.971V24.627a.758.758,0,1,0-1.516,0v5.7l-.848-.218h0l-3.343-.86a2.427,2.427,0,0,0-1.644.155l-.646-.394-.263-2.228a10.732,10.732,0,0,0,4.576-6.838,2.6,2.6,0,0,0,1.787-2.49V16.376a2.612,2.612,0,0,0-1.695-2.458V10.484a.942.942,0,0,0-.932-.95.917.917,0,0,0-.782.442c-1.681,2.718-5.712,4.341-10.783,4.341a51.216,51.216,0,0,1-5.594-.541.754.754,0,0,0-.155-.007,2.591,2.591,0,0,0-2.408,2.606v1.073a2.6,2.6,0,0,0,1.783,2.489A10.725,10.725,0,0,0,27.99,26.8L27.728,29l-.646.394h0a2.426,2.426,0,0,0-1.576-.17l-.069.016-3.343.86h0l-.847.218V13.5a12.2,12.2,0,0,1,3.627-8.677,11.253,11.253,0,0,1,8.433-3.264A11.662,11.662,0,0,1,44.357,13.347v7.921a.758.758,0,1,0,1.516,0V13.347A13.433,13.433,0,0,0,42.23,4.1,12.887,12.887,0,0,0,33.371.012a12.74,12.74,0,0,0-9.546,3.693A13.769,13.769,0,0,0,19.731,13.5V30.712l-3.773.971-.011,0a7.349,7.349,0,0,0-2.288,1.08l-.007,0-.044.032-.131.1c-.053.039-.1.08-.157.12l-.085.069q-.085.069-.168.14l-.035.03a7.952,7.952,0,0,0-2.668,5.289l0,.05c-.009.1-.016.2-.022.3l-.073,1.238a.758.758,0,1,0,1.513.093l.073-1.242h0c.005-.1.014-.2.024-.3,0-.038.008-.075.013-.113q.01-.089.023-.177c.007-.049.014-.1.022-.146s.013-.074.02-.111A6.431,6.431,0,0,1,13.946,34.5l.086-.077.032-.027A8.944,8.944,0,0,1,15.4,35.917a10.579,10.579,0,0,1,1.824,6.749l-.3,4.5H11.643a.254.254,0,0,1-.188-.083.265.265,0,0,1-.07-.2l.192-3.258a.758.758,0,1,0-1.513-.093l-.191,3.233c0,.008,0,.016,0,.024a1.841,1.841,0,0,0,.479,1.351,1.764,1.764,0,0,0,1.292.57h42.32a1.764,1.764,0,0,0,1.292-.57A1.841,1.841,0,0,0,55.733,46.792ZM38.981,30.91a.965.965,0,0,1,.814-.165l1.982.51-6.643,6.236-1.359-2.637ZM24.854,19.225a.766.766,0,0,0-.719-.716,1.052,1.052,0,0,1-.991-1.061V16.376a1.056,1.056,0,0,1,.914-1.054,50.235,50.235,0,0,0,5.726.544,19.641,19.641,0,0,0,7.195-1.25,10.93,10.93,0,0,0,3.786-2.436v2.363a.767.767,0,0,0,.714.773,1.055,1.055,0,0,1,.981,1.061v1.073a1.052,1.052,0,0,1-.992,1.061.766.766,0,0,0-.72.713,8.954,8.954,0,0,1-4.395,6.523l-.047.025-.051.027-.127.066-.1.049-.157.072-.093.04q-.082.035-.165.066l-.068.026q-.105.039-.21.072l-.053.016c-.074.023-.148.044-.222.063h-.005l-.1.024a9.16,9.16,0,0,1-2.2.372,9.022,9.022,0,0,1-2.226-.383c-.074-.019-.147-.041-.221-.063l-.076-.024c-.049-.016-.1-.033-.147-.051-.067-.024-.133-.049-.2-.077l-.04-.016a6.263,6.263,0,0,1-.677-.333l-.02-.01A8.951,8.951,0,0,1,24.854,19.225Zm3.6,11.142.374-.228a.775.775,0,0,0,.364-.572l.24-2.021.107.04.045.017q.129.047.258.087l.054.017c.089.027.178.053.267.076a10.352,10.352,0,0,0,2.6.429h0a9.731,9.731,0,0,0,2.376-.37l.019,0,.173-.043.1-.024h0c.089-.023.178-.048.267-.075l.049-.015c.145-.045.291-.1.436-.152l.241,2.04a.775.775,0,0,0,.364.572l.374.228-4.351,3.3-4.348-3.3Zm-2.642.378.029-.006a.965.965,0,0,1,.785.17l5.206,3.944-1.359,2.637-6.643-6.236Zm-7.367,16.42.293-4.394a12.153,12.153,0,0,0-2.1-7.753,10.646,10.646,0,0,0-1.246-1.483,5.832,5.832,0,0,1,.948-.352l5.734-1.475,7.538,7.077a1.326,1.326,0,0,0,.91.363,1.339,1.339,0,0,0,1.191-.734L32.8,36.289,33.9,38.413a1.339,1.339,0,0,0,1.191.734,1.326,1.326,0,0,0,.91-.363l7.538-7.077,5.734,1.475a5.82,5.82,0,0,1,.948.352,10.64,10.64,0,0,0-1.246,1.483,12.152,12.152,0,0,0-2.1,7.752l.293,4.394Zm35.707-.083a.254.254,0,0,1-.188.083H48.682l-.3-4.5a10.579,10.579,0,0,1,1.824-6.749,8.948,8.948,0,0,1,1.334-1.522l.035.029.067.06a6.433,6.433,0,0,1,2.012,3.656c.006.035.013.07.019.105s.015.1.022.149.016.117.022.175c0,.038.009.076.013.114.01.1.018.2.023.3v0l0,.059.463,7.841A.266.266,0,0,1,54.149,47.082Z" transform="translate(-9.868 0)" fill="#232323"/>
      <path id="Trazado_877405" data-name="Trazado 877405" d="M219.767,230.324a3.412,3.412,0,0,0,3.623-3.141.739.739,0,0,0-.739-.74h-5.767a.74.74,0,0,0-.74.74A3.412,3.412,0,0,0,219.767,230.324Zm1.92-2.4a2.459,2.459,0,0,1-3.839,0Z" transform="translate(-196.833 -204.812)" fill="#232323"/>
    </g>
  </g>
</svg>
