<svg xmlns="http://www.w3.org/2000/svg" width="47.818" height="46.854" viewBox="0 0 47.818 46.854">
  <g id="reshot-icon-man-4UNWSMHD6E" transform="translate(0 -5.154)">
    <path id="Trazado_877406" data-name="Trazado 877406" d="M202.64,259.851a4.54,4.54,0,0,1-2.317.639h-3.371a4.539,4.539,0,0,1-2.357-.664l-.31,2.914-1.581.949,5.911,4.077,5.911-4.077-1.581-.949Z" transform="translate(-174.709 -230.887)" fill="#fed9a8"/>
    <path id="Trazado_877407" data-name="Trazado 877407" d="M214.635,260.48c-.095-.007-.189-.017-.283-.03l-.03,0c-.091-.013-.181-.029-.271-.047l-.039-.008c-.087-.019-.174-.04-.26-.064l-.044-.012q-.126-.036-.25-.08l-.047-.017q-.122-.044-.242-.1l-.048-.021q-.119-.053-.234-.112l-.047-.025q-.115-.061-.228-.128l-.017-.009-.034.319c.587.753,3,3.233,8.271,1.521h0l-.193-1.815h0c-.079.047-.159.09-.24.132l-.064.032q-.1.049-.2.094l-.054.024c-.084.035-.169.069-.256.1l-.044.014q-.108.037-.218.068l-.073.02q-.112.03-.225.054l-.043.01c-.089.018-.178.033-.268.046l-.068.008q-.1.013-.21.021l-.078.006c-.091.006-.182.009-.274.009h-3.371c-.1,0-.2,0-.3-.01Z" transform="translate(-192.709 -230.889)" fill="#f2c18b"/>
    <path id="Trazado_877408" data-name="Trazado 877408" d="M53.879,304.184a6.886,6.886,0,0,0-5.007-6.353l-10.979-2.488-6.7,4.623-6.7-4.623-10.979,2.488A6.886,6.886,0,0,0,8.5,304.184L8.033,313.2a1.09,1.09,0,0,0,1.089,1.147H53.259a1.09,1.09,0,0,0,1.089-1.147Z" transform="translate(-7.282 -263.087)" fill="#f2f2f2"/>
    <g id="Grupo_1100157" data-name="Grupo 1100157" transform="translate(13.961 32.256)">
      <path id="Trazado_877409" data-name="Trazado 877409" d="M159.435,299.965h0l-.006,0-6.7-4.619-3.228.731-.017,0,4.554,5.8a.581.581,0,0,0,.693.172l4.7-2.086Z" transform="translate(-149.488 -295.342)" fill="#e6e6e6"/>
      <path id="Trazado_877410" data-name="Trazado 877410" d="M256.006,299.965h0l.006,0,6.7-4.619,3.228.731.017,0-4.554,5.8a.581.581,0,0,1-.693.172l-4.7-2.086Z" transform="translate(-246.058 -295.342)" fill="#e6e6e6"/>
    </g>
    <g id="Grupo_1100158" data-name="Grupo 1100158" transform="translate(21.021 36.879)">
      <path id="Trazado_877411" data-name="Trazado 877411" d="M231.153,344.843h0l-2.561,1.136,1.286,3.193h2.55l1.283-3.194Z" transform="translate(-228.264 -344.843)" fill="#fc3f49"/>
      <path id="Trazado_877412" data-name="Trazado 877412" d="M229.242,391.2h-2.55l-1.614,10.05h5.883Z" transform="translate(-225.078 -386.87)" fill="#fc3f49"/>
    </g>
    <path id="Trazado_877413" data-name="Trazado 877413" d="M265.619,13.193h-2.782a6.636,6.636,0,0,1,6.636,6.636v6.714h2.782V19.829A6.636,6.636,0,0,0,265.619,13.193Z" transform="translate(-238.29 -7.288)" fill="#f28f0c"/>
    <path id="Trazado_877414" data-name="Trazado 877414" d="M346.785,121.5v4.933a2.02,2.02,0,0,0,1.99-1.907v-1.118A2.021,2.021,0,0,0,346.785,121.5Z" transform="translate(-314.398 -105.478)" fill="#ffc07b"/>
    <path id="Trazado_877415" data-name="Trazado 877415" d="M145.893,121.5v4.933a2.02,2.02,0,0,1-1.99-1.907v-1.118A2.021,2.021,0,0,1,145.893,121.5Z" transform="translate(-130.464 -105.478)" fill="#fed9a8"/>
    <path id="Trazado_877416" data-name="Trazado 877416" d="M162.214,13.193h-6.8a6.636,6.636,0,0,0-6.636,6.636v4.21a2.235,2.235,0,0,1,1.535-.73v0h0v-.973c1.027-1.309,3.379-.53,8.277-.718,3.684-.142,5.249-2.091,5.891-4.02.438.169,2.133,1.071,2.133,4.929a.792.792,0,0,0,.69.782,2.218,2.218,0,0,1,1.545.78V19.829A6.636,6.636,0,0,0,162.214,13.193Z" transform="translate(-134.885 -7.288)" fill="#fe9901"/>
    <g id="Grupo_1100159" data-name="Grupo 1100159" transform="translate(15.43 10.313)">
      <path id="SVGCleanerId_0" d="M181.512,65.323c0-3.857-1.695-4.76-2.133-4.929-.642,1.929-2.207,3.878-5.891,4.02-4.9.188-7.25-.591-8.277.718v7.083a6.156,6.156,0,0,0,1.821,4.4l1.781,1.746a4.588,4.588,0,0,0,3.212,1.328H175.4a4.588,4.588,0,0,0,3.212-1.328l1.781-1.746a6.156,6.156,0,0,0,1.821-4.4V66.107A.8.8,0,0,1,181.512,65.323Z" transform="translate(-165.212 -60.394)" fill="#fed9a8"/>
    </g>
    <g id="Grupo_1100160" data-name="Grupo 1100160" transform="translate(15.43 10.313)">
      <path id="SVGCleanerId_0_1_" d="M181.512,65.323c0-3.857-1.695-4.76-2.133-4.929-.642,1.929-2.207,3.878-5.891,4.02-4.9.188-7.25-.591-8.277.718v7.083a6.156,6.156,0,0,0,1.821,4.4l1.781,1.746a4.588,4.588,0,0,0,3.212,1.328H175.4a4.588,4.588,0,0,0,3.212-1.328l1.781-1.746a6.156,6.156,0,0,0,1.821-4.4V66.107A.8.8,0,0,1,181.512,65.323Z" transform="translate(-165.212 -60.394)" fill="#fed9a8"/>
    </g>
    <g id="Grupo_1100161" data-name="Grupo 1100161" transform="translate(15.43 10.313)">
      <path id="SVGCleanerId_0_2_" d="M181.512,65.323c0-3.857-1.695-4.76-2.133-4.929-.642,1.929-2.207,3.878-5.891,4.02-4.9.188-7.25-.591-8.277.718v7.083a6.156,6.156,0,0,0,1.821,4.4l1.781,1.746a4.588,4.588,0,0,0,3.212,1.328H175.4a4.588,4.588,0,0,0,3.212-1.328l1.781-1.746a6.156,6.156,0,0,0,1.821-4.4V66.107A.8.8,0,0,1,181.512,65.323Z" transform="translate(-165.212 -60.394)" fill="#fed9a8"/>
    </g>
    <g id="Grupo_1100162" data-name="Grupo 1100162" transform="translate(15.43 10.313)">
      <path id="Trazado_877417" data-name="Trazado 877417" d="M173.489,65.647a7.112,7.112,0,0,0,6.836-4.545,2.475,2.475,0,0,0-.946-.7c-.642,1.929-2.207,3.878-5.891,4.02-4.9.188-7.25-.591-8.277.718v1.23C166.238,65.056,168.588,65.647,173.489,65.647Z" transform="translate(-165.212 -60.397)" fill="#ffc07b"/>
      <path id="Trazado_877418" data-name="Trazado 877418" d="M253.382,65.527c0-3.721-1.577-4.692-2.081-4.907v11.8a6.156,6.156,0,0,1-1.821,4.4L247.7,78.56a4.588,4.588,0,0,1-3.212,1.328h2.782a4.588,4.588,0,0,0,3.212-1.328l1.781-1.746a6.156,6.156,0,0,0,1.821-4.4V66.311A.8.8,0,0,1,253.382,65.527Z" transform="translate(-237.082 -60.598)" fill="#ffc07b"/>
    </g>
    <path id="Trazado_877419" data-name="Trazado 877419" d="M152.755,136.757h.476V134.2h-.476a.759.759,0,0,0-.759.759V136A.759.759,0,0,0,152.755,136.757Z" transform="translate(-137.801 -116.989)" fill="#f7c68b"/>
    <path id="Trazado_877420" data-name="Trazado 877420" d="M347.719,136.757h-.476V134.2h.476a.759.759,0,0,1,.759.759V136A.759.759,0,0,1,347.719,136.757Z" transform="translate(-314.813 -116.989)" fill="#f2ad5a"/>
    <g id="Grupo_1100163" data-name="Grupo 1100163" transform="translate(18.653 17.656)">
      <path id="Trazado_877421" data-name="Trazado 877421" d="M200.511,141.22a.787.787,0,0,1-.787-.787V139.8a.787.787,0,1,1,1.574,0v.631A.787.787,0,0,1,200.511,141.22Z" transform="translate(-199.724 -139.015)" fill="#232323"/>
      <path id="Trazado_877422" data-name="Trazado 877422" d="M296.207,141.22a.787.787,0,0,1-.787-.787V139.8a.787.787,0,1,1,1.574,0v.631A.787.787,0,0,1,296.207,141.22Z" transform="translate(-286.482 -139.015)" fill="#232323"/>
    </g>
    <path id="Trazado_877423" data-name="Trazado 877423" d="M228.3,209.671a2.883,2.883,0,0,0,2.832-1.824.474.474,0,0,0-.455-.612h-4.754a.474.474,0,0,0-.455.612A2.882,2.882,0,0,0,228.3,209.671Z" transform="translate(-204.391 -183.208)" fill="#fff4e9"/>
    <g id="Grupo_1100164" data-name="Grupo 1100164" transform="translate(0.758 35.469)">
      <path id="Trazado_877424" data-name="Trazado 877424" d="M13.636,331.964,11.9,329.743a6.987,6.987,0,0,0-3.31,5.628l-.469,9.015a1.09,1.09,0,0,0,1.089,1.147h6.41l.3-6.386A10.828,10.828,0,0,0,13.636,331.964Z" transform="translate(-8.119 -329.743)" fill="#e6e6e6"/>
      <path id="Trazado_877425" data-name="Trazado 877425" d="M422.584,331.964l1.737-2.221a6.987,6.987,0,0,1,3.31,5.628l.469,9.015a1.09,1.09,0,0,1-1.089,1.147H420.6l-.3-6.386A10.827,10.827,0,0,1,422.584,331.964Z" transform="translate(-381.792 -329.743)" fill="#e6e6e6"/>
    </g>
    <path id="Trazado_877426" data-name="Trazado 877426" d="M243.562,392.172l-.166-.973h-2.55l-.156.973Z" transform="translate(-218.21 -349.991)" fill="#ea2f41"/>
    <path id="Trazado_877427" data-name="Trazado 877427" d="M331,296.074l-3.228-.731h0l3.23.732Z" transform="translate(-297.159 -263.087)" fill="#e6e6e6"/>
    <path id="Trazado_877428" data-name="Trazado 877428" d="M321.4,295.343l-.656.452h0l.655-.452Z" transform="translate(-290.793 -263.087)" fill="#f2f2f2"/>
    <path id="Trazado_877429" data-name="Trazado 877429" d="M332.388,297.831l-7.749-1.756-3.23-.732-.655.452,3.5.793,5.482,1.242a6.647,6.647,0,0,1,3.288,2.066l1.049-1.341,0,0A6.6,6.6,0,0,0,332.388,297.831Z" transform="translate(-290.798 -263.087)" fill="#e6e6e6"/>
    <path id="Trazado_877430" data-name="Trazado 877430" d="M453.309,329.743l-1.049,1.341a7.109,7.109,0,0,1,1.719,4.287l.529,10.162H456a1.09,1.09,0,0,0,1.089-1.147l-.469-9.015A6.987,6.987,0,0,0,453.309,329.743Z" transform="translate(-410.022 -294.274)" fill="#ccc"/>
    <g id="Grupo_1100165" data-name="Grupo 1100165" transform="translate(0 5.154)">
      <path id="Trazado_877431" data-name="Trazado 877431" d="M47.815,50.073l-.469-9.017h0c-.005-.095-.013-.189-.021-.283,0-.03-.006-.059-.009-.089q-.01-.1-.022-.2c0-.032-.008-.064-.013-.1q-.014-.1-.032-.209c0-.024-.007-.047-.011-.071q-.024-.135-.052-.269c-.006-.026-.012-.052-.017-.078-.014-.065-.029-.13-.045-.195l-.024-.094c-.016-.063-.033-.125-.051-.187-.008-.027-.015-.055-.023-.082q-.079-.267-.177-.526l-.024-.062q-.04-.1-.083-.206l-.024-.057q-.053-.124-.109-.245l0,0q-.125-.266-.269-.52l-.01-.018a7.633,7.633,0,0,0-1.239-1.63l0,0q-.1-.1-.2-.191l-.023-.021q-.1-.09-.2-.177l-.013-.011q-.109-.093-.222-.182l-.014-.011q-.1-.076-.2-.149l-.074-.053-.143-.1-.091-.061-.136-.087-.095-.059-.008-.005-.008,0a7.339,7.339,0,0,0-1.881-.8l-.03-.007-1.75-.4a.75.75,0,1,0-.332,1.463l1.734.393a5.807,5.807,0,0,1,.727.251l-1.176,1.5a11.583,11.583,0,0,0-2.445,7.68l.265,5.6H27.536L25.96,41.29l.914-2.275,1.432.635a1.331,1.331,0,0,0,1.587-.395l4.261-5.428,2.411.546A.75.75,0,0,0,36.9,32.91l-2.887-.654h0l-3.228-.731a.75.75,0,0,0-.592.114l-.394.272-.846-.508-.219-2.063a5.518,5.518,0,0,0,.626-.529l1.782-1.746a6.933,6.933,0,0,0,2.046-4.931v-.574a2.7,2.7,0,0,0,1.947-2.514V17.927a2.483,2.483,0,0,0-.413-1.363V12.54a7.394,7.394,0,0,0-7.386-7.386h-6.8a7.394,7.394,0,0,0-7.386,7.386V16.5a2.491,2.491,0,0,0-.456,1.428v1.118a2.707,2.707,0,0,0,1.99,2.527v.561a6.933,6.933,0,0,0,2.046,4.931l1.782,1.746a5.531,5.531,0,0,0,.587.5L18.871,31.4l-.846.508-.394-.272a.75.75,0,0,0-.592-.114L6.061,34.012l-.03.007A7.639,7.639,0,0,0,.471,41.056a.774.774,0,0,0,0,.108L.326,44a.75.75,0,0,0,1.5.078l.153-2.942a6.28,6.28,0,0,1,2.4-4.653l1.3,1.667a10.082,10.082,0,0,1,2.128,6.685l-.269,5.672H1.848a.34.34,0,0,1-.339-.358l.15-2.886a.75.75,0,1,0-1.5-.078L.016,49.967A.736.736,0,0,0,0,50.073,1.84,1.84,0,0,0,1.84,52.009H45.977a1.84,1.84,0,0,0,1.838-1.936ZM24.677,40.458H23.142l-.826-2.051,1.594-.707,1.592.706Zm-7.627-7.4,5.33,3.676-3.357,1.489-3.741-4.765Zm11.743,5.166-2.931-1.3-.425-.189,5.329-3.676,1.768.4Zm4.833-19.18a1.082,1.082,0,0,1-.447.846V17.081l.012.01c.031.025.062.051.09.079l.013.013q.044.043.083.09a1.024,1.024,0,0,1,.249.655v1.118ZM14.645,12.541a5.892,5.892,0,0,1,5.886-5.886h6.8a5.892,5.892,0,0,1,5.886,5.886v2.884a3.078,3.078,0,0,0-.656-.142l-.045-.018,0,0-.03-.015s0,0,0-.006a10.74,10.74,0,0,0-.189-2.091q-.059-.3-.133-.564a5.907,5.907,0,0,0-.543-1.338,3.557,3.557,0,0,0-1.748-1.635A.748.748,0,0,0,29,9.861l-.011.013,0,0a.751.751,0,0,0-.1.2A4.79,4.79,0,0,1,25.1,13.411a7.976,7.976,0,0,1-1.1.153c-.108.008-.216.015-.327.019-.538.021-1.07.031-1.628.031h-.308c-.812-.005-1.535-.031-2.181-.053-.51-.018-.959-.034-1.373-.037h-.175a3.765,3.765,0,0,0-3.173,1.067.75.75,0,0,0-.16.463V15.4l-.034.011V12.541Zm-.456,6.505V17.927a1.035,1.035,0,0,1,.28-.693l.036-.037c.019-.019.037-.038.058-.056l.041-.034c.021-.017.042-.035.064-.051l.011-.008v2.878A1.094,1.094,0,0,1,14.19,19.046ZM31.68,21.2v.934a5.423,5.423,0,0,1-1.6,3.859L28.3,27.739a3.975,3.975,0,0,1-.743.574l-.01.005q-.11.065-.224.123h0a3.813,3.813,0,0,1-1.195.374l-.029,0c-.066.009-.133.015-.2.02l-.054,0c-.077,0-.154.008-.231.008H22.244c-.078,0-.157,0-.235-.008l-.053,0c-.071-.006-.142-.013-.213-.022l-.018,0a3.821,3.821,0,0,1-1.449-.519l-.01-.005a3.977,3.977,0,0,1-.71-.553l-1.782-1.746a5.424,5.424,0,0,1-1.6-3.859V15.356a3.126,3.126,0,0,1,1.833-.334c.435,0,.926.017,1.5.037.738.026,1.575.055,2.538.055h0c.577,0,1.129-.01,1.685-.032,3.6-.138,5.348-1.88,6.2-3.613a3.9,3.9,0,0,1,.84,1.764,8.807,8.807,0,0,1,.206,2.008c0,.041,0,.082,0,.122,0,.011,0,.023,0,.034,0,.031.007.061.011.091,0,.01,0,.02,0,.03.007.039.015.078.024.116l0,.006c.009.036.02.071.032.106l.009.026q.017.046.036.09l.007.017c.016.036.034.071.053.105l0,.006c.018.031.037.062.058.092l.013.019c.02.029.042.058.064.085l.006.007q.038.046.081.09l.008.008c.025.025.051.05.079.073l.017.015c.03.025.06.05.093.073h0l.046.032M19.964,32.5a.75.75,0,0,0,.36-.564l.2-1.869a5.245,5.245,0,0,0,.823.211l.042.007.163.024.087.011.135.014.131.01.1.006c.08,0,.159.006.239.006h3.371c.079,0,.158,0,.237-.006l.1-.006.133-.01.127-.013.093-.011.153-.022.041-.007a5.253,5.253,0,0,0,.8-.2l.2,1.856a.75.75,0,0,0,.36.564l.582.349-4.526,3.122-4.526-3.122Zm-13.1,4.73L5.688,35.72a5.83,5.83,0,0,1,.72-.249l7.255-1.644,4.261,5.428a1.324,1.324,0,0,0,1.047.509h0a1.323,1.323,0,0,0,.54-.114l1.431-.635.918,2.28-1.48,9.213H9.045l.265-5.6A11.583,11.583,0,0,0,6.866,37.227ZM21.9,50.508l1.373-8.55h1.278l1.462,8.55ZM46.224,50.4a.337.337,0,0,1-.247.106H40.282l-.269-5.672a10.082,10.082,0,0,1,2.128-6.685l1.3-1.666.043.033c.05.039.1.079.147.12s.1.088.153.133.075.067.111.1.077.074.115.112l.083.085q.123.127.238.261l.03.035c.038.045.076.092.113.139l.063.08c.036.047.072.094.107.142l.054.077q.088.125.17.255l.064.1q.041.068.081.138c.023.041.046.082.068.123s.05.093.074.14q.055.109.107.221c.018.038.034.077.051.115q.036.083.07.167c.015.036.029.072.043.108.034.088.066.177.1.267.006.019.012.039.018.058q.038.116.071.235l.025.093q.031.117.057.235c0,.021.01.042.015.064q.032.149.057.3c0,.024.007.049.011.074q.018.12.033.242c0,.029.007.058.01.087.011.1.02.207.025.312l.469,9.015A.338.338,0,0,1,46.224,50.4Z" transform="translate(0 -5.154)" fill="#232323"/>
      <path id="Trazado_877432" data-name="Trazado 877432" d="M221.024,203.138a3.634,3.634,0,0,0,3.549-2.351A1.224,1.224,0,0,0,223.4,199.2h-4.754a1.224,1.224,0,0,0-1.171,1.585A3.633,3.633,0,0,0,221.024,203.138Zm1.944-2.436a2.488,2.488,0,0,1-3.888,0Z" transform="translate(-197.115 -181.079)" fill="#232323"/>
    </g>
  </g>
</svg>
