<svg xmlns="http://www.w3.org/2000/svg" xmlns:xlink="http://www.w3.org/1999/xlink" width="400" height="470" viewBox="0 0 400 470">
  <defs>
    <clipPath id="clip-path">
      <rect id="Rectángulo_401757" data-name="Rectángulo 401757" width="329.82" height="182.874" fill="none"/>
    </clipPath>
  </defs>
  <g id="Grupo_1110166" data-name="Grupo 1110166" transform="translate(-180 -2162)">
    <rect id="Rectángulo_400797" data-name="Rectángulo 400797" width="400" height="470" rx="23" transform="translate(180 2162)" fill="#d9e9e0"/>
    <g id="Grupo_1098844" data-name="Grupo 1098844" transform="translate(495 2560)">
      <g id="Grupo_78347" data-name="Grupo 78347">
        <path id="Trazado_99257" data-name="Trazado 99257" d="M417.186,104.2a1.487,1.487,0,1,1-1.487-1.42A1.454,1.454,0,0,1,417.186,104.2Z" transform="translate(-414.214 -102.779)" fill="#59836b"/>
        <path id="Trazado_99258" data-name="Trazado 99258" d="M425.632,104.2a1.487,1.487,0,1,1-1.485-1.42A1.454,1.454,0,0,1,425.632,104.2Z" transform="translate(-409.289 -102.779)" fill="#59836b"/>
        <path id="Trazado_99259" data-name="Trazado 99259" d="M434.078,104.2a1.487,1.487,0,1,1-1.485-1.42A1.454,1.454,0,0,1,434.078,104.2Z" transform="translate(-404.363 -102.779)" fill="#59836b"/>
        <path id="Trazado_99260" data-name="Trazado 99260" d="M442.525,104.2a1.487,1.487,0,1,1-1.487-1.42A1.454,1.454,0,0,1,442.525,104.2Z" transform="translate(-399.438 -102.779)" fill="#59836b"/>
        <path id="Trazado_99261" data-name="Trazado 99261" d="M450.971,104.2a1.487,1.487,0,1,1-1.485-1.42A1.454,1.454,0,0,1,450.971,104.2Z" transform="translate(-394.512 -102.779)" fill="#59836b"/>
        <ellipse id="Elipse_3975" data-name="Elipse 3975" cx="1.486" cy="1.421" rx="1.486" ry="1.421" transform="translate(0 11.367)" fill="#59836b"/>
        <path id="Trazado_99268" data-name="Trazado 99268" d="M425.632,111.707a1.487,1.487,0,1,1-1.485-1.42A1.455,1.455,0,0,1,425.632,111.707Z" transform="translate(-409.289 -98.92)" fill="#59836b"/>
        <ellipse id="Elipse_3976" data-name="Elipse 3976" cx="1.486" cy="1.421" rx="1.486" ry="1.421" transform="translate(26.743 11.367)" fill="#59836b"/>
        <path id="Trazado_99269" data-name="Trazado 99269" d="M442.525,111.707a1.487,1.487,0,1,1-1.487-1.42A1.455,1.455,0,0,1,442.525,111.707Z" transform="translate(-399.438 -98.92)" fill="#59836b"/>
        <path id="Trazado_99270" data-name="Trazado 99270" d="M450.971,111.707a1.487,1.487,0,1,1-1.485-1.42A1.455,1.455,0,0,1,450.971,111.707Z" transform="translate(-394.512 -98.92)" fill="#59836b"/>
        <path id="Trazado_99274" data-name="Trazado 99274" d="M417.186,119.216a1.487,1.487,0,1,1-1.487-1.422A1.455,1.455,0,0,1,417.186,119.216Z" transform="translate(-414.214 -95.062)" fill="#59836b"/>
        <path id="Trazado_99275" data-name="Trazado 99275" d="M425.632,119.216a1.487,1.487,0,1,1-1.485-1.422A1.455,1.455,0,0,1,425.632,119.216Z" transform="translate(-409.289 -95.062)" fill="#59836b"/>
        <path id="Trazado_99276" data-name="Trazado 99276" d="M434.078,119.216a1.487,1.487,0,1,1-1.485-1.422A1.455,1.455,0,0,1,434.078,119.216Z" transform="translate(-404.363 -95.062)" fill="#59836b"/>
        <path id="Trazado_99277" data-name="Trazado 99277" d="M442.525,119.216a1.487,1.487,0,1,1-1.487-1.422A1.455,1.455,0,0,1,442.525,119.216Z" transform="translate(-399.438 -95.062)" fill="#59836b"/>
        <path id="Trazado_99278" data-name="Trazado 99278" d="M450.971,119.216a1.487,1.487,0,1,1-1.485-1.422A1.455,1.455,0,0,1,450.971,119.216Z" transform="translate(-394.512 -95.062)" fill="#59836b"/>
        <ellipse id="Elipse_3980" data-name="Elipse 3980" cx="1.486" cy="1.421" rx="1.486" ry="1.421" transform="translate(0 34.1)" fill="#59836b"/>
        <path id="Trazado_99285" data-name="Trazado 99285" d="M425.632,126.724a1.487,1.487,0,1,1-1.485-1.422A1.454,1.454,0,0,1,425.632,126.724Z" transform="translate(-409.289 -91.202)" fill="#59836b"/>
        <ellipse id="Elipse_3981" data-name="Elipse 3981" cx="1.486" cy="1.421" rx="1.486" ry="1.421" transform="translate(26.743 34.1)" fill="#59836b"/>
        <path id="Trazado_99286" data-name="Trazado 99286" d="M442.525,126.724a1.487,1.487,0,1,1-1.487-1.422A1.454,1.454,0,0,1,442.525,126.724Z" transform="translate(-399.438 -91.202)" fill="#59836b"/>
        <path id="Trazado_99287" data-name="Trazado 99287" d="M450.971,126.724a1.487,1.487,0,1,1-1.485-1.422A1.454,1.454,0,0,1,450.971,126.724Z" transform="translate(-394.512 -91.202)" fill="#59836b"/>
        <ellipse id="Elipse_3985" data-name="Elipse 3985" cx="1.486" cy="1.421" rx="1.486" ry="1.421" transform="translate(0 45.467)" fill="#59836b"/>
        <path id="Trazado_99291" data-name="Trazado 99291" d="M425.632,134.232a1.487,1.487,0,1,1-1.485-1.422A1.454,1.454,0,0,1,425.632,134.232Z" transform="translate(-409.289 -87.343)" fill="#59836b"/>
        <ellipse id="Elipse_3986" data-name="Elipse 3986" cx="1.486" cy="1.421" rx="1.486" ry="1.421" transform="translate(26.743 45.467)" fill="#59836b"/>
        <path id="Trazado_99292" data-name="Trazado 99292" d="M442.525,134.232a1.487,1.487,0,1,1-1.487-1.422A1.454,1.454,0,0,1,442.525,134.232Z" transform="translate(-399.438 -87.343)" fill="#59836b"/>
        <path id="Trazado_99293" data-name="Trazado 99293" d="M450.971,134.232a1.487,1.487,0,1,1-1.485-1.422A1.454,1.454,0,0,1,450.971,134.232Z" transform="translate(-394.512 -87.343)" fill="#59836b"/>
      </g>
    </g>
    <rect id="Rectángulo_400943" data-name="Rectángulo 400943" width="210" height="26" transform="translate(275 2220)" fill="#fff"/>
    <path id="Trazado_900087" data-name="Trazado 900087" d="M8.842-5.546H3.779v3.428H9.721V0H1.143V-12.8H9.7v2.136H3.779v3.05H8.842Zm5.88-1.125,1.6-2.839h2.716L16.33-4.852,19.151,0H16.427l-1.7-2.988L13.043,0H10.31l2.821-4.852-2.7-4.658h2.725Zm14.1,2a5.7,5.7,0,0,1-1,3.52A3.2,3.2,0,0,1,25.128.176a2.963,2.963,0,0,1-2.329-1V3.656h-2.54V-9.51h2.355l.088.932A2.985,2.985,0,0,1,25.11-9.686a3.22,3.22,0,0,1,2.733,1.3A5.858,5.858,0,0,1,28.819-4.8Zm-2.54-.185a3.743,3.743,0,0,0-.47-2.048,1.532,1.532,0,0,0-1.367-.721,1.663,1.663,0,0,0-1.644.914v3.894a1.692,1.692,0,0,0,1.661.94Q26.279-1.872,26.279-4.852ZM34.77.176a4.668,4.668,0,0,1-3.406-1.283A4.561,4.561,0,0,1,30.05-4.526v-.246A5.745,5.745,0,0,1,30.6-7.334a4.064,4.064,0,0,1,1.569-1.74,4.4,4.4,0,0,1,2.316-.611,3.947,3.947,0,0,1,3.072,1.23,5,5,0,0,1,1.121,3.489v1.037H32.625a2.36,2.36,0,0,0,.743,1.494,2.245,2.245,0,0,0,1.569.563A2.742,2.742,0,0,0,37.23-2.936l1.248,1.4A3.813,3.813,0,0,1,36.932-.277,5.075,5.075,0,0,1,34.77.176Zm-.29-7.813a1.587,1.587,0,0,0-1.226.512,2.651,2.651,0,0,0-.6,1.466h3.533v-.2a1.891,1.891,0,0,0-.457-1.311A1.638,1.638,0,0,0,34.479-7.638Zm10.986.51a6.9,6.9,0,0,0-.914-.07,1.86,1.86,0,0,0-1.89.976V0h-2.54V-9.51h2.4l.07,1.134a2.354,2.354,0,0,1,2.118-1.31,2.662,2.662,0,0,1,.791.114ZM49.368,0H46.819V-9.51h2.549Zm-2.7-11.971a1.251,1.251,0,0,1,.382-.94,1.436,1.436,0,0,1,1.042-.369,1.44,1.44,0,0,1,1.037.369,1.244,1.244,0,0,1,.387.94,1.247,1.247,0,0,1-.391.949,1.443,1.443,0,0,1-1.033.369,1.443,1.443,0,0,1-1.033-.369A1.247,1.247,0,0,1,46.67-11.971ZM55.837.176a4.668,4.668,0,0,1-3.406-1.283,4.561,4.561,0,0,1-1.314-3.419v-.246a5.745,5.745,0,0,1,.554-2.562,4.064,4.064,0,0,1,1.569-1.74,4.4,4.4,0,0,1,2.316-.611,3.947,3.947,0,0,1,3.072,1.23,5,5,0,0,1,1.121,3.489v1.037H53.692a2.36,2.36,0,0,0,.743,1.494A2.245,2.245,0,0,0,56-1.872,2.742,2.742,0,0,0,58.3-2.936l1.248,1.4A3.813,3.813,0,0,1,58-.277,5.075,5.075,0,0,1,55.837.176Zm-.29-7.813a1.587,1.587,0,0,0-1.226.512,2.651,2.651,0,0,0-.6,1.466h3.533v-.2a1.891,1.891,0,0,0-.457-1.311A1.638,1.638,0,0,0,55.547-7.638Zm7.98-1.872.079,1.1A3.32,3.32,0,0,1,66.34-9.686a2.759,2.759,0,0,1,2.25.888,4.142,4.142,0,0,1,.756,2.654V0h-2.54V-6.082a1.648,1.648,0,0,0-.352-1.173,1.574,1.574,0,0,0-1.169-.365,1.747,1.747,0,0,0-1.608.914V0h-2.54V-9.51Zm11.7,7.638a1.666,1.666,0,0,0,1.143-.387,1.355,1.355,0,0,0,.457-1.028h2.382a3.258,3.258,0,0,1-.527,1.771A3.48,3.48,0,0,1,77.26-.268,4.442,4.442,0,0,1,75.27.176a4.129,4.129,0,0,1-3.217-1.3A5.13,5.13,0,0,1,70.875-4.7v-.167a5.071,5.071,0,0,1,1.169-3.507,4.08,4.08,0,0,1,3.208-1.31A4,4,0,0,1,78.113-8.67a3.594,3.594,0,0,1,1.094,2.7H76.825a1.745,1.745,0,0,0-.457-1.206,1.524,1.524,0,0,0-1.16-.464,1.53,1.53,0,0,0-1.34.647,3.749,3.749,0,0,0-.453,2.1v.264a3.8,3.8,0,0,0,.448,2.113A1.549,1.549,0,0,0,75.226-1.872ZM83.338,0H80.789V-9.51h2.549Zm-2.7-11.971a1.251,1.251,0,0,1,.382-.94,1.436,1.436,0,0,1,1.042-.369,1.44,1.44,0,0,1,1.037.369,1.244,1.244,0,0,1,.387.94,1.247,1.247,0,0,1-.391.949,1.443,1.443,0,0,1-1.033.369,1.443,1.443,0,0,1-1.033-.369A1.247,1.247,0,0,1,80.64-11.971ZM90.94,0a2.821,2.821,0,0,1-.255-.853,3.073,3.073,0,0,1-2.4,1.028A3.376,3.376,0,0,1,85.97-.633a2.6,2.6,0,0,1-.918-2.039,2.687,2.687,0,0,1,1.121-2.32,5.529,5.529,0,0,1,3.239-.817H90.58v-.545a1.567,1.567,0,0,0-.338-1.055,1.331,1.331,0,0,0-1.068-.4,1.513,1.513,0,0,0-1.006.308,1.045,1.045,0,0,0-.365.844h-2.54a2.551,2.551,0,0,1,.51-1.529,3.37,3.37,0,0,1,1.441-1.1,5.253,5.253,0,0,1,2.092-.4A4.15,4.15,0,0,1,92.1-8.8a3.09,3.09,0,0,1,1.033,2.483V-2.2a4.546,4.546,0,0,0,.378,2.048V0Zm-2.1-1.767a2.188,2.188,0,0,0,1.037-.25,1.645,1.645,0,0,0,.7-.672V-4.324h-.949q-1.907,0-2.03,1.318l-.009.149a1.017,1.017,0,0,0,.334.782A1.3,1.3,0,0,0,88.84-1.767Zm11.391-.861a.818.818,0,0,0-.461-.734,5.241,5.241,0,0,0-1.481-.479Q94.9-4.553,94.9-6.724a2.613,2.613,0,0,1,1.05-2.114,4.237,4.237,0,0,1,2.747-.848,4.56,4.56,0,0,1,2.9.853,2.687,2.687,0,0,1,1.085,2.215h-2.54a1.229,1.229,0,0,0-.352-.9,1.488,1.488,0,0,0-1.1-.356,1.52,1.52,0,0,0-.993.29.916.916,0,0,0-.352.738.783.783,0,0,0,.4.681,4.114,4.114,0,0,0,1.349.448,11.019,11.019,0,0,1,1.6.426A2.628,2.628,0,0,1,102.7-2.733a2.481,2.481,0,0,1-1.116,2.1,4.815,4.815,0,0,1-2.883.8A5.029,5.029,0,0,1,96.579-.25a3.561,3.561,0,0,1-1.455-1.169,2.716,2.716,0,0,1-.527-1.6H97a1.326,1.326,0,0,0,.5,1.037,1.987,1.987,0,0,0,1.248.36,1.839,1.839,0,0,0,1.1-.277A.861.861,0,0,0,100.23-2.628Zm17.147-2.039a5.7,5.7,0,0,1-1,3.52A3.2,3.2,0,0,1,113.687.176a2.963,2.963,0,0,1-2.329-1V3.656h-2.54V-9.51h2.355l.088.932a2.985,2.985,0,0,1,2.408-1.107,3.22,3.22,0,0,1,2.733,1.3,5.858,5.858,0,0,1,.976,3.586Zm-2.54-.185a3.743,3.743,0,0,0-.47-2.048A1.532,1.532,0,0,0,113-7.62a1.663,1.663,0,0,0-1.644.914v3.894a1.692,1.692,0,0,0,1.661.94Q114.838-1.872,114.838-4.852Zm9.457-2.276a6.9,6.9,0,0,0-.914-.07,1.86,1.86,0,0,0-1.89.976V0h-2.54V-9.51h2.4l.07,1.134a2.354,2.354,0,0,1,2.118-1.31,2.662,2.662,0,0,1,.791.114Zm.51,2.285a5.64,5.64,0,0,1,.545-2.522,3.989,3.989,0,0,1,1.569-1.714,4.577,4.577,0,0,1,2.377-.606,4.33,4.33,0,0,1,3.142,1.178,4.727,4.727,0,0,1,1.358,3.2l.018.65a4.97,4.97,0,0,1-1.222,3.511A4.247,4.247,0,0,1,129.313.176a4.268,4.268,0,0,1-3.283-1.318A5.058,5.058,0,0,1,124.8-4.729Zm2.54.18a3.555,3.555,0,0,0,.51,2.073,1.682,1.682,0,0,0,1.459.717,1.686,1.686,0,0,0,1.441-.709,3.89,3.89,0,0,0,.519-2.267,3.519,3.519,0,0,0-.519-2.06,1.686,1.686,0,0,0-1.459-.731,1.658,1.658,0,0,0-1.441.726A3.955,3.955,0,0,0,127.345-4.662Zm16.594,0a5.7,5.7,0,0,1-1,3.52A3.2,3.2,0,0,1,140.247.176a2.963,2.963,0,0,1-2.329-1V3.656h-2.54V-9.51h2.355l.088.932a2.985,2.985,0,0,1,2.408-1.107,3.22,3.22,0,0,1,2.733,1.3,5.858,5.858,0,0,1,.976,3.586Zm-2.54-.185a3.743,3.743,0,0,0-.47-2.048,1.532,1.532,0,0,0-1.367-.721,1.663,1.663,0,0,0-1.644.914v3.894a1.692,1.692,0,0,0,1.661.94Q141.4-1.872,141.4-4.852ZM148.192,0h-2.549V-9.51h2.549Zm-2.7-11.971a1.251,1.251,0,0,1,.382-.94,1.436,1.436,0,0,1,1.042-.369,1.44,1.44,0,0,1,1.037.369,1.244,1.244,0,0,1,.387.94,1.247,1.247,0,0,1-.391.949,1.443,1.443,0,0,1-1.033.369,1.443,1.443,0,0,1-1.033-.369A1.247,1.247,0,0,1,145.494-11.971ZM155.795,0a2.821,2.821,0,0,1-.255-.853,3.073,3.073,0,0,1-2.4,1.028,3.376,3.376,0,0,1-2.316-.809,2.6,2.6,0,0,1-.918-2.039,2.687,2.687,0,0,1,1.121-2.32,5.529,5.529,0,0,1,3.239-.817h1.169v-.545a1.567,1.567,0,0,0-.338-1.055,1.331,1.331,0,0,0-1.068-.4,1.513,1.513,0,0,0-1.006.308,1.045,1.045,0,0,0-.365.844h-2.54a2.551,2.551,0,0,1,.51-1.529,3.37,3.37,0,0,1,1.441-1.1,5.253,5.253,0,0,1,2.092-.4,4.15,4.15,0,0,1,2.791.883,3.09,3.09,0,0,1,1.033,2.483V-2.2a4.546,4.546,0,0,0,.378,2.048V0Zm-2.1-1.767a2.188,2.188,0,0,0,1.037-.25,1.645,1.645,0,0,0,.7-.672V-4.324h-.949q-1.907,0-2.03,1.318l-.009.149a1.017,1.017,0,0,0,.334.782A1.3,1.3,0,0,0,153.694-1.767Zm11.391-.861a.818.818,0,0,0-.461-.734,5.241,5.241,0,0,0-1.481-.479q-3.393-.712-3.393-2.883a2.613,2.613,0,0,1,1.05-2.114,4.237,4.237,0,0,1,2.747-.848,4.56,4.56,0,0,1,2.9.853,2.687,2.687,0,0,1,1.085,2.215h-2.54a1.229,1.229,0,0,0-.352-.9,1.488,1.488,0,0,0-1.1-.356,1.52,1.52,0,0,0-.993.29.916.916,0,0,0-.352.738.783.783,0,0,0,.4.681,4.114,4.114,0,0,0,1.349.448,11.019,11.019,0,0,1,1.6.426,2.628,2.628,0,0,1,2.013,2.558,2.481,2.481,0,0,1-1.116,2.1,4.815,4.815,0,0,1-2.883.8,5.029,5.029,0,0,1-2.123-.426,3.561,3.561,0,0,1-1.455-1.169,2.716,2.716,0,0,1-.527-1.6h2.408a1.326,1.326,0,0,0,.5,1.037,1.987,1.987,0,0,0,1.248.36,1.839,1.839,0,0,0,1.1-.277A.861.861,0,0,0,165.085-2.628Z" transform="translate(296 2240)" fill="#12263f"/>
    <g id="Grupo_1099833" data-name="Grupo 1099833" transform="translate(224 2324.422)">
      <g id="Grupo_1099832" data-name="Grupo 1099832" transform="translate(-9 -0.003)" clip-path="url(#clip-path)">
        <path id="Trazado_876759" data-name="Trazado 876759" d="M1415.311,203.08c.1-4.5,1-10.817,7.622-14.041s5.9,1.679,12.13-4.613c3.234-3.268,10.917-3.543,15.107-1.99,0,0,9.116,6.352,11.509,12.3a74.853,74.853,0,0,1,3.608,12.72s3.759-4.973,5.909-5.539c2.323-5.806,1.735-15.187-6.967-25.082-4.938-9.238-16.9-19.312-37.22-4.819l-1.819,1.273s-6.456-5.667-9.148-3.078-9.263,19.192-.729,32.866" transform="translate(-1231.541 -143.773)" fill="#c1c0ad"/>
        <path id="Trazado_876760" data-name="Trazado 876760" d="M1115.888,706.272l12.948,1.122a3.81,3.81,0,0,1,2.327.689c.739.714.7,2.095-.12,4.223a.824.824,0,1,0,1.538.593c.4-1.034,1.612-4.182-.272-6a5.285,5.285,0,0,0-3.329-1.145l-12.949-1.123a.824.824,0,0,0-.142,1.643" transform="translate(-973.25 -614.972)"/>
        <path id="Trazado_876761" data-name="Trazado 876761" d="M1138.867,767.117a9.481,9.481,0,0,0,1.68-3.259,3.8,3.8,0,0,0-1.222-3.9,4.908,4.908,0,0,0-2.388-.749l-7.954-.966a.824.824,0,0,0-.2,1.636l7.954.966a3.615,3.615,0,0,1,1.618.446,2.189,2.189,0,0,1,.584,2.2,8.1,8.1,0,0,1-1.424,2.681.8.8,0,0,0-.071.127,2.956,2.956,0,0,0-.715-.747,4.895,4.895,0,0,0-2.388-.749l-7.955-.966a.824.824,0,1,0-.2,1.636l7.955.966a3.6,3.6,0,0,1,1.618.447,2.19,2.19,0,0,1,.584,2.2,8.1,8.1,0,0,1-1.424,2.68.824.824,0,1,0,1.35.945,9.465,9.465,0,0,0,1.681-3.259,4.464,4.464,0,0,0-.016-2.024.815.815,0,0,0,.931-.309" transform="translate(-982.265 -661.763)"/>
        <path id="Trazado_876762" data-name="Trazado 876762" d="M1100.2,841.881l7.955.966a3.606,3.606,0,0,1,1.618.446,2.189,2.189,0,0,1,.585,2.2,8.1,8.1,0,0,1-1.425,2.681.827.827,0,0,0-.107.215,2.866,2.866,0,0,1-2.758,1.876c-.989-.119-1.274-1.131-1.339-1.958a.824.824,0,1,0-1.643.129c.156,1.979,1.2,3.274,2.786,3.466a3.309,3.309,0,0,0,.4.023,4.6,4.6,0,0,0,4.081-2.9,9.2,9.2,0,0,0,1.616-3.166,3.8,3.8,0,0,0-1.222-3.9,4.895,4.895,0,0,0-2.388-.749l-7.954-.966a.824.824,0,1,0-.2,1.636" transform="translate(-959.582 -733.33)"/>
        <path id="Trazado_876763" data-name="Trazado 876763" d="M1069.256,1051.174c-8.144-.225-12.653-2.223-18.556-8.221a118.174,118.174,0,0,1-10.643-13.139c-1.654-2.254-3.364-4.585-5.127-6.816-3.147-3.984-6.2-6.316-10.06-9.268-1.335-1.021-2.715-2.076-4.229-3.3a.824.824,0,0,0-1.036,1.282c1.531,1.237,2.92,2.3,4.264,3.326,3.771,2.883,6.749,5.16,9.768,8.981,1.745,2.209,3.446,4.527,5.091,6.77a119.428,119.428,0,0,0,10.8,13.32c6.178,6.278,11.146,8.477,19.685,8.713h.023a.824.824,0,0,0,.022-1.648" transform="translate(-889.608 -881.707)"/>
        <path id="Trazado_876764" data-name="Trazado 876764" d="M983.689,724.271l5.222-13.132c1.016-2.556,2.306-5.23,4.17-5.685a.824.824,0,1,0-.392-1.6c-2.585.631-4.08,3.583-5.31,6.678l-5.222,13.131a31.809,31.809,0,0,0-2.476,8.534c-.268,2.76.259,6.409,2.545,8.374a.824.824,0,1,0,1.075-1.25c-1.489-1.281-2.266-4.015-1.979-6.965a30.1,30.1,0,0,1,2.367-8.084" transform="translate(-854.976 -614.276)"/>
        <path id="Trazado_876765" data-name="Trazado 876765" d="M1085.036,936.143a6.321,6.321,0,0,0,4.342,2.925,7.03,7.03,0,0,0,1.283.119,6.21,6.21,0,0,0,3.878-1.307.824.824,0,0,0-1.025-1.29,4.743,4.743,0,0,1-3.834.857,4.673,4.673,0,0,1-3.223-2.14.824.824,0,0,0-1.421.836" transform="translate(-946.882 -815.948)"/>
        <path id="Trazado_876766" data-name="Trazado 876766" d="M1427.563,816.721c-7.581,1.18-11.281,10.475-14.546,18.675-2.036,5.113-3.959,9.943-6.48,12.043a.824.824,0,0,0,1.055,1.267c2.843-2.368,4.842-7.387,6.957-12.7,3.1-7.791,6.617-16.62,13.268-17.656a.824.824,0,1,0-.254-1.629" transform="translate(-1227.317 -712.796)"/>
        <path id="Trazado_876767" data-name="Trazado 876767" d="M2219.868,1127.623c-14.146,10.447-17.164,11.954-28.4,17.562-2.438,1.218-5.2,2.6-8.556,4.306-.02.01-.037.024-.056.036a.815.815,0,0,0-.07.045.8.8,0,0,0-.061.054.732.732,0,0,0-.057.056.72.72,0,0,0-.049.066.757.757,0,0,0-.044.065.8.8,0,0,0-.04.083c-.008.018-.018.034-.025.053,0,0,0,.008,0,.011a.887.887,0,0,0-.023.094c0,.021-.012.042-.014.064a.794.794,0,0,0,0,.087.731.731,0,0,0,0,.073c0,.025.008.05.011.076s.007.055.014.082.015.041.022.062a.837.837,0,0,0,.035.091s0,.007,0,.01.01.013.014.021a.833.833,0,0,0,.1.145c.012.014.024.027.036.04a.8.8,0,0,0,.156.126l.009,0a.821.821,0,0,0,.14.067,3.033,3.033,0,0,1,1.355,1.645,7.756,7.756,0,0,1,.61,4.9c-.755,1.948-2.73,3.274-4.15,4.1a.824.824,0,1,0,.83,1.424c1.634-.952,3.915-2.5,4.857-4.93.57-1.471.292-4.129-.648-6.181a6.288,6.288,0,0,0-1.016-1.6c2.824-1.433,5.217-2.628,7.358-3.7,11.331-5.658,14.377-7.179,28.638-17.711a.824.824,0,1,0-.979-1.326" transform="translate(-1902.992 -984.009)"/>
        <path id="Trazado_876768" data-name="Trazado 876768" d="M2012.343,671.687c-3.833-3.8-13.294-6.831-18.376-8.459-1.153-.369-2.064-.661-2.593-.861-5.583-2.111-12.259-5.762-19.327-9.627-14.677-8.025-29.851-16.323-40-13.849a.824.824,0,0,0,.391,1.6c9.523-2.327,25.089,6.185,38.818,13.693,7.12,3.893,13.844,7.571,19.535,9.722.569.215,1.5.512,2.674.889,4.95,1.585,14.165,4.536,17.717,8.059,3.939,3.907,2.642,13.984,1.531,19.256-1.8-3.632-6.847-7.6-14.032-8.948-4.082-.766-7.222-.175-8.611,1.622a.824.824,0,1,0,1.3,1.009c.968-1.253,3.651-1.64,7-1.011,7.273,1.365,12.251,5.665,13.242,9.018.719,2.431-.205,4.887-2.745,7.3a.824.824,0,0,0,1.136,1.195c2.561-2.434,3.4-4.724,3.482-6.6a54.7,54.7,0,0,0,1.8-9.59c.672-6.961-.32-11.812-2.947-14.418" transform="translate(-1685.673 -557.214)"/>
        <path id="Trazado_876769" data-name="Trazado 876769" d="M2154.746,1039.885c.685-.566,1.469-1.219,2.331-1.935,6.8-5.657,18.192-15.126,23.565-18.215a.824.824,0,1,0-.822-1.429c-5.5,3.159-16.953,12.685-23.8,18.376l-.361.3c1.6-5.58,2.2-13.065,2.69-19.193a81.093,81.093,0,0,1,.883-8.2.824.824,0,0,0-1.612-.343,81.328,81.328,0,0,0-.913,8.414c-.742,9.249-1.863,23.227-6.528,25.482a.825.825,0,1,0,.718,1.485c1.564-.756,2.774-2.424,3.725-4.655a.854.854,0,0,0,.121-.083" transform="translate(-1876.197 -880.262)"/>
        <path id="Trazado_876770" data-name="Trazado 876770" d="M2388.621,1043.959a.824.824,0,1,0,.073,1.647c4.546-.2,11.375,4.462,13.55,8.276.511.9,1,2.155.4,3.061a.824.824,0,1,0,1.381.9c.577-.885.985-2.432-.353-4.779-2.445-4.289-9.868-9.34-15.055-9.106" transform="translate(-2084.016 -911.124)"/>
        <path id="Trazado_876771" data-name="Trazado 876771" d="M1417.555,1117.989a5.472,5.472,0,0,1-4.844-.166c-4.343-1.983-10.5-9.325-15.176-33.036a.825.825,0,0,0-.078-.222.848.848,0,0,0-.805-.451c-.656.048-.724.244-1.861,3.512-.334.96-.78,2.241-.972,2.667a.816.816,0,0,0-.153.208l-.184.358c-3,5.815-4.369,8.47-9.812,12.167a.82.82,0,0,0-.208.207c-1.728-9.148-9.419-20.018-14.8-22.125-2.135-.837-3.451-.162-4.179.551a.824.824,0,0,0,1.154,1.178c.206-.2.836-.817,2.425-.194,5.447,2.133,13.655,14.593,14.092,23.4a6.359,6.359,0,0,1-.439,3.206c-.821,1.573-3.292,3.94-3.884,4.032a.824.824,0,0,0-.414,1.6,1.317,1.317,0,0,0,.369.051c2.1,0,5.164-4.481,5.391-4.915a7.774,7.774,0,0,0,.623-4.051c-.026-.521-.08-1.052-.153-1.59a.823.823,0,0,0,.953.023c5.79-3.933,7.314-6.888,10.351-12.775l.078-.151a14.394,14.394,0,0,0,1.323-3.3l.125-.358c2.778,12.981,7.642,27.981,15.627,31.547a8.11,8.11,0,0,0,3.327.744,6.161,6.161,0,0,0,2.965-.691.824.824,0,0,0-.836-1.421" transform="translate(-1190.655 -943.215)"/>
        <path id="Trazado_876772" data-name="Trazado 876772" d="M1181.842,1000.377a.809.809,0,0,0-.162-.115,60.819,60.819,0,0,0-24.745-14.647.824.824,0,1,0-.478,1.577,59.171,59.171,0,0,1,24.488,14.651.818.818,0,0,0,.193.139,38.272,38.272,0,0,1,11.653,28.657.825.825,0,0,0,.794.853h.03a.824.824,0,0,0,.823-.794,39.926,39.926,0,0,0-12.6-30.322" transform="translate(-1008.804 -860.18)"/>
        <path id="Trazado_876773" data-name="Trazado 876773" d="M1883.642,1297.138a67.265,67.265,0,0,1-35.872,10.916.824.824,0,0,0,.008,1.648h.008a68.931,68.931,0,0,0,36.761-11.187.824.824,0,1,0-.905-1.378" transform="translate(-1611.956 -1131.977)"/>
        <path id="Trazado_876774" data-name="Trazado 876774" d="M1964.928,1167.982a.825.825,0,0,0,.783-.567,96.076,96.076,0,0,1,6.2-14.65.824.824,0,1,0-1.46-.766,97.776,97.776,0,0,0-6.305,14.9.825.825,0,0,0,.783,1.082" transform="translate(-1714.201 -1005.039)"/>
        <path id="Trazado_876775" data-name="Trazado 876775" d="M1627.2,849.38c.6,1.037,1.226,2.109,1.824,3.216a.865.865,0,0,0,.668.448.9.9,0,0,0,.092.005.865.865,0,0,0,.656-.3,28.972,28.972,0,0,0,4.754-6.911l.041-.084a.864.864,0,0,0-1.556-.754l-.042.085a25.173,25.173,0,0,1-3.7,5.582c-.415-.736-.831-1.453-1.239-2.154a52.619,52.619,0,0,1-4.439-8.972.865.865,0,0,0-1.625.591,54.8,54.8,0,0,0,4.57,9.25" transform="translate(-1416.133 -732.223)"/>
        <path id="Trazado_876776" data-name="Trazado 876776" d="M1575.417,648.677a.84.84,0,0,0,.123,1.244,71.832,71.832,0,0,1,7.176,6.406.837.837,0,0,0,.817.225c.129-.034,12.96-3.45,15.816-4.249,1.583-.443,2.426-2.528,1.96-4.85-.635-3.167-3.7-6.575-10.232-5.773-10.312,1.272-15.446,6.764-15.659,7m15.865-5.331c5.391-.665,7.864,1.856,8.381,4.437.3,1.5-.163,2.735-.767,2.9-2.533.709-12.973,3.492-15.324,4.118a74.866,74.866,0,0,0-6.238-5.631,26.261,26.261,0,0,1,13.948-5.828" transform="translate(-1374.776 -559.932)"/>
        <path id="Trazado_876777" data-name="Trazado 876777" d="M1641.467,490.76a.746.746,0,0,0,1.143-.311,26.155,26.155,0,0,0,1.433-4.747.746.746,0,0,0-.885-.877,17.073,17.073,0,0,0-3.73,1.249.746.746,0,0,0-1.184.88,11.671,11.671,0,0,0,3.223,3.806m.85-4.187c-.2.793-.439,1.578-.717,2.347a10.2,10.2,0,0,1-1.368-1.574,15.631,15.631,0,0,1,2.085-.774" transform="translate(-1429.727 -423.124)"/>
        <path id="Trazado_876778" data-name="Trazado 876778" d="M1515.569,528.614a.745.745,0,0,0-.62-.341,17.24,17.24,0,0,0-3.911.418.746.746,0,0,0-1.345.6,11.672,11.672,0,0,0,2.329,4.41.746.746,0,0,0,.569.264h.036a.746.746,0,0,0,.577-.321,26.231,26.231,0,0,0,2.42-4.329.745.745,0,0,0-.056-.706m-3.022,3.324a10.214,10.214,0,0,1-1-1.831,15.559,15.559,0,0,1,2.2-.307q-.549,1.1-1.2,2.138" transform="translate(-1317.583 -461.057)"/>
        <path id="Trazado_876779" data-name="Trazado 876779" d="M1690.263,344.318a2.733,2.733,0,0,0,2.73-2.73.474.474,0,1,0-.949,0,1.783,1.783,0,0,1-1.781,1.781.474.474,0,0,0,0,.949" transform="translate(-1474.788 -297.711)"/>
        <path id="Trazado_876780" data-name="Trazado 876780" d="M1722.113,344.318a.474.474,0,1,0,0-.949,1.783,1.783,0,0,1-1.781-1.781.474.474,0,1,0-.949,0,2.733,2.733,0,0,0,2.73,2.73" transform="translate(-1500.617 -297.711)"/>
        <path id="Trazado_876781" data-name="Trazado 876781" d="M1690.263,369.892a1.783,1.783,0,0,1,1.781,1.782.474.474,0,1,0,.949,0,2.733,2.733,0,0,0-2.73-2.73.474.474,0,0,0,0,.949" transform="translate(-1474.788 -322)"/>
        <path id="Trazado_876782" data-name="Trazado 876782" d="M1719.858,372.148a.474.474,0,0,0,.474-.474,1.783,1.783,0,0,1,1.781-1.781.474.474,0,1,0,0-.949,2.733,2.733,0,0,0-2.73,2.73.474.474,0,0,0,.474.474" transform="translate(-1500.618 -322)"/>
        <path id="Trazado_876783" data-name="Trazado 876783" d="M1944.539,107.711a.893.893,0,0,0-1.26.1l-8.5,10.024a.894.894,0,1,0,1.364,1.156l8.5-10.024a.894.894,0,0,0-.1-1.26" transform="translate(-1688.419 -93.821)"/>
        <path id="Trazado_876784" data-name="Trazado 876784" d="M1966.828,153.069a.893.893,0,0,0,.687-.322l9.447-11.332a.894.894,0,1,0-1.373-1.145l-9.448,11.331a.894.894,0,0,0,.687,1.467" transform="translate(-1715.799 -122.142)"/>
        <path id="Trazado_876785" data-name="Trazado 876785" d="M1904.864,14.434a.894.894,0,1,0,.468-1.726,5,5,0,0,1-3.45-5.458,4.769,4.769,0,0,1,9.4.1,6.613,6.613,0,0,0,.081.928.894.894,0,0,0,1.777-.134,5.944,5.944,0,0,0-.07-.943,5.626,5.626,0,0,1,3.647-5.151,5.592,5.592,0,0,1,6.471,2.524,5.591,5.591,0,0,1-1.387,6.807.894.894,0,0,0,1.023,1.462,15.914,15.914,0,0,1,5.792-2.573c1.726-.241,3.994.293,4.886,2.039.938,1.835-.126,4.165-1.6,5.426-1.732,1.478-4.151,2.125-6.286,2.695a.894.894,0,0,0,.318,1.754,2.347,2.347,0,0,1,1.809.68,3.006,3.006,0,0,1,1,2.2,4.2,4.2,0,0,1-2.895,3.637,7.117,7.117,0,0,1-5.216-.448.894.894,0,0,0-.73,1.632,9.95,9.95,0,0,0,4.043.913,7.535,7.535,0,0,0,2.494-.41,5.954,5.954,0,0,0,4.092-5.3,4.819,4.819,0,0,0-1.575-3.54q-.1-.088-.194-.17a12.771,12.771,0,0,0,4.3-2.283c2.049-1.748,3.405-4.921,2.035-7.6-1.291-2.524-4.392-3.323-6.726-3a11.44,11.44,0,0,0-3.168.97,7.269,7.269,0,0,0-.442-5.752,7.347,7.347,0,0,0-8.618-3.362,7.276,7.276,0,0,0-4.252,4.005,6.667,6.667,0,0,0-4.7-2.8,6.776,6.776,0,0,0-7.066,5.368,6.775,6.775,0,0,0,4.741,7.5" transform="translate(-1658.279 0.003)"/>
        <path id="Trazado_876786" data-name="Trazado 876786" d="M1742.111,596.005a.865.865,0,0,0,.729-1.328,21.992,21.992,0,0,0-7.214-7.042.864.864,0,0,0-.891,1.482,20.26,20.26,0,0,1,6.644,6.486.864.864,0,0,0,.731.4" transform="translate(-1513.651 -512.759)"/>
        <path id="Trazado_876787" data-name="Trazado 876787" d="M1548.884,653.772h.014a.864.864,0,0,0,.864-.851,23.38,23.38,0,0,1,1.289-7.29.865.865,0,1,0-1.634-.567,25.108,25.108,0,0,0-1.384,7.829.864.864,0,0,0,.85.878" transform="translate(-1351.07 -562.482)"/>
        <path id="Trazado_876788" data-name="Trazado 876788" d="M1571.673,514.367a.865.865,0,1,0-1.577-.71,43.457,43.457,0,0,0-3.177,10.323,5.678,5.678,0,0,0,.343,3.912,4.115,4.115,0,0,0,3.651,1.879,5.083,5.083,0,0,0,1.3-.166,11.132,11.132,0,0,0,4.139-2.505.864.864,0,1,0-1.106-1.328,9.842,9.842,0,0,1-3.477,2.163,2.73,2.73,0,0,1-3.009-.909,4.127,4.127,0,0,1-.136-2.747,41.675,41.675,0,0,1,3.05-9.912" transform="translate(-1367.394 -447.857)"/>
        <path id="Trazado_876789" data-name="Trazado 876789" d="M1469.687,496.635a25.114,25.114,0,0,0,10.857-2.883A41.343,41.343,0,0,0,1499.51,473.7a.864.864,0,0,0-1.584-.692,39.59,39.59,0,0,1-18.161,19.2c-3.413,1.722-9.978,4.207-15.6,1.5-4.421-2.125-7.023-6.826-9.176-11.59A150.97,150.97,0,0,1,1444.036,447a.864.864,0,0,0-1.7.309,152.7,152.7,0,0,0,11.074,35.523c2.288,5.062,5.083,10.072,10,12.436a14.347,14.347,0,0,0,6.276,1.366" transform="translate(-1258.807 -389.506)"/>
        <path id="Trazado_876790" data-name="Trazado 876790" d="M1779.288,371.183h.021a.865.865,0,0,0,.843-.885,25.989,25.989,0,0,0-7.331-17.362.865.865,0,1,0-1.236,1.21,24.239,24.239,0,0,1,6.839,16.195.864.864,0,0,0,.864.843" transform="translate(-1545.963 -307.803)"/>
        <path id="Trazado_876791" data-name="Trazado 876791" d="M1836.358,285.943a.865.865,0,1,0,1.683.394,24.224,24.224,0,0,0-6.768-22.687.865.865,0,1,0-1.192,1.253,22.463,22.463,0,0,1,6.277,21.04" transform="translate(-1596.996 -229.896)"/>
        <path id="Trazado_876792" data-name="Trazado 876792" d="M1409.646,229.068a.864.864,0,0,0,.782-1.232,34.829,34.829,0,0,1-2.463-22.212c.68-3.074,1.817-4.909,3.476-5.61,2.225-.941,4.846.389,7.347,1.965a.864.864,0,1,0,.921-1.463c-2.9-1.825-5.985-3.343-8.941-2.095-2.213.935-3.681,3.168-4.492,6.828a36.57,36.57,0,0,0,2.586,23.32.865.865,0,0,0,.783.5" transform="translate(-1226.606 -172.778)"/>
        <path id="Trazado_876793" data-name="Trazado 876793" d="M1530.825,166.722c6.676-4.672,12.712-7.006,18.452-7.136,7.074-.149,13.633,3.609,15.953,9.164a.865.865,0,1,0,1.6-.666c-2.589-6.2-9.837-10.4-17.588-10.226-6.093.138-12.44,2.574-19.4,7.448a.864.864,0,1,0,.991,1.416" transform="translate(-1334.863 -137.768)"/>
        <path id="Trazado_876794" data-name="Trazado 876794" d="M1476.8,271.752a.916.916,0,0,0-1.271.245,7.449,7.449,0,0,0,1.285,9.59A.915.915,0,1,0,1478,280.2a5.646,5.646,0,0,1-.961-7.175.915.915,0,0,0-.245-1.271" transform="translate(-1286.745 -237.038)"/>
        <path id="Trazado_876795" data-name="Trazado 876795" d="M1512.409,266.351a6.379,6.379,0,0,0,.232,7.212.915.915,0,1,0,1.455-1.111,4.5,4.5,0,0,1-.164-5.087.915.915,0,1,0-1.523-1.014" transform="translate(-1319.1 -232.106)"/>
        <path id="Trazado_876796" data-name="Trazado 876796" d="M1559.1,250.074a7.3,7.3,0,0,0-1.818,7.984.915.915,0,1,0,1.7-.685,5.509,5.509,0,0,1,1.354-5.947.915.915,0,1,0-1.234-1.352" transform="translate(-1358.705 -218.047)"/>
        <path id="Trazado_876797" data-name="Trazado 876797" d="M1629.384,285.424c-1.891,1.6-4.616,1.7-6.571,1.5-1.18-.122-2.385-.364-3.55-.6a36.867,36.867,0,0,0-3.981-.65c-3.245-.29-6.022.462-7.819,2.119a.865.865,0,0,0,1.173,1.271c1.933-1.784,4.9-1.811,6.492-1.668a34.985,34.985,0,0,1,3.793.623c1.2.243,2.45.493,3.713.624,2.289.237,5.511.1,7.867-1.9a.864.864,0,1,0-1.118-1.318" transform="translate(-1402.696 -248.928)"/>
        <path id="Trazado_876798" data-name="Trazado 876798" d="M1621.833,426.756a.914.914,0,0,0-.109-.336s0-.007,0-.011a.915.915,0,0,0-.581-.744,4.03,4.03,0,0,0-5.446,3.208,4.277,4.277,0,0,0-.01,2.3.912.912,0,0,0,.614.624.9.9,0,0,0,.34.238.915.915,0,0,0,1.185-.521,9.9,9.9,0,0,1,3.469-3.524.916.916,0,0,0,.535-.945c0-.008,0-.017-.005-.026a.885.885,0,0,0,.015-.114.933.933,0,0,0-.006-.153" transform="translate(-1409.98 -371.281)"/>
        <path id="Trazado_876799" data-name="Trazado 876799" d="M1484.125,468.381a.915.915,0,0,0,.016.944l.006.01a.917.917,0,0,0,.126.33.9.9,0,0,0,.092.122.921.921,0,0,0,.083.08c0,.008.007.016.012.023a.916.916,0,0,0,1.011.4,9.9,9.9,0,0,1,4.913.558,1.307,1.307,0,0,0,1.449-1.611,4.281,4.281,0,0,0-1.456-1.784,4.03,4.03,0,0,0-6.252.931" transform="translate(-1295.185 -407.022)"/>
        <path id="Trazado_876800" data-name="Trazado 876800" d="M1529.777,395.742a.913.913,0,0,0,1.125.64l4.333-1.189a.915.915,0,0,0-.484-1.765l-4.333,1.189a.915.915,0,0,0-.64,1.125" transform="translate(-1335.107 -343.342)"/>
        <path id="Trazado_876801" data-name="Trazado 876801" d="M1849.416,414.142a.864.864,0,0,0,.251-1.2,20.373,20.373,0,0,1-2.061-5.591c-.164-.62-.32-1.205-.485-1.764a.86.86,0,0,0-.539-.566,10.087,10.087,0,0,0,2.422-4.211c1.35-4.4.434-9.284-1.113-11.648a3.359,3.359,0,0,0-3.643-1.747,4.238,4.238,0,0,0-1.252.5,30.47,30.47,0,0,0-2.706-9.166.864.864,0,0,0-1.561.744,28.765,28.765,0,0,1,2.594,8.944.86.86,0,0,0,.317.567,7.481,7.481,0,0,0-2,3.565.864.864,0,1,0,1.707.273c.194-1.215,1.765-3.42,3.26-3.739.442-.095,1.117-.094,1.835,1,1.321,2.019,2.043,6.49.906,10.193a7.41,7.41,0,0,1-4.042,4.883.865.865,0,0,0,.667,1.6,8,8,0,0,0,1.469-.806.884.884,0,0,0,.02.1c.158.535.311,1.109.472,1.717a21.515,21.515,0,0,0,2.284,6.092.864.864,0,0,0,1.2.251" transform="translate(-1604.705 -330.134)"/>
        <path id="Trazado_876802" data-name="Trazado 876802" d="M1692.454,695.353a.864.864,0,0,0,.53-.182,124.8,124.8,0,0,0,9.666-8.559c6.822-6.7,11.236-12.65,13.119-17.67a.865.865,0,0,0-1.619-.607c-3.906,10.413-18.937,22.833-21.767,25.105a21.184,21.184,0,0,1-4.565-3.649.864.864,0,1,0-1.311,1.126,24.115,24.115,0,0,0,5.521,4.324.865.865,0,0,0,.425.112" transform="translate(-1471.742 -582.809)"/>
        <path id="Trazado_876803" data-name="Trazado 876803" d="M1782.145,681.037a.864.864,0,0,0-1.7-.332c-1.865,9.542-10.162,22.379-17.262,29.995l-5.869-5.5a.865.865,0,1,0-1.182,1.262l6.5,6.085a.864.864,0,0,0,1.214-.032,88.31,88.31,0,0,0,10.992-14.48c2.672-4.372,6.109-10.87,7.307-17" transform="translate(-1532.454 -593.485)"/>
        <path id="Trazado_876804" data-name="Trazado 876804" d="M2159.968,990.326c6.081-.754,18.407,1.257,23.974,3.908a.824.824,0,1,0,.708-1.488c-5.777-2.752-18.568-4.838-24.885-4.056a.824.824,0,1,0,.2,1.636" transform="translate(-1884.336 -862.748)"/>
        <path id="Trazado_876805" data-name="Trazado 876805" d="M519.57,947.67c-.286-.282-.564-.572-.834-.867a15.4,15.4,0,0,1,.48,4.868c-.091,2.715-4.617,4.384-4.617,4.384a29.417,29.417,0,0,0,.266,5.879c.467,2.571,8.421,5.914,11.407,2.809-3.335-1.763-2.428-2.438,1.878-4.969a12.934,12.934,0,0,0,1.909-1.36c-1.126-2.6-2.67-5.8-2.67-5.8s-5.2-2.375-7.819-4.947" transform="translate(-449.086 -826.336)" fill="#5887c6"/>
        <path id="Trazado_876806" data-name="Trazado 876806" d="M74.23,629.92l-3.989-4.628s-5.745-1.915-6.7-2.872-.479-1.755-.479-1.755-3.511-3.51-3.83-4.468-2.553-3.989-1.6-3.989,10.212,1.915,10.851,2.713,3.989,4.947,4.946,6.064a48.818,48.818,0,0,1,3.032,4.787s7.5,8.617,8.457,9.574a27.943,27.943,0,0,1,2.216,3.46c.046-2.777,1.294-6.013.628-12.559-.779-7.655-6-15.876-13.671-16.966-7.256-1.031-11.018,2.791-14.153-.231-4.321-4.166-15.914-11.111-22.785-10.354-2.777.306-6.855,1.635-11.023,5.979-6.157,6.418.012,18.534-4.2,24.928-2.283,3.469-7.245,5.843-10.488,10.08-5.354,6.994,1.424,12.273,2.465,14.476s.669,6.856.812,10.1,5.412,7.809,9.784,8.018c1.511.072,4.248.379,6.949.715-2.373-4.765-7.722-14.779-8.769-16.741a51.777,51.777,0,0,0-4.149-6.861c-1.276-1.6-2.553-3.351-2.394-5.585s2.074-9.734,3.192-9.1,1.755,3.351,1.755,3.351,1.915-.16,2.234,1.276.8,3.989.8,3.989,1.388-1.129,1.915,1.117,1.078-4.165,1.078-4.165,3.224-1.807,4.412-3.88-.657-6.247.345-10.109,6.966-2.424,13.405-.748c4.847-4.919,10.977-2.827,12.056-.593,5.418,11.223,11.674,5.679,12.3,8.794s1.628,3.008,2.625,8.764a8.438,8.438,0,0,1,3.819-1.272,1.4,1.4,0,0,1,.409.042,10.928,10.928,0,0,1-2.423-6.247c0-3.032.16-5.106.16-5.106" transform="translate(-8.215 -522.469)" fill="#5887c6"/>
        <path id="Trazado_876807" data-name="Trazado 876807" d="M720.443,141.646l18.533-7.167-20.625-2.041,22.822-25.948L713.516,124.6l.406-22.951L704.3,124.439l-15.725-14.1,5.645,16.28c-12.6-5.435-36.488-15.722-35.765-15.311.7.4,19.482,14.732,30.012,22.779l-18.762,4.975L693.736,143l-15.55,20.385,20.385-12.543-.209,24.555,9.421-24.4,12.747,18.153-3.338-18.89c12.488,5.036,33.2,13.4,33.879,13.793.71.4-19.445-14.271-30.629-22.4" transform="translate(-574.666 -88.712)" fill="#9028e2"/>
        <path id="Trazado_876808" data-name="Trazado 876808" d="M439.049,783.753c-2.059-18.021-5.615-28.152-10.568-30.113a10.116,10.116,0,0,0-3.023-.377.816.816,0,0,0-.58.209,268.975,268.975,0,0,0-11.571-24.87,72.692,72.692,0,0,0-9.375-13.1,26.921,26.921,0,0,0-3.294-3.513,28.541,28.541,0,0,0-2.655-3.8c-1.425-2.526-2.782-4.91-5.4-6.787a15.928,15.928,0,0,0-6.183-2.869l-.071-.018a23.836,23.836,0,0,0-5.571-.892h-.008a.824.824,0,0,0-.814.7c-.187,1.187.344,2.343,1.665,3.619a.822.822,0,0,0,.012.262c.039,1.454,1.721,3.1,2.695,3.627a5.864,5.864,0,0,1,1.333.929c-.012.022-.027.042-.038.065-.568,1.2.951,2.576,1.429,2.97a21.841,21.841,0,0,0,3.4,1.685c1.051.473,2.138.962,2.546,1.2a35.248,35.248,0,0,1,4.042,4.405c-1.071,2.856-.214,6.663,1.237,9.574a2.821,2.821,0,0,0-2.649,2.024.824.824,0,1,0,1.593.426,1.269,1.269,0,0,1,1.355-.817,2.149,2.149,0,0,1,.777.181,12.53,12.53,0,0,0,1.332,1.487,3.625,3.625,0,0,1,.15.549c.491,2.532,0,5.182-1.186,6.443a2.653,2.653,0,0,1-2.443.814.824.824,0,1,0-.219,1.634,5.24,5.24,0,0,0,.7.047,4.233,4.233,0,0,0,3.166-1.364,8.625,8.625,0,0,0,1.795-6.449,27.165,27.165,0,0,0,8.3,4.454.824.824,0,0,0,.42-1.594,27,27,0,0,1-9.29-5.488,4.12,4.12,0,0,0-1.593-1.8c-.026-.039-.053-.078-.077-.117-1.779-2.861-2.921-7.143-1.664-9.792a.825.825,0,0,0-.105-.873c-.611-.752-3.715-4.535-4.8-5.171-.484-.283-1.562-.768-2.7-1.28-1.095-.492-2.749-1.236-3.028-1.454a4.29,4.29,0,0,1-.842-.912,7.266,7.266,0,0,1,1.964.2c3.434.685,5.357,1.431,5.96,1.861.205.147,5.052,3.623,7.47,6.85.007.009.016.016.023.025s.012.019.02.028a71.067,71.067,0,0,1,9.185,12.827c.151.275,15.156,27.821,21.616,55.715a.824.824,0,0,0,1.606-.372,208.551,208.551,0,0,0-9.625-29.825,9.849,9.849,0,0,1,2.415.26c2.986,1.182,7.065,7.133,9.537,28.767a.824.824,0,1,0,1.638-.187m-53.126-83.644.071.018a14.154,14.154,0,0,1,5.63,2.611,11.669,11.669,0,0,1,1.259,1.044,61.788,61.788,0,0,0-9.695-2.461.816.816,0,0,0-.233-.378,4.814,4.814,0,0,1-1.29-1.633,25.649,25.649,0,0,1,4.259.8m3.6,6.079a8.9,8.9,0,0,0-2.424-.228,7.165,7.165,0,0,0-2.038-1.545,4.916,4.916,0,0,1-1.426-1.344c4.207.774,9.682,2.237,10.659,3.313.476.524.993,1.121,1.509,1.742a23.336,23.336,0,0,0-6.281-1.938" transform="translate(-331.565 -608.858)"/>
        <path id="Trazado_876809" data-name="Trazado 876809" d="M538.142,1110.4c-1.405.115-2.681.247-3.795.4-.456-.063-.921-.114-1.371-.164-2.831-.312-5.5-.606-7.135-3.772a.824.824,0,0,0-1.466.755c2.035,3.953,5.427,4.326,8.42,4.656.482.053.961.106,1.433.173a.846.846,0,0,0,.117.008.833.833,0,0,0,.11-.007c1.111-.15,2.4-.285,3.82-.4a.824.824,0,1,0-.134-1.643" transform="translate(-457.577 -965.634)"/>
        <path id="Trazado_876810" data-name="Trazado 876810" d="M377.008,1085.794a.905.905,0,0,0,.515-1.65L373.4,1081.3a.905.905,0,1,0-1.028,1.49l4.124,2.844a.9.9,0,0,0,.513.16" transform="translate(-324.651 -943.58)"/>
        <path id="Trazado_876811" data-name="Trazado 876811" d="M419.447,655.417a20.266,20.266,0,0,1,25.264,27.405.824.824,0,1,0,1.5.676A21.914,21.914,0,0,0,418.9,653.864a.824.824,0,1,0,.551,1.553" transform="translate(-365.119 -569.629)"/>
        <path id="Trazado_876812" data-name="Trazado 876812" d="M149.964,790.51a5.372,5.372,0,0,1,5.507-.019.824.824,0,0,0,.858-1.407,6.906,6.906,0,0,0-10.476,6.492,12.935,12.935,0,0,0,.468,2.267,10.23,10.23,0,0,1,.429,2.183,4.8,4.8,0,0,1-3.952,4.789.824.824,0,1,0,.242,1.631,6.512,6.512,0,0,0,5.357-6.492,11.621,11.621,0,0,0-.485-2.542,11.469,11.469,0,0,1-.417-1.979,5.371,5.371,0,0,1,2.468-4.923" transform="translate(-124.016 -687.825)"/>
        <path id="Trazado_876813" data-name="Trazado 876813" d="M313.524,790.369a.824.824,0,0,0-1.163-.074,7.652,7.652,0,0,1-10.487-.835,15.628,15.628,0,0,1-1.486-2.32,14.221,14.221,0,0,0-2.077-3.033,8.507,8.507,0,0,0-6.759-2.419,10.864,10.864,0,0,0-6.451,2.983.824.824,0,0,0,1.126,1.2,9.21,9.21,0,0,1,5.459-2.544,6.834,6.834,0,0,1,5.441,1.923,12.791,12.791,0,0,1,1.824,2.695,17.1,17.1,0,0,0,1.652,2.56,8.965,8.965,0,0,0,6.218,3.1q.392.032.781.031a8.846,8.846,0,0,0,5.85-2.108.824.824,0,0,0,.074-1.163" transform="translate(-248.597 -682.204)"/>
        <path id="Trazado_876814" data-name="Trazado 876814" d="M294.8,1055.118a.823.823,0,0,0,.493.439,20.371,20.371,0,0,0,3.608.824.792.792,0,0,0,.111.008.813.813,0,0,0,.379-.1.9.9,0,0,0-.154-1.75,18.832,18.832,0,0,1-2.374-.519l1.328-3.056a.905.905,0,1,0-1.66-.722l-1.729,3.977a.9.9,0,0,0-.067.444.821.821,0,0,0,.065.452" transform="translate(-257.224 -916.142)"/>
        <path id="Trazado_876815" data-name="Trazado 876815" d="M302.326,911.79a.9.9,0,0,0-1.211.389,1.478,1.478,0,0,1-1.1.749,1.047,1.047,0,0,1-.97-.381.9.9,0,1,0-1.359,1.179,2.866,2.866,0,0,0,2.186,1.01,3.009,3.009,0,0,0,.358-.021A3.259,3.259,0,0,0,302.715,913a.9.9,0,0,0-.389-1.211" transform="translate(-259.617 -795.691)"/>
        <path id="Trazado_876816" data-name="Trazado 876816" d="M197.1,957.335a3.019,3.019,0,0,0,.728.09,2.855,2.855,0,0,0,1.922-.744,3.259,3.259,0,0,0,1.049-2.831.9.9,0,0,0-1.783.247,1.477,1.477,0,0,1-.47,1.246,1.055,1.055,0,0,1-1.012.246.9.9,0,0,0-.435,1.746" transform="translate(-171.426 -831.809)"/>
        <path id="Trazado_876817" data-name="Trazado 876817" d="M549.466,1053.649c-5.354-4.091-6.094-16.036-6.747-26.575-.566-9.136-1.1-17.766-4.4-21.554a.824.824,0,1,0-1.243,1.083,9.332,9.332,0,0,1,1.6,2.874.82.82,0,0,0-.677.048,12.821,12.821,0,0,1-2.209.937l-.332.1a6.729,6.729,0,0,0-2.156.972,2.259,2.259,0,0,0-.757,2,3.1,3.1,0,0,0,1.461,2.337.819.819,0,0,0-.338.066,6.276,6.276,0,0,1-7.159-1.538.824.824,0,1,0-1.273,1.047,7.359,7.359,0,0,0,5.832,2.631,8.466,8.466,0,0,0,3.25-.626.824.824,0,0,0,.432-1.083.815.815,0,0,0-.146-.223.821.821,0,0,0,.49-1.542,1.537,1.537,0,0,1-.9-1.15.831.831,0,0,1,.107-.61,5.325,5.325,0,0,1,1.647-.71l.348-.109a14.427,14.427,0,0,0,2.494-1.06.815.815,0,0,0,.29-.272c1.23,4.176,1.6,10.2,1.993,16.477.707,11.423,1.439,23.235,7.391,27.783a.824.824,0,0,0,1-1.31" transform="translate(-458.246 -877.335)"/>
        <path id="Trazado_876818" data-name="Trazado 876818" d="M25.083,671.144c-1.217-3.663-4.076-8.443-6.374-12.285-.454-.76-.882-1.475-1.264-2.127h0c-1.939-3.369-2.971-8.894-3.014-9.128-.028-.15-.232-1.579,1.039-5.742a5.321,5.321,0,0,1,.8-1.816,3.373,3.373,0,0,1,.536,1.158c.134.558.411,5.269.56,7.8.043.725.081,1.372.112,1.871a.824.824,0,1,0,1.646-.1c-.031-.5-.069-1.144-.111-1.866-.292-4.959-.467-7.577-.612-8.123-.108-.406-.716-2.434-2.106-2.46h-.028c-.04,0-.077.006-.116.009a4.792,4.792,0,0,1-.252-1.474c-.039-1.036-.854-3.226-2.226-3.851a.81.81,0,0,0-.192-.1c-.018-.006-.036-.008-.054-.013a4.552,4.552,0,0,0-2.039-2.66,13.107,13.107,0,0,0,1.334-1.512c2.932-3.943,2.868-8.921,2.806-13.736-.051-3.909-.1-7.952,1.477-11.335,2.42-5.184,8.94-8.4,15.5-7.642,6.941.8,12.678,5.309,16.269,8.95a.824.824,0,1,0,1.174-1.158c-5.416-5.493-11.382-8.754-17.254-9.431-7.243-.838-14.471,2.774-17.183,8.582-1.739,3.725-1.684,7.959-1.632,12.054.062,4.749.12,9.235-2.48,12.731a20.349,20.349,0,0,1-4.608,4.09c-.769.558-1.565,1.135-2.317,1.751C2.6,635.116-.471,638.279.06,642.2c.295,2.177,1.615,3.881,2.891,5.53A13.025,13.025,0,0,1,5.4,651.793a12.6,12.6,0,0,1,.2,4.431,16.309,16.309,0,0,0,.1,4.37,10.5,10.5,0,0,0,5.352,6.858A20.005,20.005,0,0,0,19.3,669.7c.025,0,.049,0,.074,0a.824.824,0,0,0,.072-1.645,18.448,18.448,0,0,1-7.586-2.041,8.982,8.982,0,0,1-4.545-5.749,14.845,14.845,0,0,1-.072-3.931,14.024,14.024,0,0,0-.268-5.011,14.437,14.437,0,0,0-2.723-4.6c-1.2-1.545-2.326-3-2.561-4.742-.439-3.242,2.531-6.062,3.828-7.124.715-.585,1.491-1.148,2.242-1.692.41-.3.822-.6,1.232-.9a26.971,26.971,0,0,0-.95,3.222l-.018.074a13.354,13.354,0,0,0-.182,6.473c.563,3.016,2.211,5.163,3.963,7.426a26.288,26.288,0,0,0,2.383,3.824,23.514,23.514,0,0,0,1.825,4.278l0,0v0c.385.657.816,1.379,1.275,2.146,2.256,3.772,5.064,8.466,6.224,11.958,2.33,7.013,2.8,13.846,3.4,22.5.138,2.005.281,4.079.456,6.276a.824.824,0,0,0,.821.759l.066,0a.824.824,0,0,0,.756-.887c-.174-2.188-.316-4.257-.454-6.258-.6-8.768-1.081-15.693-3.477-22.9M14.8,639.271a8.217,8.217,0,0,0-.905,2.11,18.073,18.073,0,0,0-1.1,6.394c-.408-.8-.791-1.591-1.106-2.3-.553-1.241.686-6.6,1.926-10.412a4.25,4.25,0,0,1,.688,1.856,6.166,6.166,0,0,0,.5,2.35M9.63,635.941l.018-.074a21.544,21.544,0,0,1,1.286-3.985,3.941,3.941,0,0,1,1.049,1.844.817.817,0,0,0,.227.347,50.394,50.394,0,0,0-2.24,9.406,9.813,9.813,0,0,1-.5-1.756,11.657,11.657,0,0,1,.165-5.783" transform="translate(0.001 -518.641)"/>
        <path id="Trazado_876819" data-name="Trazado 876819" d="M329.211,963.8a.9.9,0,0,0,1.185-.464c.581-1.326,1.673-2.468,2.8-2.034a.9.9,0,1,0,.646-1.679c-1.937-.746-3.986.456-5.1,2.992a.9.9,0,0,0,.464,1.185" transform="translate(-286.854 -837.336)"/>
        <path id="Trazado_876820" data-name="Trazado 876820" d="M218.874,1019.449a.912.912,0,0,0,.218.027.9.9,0,0,0,.873-.683c.292-1.175,1.855-1.414,3.273-1.13a.9.9,0,0,0,.354-1.764c-2.713-.544-4.872.444-5.374,2.46a.9.9,0,0,0,.657,1.09" transform="translate(-190.429 -886.511)"/>
        <path id="Trazado_876821" data-name="Trazado 876821" d="M397.939,917.415a32.85,32.85,0,0,0-2.425-4.851.72.72,0,1,0-1.23.748,31.441,31.441,0,0,1,2.052,3.991.719.719,0,0,0,.074.266l.218.436a.72.72,0,0,0,1.312-.59" transform="translate(-344.025 -796.151)"/>
        <path id="Trazado_876822" data-name="Trazado 876822" d="M412.881,908.653a.72.72,0,0,0,.628-1.071l-3.994-7.156a.72.72,0,1,0-1.257.7l3.993,7.156a.72.72,0,0,0,.629.369" transform="translate(-356.234 -785.538)"/>
        <path id="Trazado_876823" data-name="Trazado 876823" d="M428.7,897.971a.72.72,0,0,0,.621-1.082l-4.985-8.571a.72.72,0,0,0-1.244.724l4.985,8.571a.719.719,0,0,0,.623.358" transform="translate(-369.177 -774.98)"/>
        <path id="Trazado_876824" data-name="Trazado 876824" d="M323.859,1130.631a.823.823,0,0,0,.627-.289,6.686,6.686,0,0,1,5.024-2.315h.012a.824.824,0,0,0,0-1.648h-.013a8.356,8.356,0,0,0-6.277,2.892.824.824,0,0,0,.626,1.36" transform="translate(-281.934 -983.064)"/>
        <path id="Trazado_876825" data-name="Trazado 876825" d="M188.557,1058.193a13.549,13.549,0,0,1,5.711,7.66.824.824,0,1,0,1.587-.448,15.246,15.246,0,0,0-5.453-7.934l.142-.047c9.836-3.45,13.034-15.954,13.35-22.084a.824.824,0,0,0-1.646-.085c-.3,5.748-3.239,17.454-12.25,20.614-12.627,4.429-17.6-1.118-19.989-3.783l-.152-.169c-4.886-5.435-6.577-9.785-8.368-14.39-.764-1.966-1.554-4-2.616-6.2a.824.824,0,1,0-1.485.716c1.034,2.143,1.812,4.145,2.565,6.08,1.847,4.749,3.59,9.235,8.678,14.895l.15.167.343.381a.821.821,0,0,0-.7.836c.056,1.79,1.334,4.1,3.1,7.29,2.755,4.973,6.528,11.784,7.339,20.136a.824.824,0,0,0,.819.744.783.783,0,0,0,.081,0,.824.824,0,0,0,.74-.9,44,44,0,0,0-4.43-14.869.809.809,0,0,0,1.014-.47,10.632,10.632,0,0,1,6.128-5.891.819.819,0,0,0,.3-1.36,28.68,28.68,0,0,0,4.91-.985.826.826,0,0,0,.128.1m-12.988,7.514c0,.01-.005.02-.009.029-.884-1.764-1.778-3.384-2.587-4.843-1.505-2.718-2.711-4.9-2.878-6.3a14.97,14.97,0,0,0,11.2,4.609c.208,0,.424-.009.639-.016a12.326,12.326,0,0,0-6.361,6.522" transform="translate(-137.292 -899.698)"/>
        <path id="Trazado_876826" data-name="Trazado 876826" d="M432.238,1152.682a.825.825,0,0,0-1.008.585,43.139,43.139,0,0,1-20.317,26.139l-4.691-7.741a.824.824,0,0,0-1.41.855l5.1,8.415a.825.825,0,0,0,1.093.3,44.785,44.785,0,0,0,21.819-27.544.825.825,0,0,0-.585-1.008" transform="translate(-353.2 -1005.996)"/>
      </g>
    </g>
  </g>
</svg>
