<svg xmlns="http://www.w3.org/2000/svg" xmlns:xlink="http://www.w3.org/1999/xlink" width="355.099" height="238" viewBox="0 0 355.099 238">
  <defs>
    <clipPath id="clip-path">
      <rect id="Rect치ngulo_401490" data-name="Rect치ngulo 401490" width="355.099" height="224.375" fill="none"/>
    </clipPath>
  </defs>
  <g id="Grupo_1100227" data-name="Grupo 1100227" transform="translate(-180 -2886)">
    <rect id="Rect치ngulo_401491" data-name="Rect치ngulo 401491" width="355" height="238" transform="translate(180 2886)" fill="#031831"/>
    <g id="Grupo_1099342" data-name="Grupo 1099342" transform="translate(180 2899.004)">
      <g id="Grupo_1099341" data-name="Grupo 1099341" transform="translate(0 -0.004)" clip-path="url(#clip-path)">
        <path id="Trazado_876167" data-name="Trazado 876167" d="M789.564,700.724c-.5,0,3.635-9.773,4.055-10.469a48.235,48.235,0,0,1,10.167-11.75c16.6-14.056,61.671-30.23,93.386-71.7,21.221-27.75,43.629-62.183,74.079-80.716,4.865-2.961,8.7-4.849,13.181-1.7,8.643,6.066,10.138,18.044,16.609,25.709a72,72,0,0,1,6.534,83.313c-11.051,18.11-28.08,43.879-40.547,57.137-7.9,8.4-7.991,10.183-21.716,10.183Z" transform="translate(-719.432 -476.348)" fill="#082952"/>
        <path id="Trazado_876168" data-name="Trazado 876168" d="M2208,1365.19c.443-1.7,40.83-29.406,65.152-63.884,14.969-21.219,21.422-32.03,25.924-45.355,1.88-5.566,3.122-3.891,3.1-3.254-.022.591-2.184,12.134-9.951,25.2-17.9,30.123-32.471,47.216-51.917,64.235-14.669,12.839-28.035,22.477-28.222,23.057Z" transform="translate(-2011.985 -1140.815)" fill="#270b4f"/>
        <path id="Trazado_876169" data-name="Trazado 876169" d="M1658,1677.488c.256-.318,10.663-5.534,22.414-12.774,20.609-12.7,49.743-36.649,66.74-62.218,3.421-5.146,3.851-6.963,4.451-7.561.53-.528,2.581-.806-.479,5.2-3.452,6.781-12.794,20-24.2,31.036-36.155,34.983-60.893,44.224-63.07,46.313Z" transform="translate(-1510.811 -1453.112)" fill="#270b4f"/>
        <path id="Trazado_876170" data-name="Trazado 876170" d="M2597.86,1543.754c-.268,4.82-15.235,38.738-36,58.191a343.217,343.217,0,0,1-30.838,26.168c-.4.3-1.179.928-1.707.228-1.274-1.69,4.058-2.152,29.721-26.849a132.088,132.088,0,0,0,19-23.471c8.455-13.014,16.789-30.641,18.318-34.907.35-.978,1.412-1.164,1.507.641" transform="translate(-2304.618 -1405.458)" fill="#270b4f"/>
        <path id="Trazado_876171" data-name="Trazado 876171" d="M1984,1776.94c2.505-14.594,6.208-22.408,19.561-28.831,15.392-7.4,34.591-12.74,42.066-33.806,2.039-5.746.688-10.582,10.224-10.48,6.447.069,7.357,0,8.663.411,6.631,2.1-5.045,11.036,16.8,32.59,11.494,11.342,24.028,7.514,36.165,23.55,3.891,5.141,4.4,10.317,5.013,16.565Z" transform="translate(-1807.871 -1552.564)" fill="#f1aca7"/>
        <path id="Trazado_876172" data-name="Trazado 876172" d="M2692.449,1760c.375-1,.579-2.055,1.684-1.51,1.205.594,1.742,1.347,3.422,1.828a14.032,14.032,0,0,0,9.341.515c3.569-.833,4.089-1.775,4.933-1.567.8.2,1.321,1.995-.025,3.115-5.058,4.208-17.129,2.325-19.355-2.381" transform="translate(-2453.427 -1602.248)" fill="#ec9f9c"/>
        <path id="Trazado_876173" data-name="Trazado 876173" d="M1880,2112.8c.5-.81,2.284-25.855,38.515-36.492,8.026-2.356,8.889-2.821,13.276-3.906,10.959,8.606,32.737,12.527,51.707,5.783,3.675-1.307,5.318-3.416,6.439-3.17,22.692,4.978,38.026,15.543,44.177,37.785Z" transform="translate(-1713.103 -1888.426)" fill="#77af8f"/>
        <path id="Trazado_876174" data-name="Trazado 876174" d="M3207.263,2489.463a7.544,7.544,0,0,1,0-2.026c.473-2.345,2.994-2.161,3.294.119a9.1,9.1,0,0,1-.276,1.906Z" transform="translate(-2922.473 -2265.088)" fill="#d6d6d6"/>
        <path id="Trazado_876175" data-name="Trazado 876175" d="M2310.208,2488.944c-.361-1.442-.259-3.748,1.248-3.752,1.467,0,1.343,1.69,1.593,3.752Z" transform="translate(-2104.961 -2264.569)" fill="#d6d6d6"/>
        <path id="Trazado_876176" data-name="Trazado 876176" d="M2544.939,841.218c2.543-1.215,5.091.528,3.916,5.335-1.106,4.525-3.9,9.323-7.818,6.771-.547.521-3.553,13.714-16.259,23.328-5.942,4.5-12.364,7.453-19.278,4.919-22.917-8.4-29.731-46.366-19.444-67.917a42.967,42.967,0,0,1,12.535-14.629,31.241,31.241,0,0,1,18.317-5.71c8.727.206,29.254,15.724,26.594,44.908-.558,6.116-.768,4.048,1.437,2.995" transform="translate(-2261.103 -722.882)" fill="#f8b0ac"/>
        <path id="Trazado_876177" data-name="Trazado 876177" d="M2898.19,1272.322c-3.371-5.158,3.077-13.005,12.068-11.078,3.847.824,7.41,3.887,6.608,8.1-1.656,8.7-14.283,9.7-18.676,2.976" transform="translate(-2640.075 -1149.005)" fill="#082952"/>
        <path id="Trazado_876178" data-name="Trazado 876178" d="M2969.8,1207.1c3.417-.021,6.887,2.125,7.671,3.367.613.973-.126,2.36-1.339,1.85-5.137-2.164-7.629-1.684-9.229-1.905-2.022-.279-1.44-3.286,2.9-3.312" transform="translate(-2702.502 -1099.937)" fill="#082952"/>
        <path id="Trazado_876179" data-name="Trazado 876179" d="M2754.963,1591.787c-3.215.691-3.606-2.074-1.891-2.747a9.06,9.06,0,0,1,5.441-.7c1.69.391,2.44.6,3.086,1.386a1.289,1.289,0,0,1-.763,2.22c-1.533.347-2.886-.8-5.874-.158" transform="translate(-2507.754 -1447.176)" fill="#ed8a83"/>
        <path id="Trazado_876180" data-name="Trazado 876180" d="M2967.654,1313.571c-1.7.031-4.517-.928-5.112-2.488a1.02,1.02,0,0,1,1.264-1.393,9.049,9.049,0,0,0,3.86.813c2.331-.072,3.128-.143,3.448.806.484,1.438-1.934,2.416-3.46,2.262" transform="translate(-2699.469 -1193.371)" fill="#fcf9e8"/>
        <path id="Trazado_876181" data-name="Trazado 876181" d="M2809.515,1412.5c.473,1.64-1.825,1.942-2.642.675-1.231-1.909.427-7.269.829-7.869.51-.762,1.215-.71,1.635.11.75,1.467-.54,4.593.178,7.084" transform="translate(-2557.286 -1280.054)" fill="#ed9f9b"/>
        <path id="Trazado_876182" data-name="Trazado 876182" d="M301.732,79.52c-.972-7.009-3.993-15.031-7.887-22.62a117.327,117.327,0,0,0-5.893-10.179,64.579,64.579,0,0,0-4.119-5.424c-3.045-3.689-6.8-7.816-9.357-10.342C251.91,8.662,217.63,1.819,185.846.185,128.99-2.739,61.8,29.371,12.823,14.793,8.546,13.52,4.247,12.328,0,10.956v2.663c1.451-.068,18.1,6.853,31.218,7.859,50.6,3.882,113.481-23.369,160.9-18a.639.639,0,0,1,.455.142c-.7.065-1.373.154-2.045.183-45.976,2-87.335,26.593-147.3,32.68-7.718.783-14.953,1.577-26.767-.4C4.82,34.147,1.1,33.064,0,32.972V35.28c3.7.919,16.564,3.826,24.932,4.462,10.8.82,28.716-1.5,38.357-3.27a339.185,339.185,0,0,0,42.734-10.318C104.9,27.3,66.307,41.825,35.386,48.181,19.828,51.379,1.929,52.959,0,52.858V224.371H127.1c31.36-9.921,60.17-28.436,88.493-60.2,13.725-15.393,26.456-40.169,31.431-53.344,5.933-15.714,8.181-20.1,9.4-28.209a3.336,3.336,0,0,1,.578-1.635c.226.048.257.241.323.4,2.306,5.6,9.672,14.293,15.58,19.373,9.877,8.495,9.867,8.29,13.39,13.678,3.46,5.291,6.588,14.528,8.1,20.638.258,1.043.288,1.62.773,6.647.737-.34,3.127-8.755,3.341-9.523,3.855-13.815,3.381-12.782,4.011-18.241.174-1.5.331-2.867.47-4.132,1.057-9.619,1.046-13.621-1.268-30.3m-95.2,91.1c.266-1.086,6.1-7.619,9.746-13.864,3.886-6.664,5.305-7.325,17.087-27.9,12.178-21.271,11.88-21.885,12.473-22.486.74,1.661-19.412,43.93-39.306,64.253" transform="translate(0 0.004)" fill="#174176"/>
        <path id="Trazado_876183" data-name="Trazado 876183" d="M239.022,292.963C217.052,339.488,163.334,414.4,0,418.31V308.433c78.807-2.123,151.7-90.9,225.574-70.354,23.54,6.546,25.144,30.116,13.448,54.884" transform="translate(0 -214.134)" fill="#082952"/>
        <path id="Trazado_876184" data-name="Trazado 876184" d="M2952.106,538.247c-26.75-17.507-39.081-32.309-44.116-49.97-2.377-8.338,0-22.771,14.85-16.639,6.268,2.589,13.081,7.645,20.112,13.689,3.894,7.589,6.914,15.611,7.886,22.62,2.313,16.679,2.325,20.681,1.268,30.3" transform="translate(-2649.106 -428.423)" fill="#082952"/>
        <path id="Trazado_876185" data-name="Trazado 876185" d="M3106.056,1352.288c.146-6.185,2.381-10.839,5.172-15.243.533-.842,1.493-.5,1.225.526-.459,1.754-2.3,5.916-3.971,13.056-.207.884-.165,3.782-1.1,4.306-1.293.725-1.341-2.015-1.326-2.645" transform="translate(-2830.314 -1217.918)" fill="#f8aaa6"/>
        <path id="Trazado_876186" data-name="Trazado 876186" d="M3200.924,1243.27v25.269c-.917,0-1.8.038-2.676-.007-29.29-1.5-20.859-2.876-34.832,6.161-3.575,2.312-6.121,2.546-16.67,3.4-12.529,1.018-17.023.133-19.05-4.571a6.1,6.1,0,0,1-.123-4c.073-.294.348-.465.523-.7-.117-.272-.356-.211-.537-.17a7.428,7.428,0,0,1-2.985-.191c-4.687-.811,2.916-19.28,5.149-25.444a16.772,16.772,0,0,1,2.526-4.366,6.848,6.848,0,0,1,4.429-2.383c1.7-.326,2.634-.072,11.758,3.544,4.8,1.9,3.445,1.973,13.439,4.45a106.774,106.774,0,0,0,15.741,1.051c10.611-.423,12.495-.718,21.616-1.225a2.6,2.6,0,0,0,1.692-.824" transform="translate(-2845.824 -1126.43)" fill="#e6d567"/>
        <path id="Trazado_876187" data-name="Trazado 876187" d="M3415.379,1271.784c.076.447.062-.029.062,1.76-.687.152-21.215,1.884-33.8,1.483-7.51-.24-22.306-6.426-22.92-6.81a.516.516,0,0,1,.219-.938c.531-.1.842-.067,4.7,1.167,12.747,4.073,16.209,5.217,35.427,3.857,2.363-.167,15.663-.719,16.307-.518" transform="translate(-3060.342 -1154.744)" fill="#b8aa52"/>
        <path id="Trazado_876188" data-name="Trazado 876188" d="M3430.183,1579.293c-.961-.135-1.1-1.14-.163-1.461,1.408-.485,1.987-.119,6.528-1.158,7.455-1.705,12.268-9.186,19.758-9.084a.661.661,0,0,1,.181,1.3,18.075,18.075,0,0,0-7.123,2.762c-5.2,3.53-8.731,7.011-16.437,7.668a23.229,23.229,0,0,1-2.744-.032" transform="translate(-3124.944 -1428.427)" fill="#8a803d"/>
        <path id="Trazado_876189" data-name="Trazado 876189" d="M3113.852,1266.758c1.522-.483-1.843-.506,2.8-13.949,1.545-4.475,5.723-14.885,10.32-16,.4-.1,2.267-.255,2.05-.9-.363-1.076-2.874-.908-4.089-.419-6.175,2.483-11.65,17.459-12.756,27.291-.264,2.35.776,4.262,1.675,3.978" transform="translate(-2835.856 -1125.461)" fill="#8a803d"/>
        <path id="Trazado_876190" data-name="Trazado 876190" d="M3142.488,1350.542a32.43,32.43,0,0,0-3.1,3.149c.352-.326-.073-5.682-1.114-7.654a4.174,4.174,0,0,0-2.313-2.145,32.466,32.466,0,0,0-1.626-4.049c-1.647-3.336-2.8-2.112-2.062-.391,2.556,5.992,2.1,3.657-.194,6.424a11.991,11.991,0,0,0-1.413,2.231c-.475-.743-3.256-4.322-3.77-2.647-.233.759.425,1.407,3.165,4.684-.125.965-.242,1.872-.365,2.833-3.585,2.873-5.222,3.129-6.155,4.036a.812.812,0,0,0,.361,1.269c.928.325,2.051-.51,6.007-3.191.455,1.137,1.326,2.55,2.392,2.082.7-.309.451-1.069.222-1.636-.952-2.356-.634-3.035.571-6.051,2.313-5.789,4.065-1.72,3.808,2.863-.446,7.972-13.75,9.284-16.96,7.075-3.117-2.144-2.379,2.651,4.747,3.318a22.1,22.1,0,0,0,8.714-1.526c5.647-2.4,10.02-8.688,10.2-9.848a.749.749,0,0,0-1.121-.825" transform="translate(-2841.378 -1218.98)" fill="#8a803d"/>
      </g>
    </g>
  </g>
</svg>
