<svg xmlns="http://www.w3.org/2000/svg" xmlns:xlink="http://www.w3.org/1999/xlink" width="400" height="470" viewBox="0 0 400 470">
  <defs>
    <clipPath id="clip-path">
      <rect id="Rectángulo_401758" data-name="Rectángulo 401758" width="346" height="190.589" transform="translate(0 0)" fill="none"/>
    </clipPath>
  </defs>
  <g id="Grupo_1110167" data-name="Grupo 1110167" transform="translate(-601 -2162)">
    <rect id="Rectángulo_400793" data-name="Rectángulo 400793" width="400" height="470" rx="23" transform="translate(601 2162)" fill="#daf2e4"/>
    <g id="Grupo_1098845" data-name="Grupo 1098845" transform="translate(915 2560)">
      <g id="Grupo_78347" data-name="Grupo 78347">
        <path id="Trazado_99257" data-name="Trazado 99257" d="M417.186,104.2a1.487,1.487,0,1,1-1.487-1.42A1.454,1.454,0,0,1,417.186,104.2Z" transform="translate(-414.214 -102.779)" fill="#59836b"/>
        <path id="Trazado_99258" data-name="Trazado 99258" d="M425.632,104.2a1.487,1.487,0,1,1-1.485-1.42A1.454,1.454,0,0,1,425.632,104.2Z" transform="translate(-409.289 -102.779)" fill="#59836b"/>
        <path id="Trazado_99259" data-name="Trazado 99259" d="M434.078,104.2a1.487,1.487,0,1,1-1.485-1.42A1.454,1.454,0,0,1,434.078,104.2Z" transform="translate(-404.363 -102.779)" fill="#59836b"/>
        <path id="Trazado_99260" data-name="Trazado 99260" d="M442.525,104.2a1.487,1.487,0,1,1-1.487-1.42A1.454,1.454,0,0,1,442.525,104.2Z" transform="translate(-399.438 -102.779)" fill="#59836b"/>
        <path id="Trazado_99261" data-name="Trazado 99261" d="M450.971,104.2a1.487,1.487,0,1,1-1.485-1.42A1.454,1.454,0,0,1,450.971,104.2Z" transform="translate(-394.512 -102.779)" fill="#59836b"/>
        <ellipse id="Elipse_3975" data-name="Elipse 3975" cx="1.486" cy="1.421" rx="1.486" ry="1.421" transform="translate(0 11.367)" fill="#59836b"/>
        <path id="Trazado_99268" data-name="Trazado 99268" d="M425.632,111.707a1.487,1.487,0,1,1-1.485-1.42A1.455,1.455,0,0,1,425.632,111.707Z" transform="translate(-409.289 -98.92)" fill="#59836b"/>
        <ellipse id="Elipse_3976" data-name="Elipse 3976" cx="1.486" cy="1.421" rx="1.486" ry="1.421" transform="translate(26.743 11.367)" fill="#59836b"/>
        <path id="Trazado_99269" data-name="Trazado 99269" d="M442.525,111.707a1.487,1.487,0,1,1-1.487-1.42A1.455,1.455,0,0,1,442.525,111.707Z" transform="translate(-399.438 -98.92)" fill="#59836b"/>
        <path id="Trazado_99270" data-name="Trazado 99270" d="M450.971,111.707a1.487,1.487,0,1,1-1.485-1.42A1.455,1.455,0,0,1,450.971,111.707Z" transform="translate(-394.512 -98.92)" fill="#59836b"/>
        <path id="Trazado_99274" data-name="Trazado 99274" d="M417.186,119.216a1.487,1.487,0,1,1-1.487-1.422A1.455,1.455,0,0,1,417.186,119.216Z" transform="translate(-414.214 -95.062)" fill="#59836b"/>
        <path id="Trazado_99275" data-name="Trazado 99275" d="M425.632,119.216a1.487,1.487,0,1,1-1.485-1.422A1.455,1.455,0,0,1,425.632,119.216Z" transform="translate(-409.289 -95.062)" fill="#59836b"/>
        <path id="Trazado_99276" data-name="Trazado 99276" d="M434.078,119.216a1.487,1.487,0,1,1-1.485-1.422A1.455,1.455,0,0,1,434.078,119.216Z" transform="translate(-404.363 -95.062)" fill="#59836b"/>
        <path id="Trazado_99277" data-name="Trazado 99277" d="M442.525,119.216a1.487,1.487,0,1,1-1.487-1.422A1.455,1.455,0,0,1,442.525,119.216Z" transform="translate(-399.438 -95.062)" fill="#59836b"/>
        <path id="Trazado_99278" data-name="Trazado 99278" d="M450.971,119.216a1.487,1.487,0,1,1-1.485-1.422A1.455,1.455,0,0,1,450.971,119.216Z" transform="translate(-394.512 -95.062)" fill="#59836b"/>
        <ellipse id="Elipse_3980" data-name="Elipse 3980" cx="1.486" cy="1.421" rx="1.486" ry="1.421" transform="translate(0 34.1)" fill="#59836b"/>
        <path id="Trazado_99285" data-name="Trazado 99285" d="M425.632,126.724a1.487,1.487,0,1,1-1.485-1.422A1.454,1.454,0,0,1,425.632,126.724Z" transform="translate(-409.289 -91.202)" fill="#59836b"/>
        <ellipse id="Elipse_3981" data-name="Elipse 3981" cx="1.486" cy="1.421" rx="1.486" ry="1.421" transform="translate(26.743 34.1)" fill="#59836b"/>
        <path id="Trazado_99286" data-name="Trazado 99286" d="M442.525,126.724a1.487,1.487,0,1,1-1.487-1.422A1.454,1.454,0,0,1,442.525,126.724Z" transform="translate(-399.438 -91.202)" fill="#59836b"/>
        <path id="Trazado_99287" data-name="Trazado 99287" d="M450.971,126.724a1.487,1.487,0,1,1-1.485-1.422A1.454,1.454,0,0,1,450.971,126.724Z" transform="translate(-394.512 -91.202)" fill="#59836b"/>
        <ellipse id="Elipse_3985" data-name="Elipse 3985" cx="1.486" cy="1.421" rx="1.486" ry="1.421" transform="translate(0 45.467)" fill="#59836b"/>
        <path id="Trazado_99291" data-name="Trazado 99291" d="M425.632,134.232a1.487,1.487,0,1,1-1.485-1.422A1.454,1.454,0,0,1,425.632,134.232Z" transform="translate(-409.289 -87.343)" fill="#59836b"/>
        <ellipse id="Elipse_3986" data-name="Elipse 3986" cx="1.486" cy="1.421" rx="1.486" ry="1.421" transform="translate(26.743 45.467)" fill="#59836b"/>
        <path id="Trazado_99292" data-name="Trazado 99292" d="M442.525,134.232a1.487,1.487,0,1,1-1.487-1.422A1.454,1.454,0,0,1,442.525,134.232Z" transform="translate(-399.438 -87.343)" fill="#59836b"/>
        <path id="Trazado_99293" data-name="Trazado 99293" d="M450.971,134.232a1.487,1.487,0,1,1-1.485-1.422A1.454,1.454,0,0,1,450.971,134.232Z" transform="translate(-394.512 -87.343)" fill="#59836b"/>
      </g>
    </g>
    <rect id="Rectángulo_400944" data-name="Rectángulo 400944" width="362" height="26" transform="translate(620 2223)" fill="#fff"/>
    <path id="Trazado_900088" data-name="Trazado 900088" d="M8.842-5.546H3.779v3.428H9.721V0H1.143V-12.8H9.7v2.136H3.779v3.05H8.842Zm4.6-3.964.079,1.1a3.32,3.32,0,0,1,2.733-1.274A2.759,2.759,0,0,1,18.5-8.8a4.142,4.142,0,0,1,.756,2.654V0h-2.54V-6.082a1.648,1.648,0,0,0-.352-1.173A1.574,1.574,0,0,0,15.2-7.62a1.747,1.747,0,0,0-1.608.914V0h-2.54V-9.51Zm10.784-2.338V-9.51h1.626v1.863H24.223V-2.9a1.133,1.133,0,0,0,.2.756,1.015,1.015,0,0,0,.773.229,4.051,4.051,0,0,0,.747-.062V-.053a5.229,5.229,0,0,1-1.538.229,2.425,2.425,0,0,1-2.725-2.7V-7.646H20.294V-9.51h1.389v-2.338Zm2.382,7a5.64,5.64,0,0,1,.545-2.522,3.989,3.989,0,0,1,1.569-1.714A4.577,4.577,0,0,1,31.1-9.686a4.33,4.33,0,0,1,3.142,1.178,4.727,4.727,0,0,1,1.358,3.2l.018.65a4.97,4.97,0,0,1-1.222,3.511A4.247,4.247,0,0,1,31.113.176a4.268,4.268,0,0,1-3.283-1.318A5.058,5.058,0,0,1,26.6-4.729Zm2.54.18a3.555,3.555,0,0,0,.51,2.073,1.682,1.682,0,0,0,1.459.717,1.686,1.686,0,0,0,1.441-.709,3.89,3.89,0,0,0,.519-2.267,3.519,3.519,0,0,0-.519-2.06A1.686,1.686,0,0,0,31.1-7.638a1.658,1.658,0,0,0-1.441.726A3.955,3.955,0,0,0,29.145-4.662ZM42.521-7.128a6.9,6.9,0,0,0-.914-.07,1.86,1.86,0,0,0-1.89.976V0h-2.54V-9.51h2.4l.07,1.134a2.354,2.354,0,0,1,2.118-1.31,2.662,2.662,0,0,1,.791.114Zm3.56-2.382.079,1.1a3.32,3.32,0,0,1,2.733-1.274,2.759,2.759,0,0,1,2.25.888A4.142,4.142,0,0,1,51.9-6.144V0h-2.54V-6.082a1.648,1.648,0,0,0-.352-1.173,1.574,1.574,0,0,0-1.169-.365,1.747,1.747,0,0,0-1.608.914V0H43.69V-9.51Zm7.348,4.667a5.64,5.64,0,0,1,.545-2.522,3.989,3.989,0,0,1,1.569-1.714,4.577,4.577,0,0,1,2.377-.606,4.33,4.33,0,0,1,3.142,1.178,4.727,4.727,0,0,1,1.358,3.2l.018.65a4.97,4.97,0,0,1-1.222,3.511A4.247,4.247,0,0,1,57.938.176a4.268,4.268,0,0,1-3.283-1.318,5.058,5.058,0,0,1-1.226-3.586Zm2.54.18a3.555,3.555,0,0,0,.51,2.073,1.682,1.682,0,0,0,1.459.717,1.686,1.686,0,0,0,1.441-.709A3.89,3.89,0,0,0,59.9-4.847a3.519,3.519,0,0,0-.519-2.06,1.686,1.686,0,0,0-1.459-.731,1.658,1.658,0,0,0-1.441.726A3.955,3.955,0,0,0,55.969-4.662ZM72.044-3.1,73.811-9.51h2.654L73.257,0H70.831L67.623-9.51h2.654ZM80.262,0H77.713V-9.51h2.549Zm-2.7-11.971a1.251,1.251,0,0,1,.382-.94,1.436,1.436,0,0,1,1.042-.369,1.44,1.44,0,0,1,1.037.369,1.244,1.244,0,0,1,.387.94,1.247,1.247,0,0,1-.391.949,1.443,1.443,0,0,1-1.033.369,1.443,1.443,0,0,1-1.033-.369A1.247,1.247,0,0,1,77.563-11.971Zm4.395,7.128A5.64,5.64,0,0,1,82.5-7.365a3.989,3.989,0,0,1,1.569-1.714,4.577,4.577,0,0,1,2.377-.606,4.33,4.33,0,0,1,3.142,1.178,4.727,4.727,0,0,1,1.358,3.2l.018.65a4.97,4.97,0,0,1-1.222,3.511A4.247,4.247,0,0,1,86.467.176a4.268,4.268,0,0,1-3.283-1.318,5.058,5.058,0,0,1-1.226-3.586Zm2.54.18a3.555,3.555,0,0,0,.51,2.073,1.682,1.682,0,0,0,1.459.717,1.686,1.686,0,0,0,1.441-.709,3.89,3.89,0,0,0,.519-2.267,3.519,3.519,0,0,0-.519-2.06,1.686,1.686,0,0,0-1.459-.731,1.658,1.658,0,0,0-1.441.726A3.955,3.955,0,0,0,84.5-4.662ZM95.212,0H92.663V-13.5h2.549Zm6.469.176a4.668,4.668,0,0,1-3.406-1.283,4.561,4.561,0,0,1-1.314-3.419v-.246a5.745,5.745,0,0,1,.554-2.562,4.064,4.064,0,0,1,1.569-1.74,4.4,4.4,0,0,1,2.316-.611,3.947,3.947,0,0,1,3.072,1.23,5,5,0,0,1,1.121,3.489v1.037H99.536a2.36,2.36,0,0,0,.743,1.494,2.245,2.245,0,0,0,1.569.563,2.742,2.742,0,0,0,2.294-1.063l1.248,1.4a3.813,3.813,0,0,1-1.547,1.261A5.075,5.075,0,0,1,101.681.176Zm-.29-7.813a1.587,1.587,0,0,0-1.226.512,2.651,2.651,0,0,0-.6,1.466H103.1v-.2a1.891,1.891,0,0,0-.457-1.311A1.638,1.638,0,0,0,101.391-7.638Zm7.98-1.872.079,1.1a3.32,3.32,0,0,1,2.733-1.274,2.759,2.759,0,0,1,2.25.888,4.142,4.142,0,0,1,.756,2.654V0h-2.54V-6.082a1.648,1.648,0,0,0-.352-1.173,1.574,1.574,0,0,0-1.169-.365,1.747,1.747,0,0,0-1.608.914V0h-2.54V-9.51Zm10.784-2.338V-9.51h1.626v1.863h-1.626V-2.9a1.133,1.133,0,0,0,.2.756,1.015,1.015,0,0,0,.773.229,4.051,4.051,0,0,0,.747-.062V-.053a5.229,5.229,0,0,1-1.538.229,2.425,2.425,0,0,1-2.725-2.7V-7.646h-1.389V-9.51h1.389v-2.338Zm2.382,7a5.64,5.64,0,0,1,.545-2.522,3.989,3.989,0,0,1,1.569-1.714,4.577,4.577,0,0,1,2.377-.606,4.33,4.33,0,0,1,3.142,1.178,4.727,4.727,0,0,1,1.358,3.2l.018.65a4.97,4.97,0,0,1-1.222,3.511A4.247,4.247,0,0,1,127.046.176a4.268,4.268,0,0,1-3.283-1.318,5.058,5.058,0,0,1-1.226-3.586Zm2.54.18a3.555,3.555,0,0,0,.51,2.073,1.682,1.682,0,0,0,1.459.717,1.686,1.686,0,0,0,1.441-.709,3.89,3.89,0,0,0,.519-2.267,3.519,3.519,0,0,0-.519-2.06,1.686,1.686,0,0,0-1.459-.731,1.658,1.658,0,0,0-1.441.726A3.955,3.955,0,0,0,125.077-4.662Zm21.982-.576h-9.1V-7.312h9.1Zm8.868-3.234a3.17,3.17,0,0,1,2.54-1.213q3.094,0,3.138,3.595V0h-2.54V-6.021a1.767,1.767,0,0,0-.352-1.208,1.507,1.507,0,0,0-1.169-.391,1.729,1.729,0,0,0-1.617.861V0h-2.54V-13.5h2.54ZM166.2,0h-2.549V-9.51H166.2Zm-2.7-11.971a1.251,1.251,0,0,1,.382-.94,1.436,1.436,0,0,1,1.042-.369,1.44,1.44,0,0,1,1.037.369,1.244,1.244,0,0,1,.387.94,1.247,1.247,0,0,1-.391.949,1.443,1.443,0,0,1-1.033.369,1.443,1.443,0,0,1-1.033-.369A1.247,1.247,0,0,1,163.5-11.971Zm9.94,9.343a.818.818,0,0,0-.461-.734,5.241,5.241,0,0,0-1.481-.479q-3.393-.712-3.393-2.883a2.613,2.613,0,0,1,1.05-2.114,4.237,4.237,0,0,1,2.747-.848,4.56,4.56,0,0,1,2.9.853,2.687,2.687,0,0,1,1.085,2.215h-2.54a1.229,1.229,0,0,0-.352-.9,1.488,1.488,0,0,0-1.1-.356,1.52,1.52,0,0,0-.993.29.916.916,0,0,0-.352.738.783.783,0,0,0,.4.681,4.114,4.114,0,0,0,1.349.448,11.019,11.019,0,0,1,1.6.426,2.628,2.628,0,0,1,2.013,2.558,2.481,2.481,0,0,1-1.116,2.1,4.815,4.815,0,0,1-2.883.8,5.029,5.029,0,0,1-2.123-.426,3.561,3.561,0,0,1-1.455-1.169,2.716,2.716,0,0,1-.527-1.6h2.408a1.326,1.326,0,0,0,.5,1.037,1.987,1.987,0,0,0,1.248.36,1.839,1.839,0,0,0,1.1-.277A.861.861,0,0,0,173.443-2.628Zm7.146-9.22V-9.51h1.626v1.863h-1.626V-2.9a1.133,1.133,0,0,0,.2.756,1.015,1.015,0,0,0,.773.229,4.051,4.051,0,0,0,.747-.062V-.053a5.229,5.229,0,0,1-1.538.229,2.425,2.425,0,0,1-2.725-2.7V-7.646H176.66V-9.51h1.389v-2.338Zm2.382,7a5.64,5.64,0,0,1,.545-2.522,3.989,3.989,0,0,1,1.569-1.714,4.577,4.577,0,0,1,2.377-.606A4.33,4.33,0,0,1,190.6-8.508a4.727,4.727,0,0,1,1.358,3.2l.018.65a4.97,4.97,0,0,1-1.222,3.511A4.247,4.247,0,0,1,187.479.176,4.268,4.268,0,0,1,184.2-1.143a5.058,5.058,0,0,1-1.226-3.586Zm2.54.18a3.555,3.555,0,0,0,.51,2.073,1.682,1.682,0,0,0,1.459.717,1.686,1.686,0,0,0,1.441-.709,3.89,3.89,0,0,0,.519-2.267,3.519,3.519,0,0,0-.519-2.06,1.686,1.686,0,0,0-1.459-.731,1.658,1.658,0,0,0-1.441.726A3.955,3.955,0,0,0,185.511-4.662Zm13.377-2.465a6.9,6.9,0,0,0-.914-.07,1.86,1.86,0,0,0-1.89.976V0h-2.54V-9.51h2.4l.07,1.134a2.354,2.354,0,0,1,2.118-1.31,2.662,2.662,0,0,1,.791.114ZM202.79,0h-2.549V-9.51h2.549Zm-2.7-11.971a1.251,1.251,0,0,1,.382-.94,1.436,1.436,0,0,1,1.042-.369,1.44,1.44,0,0,1,1.037.369,1.244,1.244,0,0,1,.387.94,1.247,1.247,0,0,1-.391.949,1.443,1.443,0,0,1-1.033.369,1.443,1.443,0,0,1-1.033-.369A1.247,1.247,0,0,1,200.092-11.971ZM210.393,0a2.821,2.821,0,0,1-.255-.853,3.073,3.073,0,0,1-2.4,1.028,3.376,3.376,0,0,1-2.316-.809,2.6,2.6,0,0,1-.918-2.039,2.687,2.687,0,0,1,1.121-2.32,5.529,5.529,0,0,1,3.239-.817h1.169v-.545a1.567,1.567,0,0,0-.338-1.055,1.331,1.331,0,0,0-1.068-.4,1.513,1.513,0,0,0-1.006.308,1.045,1.045,0,0,0-.365.844h-2.54a2.551,2.551,0,0,1,.51-1.529,3.37,3.37,0,0,1,1.441-1.1,5.253,5.253,0,0,1,2.092-.4,4.15,4.15,0,0,1,2.791.883,3.09,3.09,0,0,1,1.033,2.483V-2.2a4.546,4.546,0,0,0,.378,2.048V0Zm-2.1-1.767a2.188,2.188,0,0,0,1.037-.25,1.645,1.645,0,0,0,.7-.672V-4.324h-.949q-1.907,0-2.03,1.318l-.009.149a1.017,1.017,0,0,0,.334.782A1.3,1.3,0,0,0,208.292-1.767Zm14.678-.105a1.666,1.666,0,0,0,1.143-.387,1.355,1.355,0,0,0,.457-1.028h2.382a3.258,3.258,0,0,1-.527,1.771A3.48,3.48,0,0,1,225-.268a4.442,4.442,0,0,1-1.991.444,4.129,4.129,0,0,1-3.217-1.3A5.13,5.13,0,0,1,218.619-4.7v-.167a5.071,5.071,0,0,1,1.169-3.507A4.08,4.08,0,0,1,223-9.686a4,4,0,0,1,2.861,1.015,3.594,3.594,0,0,1,1.094,2.7h-2.382a1.745,1.745,0,0,0-.457-1.206,1.524,1.524,0,0,0-1.16-.464,1.53,1.53,0,0,0-1.34.647,3.749,3.749,0,0,0-.453,2.1v.264a3.8,3.8,0,0,0,.448,2.113A1.549,1.549,0,0,0,222.97-1.872Zm5.036-2.971a5.64,5.64,0,0,1,.545-2.522,3.989,3.989,0,0,1,1.569-1.714,4.577,4.577,0,0,1,2.377-.606,4.33,4.33,0,0,1,3.142,1.178A4.727,4.727,0,0,1,237-5.309l.018.65a4.97,4.97,0,0,1-1.222,3.511A4.247,4.247,0,0,1,232.515.176a4.268,4.268,0,0,1-3.283-1.318,5.058,5.058,0,0,1-1.226-3.586Zm2.54.18a3.555,3.555,0,0,0,.51,2.073,1.682,1.682,0,0,0,1.459.717,1.686,1.686,0,0,0,1.441-.709,3.89,3.89,0,0,0,.519-2.267,3.519,3.519,0,0,0-.519-2.06,1.686,1.686,0,0,0-1.459-.731,1.658,1.658,0,0,0-1.441.726A3.955,3.955,0,0,0,230.546-4.662ZM240.961-9.51l.079,1.063a3.342,3.342,0,0,1,2.733-1.239,2.536,2.536,0,0,1,2.522,1.45,3.265,3.265,0,0,1,2.856-1.45,2.836,2.836,0,0,1,2.3.9,4.141,4.141,0,0,1,.756,2.711V0h-2.549V-6.064a1.811,1.811,0,0,0-.316-1.182,1.4,1.4,0,0,0-1.116-.374,1.585,1.585,0,0,0-1.582,1.09L246.656,0h-2.54V-6.056a1.789,1.789,0,0,0-.325-1.2,1.416,1.416,0,0,0-1.107-.369,1.646,1.646,0,0,0-1.564.9V0h-2.54V-9.51Zm12.806,4.667a5.64,5.64,0,0,1,.545-2.522,3.989,3.989,0,0,1,1.569-1.714,4.577,4.577,0,0,1,2.377-.606A4.33,4.33,0,0,1,261.4-8.508a4.727,4.727,0,0,1,1.358,3.2l.018.65a4.97,4.97,0,0,1-1.222,3.511A4.247,4.247,0,0,1,258.275.176a4.268,4.268,0,0,1-3.283-1.318,5.058,5.058,0,0,1-1.226-3.586Zm2.54.18a3.555,3.555,0,0,0,.51,2.073,1.682,1.682,0,0,0,1.459.717,1.686,1.686,0,0,0,1.441-.709,3.89,3.89,0,0,0,.519-2.267,3.519,3.519,0,0,0-.519-2.06,1.686,1.686,0,0,0-1.459-.731,1.658,1.658,0,0,0-1.441.726A3.955,3.955,0,0,0,256.307-4.662Zm17.666,2.035a.818.818,0,0,0-.461-.734,5.241,5.241,0,0,0-1.481-.479q-3.393-.712-3.393-2.883a2.613,2.613,0,0,1,1.05-2.114,4.237,4.237,0,0,1,2.747-.848,4.56,4.56,0,0,1,2.9.853,2.687,2.687,0,0,1,1.085,2.215h-2.54a1.229,1.229,0,0,0-.352-.9,1.488,1.488,0,0,0-1.1-.356,1.52,1.52,0,0,0-.993.29.916.916,0,0,0-.352.738.783.783,0,0,0,.4.681,4.114,4.114,0,0,0,1.349.448,11.019,11.019,0,0,1,1.6.426,2.628,2.628,0,0,1,2.013,2.558,2.481,2.481,0,0,1-1.116,2.1,4.815,4.815,0,0,1-2.883.8,5.029,5.029,0,0,1-2.123-.426,3.561,3.561,0,0,1-1.455-1.169,2.716,2.716,0,0,1-.527-1.6h2.408a1.326,1.326,0,0,0,.5,1.037,1.987,1.987,0,0,0,1.248.36,1.839,1.839,0,0,0,1.1-.277A.861.861,0,0,0,273.973-2.628Zm3.709-2.215a5.64,5.64,0,0,1,.545-2.522A3.989,3.989,0,0,1,279.8-9.079a4.577,4.577,0,0,1,2.377-.606,4.33,4.33,0,0,1,3.142,1.178,4.727,4.727,0,0,1,1.358,3.2l.018.65a4.97,4.97,0,0,1-1.222,3.511A4.247,4.247,0,0,1,282.19.176a4.268,4.268,0,0,1-3.283-1.318,5.058,5.058,0,0,1-1.226-3.586Zm2.54.18a3.555,3.555,0,0,0,.51,2.073,1.682,1.682,0,0,0,1.459.717,1.686,1.686,0,0,0,1.441-.709,3.89,3.89,0,0,0,.519-2.267,3.519,3.519,0,0,0-.519-2.06,1.686,1.686,0,0,0-1.459-.731,1.658,1.658,0,0,0-1.441.726A3.955,3.955,0,0,0,280.222-4.662Zm11.988,2.79a1.666,1.666,0,0,0,1.143-.387,1.355,1.355,0,0,0,.457-1.028h2.382a3.258,3.258,0,0,1-.527,1.771,3.48,3.48,0,0,1-1.419,1.248,4.442,4.442,0,0,1-1.991.444,4.129,4.129,0,0,1-3.217-1.3A5.13,5.13,0,0,1,287.859-4.7v-.167a5.071,5.071,0,0,1,1.169-3.507,4.08,4.08,0,0,1,3.208-1.31A4,4,0,0,1,295.1-8.67a3.594,3.594,0,0,1,1.094,2.7H293.81a1.745,1.745,0,0,0-.457-1.206,1.524,1.524,0,0,0-1.16-.464,1.53,1.53,0,0,0-1.34.647,3.749,3.749,0,0,0-.453,2.1v.264a3.8,3.8,0,0,0,.448,2.113A1.549,1.549,0,0,0,292.21-1.872ZM300.322,0h-2.549V-9.51h2.549Zm-2.7-11.971a1.251,1.251,0,0,1,.382-.94,1.436,1.436,0,0,1,1.042-.369,1.44,1.44,0,0,1,1.037.369,1.244,1.244,0,0,1,.387.94,1.247,1.247,0,0,1-.391.949,1.443,1.443,0,0,1-1.033.369,1.443,1.443,0,0,1-1.033-.369A1.247,1.247,0,0,1,297.624-11.971ZM306.791.176a4.668,4.668,0,0,1-3.406-1.283,4.561,4.561,0,0,1-1.314-3.419v-.246a5.745,5.745,0,0,1,.554-2.562,4.064,4.064,0,0,1,1.569-1.74,4.4,4.4,0,0,1,2.316-.611,3.947,3.947,0,0,1,3.072,1.23A5,5,0,0,1,310.7-4.966v1.037h-6.056a2.36,2.36,0,0,0,.743,1.494,2.245,2.245,0,0,0,1.569.563,2.742,2.742,0,0,0,2.294-1.063l1.248,1.4a3.813,3.813,0,0,1-1.547,1.261A5.075,5.075,0,0,1,306.791.176Zm-.29-7.813a1.587,1.587,0,0,0-1.226.512,2.651,2.651,0,0,0-.6,1.466h3.533v-.2a1.891,1.891,0,0,0-.457-1.311A1.638,1.638,0,0,0,306.5-7.638Zm5.247,2.813a5.731,5.731,0,0,1,1-3.542,3.237,3.237,0,0,1,2.729-1.318,2.913,2.913,0,0,1,2.294,1.037V-13.5h2.549V0h-2.294L317.9-1.011A2.989,2.989,0,0,1,315.457.176a3.228,3.228,0,0,1-2.694-1.323A5.916,5.916,0,0,1,311.748-4.825Zm2.54.189a3.754,3.754,0,0,0,.466,2.051,1.517,1.517,0,0,0,1.354.713,1.7,1.7,0,0,0,1.661-.995V-6.625a1.675,1.675,0,0,0-1.644-.995Q314.288-7.62,314.288-4.636ZM327.8,0a2.821,2.821,0,0,1-.255-.853,3.073,3.073,0,0,1-2.4,1.028,3.376,3.376,0,0,1-2.316-.809,2.6,2.6,0,0,1-.918-2.039,2.687,2.687,0,0,1,1.121-2.32,5.529,5.529,0,0,1,3.239-.817h1.169v-.545a1.567,1.567,0,0,0-.338-1.055,1.331,1.331,0,0,0-1.068-.4,1.513,1.513,0,0,0-1.006.308,1.045,1.045,0,0,0-.365.844h-2.54a2.551,2.551,0,0,1,.51-1.529,3.37,3.37,0,0,1,1.441-1.1,5.253,5.253,0,0,1,2.092-.4,4.15,4.15,0,0,1,2.791.883,3.09,3.09,0,0,1,1.033,2.483V-2.2a4.546,4.546,0,0,0,.378,2.048V0Zm-2.1-1.767a2.188,2.188,0,0,0,1.037-.25,1.645,1.645,0,0,0,.7-.672V-4.324h-.949q-1.907,0-2.03,1.318l-.009.149a1.017,1.017,0,0,0,.334.782A1.3,1.3,0,0,0,325.7-1.767Zm5.845-3.059a5.731,5.731,0,0,1,1-3.542,3.237,3.237,0,0,1,2.729-1.318,2.913,2.913,0,0,1,2.294,1.037V-13.5h2.549V0h-2.294l-.123-1.011A2.989,2.989,0,0,1,335.25.176a3.228,3.228,0,0,1-2.694-1.323A5.916,5.916,0,0,1,331.541-4.825Zm2.54.189a3.754,3.754,0,0,0,.466,2.051,1.517,1.517,0,0,0,1.354.713,1.7,1.7,0,0,0,1.661-.995V-6.625a1.675,1.675,0,0,0-1.644-.995Q334.081-7.62,334.081-4.636Z" transform="translate(629 2245)" fill="#12263f"/>
    <g id="Grupo_1099835" data-name="Grupo 1099835" transform="translate(633 2316.7)">
      <g id="Grupo_1099834" data-name="Grupo 1099834" transform="translate(0 0.004)" clip-path="url(#clip-path)">
        <path id="Trazado_876827" data-name="Trazado 876827" d="M1828.318,426.786c8.482,9.2,9.4,26.234,9.4,26.234l3.793-.419s10.824-23.634,5.024-27.393c-7.548-4.892-9.89-2.9-12.7-2.4-1.665.294-5.514,3.981-5.514,3.981" transform="translate(-1576.07 -363.764)" fill="#00a29a"/>
        <path id="Trazado_876828" data-name="Trazado 876828" d="M1561.588,339.218c-9.406,5.885-40.814,13.586-45.653,8.3s-1.061-13.9,10.844-21,33.395-7.24,36.249-2.517,4.348,11.588-1.44,15.209" transform="translate(-1305.02 -276.521)" fill="#00a29a"/>
        <path id="Trazado_876829" data-name="Trazado 876829" d="M1890.97,420.151a.868.868,0,0,0,1.153.421c1.264-.588,4.5.036,5.5.875,2.581,2.165,4.543,4.5,2.4,11.178a132.671,132.671,0,0,1-4.978,13.486.867.867,0,1,0,1.587.7,134.219,134.219,0,0,0,5.042-13.655c2.473-7.689-.093-10.657-2.933-13.038-1.454-1.219-5.426-2.01-7.345-1.119a.868.868,0,0,0-.421,1.152" transform="translate(-1630.009 -360.861)"/>
        <path id="Trazado_876830" data-name="Trazado 876830" d="M1536.653,330.327a.867.867,0,0,0,1.2-.239,32.653,32.653,0,0,1,14.793-11.748,44.341,44.341,0,0,1,18.922-2.948,22.4,22.4,0,0,1,7.463,1.44,9.77,9.77,0,0,1,5.274,4.785,6.22,6.22,0,0,1-.744,6.523.867.867,0,1,0,1.295,1.155,7.891,7.891,0,0,0,1.032-8.389,11.489,11.489,0,0,0-6.182-5.671,23.984,23.984,0,0,0-8.047-1.574,46.058,46.058,0,0,0-19.668,3.075,34.4,34.4,0,0,0-15.58,12.39.867.867,0,0,0,.239,1.2" transform="translate(-1324.313 -270.324)"/>
        <path id="Trazado_876831" data-name="Trazado 876831" d="M1617.7,367.357a137.559,137.559,0,0,0-27.727,7.242.865.865,0,0,0-.328.068l-1.6.676a.867.867,0,0,0,.654,1.607,135.818,135.818,0,0,1,29.266-7.878.867.867,0,1,0-.261-1.715" transform="translate(-1368.486 -316.665)"/>
        <path id="Trazado_876832" data-name="Trazado 876832" d="M1634,402.7l-29.094,7.324a.867.867,0,1,0,.423,1.682l29.094-7.324A.867.867,0,1,0,1634,402.7" transform="translate(-1382.919 -347.12)"/>
        <path id="Trazado_876833" data-name="Trazado 876833" d="M1633.187,442.043l-29.4,6.277a.868.868,0,0,0,.18,1.716.878.878,0,0,0,.182-.019l29.4-6.277a.867.867,0,0,0-.362-1.7" transform="translate(-1381.927 -381.039)"/>
        <path id="Trazado_876834" data-name="Trazado 876834" d="M1624.35,503.681a8.807,8.807,0,0,0,1.151.981,9.864,9.864,0,0,0,4.826,2.013l.111.055a.868.868,0,0,0,.748.014c.133.005.265.006.4.006q.323.118.647.232a.867.867,0,0,0,.722-1.57l-.156-.089a.869.869,0,0,0-.268-.549,9.33,9.33,0,0,0-3.555-2.092,10.143,10.143,0,0,0-1.862-.572q-.273-.122-.549-.237a.867.867,0,0,0-.781.056l-.038,0a.862.862,0,0,0-.4-.018c-.214-.005-.429,0-.645.006a.867.867,0,0,0-.733,1.572Z" transform="translate(-1399.497 -432.574)"/>
        <path id="Trazado_876835" data-name="Trazado 876835" d="M1748.723,510.668c.1.026.207.049.311.07l.053.038a.866.866,0,0,0,.833.091l.038,0a.868.868,0,0,0,.85.7h.005a8.41,8.41,0,0,0,4.854-1.608,9.791,9.791,0,0,0,1.016-.547,1.174,1.174,0,0,0,.113-2.01,1.824,1.824,0,0,0-1.408-.8,8.1,8.1,0,0,0-5.873,1.512,8.438,8.438,0,0,0-1,.721.843.843,0,0,0-.105.1.976.976,0,0,0,.308,1.73" transform="translate(-1506.778 -436.641)"/>
        <path id="Trazado_876836" data-name="Trazado 876836" d="M1635.323,599.385a.867.867,0,0,0,.351-1.647,6.426,6.426,0,0,0-6.028.246.862.862,0,0,0,.623,1.59c-.092,2.212.521,3.82,1.91,2.877,1.116-.759,1.044-2.476.853-3.6a4.765,4.765,0,0,1,.844.1.859.859,0,0,0,.8.462Z" transform="translate(-1404.441 -514.724)"/>
        <path id="Trazado_876837" data-name="Trazado 876837" d="M1778.535,605.791a11.008,11.008,0,0,0-4.748-.524.866.866,0,0,0-.347,1.606c-.493,2.392-.13,4.344,1.462,3.526,1.167-.6,1.331-2.238,1.292-3.378a9.312,9.312,0,0,1,.923.164.871.871,0,0,0,.115.127,1.143,1.143,0,0,0,.772.295,1.24,1.24,0,0,0,.16-.011,1.152,1.152,0,0,0,.824-.52.867.867,0,0,0-.451-1.285" transform="translate(-1528.396 -521.704)"/>
        <path id="Trazado_876838" data-name="Trazado 876838" d="M1670.935,646.141a.868.868,0,0,0-1.245-1.208l-6.344,6.543c-1.21,1.248-1.579,2.392-1.1,3.4a3.068,3.068,0,0,0,2.224,1.438,28.776,28.776,0,0,0,6.033.719h.011a.867.867,0,0,0,.01-1.735,27.036,27.036,0,0,1-5.668-.675c-.224-.051-.906-.207-1.045-.5-.13-.271.153-.8.777-1.44Z" transform="translate(-1432.736 -555.727)"/>
        <path id="Trazado_876839" data-name="Trazado 876839" d="M1858.622,513.819a8.6,8.6,0,0,0,1.531-3.1,3.787,3.787,0,0,0-5.644-4.292c0-.01,0-.02,0-.031a47.912,47.912,0,0,0-6.778-22.569.867.867,0,0,0-1.487.893,46.191,46.191,0,0,1,6.4,19.763.863.863,0,0,0-.588-.45l-4.431-.928a.867.867,0,0,0-.356,1.7l4.431.928a.862.862,0,0,0,1-.582c.031.44.058.88.077,1.321a.866.866,0,0,0,.528.761,12.415,12.415,0,0,0-2.525,3.5.867.867,0,1,0,1.519.837,9.377,9.377,0,0,1,2.546-3.338,2.593,2.593,0,0,1,3.153-.02,2.4,2.4,0,0,1,.458,2.147,6.948,6.948,0,0,1-1.248,2.462,25.183,25.183,0,0,1-2.88,3.37c-.568.556-1.1.832-1.356.7a.868.868,0,0,0-.79,1.545,2.035,2.035,0,0,0,.931.221,3.545,3.545,0,0,0,2.429-1.227,26.886,26.886,0,0,0,3.08-3.6" transform="translate(-1591.417 -416.711)"/>
        <path id="Trazado_876840" data-name="Trazado 876840" d="M1593.027,570.249a.868.868,0,0,0-1.089.565l-2.542,8.026c-.712,2.249-1.519,4.8-3.274,6.486-1.848,1.778-4.619,2.447-7.085,2.866a61.065,61.065,0,0,1-14.673.7c-3.48-.255-8.477-.961-11.67-4.136-2.534-2.52-3.87-6.514-3.969-11.872-.022-1.171-.016-3.858-.01-7.259.009-4.487.019-10.009-.021-15.025a.864.864,0,0,0,.433.117.887.887,0,0,0,.175-.018l3.254-.667a.868.868,0,0,0-.349-1.7l-3.253.667a.858.858,0,0,0-.273.11c-.057-5.452-.186-10.085-.459-11.769a.867.867,0,1,0-1.713.277c.521,3.209.49,18.73.472,28-.007,3.411-.012,6.106.01,7.294.108,5.824,1.615,10.222,4.48,13.07,3.6,3.581,9.011,4.361,12.767,4.636q2.28.167,4.567.167a62.73,62.73,0,0,0,10.525-.889c2.727-.464,5.809-1.222,8-3.327,2.072-1.994,2.989-4.887,3.725-7.212l2.542-8.026a.868.868,0,0,0-.565-1.089" transform="translate(-1333.131 -462.58)"/>
        <path id="Trazado_876841" data-name="Trazado 876841" d="M1893.908,747.11a.868.868,0,0,0-.942.787,97.043,97.043,0,0,0-.25,11.9,95.518,95.518,0,0,1-.243,11.7.867.867,0,0,0,.786.941c.026,0,.052,0,.078,0a.867.867,0,0,0,.863-.79,97,97,0,0,0,.25-11.9,95.372,95.372,0,0,1,.243-11.7.868.868,0,0,0-.787-.941" transform="translate(-1631.371 -644.031)"/>
        <path id="Trazado_876842" data-name="Trazado 876842" d="M1768.1,935.971c-1.6.648-4.155,2.075-7.115,3.728-3.181,1.777-6.787,3.791-9.536,4.987a.813.813,0,1,0,.649,1.491c2.823-1.228,6.466-3.263,9.68-5.058,2.791-1.559,5.427-3.031,6.933-3.641a.813.813,0,0,0-.61-1.507" transform="translate(-1509.384 -806.787)"/>
        <path id="Trazado_876843" data-name="Trazado 876843" d="M1745.97,1023.65c-1.009-.971-1.805-.9-2.294-.672a2.282,2.282,0,0,0-1.085,1.6l-1.219,4.571a.813.813,0,1,0,1.571.419l1.219-4.571a1.977,1.977,0,0,1,.19-.526,1.445,1.445,0,0,1,.491.354,17.932,17.932,0,0,1,3.876,5.526.813.813,0,0,0,1.483-.667,19.57,19.57,0,0,0-4.232-6.03" transform="translate(-1501.096 -881.716)"/>
        <path id="Trazado_876844" data-name="Trazado 876844" d="M1828.594,946.406c-5.1,3.251-10.044,8.91-14.408,13.9-.872,1-1.718,1.964-2.531,2.874a.813.813,0,1,0,1.212,1.084c.818-.914,1.667-1.885,2.543-2.888,4.293-4.911,9.159-10.477,14.059-13.6a.813.813,0,1,0-.874-1.37" transform="translate(-1561.526 -815.723)"/>
        <path id="Trazado_876845" data-name="Trazado 876845" d="M1667.068,950.783a6.905,6.905,0,0,1-5.113-6.674.813.813,0,0,0-.811-.815h0a.813.813,0,0,0-.813.811,8.581,8.581,0,0,0,6.393,8.266.792.792,0,0,0,.173.019.813.813,0,0,0,.172-1.607" transform="translate(-1431.258 -813.151)"/>
        <path id="Trazado_876846" data-name="Trazado 876846" d="M1662.372,1015.96a.813.813,0,0,0-1.412.3l-2.006,7.375a.813.813,0,0,0,.571,1,.825.825,0,0,0,.214.029.813.813,0,0,0,.784-.6l1.573-5.785a21.358,21.358,0,0,1,2.641,5.124.813.813,0,1,0,1.531-.545,22.848,22.848,0,0,0-3.9-6.9" transform="translate(-1430.049 -875.537)"/>
        <path id="Trazado_876847" data-name="Trazado 876847" d="M1634.269,941.874a.813.813,0,0,0-.114-1.144l-.337-.276a.813.813,0,0,0-1.313.473,35.532,35.532,0,0,0,.225,14.6.814.814,0,0,0,.792.633.831.831,0,0,0,.182-.021.813.813,0,0,0,.612-.973,33.912,33.912,0,0,1-.373-13.055.808.808,0,0,0,.327-.24" transform="translate(-1406.712 -810.544)"/>
        <path id="Trazado_876848" data-name="Trazado 876848" d="M1607.486,585.405a6.127,6.127,0,0,0,5.145-2.267c2.46-3.245,1-8.742.933-8.975a.868.868,0,0,0-.489-.566c-3.959-1.731-10.2-1.5-13.706-.286a.868.868,0,0,0-.574.683c-.7,4.372-.81,7.455.787,9.314,1.275,1.485,3.49,2.1,7.613,2.1h.291m-6.588-3.228c-.963-1.121-1.1-3.211-.472-7.383a20.714,20.714,0,0,1,11.558.23c.262,1.226.877,4.941-.739,7.068a4.436,4.436,0,0,1-3.772,1.578c-3.687.032-5.655-.421-6.576-1.493" transform="translate(-1377.795 -493.386)"/>
        <path id="Trazado_876849" data-name="Trazado 876849" d="M1745.265,577.789c-3.959-1.731-10.2-1.5-13.706-.286a.868.868,0,0,0-.574.683c-.7,4.372-.81,7.455.787,9.314,1.275,1.484,3.49,2.1,7.613,2.1h.291a6.127,6.127,0,0,0,5.145-2.268c2.46-3.245,1-8.742.933-8.975a.868.868,0,0,0-.489-.566m-1.829,8.5a4.436,4.436,0,0,1-3.772,1.578c-3.687.032-5.656-.422-6.576-1.493-.963-1.121-1.1-3.211-.471-7.383a20.714,20.714,0,0,1,11.558.23c.263,1.226.877,4.941-.739,7.068" transform="translate(-1491.747 -496.999)"/>
        <path id="Trazado_876850" data-name="Trazado 876850" d="M1441.518,940.088c-11.272,2.833-17.752,14.792-22.483,23.523-1.048,1.935-2.039,3.763-2.954,5.248a.813.813,0,1,0,1.384.853c.94-1.524,1.941-3.371,3-5.326,4.588-8.467,10.871-20.062,21.45-22.721a.813.813,0,0,0-.4-1.577" transform="translate(-1220.603 -810.366)"/>
        <path id="Trazado_876851" data-name="Trazado 876851" d="M1225.648,950.154a.868.868,0,0,0-1.7-.368c-1.407,6.489-10.863,20.135-13.889,20.135a.9.9,0,0,1-.116-.007c-.28-.035-.577-.493-.691-1.585a.865.865,0,0,0,.273-1.009c-5.812-14.262-10.053-34.583-11.534-47.428a.867.867,0,1,0-1.723.2c1.456,12.631,5.563,32.436,11.209,46.778-.079,2.962.676,4.568,2.249,4.766a2.133,2.133,0,0,0,.267.016c4.838,0,14.347-15.489,15.651-21.5" transform="translate(-1031.221 -792.315)"/>
        <path id="Trazado_876852" data-name="Trazado 876852" d="M1326.717,1176.16a.87.87,0,0,0-.952.774c-.575,5.547-3.061,13.106-6.536,16.188-.833.739-3.842,1.525-5.774,1.683l0,0a27.516,27.516,0,0,0,9.243-16.65.867.867,0,0,0-1.716-.257,25.759,25.759,0,0,1-8.652,15.586,6.224,6.224,0,0,1-2.155,1.335,2.011,2.011,0,0,1-1.906-.3.867.867,0,0,0-1.185,1.268,3.45,3.45,0,0,0,2.371.876,4.278,4.278,0,0,0,1.208-.177,5.189,5.189,0,0,0,.583-.214,4.7,4.7,0,0,0,1.726.27c2.655,0,6.441-1.261,7.405-2.116,4.3-3.81,6.606-12.438,7.11-17.307a.867.867,0,0,0-.774-.953" transform="translate(-1126.514 -1013.885)"/>
        <path id="Trazado_876853" data-name="Trazado 876853" d="M1291.753,907.241a.867.867,0,1,0-1.6.664c2.59,6.253,4.533,14.274,6.247,21.351.561,2.318,1.092,4.507,1.632,6.6a.868.868,0,0,0,.839.651.88.88,0,0,0,.218-.028.868.868,0,0,0,.623-1.057c-.537-2.076-1.066-4.26-1.625-6.571-1.729-7.138-3.688-15.229-6.331-21.607" transform="translate(-1112.094 -781.609)"/>
        <path id="Trazado_876854" data-name="Trazado 876854" d="M1202.146,731.054a.867.867,0,1,0,1.419,1A12.959,12.959,0,0,1,1216.833,727a.867.867,0,0,0,1.042-.646.9.9,0,0,0,.012-.093.865.865,0,0,0,.576-.538,9.937,9.937,0,0,1,4.617-5.345c.651-.347,1.5-.559,1.833-.2a1.047,1.047,0,0,1,.045,1.034,5.167,5.167,0,0,1-.843,1.232l-.207.252a16.75,16.75,0,0,0-3.208,6.417c-.243.966-.4,1.951-.547,2.9a18.715,18.715,0,0,1-1.009,4.269c-1.272,3.086-4.164,5.271-6.715,7.2a.867.867,0,0,0,1.046,1.384c2.593-1.96,5.821-4.4,7.273-7.922a20.32,20.32,0,0,0,1.119-4.662c.151-.956.292-1.86.516-2.75a15,15,0,0,1,2.874-5.747l.2-.239a6.627,6.627,0,0,0,1.11-1.678,2.712,2.712,0,0,0-.379-2.875c-.859-.923-2.361-.978-3.92-.146a11.694,11.694,0,0,0-5.434,6.29.807.807,0,0,0-.023.093,14.737,14.737,0,0,0-14.662,5.824" transform="translate(-1036.152 -619.163)"/>
        <path id="Trazado_876855" data-name="Trazado 876855" d="M1078.188,617.233a.867.867,0,0,0-.5-1.122c-4.363-1.684-8.333-5.428-11.18-10.541a99.476,99.476,0,0,1-6.231-14.026,2,2,0,0,1,.658-2.438c.186-.115.718.17,1.291.846a22.869,22.869,0,0,1,2.459,3.678,24.583,24.583,0,0,0,2.641,3.937,1.608,1.608,0,0,1,2-.435h.021a.868.868,0,0,0,.867-.847c.046-1.946-1.814-6.38-3.784-11.074-.419-1-.837-2-1.233-2.96a6.426,6.426,0,0,1-.636-2.343,1.3,1.3,0,0,1,2.325-1.025,6.452,6.452,0,0,1,1.251,1.95l6.017,12.309a1.925,1.925,0,0,0,2.285-1.434c-1.246-5.506-2.393-11.118-3.409-16.678a6.427,6.427,0,0,1-.137-2.424,1.3,1.3,0,0,1,2.487-.521,6.453,6.453,0,0,1,.82,2.167c.841,3.348,1.607,5.774,2.348,8.121.733,2.322,1.492,4.723,2.319,8.019a.869.869,0,0,0,1.052.63.886.886,0,0,0,.109-.039.867.867,0,0,0,1.688-.208c.445-5.946.91-10.35,1.515-15.528a6.416,6.416,0,0,1,.579-2.357,1.3,1.3,0,0,1,2.53.229,6.456,6.456,0,0,1,.15,2.313l-1.052,20.524a.867.867,0,0,0,.822.91h.045a.867.867,0,0,0,.866-.823l1.052-20.524a7.864,7.864,0,0,0-.237-2.953,3.011,3.011,0,0,0-5.686-.533,7.85,7.85,0,0,0-.792,3.01c-.532,4.544-.955,8.5-1.352,13.408-.689-2.59-1.331-4.629-1.955-6.6-.733-2.322-1.491-4.723-2.319-8.021a7.859,7.859,0,0,0-1.091-2.753,3.011,3.011,0,0,0-5.593,1.155,7.847,7.847,0,0,0,.124,3.11c.832,4.553,1.755,9.136,2.745,13.672l-4.372-8.943a7.845,7.845,0,0,0-1.638-2.468,3.262,3.262,0,0,0-3.352-.775,3.3,3.3,0,0,0-1.88,3.063,7.86,7.86,0,0,0,.765,3.017c.4.968.818,1.969,1.239,2.973,1.727,4.117,3.685,8.784,3.649,10.36a23.811,23.811,0,0,1-2.294-3.476,24.587,24.587,0,0,0-2.641-3.937c-1.2-1.412-2.485-1.849-3.531-1.2a3.738,3.738,0,0,0-1.363,4.522A100.929,100.929,0,0,0,1065,606.415c2.153,3.867,6,8.97,12.071,11.315a.866.866,0,0,0,1.122-.5" transform="translate(-912.359 -491.003)"/>
        <path id="Trazado_876856" data-name="Trazado 876856" d="M1915.652,892.376a.822.822,0,0,0-.858.765.813.813,0,0,0,.765.858c13.843.791,20.753,16.917,25.326,27.588a73.561,73.561,0,0,0,3.373,7.238.813.813,0,0,0,1.406-.817,72.913,72.913,0,0,1-3.284-7.061c-4.73-11.039-11.88-27.722-26.728-28.571" transform="translate(-1650.614 -769.258)"/>
        <path id="Trazado_876857" data-name="Trazado 876857" d="M2116.571,1195.959a2.012,2.012,0,0,1-1.913.253,6.244,6.244,0,0,1-2.12-1.39,25.763,25.763,0,0,1-8.248-15.8.868.868,0,0,0-1.722.213,27.518,27.518,0,0,0,8.812,16.882l0,0c-1.928-.208-4.915-1.069-5.729-1.83-3.395-3.17-5.686-10.79-6.118-16.351a.868.868,0,0,0-1.73.134c.38,4.881,2.467,13.566,6.664,17.485.966.9,4.89,2.308,7.552,2.308a4.436,4.436,0,0,0,1.529-.227,5.228,5.228,0,0,0,.575.229,4.28,4.28,0,0,0,1.308.208,3.425,3.425,0,0,0,2.29-.816.867.867,0,0,0-1.152-1.3" transform="translate(-1808.374 -1014.729)"/>
        <path id="Trazado_876858" data-name="Trazado 876858" d="M2204.858,912.25c-2.805,6.307-4.972,14.346-6.883,21.438-.619,2.3-1.2,4.465-1.794,6.527a.867.867,0,1,0,1.668.477c.594-2.075,1.18-4.25,1.8-6.552,1.9-7.031,4.043-15,6.794-21.184a.868.868,0,0,0-1.585-.705" transform="translate(-1893.151 -785.946)"/>
        <path id="Trazado_876859" data-name="Trazado 876859" d="M2175.587,926.567a.87.87,0,0,0-.98.737c-1.81,12.8-6.572,33.008-12.748,47.116a.865.865,0,0,0,.247,1.016c-.142,1.089-.451,1.538-.731,1.567-.03,0-.06,0-.09,0-3,0-12.149-13.945-13.393-20.485a.867.867,0,1,0-1.7.324c1.152,6.065,10.329,21.894,15.15,21.894q.106,0,.209-.01c1.578-.158,2.373-1.744,2.371-4.707,6.012-14.191,10.626-33.885,12.407-46.474a.868.868,0,0,0-.738-.981" transform="translate(-1850.07 -798.724)"/>
        <path id="Trazado_876860" data-name="Trazado 876860" d="M2185.388,726.861l.19.244a15,15,0,0,1,2.725,5.819c.2.9.32,1.8.446,2.762a20.294,20.294,0,0,0,1,4.689c1.361,3.559,4.525,6.081,7.067,8.107a.868.868,0,1,0,1.081-1.357c-2.5-1.993-5.335-4.252-6.528-7.369a18.728,18.728,0,0,1-.9-4.294c-.125-.956-.255-1.945-.473-2.916a16.749,16.749,0,0,0-3.042-6.5l-.2-.257a5.194,5.194,0,0,1-.811-1.253,1.047,1.047,0,0,1,.071-1.033c.341-.347,1.186-.114,1.827.25a9.935,9.935,0,0,1,4.479,5.462.865.865,0,0,0,.563.553.923.923,0,0,0,.01.092.868.868,0,0,0,1.026.673,12.953,12.953,0,0,1,13.134,5.391.867.867,0,1,0,1.444-.961,14.739,14.739,0,0,0-14.508-6.2.857.857,0,0,0-.021-.094,11.69,11.69,0,0,0-5.27-6.427c-1.538-.872-3.041-.855-3.922.045a2.71,2.71,0,0,0-.453,2.864,6.626,6.626,0,0,0,1.067,1.707" transform="translate(-1882.774 -622.046)"/>
        <path id="Trazado_876861" data-name="Trazado 876861" d="M2309.7,596.31c-1.029-.68-2.326-.277-3.561,1.1a24.642,24.642,0,0,0-2.741,3.868,23.753,23.753,0,0,1-2.383,3.416c.005-1.578,2.082-6.193,3.915-10.265.447-.992.892-1.982,1.314-2.939a7.85,7.85,0,0,0,.843-3,3.011,3.011,0,0,0-5.171-2.423,7.861,7.861,0,0,0-1.7,2.425l-4.6,8.827c1.106-4.508,2.146-9.067,3.1-13.6a7.851,7.851,0,0,0,.2-3.106,3.011,3.011,0,0,0-5.561-1.3,7.867,7.867,0,0,0-1.162,2.725c-.912,3.274-1.732,5.656-2.525,7.958-.674,1.959-1.369,3.981-2.124,6.553-.271-4.925-.593-8.885-1.007-13.439a7.851,7.851,0,0,0-.714-3.03,3.011,3.011,0,0,0-5.7.387,7.851,7.851,0,0,0-.313,2.945l.524,20.544a.867.867,0,0,0,.867.845h.022a.868.868,0,0,0,.845-.889l-.525-20.544a6.452,6.452,0,0,1,.209-2.309,1.3,1.3,0,0,1,2.535-.165,6.415,6.415,0,0,1,.519,2.372c.473,5.189.824,9.6,1.116,15.562a.867.867,0,0,0,1.683.251.906.906,0,0,0,.107.042.868.868,0,0,0,1.069-.6c.912-3.274,1.732-5.656,2.525-7.958.8-2.326,1.629-4.732,2.555-8.057a6.457,6.457,0,0,1,.876-2.146,1.3,1.3,0,0,1,2.472.585,6.431,6.431,0,0,1-.2,2.42c-1.159,5.533-2.449,11.113-3.837,16.585a98.281,98.281,0,0,1,1.077,1.861.868.868,0,0,0,1.17-.369l6.331-12.15a6.443,6.443,0,0,1,1.3-1.918,1.3,1.3,0,0,1,2.3,1.085,6.418,6.418,0,0,1-.7,2.326c-.419.953-.863,1.938-1.308,2.927-2.09,4.643-4.064,9.029-4.067,10.975a.867.867,0,0,0,.865.869h0a.475.475,0,0,1,.766.554.868.868,0,0,0,1.225-.068,24.605,24.605,0,0,0,2.741-3.868,22.851,22.851,0,0,1,2.553-3.614c.591-.661,1.132-.933,1.312-.813a2,2,0,0,1,.595,2.454,99.529,99.529,0,0,1-6.589,13.862c-2.977,5.038-7.043,8.678-11.447,10.25a.868.868,0,1,0,.583,1.634c6.133-2.189,10.105-7.191,12.358-11a100.964,100.964,0,0,0,6.7-14.091,3.737,3.737,0,0,0-1.246-4.555" transform="translate(-1965.257 -498.173)"/>
        <path id="Trazado_876862" data-name="Trazado 876862" d="M1664.5,774.194l-6.966.644a.868.868,0,0,0,.079,1.731c.027,0,.054,0,.081,0l7.625-.7a.868.868,0,0,0,.774-.712l2.108-11.873a1.859,1.859,0,0,0-.129-1.261,1.8,1.8,0,0,0-1.833-.793,50.416,50.416,0,0,0-12.665,2.26.867.867,0,1,0,.52,1.655,48.688,48.688,0,0,1,12.228-2.182c.07,0,.127,0,.174,0l0,.022Z" transform="translate(-1424.913 -656.194)"/>
        <path id="Trazado_876863" data-name="Trazado 876863" d="M1935.67,226.143a.869.869,0,0,0,1.141-.45,1.9,1.9,0,0,1,.246-.4.864.864,0,0,0,.7,1.372c.03,0,.061,0,.092,0l10.69-1.13a2.521,2.521,0,0,0,2.2-1.246,2.217,2.217,0,0,0-1-2.6,7.011,7.011,0,0,0-4.756-.814,27.148,27.148,0,0,0-6.207,1.4A5.615,5.615,0,0,0,1935.22,225a.867.867,0,0,0,.45,1.141m3.683-2.234a25.4,25.4,0,0,1,5.81-1.314,5.485,5.485,0,0,1,3.591.516.909.909,0,0,1,.393.481c-.01.014-.116.14-.788.21l-10.691,1.13a.862.862,0,0,0-.534.267,5.258,5.258,0,0,1,2.22-1.291" transform="translate(-1668.16 -190.328)"/>
        <path id="Trazado_876864" data-name="Trazado 876864" d="M2033.063,409.242a.868.868,0,0,0,1.226.057,6.3,6.3,0,0,1,3.657-1.491,12.3,12.3,0,0,1,4.234.452,4.646,4.646,0,0,1,1.668.685,1.341,1.341,0,0,1,.6,1.08c-.052.632-.944,1.076-1.674,1.033a6.661,6.661,0,0,1-2.409-.827c-.186-.09-.371-.18-.556-.266a5.357,5.357,0,0,0-4.05-.5.868.868,0,0,0,.6,1.628,3.625,3.625,0,0,1,2.719.447c.177.082.354.168.531.254a8.053,8.053,0,0,0,3.068,1q.095.005.191.005a3.194,3.194,0,0,0,3.311-2.629,3.054,3.054,0,0,0-1.282-2.605,6.278,6.278,0,0,0-2.283-.981,13.888,13.888,0,0,0-4.828-.5,8.035,8.035,0,0,0-4.664,1.935.868.868,0,0,0-.057,1.226" transform="translate(-1752.372 -350.016)"/>
        <path id="Trazado_876865" data-name="Trazado 876865" d="M1733.077,131.513a.868.868,0,0,0,.812-1.174c-.981-2.6-.44-5.818,1.607-9.562a4.674,4.674,0,0,1,1.144-1.527,1.227,1.227,0,0,1,1.217-.222,1.249,1.249,0,0,1,.488,1.164,5.5,5.5,0,0,1-.618,1.872l-3.53,7.611a.868.868,0,0,0,1.574.73l3.53-7.611a6.877,6.877,0,0,0,.777-2.5,2.933,2.933,0,0,0-1.393-2.788,2.894,2.894,0,0,0-3.085.359,6.2,6.2,0,0,0-1.625,2.083c-2.3,4.208-2.876,7.911-1.709,11.006a.868.868,0,0,0,.812.562" transform="translate(-1492.763 -101.037)"/>
        <path id="Trazado_876866" data-name="Trazado 876866" d="M1454.062,212.791l.326.16a20.562,20.562,0,0,1,5.664,4.16.867.867,0,0,0,1.27-1.182h.008a.86.86,0,0,0,.876-.859,9.2,9.2,0,0,0-6.33-8.628,5,5,0,0,0-2.739-.156,3.063,3.063,0,0,0-2.237,2.115,3.248,3.248,0,0,0,1.107,3.12,8.286,8.286,0,0,0,2.054,1.27m-1.48-3.968a1.336,1.336,0,0,1,.99-.859,2.335,2.335,0,0,1,.584-.07,4.235,4.235,0,0,1,1.216.207,7.415,7.415,0,0,1,5.1,6.951c0,.012,0,.024,0,.036a22.283,22.283,0,0,0-5.311-3.69l-.339-.166a6.872,6.872,0,0,1-1.643-.99,1.61,1.61,0,0,1-.6-1.418" transform="translate(-1250.656 -177.717)"/>
        <path id="Trazado_876867" data-name="Trazado 876867" d="M1320.98,376.811c1.881,1.072,4.013,1,6.074.932l.667-.021c2.642-.068,4.315.409,5.264,1.507a.867.867,0,1,0,1.312-1.135,5.267,5.267,0,0,0-1.549-1.216.867.867,0,0,0-.1-1.218,13.79,13.79,0,0,0-10.281-3.206,4.047,4.047,0,0,0-1.706.5,2.174,2.174,0,0,0-1.092,1.962,2.455,2.455,0,0,0,1.407,1.9m.587-2.379a2.478,2.478,0,0,1,.988-.253,12.073,12.073,0,0,1,7.862,1.958,13.592,13.592,0,0,0-2.165-.157c-.2,0-.391,0-.576.008-.225.006-.452.013-.68.021-1.821.059-3.7.123-5.157-.706-.358-.2-.527-.409-.535-.522a.5.5,0,0,1,.264-.349" transform="translate(-1137.51 -321.005)"/>
        <path id="Trazado_876868" data-name="Trazado 876868" d="M1826.77,689.576h0c-.1,1.64.645,2.174,1.1,2.346a1.456,1.456,0,0,0,.522.095,1.845,1.845,0,0,0,1.476-.8,3.4,3.4,0,0,0,.519-1.6,12.569,12.569,0,0,0-.467-6.41.7.7,0,0,0-.894-.373c-1.25.484-2.008,2.753-2.253,6.744m2.227-.131a2.233,2.233,0,0,1-.273.967c-.109.155-.29.23-.358.2-.122-.046-.233-.4-.2-.953h0a16.2,16.2,0,0,1,.82-4.73,14.806,14.806,0,0,1,.01,4.513" transform="translate(-1574.728 -588.582)"/>
        <path id="Trazado_876869" data-name="Trazado 876869" d="M1794.123,780.627c-1.25.484-2.009,2.753-2.254,6.744h0c-.1,1.64.645,2.174,1.1,2.347a1.461,1.461,0,0,0,.522.094,1.845,1.845,0,0,0,1.476-.8,3.4,3.4,0,0,0,.518-1.6,12.564,12.564,0,0,0-.467-6.41.7.7,0,0,0-.894-.373m-.027,6.613a2.24,2.24,0,0,1-.273.968.424.424,0,0,1-.358.2c-.122-.046-.233-.4-.2-.953h0a16.242,16.242,0,0,1,.823-4.716,14.862,14.862,0,0,1,.007,4.5" transform="translate(-1544.642 -672.885)"/>
        <path id="Trazado_876870" data-name="Trazado 876870" d="M2277.688,988.3c-1.25.484-2.008,2.753-2.253,6.744h0c-.1,1.64.645,2.174,1.1,2.346a1.455,1.455,0,0,0,.522.094,1.847,1.847,0,0,0,1.477-.8,3.406,3.406,0,0,0,.519-1.6,12.564,12.564,0,0,0-.468-6.41.7.7,0,0,0-.894-.373m-.027,6.613a2.25,2.25,0,0,1-.273.967.42.42,0,0,1-.358.2c-.122-.046-.233-.4-.2-.954h0a16.237,16.237,0,0,1,.823-4.716,14.871,14.871,0,0,1,.007,4.5" transform="translate(-1961.491 -851.908)"/>
        <path id="Trazado_876871" data-name="Trazado 876871" d="M1908.76,1082.432c-1.25.484-2.009,2.753-2.254,6.744h0c-.1,1.64.644,2.174,1.1,2.347a1.456,1.456,0,0,0,.522.094,1.844,1.844,0,0,0,1.476-.8,3.4,3.4,0,0,0,.519-1.6,12.576,12.576,0,0,0-.467-6.41.7.7,0,0,0-.894-.373m-.027,6.613a2.24,2.24,0,0,1-.273.968c-.11.155-.29.23-.358.2-.122-.046-.233-.4-.2-.954h0a16.24,16.24,0,0,1,.824-4.716,14.871,14.871,0,0,1,.007,4.5" transform="translate(-1643.463 -933.052)"/>
        <path id="Trazado_876872" data-name="Trazado 876872" d="M1586.689,715.755c-1.25.484-2.009,2.753-2.254,6.744h0c-.1,1.64.645,2.174,1.1,2.346a1.458,1.458,0,0,0,.522.094,1.846,1.846,0,0,0,1.477-.8,3.4,3.4,0,0,0,.519-1.6,12.571,12.571,0,0,0-.468-6.41.7.7,0,0,0-.894-.373m-.027,6.613a2.244,2.244,0,0,1-.274.968c-.11.155-.291.229-.358.2-.122-.046-.233-.4-.2-.953h0a16.193,16.193,0,0,1,.821-4.73,14.834,14.834,0,0,1,.01,4.513" transform="translate(-1365.827 -616.964)"/>
        <path id="Trazado_876873" data-name="Trazado 876873" d="M1257.036,990.973c-1.251.484-2.009,2.753-2.254,6.744h0c-.1,1.64.645,2.174,1.1,2.347a1.472,1.472,0,0,0,.521.094,1.845,1.845,0,0,0,1.477-.8,3.4,3.4,0,0,0,.519-1.6,12.57,12.57,0,0,0-.467-6.41.7.7,0,0,0-.894-.373m-.028,6.614a2.234,2.234,0,0,1-.273.967c-.11.155-.291.23-.358.2-.122-.047-.233-.4-.2-.954h0a16.187,16.187,0,0,1,.821-4.73,14.822,14.822,0,0,1,.01,4.513" transform="translate(-1081.655 -854.211)"/>
        <path id="Trazado_876874" data-name="Trazado 876874" d="M1581.706,1233.572c-1.25.484-2.008,2.753-2.253,6.744h0c-.1,1.64.644,2.174,1.1,2.346a1.458,1.458,0,0,0,.522.094,1.846,1.846,0,0,0,1.476-.8,3.4,3.4,0,0,0,.518-1.6,12.563,12.563,0,0,0-.468-6.41.7.7,0,0,0-.894-.373m-.027,6.613a2.246,2.246,0,0,1-.273.968.424.424,0,0,1-.358.2c-.122-.046-.233-.4-.2-.954h0a16.246,16.246,0,0,1,.823-4.716,14.863,14.863,0,0,1,.007,4.5" transform="translate(-1361.531 -1063.338)"/>
        <path id="Trazado_876875" data-name="Trazado 876875" d="M1894.639,472.06a1.847,1.847,0,0,0,1.477-.8,3.4,3.4,0,0,0,.518-1.6,12.569,12.569,0,0,0-.467-6.41.7.7,0,0,0-.894-.373c-1.25.484-2.008,2.754-2.253,6.744h0c-.1,1.64.645,2.174,1.1,2.347a1.471,1.471,0,0,0,.521.094m-.223-2.355h0a16.215,16.215,0,0,1,.82-4.73,14.825,14.825,0,0,1,.01,4.513,2.242,2.242,0,0,1-.273.967c-.109.155-.292.23-.358.2-.122-.046-.233-.4-.2-.953" transform="translate(-1631.837 -398.972)"/>
        <path id="Trazado_876876" data-name="Trazado 876876" d="M1398.829,673.346a.78.78,0,1,0-.878,1.29,7.434,7.434,0,0,1,1,11.476.781.781,0,0,0,1.088,1.12,8.995,8.995,0,0,0-1.209-13.886" transform="translate(-1204.785 -580.33)"/>
        <path id="Trazado_876877" data-name="Trazado 876877" d="M1440.577,680.665a7.4,7.4,0,0,1,1.219,10.786.78.78,0,1,0,1.184,1.017,8.966,8.966,0,0,0-1.477-13.06.78.78,0,1,0-.927,1.256" transform="translate(-1241.551 -585.542)"/>
        <path id="Trazado_876878" data-name="Trazado 876878" d="M2095.323,704.893a9.228,9.228,0,0,0,1.555,7.192.781.781,0,0,0,1.261-.92,7.524,7.524,0,0,1,2.257-10.912.781.781,0,0,0-.793-1.345,9.228,9.228,0,0,0-4.281,5.984" transform="translate(-1806.08 -602.39)"/>
        <path id="Trazado_876879" data-name="Trazado 876879" d="M2045.755,700.179a.781.781,0,0,0-.761-1.363,9.173,9.173,0,0,0-1.882,14.624.78.78,0,1,0,1.081-1.126,7.612,7.612,0,0,1,1.562-12.135" transform="translate(-1758.803 -602.318)"/>
        <path id="Trazado_876880" data-name="Trazado 876880" d="M2428.039,898.018a.78.78,0,1,0-1.554-.146,7.39,7.39,0,0,1-4.794,6.114.781.781,0,1,0,.512,1.475,8.878,8.878,0,0,0,5.836-7.444" transform="translate(-2087.124 -773.385)"/>
        <path id="Trazado_876881" data-name="Trazado 876881" d="M2446.349,919.1a.781.781,0,0,0-.7.854,6.591,6.591,0,0,1-6.868,7.233.781.781,0,0,0-.073,1.559c.122.006.244.008.366.008a8.151,8.151,0,0,0,8.128-8.954.782.782,0,0,0-.853-.7" transform="translate(-2101.605 -792.289)"/>
        <path id="Trazado_876882" data-name="Trazado 876882" d="M1077.638,833.181a5.034,5.034,0,0,1-5.332-5.952.78.78,0,1,0-1.534-.289,6.594,6.594,0,0,0,6.512,7.815c.158,0,.316-.006.473-.018a.781.781,0,1,0-.119-1.557" transform="translate(-922.947 -712.302)"/>
        <path id="Trazado_876883" data-name="Trazado 876883" d="M1044.167,871.124a6.394,6.394,0,0,1-5.991-5.664.78.78,0,0,0-1.556.127,8.011,8.011,0,0,0,7.507,7.1h.02a.78.78,0,0,0,.019-1.561" transform="translate(-893.599 -745.437)"/>
        <path id="Trazado_876884" data-name="Trazado 876884" d="M1504.416,1141.327a.867.867,0,0,0-1.152.421c-4.042,8.7-4.819,25.1-4.965,31.746a.867.867,0,0,0,.848.886h.02a.867.867,0,0,0,.866-.848c.112-5.1.791-22.415,4.8-31.053a.867.867,0,0,0-.421-1.152" transform="translate(-1291.583 -983.792)"/>
        <path id="Trazado_876885" data-name="Trazado 876885" d="M1421.188,1273.594a.867.867,0,0,0-1.2-.24c-.676.45-1.376.951-2.053,1.435-2.855,2.04-5.813,4.152-8.65,3.961a.867.867,0,0,0-.115,1.731q.234.015.467.015c3.3,0,6.482-2.277,9.307-4.3.7-.5,1.354-.968,2.006-1.4a.868.868,0,0,0,.241-1.2" transform="translate(-1214.05 -1097.547)"/>
        <path id="Trazado_876886" data-name="Trazado 876886" d="M2005.3,1169.86a18.071,18.071,0,0,1-19.307-7.971.866.866,0,0,0-.984-.385l.243-14.272a.868.868,0,0,0-.852-.882.857.857,0,0,0-.882.853l-.522,30.593a.868.868,0,0,0,.835.882h.033a.867.867,0,0,0,.865-.818l.115-1.99a.869.869,0,0,0-.073-.4l.2-11.963a20.068,20.068,0,0,0,16.377,8.573,17.8,17.8,0,0,0,4.375-.536.867.867,0,1,0-.427-1.681" transform="translate(-1709.405 -988.191)"/>
        <path id="Trazado_876887" data-name="Trazado 876887" d="M296.365,342.291c-7-.095-14.227,4.542-15.632,10.7s.063,13.449,3.865,19.794a72.074,72.074,0,0,1,5.551,11.155s2.429-4.294,4.727-2.921a7.8,7.8,0,0,0,3.418,1.37s-2.759-5.442,2.476-10.95c0,0,9.707-4.5,14.184-7.71,6.325-4.533,7.213-6.419,11.487-11.611A13.618,13.618,0,0,0,328,358.11c1.55,2.651,7.774,9.218,11.9,7.9s6.639-3.81,5.714-3.813-5.042-.337-5.113-5.554-.213-17.265-12.187-22c-7.17-2.837-29.836-3.782-31.949,7.653" transform="translate(-241.55 -286.884)" fill="#f9ce00"/>
        <path id="Trazado_876888" data-name="Trazado 876888" d="M137.151,612.451c-4.3-3.2-9.543-4.084-14.319-.559s-3.181,9.155-3.2,13.466-.272,9.446-4.384,11.755-6.422,3.244-8.94,2.043c0,0,3.968,5.91,10.551,6.543s14.312-5.5,14.17-11.54-1.046-11.346.02-15.095,4.27-3,4.27-3Z" transform="translate(-91.642 -525.514)" fill="#f9ce00"/>
        <path id="Trazado_876889" data-name="Trazado 876889" d="M656.722,801.3a2.508,2.508,0,0,0-1.97-1.54.869.869,0,0,0-.224,1.723.766.766,0,0,1,.59.483,1.143,1.143,0,0,1-.235,1.171,11.286,11.286,0,0,1-5.117,2.809,2.519,2.519,0,0,1,.253-.771.867.867,0,0,0-.324-1.151,19.918,19.918,0,0,0,4.328-4.293,2.762,2.762,0,0,0-.183-3.253,2.866,2.866,0,0,0-2.725-.956,3.27,3.27,0,0,0-.461-2.827,3.1,3.1,0,0,0-2.212-1.145c3.284-4.173,8.725-13.4,8.373-16.047a1.135,1.135,0,0,0-.785-.981c-1.226-.371-2.907,1.356-9,8.318-2.821,3.223-5.737,6.555-7.791,8.413a.865.865,0,0,0-.261.835,4.333,4.333,0,0,0-3.488-.193c-2.585,1.45-5.51,12.361-4.325,18.009-7.966,9.628-21.289,25.245-21.424,25.4a.869.869,0,1,0,1.322,1.128c.137-.16,13.775-16.147,21.715-25.755.013-.016.022-.034.034-.051a.873.873,0,0,0,.054-.08.77.77,0,0,0,.036-.077.789.789,0,0,0,.032-.077.838.838,0,0,0,.02-.083.771.771,0,0,0,.016-.081.836.836,0,0,0,0-.086.807.807,0,0,0,0-.082.891.891,0,0,0-.015-.1c0-.019,0-.039-.009-.058-1.432-5.445,1.991-15.71,3.393-16.5.925-.518,4.382,1.245,7.03,3.219.021.016.044.031.066.045a7.688,7.688,0,0,1,1.807,1.473l-.016,0c-1.74.462-4.674-.474-5.659-.873a.87.87,0,0,0-1.2.783c-.032,1.209-.443,4.643-1.95,5.99a.869.869,0,0,0,1.158,1.295c1.691-1.511,2.253-4.433,2.439-6.068a11.326,11.326,0,0,0,5.652.552c1.045-.277,1.343-.87,1.408-1.318.19-1.306-1.6-2.621-2.7-3.3a28.318,28.318,0,0,0-4.117-2.565.883.883,0,0,0,.145-.106c2.128-1.926,5.079-5.3,7.932-8.557,2.192-2.5,5.025-5.74,6.562-7.125-1.023,3.269-5.688,11.32-8.614,14.569a.863.863,0,0,0-.216.663,8.207,8.207,0,0,0-1.364.935.869.869,0,1,0,1.108,1.338,4.416,4.416,0,0,1,1.923-1.058,1.6,1.6,0,0,1,1.54.444,1.693,1.693,0,0,1,.066,1.623,6.843,6.843,0,0,1-1.351,1.85.869.869,0,0,0,1.284,1.171c.3-.33.621-.682.916-1.071a.86.86,0,0,0,.722.039,1.341,1.341,0,0,1,1.594.225,1.017,1.017,0,0,1,.052,1.213c-.975,1.539-4.143,4.315-5.092,4.492a2,2,0,0,1-.36-1.436.869.869,0,0,0-.74-.981c-.02,0-.04,0-.06,0a.778.778,0,0,0-.052-.061.869.869,0,0,0-1.228.021,1.414,1.414,0,0,1-1.981-.107.869.869,0,0,0-1.372,1.065,3.03,3.03,0,0,0,2.247,1.128c.061,0,.122.005.182.005a3.158,3.158,0,0,0,1.285-.271,2.983,2.983,0,0,0,1.192,2.149,1.407,1.407,0,0,0,.807.236,1.948,1.948,0,0,0,.4-.042,2.986,2.986,0,0,0,.488-.156,2.6,2.6,0,0,0-.092,1.921,1.541,1.541,0,0,0,1.069.868,1.756,1.756,0,0,0,.426.047c1.868,0,5.574-2.156,6.591-3.483a2.906,2.906,0,0,0,.46-2.894" transform="translate(-525.435 -667.626)"/>
        <path id="Trazado_876890" data-name="Trazado 876890" d="M582.755,1012.787c-3.342,2.733-7.6,3.679-10.838,2.407a.869.869,0,0,0-.634,1.618c.179.07.364.124.547.183a.861.861,0,0,0-.409.433c-3.626,8.579-14.748,26.116-18.933,31.622-3.13,4.118-9.588,7.328-12.658,7.729a2.154,2.154,0,0,1-1.31-.082c-1.1-.858-1.951-5.1-2.2-7.834a.869.869,0,0,0-1.73.157c.635,6.985,2.5,8.763,2.864,9.048a2.77,2.77,0,0,0,1.75.494,6.579,6.579,0,0,0,.851-.06c3.895-.509,10.631-4.209,13.817-8.4,4.228-5.564,15.476-23.3,19.15-32a.868.868,0,0,0-.077-.819,10.714,10.714,0,0,0,2.041.2,14.289,14.289,0,0,0,8.869-3.351.869.869,0,0,0-1.1-1.345" transform="translate(-460.831 -872.887)"/>
        <path id="Trazado_876891" data-name="Trazado 876891" d="M593.545,682.9a.869.869,0,0,0-.008,1.229l2.245,2.277a18.046,18.046,0,0,1-1.947,1.285.869.869,0,1,0,.861,1.509,19.8,19.8,0,0,0,2.941-2.053.869.869,0,0,0,.059-1.274l-2.923-2.963a.869.869,0,0,0-1.229-.008" transform="translate(-511.432 -588.468)"/>
        <path id="Trazado_876892" data-name="Trazado 876892" d="M129.019,444a.858.858,0,0,0,.193-.022,13.5,13.5,0,0,0,10.282-12.708,25.55,25.55,0,0,0-.383-4.089,20.405,20.405,0,0,1-.34-4.382,9.764,9.764,0,0,1,12.643-8.657l.03.006a51.038,51.038,0,0,1,2.581,5.26.869.869,0,0,0,1.6-.675,60.887,60.887,0,0,0-5.051-9.378c-2.467-3.912-4.1-6.5-3.735-11.684.246-3.53,2.862-7.92,6.51-10.924,3.044-2.507,6.3-3.69,9.163-3.336a.869.869,0,1,0,.214-1.724c-3.344-.416-7.065.906-10.481,3.719-4.056,3.34-6.858,8.107-7.139,12.145-.4,5.754,1.445,8.681,4,12.731.367.583.747,1.185,1.135,1.819a11.491,11.491,0,0,0-13.2,10.58,22.046,22.046,0,0,0,.355,4.756,23.915,23.915,0,0,1,.365,3.811,11.881,11.881,0,0,1-8.929,11.035.869.869,0,0,0,.191,1.716" transform="translate(-110.47 -328.961)"/>
        <path id="Trazado_876893" data-name="Trazado 876893" d="M352.022,478.668a.869.869,0,1,0,1.375-1.062c-3.512-4.543-.794-7.949.83-9.984l.12-.15a.869.869,0,0,0-.139-1.221.857.857,0,0,0-.169-.1,40.332,40.332,0,0,0,11.711-5.72c7.284-4.984,12.909-11.386,15.434-17.564a.936.936,0,0,0-1.734-.708c-5.068,12.4-23.348,24.274-31.45,22.664-2.3-.458-3.413-2-3.4-4.7a.937.937,0,0,0-.932-.941h0a.937.937,0,0,0-.936.932c-.018,3.591,1.725,5.918,4.906,6.551a9.638,9.638,0,0,0,1.877.172,16.15,16.15,0,0,0,3.457-.417l-.1.126c-1.554,1.947-5.194,6.508-.847,12.131" transform="translate(-295.443 -380.65)"/>
        <path id="Trazado_876894" data-name="Trazado 876894" d="M422.806,465.589a.864.864,0,0,0,.388-.092,35.663,35.663,0,0,0,12.591-10.551.869.869,0,1,0-1.394-1.037,33.915,33.915,0,0,1-11.974,10.034.869.869,0,0,0,.389,1.646" transform="translate(-363.723 -390.983)"/>
        <path id="Trazado_876895" data-name="Trazado 876895" d="M380.209,441.913a.868.868,0,0,0,1.223.114A39.364,39.364,0,0,0,391.646,429a.869.869,0,0,0-1.563-.758,37.611,37.611,0,0,1-9.76,12.446.869.869,0,0,0-.114,1.223" transform="translate(-327.58 -368.738)"/>
        <path id="Trazado_876896" data-name="Trazado 876896" d="M449.41,882.537a.869.869,0,0,0-1.735-.095,26.727,26.727,0,0,1-.959,3.905c-.73,2.536-1.485,5.158-1.325,6.556a.869.869,0,0,0,.862.77.957.957,0,0,0,.1-.006.869.869,0,0,0,.764-.962c-.121-1.053.65-3.729,1.268-5.878a25.32,25.32,0,0,0,1.025-4.291" transform="translate(-383.923 -759.985)"/>
        <path id="Trazado_876897" data-name="Trazado 876897" d="M22.349,709.7c.207-.1.414-.2.624-.307,3.149-1.559,7.069-3.5,21.543-2.056a.864.864,0,0,0,.871-.491c3.058-6.418,4.052-11.868,5.858-21.761l.056-.307a5.282,5.282,0,0,0,1,.633,4.2,4.2,0,0,0,1.824.427,4.473,4.473,0,0,0,2.159-.583.869.869,0,0,0-.835-1.524,2.478,2.478,0,0,1-2.4.113c-1.48-.708-2.814-2.889-3.246-5.3a2.3,2.3,0,0,1,1.21-2.681,1.143,1.143,0,0,1,1.4.238.869.869,0,0,0,1.4-1.024,2.833,2.833,0,0,0-3.488-.812,4.028,4.028,0,0,0-2.238,4.585,11.074,11.074,0,0,0,1.767,4.372.858.858,0,0,0-.079.228l-.242,1.327c-1.726,9.457-2.7,14.793-5.459,20.775C29.6,704.167,25.5,706.2,22.2,707.833c-.206.1-.408.2-.61.3C14.053,711.781.148,765.158.024,765.69a.869.869,0,1,0,1.691.4C4.15,755.725,16.7,712.431,22.349,709.7" transform="translate(0 -580.998)"/>
        <path id="Trazado_876898" data-name="Trazado 876898" d="M266.984,968.286a.869.869,0,0,0-1.363-1.077c-3.887,4.92-11.359,7.507-19.988,6.918-4.511-.307-8.445-2.719-12.61-5.272a54.645,54.645,0,0,0-7.523-4.087.869.869,0,0,0-.663,1.606,53.387,53.387,0,0,1,7.278,3.962c4.161,2.55,8.463,5.187,13.4,5.523q1.268.087,2.5.086c8.14,0,15.113-2.783,18.966-7.66" transform="translate(-193.353 -831.605)"/>
        <path id="Trazado_876899" data-name="Trazado 876899" d="M108.305,677.326a13.237,13.237,0,0,0,2.372-.212A14.568,14.568,0,0,0,122.309,664.1a27.468,27.468,0,0,0-.574-6.477c-.168-.991-.342-2.016-.455-3.016-.284-2.52-.188-5.982,1.881-8.17a.869.869,0,1,0-1.263-1.194c-2,2.115-2.81,5.42-2.345,9.558.118,1.048.3,2.1.468,3.112a25.76,25.76,0,0,1,.553,6.068,12.473,12.473,0,0,1-23.788,4.332.869.869,0,0,0-1.58.723,14.636,14.636,0,0,0,13.1,8.285" transform="translate(-82.003 -555.991)"/>
        <path id="Trazado_876900" data-name="Trazado 876900" d="M447.531,620.288c1.985-2.869,4.646-23.743,5.166-30.139a.869.869,0,1,0-1.732-.141c-.676,8.307-3.354,27.109-4.864,29.291-2.075,3-11.439,12.013-14.61,11.311-3.7-.823-15.6-8.291-18.233-14.2a.869.869,0,1,0-1.587.708c3,6.712,15.48,14.305,19.443,15.186a3.24,3.24,0,0,0,.7.074c2.019,0,4.93-1.623,8.671-4.839a51.38,51.38,0,0,0,7.04-7.254" transform="translate(-354.81 -507.919)"/>
        <path id="Trazado_876901" data-name="Trazado 876901" d="M617.143,493.054a19.367,19.367,0,0,1-5.209-4.408c-1.653-2.015-2.387-3.9-2.065-5.318a.869.869,0,1,0-1.694-.386c-1.023,4.49,4.79,9.792,8.129,11.633a9.743,9.743,0,0,0,4.7,1.171,10.174,10.174,0,0,0,7.163-2.862.869.869,0,1,0-1.231-1.226,8.478,8.478,0,0,1-9.8,1.4" transform="translate(-524.164 -415.73)"/>
        <path id="Trazado_876902" data-name="Trazado 876902" d="M400.069,330.829a.868.868,0,0,0,1.218-.159c1.5-1.949,17.077-6.427,28.633-2.113,8.637,3.224,12.691,10.391,12.049,21.3a.869.869,0,0,0,.816.918l.052,0a.869.869,0,0,0,.866-.818c.476-8.085-1.423-18.644-13.176-23.031-12.2-4.557-28.551,0-30.618,2.682a.869.869,0,0,0,.159,1.218" transform="translate(-344.58 -280.153)"/>
        <path id="Trazado_876903" data-name="Trazado 876903" d="M522.724,597.014c-.692-.019-2.67-.268-3.508-1.171a.869.869,0,1,0-1.274,1.181c1.483,1.6,4.408,1.718,4.737,1.727h.022a.869.869,0,0,0,.023-1.737" transform="translate(-446.283 -513.397)"/>
        <path id="Trazado_876904" data-name="Trazado 876904" d="M630.044,591.838a.872.872,0,0,0,.234-.032c.317-.088,3.123-.919,4.17-2.832a.869.869,0,1,0-1.524-.835c-.592,1.081-2.449,1.806-3.114,1.993a.869.869,0,0,0,.233,1.706" transform="translate(-542.369 -506.606)"/>
        <path id="Trazado_876905" data-name="Trazado 876905" d="M486.179,967.593a.869.869,0,1,0,1.677.455c1.143-4.211,3.079-16.6,3.862-22.291.855-6.218-8.115-9.918-16.789-13.495-2-.827-4.076-1.681-5.977-2.546a.869.869,0,1,0-.719,1.581c1.93.878,4.016,1.739,6.034,2.571,8.064,3.325,16.4,6.764,15.73,11.652-.777,5.656-2.7,17.937-3.817,22.072" transform="translate(-403.191 -801.378)"/>
        <path id="Trazado_876906" data-name="Trazado 876906" d="M484.911,1108.105a.869.869,0,1,0-1.68.442c2.165,8.226,1.218,14.446-3.268,21.468-4.889,7.652-5.784,12.354-5.82,12.551a.869.869,0,0,0,1.709.313c.008-.045.894-4.6,5.575-11.928,4.777-7.477,5.787-14.1,3.484-22.845" transform="translate(-408.714 -954.665)"/>
        <path id="Trazado_876907" data-name="Trazado 876907" d="M116.574,1142.712a.87.87,0,0,0-1.151.43c-4.377,9.587-12.78,27.029-12.864,27.2a.869.869,0,1,0,1.565.755c.084-.175,8.5-17.634,12.88-27.237a.869.869,0,0,0-.429-1.151" transform="translate(-88.335 -984.988)"/>
        <path id="Trazado_876908" data-name="Trazado 876908" d="M522.533,642.943a17.121,17.121,0,0,0-3.872-.759.748.748,0,0,0-.767.987,26.284,26.284,0,0,0,2.041,4.536.749.749,0,0,0,.549.371.738.738,0,0,0,.1.007.749.749,0,0,0,.527-.217,11.7,11.7,0,0,0,2.712-4.2.749.749,0,0,0-1.292-.722m-1.791,3.112c-.376-.729-.716-1.478-1.018-2.242a15.653,15.653,0,0,1,2.174.5,10.246,10.246,0,0,1-1.157,1.742" transform="translate(-446.407 -553.582)"/>
        <path id="Trazado_876909" data-name="Trazado 876909" d="M619.973,636.494a.748.748,0,0,0,.064.707,26.3,26.3,0,0,0,3.124,3.871.749.749,0,0,0,.535.225.78.78,0,0,0,.09-.005.748.748,0,0,0,.555-.362,11.7,11.7,0,0,0,1.558-4.754.749.749,0,0,0-1.432-.37,17.141,17.141,0,0,0-3.938.247.748.748,0,0,0-.555.442m4.227.8a10.238,10.238,0,0,1-.677,1.979q-.822-.915-1.552-1.91a15.823,15.823,0,0,1,2.23-.068" transform="translate(-534.385 -547.695)"/>
        <path id="Trazado_876910" data-name="Trazado 876910" d="M505.2,745.222a4.647,4.647,0,0,1,3.625.025,15.464,15.464,0,0,1,8.086,5.824.825.825,0,0,0,.678.354.757.757,0,0,0,.094-.006.825.825,0,0,0,.673-.515,14.832,14.832,0,0,0,1.035-4.665.826.826,0,0,0-1.649-.091,13.055,13.055,0,0,1-.445,2.726,17.315,17.315,0,0,0-7.979-5.2,6.164,6.164,0,0,0-4.929.113c-1.554.877-2.369,2.766-2.219,5.094a.821.821,0,0,0,.019.245c0,.04.005.079.01.119a.827.827,0,0,0,.908.735.818.818,0,0,0,.376-.142,51.864,51.864,0,0,1,10.957,2.756.826.826,0,0,0,.577-1.547,53.469,53.469,0,0,0-11.208-2.83,3.392,3.392,0,0,1,1.393-2.993" transform="translate(-432.867 -640.684)"/>
        <path id="Trazado_876911" data-name="Trazado 876911" d="M440.28,619.244a.476.476,0,0,0-.476.476,1.789,1.789,0,0,1-1.787,1.787.476.476,0,1,0,0,.952,2.742,2.742,0,0,0,2.739-2.739.476.476,0,0,0-.476-.476" transform="translate(-377.175 -533.809)"/>
        <path id="Trazado_876912" data-name="Trazado 876912" d="M467.658,621.507a1.789,1.789,0,0,1-1.787-1.787.476.476,0,1,0-.952,0,2.742,2.742,0,0,0,2.739,2.739.476.476,0,0,0,0-.952" transform="translate(-400.775 -533.809)"/>
        <path id="Trazado_876913" data-name="Trazado 876913" d="M438.017,644.988a.476.476,0,0,0,0,.952,1.789,1.789,0,0,1,1.787,1.787.476.476,0,1,0,.952,0,2.742,2.742,0,0,0-2.739-2.739" transform="translate(-377.175 -556.001)"/>
        <path id="Trazado_876914" data-name="Trazado 876914" d="M467.658,644.988a2.742,2.742,0,0,0-2.739,2.739.476.476,0,1,0,.952,0,1.789,1.789,0,0,1,1.787-1.787.476.476,0,0,0,0-.952" transform="translate(-400.775 -556.001)"/>
        <path id="Trazado_876915" data-name="Trazado 876915" d="M677.53,140.1a.868.868,0,0,0-1.164.392l-5.68,11.441a.869.869,0,1,0,1.556.773l5.68-11.441a.869.869,0,0,0-.392-1.165" transform="translate(-578.074 -120.696)"/>
        <path id="Trazado_876916" data-name="Trazado 876916" d="M632.059,119.671a.868.868,0,0,0-1.168.382l-6.485,12.786a.869.869,0,1,0,1.55.786l6.485-12.786a.868.868,0,0,0-.382-1.168" transform="translate(-538.178 -103.08)"/>
        <path id="Trazado_876917" data-name="Trazado 876917" d="M613.62,21.112a6.478,6.478,0,0,0-4.3-3.124,7.073,7.073,0,0,0,1.941-5.334,6.93,6.93,0,0,0-11.615-4.586,11.125,11.125,0,0,0-.351-3.2c-.606-2.209-2.509-4.67-5.258-4.852-2.921-.2-5.228,2.237-6,4.737a12.4,12.4,0,0,0-.385,4.719q-.111-.057-.227-.109a4.686,4.686,0,0,0-3.764-.045,5.786,5.786,0,0,0-3.158,5.688,8.637,8.637,0,0,0,2.961,5.642.869.869,0,0,0,1.177-1.279,6.92,6.92,0,0,1-2.4-4.484,4.08,4.08,0,0,1,2.134-3.981,2.919,2.919,0,0,1,2.346.046,2.286,2.286,0,0,1,1.3,1.354.869.869,0,0,0,1.687-.391c-.311-2.124-.664-4.532-.01-6.646.558-1.8,2.224-3.65,4.227-3.516,1.9.126,3.249,1.943,3.7,3.578a15.455,15.455,0,0,1-.071,6.158.869.869,0,0,0,1.7.351,5.24,5.24,0,0,1,10.282.954,5.469,5.469,0,0,1-3.2,5.234,5.749,5.749,0,0,0-.868.3.869.869,0,0,0,.563,1.638,6.494,6.494,0,0,0,.86-.284,4.894,4.894,0,0,1,5.212,2.266,4.64,4.64,0,0,1-7.708,5.108.869.869,0,0,0-1.36,1.081,6.511,6.511,0,0,0,5.082,2.348,6.207,6.207,0,0,0,3.435-1,6.584,6.584,0,0,0,2.077-8.369" transform="translate(-500.395 -0.004)"/>
        <path id="Trazado_876918" data-name="Trazado 876918" d="M185.892,213.882a.869.869,0,1,0-1.254,1.2l8.839,9.222a.869.869,0,1,0,1.254-1.2Z" transform="translate(-158.955 -184.143)"/>
        <path id="Trazado_876919" data-name="Trazado 876919" d="M152.966,245.019a.869.869,0,1,0-1.264,1.191l9.832,10.434a.869.869,0,1,0,1.264-1.191Z" transform="translate(-130.568 -210.98)"/>
        <path id="Trazado_876920" data-name="Trazado 876920" d="M70.878,124.972a6.58,6.58,0,0,0-7.17-4.79,6.478,6.478,0,0,0-4.4,2.99A6.93,6.93,0,0,0,46.7,128.911a11.11,11.11,0,0,0-3.13-.755c-2.284-.177-5.244.778-6.347,3.3-1.171,2.68.332,5.677,2.422,7.252a12.4,12.4,0,0,0,4.309,1.961c-.061.057-.12.116-.179.177a4.682,4.682,0,0,0-1.318,3.526,5.785,5.785,0,0,0,4.281,4.9,7.175,7.175,0,0,0,1.96.266,9.463,9.463,0,0,0,4.351-1.139.869.869,0,0,0-.8-1.54,6.922,6.922,0,0,1-5.033.742,4.081,4.081,0,0,1-3.023-3.357,2.922,2.922,0,0,1,.838-2.191,2.307,2.307,0,0,1,1.715-.767.869.869,0,0,0,.2-1.72c-2.1-.428-4.49-.912-6.256-2.243-1.508-1.137-2.677-3.335-1.876-5.169.763-1.745,2.93-2.4,4.619-2.266a15.455,15.455,0,0,1,5.77,2.154.869.869,0,0,0,.906-1.479A5.238,5.238,0,1,1,58.331,126a5.763,5.763,0,0,0-.012.918.869.869,0,0,0,.854.81h.013a.869.869,0,0,0,.865-.785,6.493,6.493,0,0,0,.024-.905,4.636,4.636,0,1,1,6.092,4.847.869.869,0,1,0,.556,1.646,6.584,6.584,0,0,0,4.156-7.556" transform="translate(-31.733 -102.846)"/>
      </g>
    </g>
  </g>
</svg>
