<svg id="Grupo_1100190" data-name="Grupo 1100190" xmlns="http://www.w3.org/2000/svg" xmlns:xlink="http://www.w3.org/1999/xlink" width="293.5" height="292.902" viewBox="0 0 293.5 292.902">
  <defs>
    <clipPath id="clip-path">
      <rect id="Rectángulo_401912" data-name="Rectángulo 401912" width="293.5" height="292.902" fill="none"/>
    </clipPath>
    <clipPath id="clip-path-3">
      <rect id="Rectángulo_401905" data-name="Rectángulo 401905" width="293.5" height="260.601" fill="none"/>
    </clipPath>
    <clipPath id="clip-path-4">
      <rect id="Rectángulo_401906" data-name="Rectángulo 401906" width="283.6" height="263.758" fill="#95dbb3"/>
    </clipPath>
    <clipPath id="clip-path-6">
      <rect id="Rectángulo_401908" data-name="Rectángulo 401908" width="178.576" height="174.143" fill="none"/>
    </clipPath>
    <clipPath id="clip-path-7">
      <rect id="Rectángulo_401909" data-name="Rectángulo 401909" width="10.645" height="14.383" fill="none"/>
    </clipPath>
    <clipPath id="clip-path-8">
      <rect id="Rectángulo_401910" data-name="Rectángulo 401910" width="74.071" height="53.435" fill="none"/>
    </clipPath>
  </defs>
  <g id="Grupo_1100189" data-name="Grupo 1100189" clip-path="url(#clip-path)">
    <g id="Grupo_1100177" data-name="Grupo 1100177">
      <g id="Grupo_1100176" data-name="Grupo 1100176" clip-path="url(#clip-path)">
        <g id="Grupo_1100172" data-name="Grupo 1100172" opacity="0.3">
          <g id="Grupo_1100171" data-name="Grupo 1100171">
            <g id="Grupo_1100170" data-name="Grupo 1100170" clip-path="url(#clip-path-3)">
              <path id="Trazado_877446" data-name="Trazado 877446" d="M73.2,256.332c13.548-.149,26.583-4.664,39.891-7.12a132.553,132.553,0,0,1,48.354.078c16.878,3.171,33.117,9.633,50.257,10.94,28.633,2.184,51.548-11.438,67.707-34.4s18.487-54.379,5.879-79.336C281,138,275.15,130.272,271.31,121.577c-12.593-28.521,8.427-74.512-10.834-99.308C249.977,8.754,232.319,1.625,214.87.608s-34.782,7.269-51.081,13.376c-15.72,5.889-36.764,19.42-53.264,16.079C99.038,27.736,89.339,20.354,78.2,16.778,54.5,9.166,27.019,20.986,13.143,41.07s-15.5,46.453-8.8,69.723C8.371,124.78,15.234,138.34,15.276,152.86c.027,9.53-2.91,18.8-4.5,28.209C4.637,217.533,33.357,256.771,73.2,256.332Z" transform="translate(-0.19 -0.19)" fill="none" stroke="#2c54ac" stroke-miterlimit="10" stroke-width="1.045" stroke-dasharray="4.317 4.317"/>
            </g>
          </g>
        </g>
        <g id="Grupo_1100175" data-name="Grupo 1100175" transform="translate(2.911 4.087)" opacity="0.3">
          <g id="Grupo_1100174" data-name="Grupo 1100174">
            <g id="Grupo_1100173" data-name="Grupo 1100173" clip-path="url(#clip-path-4)">
              <path id="Trazado_877447" data-name="Trazado 877447" d="M59.2,247.989c13.456,1.532,26.982-1.329,40.506-2.114a132.34,132.34,0,0,1,47.945,6.075c16.318,5.238,31.566,13.661,48.391,17.083,28.107,5.716,52.586-10.6,71.657-31.371s25.545-51.638,16.35-77.952c-3.13-8.957-7.907-17.345-10.562-26.444-8.708-29.847,16.422-60.816,3.439-89.327-7.065-15.513-21.681-25.655-38.851-28.828s-40.675-.887-57.65,3.147c-16.371,3.891-38.287,15.318-54.208,9.959C115.137,24.485,106.5,15.961,95.925,11.033,73.425.544,44.608,8.859,28.182,27.056S6.65,71.2,10.21,95.112c2.14,14.371,7.149,28.671,5.265,43.075-1.236,9.455-5.38,18.288-8.2,27.42-10.929,35.4,12.352,77.877,51.927,82.383" transform="translate(-4.579 -6.429)" fill="#95dbb3"/>
            </g>
          </g>
        </g>
      </g>
    </g>
    <g id="Grupo_1100188" data-name="Grupo 1100188">
      <g id="Grupo_1100187" data-name="Grupo 1100187" clip-path="url(#clip-path)">
        <path id="Trazado_877448" data-name="Trazado 877448" d="M135.6,62.8a50.52,50.52,0,1,1-50.52-50.52A50.52,50.52,0,0,1,135.6,62.8" transform="translate(-12.59 -4.474)" fill="#35a064"/>
        <ellipse id="Elipse_11582" data-name="Elipse 11582" cx="55.153" cy="50.52" rx="55.153" ry="50.52" transform="translate(17.164 7.808)" fill="none" stroke="#2c54ac" stroke-miterlimit="10" stroke-width="1"/>
        <path id="Trazado_877449" data-name="Trazado 877449" d="M83.184,158.423l12.643,24.354.348-26.533Z" transform="translate(-30.302 -56.915)" fill="#35a064"/>
        <path id="Trazado_877450" data-name="Trazado 877450" d="M98.477,87.815l-.851-5a23.053,23.053,0,0,1-.16-8.084,19.4,19.4,0,0,1,2.1-5.942,43.5,43.5,0,0,1,3.039-4.694,57.219,57.219,0,0,0,3.737-5.443,9.155,9.155,0,0,0,.948-6.426,5.835,5.835,0,0,0-1.632-3.317,7.77,7.77,0,0,0-2.879-1.793,6.064,6.064,0,0,0-3.017-.313A7.965,7.965,0,0,0,95.4,48.853a10.48,10.48,0,0,0-2.467,3.77,28.563,28.563,0,0,0-1.324,4.5l-2.571.437-9.152-3.69a29.907,29.907,0,0,1,1.245-4.68,23.815,23.815,0,0,1,3.114-5.969A21.953,21.953,0,0,1,90,37.677a22.774,22.774,0,0,1,9.089-3.39,24.7,24.7,0,0,1,9.989.2,15.49,15.49,0,0,1,7.807,4.5q3.2,3.39,4.258,9.621a21.331,21.331,0,0,1,.011,8.643,19.474,19.474,0,0,1-2.57,6.022q-1.7,2.572-3.408,5.1a34.434,34.434,0,0,0-2.466,4.062,15.678,15.678,0,0,0-1.551,4.877,19.8,19.8,0,0,0,.193,6.28l.337,1.983Zm9.994,18.8a8.432,8.432,0,0,1-5.882-.894,6.143,6.143,0,0,1-3-4.493,6.412,6.412,0,0,1,1.385-5.286,8.092,8.092,0,0,1,5.186-2.921,7.749,7.749,0,0,1,5.765,1.06,6.539,6.539,0,0,1,2.959,4.549,6.273,6.273,0,0,1-1.25,5.215,8.065,8.065,0,0,1-5.163,2.771" transform="translate(-29.1 -12.339)" fill="#55a3f3"/>
        <path id="Trazado_877451" data-name="Trazado 877451" d="M94.432,88.5l-.85-5a23.04,23.04,0,0,1-.16-8.084,19.4,19.4,0,0,1,2.1-5.942,43.6,43.6,0,0,1,3.039-4.694,57.034,57.034,0,0,0,3.737-5.443,9.155,9.155,0,0,0,.948-6.426,5.832,5.832,0,0,0-1.633-3.317A7.76,7.76,0,0,0,98.733,47.8a6.062,6.062,0,0,0-3.016-.313,7.965,7.965,0,0,0-4.362,2.053,10.48,10.48,0,0,0-2.467,3.771,28.574,28.574,0,0,0-1.324,4.5L75.841,54.556a29.907,29.907,0,0,1,1.245-4.68A23.815,23.815,0,0,1,80.2,43.908a21.963,21.963,0,0,1,5.76-5.544,22.771,22.771,0,0,1,9.088-3.39,24.7,24.7,0,0,1,9.99.2,15.5,15.5,0,0,1,7.807,4.5q3.2,3.39,4.258,9.621a21.331,21.331,0,0,1,.011,8.643,19.474,19.474,0,0,1-2.57,6.022q-1.7,2.572-3.408,5.1a34.575,34.575,0,0,0-2.467,4.062,15.678,15.678,0,0,0-1.551,4.877,19.8,19.8,0,0,0,.193,6.281l.337,1.982Zm9.994,18.8a8.434,8.434,0,0,1-5.883-.894,6.144,6.144,0,0,1-3-4.493,6.412,6.412,0,0,1,1.385-5.286,8.092,8.092,0,0,1,5.186-2.921,7.751,7.751,0,0,1,5.765,1.06,6.541,6.541,0,0,1,2.958,4.549,6.273,6.273,0,0,1-1.25,5.215,8.065,8.065,0,0,1-5.163,2.771" transform="translate(-27.627 -12.59)" fill="#fff"/>
        <g id="Grupo_1100180" data-name="Grupo 1100180" transform="translate(14.437 7.364)" opacity="0.4" style="mix-blend-mode: multiply;isolation: isolate">
          <g id="Grupo_1100179" data-name="Grupo 1100179">
            <g id="Grupo_1100178" data-name="Grupo 1100178" clip-path="url(#clip-path-6)">
              <path id="Trazado_877452" data-name="Trazado 877452" d="M35.641,258.008l-1.019-2.223a11.108,11.108,0,0,1-1.081-3.744,9.347,9.347,0,0,1,.237-3.027,20.962,20.962,0,0,1,.83-2.564,27.514,27.514,0,0,0,1.062-3,4.414,4.414,0,0,0-.359-3.11A2.81,2.81,0,0,0,34.138,239a3.743,3.743,0,0,0-1.564-.477,2.919,2.919,0,0,0-1.443.23,3.836,3.836,0,0,0-1.776,1.5,5.054,5.054,0,0,0-.679,2.063,13.733,13.733,0,0,0-.056,2.259l-5.863-.055a14.432,14.432,0,0,1,0-2.334,11.49,11.49,0,0,1,.706-3.167,10.6,10.6,0,0,1,1.991-3.3,10.981,10.981,0,0,1,3.81-2.711,11.885,11.885,0,0,1,4.676-1.153,7.462,7.462,0,0,1,4.2,1.123,8.716,8.716,0,0,1,3.181,3.949,10.293,10.293,0,0,1,1.082,4.023,9.392,9.392,0,0,1-.447,3.124q-.471,1.409-.952,2.8a16.582,16.582,0,0,0-.642,2.2,7.574,7.574,0,0,0-.115,2.464,9.561,9.561,0,0,0,.873,2.9l.4.881Zm6.994,7.507a4.066,4.066,0,0,1-2.851.317,2.959,2.959,0,0,1-1.955-1.719,3.088,3.088,0,0,1-.014-2.633,3.9,3.9,0,0,1,2.05-2.006,3.739,3.739,0,0,1,2.817-.224A3.15,3.15,0,0,1,44.626,261a3.023,3.023,0,0,1,.067,2.584,3.886,3.886,0,0,1-2.058,1.933" transform="translate(-22.709 -91.822)" fill="#55a3f3"/>
              <path id="Trazado_877453" data-name="Trazado 877453" d="M252.61,36.158l.364-2.419a11.109,11.109,0,0,1,1.145-3.725,9.338,9.338,0,0,1,1.856-2.4,20.883,20.883,0,0,1,2.1-1.69A27.573,27.573,0,0,0,260.6,23.99a4.413,4.413,0,0,0,1.4-2.8,2.813,2.813,0,0,0-.248-1.764,3.747,3.747,0,0,0-1.048-1.255,2.919,2.919,0,0,0-1.333-.6,3.842,3.842,0,0,0-2.306.282,5.051,5.051,0,0,0-1.7,1.355,13.722,13.722,0,0,0-1.284,1.86l-4.877-3.256a14.431,14.431,0,0,1,1.275-1.955,11.452,11.452,0,0,1,2.325-2.263,10.572,10.572,0,0,1,3.472-1.671,10.982,10.982,0,0,1,4.672-.183,11.912,11.912,0,0,1,4.544,1.6,7.47,7.47,0,0,1,2.9,3.237,8.72,8.72,0,0,1,.5,5.046,10.272,10.272,0,0,1-1.3,3.959,9.37,9.37,0,0,1-2.084,2.369q-1.166.922-2.328,1.82a16.669,16.669,0,0,0-1.741,1.488,7.571,7.571,0,0,0-1.444,2,9.533,9.533,0,0,0-.858,2.9l-.144.959Zm1.743,10.111a4.066,4.066,0,0,1-2.559-1.3,2.963,2.963,0,0,1-.7-2.509,3.091,3.091,0,0,1,1.43-2.212,3.9,3.9,0,0,1,2.814-.556,3.739,3.739,0,0,1,2.48,1.354,3.151,3.151,0,0,1,.669,2.528,3.023,3.023,0,0,1-1.358,2.2,3.888,3.888,0,0,1-2.781.491" transform="translate(-105.218 -11.583)" fill="#55a3f3"/>
              <path id="Trazado_877454" data-name="Trazado 877454" d="M216.678,81.7l-.367-1.95a9.011,9.011,0,0,1-.118-3.16,7.581,7.581,0,0,1,.779-2.338,17.02,17.02,0,0,1,1.156-1.857,22.272,22.272,0,0,0,1.423-2.154,3.583,3.583,0,0,0,.326-2.519,2.284,2.284,0,0,0-.661-1.286,3.037,3.037,0,0,0-1.139-.681,2.367,2.367,0,0,0-1.181-.1,3.116,3.116,0,0,0-1.692.833,4.088,4.088,0,0,0-.938,1.491,11.1,11.1,0,0,0-.486,1.768l-4.606-1.19a11.61,11.61,0,0,1,.454-1.839,9.293,9.293,0,0,1,1.176-2.355,8.583,8.583,0,0,1,2.214-2.209,8.9,8.9,0,0,1,3.53-1.388,9.648,9.648,0,0,1,3.908.007,6.059,6.059,0,0,1,3.084,1.706,7.079,7.079,0,0,1,1.732,3.732,8.341,8.341,0,0,1,.065,3.38,7.607,7.607,0,0,1-.963,2.373q-.647,1.018-1.3,2.017a13.481,13.481,0,0,0-.936,1.606,6.129,6.129,0,0,0-.573,1.918,7.749,7.749,0,0,0,.12,2.455l.146.772Zm4.039,7.28a3.3,3.3,0,0,1-2.306-.309,2.4,2.4,0,0,1-1.2-1.736,2.51,2.51,0,0,1,.5-2.077,3.169,3.169,0,0,1,2.008-1.179,3.033,3.033,0,0,1,2.262.374,2.558,2.558,0,0,1,1.188,1.758,2.453,2.453,0,0,1-.453,2.048,3.157,3.157,0,0,1-2,1.12" transform="translate(-90.633 -29.429)" fill="#55a3f3"/>
              <path id="Trazado_877455" data-name="Trazado 877455" d="M285.921,85.359l.355-1.422a6.647,6.647,0,0,1,.9-2.157,5.6,5.6,0,0,1,1.244-1.328,12.528,12.528,0,0,1,1.348-.889,16.522,16.522,0,0,0,1.62-1.006,2.645,2.645,0,0,0,1-1.59,1.683,1.683,0,0,0-.047-1.067,2.241,2.241,0,0,0-.554-.808,1.745,1.745,0,0,0-.761-.432,2.3,2.3,0,0,0-1.392.037,3.031,3.031,0,0,0-1.09.711,8.267,8.267,0,0,0-.872,1.036l-2.723-2.219a8.554,8.554,0,0,1,.872-1.093,6.88,6.88,0,0,1,1.516-1.218,6.339,6.339,0,0,1,2.166-.8,6.577,6.577,0,0,1,2.8.156,7.143,7.143,0,0,1,2.62,1.21,4.479,4.479,0,0,1,1.544,2.1,5.231,5.231,0,0,1,.011,3.039,6.159,6.159,0,0,1-1,2.287,5.607,5.607,0,0,1-1.378,1.295q-.748.483-1.492.953a9.957,9.957,0,0,0-1.123.788,4.525,4.525,0,0,0-.976,1.111,5.709,5.709,0,0,0-.677,1.684l-.141.563Zm.464,6.131a2.437,2.437,0,0,1-1.453-.919,1.773,1.773,0,0,1-.271-1.536,1.847,1.847,0,0,1,.979-1.238,2.337,2.337,0,0,1,1.71-.172,2.237,2.237,0,0,1,1.4.949,1.889,1.889,0,0,1,.255,1.546,1.815,1.815,0,0,1-.935,1.235,2.333,2.333,0,0,1-1.687.134" transform="translate(-118.107 -33.237)" fill="#55a3f3"/>
              <path id="Trazado_877456" data-name="Trazado 877456" d="M52.243,204.971l-.043-1.645a7.485,7.485,0,0,1,.319-2.6,6.283,6.283,0,0,1,.947-1.811,14.019,14.019,0,0,1,1.191-1.367,18.482,18.482,0,0,0,1.449-1.576,2.969,2.969,0,0,0,.6-2.019,1.9,1.9,0,0,0-.372-1.14,2.522,2.522,0,0,0-.842-.708,1.963,1.963,0,0,0-.954-.239,2.583,2.583,0,0,0-1.495.459,3.4,3.4,0,0,0-.965,1.1,9.25,9.25,0,0,0-.631,1.383l-3.614-1.582a9.713,9.713,0,0,1,.614-1.445A7.721,7.721,0,0,1,49.719,190a7.132,7.132,0,0,1,2.1-1.516,7.379,7.379,0,0,1,3.073-.671,8.005,8.005,0,0,1,3.2.521,5.022,5.022,0,0,1,2.3,1.8,5.861,5.861,0,0,1,.926,3.284,6.911,6.911,0,0,1-.392,2.775,6.315,6.315,0,0,1-1.1,1.816q-.665.748-1.328,1.479a11.128,11.128,0,0,0-.978,1.191,5.059,5.059,0,0,0-.722,1.495,6.406,6.406,0,0,0-.226,2.025l.017.652Zm2.346,6.493a2.734,2.734,0,0,1-1.847-.557,1.993,1.993,0,0,1-.757-1.58,2.078,2.078,0,0,1,.687-1.633,2.623,2.623,0,0,1,1.8-.7,2.509,2.509,0,0,1,1.8.6,2.122,2.122,0,0,1,.741,1.6,2.035,2.035,0,0,1-.641,1.617,2.615,2.615,0,0,1-1.784.653" transform="translate(-31.86 -75.779)" fill="#55a3f3"/>
            </g>
          </g>
        </g>
        <path id="Trazado_877457" data-name="Trazado 877457" d="M298.365,386.4l-13.64-48.421-11.291,44.663,1.8,6.508a40.827,40.827,0,0,0,23.126-2.75" transform="translate(-99.605 -123.117)" fill="#e6d567"/>
        <path id="Trazado_877458" data-name="Trazado 877458" d="M307.741,443.764,299.4,414.146a40.834,40.834,0,0,1-23.126,2.75l7.446,26.868Z" transform="translate(-100.638 -150.862)" fill="#ff8775"/>
        <path id="Trazado_877459" data-name="Trazado 877459" d="M202.384,305.379l-24.005-8.552s-34.512,18.922-37.809,34.9,10.4,69.3,10.4,69.3h93.083S230.1,370.468,230.1,363.019s10.145-34.854,5.58-40.808-33.45-21.933-33.45-21.933Z" transform="translate(-51.019 -108.126)" fill="#e6d567"/>
        <path id="Trazado_877460" data-name="Trazado 877460" d="M217.7,259.817a25.964,25.964,0,0,1-24.005-8.552,62.37,62.37,0,0,0,1.3-14.407,21.252,21.252,0,0,0-1.017-6.681,25.6,25.6,0,0,0-2.076-4.118l-6.469-11.113a25.063,25.063,0,0,1-2.928-6.314c-1.134-4.476.275-9.2,2.121-13.428,3.575-8.2,9.1-15.863,16.931-20.178s18.207-4.655,25.364.7c2.807,2.1,6.56,4.108,7.322,7.53,1.806,8.111,3.617,16.248,4.379,24.522s.451,16.738-1.924,24.7c-1.072,3.593-2.673,7.218-5.622,9.534a17.163,17.163,0,0,1-6.928,2.968,13.439,13.439,0,0,1-6.5.174c-.2,4.653-.154,10,.05,14.657" transform="translate(-66.333 -62.564)" fill="#ff8775"/>
        <path id="Trazado_877461" data-name="Trazado 877461" d="M171.8,176.3a16.692,16.692,0,0,0-5.826,5.232c-5.89,8.17-5.877,19.709-1.344,28.7a47.151,47.151,0,0,0,22.83,21.125,61.083,61.083,0,0,0-1.71-14.821,12.247,12.247,0,0,0,6.294-3.834c-2.416-9.245-4.912-18.336-7.329-27.581,5.432,1.338,11.376.352,16.565-1.737a48.212,48.212,0,0,0,13.964-9.152,10.038,10.038,0,0,0,4.964,5.341,16.629,16.629,0,0,0,7.229,1.694c.282,1.457.535,2.905.817,4.362,4.363-2.729,8.233-7.6,7.65-12.717a13.6,13.6,0,0,0-1.114-3.861,21.9,21.9,0,0,0-10-10.64,32.434,32.434,0,0,0-8.389-2.727,63.973,63.973,0,0,0-29.2.915,26.667,26.667,0,0,0-8.528,3.644A17.38,17.38,0,0,0,171.8,176.3" transform="translate(-58.786 -56.254)" fill="#12263f"/>
        <path id="Trazado_877462" data-name="Trazado 877462" d="M183.991,243.4a17.1,17.1,0,0,0,6.467,9.189,7.342,7.342,0,0,0,3.053,1.385c2.365.334,4.178-1.609,4.541-3.987s-.434-5.053-1.493-7.523c-1.369-3.195-3.6-6.6-6.662-7.538-4.933-1.516-7.127,4.017-5.907,8.475" transform="translate(-66.902 -85.483)" fill="#ff8775"/>
        <g id="Grupo_1100183" data-name="Grupo 1100183" transform="translate(118.267 151.548)" style="mix-blend-mode: multiply;isolation: isolate">
          <g id="Grupo_1100182" data-name="Grupo 1100182">
            <g id="Grupo_1100181" data-name="Grupo 1100181" clip-path="url(#clip-path-7)">
              <path id="Trazado_877463" data-name="Trazado 877463" d="M196.679,252.408a7.636,7.636,0,0,1-2.926-2.038,1.7,1.7,0,0,1-.4-.621,1.2,1.2,0,0,1,.374-1.107l1.49-1.791a.814.814,0,0,0,.222-.416,1.255,1.255,0,0,0-.14-.586c-1.015-2.458-2.181-5.112-4.3-6.659a3.83,3.83,0,0,0-1.844-.794,2.42,2.42,0,0,0-2.206,1.189,7.712,7.712,0,0,0-.913,2.584,13.3,13.3,0,0,0,4.013,8.466c3.758,3.327,6.633,1.774,6.633,1.774" transform="translate(-186.034 -238.386)" fill="#ff8775"/>
            </g>
          </g>
        </g>
        <path id="Trazado_877464" data-name="Trazado 877464" d="M186.034,241.979c.791-7.016,6.307-3.826,8.355.512.479.928.882,1.879,1.262,2.827a2.208,2.208,0,0,1,.228.931,1.068,1.068,0,0,1-.241.575c-.414.486-.845.977-1.273,1.45-.34.39-.723.742-.73,1.05-.048.305.341.718.661,1.08a7.927,7.927,0,0,0,2.384,1.815,7.187,7.187,0,0,1-3.284-2.032,1.392,1.392,0,0,1-.39-.861c-.012-.661.453-1.069.783-1.53.344-.5,1-1.191,1.217-1.606a20.678,20.678,0,0,0-3.072-5.711c-2.639-3.114-4.9-2.328-5.9,1.5" transform="translate(-67.767 -86.649)" fill="#0a2a6b"/>
        <path id="Trazado_877465" data-name="Trazado 877465" d="M250.1,217c.958,3.111,1.673,6.273,2.331,9.453.829,4.6.834,5.229,5.264,7.224a10.139,10.139,0,0,1-4.917,4.985,15.6,15.6,0,0,0,2.246-2.278,10.46,10.46,0,0,0,1.552-2.676l.264.659a8.037,8.037,0,0,1-4.293-2.8c-.912-1.368-.983-3.374-1.3-4.9-.5-3.208-.95-6.42-1.15-9.668" transform="translate(-91.105 -79.048)" fill="#0a2a6b"/>
        <path id="Trazado_877466" data-name="Trazado 877466" d="M235.088,228.491c0,1.59-.778,2.879-1.738,2.879s-1.738-1.289-1.738-2.879.778-2.879,1.738-2.879,1.738,1.289,1.738,2.879" transform="translate(-84.37 -82.184)" fill="#0a2a6b"/>
        <path id="Trazado_877467" data-name="Trazado 877467" d="M263.8,224.974c0,1.59-.778,2.879-1.738,2.879s-1.737-1.289-1.737-2.879.778-2.879,1.737-2.879,1.738,1.289,1.738,2.879" transform="translate(-94.83 -80.903)" fill="#0a2a6b"/>
        <path id="Trazado_877468" data-name="Trazado 877468" d="M217.368,216.409c1.133-4.7,5.616-10.835,11.041-10.2a5.369,5.369,0,0,1,2.28.739l-.024.253-2.053.784c-1.823.838-3.694,1.387-5.438,2.362A17.252,17.252,0,0,0,217.6,216.5l-.236-.094" transform="translate(-79.181 -75.1)" fill="#0a2a6b"/>
        <path id="Trazado_877469" data-name="Trazado 877469" d="M262.006,211.819a13.054,13.054,0,0,0-5.826-4.065,29.248,29.248,0,0,1-6.865-2.161l-.017-.254c2.468-1.556,5.464-.971,7.739.57a12.492,12.492,0,0,1,3.126,2.486,11.177,11.177,0,0,1,2.063,3.3Z" transform="translate(-90.812 -74.466)" fill="#0a2a6b"/>
        <path id="Trazado_877470" data-name="Trazado 877470" d="M253.369,262.836c2.21-.392,4.125-.019,4.277.833.125.7-.992,1.513-2.629,2A8.151,8.151,0,0,0,250.309,264a7.576,7.576,0,0,1,3.06-1.164" transform="translate(-91.181 -95.687)" fill="#0a2a6b"/>
        <path id="Trazado_877471" data-name="Trazado 877471" d="M249.919,264.755a8.155,8.155,0,0,1,4.707,1.665,10.14,10.14,0,0,1-1.1.258c-2.21.392-4.125.019-4.277-.833-.063-.355.193-.736.669-1.09" transform="translate(-90.792 -96.443)" fill="#ff4648"/>
        <path id="Trazado_877472" data-name="Trazado 877472" d="M192.146,342.454l10.226,10.617s8.341-61.471,8.172-66.39-3.5-16.712-.836-17.151,7.938,11.243,7.938,11.243,33.858-6.049,36.524-5.531-1.334,3.407-5.113,4.741a62.749,62.749,0,0,1-7.092,2.032A8.762,8.762,0,0,1,243.489,285a11.674,11.674,0,0,1,0,3.018,11.444,11.444,0,0,1,.022,3.262,8.682,8.682,0,0,1-1,1.973s.292,2.259-.217,3.009A5.218,5.218,0,0,1,240.213,298c-3.62,3.888-8.084.476-8.084.476l-2.79-.069-8.413-.207s-1.146,42.165-1.719,54.87-4.394,32.954-4.394,32.954L182.1,366.732a103.775,103.775,0,0,1,4.827-15.664c2.865-6.686,5.222-8.613,5.222-8.613" transform="translate(-66.333 -98.178)" fill="#ff8775"/>
        <path id="Trazado_877473" data-name="Trazado 877473" d="M224.753,295.057c.01-4.582.411-9.174-.039-13.744-.426-4.579-1.116-9.146-1.11-13.77v-.353l.347-.089a4.931,4.931,0,0,1,5.716,3.153,8.724,8.724,0,0,1,1.04,4.387,5.666,5.666,0,0,0-.017,2.013A7.325,7.325,0,0,0,232.936,280l-.311-.078c4.486-.835,10.854-1.987,15.3-2.694-4.42,1.091-10.812,2.476-15.324,3.465a7.74,7.74,0,0,1-2.721-3.824,6.332,6.332,0,0,1-.032-2.292,7.934,7.934,0,0,0-1.005-3.929,4.1,4.1,0,0,0-4.667-2.65l.348-.442a67.137,67.137,0,0,0,.316,6.835c.2,2.027.449,4.87.554,6.877.31,4.61-.273,9.2-.643,13.793" transform="translate(-81.453 -97.24)" fill="#0a2a6b"/>
        <path id="Trazado_877474" data-name="Trazado 877474" d="M270.381,289.177a28.443,28.443,0,0,1-10.281,2.274,28.457,28.457,0,0,1,10.281-2.274" transform="translate(-94.747 -105.339)" fill="#0a2a6b"/>
        <path id="Trazado_877475" data-name="Trazado 877475" d="M261.106,298.968a32,32,0,0,1,11.163-.5,32.012,32.012,0,0,1-11.163.5" transform="translate(-95.114 -108.625)" fill="#0a2a6b"/>
        <path id="Trazado_877476" data-name="Trazado 877476" d="M261.864,306.185a18.289,18.289,0,0,1,9.7.227,36.151,36.151,0,0,1-9.7-.227" transform="translate(-95.39 -111.332)" fill="#0a2a6b"/>
        <path id="Trazado_877477" data-name="Trazado 877477" d="M266.537,314.387a15.473,15.473,0,0,1-7.74.1,15.459,15.459,0,0,1,7.74-.1" transform="translate(-94.273 -114.361)" fill="#0a2a6b"/>
        <path id="Trazado_877478" data-name="Trazado 877478" d="M213.093,398.16a65.989,65.989,0,0,1-.975,12.928,31.98,31.98,0,0,1,.975-12.928" transform="translate(-77.172 -145.039)" fill="#0a2a6b"/>
        <path id="Trazado_877479" data-name="Trazado 877479" d="M184,369.534c-4.221-4.812-8.263-9.77-12.313-14.724-3.976-4.954-8.046-10.042-13.7-13.153,5.924,2.66,10.179,7.845,14.2,12.754,4,5,8,9.989,11.819,15.123" transform="translate(-57.55 -124.456)" fill="#55a3f3"/>
        <path id="Trazado_877480" data-name="Trazado 877480" d="M173.28,421.7a64.826,64.826,0,0,0-1.476,14.384l-.485-.369A70.476,70.476,0,0,1,157.566,422a106.2,106.2,0,0,0,10.374,10.169c1.235,1.037,2.479,2.065,3.746,3.066l-.482.235A47.59,47.59,0,0,1,173.28,421.7" transform="translate(-57.397 -153.612)" fill="#55a3f3"/>
        <path id="Trazado_877481" data-name="Trazado 877481" d="M284.748,391.595c-.874-2.965-2.58-8.921-3.4-11.9.643-9.246,1.5-18.729,2.419-27.968q.457-4.644,1-9.28-.257,4.661-.6,9.315c-.662,9.107-1.47,19.043-2.38,27.814.763,2.982,2.246,9.021,2.955,12.017" transform="translate(-102.487 -124.745)" fill="#55a3f3"/>
        <g id="Grupo_1100186" data-name="Grupo 1100186" transform="translate(102.623 98.897)" opacity="0.47">
          <g id="Grupo_1100185" data-name="Grupo 1100185">
            <g id="Grupo_1100184" data-name="Grupo 1100184" clip-path="url(#clip-path-8)">
              <path id="Trazado_877482" data-name="Trazado 877482" d="M178.222,176.684c3.943,1.165,8.08,1.191,12.153,1.233,12.233.111,25.748-3.409,33.058-13.938.4,8.985,9.263,16.372,18.183,15.558-8.762,1.172-17.818-5.9-18.69-14.751l.511.142a29.17,29.17,0,0,1-9.223,8.158c-7.209,4.116-15.647,5.367-23.843,5.2-4.08-.109-8.254-.279-12.149-1.6" transform="translate(-167.544 -158.63)" fill="#55a3f3"/>
              <path id="Trazado_877483" data-name="Trazado 877483" d="M270.313,172.515c-6.157-.11-10.834-5.506-12.38-11.11a21.628,21.628,0,0,1-.557-2.453c.268.793.531,1.584.851,2.351,2,5.332,6.209,10.289,12.085,11.212" transform="translate(-196.378 -156.799)" fill="#55a3f3"/>
              <path id="Trazado_877484" data-name="Trazado 877484" d="M220.732,155.565c-3.773,5.4-10.528,7.572-16.657,9.066a30.825,30.825,0,0,1-14.428-.207,24.429,24.429,0,0,1-4.466-1.832,27.528,27.528,0,0,0,4.545,1.53,32.911,32.911,0,0,0,14.219-.113c6.088-1.427,12.673-3.442,16.788-8.444" transform="translate(-170.079 -155.565)" fill="#55a3f3"/>
              <path id="Trazado_877485" data-name="Trazado 877485" d="M180.565,203.524a20.552,20.552,0,0,1-11.259,21.66,19.447,19.447,0,0,1-3.478,1.287,23.02,23.02,0,0,0,3.333-1.563,22.546,22.546,0,0,0,11.4-21.384" transform="translate(-163.03 -173.035)" fill="#55a3f3"/>
              <path id="Trazado_877486" data-name="Trazado 877486" d="M170.787,198.211a16.758,16.758,0,0,1-9.361,12.157,24.855,24.855,0,0,0,9.361-12.157" transform="translate(-161.426 -171.1)" fill="#55a3f3"/>
            </g>
          </g>
        </g>
      </g>
    </g>
  </g>
</svg>
