<svg xmlns="http://www.w3.org/2000/svg" xmlns:xlink="http://www.w3.org/1999/xlink" width="63" height="63" viewBox="0 0 63 63">
  <defs>
    <clipPath id="clip-path">
      <rect id="Rectángulo_401917" data-name="Rectángulo 401917" width="37.156" height="42.358" fill="#35a064" stroke="#59836b" stroke-width="1"/>
    </clipPath>
  </defs>
  <g id="Grupo_1110146" data-name="Grupo 1110146" transform="translate(-454 -3739)">
    <circle id="Elipse_11583" data-name="Elipse 11583" cx="31.5" cy="31.5" r="31.5" transform="translate(454 3739)" fill="#fff"/>
    <g id="Grupo_1100193" data-name="Grupo 1100193" transform="translate(466.422 3746.473)">
      <g id="Grupo_1100192" data-name="Grupo 1100192" clip-path="url(#clip-path)">
        <path id="Trazado_877487" data-name="Trazado 877487" d="M148.88,206.272A3.047,3.047,0,0,1,145.937,204h1.092a2.006,2.006,0,0,0,3.7,0h1.092a3.048,3.048,0,0,1-2.943,2.271" transform="translate(-130.142 -181.922)" fill="#35a064" stroke="#59836b" stroke-width="1"/>
        <path id="Trazado_877488" data-name="Trazado 877488" d="M0,42.358V37.027a6.281,6.281,0,0,1,1.731-4.341,6.088,6.088,0,0,1,4.243-1.915H16.021v.38a2.717,2.717,0,1,0,5.433,0v-.356H31.537l.024,0a6.114,6.114,0,0,1,4.016,2.053,6.291,6.291,0,0,1,1.578,4.236l-.038,5.272Zm5.99-10.55a5.225,5.225,0,0,0-4.953,5.219v4.294H36.089l.031-4.244a5.232,5.232,0,0,0-4.589-5.242l-.041,0H22.47l-.178.523a3.752,3.752,0,0,1-7.115-.02L15,31.807H5.99Zm8.147-2.519a11.211,11.211,0,0,1-6.794-9.254l-.05-.532-.516-.14a3,3,0,0,1-.043-5.776l.558-.161v-1.98a11.446,11.446,0,0,1,22.858-.88l.054.713h5.051v1.037H8.329v2.191H7.563a1.962,1.962,0,1,0,0,3.924h.766v.518a10.175,10.175,0,0,0,7.323,9.787l.37.111V30.09Zm4.6-28.252a10.367,10.367,0,0,0-10.359,9.4l-.082.846H29.18l-.082-.846a10.367,10.367,0,0,0-10.36-9.4m2.717,27.81.369-.111a10.175,10.175,0,0,0,7.323-9.787V18.43h.766a1.962,1.962,0,0,0,0-3.924h-.766V12.746l2.089,1.033a3,3,0,0,1-.538,5.584l-.516.14-.05.532a11.2,11.2,0,0,1-6.85,9.277l-1.828.766Z" fill="#35a064" stroke="#59836b" stroke-width="1"/>
        <path id="Trazado_877489" data-name="Trazado 877489" d="M114,147.225a1.431,1.431,0,0,0-2.41,0h-1.139a2.468,2.468,0,0,1,4.689,0Z" transform="translate(-98.498 -129.778)" fill="#35a064" stroke="#59836b" stroke-width="1"/>
        <path id="Trazado_877490" data-name="Trazado 877490" d="M193.077,147.224a1.431,1.431,0,0,0-2.411,0h-1.139a2.469,2.469,0,0,1,4.689,0Z" transform="translate(-169.014 -129.777)" fill="#35a064" stroke="#59836b" stroke-width="1"/>
      </g>
    </g>
  </g>
</svg>
