<svg xmlns="http://www.w3.org/2000/svg" xmlns:xlink="http://www.w3.org/1999/xlink" width="820" height="694.628" viewBox="0 0 820 694.628">
  <defs>
    <clipPath id="clip-path">
      <rect id="Rectángulo_404011" data-name="Rectángulo 404011" width="820" height="694.628" fill="none"/>
    </clipPath>
    <clipPath id="clip-path-2">
      <rect id="Rectángulo_404012" data-name="Rectángulo 404012" width="83.874" height="84.894" fill="none"/>
    </clipPath>
    <clipPath id="clip-path-3">
      <rect id="Rectángulo_404014" data-name="Rectángulo 404014" width="85" height="81.304" fill="none"/>
    </clipPath>
    <clipPath id="clip-path-4">
      <rect id="Rectángulo_404015" data-name="Rectángulo 404015" width="82.863" height="81.798" fill="none"/>
    </clipPath>
    <clipPath id="clip-path-5">
      <rect id="Rectángulo_404016" data-name="Rectángulo 404016" width="75.996" height="75.206" fill="none"/>
    </clipPath>
    <clipPath id="clip-path-6">
      <rect id="Rectángulo_404018" data-name="Rectángulo 404018" width="93.52" height="92.188" fill="none"/>
    </clipPath>
    <clipPath id="clip-path-7">
      <rect id="Rectángulo_404031" data-name="Rectángulo 404031" width="84.537" height="84.218" fill="none"/>
    </clipPath>
  </defs>
  <g id="Grupo_1110155" data-name="Grupo 1110155" transform="translate(-390 -8264)">
    <g id="Grupo_1110106" data-name="Grupo 1110106" transform="translate(390 8264)">
      <g id="Grupo_1110105" data-name="Grupo 1110105" clip-path="url(#clip-path)">
        <path id="Trazado_899875" data-name="Trazado 899875" d="M0,259.707A408.641,408.641,0,0,0,114.8,537.031L232.711,419.118a242.463,242.463,0,0,1-65.966-159.411Z" transform="translate(0 157.595)" fill="#64d1da"/>
        <path id="Trazado_899876" data-name="Trazado 899876" d="M0,355.185H166.75a242.5,242.5,0,0,1,66.061-159.314L114.9,77.959A408.66,408.66,0,0,0,0,355.185" transform="translate(0.001 47.307)" fill="#34b2e4"/>
        <path id="Trazado_899877" data-name="Trazado 899877" d="M195.939,232.712a242.481,242.481,0,0,1,159.308-65.965V0A408.643,408.643,0,0,0,78.024,114.8Z" transform="translate(47.346)" fill="#065381"/>
        <path id="Trazado_899878" data-name="Trazado 899878" d="M259.771,166.749a242.472,242.472,0,0,1,159.31,65.968L536.992,114.8A408.639,408.639,0,0,0,259.771,0Z" transform="translate(157.634 0.001)" fill="#77af8f"/>
        <path id="Trazado_899879" data-name="Trazado 899879" d="M365.5,419.118,483.412,537.033a408.643,408.643,0,0,0,114.8-277.326H431.467A242.483,242.483,0,0,1,365.5,419.118" transform="translate(221.791 157.595)" fill="#b0c0d2"/>
        <path id="Trazado_899880" data-name="Trazado 899880" d="M365.436,195.872A242.514,242.514,0,0,1,431.5,355.187H598.243a408.66,408.66,0,0,0-114.9-277.228Z" transform="translate(221.754 47.307)" fill="#e6d567"/>
        <path id="Trazado_899881" data-name="Trazado 899881" d="M103.772,259.707A242.473,242.473,0,0,0,169.74,419.118l24.31-24.31a208.221,208.221,0,0,1-55.9-135.1Z" transform="translate(62.971 157.595)" fill="#2cc6d2"/>
        <path id="Trazado_899882" data-name="Trazado 899882" d="M103.777,310.656h34.378a208.225,208.225,0,0,1,55.988-135.007l-24.306-24.308a242.5,242.5,0,0,0-66.06,159.315" transform="translate(62.974 91.837)" fill="#0b98d0"/>
        <path id="Trazado_899883" data-name="Trazado 899883" d="M175.716,194.043a208.229,208.229,0,0,1,135-55.89V103.775a242.485,242.485,0,0,0-159.31,65.965Z" transform="translate(91.877 62.973)" fill="#0a4366"/>
        <path id="Trazado_899884" data-name="Trazado 899884" d="M259.77,138.153a208.191,208.191,0,0,1,135,55.9l24.306-24.306a242.472,242.472,0,0,0-159.308-65.968Z" transform="translate(157.633 62.973)" fill="#35a064"/>
        <path id="Trazado_899885" data-name="Trazado 899885" d="M350.368,394.808l24.31,24.31a242.483,242.483,0,0,0,65.97-159.411H406.264a208.185,208.185,0,0,1-55.9,135.1" transform="translate(212.61 157.595)" fill="#727997"/>
        <path id="Trazado_899886" data-name="Trazado 899886" d="M350.309,175.648A208.232,208.232,0,0,1,406.3,310.655l34.378,0a242.514,242.514,0,0,0-66.06-159.315Z" transform="translate(212.574 91.837)" fill="#b8aa52"/>
        <path id="Trazado_899887" data-name="Trazado 899887" d="M361.028,223.58,406,229.08l-17.723-41.7Z" transform="translate(219.079 113.707)" fill="#b8aa52"/>
        <path id="Trazado_899888" data-name="Trazado 899888" d="M300.233,164.827l35.692-27.912-42.017-16.95Z" transform="translate(178.35 72.797)" fill="#35a064"/>
        <path id="Trazado_899889" data-name="Trazado 899889" d="M222.983,165.688l5.5-44.975-41.7,17.725Z" transform="translate(113.344 73.251)" fill="#0a4366"/>
        <path id="Trazado_899890" data-name="Trazado 899890" d="M119.37,231.69l44.859-6.328-27.909-35.689Z" transform="translate(72.436 115.098)" fill="#0b98d0"/>
        <path id="Trazado_899891" data-name="Trazado 899891" d="M137.842,338.692l27.245-36.2L120.118,297Z" transform="translate(72.89 180.223)" fill="#2cc6d2"/>
        <path id="Trazado_899892" data-name="Trazado 899892" d="M389.757,336.52,406.709,294.5l-44.862,6.329Z" transform="translate(219.576 178.711)" fill="#727997"/>
      </g>
    </g>
    <path id="Trazado_900087" data-name="Trazado 900087" d="M21.978,12.848a6.627,6.627,0,0,1-.3,2.251,3.362,3.362,0,0,1-1,1.382l-.645.6a2.547,2.547,0,0,0-.908,1.816,1.357,1.357,0,0,0,.327,1.011,1.162,1.162,0,0,0,.845.317,1.29,1.29,0,0,0,1.021-.415,1.794,1.794,0,0,0,.386-1.177h3.311a4,4,0,0,1-1.245,3.047,4.9,4.9,0,0,1-3.394,1.084,5.039,5.039,0,0,1-3.364-1.011,3.547,3.547,0,0,1-1.187-2.856,3.281,3.281,0,0,1,.371-1.528,6.061,6.061,0,0,1,1.27-1.558l.83-.762a2.243,2.243,0,0,0,.84-1.494l.049-.7Zm-1.309-1.318a1.892,1.892,0,0,1-1.3-.464,1.609,1.609,0,0,1,0-2.373,1.892,1.892,0,0,1,1.3-.464,1.86,1.86,0,0,1,1.313.474,1.607,1.607,0,0,1,0,2.354A1.86,1.86,0,0,1,20.669,11.529Zm17.207,2.656a5.193,5.193,0,0,1-.8,2.622A4.833,4.833,0,0,1,35.02,18.57,7,7,0,0,1,32,19.2a5.584,5.584,0,0,1-4.414-1.826,7.54,7.54,0,0,1-1.611-5.156v-.7A8.607,8.607,0,0,1,26.7,7.853a5.513,5.513,0,0,1,2.095-2.422,5.844,5.844,0,0,1,3.164-.854,6.129,6.129,0,0,1,4.16,1.362,5.383,5.383,0,0,1,1.787,3.755H34.487a2.547,2.547,0,0,0-.654-1.865,2.691,2.691,0,0,0-1.875-.566,2.048,2.048,0,0,0-1.875.957,6.151,6.151,0,0,0-.625,3.057v1.006a6.806,6.806,0,0,0,.571,3.252A2.091,2.091,0,0,0,32,16.51a2.632,2.632,0,0,0,1.807-.557,2.363,2.363,0,0,0,.664-1.768Zm1.055-.566a6.236,6.236,0,0,1,.615-2.817,4.4,4.4,0,0,1,1.768-1.9,5.323,5.323,0,0,1,2.705-.664,4.858,4.858,0,0,1,3.74,1.47,5.64,5.64,0,0,1,1.367,4v.117a5.472,5.472,0,0,1-1.372,3.921,4.871,4.871,0,0,1-3.716,1.45,4.927,4.927,0,0,1-3.623-1.353,5.29,5.29,0,0,1-1.475-3.667Zm3.291.205a3.932,3.932,0,0,0,.459,2.148,1.529,1.529,0,0,0,1.357.684q1.758,0,1.8-2.705v-.332q0-2.842-1.816-2.842-1.65,0-1.787,2.451ZM44.468,4h3.477L45.229,7.066l-2.686,0Zm9.219,4.434.107,1.24a3.633,3.633,0,0,1,3.018-1.436A2.675,2.675,0,0,1,59.517,9.83a3.516,3.516,0,0,1,3.105-1.592q3.213,0,3.3,3.887V19h-3.3V12.33a2.014,2.014,0,0,0-.273-1.182,1.164,1.164,0,0,0-1-.371,1.559,1.559,0,0,0-1.455.869l.01.137V19h-3.3V12.35a2.117,2.117,0,0,0-.264-1.2,1.161,1.161,0,0,0-1.006-.371,1.578,1.578,0,0,0-1.445.869V19H50.6V8.434Zm13.7,5.186A6.236,6.236,0,0,1,68,10.8a4.4,4.4,0,0,1,1.768-1.9,5.323,5.323,0,0,1,2.705-.664,4.858,4.858,0,0,1,3.74,1.47,5.64,5.64,0,0,1,1.367,4v.117a5.472,5.472,0,0,1-1.372,3.921A4.871,4.871,0,0,1,72.5,19.2a4.927,4.927,0,0,1-3.623-1.353A5.29,5.29,0,0,1,67.4,14.176Zm3.291.205a3.932,3.932,0,0,0,.459,2.148,1.529,1.529,0,0,0,1.357.684q1.758,0,1.8-2.705v-.332q0-2.842-1.816-2.842-1.65,0-1.787,2.451Zm18.867,2.207a.76.76,0,0,0-.439-.674,6.685,6.685,0,0,0-1.67-.527,7.615,7.615,0,0,1-2.031-.718,3.4,3.4,0,0,1-1.221-1.079,2.577,2.577,0,0,1-.42-1.455,2.92,2.92,0,0,1,1.2-2.4,4.948,4.948,0,0,1,3.145-.942,5.482,5.482,0,0,1,3.359.947,2.962,2.962,0,0,1,1.27,2.49h-3.3q0-1.27-1.338-1.27a1.326,1.326,0,0,0-.869.288.892.892,0,0,0-.352.718.819.819,0,0,0,.43.713,4.06,4.06,0,0,0,1.372.449,11.857,11.857,0,0,1,1.655.42,3.007,3.007,0,0,1,2.383,2.939,2.767,2.767,0,0,1-1.284,2.354,5.631,5.631,0,0,1-3.325.908,5.747,5.747,0,0,1-2.422-.488,4.05,4.05,0,0,1-1.66-1.328,3.007,3.007,0,0,1-.6-1.768h3.076A1.272,1.272,0,0,0,87,16.681a2.009,2.009,0,0,0,1.2.337,1.58,1.58,0,0,0,1.011-.273A.875.875,0,0,0,89.546,16.031ZM99.37,19.2a5.432,5.432,0,0,1-3.936-1.45,5.008,5.008,0,0,1-1.5-3.774V13.7a6.489,6.489,0,0,1,.6-2.861,4.395,4.395,0,0,1,1.753-1.919,5.292,5.292,0,0,1,2.734-.679,4.574,4.574,0,0,1,3.516,1.382,5.43,5.43,0,0,1,1.289,3.853v1.279H97.28a2.372,2.372,0,0,0,.771,1.4,2.3,2.3,0,0,0,1.543.508,2.958,2.958,0,0,0,2.441-1.094l1.5,1.777a4.2,4.2,0,0,1-1.743,1.353A5.891,5.891,0,0,1,99.37,19.2ZM99,10.777q-1.445,0-1.719,1.914h3.32v-.254a1.63,1.63,0,0,0-.4-1.226A1.593,1.593,0,0,0,99,10.777Zm20.938,3.018a6.372,6.372,0,0,1-1.108,3.931,3.554,3.554,0,0,1-2.993,1.47,3.046,3.046,0,0,1-2.393-1.064v4.932h-3.291V8.434h3.076l.1.977a3.046,3.046,0,0,1,2.49-1.172,3.582,3.582,0,0,1,3.037,1.44,6.45,6.45,0,0,1,1.084,3.96Zm-3.291-.205q0-2.812-1.641-2.812a1.549,1.549,0,0,0-1.562.84v4.16a1.6,1.6,0,0,0,1.582.879q1.572,0,1.621-2.715Zm11.035,4.268a3.393,3.393,0,0,1-2.822,1.338,3.328,3.328,0,0,1-2.632-1.011,4.251,4.251,0,0,1-.894-2.905V8.434h3.291V15.3a1.183,1.183,0,0,0,1.318,1.357,1.72,1.72,0,0,0,1.611-.811V8.434h3.311V19h-3.086Zm10.1,1.338a5.432,5.432,0,0,1-3.936-1.45,5.008,5.008,0,0,1-1.5-3.774V13.7a6.489,6.489,0,0,1,.6-2.861,4.395,4.395,0,0,1,1.753-1.919,5.292,5.292,0,0,1,2.734-.679,4.574,4.574,0,0,1,3.516,1.382,5.43,5.43,0,0,1,1.289,3.853v1.279h-6.543a2.372,2.372,0,0,0,.771,1.4,2.3,2.3,0,0,0,1.543.508,2.958,2.958,0,0,0,2.441-1.094l1.5,1.777a4.2,4.2,0,0,1-1.743,1.353A5.891,5.891,0,0,1,137.778,19.2Zm-.371-8.418q-1.445,0-1.719,1.914h3.32v-.254a1.63,1.63,0,0,0-.4-1.226A1.593,1.593,0,0,0,137.407,10.777Zm5.732,2.861a6.455,6.455,0,0,1,1.084-3.955,3.568,3.568,0,0,1,3.027-1.445,3.035,3.035,0,0,1,2.383,1.113V4h3.3V19h-2.959l-.166-1.133a3.116,3.116,0,0,1-2.578,1.328,3.562,3.562,0,0,1-2.988-1.445A6.659,6.659,0,0,1,143.14,13.639Zm3.291.205q0,2.813,1.641,2.813a1.62,1.62,0,0,0,1.563-.918V11.715a1.576,1.576,0,0,0-1.543-.937q-1.523,0-1.65,2.461ZM159.917,19.2a5.432,5.432,0,0,1-3.936-1.45,5.008,5.008,0,0,1-1.5-3.774V13.7a6.489,6.489,0,0,1,.6-2.861,4.395,4.395,0,0,1,1.753-1.919,5.292,5.292,0,0,1,2.734-.679,4.574,4.574,0,0,1,3.516,1.382,5.43,5.43,0,0,1,1.289,3.853v1.279h-6.543a2.372,2.372,0,0,0,.771,1.4,2.3,2.3,0,0,0,1.543.508,2.958,2.958,0,0,0,2.441-1.094l1.5,1.777a4.2,4.2,0,0,1-1.743,1.353A5.891,5.891,0,0,1,159.917,19.2Zm-.371-8.418q-1.445,0-1.719,1.914h3.32v-.254a1.63,1.63,0,0,0-.4-1.226A1.593,1.593,0,0,0,159.546,10.777ZM176.626,19a3.716,3.716,0,0,1-.312-.947,3.06,3.06,0,0,1-2.539,1.143,3.749,3.749,0,0,1-2.539-.9,2.875,2.875,0,0,1-1.045-2.271,2.955,2.955,0,0,1,1.27-2.6,6.468,6.468,0,0,1,3.691-.879h1.016v-.559q0-1.462-1.26-1.462a1.03,1.03,0,0,0-1.172,1.158h-3.291a2.95,2.95,0,0,1,1.3-2.487,5.479,5.479,0,0,1,3.325-.956,4.8,4.8,0,0,1,3.193.986,3.429,3.429,0,0,1,1.2,2.705v4.678a4.79,4.79,0,0,0,.449,2.227V19Zm-2.061-2.148a1.836,1.836,0,0,0,1.021-.264,1.653,1.653,0,0,0,.581-.6V14.3h-.957q-1.719,0-1.719,1.543a.942.942,0,0,0,.3.728A1.1,1.1,0,0,0,174.565,16.852Zm11.191-.2a1.464,1.464,0,0,0,1.074-.376,1.379,1.379,0,0,0,.371-1.05h3.086a3.653,3.653,0,0,1-1.245,2.852,4.631,4.631,0,0,1-3.208,1.113A4.689,4.689,0,0,1,182.2,17.75a5.7,5.7,0,0,1-1.328-4v-.137a6.436,6.436,0,0,1,.591-2.827,4.3,4.3,0,0,1,1.7-1.885,5.081,5.081,0,0,1,2.637-.659,4.573,4.573,0,0,1,3.271,1.143,4.053,4.053,0,0,1,1.211,3.1H187.2a1.807,1.807,0,0,0-.4-1.26,1.382,1.382,0,0,0-1.074-.439q-1.279,0-1.494,1.631a11.507,11.507,0,0,0-.068,1.426,4.52,4.52,0,0,0,.381,2.207A1.319,1.319,0,0,0,185.757,16.656Zm10.391,0a1.464,1.464,0,0,0,1.074-.376,1.379,1.379,0,0,0,.371-1.05h3.086a3.653,3.653,0,0,1-1.245,2.852,4.631,4.631,0,0,1-3.208,1.113,4.689,4.689,0,0,1-3.633-1.445,5.7,5.7,0,0,1-1.328-4v-.137a6.436,6.436,0,0,1,.591-2.827,4.3,4.3,0,0,1,1.7-1.885,5.081,5.081,0,0,1,2.637-.659,4.573,4.573,0,0,1,3.271,1.143,4.053,4.053,0,0,1,1.211,3.1h-3.086a1.807,1.807,0,0,0-.4-1.26,1.382,1.382,0,0,0-1.074-.439q-1.279,0-1.494,1.631a11.507,11.507,0,0,0-.068,1.426,4.52,4.52,0,0,0,.381,2.207A1.319,1.319,0,0,0,196.147,16.656ZM207.183,19.2a5.432,5.432,0,0,1-3.936-1.45,5.008,5.008,0,0,1-1.5-3.774V13.7a6.489,6.489,0,0,1,.6-2.861A4.395,4.395,0,0,1,204.1,8.917a5.292,5.292,0,0,1,2.734-.679,4.574,4.574,0,0,1,3.516,1.382,5.43,5.43,0,0,1,1.289,3.853v1.279h-6.543a2.372,2.372,0,0,0,.771,1.4,2.3,2.3,0,0,0,1.543.508,2.958,2.958,0,0,0,2.441-1.094l1.5,1.777a4.2,4.2,0,0,1-1.743,1.353A5.891,5.891,0,0,1,207.183,19.2Zm-.371-8.418q-1.445,0-1.719,1.914h3.32v-.254a1.63,1.63,0,0,0-.4-1.226A1.593,1.593,0,0,0,206.812,10.777Zm5.732,2.861a6.455,6.455,0,0,1,1.084-3.955,3.568,3.568,0,0,1,3.027-1.445,3.035,3.035,0,0,1,2.383,1.113V4h3.3V19H219.38l-.166-1.133a3.116,3.116,0,0,1-2.578,1.328,3.562,3.562,0,0,1-2.988-1.445A6.659,6.659,0,0,1,212.544,13.639Zm3.291.205q0,2.813,1.641,2.813a1.62,1.62,0,0,0,1.563-.918V11.715a1.576,1.576,0,0,0-1.543-.937q-1.523,0-1.65,2.461ZM229.321,19.2a5.432,5.432,0,0,1-3.936-1.45,5.008,5.008,0,0,1-1.5-3.774V13.7a6.489,6.489,0,0,1,.6-2.861,4.395,4.395,0,0,1,1.753-1.919,5.292,5.292,0,0,1,2.734-.679,4.574,4.574,0,0,1,3.516,1.382,5.43,5.43,0,0,1,1.289,3.853v1.279h-6.543a2.372,2.372,0,0,0,.771,1.4,2.3,2.3,0,0,0,1.543.508,2.958,2.958,0,0,0,2.441-1.094l1.5,1.777a4.2,4.2,0,0,1-1.743,1.353A5.891,5.891,0,0,1,229.321,19.2Zm-.371-8.418q-1.445,0-1.719,1.914h3.32v-.254a1.63,1.63,0,0,0-.4-1.226A1.593,1.593,0,0,0,228.95,10.777Zm12.539.635-1.084-.078a1.947,1.947,0,0,0-1.992.977V19h-3.291V8.434h3.086l.107,1.357a2.548,2.548,0,0,1,2.314-1.553,3.209,3.209,0,0,1,.918.117ZM253.608,19a3.716,3.716,0,0,1-.312-.947,3.06,3.06,0,0,1-2.539,1.143,3.749,3.749,0,0,1-2.539-.9,2.875,2.875,0,0,1-1.045-2.271,2.955,2.955,0,0,1,1.27-2.6,6.468,6.468,0,0,1,3.691-.879h1.016v-.559q0-1.462-1.26-1.462a1.03,1.03,0,0,0-1.172,1.158h-3.291a2.95,2.95,0,0,1,1.3-2.487,5.479,5.479,0,0,1,3.325-.956,4.8,4.8,0,0,1,3.193.986,3.429,3.429,0,0,1,1.2,2.705v4.678a4.79,4.79,0,0,0,.449,2.227V19Zm-2.061-2.148a1.836,1.836,0,0,0,1.021-.264,1.653,1.653,0,0,0,.581-.6V14.3h-.957q-1.719,0-1.719,1.543a.942.942,0,0,0,.3.728A1.1,1.1,0,0,0,251.548,16.852Zm18,1.006a3.393,3.393,0,0,1-2.822,1.338,3.328,3.328,0,0,1-2.632-1.011,4.251,4.251,0,0,1-.894-2.905V8.434h3.291V15.3a1.183,1.183,0,0,0,1.318,1.357,1.72,1.72,0,0,0,1.611-.811V8.434h3.311V19h-3.086Zm8.008-9.424.107,1.24a3.583,3.583,0,0,1,3.018-1.436,3.015,3.015,0,0,1,2.466.986,4.7,4.7,0,0,1,.845,2.969V19h-3.3V12.33a1.783,1.783,0,0,0-.322-1.177,1.491,1.491,0,0,0-1.172-.376,1.569,1.569,0,0,0-1.436.762V19h-3.291V8.434ZM27.271,32.807v2.627h1.738v2.285H27.271v4.834a1.234,1.234,0,0,0,.215.83,1.152,1.152,0,0,0,.85.234,4.828,4.828,0,0,0,.82-.059v2.354A6.074,6.074,0,0,1,27.3,46.2a3.448,3.448,0,0,1-2.51-.8,3.282,3.282,0,0,1-.811-2.432V37.719H22.632V35.434h1.348V32.807Zm9.424,5.605-1.084-.078a1.947,1.947,0,0,0-1.992.977V46H30.327V35.434h3.086l.107,1.357a2.548,2.548,0,0,1,2.314-1.553,3.209,3.209,0,0,1,.918.117ZM43.54,46a3.716,3.716,0,0,1-.312-.947A3.06,3.06,0,0,1,40.688,46.2a3.749,3.749,0,0,1-2.539-.9A2.875,2.875,0,0,1,37.1,43.021a2.955,2.955,0,0,1,1.27-2.6,6.468,6.468,0,0,1,3.691-.879h1.016v-.559q0-1.462-1.26-1.462a1.03,1.03,0,0,0-1.172,1.158H37.358a2.95,2.95,0,0,1,1.3-2.487,5.479,5.479,0,0,1,3.325-.956,4.8,4.8,0,0,1,3.193.986,3.429,3.429,0,0,1,1.2,2.705v4.678a4.79,4.79,0,0,0,.449,2.227V46Zm-2.061-2.148a1.836,1.836,0,0,0,1.021-.264,1.653,1.653,0,0,0,.581-.6V41.3h-.957q-1.719,0-1.719,1.543a.942.942,0,0,0,.3.728A1.1,1.1,0,0,0,41.479,43.852ZM52.036,32.807v2.627h1.738v2.285H52.036v4.834a1.234,1.234,0,0,0,.215.83,1.152,1.152,0,0,0,.85.234,4.828,4.828,0,0,0,.82-.059v2.354a6.074,6.074,0,0,1-1.855.283,3.448,3.448,0,0,1-2.51-.8,3.282,3.282,0,0,1-.811-2.432V37.719H47.4V35.434h1.348V32.807ZM61.021,46a3.716,3.716,0,0,1-.312-.947A3.06,3.06,0,0,1,58.169,46.2a3.749,3.749,0,0,1-2.539-.9,2.875,2.875,0,0,1-1.045-2.271,2.955,2.955,0,0,1,1.27-2.6,6.468,6.468,0,0,1,3.691-.879h1.016v-.559q0-1.462-1.26-1.462a1.03,1.03,0,0,0-1.172,1.158H54.839a2.95,2.95,0,0,1,1.3-2.487,5.479,5.479,0,0,1,3.325-.956,4.8,4.8,0,0,1,3.193.986,3.429,3.429,0,0,1,1.2,2.705v4.678a4.79,4.79,0,0,0,.449,2.227V46ZM58.96,43.852a1.836,1.836,0,0,0,1.021-.264,1.653,1.653,0,0,0,.581-.6V41.3H59.6q-1.719,0-1.719,1.543a.942.942,0,0,0,.3.728A1.1,1.1,0,0,0,58.96,43.852Zm9.834-8.418.107,1.24a3.633,3.633,0,0,1,3.018-1.436,2.675,2.675,0,0,1,2.705,1.592,3.517,3.517,0,0,1,3.105-1.592q3.213,0,3.3,3.887V46h-3.3V39.33a2.014,2.014,0,0,0-.273-1.182,1.164,1.164,0,0,0-1-.371A1.559,1.559,0,0,0,75,38.646l.01.137V46h-3.3V39.35a2.117,2.117,0,0,0-.264-1.2,1.161,1.161,0,0,0-1.006-.371A1.578,1.578,0,0,0,69,38.646V46H65.708V35.434ZM86.382,46h-3.3V35.434h3.3Zm-3.5-13.3a1.482,1.482,0,0,1,.508-1.159,2.149,2.149,0,0,1,2.637,0,1.577,1.577,0,0,1,0,2.319,2.149,2.149,0,0,1-2.637,0A1.482,1.482,0,0,1,82.886,32.7ZM93.521,46.2a5.432,5.432,0,0,1-3.936-1.45,5.008,5.008,0,0,1-1.5-3.774V40.7a6.489,6.489,0,0,1,.6-2.861,4.395,4.395,0,0,1,1.753-1.919,5.292,5.292,0,0,1,2.734-.679,4.574,4.574,0,0,1,3.516,1.382,5.43,5.43,0,0,1,1.289,3.853v1.279H91.431a2.372,2.372,0,0,0,.771,1.4,2.3,2.3,0,0,0,1.543.508,2.958,2.958,0,0,0,2.441-1.094l1.5,1.777a4.2,4.2,0,0,1-1.743,1.353A5.891,5.891,0,0,1,93.521,46.2Zm-.371-8.418q-1.445,0-1.719,1.914h3.32v-.254a1.63,1.63,0,0,0-.4-1.226A1.593,1.593,0,0,0,93.149,37.777Zm9.17-2.344.107,1.24a3.583,3.583,0,0,1,3.018-1.436,3.015,3.015,0,0,1,2.466.986,4.7,4.7,0,0,1,.845,2.969V46h-3.3V39.33a1.783,1.783,0,0,0-.322-1.177,1.491,1.491,0,0,0-1.172-.376,1.569,1.569,0,0,0-1.436.762V46H99.233V35.434Zm12.09-2.627v2.627h1.738v2.285h-1.738v4.834a1.234,1.234,0,0,0,.215.83,1.152,1.152,0,0,0,.85.234,4.828,4.828,0,0,0,.82-.059v2.354a6.074,6.074,0,0,1-1.855.283,3.448,3.448,0,0,1-2.51-.8,3.282,3.282,0,0,1-.811-2.432V37.719h-1.348V35.434h1.348V32.807Zm2.324,7.813a6.236,6.236,0,0,1,.615-2.817,4.4,4.4,0,0,1,1.768-1.9,5.323,5.323,0,0,1,2.705-.664,4.858,4.858,0,0,1,3.74,1.47,5.64,5.64,0,0,1,1.367,4v.117a5.472,5.472,0,0,1-1.372,3.921,4.871,4.871,0,0,1-3.716,1.45,4.927,4.927,0,0,1-3.623-1.353,5.29,5.29,0,0,1-1.475-3.667Zm3.291.205a3.932,3.932,0,0,0,.459,2.148,1.529,1.529,0,0,0,1.357.684q1.758,0,1.8-2.705v-.332q0-2.842-1.816-2.842-1.65,0-1.787,2.451Zm23.145-.029a6.372,6.372,0,0,1-1.108,3.931,3.554,3.554,0,0,1-2.993,1.47,3.046,3.046,0,0,1-2.393-1.064v4.932h-3.291V35.434h3.076l.1.977a3.046,3.046,0,0,1,2.49-1.172,3.582,3.582,0,0,1,3.037,1.44,6.45,6.45,0,0,1,1.084,3.96Zm-3.291-.205q0-2.812-1.641-2.812a1.549,1.549,0,0,0-1.562.84v4.16a1.6,1.6,0,0,0,1.582.879q1.572,0,1.621-2.715Zm4.326.029a6.236,6.236,0,0,1,.615-2.817,4.4,4.4,0,0,1,1.768-1.9,5.323,5.323,0,0,1,2.705-.664,4.858,4.858,0,0,1,3.74,1.47,5.64,5.64,0,0,1,1.367,4v.117a5.472,5.472,0,0,1-1.372,3.921,4.871,4.871,0,0,1-3.716,1.45,4.927,4.927,0,0,1-3.623-1.353,5.29,5.29,0,0,1-1.475-3.667Zm3.291.205a3.932,3.932,0,0,0,.459,2.148,1.529,1.529,0,0,0,1.357.684q1.758,0,1.8-2.705v-.332q0-2.842-1.816-2.842-1.65,0-1.787,2.451Zm14.746-2.412-1.084-.078a1.947,1.947,0,0,0-1.992.977V46h-3.291V35.434h3.086l.107,1.357a2.548,2.548,0,0,1,2.314-1.553,3.209,3.209,0,0,1,.918.117Zm10.635,5.244a1.464,1.464,0,0,0,1.074-.376,1.379,1.379,0,0,0,.371-1.05h3.086a3.653,3.653,0,0,1-1.245,2.852,4.631,4.631,0,0,1-3.208,1.113,4.689,4.689,0,0,1-3.633-1.445,5.7,5.7,0,0,1-1.328-4v-.137a6.436,6.436,0,0,1,.591-2.827,4.3,4.3,0,0,1,1.7-1.885,5.081,5.081,0,0,1,2.637-.659,4.573,4.573,0,0,1,3.271,1.143,4.053,4.053,0,0,1,1.211,3.1h-3.086a1.807,1.807,0,0,0-.4-1.26,1.382,1.382,0,0,0-1.074-.439q-1.279,0-1.494,1.631a11.507,11.507,0,0,0-.068,1.426,4.52,4.52,0,0,0,.381,2.207A1.319,1.319,0,0,0,172.876,43.656Zm5.508-3.037A6.236,6.236,0,0,1,179,37.8a4.4,4.4,0,0,1,1.768-1.9,5.323,5.323,0,0,1,2.705-.664,4.858,4.858,0,0,1,3.74,1.47,5.64,5.64,0,0,1,1.367,4v.117a5.472,5.472,0,0,1-1.372,3.921,4.871,4.871,0,0,1-3.716,1.45,4.927,4.927,0,0,1-3.623-1.353,5.29,5.29,0,0,1-1.475-3.667Zm3.291.205a3.932,3.932,0,0,0,.459,2.148,1.529,1.529,0,0,0,1.357.684q1.758,0,1.8-2.705v-.332q0-2.842-1.816-2.842-1.65,0-1.787,2.451Zm11.377-5.391.107,1.24a3.583,3.583,0,0,1,3.018-1.436,3.015,3.015,0,0,1,2.466.986,4.7,4.7,0,0,1,.845,2.969V46h-3.3V39.33a1.783,1.783,0,0,0-.322-1.177,1.491,1.491,0,0,0-1.172-.376,1.569,1.569,0,0,0-1.436.762V46h-3.291V35.434Zm13.789,7.6a.76.76,0,0,0-.439-.674,6.685,6.685,0,0,0-1.67-.527,7.615,7.615,0,0,1-2.031-.718,3.4,3.4,0,0,1-1.221-1.079,2.577,2.577,0,0,1-.42-1.455,2.92,2.92,0,0,1,1.2-2.4,4.948,4.948,0,0,1,3.145-.942,5.482,5.482,0,0,1,3.359.947,2.962,2.962,0,0,1,1.27,2.49h-3.3q0-1.27-1.338-1.27a1.326,1.326,0,0,0-.869.288.892.892,0,0,0-.352.718.819.819,0,0,0,.43.713,4.06,4.06,0,0,0,1.372.449,11.857,11.857,0,0,1,1.655.42,3.007,3.007,0,0,1,2.383,2.939,2.767,2.767,0,0,1-1.284,2.354,5.632,5.632,0,0,1-3.325.908,5.747,5.747,0,0,1-2.422-.488,4.05,4.05,0,0,1-1.66-1.328,3.007,3.007,0,0,1-.6-1.768H203.8a1.272,1.272,0,0,0,.488,1.069,2.009,2.009,0,0,0,1.2.337,1.58,1.58,0,0,0,1.011-.273A.875.875,0,0,0,206.841,43.031Zm11.006,1.826a3.393,3.393,0,0,1-2.822,1.338,3.328,3.328,0,0,1-2.632-1.011,4.251,4.251,0,0,1-.894-2.905V35.434h3.291V42.3a1.183,1.183,0,0,0,1.318,1.357,1.72,1.72,0,0,0,1.611-.811V35.434h3.311V46h-3.086Zm8.1-9.424.107,1.24a3.633,3.633,0,0,1,3.018-1.436,2.675,2.675,0,0,1,2.705,1.592,3.516,3.516,0,0,1,3.105-1.592q3.213,0,3.3,3.887V46h-3.3V39.33a2.014,2.014,0,0,0-.273-1.182,1.164,1.164,0,0,0-1-.371,1.559,1.559,0,0,0-1.455.869l.01.137V46h-3.3V39.35a2.117,2.117,0,0,0-.264-1.2,1.161,1.161,0,0,0-1.006-.371,1.578,1.578,0,0,0-1.445.869V46h-3.291V35.434Zm13.7,5.186a6.236,6.236,0,0,1,.615-2.817,4.4,4.4,0,0,1,1.768-1.9,5.323,5.323,0,0,1,2.705-.664,4.858,4.858,0,0,1,3.74,1.47,5.64,5.64,0,0,1,1.367,4v.117a5.472,5.472,0,0,1-1.372,3.921,4.871,4.871,0,0,1-3.716,1.45,4.927,4.927,0,0,1-3.623-1.353,5.29,5.29,0,0,1-1.475-3.667Zm3.291.205a3.932,3.932,0,0,0,.459,2.148,1.529,1.529,0,0,0,1.357.684q1.758,0,1.8-2.705v-.332q0-2.842-1.816-2.842-1.65,0-1.787,2.451Zm12.92-.186a6.455,6.455,0,0,1,1.084-3.955,3.568,3.568,0,0,1,3.027-1.445,3.035,3.035,0,0,1,2.383,1.113V31h3.3V46H262.69l-.166-1.133a3.116,3.116,0,0,1-2.578,1.328,3.562,3.562,0,0,1-2.988-1.445A6.659,6.659,0,0,1,255.854,40.639Zm3.291.205q0,2.813,1.641,2.813a1.62,1.62,0,0,0,1.563-.918V38.715a1.576,1.576,0,0,0-1.543-.937q-1.523,0-1.65,2.461ZM272.632,46.2a5.432,5.432,0,0,1-3.936-1.45,5.008,5.008,0,0,1-1.5-3.774V40.7a6.489,6.489,0,0,1,.6-2.861,4.395,4.395,0,0,1,1.753-1.919,5.292,5.292,0,0,1,2.734-.679A4.574,4.574,0,0,1,275.8,36.62a5.43,5.43,0,0,1,1.289,3.853v1.279h-6.543a2.372,2.372,0,0,0,.771,1.4,2.3,2.3,0,0,0,1.543.508,2.958,2.958,0,0,0,2.441-1.094l1.5,1.777a4.2,4.2,0,0,1-1.743,1.353A5.891,5.891,0,0,1,272.632,46.2Zm-.371-8.418q-1.445,0-1.719,1.914h3.32v-.254a1.63,1.63,0,0,0-.4-1.226A1.593,1.593,0,0,0,272.261,37.777ZM43.716,70.031a.76.76,0,0,0-.439-.674,6.684,6.684,0,0,0-1.67-.527,7.615,7.615,0,0,1-2.031-.718,3.4,3.4,0,0,1-1.221-1.079,2.577,2.577,0,0,1-.42-1.455,2.92,2.92,0,0,1,1.2-2.4,4.948,4.948,0,0,1,3.145-.942,5.482,5.482,0,0,1,3.359.947,2.962,2.962,0,0,1,1.27,2.49h-3.3q0-1.27-1.338-1.27a1.326,1.326,0,0,0-.869.288.892.892,0,0,0-.352.718.819.819,0,0,0,.43.713,4.06,4.06,0,0,0,1.372.449,11.857,11.857,0,0,1,1.655.42,3.007,3.007,0,0,1,2.383,2.939,2.767,2.767,0,0,1-1.284,2.354,5.632,5.632,0,0,1-3.325.908,5.747,5.747,0,0,1-2.422-.488,4.05,4.05,0,0,1-1.66-1.328,3.007,3.007,0,0,1-.6-1.768h3.076a1.272,1.272,0,0,0,.488,1.069,2.009,2.009,0,0,0,1.2.337,1.58,1.58,0,0,0,1.011-.273A.875.875,0,0,0,43.716,70.031Zm11.006,1.826A3.393,3.393,0,0,1,51.9,73.2a3.328,3.328,0,0,1-2.632-1.011,4.251,4.251,0,0,1-.894-2.905V62.434h3.291V69.3a1.183,1.183,0,0,0,1.318,1.357,1.72,1.72,0,0,0,1.611-.811V62.434h3.311V73H54.819Zm10.518-1.826a.76.76,0,0,0-.439-.674,6.684,6.684,0,0,0-1.67-.527,7.615,7.615,0,0,1-2.031-.718,3.4,3.4,0,0,1-1.221-1.079,2.577,2.577,0,0,1-.42-1.455,2.92,2.92,0,0,1,1.2-2.4,4.948,4.948,0,0,1,3.145-.942,5.482,5.482,0,0,1,3.359.947,2.962,2.962,0,0,1,1.27,2.49h-3.3q0-1.27-1.338-1.27a1.326,1.326,0,0,0-.869.288.892.892,0,0,0-.352.718.819.819,0,0,0,.43.713,4.06,4.06,0,0,0,1.372.449,11.857,11.857,0,0,1,1.655.42,3.007,3.007,0,0,1,2.383,2.939,2.767,2.767,0,0,1-1.284,2.354A5.631,5.631,0,0,1,63.8,73.2a5.747,5.747,0,0,1-2.422-.488,4.05,4.05,0,0,1-1.66-1.328,3.007,3.007,0,0,1-.6-1.768H62.2a1.272,1.272,0,0,0,.488,1.069,2.009,2.009,0,0,0,1.2.337,1.58,1.58,0,0,0,1.011-.273A.875.875,0,0,0,65.239,70.031Zm8.545-10.225v2.627h1.738v2.285H73.784v4.834a1.234,1.234,0,0,0,.215.83,1.152,1.152,0,0,0,.85.234,4.828,4.828,0,0,0,.82-.059v2.354a6.074,6.074,0,0,1-1.855.283,3.448,3.448,0,0,1-2.51-.8,3.282,3.282,0,0,1-.811-2.432V64.719H69.146V62.434h1.348V59.807ZM82.769,73a3.716,3.716,0,0,1-.312-.947A3.06,3.06,0,0,1,79.917,73.2a3.749,3.749,0,0,1-2.539-.9,2.875,2.875,0,0,1-1.045-2.271,2.955,2.955,0,0,1,1.27-2.6,6.468,6.468,0,0,1,3.691-.879H82.31v-.559q0-1.462-1.26-1.462a1.03,1.03,0,0,0-1.172,1.158H76.587a2.95,2.95,0,0,1,1.3-2.487,5.479,5.479,0,0,1,3.325-.956,4.8,4.8,0,0,1,3.193.986,3.429,3.429,0,0,1,1.2,2.705v4.678a4.79,4.79,0,0,0,.449,2.227V73Zm-2.061-2.148a1.836,1.836,0,0,0,1.021-.264,1.653,1.653,0,0,0,.581-.6V68.3h-.957q-1.719,0-1.719,1.543a.942.942,0,0,0,.3.728A1.1,1.1,0,0,0,80.708,70.852Zm9.746-8.418.107,1.24a3.583,3.583,0,0,1,3.018-1.436,3.015,3.015,0,0,1,2.466.986,4.7,4.7,0,0,1,.845,2.969V73h-3.3V66.33a1.783,1.783,0,0,0-.322-1.177,1.491,1.491,0,0,0-1.172-.376,1.569,1.569,0,0,0-1.436.762V73H87.368V62.434Zm12.725,8.223a1.464,1.464,0,0,0,1.074-.376,1.379,1.379,0,0,0,.371-1.05h3.086a3.653,3.653,0,0,1-1.245,2.852,4.631,4.631,0,0,1-3.208,1.113,4.689,4.689,0,0,1-3.633-1.445,5.7,5.7,0,0,1-1.328-4v-.137a6.436,6.436,0,0,1,.591-2.827,4.3,4.3,0,0,1,1.7-1.885,5.081,5.081,0,0,1,2.637-.659,4.573,4.573,0,0,1,3.271,1.143,4.053,4.053,0,0,1,1.211,3.1h-3.086a1.806,1.806,0,0,0-.4-1.26,1.382,1.382,0,0,0-1.074-.439q-1.279,0-1.494,1.631a11.508,11.508,0,0,0-.068,1.426,4.52,4.52,0,0,0,.381,2.207A1.319,1.319,0,0,0,103.179,70.656ZM112.573,73h-3.3V62.434h3.3Zm-3.5-13.3a1.482,1.482,0,0,1,.508-1.159,2.149,2.149,0,0,1,2.637,0,1.577,1.577,0,0,1,0,2.319,2.149,2.149,0,0,1-2.637,0A1.482,1.482,0,0,1,109.077,59.7ZM120.552,73a3.716,3.716,0,0,1-.312-.947A3.06,3.06,0,0,1,117.7,73.2a3.749,3.749,0,0,1-2.539-.9,2.875,2.875,0,0,1-1.045-2.271,2.955,2.955,0,0,1,1.27-2.6,6.468,6.468,0,0,1,3.691-.879h1.016v-.559q0-1.462-1.26-1.462a1.03,1.03,0,0,0-1.172,1.158H114.37a2.95,2.95,0,0,1,1.3-2.487A5.479,5.479,0,0,1,119,62.238a4.8,4.8,0,0,1,3.193.986,3.429,3.429,0,0,1,1.2,2.705v4.678a4.79,4.79,0,0,0,.449,2.227V73Zm-2.061-2.148a1.836,1.836,0,0,0,1.021-.264,1.653,1.653,0,0,0,.581-.6V68.3h-.957q-1.719,0-1.719,1.543a.942.942,0,0,0,.3.728A1.1,1.1,0,0,0,118.491,70.852Zm12.256-.82a.76.76,0,0,0-.439-.674,6.684,6.684,0,0,0-1.67-.527,7.615,7.615,0,0,1-2.031-.718,3.4,3.4,0,0,1-1.221-1.079,2.577,2.577,0,0,1-.42-1.455,2.92,2.92,0,0,1,1.2-2.4,4.948,4.948,0,0,1,3.145-.942,5.482,5.482,0,0,1,3.359.947,2.962,2.962,0,0,1,1.27,2.49h-3.3q0-1.27-1.338-1.27a1.326,1.326,0,0,0-.869.288.892.892,0,0,0-.352.718.819.819,0,0,0,.43.713,4.06,4.06,0,0,0,1.372.449,11.858,11.858,0,0,1,1.655.42,3.007,3.007,0,0,1,2.383,2.939,2.767,2.767,0,0,1-1.284,2.354,5.632,5.632,0,0,1-3.325.908,5.747,5.747,0,0,1-2.422-.488,4.05,4.05,0,0,1-1.66-1.328,3.007,3.007,0,0,1-.6-1.768h3.076a1.272,1.272,0,0,0,.488,1.069,2.009,2.009,0,0,0,1.2.337,1.58,1.58,0,0,0,1.011-.273A.875.875,0,0,0,130.747,70.031Zm19.5-2.236a6.372,6.372,0,0,1-1.108,3.931,3.554,3.554,0,0,1-2.993,1.47,3.046,3.046,0,0,1-2.393-1.064v4.932h-3.291V62.434h3.076l.1.977a3.046,3.046,0,0,1,2.49-1.172,3.582,3.582,0,0,1,3.037,1.44,6.45,6.45,0,0,1,1.084,3.96Zm-3.291-.205q0-2.812-1.641-2.812a1.549,1.549,0,0,0-1.562.84v4.16a1.6,1.6,0,0,0,1.582.879q1.572,0,1.621-2.715Zm10.273,2.441a.76.76,0,0,0-.439-.674,6.684,6.684,0,0,0-1.67-.527,7.615,7.615,0,0,1-2.031-.718,3.4,3.4,0,0,1-1.221-1.079,2.577,2.577,0,0,1-.42-1.455,2.92,2.92,0,0,1,1.2-2.4,4.948,4.948,0,0,1,3.145-.942,5.482,5.482,0,0,1,3.359.947,2.962,2.962,0,0,1,1.27,2.49h-3.3q0-1.27-1.338-1.27a1.326,1.326,0,0,0-.869.288.892.892,0,0,0-.352.718.819.819,0,0,0,.43.713,4.06,4.06,0,0,0,1.372.449,11.858,11.858,0,0,1,1.655.42,3.007,3.007,0,0,1,2.383,2.939,2.767,2.767,0,0,1-1.284,2.354,5.632,5.632,0,0,1-3.325.908,5.747,5.747,0,0,1-2.422-.488,4.05,4.05,0,0,1-1.66-1.328,3.007,3.007,0,0,1-.6-1.768h3.076a1.272,1.272,0,0,0,.488,1.069,2.009,2.009,0,0,0,1.2.337,1.58,1.58,0,0,0,1.011-.273A.875.875,0,0,0,157.231,70.031ZM165.415,73h-3.3V62.434h3.3Zm-3.5-13.3a1.482,1.482,0,0,1,.508-1.159,2.149,2.149,0,0,1,2.637,0,1.577,1.577,0,0,1,0,2.319,2.149,2.149,0,0,1-2.637,0A1.482,1.482,0,0,1,161.919,59.7Zm9.99,10.957a1.464,1.464,0,0,0,1.074-.376,1.379,1.379,0,0,0,.371-1.05h3.086a3.653,3.653,0,0,1-1.245,2.852,4.631,4.631,0,0,1-3.208,1.113,4.689,4.689,0,0,1-3.633-1.445,5.7,5.7,0,0,1-1.328-4v-.137a6.436,6.436,0,0,1,.591-2.827,4.3,4.3,0,0,1,1.7-1.885,5.081,5.081,0,0,1,2.637-.659,4.573,4.573,0,0,1,3.271,1.143,4.053,4.053,0,0,1,1.211,3.1h-3.086a1.807,1.807,0,0,0-.4-1.26,1.382,1.382,0,0,0-1.074-.439q-1.279,0-1.494,1.631a11.507,11.507,0,0,0-.068,1.426,4.52,4.52,0,0,0,.381,2.207A1.319,1.319,0,0,0,171.909,70.656Zm5.508-3.037a6.236,6.236,0,0,1,.615-2.817,4.4,4.4,0,0,1,1.768-1.9,5.323,5.323,0,0,1,2.705-.664,4.858,4.858,0,0,1,3.74,1.47,5.64,5.64,0,0,1,1.367,4v.117a5.472,5.472,0,0,1-1.372,3.921,4.871,4.871,0,0,1-3.716,1.45,4.927,4.927,0,0,1-3.623-1.353,5.29,5.29,0,0,1-1.475-3.667Zm3.291.205a3.932,3.932,0,0,0,.459,2.148,1.529,1.529,0,0,0,1.357.684q1.758,0,1.8-2.705v-.332q0-2.842-1.816-2.842-1.65,0-1.787,2.451ZM195.015,73a3.716,3.716,0,0,1-.312-.947,3.06,3.06,0,0,1-2.539,1.143,3.749,3.749,0,0,1-2.539-.9,2.875,2.875,0,0,1-1.045-2.271,2.955,2.955,0,0,1,1.27-2.6,6.468,6.468,0,0,1,3.691-.879h1.016v-.559q0-1.462-1.26-1.462a1.03,1.03,0,0,0-1.172,1.158h-3.291a2.95,2.95,0,0,1,1.3-2.487,5.479,5.479,0,0,1,3.325-.956,4.8,4.8,0,0,1,3.193.986,3.429,3.429,0,0,1,1.2,2.705v4.678a4.79,4.79,0,0,0,.449,2.227V73Zm-2.061-2.148a1.836,1.836,0,0,0,1.021-.264,1.653,1.653,0,0,0,.581-.6V68.3H193.6q-1.719,0-1.719,1.543a.942.942,0,0,0,.3.728A1.1,1.1,0,0,0,192.954,70.852Zm11.191-.2a1.464,1.464,0,0,0,1.074-.376,1.379,1.379,0,0,0,.371-1.05h3.086a3.653,3.653,0,0,1-1.245,2.852,4.631,4.631,0,0,1-3.208,1.113,4.689,4.689,0,0,1-3.633-1.445,5.7,5.7,0,0,1-1.328-4v-.137a6.436,6.436,0,0,1,.591-2.827,4.3,4.3,0,0,1,1.7-1.885,5.081,5.081,0,0,1,2.637-.659,4.573,4.573,0,0,1,3.271,1.143,4.053,4.053,0,0,1,1.211,3.1h-3.086a1.807,1.807,0,0,0-.4-1.26,1.382,1.382,0,0,0-1.074-.439q-1.279,0-1.494,1.631a11.507,11.507,0,0,0-.068,1.426,4.52,4.52,0,0,0,.381,2.207A1.319,1.319,0,0,0,204.146,70.656Zm9.756-10.85v2.627h1.738v2.285H213.9v4.834a1.234,1.234,0,0,0,.215.83,1.152,1.152,0,0,0,.85.234,4.828,4.828,0,0,0,.82-.059v2.354a6.074,6.074,0,0,1-1.855.283,3.448,3.448,0,0,1-2.51-.8,3.282,3.282,0,0,1-.811-2.432V64.719h-1.348V62.434h1.348V59.807ZM220.405,73h-3.3V62.434h3.3Zm-3.5-13.3a1.482,1.482,0,0,1,.508-1.159,2.149,2.149,0,0,1,2.637,0,1.577,1.577,0,0,1,0,2.319,2.149,2.149,0,0,1-2.637,0A1.482,1.482,0,0,1,216.909,59.7Zm9.736,9.385,1.67-6.65h3.467L228.335,73h-3.359l-3.447-10.566H225ZM238.569,73a3.716,3.716,0,0,1-.312-.947,3.06,3.06,0,0,1-2.539,1.143,3.749,3.749,0,0,1-2.539-.9,2.875,2.875,0,0,1-1.045-2.271,2.955,2.955,0,0,1,1.27-2.6,6.468,6.468,0,0,1,3.691-.879h1.016v-.559q0-1.462-1.26-1.462a1.03,1.03,0,0,0-1.172,1.158h-3.291a2.95,2.95,0,0,1,1.3-2.487,5.479,5.479,0,0,1,3.325-.956,4.8,4.8,0,0,1,3.193.986,3.429,3.429,0,0,1,1.2,2.705v4.678a4.79,4.79,0,0,0,.449,2.227V73Zm-2.061-2.148a1.836,1.836,0,0,0,1.021-.264,1.653,1.653,0,0,0,.581-.6V68.3h-.957q-1.719,0-1.719,1.543a.942.942,0,0,0,.3.728A1.1,1.1,0,0,0,236.509,70.852Zm12.256-.82a.76.76,0,0,0-.439-.674,6.684,6.684,0,0,0-1.67-.527,7.615,7.615,0,0,1-2.031-.718,3.4,3.4,0,0,1-1.221-1.079,2.577,2.577,0,0,1-.42-1.455,2.92,2.92,0,0,1,1.2-2.4,4.948,4.948,0,0,1,3.145-.942,5.482,5.482,0,0,1,3.359.947,2.962,2.962,0,0,1,1.27,2.49h-3.3q0-1.27-1.338-1.27a1.326,1.326,0,0,0-.869.288.892.892,0,0,0-.352.718.819.819,0,0,0,.43.713,4.06,4.06,0,0,0,1.372.449,11.858,11.858,0,0,1,1.655.42,3.007,3.007,0,0,1,2.383,2.939,2.767,2.767,0,0,1-1.284,2.354,5.632,5.632,0,0,1-3.325.908,5.747,5.747,0,0,1-2.422-.488,4.05,4.05,0,0,1-1.66-1.328,3.007,3.007,0,0,1-.6-1.768h3.076a1.272,1.272,0,0,0,.488,1.069,2.009,2.009,0,0,0,1.2.337,1.58,1.58,0,0,0,1.011-.273A.875.875,0,0,0,248.765,70.031Zm7.148-1.533a6.356,6.356,0,0,1,.322-2.251,3.52,3.52,0,0,1,1.045-1.431,6.946,6.946,0,0,0,1.1-1.108,1.809,1.809,0,0,0,.376-1.108q0-1.475-1.27-1.475a1.178,1.178,0,0,0-.947.43,1.828,1.828,0,0,0-.381,1.162h-3.3a3.937,3.937,0,0,1,1.23-3.042,4.906,4.906,0,0,1,3.4-1.089,5.1,5.1,0,0,1,3.374,1.006,3.53,3.53,0,0,1,1.2,2.861,3.333,3.333,0,0,1-.322,1.475,4.984,4.984,0,0,1-1.035,1.357l-1.123,1.045a2.642,2.642,0,0,0-.664.942,3.735,3.735,0,0,0-.205,1.226Zm-.4,2.969a1.516,1.516,0,0,1,.522-1.187,2.064,2.064,0,0,1,2.607,0,1.609,1.609,0,0,1,0,2.373,2.064,2.064,0,0,1-2.607,0A1.516,1.516,0,0,1,255.513,71.467Z" transform="translate(650 8594)" fill="#12263f"/>
    <g id="Grupo_1110108" data-name="Grupo 1110108" transform="translate(460 8712.828)">
      <g id="Grupo_1110107" data-name="Grupo 1110107" transform="translate(0 0)" clip-path="url(#clip-path-2)">
        <path id="Trazado_899893" data-name="Trazado 899893" d="M55.371.706a4.96,4.96,0,1,1-4.96,4.96,4.96,4.96,0,0,1,4.96-4.96" transform="translate(22.523 0.315)" fill="#88c116"/>
        <path id="Trazado_899894" data-name="Trazado 899894" d="M4.251,52.932a3.647,3.647,0,1,1,0,7.293,3.647,3.647,0,0,1,0-7.293" transform="translate(0.27 23.649)" fill="#88c116"/>
        <path id="Trazado_899895" data-name="Trazado 899895" d="M64.6,18.562V63.927a6.537,6.537,0,0,1-6.564,6.564H12.815a6.538,6.538,0,0,1-6.564-6.564V18.562A6.538,6.538,0,0,1,12.815,12H58.034A6.537,6.537,0,0,1,64.6,18.562" transform="translate(2.793 5.36)" fill="#232b3f"/>
        <path id="Trazado_899896" data-name="Trazado 899896" d="M50.28,18.955V57.171H39.341V42.585H24.753V57.171H13.812V18.955H24.753V33.541H39.341V18.955Z" transform="translate(6.171 8.468)" fill="#7da8ff"/>
        <path id="Trazado_899897" data-name="Trazado 899897" d="M54.994,52.932a1.388,1.388,0,1,1-1.458,1.312,1.44,1.44,0,0,1,1.458-1.312" transform="translate(23.919 23.649)"/>
        <path id="Trazado_899898" data-name="Trazado 899898" d="M54.849,19.66a1.313,1.313,0,1,1-1.312,1.314,1.312,1.312,0,0,1,1.312-1.314" transform="translate(23.919 8.783)"/>
        <path id="Trazado_899899" data-name="Trazado 899899" d="M40.33,2.622a1.312,1.312,0,1,1-1.312,1.312A1.313,1.313,0,0,1,40.33,2.622" transform="translate(17.433 1.171)"/>
        <path id="Trazado_899900" data-name="Trazado 899900" d="M31,54.249a1.388,1.388,0,1,1-1.458,1.312c.146-.874.729-1.458,1.458-1.312" transform="translate(13.198 24.227)"/>
        <path id="Trazado_899901" data-name="Trazado 899901" d="M2.522,8.873A1.312,1.312,0,1,1,1.21,10.185,1.312,1.312,0,0,1,2.522,8.873" transform="translate(0.541 3.964)"/>
        <path id="Trazado_899902" data-name="Trazado 899902" d="M2.522,27.222A1.313,1.313,0,1,1,1.21,28.536a1.313,1.313,0,0,1,1.312-1.314" transform="translate(0.541 12.162)"/>
        <path id="Trazado_899903" data-name="Trazado 899903" d="M58.3,71.491H13.085a7.471,7.471,0,0,1-7.439-7.439V18.832a7.471,7.471,0,0,1,7.439-7.439H58.3a7.47,7.47,0,0,1,7.439,7.439V64.2A7.347,7.347,0,0,1,58.3,71.491M13.085,13.144a5.54,5.54,0,0,0-5.543,5.543V64.052a5.54,5.54,0,0,0,5.543,5.543H58.3a5.541,5.541,0,0,0,5.544-5.543V18.832A5.54,5.54,0,0,0,58.3,13.29H13.085Z" transform="translate(2.523 5.09)"/>
        <path id="Trazado_899904" data-name="Trazado 899904" d="M68.7,67.614a.941.941,0,0,1-.875-.875V14.955a5.54,5.54,0,0,0-5.543-5.543H10.352a.941.941,0,0,1-.875-.875.942.942,0,0,1,.875-.875H61.989A7.47,7.47,0,0,1,69.429,15.1V66.738a.729.729,0,0,1-.729.875" transform="translate(4.234 3.423)"/>
        <path id="Trazado_899905" data-name="Trazado 899905" d="M50.551,58.463H39.61a.94.94,0,0,1-.875-.875V43.876H25.9V57.588a.941.941,0,0,1-.875.875H14.083a.941.941,0,0,1-.875-.875V19.224a.94.94,0,0,1,.875-.874H25.022a.94.94,0,0,1,.875.874V32.936H38.735V19.224a.939.939,0,0,1,.875-.874H50.551a.942.942,0,0,1,.875.874V57.588a.944.944,0,0,1-.875.875m-10.065-1.9h9.19V20.1h-9.19V33.81a.941.941,0,0,1-.875.875H25.022a.94.94,0,0,1-.874-.875V20.1h-9.19V56.567h9.19V42.856a.941.941,0,0,1,.874-.877H39.61a.943.943,0,0,1,.875.877Z" transform="translate(5.901 8.198)"/>
        <path id="Trazado_899906" data-name="Trazado 899906" d="M55.686,11.962A6.008,6.008,0,0,1,49.7,5.981,5.916,5.916,0,0,1,55.686,0a5.981,5.981,0,0,1,0,11.962m0-10.065A4.078,4.078,0,0,0,51.6,5.981a4.175,4.175,0,0,0,4.084,4.084A4.078,4.078,0,0,0,59.77,5.981,4.175,4.175,0,0,0,55.686,1.9" transform="translate(22.207 0)"/>
        <path id="Trazado_899907" data-name="Trazado 899907" d="M4.521,61.471a4.522,4.522,0,1,1,4.524-4.523,4.544,4.544,0,0,1-4.524,4.523m0-7.293a2.768,2.768,0,0,0-2.769,2.771A2.68,2.68,0,0,0,4.521,59.72a2.681,2.681,0,0,0,2.771-2.772,2.768,2.768,0,0,0-2.771-2.771" transform="translate(0 23.423)"/>
      </g>
    </g>
    <g id="Grupo_1110110" data-name="Grupo 1110110" transform="translate(475 8467.696)">
      <g id="Grupo_1110109" data-name="Grupo 1110109" transform="translate(0 0)" clip-path="url(#clip-path-3)">
        <rect id="Rectángulo_404013" data-name="Rectángulo 404013" width="55.582" height="70.216" rx="3.428" transform="translate(14.634 10.2)" fill="#ecebed"/>
        <path id="Trazado_899908" data-name="Trazado 899908" d="M55.6,11.393a4.583,4.583,0,1,1-4.583,4.583A4.607,4.607,0,0,1,55.6,11.393" transform="translate(23.783 5.311)" fill="#fc974d"/>
        <path id="Trazado_899909" data-name="Trazado 899909" d="M4.3,42.244a3.7,3.7,0,1,1,0,7.393,3.7,3.7,0,0,1,0-7.393" transform="translate(0.282 19.694)" fill="#fc974d"/>
        <path id="Trazado_899910" data-name="Trazado 899910" d="M48.271,9.919c0,.3.148.591.148.887a4.606,4.606,0,0,1-4.583,4.582h-20.4a4.346,4.346,0,0,1-3.252-1.33,4.35,4.35,0,0,1-1.331-3.252A1.872,1.872,0,0,1,19,9.919a4.627,4.627,0,0,1,4.583-3.695H26.54A7.415,7.415,0,0,1,33.637.6a7.285,7.285,0,0,1,7.095,5.62h2.956a4.989,4.989,0,0,1,3.253,1.33,3.84,3.84,0,0,1,1.33,2.365" transform="translate(8.789 0.281)" fill="#414a56"/>
        <path id="Trazado_899911" data-name="Trazado 899911" d="M37.641,14.72a5.3,5.3,0,0,1,5.321,5.322c0,5.321-5.321,8.426-10.642,13.747C27,28.469,21.676,25.363,21.676,20.042A5.3,5.3,0,0,1,27,14.72c2.661,0,3.991,1.331,5.322,3.991,1.33-2.66,2.66-3.991,5.321-3.991" transform="translate(10.105 6.862)" fill="#ff5856"/>
        <path id="Trazado_899912" data-name="Trazado 899912" d="M53.657,47.286a1.33,1.33,0,1,1-1.33,1.33,1.33,1.33,0,0,1,1.33-1.33" transform="translate(24.395 22.045)"/>
        <path id="Trazado_899913" data-name="Trazado 899913" d="M52.951,22.08a1.33,1.33,0,1,1-1.331,1.33,1.33,1.33,0,0,1,1.331-1.33" transform="translate(24.065 10.294)"/>
        <path id="Trazado_899914" data-name="Trazado 899914" d="M49.221.706a1.331,1.331,0,1,1-1.331,1.33A1.33,1.33,0,0,1,49.221.706" transform="translate(22.326 0.329)"/>
        <path id="Trazado_899915" data-name="Trazado 899915" d="M15.849,1.311a1.33,1.33,0,1,1-1.331,1.33,1.329,1.329,0,0,1,1.331-1.33" transform="translate(6.768 0.611)"/>
        <path id="Trazado_899916" data-name="Trazado 899916" d="M3.246,15.829a1.33,1.33,0,1,1-1.33,1.33,1.33,1.33,0,0,1,1.33-1.33" transform="translate(0.893 7.379)"/>
        <path id="Trazado_899917" data-name="Trazado 899917" d="M2.54,32.767A1.331,1.331,0,1,1,1.21,34.1a1.33,1.33,0,0,1,1.33-1.33" transform="translate(0.564 15.276)"/>
        <path id="Trazado_899918" data-name="Trazado 899918" d="M44.164,16.7h-20.4a5.982,5.982,0,0,1-3.991-1.626,5.46,5.46,0,0,1-1.626-3.991,2.189,2.189,0,0,1,.148-1.035,5.688,5.688,0,0,1,5.469-4.435H26.13A8.459,8.459,0,0,1,33.965,0,8.256,8.256,0,0,1,41.8,5.617h2.365a5.986,5.986,0,0,1,3.992,1.626,5.206,5.206,0,0,1,1.478,2.809c0,.3.148.739.148,1.035A5.814,5.814,0,0,1,44.164,16.7m-20.4-9.313a3.786,3.786,0,0,0-3.7,2.957v.739a4.245,4.245,0,0,0,1.037,2.66,3.558,3.558,0,0,0,2.66,1.035h20.4a3.66,3.66,0,0,0,3.7-3.695v-.739a3.53,3.53,0,0,0-1.034-1.922,3.569,3.569,0,0,0-2.663-1.035H41.208a.938.938,0,0,1-.887-.739,6.477,6.477,0,0,0-6.208-4.878A6.318,6.318,0,0,0,27.9,6.652a.938.938,0,0,1-.887.739Z" transform="translate(8.461 0)"/>
        <path id="Trazado_899919" data-name="Trazado 899919" d="M60.819,78.343H15.289A5.931,5.931,0,0,1,9.376,72.43V12.264a5.931,5.931,0,0,1,5.913-5.913h7.982a.954.954,0,0,1,.887.887.828.828,0,0,1-.739.887H15.437A4.131,4.131,0,0,0,11.3,12.264V72.578a4.131,4.131,0,0,0,4.139,4.139h45.53a4.132,4.132,0,0,0,4.139-4.139V12.264a4.132,4.132,0,0,0-4.139-4.139H52.984a.953.953,0,0,1-.886-.887.954.954,0,0,1,.886-.887h7.983a5.931,5.931,0,0,1,5.913,5.913V72.578a6.138,6.138,0,0,1-6.061,5.765" transform="translate(4.371 2.961)"/>
        <path id="Trazado_899920" data-name="Trazado 899920" d="M4.582,50.8a4.583,4.583,0,0,1,0-9.165,4.583,4.583,0,1,1,0,9.165m0-7.391a2.806,2.806,0,0,0-2.808,2.808A2.717,2.717,0,0,0,4.582,49.03a2.718,2.718,0,0,0,2.809-2.809,2.808,2.808,0,0,0-2.809-2.808" transform="translate(0 19.412)"/>
        <path id="Trazado_899921" data-name="Trazado 899921" d="M55.927,21.821A5.617,5.617,0,1,1,61.544,16.2a5.615,5.615,0,0,1-5.617,5.617m0-9.165a3.7,3.7,0,1,0,3.7,3.7,3.659,3.659,0,0,0-3.7-3.7" transform="translate(23.455 4.936)"/>
        <path id="Trazado_899922" data-name="Trazado 899922" d="M56.057,66.533H15.405a.954.954,0,0,1-.887-.887V16.716a.887.887,0,0,1,1.774,0V64.76H55.17V16.716a.887.887,0,0,1,1.774,0v48.93a.953.953,0,0,1-.887.887" transform="translate(6.768 7.38)"/>
        <path id="Trazado_899923" data-name="Trazado 899923" d="M32.6,34.958h0a.767.767,0,0,1-.591-.295,41.907,41.907,0,0,0-3.844-3.548c-3.844-3.4-7.095-6.357-7.095-10.791a6.246,6.246,0,0,1,6.208-6.209A5.707,5.707,0,0,1,32.6,17.22a5.7,5.7,0,0,1,5.321-3.105,6.247,6.247,0,0,1,6.209,6.209c0,4.434-3.252,7.391-7.1,10.791-1.182,1.182-2.513,2.217-3.843,3.548-.148.295-.3.295-.591.295M27.28,15.889a4.447,4.447,0,0,0-4.434,4.435c0,3.547,2.808,6.208,6.5,9.46,1.034.887,2.069,1.922,3.252,2.957,1.034-1.035,2.217-2.07,3.252-2.957,3.695-3.252,6.5-5.765,6.5-9.46a4.448,4.448,0,0,0-4.435-4.435c-2.069,0-3.252.887-4.582,3.548a.894.894,0,0,1-.887.443,1.052,1.052,0,0,1-.887-.443c-1.183-2.661-2.217-3.548-4.287-3.548" transform="translate(9.824 6.58)"/>
        <path id="Trazado_899924" data-name="Trazado 899924" d="M31.438,32.726H18.43a.887.887,0,1,1,0-1.774H31.438a.954.954,0,0,1,.887.887.853.853,0,0,1-.887.887" transform="translate(8.179 14.43)"/>
        <path id="Trazado_899925" data-name="Trazado 899925" d="M48.983,35.247H18.53a.887.887,0,0,1,0-1.774H48.983a.887.887,0,0,1,0,1.774" transform="translate(8.225 15.605)"/>
        <path id="Trazado_899926" data-name="Trazado 899926" d="M31.438,38.977H18.43a.887.887,0,1,1,0-1.774H31.438a.954.954,0,0,1,.887.887.852.852,0,0,1-.887.887" transform="translate(8.179 17.344)"/>
        <path id="Trazado_899927" data-name="Trazado 899927" d="M48.983,41.5H18.53a.887.887,0,1,1,0-1.774H48.983a.887.887,0,1,1,0,1.774" transform="translate(8.225 18.519)"/>
        <path id="Trazado_899928" data-name="Trazado 899928" d="M31.438,45.329H18.43a.887.887,0,1,1,0-1.774H31.438a.954.954,0,0,1,.887.887c.148.444-.3.887-.887.887" transform="translate(8.179 20.305)"/>
        <path id="Trazado_899929" data-name="Trazado 899929" d="M48.983,47.85H18.53a.887.887,0,1,1,0-1.774H48.983a.887.887,0,1,1,0,1.774" transform="translate(8.225 21.48)"/>
      </g>
    </g>
    <g id="Grupo_1110112" data-name="Grupo 1110112" transform="translate(675.004 8328.058)">
      <g id="Grupo_1110111" data-name="Grupo 1110111" transform="translate(0 0)" clip-path="url(#clip-path-4)">
        <path id="Trazado_899930" data-name="Trazado 899930" d="M52.368,31.355a5.789,5.789,0,1,1-5.788,5.789,5.788,5.788,0,0,1,5.788-5.789" transform="translate(23.793 16.017)" fill="#ffdc67"/>
        <path id="Trazado_899931" data-name="Trazado 899931" d="M9.455,44.059a3.808,3.808,0,1,1-3.809,3.809,3.772,3.772,0,0,1,3.809-3.809" transform="translate(2.884 22.506)" fill="#ffdc67"/>
        <path id="Trazado_899932" data-name="Trazado 899932" d="M21.452.605a3.77,3.77,0,0,1,3.807,3.807,3.808,3.808,0,1,1-7.616,0A3.772,3.772,0,0,1,21.452.605" transform="translate(9.012 0.31)" fill="#ffdc67"/>
        <path id="Trazado_899933" data-name="Trazado 899933" d="M40.812,5.646A18.127,18.127,0,1,1,22.685,23.773,18.073,18.073,0,0,1,40.812,5.646" transform="translate(11.588 2.885)" fill="#ed6075"/>
        <path id="Trazado_899934" data-name="Trazado 899934" d="M46.1,17.685v5.637H40.461V29.11H34.673V23.322H29.037V17.685h5.635V11.9h5.788v5.788Z" transform="translate(14.833 6.078)" fill="#7da8ff"/>
        <path id="Trazado_899935" data-name="Trazado 899935" d="M45.74,40.5a11.033,11.033,0,0,1,0,15.537l-1.067,1.067L29.138,41.569,30.2,40.5a11.031,11.031,0,0,1,15.536,0" transform="translate(14.884 19.056)" fill="#bdcfe8"/>
        <path id="Trazado_899936" data-name="Trazado 899936" d="M20.282,15.1a11.033,11.033,0,0,1,0,15.537L19.217,31.7,3.831,16.162,4.9,15.1a10.848,10.848,0,0,1,15.385,0" transform="translate(1.957 6.078)" fill="#bdcfe8"/>
        <path id="Trazado_899937" data-name="Trazado 899937" d="M59.184,68.49a16.272,16.272,0,0,1-22.848,0L5.415,37.568a16.273,16.273,0,0,1,0-22.848l53.77,53.77" transform="translate(0.373 7.52)" fill="#9ab6e5"/>
        <path id="Trazado_899938" data-name="Trazado 899938" d="M52.489,24.5a1.37,1.37,0,1,1-1.372,1.37,1.37,1.37,0,0,1,1.372-1.37" transform="translate(26.111 12.515)"/>
        <path id="Trazado_899939" data-name="Trazado 899939" d="M49.261,2.521a1.37,1.37,0,1,1-1.37,1.372,1.37,1.37,0,0,1,1.37-1.372" transform="translate(24.463 1.288)"/>
        <path id="Trazado_899940" data-name="Trazado 899940" d="M48.656,47.891a1.37,1.37,0,1,1-1.37,1.37,1.37,1.37,0,0,1,1.37-1.37" transform="translate(24.154 24.464)"/>
        <path id="Trazado_899941" data-name="Trazado 899941" d="M17.8,8.167a1.37,1.37,0,1,1-1.37,1.372A1.37,1.37,0,0,1,17.8,8.167" transform="translate(8.395 4.172)"/>
        <path id="Trazado_899942" data-name="Trazado 899942" d="M16.494,52.226a1.37,1.37,0,1,1-1.37,1.37,1.37,1.37,0,0,1,1.37-1.37" transform="translate(7.725 26.678)"/>
        <path id="Trazado_899943" data-name="Trazado 899943" d="M5.807,2.521a1.37,1.37,0,1,1-1.37,1.372,1.37,1.37,0,0,1,1.37-1.372" transform="translate(2.266 1.288)"/>
        <path id="Trazado_899944" data-name="Trazado 899944" d="M2.681,39.018a1.371,1.371,0,1,1-1.37,1.372,1.37,1.37,0,0,1,1.37-1.372" transform="translate(0.67 19.931)"/>
        <path id="Trazado_899945" data-name="Trazado 899945" d="M40.77,30.333H34.982a.984.984,0,0,1-.914-.914V24.7H29.347a.984.984,0,0,1-.916-.914V18a.983.983,0,0,1,.916-.914h4.721V12.206a.984.984,0,0,1,.914-.914H40.77a.984.984,0,0,1,.914.914v4.721h4.723a.983.983,0,0,1,.913.914v5.789a.981.981,0,0,1-.913.913H41.684v4.723a1.02,1.02,0,0,1-.914,1.067M35.9,28.352H39.7V23.631a.983.983,0,0,1,.914-.914H45.34V18.908H40.617a.983.983,0,0,1-.914-.914V13.273H35.9v4.721a.983.983,0,0,1-.914.914H30.259v3.809h4.723a.983.983,0,0,1,.914.914Z" transform="translate(14.523 5.769)"/>
        <path id="Trazado_899946" data-name="Trazado 899946" d="M19.552,32.948a.787.787,0,0,1-.609-.305,1.134,1.134,0,0,1,0-1.37l1.065-1.067A10.046,10.046,0,0,0,22.9,23.2a9.773,9.773,0,0,0-2.895-7.006,9.928,9.928,0,0,0-14.165,0l-1.067.914a1.141,1.141,0,0,1-1.372,0,1.136,1.136,0,0,1,0-1.372l1.068-1.067a11.952,11.952,0,0,1,16.753,0,11.766,11.766,0,0,1,0,16.756L20.159,32.49c-.151.305-.3.458-.607.458" transform="translate(1.622 5.743)"/>
        <path id="Trazado_899947" data-name="Trazado 899947" d="M44.957,58.2a.792.792,0,0,1-.609-.305,1.139,1.139,0,0,1,0-1.37l1.067-1.067a10.041,10.041,0,0,0,2.895-7.007,9.778,9.778,0,0,0-2.895-7.006,9.928,9.928,0,0,0-14.165,0l-1.067,1.065a.969.969,0,1,1-1.37-1.37l1.067-1.067a11.95,11.95,0,0,1,16.753,0,11.766,11.766,0,0,1,0,16.756L45.566,57.9c-.151.305-.3.305-.609.305" transform="translate(14.6 18.721)"/>
        <path id="Trazado_899948" data-name="Trazado 899948" d="M48.133,74.638a17.569,17.569,0,0,1-12.185-5.026L5.027,38.537a17.1,17.1,0,0,1,0-24.22,1.166,1.166,0,0,1,.609-.3.8.8,0,0,1,.61.3L60.167,68.24a1.146,1.146,0,0,1,.305.61.787.787,0,0,1-.305.609,16.481,16.481,0,0,1-12.034,5.179M5.788,16.451A15.306,15.306,0,0,0,6.4,37.32L37.319,68.24a15.318,15.318,0,0,0,20.869.61Z" transform="translate(0 7.159)"/>
        <path id="Trazado_899949" data-name="Trazado 899949" d="M42.265,58.525a.79.79,0,0,1-.609-.305L7.841,24.557a1.136,1.136,0,0,1,0-1.372c.3-.456.913-.3,1.37,0L42.874,56.849a1.134,1.134,0,0,1,0,1.37.606.606,0,0,1-.609.305" transform="translate(3.889 11.697)"/>
        <path id="Trazado_899950" data-name="Trazado 899950" d="M41.12,43.021A19.041,19.041,0,1,1,60.161,23.981,19.046,19.046,0,0,1,41.12,43.021m0-36.1A17.213,17.213,0,1,0,58.333,24.133,17.195,17.195,0,0,0,41.12,6.921" transform="translate(11.279 2.524)"/>
        <path id="Trazado_899951" data-name="Trazado 899951" d="M57.84,26.592a.983.983,0,0,1-.913-.914A21.942,21.942,0,0,0,34.992,3.743a.982.982,0,0,1-.914-.914.982.982,0,0,1,.914-.913A23.792,23.792,0,0,1,58.754,25.678a.983.983,0,0,1-.914.914" transform="translate(17.407 0.979)"/>
        <path id="Trazado_899952" data-name="Trazado 899952" d="M21.76,9.444A4.722,4.722,0,0,1,21.76,0a4.747,4.747,0,0,1,4.723,4.721A4.747,4.747,0,0,1,21.76,9.444m0-7.616a2.892,2.892,0,0,0-2.893,2.893,2.894,2.894,0,1,0,5.788,0A2.892,2.892,0,0,0,21.76,1.828" transform="translate(8.704 0.001)"/>
        <path id="Trazado_899953" data-name="Trazado 899953" d="M52.677,44.155a6.7,6.7,0,1,1,6.7-6.7,6.762,6.762,0,0,1-6.7,6.7m0-11.423A4.722,4.722,0,1,0,57.4,37.453a4.747,4.747,0,0,0-4.721-4.721" transform="translate(23.484 15.708)"/>
        <path id="Trazado_899954" data-name="Trazado 899954" d="M9.764,52.9a4.722,4.722,0,1,1,4.721-4.721A4.558,4.558,0,0,1,9.764,52.9m0-7.616a2.892,2.892,0,0,0-2.895,2.895,2.8,2.8,0,0,0,2.895,2.895,2.895,2.895,0,0,0,0-5.789" transform="translate(2.575 22.197)"/>
      </g>
    </g>
    <g id="Grupo_1110115" data-name="Grupo 1110115" transform="translate(924.004 8344.397)">
      <path id="Trazado_899955" data-name="Trazado 899955" d="M12,.5V67.6H61.045V10.315h-9.81V.5Z" transform="translate(3.566 0.15)" fill="#ecebed"/>
      <g id="Grupo_1110114" data-name="Grupo 1110114" transform="translate(0 0)">
        <g id="Grupo_1110113" data-name="Grupo 1110113" clip-path="url(#clip-path-5)">
          <path id="Trazado_899956" data-name="Trazado 899956" d="M62.245,34.685a13.039,13.039,0,0,1-5.232,11.642c-9.548,6.931-7.193,5.231-7.585,5.493l-7.586-5.493a12.9,12.9,0,0,1-5.232-11.642l.654-7.193c7.324-.13,12.164-6.017,12.164-6.017a18.343,18.343,0,0,0,4.316,3.663,15.938,15.938,0,0,0,7.847,2.484Z" transform="translate(10.868 6.384)" fill="#ff5856"/>
          <path id="Trazado_899957" data-name="Trazado 899957" d="M55.988,48.5a3.662,3.662,0,1,1-3.662,3.661A3.743,3.743,0,0,1,55.988,48.5" transform="translate(15.554 14.416)" fill="#88c116"/>
          <path id="Trazado_899958" data-name="Trazado 899958" d="M3.089,37.809a2.485,2.485,0,0,1,2.487,2.486,2.407,2.407,0,0,1-2.487,2.484,2.485,2.485,0,0,1,0-4.97" transform="translate(0.18 11.24)" fill="#88c116"/>
          <path id="Trazado_899959" data-name="Trazado 899959" d="M53.041,32.811V37H49.77v3.269H45.716V37h-3.27V32.811h3.27V29.541H49.77v3.269Z" transform="translate(12.617 8.782)" fill="#ecebed"/>
          <path id="Trazado_899960" data-name="Trazado 899960" d="M52.054,10.415h-9.81V.605l9.81,9.81" transform="translate(12.557 0.18)" fill="#bcb7c6"/>
          <path id="Trazado_899961" data-name="Trazado 899961" d="M52.734,65.713v6.539H6.957V6.856H13.5V65.713Z" transform="translate(2.068 2.039)" fill="#bcb7c6"/>
          <path id="Trazado_899962" data-name="Trazado 899962" d="M55.419,18.249a1.177,1.177,0,1,1-1.177,1.177,1.177,1.177,0,0,1,1.177-1.177" transform="translate(16.124 5.425)"/>
          <path id="Trazado_899963" data-name="Trazado 899963" d="M51.689,2.52A1.177,1.177,0,1,1,50.511,3.7,1.177,1.177,0,0,1,51.689,2.52" transform="translate(15.015 0.75)"/>
          <path id="Trazado_899964" data-name="Trazado 899964" d="M4.4,1.21A1.177,1.177,0,1,1,3.226,2.387,1.176,1.176,0,0,1,4.4,1.21" transform="translate(0.959 0.36)"/>
          <path id="Trazado_899965" data-name="Trazado 899965" d="M4.4,47.891a1.177,1.177,0,1,1-1.178,1.177A1.176,1.176,0,0,1,4.4,47.891" transform="translate(0.959 14.237)"/>
          <path id="Trazado_899966" data-name="Trazado 899966" d="M3.194,25.206a1.177,1.177,0,1,1-1.177,1.177,1.176,1.176,0,0,1,1.177-1.177" transform="translate(0.6 7.493)"/>
          <path id="Trazado_899967" data-name="Trazado 899967" d="M49.949,41.2H45.895a.844.844,0,0,1-.785-.785V37.93H42.625a.843.843,0,0,1-.784-.784V33.092a.844.844,0,0,1,.784-.786H45.11V29.821a.844.844,0,0,1,.785-.784h4.054a.844.844,0,0,1,.786.784v2.486h2.486a.844.844,0,0,1,.784.786v4.054a.843.843,0,0,1-.784.784H50.735v2.486a.844.844,0,0,1-.786.785M46.68,39.5h2.486V37.015a.843.843,0,0,1,.784-.785h2.486V33.745H49.949a.843.843,0,0,1-.784-.785V30.476H46.68V32.96a.843.843,0,0,1-.785.785H43.409V36.23h2.486a.843.843,0,0,1,.785.785Z" transform="translate(12.438 8.632)"/>
          <path id="Trazado_899968" data-name="Trazado 899968" d="M52.915,73.318H7.137a.844.844,0,0,1-.785-.785V7.137a.844.844,0,0,1,.785-.784h6.539a.843.843,0,0,1,.785.784.844.844,0,0,1-.785.786H7.922V71.748H52.13V65.993a.785.785,0,0,1,1.57,0v6.539a.754.754,0,0,1-.785.785" transform="translate(1.888 1.889)"/>
          <path id="Trazado_899969" data-name="Trazado 899969" d="M52.234,11.378h-9.81a.844.844,0,0,1-.785-.785V.785a.785.785,0,0,1,1.57,0V9.81h9.025a.844.844,0,0,1,.785.784.754.754,0,0,1-.785.785" transform="translate(12.378 0.001)"/>
          <path id="Trazado_899970" data-name="Trazado 899970" d="M3.269,43.641a3.27,3.27,0,0,1,0-6.539,3.27,3.27,0,1,1,0,6.539m0-4.839a1.7,1.7,0,0,0,0,3.4,1.7,1.7,0,1,0,0-3.4" transform="translate(0 11.029)"/>
          <path id="Trazado_899971" data-name="Trazado 899971" d="M61.225,68.667H12.178a.844.844,0,0,1-.785-.785V.786A.844.844,0,0,1,12.178,0H51.415a.685.685,0,0,1,.524.262l9.809,9.81a.994.994,0,0,1,.262.523v20.8a.785.785,0,1,1-1.57,0V10.855L51.153,1.57H12.961v65.4H60.44V54.934a.785.785,0,0,1,1.57,0V67.752c0,.521-.262.915-.785.915" transform="translate(3.387 0.001)"/>
          <path id="Trazado_899972" data-name="Trazado 899972" d="M49.607,52.683a.783.783,0,0,1-.523-.131l-7.457-5.493A13.887,13.887,0,0,1,36,34.764l.655-7.192a.843.843,0,0,1,.785-.786c6.8-.131,11.509-5.755,11.509-5.755a.945.945,0,0,1,1.306,0,19.765,19.765,0,0,0,4.057,3.4,15.611,15.611,0,0,0,7.454,2.353.845.845,0,0,1,.786.786l.654,7.192a13.608,13.608,0,0,1-5.625,12.3L50,52.552c0,.131-.131.131-.393.131M38.228,28.355l-.655,6.539A11.916,11.916,0,0,0,42.544,45.75l7.062,5.1,7.064-5.1a12.208,12.208,0,0,0,4.97-10.855l-.655-6.539A16.8,16.8,0,0,1,53.4,25.871a23.715,23.715,0,0,1-3.924-3.139,17.22,17.22,0,0,1-11.247,5.624" transform="translate(10.689 6.174)"/>
          <path id="Trazado_899973" data-name="Trazado 899973" d="M41.462,12.257H15.3a.845.845,0,0,1-.786-.785.845.845,0,0,1,.786-.785H41.462a.844.844,0,0,1,.785.785c.131.392-.262.785-.785.785" transform="translate(4.316 3.177)"/>
          <path id="Trazado_899974" data-name="Trazado 899974" d="M49.7,15.484H15.3a.785.785,0,1,1,0-1.57H49.7a.785.785,0,1,1,0,1.57" transform="translate(4.316 4.137)"/>
          <path id="Trazado_899975" data-name="Trazado 899975" d="M49.7,18.609H15.3a.785.785,0,1,1,0-1.57H49.7a.785.785,0,1,1,0,1.57" transform="translate(4.316 5.066)"/>
          <path id="Trazado_899976" data-name="Trazado 899976" d="M49.7,21.735H15.3a.785.785,0,1,1,0-1.57H49.7a.785.785,0,1,1,0,1.57" transform="translate(4.316 5.995)"/>
          <path id="Trazado_899977" data-name="Trazado 899977" d="M41.462,24.86H15.3a.785.785,0,1,1,0-1.57H41.462a.844.844,0,0,1,.785.785c.131.392-.262.785-.785.785" transform="translate(4.316 6.924)"/>
          <path id="Trazado_899978" data-name="Trazado 899978" d="M39.108,28.086H15.3a.785.785,0,1,1,0-1.57H38.977a.845.845,0,0,1,.785.785.655.655,0,0,1-.654.785" transform="translate(4.316 7.883)"/>
          <path id="Trazado_899979" data-name="Trazado 899979" d="M39.108,31.211H15.3a.785.785,0,1,1,0-1.57H38.977a.845.845,0,0,1,.785.785.732.732,0,0,1-.654.785" transform="translate(4.316 8.812)"/>
          <path id="Trazado_899980" data-name="Trazado 899980" d="M39.108,34.337H15.3a.785.785,0,0,1,0-1.57H38.977a.845.845,0,0,1,.785.785.733.733,0,0,1-.654.785" transform="translate(4.316 9.741)"/>
          <path id="Trazado_899981" data-name="Trazado 899981" d="M39.108,37.462H15.3a.785.785,0,1,1,0-1.57H38.977a.845.845,0,0,1,.785.786.732.732,0,0,1-.654.784" transform="translate(4.316 10.67)"/>
          <path id="Trazado_899982" data-name="Trazado 899982" d="M56.168,56.785a4.447,4.447,0,1,1,4.447-4.447,4.33,4.33,0,0,1-4.447,4.447m0-7.324a2.877,2.877,0,1,0,2.877,2.877,2.9,2.9,0,0,0-2.877-2.877" transform="translate(15.375 14.237)"/>
        </g>
      </g>
    </g>
    <g id="Grupo_1110117" data-name="Grupo 1110117" transform="translate(1031.48 8456.813)">
      <g id="Grupo_1110116" data-name="Grupo 1110116" transform="translate(0 0)" clip-path="url(#clip-path-6)">
        <path id="Trazado_899983" data-name="Trazado 899983" d="M55.176,46.681a4.16,4.16,0,1,1-4.161,4.161,4.118,4.118,0,0,1,4.161-4.161" transform="translate(33.184 30.364)" fill="#88c116"/>
        <path id="Trazado_899984" data-name="Trazado 899984" d="M30.182.706a3.161,3.161,0,0,1,3.162,3.162,3.06,3.06,0,0,1-3.162,3.161,3.161,3.161,0,1,1,0-6.323" transform="translate(17.576 0.459)" fill="#88c116"/>
        <path id="Trazado_899985" data-name="Trazado 899985" d="M24.929,6.957a4.16,4.16,0,1,1-4.159,4.159,4.12,4.12,0,0,1,4.159-4.159" transform="translate(13.51 4.525)" fill="#88c116"/>
        <path id="Trazado_899986" data-name="Trazado 899986" d="M40.917,24.876a7.388,7.388,0,0,1-11.316-2.5,6.764,6.764,0,0,1-.665-3.162,7.322,7.322,0,1,1,14.643,0,7.107,7.107,0,0,1-2.662,5.658" transform="translate(18.822 7.738)" fill="#88c116"/>
        <path id="Trazado_899987" data-name="Trazado 899987" d="M7.927,44.765A7.322,7.322,0,1,1,.605,52.088a7.322,7.322,0,0,1,7.322-7.323" transform="translate(0.394 29.118)" fill="#88c116"/>
        <rect id="Rectángulo_404017" data-name="Rectángulo 404017" width="49.655" height="8.472" transform="translate(27.29 75.214) rotate(-45)" fill="#bcb7c6"/>
        <path id="Trazado_899988" data-name="Trazado 899988" d="M60.446,25.608a30.429,30.429,0,0,1-42.6,42.6c1.5-1.332,40.105-39.938,42.6-42.6" transform="translate(11.608 16.657)" fill="#ecebed"/>
        <path id="Trazado_899989" data-name="Trazado 899989" d="M59.234,24.342C56.572,27,18.3,65.277,16.633,67.109A30.518,30.518,0,0,1,41.762,18.353a7.369,7.369,0,0,0,11.316,2.5,25.424,25.424,0,0,1,6.156,3.494" transform="translate(6.828 11.933)" fill="#ecebed"/>
        <path id="Trazado_899990" data-name="Trazado 899990" d="M53.824,34.078a1.5,1.5,0,1,1-1.5,1.5,1.5,1.5,0,0,1,1.5-1.5" transform="translate(34.038 22.166)"/>
        <path id="Trazado_899991" data-name="Trazado 899991" d="M47.472,15.829a1.5,1.5,0,1,1-1.5,1.5,1.5,1.5,0,0,1,1.5-1.5" transform="translate(29.906 10.296)"/>
        <path id="Trazado_899992" data-name="Trazado 899992" d="M45.658,3.831a1.5,1.5,0,1,1-1.5,1.5,1.5,1.5,0,0,1,1.5-1.5" transform="translate(28.725 2.491)"/>
        <path id="Trazado_899993" data-name="Trazado 899993" d="M14.7,13.308a1.5,1.5,0,1,1-1.5,1.5,1.5,1.5,0,0,1,1.5-1.5" transform="translate(8.592 8.656)"/>
        <path id="Trazado_899994" data-name="Trazado 899994" d="M14.7,53.032a1.5,1.5,0,1,1-1.5,1.5,1.5,1.5,0,0,1,1.5-1.5" transform="translate(8.592 34.496)"/>
        <path id="Trazado_899995" data-name="Trazado 899995" d="M12.891,1.916a1.5,1.5,0,1,1-1.5,1.5,1.5,1.5,0,0,1,1.5-1.5" transform="translate(7.41 1.246)"/>
        <path id="Trazado_899996" data-name="Trazado 899996" d="M4.018,26.516a1.5,1.5,0,1,1-1.5,1.5,1.5,1.5,0,0,1,1.5-1.5" transform="translate(1.64 17.247)"/>
        <path id="Trazado_899997" data-name="Trazado 899997" d="M44.16,31.713a.866.866,0,0,1-.665-.332L37.5,25.39a1.06,1.06,0,0,1,1.5-1.5l5.99,5.99a1.242,1.242,0,0,1,0,1.5,1.076,1.076,0,0,1-.832.332" transform="translate(24.233 15.378)"/>
        <path id="Trazado_899998" data-name="Trazado 899998" d="M22.885,52.987a.869.869,0,0,1-.665-.332l-5.991-5.991a1.244,1.244,0,0,1,0-1.5,1.239,1.239,0,0,1,1.5,0l5.991,5.991a1.239,1.239,0,0,1,0,1.5.916.916,0,0,1-.832.332" transform="translate(10.395 29.217)"/>
        <path id="Trazado_899999" data-name="Trazado 899999" d="M36.543,75.923h0A30.97,30.97,0,0,1,17.573,69.6a1.207,1.207,0,0,1,0-1.662l42.6-42.6A1.276,1.276,0,0,1,61.005,25c.333,0,.5.167.832.332A31.69,31.69,0,0,1,36.543,75.923M19.9,68.6A28.674,28.674,0,0,0,36.71,73.761a28.8,28.8,0,0,0,20.8-8.653,29.29,29.29,0,0,0,3.327-37.441Z" transform="translate(11.215 16.264)"/>
        <path id="Trazado_900000" data-name="Trazado 900000" d="M17.062,68.441h0a1.276,1.276,0,0,1-.832-.332,31.258,31.258,0,0,1,2.829-41.1,30.593,30.593,0,0,1,22.963-9.154,1,1,0,1,1,0,2A28.737,28.737,0,0,0,20.556,28.5a29.29,29.29,0,0,0-3.327,37.439L58.164,25.01A30.988,30.988,0,0,0,53,22.182a1.126,1.126,0,0,1-.665-1,1.074,1.074,0,0,1,1-1c.167,0,.333,0,.333.167a31.612,31.612,0,0,1,6.49,3.827,1.209,1.209,0,0,1,0,1.664L17.727,68.109a.866.866,0,0,1-.665.332" transform="translate(6.401 11.598)"/>
        <path id="Trazado_900001" data-name="Trazado 900001" d="M25.323,16.669a5.159,5.159,0,1,1,5.159-5.159,5.185,5.185,0,0,1-5.159,5.159m0-8.32a3.161,3.161,0,0,0,0,6.323,3.061,3.061,0,0,0,3.162-3.162,3.273,3.273,0,0,0-3.162-3.161" transform="translate(13.117 4.131)"/>
        <path id="Trazado_900002" data-name="Trazado 900002" d="M30.576,8.32a4.12,4.12,0,0,1-4.161-4.159,4.161,4.161,0,0,1,8.322,0A4.119,4.119,0,0,1,30.576,8.32m0-6.156a2.2,2.2,0,0,0-2.164,2.164,2.164,2.164,0,1,0,4.328,0,2.1,2.1,0,0,0-2.164-2.164" transform="translate(17.182 -0.001)"/>
        <path id="Trazado_900003" data-name="Trazado 900003" d="M36.651,28.035a8.2,8.2,0,0,1-7.488-4.826,8.933,8.933,0,0,1-.832-3.5,8.32,8.32,0,1,1,16.64,0,7.731,7.731,0,0,1-3,6.325,7.851,7.851,0,0,1-5.324,2m0-14.645a6.32,6.32,0,0,0-6.323,6.323,4.888,4.888,0,0,0,.665,2.662,6.1,6.1,0,0,0,5.658,3.494,5.958,5.958,0,0,0,3.993-1.5,6.544,6.544,0,0,0,2.164-4.826,6.038,6.038,0,0,0-6.156-6.156" transform="translate(18.429 7.41)"/>
        <path id="Trazado_900004" data-name="Trazado 900004" d="M55.569,56.392a5.159,5.159,0,1,1,5.158-5.158,5.185,5.185,0,0,1-5.158,5.158m0-8.32a3.161,3.161,0,1,0,3.162,3.162,3.161,3.161,0,0,0-3.162-3.162" transform="translate(32.791 29.97)"/>
        <path id="Trazado_900005" data-name="Trazado 900005" d="M8.32,60.8a8.32,8.32,0,1,1,0-16.64,8.239,8.239,0,0,1,8.32,8.32A8.455,8.455,0,0,1,8.32,60.8m0-14.643a6.323,6.323,0,1,0,6.323,6.323A6.429,6.429,0,0,0,8.32,46.157" transform="translate(0 28.725)"/>
      </g>
    </g>
    <g id="Grupo_1110119" data-name="Grupo 1110119" transform="translate(1064.463 8713.505)">
      <g id="Grupo_1110118" data-name="Grupo 1110118" transform="translate(0 0)" clip-path="url(#clip-path-7)">
        <path id="Trazado_900006" data-name="Trazado 900006" d="M81.262,22.483v39.8a7.984,7.984,0,0,1-7.96,7.96H8.666a7.983,7.983,0,0,1-7.96-7.96v-39.8Z" transform="translate(0.409 13.019)" fill="#ecebed"/>
        <path id="Trazado_900007" data-name="Trazado 900007" d="M51.871,5.143A3.98,3.98,0,1,1,47.89,9.124a4.043,4.043,0,0,1,3.981-3.981" transform="translate(27.73 2.978)" fill="#a4c7ff"/>
        <path id="Trazado_900008" data-name="Trazado 900008" d="M5.642.706A4.935,4.935,0,1,1,.706,5.641,4.96,4.96,0,0,1,5.642.706" transform="translate(0.409 0.409)" fill="#a4c7ff"/>
        <rect id="Rectángulo_404019" data-name="Rectángulo 404019" width="6.051" height="6.049" transform="translate(58.745 61.294)" fill="#88c116"/>
        <rect id="Rectángulo_404020" data-name="Rectángulo 404020" width="6.051" height="6.051" transform="translate(58.745 71.322)" fill="#88c116"/>
        <rect id="Rectángulo_404021" data-name="Rectángulo 404021" width="6.049" height="6.051" transform="translate(68.775 71.322)" fill="#88c116"/>
        <rect id="Rectángulo_404022" data-name="Rectángulo 404022" width="6.049" height="6.049" transform="translate(68.775 61.294)" fill="#88c116"/>
        <rect id="Rectángulo_404023" data-name="Rectángulo 404023" width="6.049" height="6.049" transform="translate(68.775 51.421)" fill="#88c116"/>
        <rect id="Rectángulo_404024" data-name="Rectángulo 404024" width="6.049" height="6.049" transform="translate(68.775 41.393)" fill="#88c116"/>
        <rect id="Rectángulo_404025" data-name="Rectángulo 404025" width="6.049" height="6.051" transform="translate(17.99 71.322)" fill="#88c116"/>
        <rect id="Rectángulo_404026" data-name="Rectángulo 404026" width="6.049" height="6.049" transform="translate(17.99 61.294)" fill="#88c116"/>
        <path id="Trazado_900009" data-name="Trazado 900009" d="M81.262,22.882v3.981H.706V22.882a7.983,7.983,0,0,1,7.96-7.96H73.143a8.018,8.018,0,0,1,8.119,7.96" transform="translate(0.409 8.641)" fill="#6d6d7c"/>
        <path id="Trazado_900010" data-name="Trazado 900010" d="M44.987,2.017a1.432,1.432,0,1,1-1.432,1.432,1.427,1.427,0,0,1,1.432-1.432" transform="translate(25.22 1.168)"/>
        <path id="Trazado_900011" data-name="Trazado 900011" d="M47.334,17.549v5.89H40.328V13.887a3.535,3.535,0,0,1,3.5-3.5,3,3,0,0,1,2.388.955,3.242,3.242,0,0,1,.955,2.388v3.821Z" transform="translate(23.352 6.013)" fill="#414a56"/>
        <path id="Trazado_900012" data-name="Trazado 900012" d="M39.168,17.549v5.89h-7V13.887a3.534,3.534,0,0,1,3.5-3.5,3,3,0,0,1,2.388.955,3.242,3.242,0,0,1,.955,2.388v3.821Z" transform="translate(18.624 6.013)" fill="#414a56"/>
        <path id="Trazado_900013" data-name="Trazado 900013" d="M34.905,5.143a1.432,1.432,0,1,1-1.432,1.432,1.426,1.426,0,0,1,1.432-1.432" transform="translate(19.382 2.978)"/>
        <path id="Trazado_900014" data-name="Trazado 900014" d="M31.7,22.483A14.965,14.965,0,1,1,16.736,37.448,14.946,14.946,0,0,1,31.7,22.483" transform="translate(9.691 13.019)" fill="#232b3f"/>
        <path id="Trazado_900015" data-name="Trazado 900015" d="M37.151,32.232v5.253H31.9V42.9H26.485V37.486H21.072V32.232h5.413V26.819H31.9v5.413Z" transform="translate(12.201 15.53)" fill="#7da8ff"/>
        <path id="Trazado_900016" data-name="Trazado 900016" d="M31,17.549v5.89H24V13.887a3.534,3.534,0,0,1,3.5-3.5,3.008,3.008,0,0,1,2.389.955,3.242,3.242,0,0,1,.955,2.388v3.821Z" transform="translate(13.895 6.013)" fill="#414a56"/>
        <path id="Trazado_900017" data-name="Trazado 900017" d="M24.824,1.412A1.432,1.432,0,1,1,23.39,2.844a1.432,1.432,0,0,1,1.434-1.432" transform="translate(13.544 0.818)"/>
        <path id="Trazado_900018" data-name="Trazado 900018" d="M22.734,17.549v5.89H15.728V13.887a3.535,3.535,0,0,1,3.5-3.5,3,3,0,0,1,2.388.955,3.242,3.242,0,0,1,.955,2.388v3.821Z" transform="translate(9.107 6.013)" fill="#414a56"/>
        <path id="Trazado_900019" data-name="Trazado 900019" d="M14.741,5.747a1.432,1.432,0,1,1-1.432,1.432,1.427,1.427,0,0,1,1.432-1.432" transform="translate(7.706 3.328)"/>
        <path id="Trazado_900020" data-name="Trazado 900020" d="M14.567,17.549v5.89h-7V13.887a3.534,3.534,0,0,1,3.5-3.5,3,3,0,0,1,2.388.955,3.236,3.236,0,0,1,.955,2.388v3.821Z" transform="translate(4.379 6.013)" fill="#414a56"/>
        <rect id="Rectángulo_404027" data-name="Rectángulo 404027" width="6.051" height="6.051" transform="translate(7.96 71.322)" fill="#88c116"/>
        <rect id="Rectángulo_404028" data-name="Rectángulo 404028" width="6.051" height="6.049" transform="translate(7.96 61.294)" fill="#88c116"/>
        <rect id="Rectángulo_404029" data-name="Rectángulo 404029" width="6.051" height="6.049" transform="translate(7.96 51.421)" fill="#88c116"/>
        <rect id="Rectángulo_404030" data-name="Rectángulo 404030" width="6.051" height="6.049" transform="translate(7.96 41.393)" fill="#88c116"/>
        <path id="Trazado_900021" data-name="Trazado 900021" d="M1.533,10.889A1.433,1.433,0,1,1,.1,12.323a1.432,1.432,0,0,1,1.432-1.434" transform="translate(0.058 6.305)"/>
        <path id="Trazado_900022" data-name="Trazado 900022" d="M32.189,44.145H26.777a1.026,1.026,0,0,1-.955-.955v-4.3h-4.3a1.028,1.028,0,0,1-.957-.955V32.524a1.029,1.029,0,0,1,.957-.957h4.3v-4.3a1.03,1.03,0,0,1,.955-.955h5.411a1.03,1.03,0,0,1,.955.955v4.3h4.3a1.029,1.029,0,0,1,.957.957v5.411a1.028,1.028,0,0,1-.957.955h-4.3v4.3a1.026,1.026,0,0,1-.955.955m-4.458-1.911h3.344v-4.3a1.027,1.027,0,0,1,.954-.955h4.3V33.638h-4.3a1.026,1.026,0,0,1-.954-.955v-4.3H27.731v4.3a1.026,1.026,0,0,1-.954.955h-4.3V36.98h4.3a1.027,1.027,0,0,1,.954.955Z" transform="translate(11.909 15.237)"/>
        <path id="Trazado_900023" data-name="Trazado 900023" d="M32.052,53.719A15.92,15.92,0,1,1,47.972,37.8a15.968,15.968,0,0,1-15.92,15.92m0-29.929A14.009,14.009,0,1,0,46.062,37.8,14.031,14.031,0,0,0,32.052,23.79" transform="translate(9.341 12.669)"/>
        <path id="Trazado_900024" data-name="Trazado 900024" d="M81.613,23.79H1.056a.955.955,0,0,1,0-1.911H81.613a.955.955,0,1,1,0,1.911" transform="translate(0.058 12.669)"/>
        <path id="Trazado_900025" data-name="Trazado 900025" d="M73.552,75.987H9.075A9.07,9.07,0,0,1,0,66.912V23.291a9.071,9.071,0,0,1,9.075-9.075h2.866a.955.955,0,0,1,0,1.911H9.075a7.066,7.066,0,0,0-7,7V66.752a7.067,7.067,0,0,0,7,7.006H73.552a7.067,7.067,0,0,0,7-7.006V23.291a7.067,7.067,0,0,0-7-7.006H70.687a.955.955,0,1,1,0-1.909h2.864a9.07,9.07,0,0,1,9.075,9.075V67.071a8.935,8.935,0,0,1-9.075,8.915" transform="translate(0 8.232)"/>
        <path id="Trazado_900026" data-name="Trazado 900026" d="M18.4,16.226H12.348a.955.955,0,1,1,0-1.909H18.4a.955.955,0,1,1,0,1.909" transform="translate(6.597 8.29)"/>
        <path id="Trazado_900027" data-name="Trazado 900027" d="M26.565,16.226H20.515a.955.955,0,1,1,0-1.909h6.049a.955.955,0,1,1,0,1.909" transform="translate(11.326 8.29)"/>
        <path id="Trazado_900028" data-name="Trazado 900028" d="M34.731,16.226H28.681a.955.955,0,1,1,0-1.909h6.049a1.026,1.026,0,0,1,.955.955.917.917,0,0,1-.955.954" transform="translate(16.054 8.29)"/>
        <path id="Trazado_900029" data-name="Trazado 900029" d="M42.9,16.226H36.848a.955.955,0,1,1,0-1.909H42.9a1.026,1.026,0,0,1,.955.955c.159.477-.319.954-.955.954" transform="translate(20.784 8.29)"/>
        <path id="Trazado_900030" data-name="Trazado 900030" d="M14.917,24.788h-7a1.027,1.027,0,0,1-.955-.955V14.44a4.458,4.458,0,1,1,8.915,0v9.233c0,.638-.319,1.115-.955,1.115m-5.89-2.07h4.936V14.281a2.742,2.742,0,0,0-2.549-2.547,2.515,2.515,0,0,0-2.547,2.547c.159,0,.159,8.437.159,8.437" transform="translate(4.028 5.78)"/>
        <path id="Trazado_900031" data-name="Trazado 900031" d="M23.083,24.788h-7a1.027,1.027,0,0,1-.955-.955V14.44a4.458,4.458,0,1,1,8.915,0v9.233a.9.9,0,0,1-.955,1.115m-5.89-2.07h4.936V14.281a2.742,2.742,0,0,0-2.549-2.547,2.515,2.515,0,0,0-2.547,2.547v8.437Z" transform="translate(8.757 5.78)"/>
        <path id="Trazado_900032" data-name="Trazado 900032" d="M31.351,24.788h-7a1.027,1.027,0,0,1-.955-.955V14.44a4.458,4.458,0,1,1,8.915,0v9.233a1.064,1.064,0,0,1-.955,1.115M25.3,22.718h4.936V14.281a2.742,2.742,0,0,0-2.549-2.547,2.515,2.515,0,0,0-2.547,2.547v8.437Z" transform="translate(13.544 5.78)"/>
        <path id="Trazado_900033" data-name="Trazado 900033" d="M39.517,24.788h-7a1.027,1.027,0,0,1-.955-.955V14.44a4.458,4.458,0,1,1,8.915,0v9.233a1.064,1.064,0,0,1-.955,1.115m-6.049-2.07H38.4V14.281a2.738,2.738,0,0,0-2.549-2.547,2.515,2.515,0,0,0-2.547,2.547v8.437Z" transform="translate(18.273 5.78)"/>
        <path id="Trazado_900034" data-name="Trazado 900034" d="M47.684,24.788h-7a1.027,1.027,0,0,1-.955-.955V14.44a4.458,4.458,0,1,1,8.915,0v9.233c0,.638-.319,1.115-.955,1.115m-5.89-2.07H46.73V14.281a2.742,2.742,0,0,0-2.549-2.547,2.515,2.515,0,0,0-2.547,2.547v8.437Z" transform="translate(23.002 5.78)"/>
        <path id="Trazado_900035" data-name="Trazado 900035" d="M6.051,12.1A6.051,6.051,0,1,1,12.1,6.049,6.049,6.049,0,0,1,6.051,12.1m0-10.032A3.941,3.941,0,0,0,2.07,6.049,3.942,3.942,0,0,0,6.051,10.03,3.941,3.941,0,0,0,10.03,6.049,3.941,3.941,0,0,0,6.051,2.07" transform="translate(0 0)"/>
        <path id="Trazado_900036" data-name="Trazado 900036" d="M52.221,14.408a4.935,4.935,0,1,1,4.936-4.935,4.86,4.86,0,0,1-4.936,4.935m0-7.96A3.023,3.023,0,0,0,49.2,9.473a3.025,3.025,0,0,0,6.049,0,2.928,2.928,0,0,0-3.025-3.025" transform="translate(27.38 2.627)"/>
        <path id="Trazado_900037" data-name="Trazado 900037" d="M11.442,33.57H5.391a1.029,1.029,0,0,1-.955-.957V26.564a1.026,1.026,0,0,1,.955-.954h6.051a1.024,1.024,0,0,1,.954.954v6.049a1.027,1.027,0,0,1-.954.957M6.506,31.658h3.981V27.677H6.506Z" transform="translate(2.569 14.829)"/>
        <path id="Trazado_900038" data-name="Trazado 900038" d="M11.442,39.921H5.391a1.029,1.029,0,0,1-.955-.955V32.915a1.028,1.028,0,0,1,.955-.954h6.051a1.027,1.027,0,0,1,.954.954v6.051a1.027,1.027,0,0,1-.954.955M6.506,37.852h3.981V33.872H6.506Z" transform="translate(2.569 18.507)"/>
        <path id="Trazado_900039" data-name="Trazado 900039" d="M11.442,46.172H5.391a1.029,1.029,0,0,1-.955-.957V39.167a1.029,1.029,0,0,1,.955-.955h6.051a1.027,1.027,0,0,1,.954.955v6.048a1.027,1.027,0,0,1-.954.957M6.506,44.261h3.981V40.281H6.506Z" transform="translate(2.569 22.126)"/>
        <path id="Trazado_900040" data-name="Trazado 900040" d="M11.442,52.524H5.391a1.029,1.029,0,0,1-.955-.955V45.518a1.027,1.027,0,0,1,.955-.954h6.051a1.026,1.026,0,0,1,.954.954v5.891a1.065,1.065,0,0,1-.954,1.115m-4.936-2.07h3.981V46.473H6.506Z" transform="translate(2.569 25.805)"/>
        <path id="Trazado_900041" data-name="Trazado 900041" d="M14.768,33.569H11.744a1.028,1.028,0,0,1-.955-.957V26.563a1.026,1.026,0,0,1,.955-.954h4.935a.955.955,0,1,1,0,1.911H12.7V31.5h2.07a1.027,1.027,0,0,1,.955.955c0,.478-.478,1.115-.955,1.115" transform="translate(6.247 14.829)"/>
        <path id="Trazado_900042" data-name="Trazado 900042" d="M17.692,39.921H11.642a1.029,1.029,0,0,1-.955-.955V32.916a1.029,1.029,0,0,1,.955-.955h3.024a.955.955,0,1,1,0,1.911H12.6v3.981h4.938a1.024,1.024,0,0,1,.954.954c0,.478-.159,1.115-.8,1.115" transform="translate(6.188 18.507)"/>
        <path id="Trazado_900043" data-name="Trazado 900043" d="M17.693,46.172H11.642a1.029,1.029,0,0,1-.955-.957V39.167a1.029,1.029,0,0,1,.955-.955h6.051a1.027,1.027,0,0,1,.954.955v6.048c.159.478-.319.957-.954.957m-4.936-1.911h3.981V40.281H12.757Z" transform="translate(6.188 22.126)"/>
        <path id="Trazado_900044" data-name="Trazado 900044" d="M17.693,52.524H11.642a1.029,1.029,0,0,1-.955-.955V45.518a1.027,1.027,0,0,1,.955-.954h6.051a1.026,1.026,0,0,1,.954.954v5.891a.9.9,0,0,1-.954,1.115m-4.936-2.07h3.981V46.473H12.757Z" transform="translate(6.188 25.805)"/>
        <path id="Trazado_900045" data-name="Trazado 900045" d="M49.855,33.57H43.8a1.029,1.029,0,0,1-.955-.957V26.564a1.026,1.026,0,0,1,.955-.954h6.051a1.026,1.026,0,0,1,.955.954v6.049a.919.919,0,0,1-.955.957m-4.936-1.912H48.9V27.677H44.919Z" transform="translate(24.811 14.829)"/>
        <path id="Trazado_900046" data-name="Trazado 900046" d="M49.855,39.921H43.8a1.029,1.029,0,0,1-.955-.955V32.915a1.028,1.028,0,0,1,.955-.954h6.051a1.028,1.028,0,0,1,.955.954v6.051a.918.918,0,0,1-.955.955m-4.936-2.069H48.9V33.872H44.919Z" transform="translate(24.811 18.507)"/>
        <path id="Trazado_900047" data-name="Trazado 900047" d="M49.855,46.172H43.8a1.029,1.029,0,0,1-.955-.957V39.167a1.029,1.029,0,0,1,.955-.955h6.051a1.029,1.029,0,0,1,.955.955v6.048a.919.919,0,0,1-.955.957m-4.936-1.911H48.9V40.281H44.919Z" transform="translate(24.811 22.126)"/>
        <path id="Trazado_900048" data-name="Trazado 900048" d="M49.855,52.524H43.8a1.029,1.029,0,0,1-.955-.955V45.518a1.027,1.027,0,0,1,.955-.954h6.051a1.027,1.027,0,0,1,.955.954v5.891c0,.636-.319,1.115-.955,1.115m-4.936-2.07H48.9V46.473H44.919Z" transform="translate(24.811 25.805)"/>
        <path id="Trazado_900049" data-name="Trazado 900049" d="M43.195,33.511H40.169a.955.955,0,0,1,0-1.911h2.07V27.62H38.259a.955.955,0,0,1,0-1.911h4.936a1.029,1.029,0,0,1,.955.955v6.049a1.034,1.034,0,0,1-.955.8" transform="translate(21.601 14.887)"/>
        <path id="Trazado_900050" data-name="Trazado 900050" d="M43.6,39.862H37.553a.955.955,0,0,1,0-1.911h4.936V33.973h-2.07a.955.955,0,1,1,0-1.911h3.025a1.026,1.026,0,0,1,.955.955v6.049c.159.317-.319.8-.8.8" transform="translate(21.192 18.565)"/>
        <path id="Trazado_900051" data-name="Trazado 900051" d="M43.6,46.172H37.553a1.027,1.027,0,0,1-.954-.957V39.167a1.027,1.027,0,0,1,.954-.955H43.6a1.029,1.029,0,0,1,.955.955v6.048a1.029,1.029,0,0,1-.955.957m-5.1-1.911h3.981V40.281H38.508Z" transform="translate(21.192 22.126)"/>
        <path id="Trazado_900052" data-name="Trazado 900052" d="M43.6,52.524H37.553a1.027,1.027,0,0,1-.954-.955V45.518a1.026,1.026,0,0,1,.954-.954H43.6a1.027,1.027,0,0,1,.955.954v5.891a1.066,1.066,0,0,1-.955,1.115m-5.1-2.07h3.981V46.473H38.508Z" transform="translate(21.192 25.805)"/>
      </g>
    </g>
  </g>
</svg>
