<svg xmlns="http://www.w3.org/2000/svg" xmlns:xlink="http://www.w3.org/1999/xlink" width="63" height="63" viewBox="0 0 63 63">
  <defs>
    <clipPath id="clip-path">
      <rect id="Rectángulo_401918" data-name="Rectángulo 401918" width="41.604" height="41.478" fill="none" stroke="#59836b" stroke-width="1"/>
    </clipPath>
  </defs>
  <g id="Grupo_1110147" data-name="Grupo 1110147" transform="translate(-664 -3739)">
    <circle id="Elipse_11584" data-name="Elipse 11584" cx="31.5" cy="31.5" r="31.5" transform="translate(664 3739)" fill="#fff"/>
    <g id="Grupo_1100195" data-name="Grupo 1100195" transform="translate(675 3750)">
      <g id="Grupo_1100194" data-name="Grupo 1100194" clip-path="url(#clip-path)">
        <path id="Trazado_877491" data-name="Trazado 877491" d="M0,41.479V26.865a10.565,10.565,0,0,1,2.14-6.406,10.771,10.771,0,0,1,3.927-3.21l1.2-.576L6.16,15.935A7.627,7.627,0,0,1,2.765,9.573V7.655a7.654,7.654,0,0,1,15.308,0V9.573a7.656,7.656,0,0,1-3.234,6.25l-1.078.761,1.2.548a11.5,11.5,0,0,1,3.221,2.211l.307.3.415-.109a6.691,6.691,0,0,1,1.7-.219c.173,0,.349.007.524.02l.942.073-.133-.935a7.849,7.849,0,0,1-.075-1.1,8.817,8.817,0,0,1,1.424-4.817l.03-.043.2-.3-.108-.344a7.694,7.694,0,0,1-.349-2.3V7.655a7.654,7.654,0,0,1,15.308,0V9.573a7.681,7.681,0,0,1-.35,2.3l-.107.343.2.3a8.856,8.856,0,0,1,1.148,7.176l-.1.363.23.3A10.575,10.575,0,0,1,41.6,26.865V41.479Zm16.994-6.35a6.092,6.092,0,0,0-5.076,4.383l-.246.948H29.533l-.243-.947a6.066,6.066,0,0,0-5.035-4.383l-.677-.114-.18.663a2.874,2.874,0,0,1-5.547,0l-.18-.662Zm8.675-3.084a6.677,6.677,0,0,1-.923.881l-1.215.955,1.5.376a7.6,7.6,0,0,1,3.218,1.683A6.623,6.623,0,0,1,30.4,39.827l.105.634H40.586v-13.6A9.655,9.655,0,0,0,34.964,18.1l-.86-.393-.2.925a3.242,3.242,0,0,1-6.3.192l-.259-.933-.844.476a13.919,13.919,0,0,0-1.769,1.2l-.752.6.753.594a6.7,6.7,0,0,1,2.184,3.059l.221.634L27.8,24.3a3.009,3.009,0,0,1,3.652,2.941v4.541H25.9ZM6.224,18.308a9.758,9.758,0,0,0-5.206,8.556v13.6H10.7l.106-.633a6.617,6.617,0,0,1,2.17-3.889,7.681,7.681,0,0,1,3.206-1.675l1.5-.379-1.217-.952a6.676,6.676,0,0,1-.932-.887l-.227-.262H9.753V27.242A3.009,3.009,0,0,1,13.405,24.3l.656.142.221-.633A6.688,6.688,0,0,1,16.673,20.6l.8-.584-.774-.62a10.286,10.286,0,0,0-2.024-1.271l-.864-.409-.2.934a3.242,3.242,0,0,1-6.3.142l-.242-.917ZM18.768,34.926a1.856,1.856,0,1,0,3.712,0V33.035l.313-.131a5.658,5.658,0,0,0,3.462-4.732l.073-.825H23.853a2.91,2.91,0,0,1-1.908-.714l-.5-.432-.5.432a2.91,2.91,0,0,1-1.908.714H14.88l.073.824a5.65,5.65,0,0,0,3.5,4.747l.316.13Zm9.675-9.675a1.99,1.99,0,0,0-.628.1l-.519.172v2.142a6.713,6.713,0,0,1-.337,2.1l-.328,1h3.8V27.242a1.994,1.994,0,0,0-1.992-1.992m-15.679,0a1.994,1.994,0,0,0-1.992,1.992v3.523h3.8l-.327-.995a6.719,6.719,0,0,1-.336-2.1V25.526l-.519-.172a1.993,1.993,0,0,0-.628-.1m9.352-.059a1.9,1.9,0,0,0,1.737,1.138h2.474l-.073-.825a5.673,5.673,0,0,0-11.3,0l-.073.825h4.164a1.9,1.9,0,0,0,1.737-1.138Zm-13.9-7.232a2.224,2.224,0,1,0,4.448,0V15.827l.313-.131a6.623,6.623,0,0,0,4.075-6.123V7.734H15.27V6.716h1.8l-.3-.977a6.59,6.59,0,0,0-1.337-2.422l-.86-.993-.429,1.242a2.943,2.943,0,0,1-2.779,1.984H9.616A2.963,2.963,0,0,1,6.806,3.47L6.417,2.2l-.895.978A6.676,6.676,0,0,0,4.066,5.738l-.3.977H5.586V7.734h-1.8V9.573A6.615,6.615,0,0,0,7.9,15.714l.316.13Zm20.293,0a2.224,2.224,0,1,0,4.448,0V15.827l.312-.131a6.638,6.638,0,0,0,4.034-5.376l.085-.761-.762-.078c-.187-.019-.372-.029-.55-.031h-.04a6.832,6.832,0,0,1-4.793-1.991l-.534-.531-.534.531A6.832,6.832,0,0,1,25.385,9.45h-.041c-.179,0-.364.012-.551.031l-.761.078.085.76A6.629,6.629,0,0,0,28.2,15.714l.316.13Zm-5.1-3.427a7.8,7.8,0,0,0-.533,2.843,6.935,6.935,0,0,0,.051.851l.166,1.332,1.055-.83a14.266,14.266,0,0,1,2.26-1.466l1.155-.592-1.084-.715a7.61,7.61,0,0,1-1.771-1.619L23.892,13.3Zm13.3-.2a7.631,7.631,0,0,1-1.563,1.479l-1.087.771,1.218.54a10.617,10.617,0,0,1,2.045,1.2l1.144.854.067-1.426c.006-.135.009-.257.009-.373a7.8,7.8,0,0,0-.533-2.845L37.531,13.3ZM31.141,5.713a5.843,5.843,0,0,0,4.9,2.719h.041c.143,0,.293.007.447.019l.813.06V7.655a6.636,6.636,0,0,0-13.271,0v.856l.813-.06c.154-.011.3-.018.448-.019h.039a5.845,5.845,0,0,0,4.906-2.719l.43-.676ZM10.419,1.019A6.59,6.59,0,0,0,8,1.477l-.715.281.291.712a2.83,2.83,0,0,1,.153.5L7.734,3A1.928,1.928,0,0,0,9.616,4.531h1.749A1.928,1.928,0,0,0,13.247,3a2.811,2.811,0,0,1,.145-.48l.278-.692-.688-.289a6.584,6.584,0,0,0-2.563-.515" transform="translate(0 -0.001)" stroke="#59836b" stroke-width="1"/>
      </g>
    </g>
  </g>
</svg>
