<svg xmlns="http://www.w3.org/2000/svg" xmlns:xlink="http://www.w3.org/1999/xlink" width="63" height="63" viewBox="0 0 63 63">
  <defs>
    <clipPath id="clip-path">
      <rect id="Rectángulo_401926" data-name="Rectángulo 401926" width="42.299" height="38.003" fill="none" stroke="#59836b" stroke-width="1"/>
    </clipPath>
  </defs>
  <g id="Grupo_1110149" data-name="Grupo 1110149" transform="translate(-874 -3739)">
    <circle id="Elipse_11585" data-name="Elipse 11585" cx="31.5" cy="31.5" r="31.5" transform="translate(874 3739)" fill="#fff"/>
    <g id="Grupo_1100200" data-name="Grupo 1100200" transform="translate(883.85 3748.65)">
      <g id="Grupo_1100199" data-name="Grupo 1100199" clip-path="url(#clip-path)">
        <path id="Trazado_877495" data-name="Trazado 877495" d="M32.011,38a10.289,10.289,0,0,1-1.2-20.508l.682-.079V14.4l-.819.051A26.26,26.26,0,0,0,11.954,24.786l-.42.545.494.479a7.075,7.075,0,1,1-1.91-1.323l.564.267.378-.5a28.835,28.835,0,0,1,3.2-3.549L14.7,20.3l-3.239-5.979H8.409A2.783,2.783,0,0,1,8.4,8.757a2.821,2.821,0,0,1,.546.054l.02,0,5.111.731.017,0a3.29,3.29,0,0,1,2.6,3.2v1.57H12.627L15.489,19.6l.718-.561a28.2,28.2,0,0,1,2.393-1.68,25.689,25.689,0,0,1,12.169-3.948l.728-.04V9.833a2.578,2.578,0,0,1,2.575-2.575,1.965,1.965,0,1,0,0-3.93H30.919l-.19.493A2.833,2.833,0,0,1,28.1,5.626H26.166a2.813,2.813,0,1,1,0-5.625H28.1a2.833,2.833,0,0,1,2.625,1.805l.19.494h3.153a2.993,2.993,0,1,1,0,5.985,1.549,1.549,0,0,0-1.547,1.547v7.584l.682.079A10.289,10.289,0,0,1,32.011,38m-7.167-4.431A9.259,9.259,0,1,0,33.411,18.56l-.887-.135V24.3l.5.186a2.958,2.958,0,0,1-1.018,5.736,2.935,2.935,0,0,1-1-.173l-.536-.192-1.843,2.458H23.813ZM7.1,24.838A6.078,6.078,0,1,0,11.647,26.9l-.684-.775L10.416,27c-.222.355-.438.719-.641,1.081-.486.863-.95,1.771-1.381,2.7l-.138.3H5.166V30.048H7.6l.211-.432c.34-.7.7-1.382,1.069-2.039.228-.4.472-.815.727-1.22l.5-.8-.885-.332A6.032,6.032,0,0,0,7.1,24.838M30.61,18.56a9.32,9.32,0,0,0-7.86,9.155,9.215,9.215,0,0,0,.519,3.056l.181.516h4.673L29.7,29.178l-.255-.441a2.955,2.955,0,0,1,1.544-4.252l.5-.186V18.425Zm1.4,6.772a1.93,1.93,0,1,0,1.93,1.93,1.932,1.932,0,0,0-1.93-1.93M8.412,9.787a1.754,1.754,0,1,0,0,3.508h7.369l-.142-.891a2.241,2.241,0,0,0-1.7-1.836L13.9,10.56,8.744,9.819a1.738,1.738,0,0,0-.332-.032M26.166,1.029a1.785,1.785,0,1,0,0,3.57H28.1a1.785,1.785,0,0,0,0-3.57Z" transform="translate(0 -0.001)" stroke="#59836b" stroke-width="1"/>
      </g>
    </g>
  </g>
</svg>
